G04 (created by PCBNEW (2013-mar-13)-testing) date vie 26 abr 2013 21:59:18 ART*
%MOIN*%
G04 Gerber Fmt 3.4, Leading zero omitted, Abs format*
%FSLAX34Y34*%
G01*
G70*
G90*
G04 APERTURE LIST*
%ADD10C,2.3622e-06*%
%ADD11C,0.012*%
%ADD12C,0.0246063*%
%ADD13C,0.0669291*%
%ADD14R,0.06X0.06*%
%ADD15C,0.0708661*%
%ADD16R,0.0708661X0.0708661*%
%ADD17R,0.0472X0.0472*%
%ADD18R,0.0787X0.0787*%
%ADD19C,0.0787*%
%ADD20O,0.062X0.09*%
%ADD21R,0.062X0.09*%
%ADD22R,0.0669291X0.0669291*%
%ADD23C,0.0629921*%
%ADD24R,0.11811X0.11811*%
%ADD25C,0.11811*%
%ADD26C,0.16*%
%ADD27C,0.0787402*%
%ADD28C,0.055*%
%ADD29R,0.055X0.035*%
%ADD30C,0.035*%
%ADD31C,0.02*%
%ADD32C,0.01*%
G04 APERTURE END LIST*
G54D10*
G54D11*
X33936Y-35220D02*
X33936Y-34763D01*
X34241Y-34991D02*
X33631Y-34991D01*
X33441Y-34191D02*
X33441Y-34477D01*
X33822Y-34505D01*
X33783Y-34477D01*
X33745Y-34420D01*
X33745Y-34277D01*
X33783Y-34220D01*
X33822Y-34191D01*
X33898Y-34163D01*
X34088Y-34163D01*
X34164Y-34191D01*
X34203Y-34220D01*
X34241Y-34277D01*
X34241Y-34420D01*
X34203Y-34477D01*
X34164Y-34505D01*
X33441Y-33991D02*
X34241Y-33791D01*
X33441Y-33591D01*
X12298Y-49010D02*
X12241Y-48972D01*
X12155Y-48972D01*
X12070Y-49010D01*
X12013Y-49086D01*
X11984Y-49163D01*
X11955Y-49315D01*
X11955Y-49429D01*
X11984Y-49582D01*
X12013Y-49658D01*
X12070Y-49734D01*
X12155Y-49772D01*
X12213Y-49772D01*
X12298Y-49734D01*
X12327Y-49696D01*
X12327Y-49429D01*
X12213Y-49429D01*
X12584Y-49772D02*
X12584Y-48972D01*
X12927Y-49772D01*
X12927Y-48972D01*
X13213Y-49772D02*
X13213Y-48972D01*
X13355Y-48972D01*
X13441Y-49010D01*
X13498Y-49086D01*
X13527Y-49163D01*
X13555Y-49315D01*
X13555Y-49429D01*
X13527Y-49582D01*
X13498Y-49658D01*
X13441Y-49734D01*
X13355Y-49772D01*
X13213Y-49772D01*
X24773Y-41663D02*
X24830Y-41701D01*
X24945Y-41701D01*
X25002Y-41663D01*
X25030Y-41587D01*
X25030Y-41549D01*
X25002Y-41473D01*
X24945Y-41435D01*
X24859Y-41435D01*
X24802Y-41397D01*
X24773Y-41320D01*
X24773Y-41282D01*
X24802Y-41206D01*
X24859Y-41168D01*
X24945Y-41168D01*
X25002Y-41206D01*
X25230Y-41168D02*
X25345Y-41701D01*
X25459Y-41320D01*
X25573Y-41701D01*
X25687Y-41168D01*
G54D12*
X12168Y-56325D02*
X12899Y-56325D01*
X12505Y-56850D01*
X12674Y-56850D01*
X12786Y-56916D01*
X12843Y-56981D01*
X12899Y-57112D01*
X12899Y-57440D01*
X12843Y-57572D01*
X12786Y-57637D01*
X12674Y-57703D01*
X12336Y-57703D01*
X12224Y-57637D01*
X12168Y-57572D01*
X13405Y-57572D02*
X13461Y-57637D01*
X13405Y-57703D01*
X13349Y-57637D01*
X13405Y-57572D01*
X13405Y-57703D01*
X14586Y-57703D02*
X13911Y-57703D01*
X14249Y-57703D02*
X14249Y-56325D01*
X14136Y-56522D01*
X14024Y-56653D01*
X13911Y-56719D01*
X15598Y-56784D02*
X15598Y-57703D01*
X15317Y-56259D02*
X15036Y-57244D01*
X15767Y-57244D01*
X16048Y-56325D02*
X16723Y-56325D01*
X16386Y-57703D02*
X16386Y-56325D01*
X17117Y-57703D02*
X17117Y-56325D01*
X17511Y-56325D02*
X18186Y-56325D01*
X17848Y-57703D02*
X17848Y-56325D01*
X18804Y-56325D02*
X19029Y-56325D01*
X19142Y-56391D01*
X19254Y-56522D01*
X19311Y-56784D01*
X19311Y-57244D01*
X19254Y-57506D01*
X19142Y-57637D01*
X19029Y-57703D01*
X18804Y-57703D01*
X18692Y-57637D01*
X18579Y-57506D01*
X18523Y-57244D01*
X18523Y-56784D01*
X18579Y-56522D01*
X18692Y-56391D01*
X18804Y-56325D01*
G54D11*
X35775Y-25051D02*
X35807Y-24982D01*
X35807Y-24868D01*
X35775Y-24822D01*
X35742Y-24799D01*
X35677Y-24776D01*
X35612Y-24776D01*
X35547Y-24799D01*
X35515Y-24822D01*
X35482Y-24868D01*
X35450Y-24959D01*
X35417Y-25005D01*
X35385Y-25028D01*
X35320Y-25051D01*
X35255Y-25051D01*
X35190Y-25028D01*
X35158Y-25005D01*
X35125Y-24959D01*
X35125Y-24845D01*
X35158Y-24776D01*
X35450Y-24569D02*
X35450Y-24409D01*
X35807Y-24340D02*
X35807Y-24569D01*
X35125Y-24569D01*
X35125Y-24340D01*
X35807Y-23858D02*
X35482Y-24019D01*
X35807Y-24133D02*
X35125Y-24133D01*
X35125Y-23950D01*
X35158Y-23904D01*
X35190Y-23881D01*
X35255Y-23858D01*
X35352Y-23858D01*
X35417Y-23881D01*
X35450Y-23904D01*
X35482Y-23950D01*
X35482Y-24133D01*
X35125Y-23720D02*
X35807Y-23560D01*
X35125Y-23399D01*
X35125Y-23147D02*
X35125Y-23055D01*
X35158Y-23009D01*
X35223Y-22963D01*
X35352Y-22940D01*
X35580Y-22940D01*
X35710Y-22963D01*
X35775Y-23009D01*
X35807Y-23055D01*
X35807Y-23147D01*
X35775Y-23192D01*
X35710Y-23238D01*
X35580Y-23261D01*
X35352Y-23261D01*
X35223Y-23238D01*
X35158Y-23192D01*
X35125Y-23147D01*
X25970Y-52075D02*
X25684Y-52075D01*
X25684Y-51275D01*
X26170Y-51656D02*
X26370Y-51656D01*
X26455Y-52075D02*
X26170Y-52075D01*
X26170Y-51275D01*
X26455Y-51275D01*
X26712Y-52075D02*
X26712Y-51275D01*
X26855Y-51275D01*
X26941Y-51313D01*
X26998Y-51390D01*
X27027Y-51466D01*
X27055Y-51618D01*
X27055Y-51732D01*
X27027Y-51885D01*
X26998Y-51961D01*
X26941Y-52037D01*
X26855Y-52075D01*
X26712Y-52075D01*
X28027Y-51542D02*
X28027Y-52075D01*
X27884Y-51237D02*
X27741Y-51809D01*
X28112Y-51809D01*
G54D13*
X14976Y-47838D03*
X12976Y-47838D03*
X14976Y-44838D03*
X12976Y-44838D03*
X14976Y-43822D03*
X12976Y-43822D03*
X14976Y-40822D03*
X12976Y-40822D03*
X35555Y-41125D03*
X35555Y-43125D03*
X32555Y-41125D03*
X32555Y-43125D03*
X21775Y-50984D03*
X18775Y-50984D03*
X26181Y-43822D03*
X26181Y-40822D03*
X19216Y-41535D03*
X16216Y-41535D03*
G54D14*
X32767Y-45062D03*
G54D15*
X33767Y-45062D03*
X32767Y-46062D03*
X33767Y-46062D03*
X32767Y-47062D03*
X33767Y-47062D03*
G54D16*
X30299Y-50000D03*
G54D15*
X31299Y-50000D03*
X32299Y-50000D03*
G54D16*
X31692Y-24629D03*
G54D15*
X31692Y-25629D03*
X31692Y-26629D03*
G54D16*
X14074Y-28921D03*
G54D15*
X14074Y-29921D03*
X14074Y-30921D03*
G54D16*
X35452Y-26007D03*
G54D15*
X35452Y-27007D03*
X35452Y-28007D03*
G54D16*
X31889Y-29314D03*
G54D15*
X31889Y-30314D03*
X31889Y-31314D03*
G54D16*
X14074Y-24295D03*
G54D15*
X14074Y-25295D03*
X14074Y-26295D03*
G54D16*
X23909Y-51712D03*
G54D15*
X24909Y-51712D03*
G54D16*
X18307Y-37311D03*
G54D15*
X18307Y-36311D03*
G54D16*
X35433Y-30421D03*
G54D15*
X35433Y-29421D03*
G54D17*
X22736Y-60118D03*
X22736Y-60944D03*
X25098Y-60118D03*
X25098Y-60944D03*
X21555Y-60118D03*
X21555Y-60944D03*
X23917Y-60118D03*
X23917Y-60944D03*
G54D18*
X19925Y-37811D03*
G54D19*
X20425Y-35811D03*
X20925Y-37811D03*
X21425Y-35811D03*
X21925Y-37811D03*
X22425Y-35811D03*
X22925Y-37811D03*
X23425Y-35811D03*
X23925Y-37811D03*
X24425Y-35811D03*
X24925Y-37811D03*
X25425Y-35811D03*
X25925Y-37811D03*
X26425Y-35811D03*
X26925Y-37811D03*
G54D20*
X19106Y-47956D03*
X20106Y-47956D03*
X21106Y-47956D03*
X22106Y-47956D03*
X23106Y-47956D03*
X24106Y-47956D03*
X25106Y-47956D03*
X26106Y-47956D03*
X27106Y-47956D03*
X28106Y-47956D03*
X29106Y-47956D03*
X30106Y-47956D03*
X31106Y-47956D03*
G54D21*
X18106Y-47956D03*
G54D20*
X31106Y-44956D03*
X30106Y-44956D03*
X29106Y-44956D03*
X28106Y-44956D03*
X27106Y-44956D03*
X26106Y-44956D03*
X25106Y-44956D03*
X24106Y-44956D03*
X23106Y-44956D03*
X22106Y-44956D03*
X21106Y-44956D03*
X20106Y-44956D03*
X19106Y-44956D03*
X18106Y-44956D03*
G54D22*
X17125Y-33342D03*
G54D13*
X17125Y-36342D03*
G54D22*
X29724Y-33342D03*
G54D13*
X29724Y-36342D03*
G54D22*
X29724Y-37082D03*
G54D13*
X29724Y-40082D03*
G54D22*
X30708Y-37082D03*
G54D13*
X30708Y-40082D03*
G54D22*
X30708Y-33342D03*
G54D13*
X30708Y-36342D03*
G54D22*
X17125Y-37082D03*
G54D13*
X17125Y-40082D03*
G54D22*
X16141Y-37082D03*
G54D13*
X16141Y-40082D03*
G54D22*
X16141Y-33342D03*
G54D13*
X16141Y-36342D03*
G54D22*
X18110Y-23196D03*
G54D13*
X18110Y-27196D03*
G54D22*
X23590Y-39370D03*
G54D13*
X27590Y-39370D03*
G54D22*
X20244Y-33858D03*
G54D13*
X24244Y-33858D03*
G54D23*
X24500Y-29027D03*
X25500Y-30027D03*
X25500Y-29027D03*
X24500Y-30027D03*
X18200Y-29027D03*
X19200Y-30027D03*
X19200Y-29027D03*
X18200Y-30027D03*
X27649Y-29027D03*
X28649Y-30027D03*
X28649Y-29027D03*
X27649Y-30027D03*
X21350Y-29027D03*
X22350Y-30027D03*
X22350Y-29027D03*
X21350Y-30027D03*
G54D13*
X24106Y-49212D03*
X25106Y-49212D03*
X25106Y-43700D03*
X24106Y-43700D03*
X17283Y-51114D03*
X17283Y-52114D03*
X24106Y-42519D03*
X25106Y-42519D03*
G54D24*
X34251Y-38992D03*
G54D25*
X34251Y-36992D03*
G54D16*
X28543Y-36311D03*
G54D15*
X28543Y-37311D03*
G54D24*
X34448Y-51000D03*
G54D25*
X34448Y-49000D03*
G54D16*
X18578Y-52165D03*
G54D15*
X19578Y-52165D03*
X20578Y-52165D03*
X21578Y-52165D03*
G54D26*
X23425Y-25590D03*
G54D27*
X22244Y-49803D03*
X21062Y-49803D03*
X14960Y-39763D03*
X12598Y-53149D03*
X12598Y-59842D03*
X34251Y-59842D03*
X34251Y-53149D03*
X23425Y-25590D03*
G54D16*
X27165Y-43019D03*
G54D15*
X27165Y-42019D03*
G54D28*
X19133Y-26578D03*
X19133Y-23578D03*
X33070Y-28027D03*
X33070Y-31027D03*
X16141Y-27917D03*
X16141Y-24917D03*
X30511Y-24051D03*
X30511Y-27051D03*
X30216Y-29051D03*
X30216Y-32051D03*
X12893Y-31421D03*
X12893Y-28421D03*
X12893Y-23795D03*
X12893Y-26795D03*
X33346Y-24011D03*
X33346Y-27011D03*
G54D29*
X25098Y-57400D03*
X25098Y-58150D03*
X23917Y-57400D03*
X23917Y-58150D03*
X21555Y-57400D03*
X21555Y-58150D03*
X22736Y-57400D03*
X22736Y-58150D03*
G54D27*
X19291Y-43740D03*
X18110Y-43759D03*
X14625Y-48877D03*
X16220Y-49881D03*
X34015Y-32874D03*
X35000Y-33720D03*
G54D30*
X34173Y-31003D03*
X31948Y-43858D03*
X35098Y-45059D03*
X20393Y-53110D03*
X20433Y-58484D03*
X17677Y-40748D03*
X32362Y-56299D03*
X22204Y-31535D03*
X25236Y-31496D03*
X19881Y-31496D03*
X28188Y-31496D03*
X20137Y-22992D03*
X35413Y-47578D03*
X34685Y-28720D03*
X22421Y-33956D03*
X15826Y-32185D03*
X23248Y-36830D03*
X18464Y-32736D03*
X14074Y-54960D03*
X21062Y-39271D03*
X21692Y-40255D03*
X15354Y-54763D03*
X30669Y-42716D03*
X31692Y-40354D03*
X28661Y-41751D03*
X25492Y-36751D03*
X29350Y-54192D03*
X23149Y-50570D03*
X27657Y-54409D03*
X27952Y-46181D03*
X24547Y-50255D03*
X33956Y-43818D03*
X29547Y-45688D03*
X35433Y-31889D03*
X20019Y-40807D03*
X18149Y-40059D03*
X13818Y-32244D03*
X20078Y-42972D03*
X15157Y-25413D03*
X18484Y-39488D03*
X21102Y-42992D03*
X21122Y-40944D03*
X22125Y-43110D03*
X26535Y-28976D03*
X30511Y-26062D03*
X31082Y-30314D03*
X23031Y-43070D03*
X11909Y-34192D03*
X12027Y-40452D03*
X32303Y-48838D03*
X28562Y-32834D03*
X30137Y-41259D03*
X31082Y-55295D03*
X23956Y-56830D03*
X23917Y-55807D03*
X23937Y-53287D03*
X34251Y-40374D03*
X31673Y-49251D03*
G54D31*
X33070Y-31027D02*
X34149Y-31027D01*
X34149Y-31027D02*
X34173Y-31003D01*
X26181Y-43822D02*
X28586Y-43822D01*
X28586Y-43822D02*
X28937Y-44173D01*
X31476Y-44173D02*
X28937Y-44173D01*
X31948Y-43858D02*
X31633Y-44173D01*
X31633Y-44173D02*
X31476Y-44173D01*
X30511Y-27051D02*
X30751Y-27051D01*
X32480Y-28444D02*
X33070Y-29035D01*
X32145Y-28444D02*
X32480Y-28444D01*
X30751Y-27051D02*
X32145Y-28444D01*
X33070Y-29035D02*
X33070Y-31027D01*
X25236Y-31496D02*
X28188Y-31496D01*
X22204Y-31535D02*
X25118Y-31535D01*
X25118Y-31535D02*
X25157Y-31496D01*
X19881Y-31496D02*
X22165Y-31496D01*
X22165Y-31496D02*
X22204Y-31535D01*
X19881Y-31496D02*
X19665Y-31496D01*
X16771Y-25547D02*
X16141Y-24917D01*
X16771Y-29645D02*
X16771Y-25547D01*
X17952Y-30826D02*
X16771Y-29645D01*
X18996Y-30826D02*
X17952Y-30826D01*
X19665Y-31496D02*
X18996Y-30826D01*
X14665Y-41988D02*
X11948Y-41988D01*
X11240Y-41279D02*
X11240Y-24271D01*
X11948Y-41988D02*
X11240Y-41279D01*
X11240Y-24271D02*
X12460Y-23051D01*
X12460Y-23051D02*
X14822Y-23051D01*
X16141Y-24370D02*
X16141Y-24917D01*
X14822Y-23051D02*
X16141Y-24370D01*
X17677Y-40748D02*
X16023Y-40748D01*
X14783Y-41988D02*
X14665Y-41988D01*
X16023Y-40748D02*
X14783Y-41988D01*
X21775Y-50984D02*
X20472Y-50984D01*
X20472Y-50984D02*
X19350Y-49862D01*
X19350Y-49862D02*
X17362Y-49862D01*
X17362Y-49862D02*
X16279Y-48779D01*
X16279Y-48779D02*
X16279Y-44291D01*
X16279Y-44291D02*
X19035Y-41535D01*
X19035Y-41535D02*
X19216Y-41535D01*
X35177Y-56299D02*
X32362Y-56299D01*
X35452Y-56023D02*
X35177Y-56299D01*
X35452Y-48405D02*
X35452Y-56023D01*
X34980Y-47933D02*
X35452Y-48405D01*
X34980Y-47263D02*
X34980Y-47933D01*
X35118Y-47125D02*
X34980Y-47263D01*
X35118Y-45078D02*
X35118Y-47125D01*
X35098Y-45059D02*
X35118Y-45078D01*
X20393Y-58444D02*
X20393Y-53110D01*
X20433Y-58484D02*
X20393Y-58444D01*
G54D11*
X16141Y-24917D02*
X16141Y-24311D01*
X14881Y-23051D02*
X12460Y-23051D01*
X16141Y-24311D02*
X14881Y-23051D01*
X12460Y-23051D02*
X11240Y-24271D01*
X33070Y-29035D02*
X33070Y-31027D01*
X20472Y-50984D02*
X19350Y-49862D01*
X22047Y-31496D02*
X22165Y-31496D01*
X22165Y-31496D02*
X22204Y-31535D01*
X25157Y-31496D02*
X25236Y-31496D01*
X25157Y-31496D02*
X28188Y-31496D01*
X19881Y-31496D02*
X22047Y-31496D01*
X22047Y-31496D02*
X25157Y-31496D01*
G54D31*
X34685Y-28720D02*
X34685Y-28051D01*
X33622Y-22992D02*
X20137Y-22992D01*
X34547Y-23917D02*
X33622Y-22992D01*
X34547Y-27913D02*
X34547Y-23917D01*
X34685Y-28051D02*
X34547Y-27913D01*
X35413Y-47578D02*
X35413Y-47460D01*
X35708Y-31279D02*
X34921Y-31279D01*
X34921Y-31279D02*
X34685Y-31043D01*
X34685Y-31043D02*
X34685Y-28720D01*
X35866Y-31437D02*
X35708Y-31279D01*
X35413Y-47460D02*
X35846Y-47027D01*
X35846Y-47027D02*
X35846Y-44173D01*
X35846Y-44173D02*
X35492Y-43818D01*
X35492Y-43818D02*
X35137Y-43818D01*
X35137Y-43818D02*
X34940Y-43622D01*
X34940Y-43622D02*
X34940Y-40393D01*
X34940Y-40393D02*
X35236Y-40098D01*
X35236Y-40098D02*
X35610Y-40098D01*
X35610Y-40098D02*
X35866Y-39842D01*
X35866Y-39842D02*
X35866Y-31437D01*
X15826Y-32185D02*
X17027Y-32185D01*
X20767Y-32303D02*
X22421Y-33956D01*
X17145Y-32303D02*
X20767Y-32303D01*
X17027Y-32185D02*
X17145Y-32303D01*
X23248Y-36830D02*
X19862Y-36830D01*
X19862Y-36830D02*
X19055Y-36023D01*
X18464Y-34114D02*
X18464Y-32736D01*
X19055Y-34704D02*
X18464Y-34114D01*
X19055Y-36023D02*
X19055Y-34704D01*
X14074Y-54960D02*
X13937Y-54822D01*
X13937Y-54822D02*
X13937Y-42795D01*
X13937Y-42795D02*
X14153Y-42578D01*
X14153Y-42578D02*
X16555Y-42578D01*
X16555Y-42578D02*
X19862Y-39271D01*
X19862Y-39271D02*
X21062Y-39271D01*
G54D11*
X16555Y-42578D02*
X19862Y-39271D01*
X19862Y-39271D02*
X21062Y-39271D01*
G54D31*
X19409Y-40295D02*
X18484Y-41220D01*
X21653Y-40295D02*
X19409Y-40295D01*
X21692Y-40255D02*
X21653Y-40295D01*
X18484Y-41220D02*
X18484Y-41417D01*
X15354Y-48996D02*
X15354Y-54763D01*
X15787Y-48562D02*
X15354Y-48996D01*
X15787Y-44114D02*
X15787Y-48562D01*
X18484Y-41417D02*
X15787Y-44114D01*
X31692Y-40354D02*
X31692Y-40374D01*
X30669Y-41397D02*
X30669Y-42716D01*
X31692Y-40374D02*
X30669Y-41397D01*
X28661Y-41751D02*
X28661Y-38720D01*
X26988Y-36751D02*
X25492Y-36751D01*
X27696Y-37460D02*
X26988Y-36751D01*
X27696Y-37755D02*
X27696Y-37460D01*
X28661Y-38720D02*
X27696Y-37755D01*
X25098Y-57400D02*
X28701Y-57400D01*
X29350Y-54192D02*
X29311Y-54232D01*
X29311Y-54232D02*
X29311Y-56791D01*
X28701Y-57400D02*
X29311Y-56791D01*
X21555Y-56181D02*
X21555Y-57400D01*
X22066Y-55669D02*
X21555Y-56181D01*
X22755Y-55669D02*
X22066Y-55669D01*
X23188Y-55236D02*
X22755Y-55669D01*
X23188Y-50610D02*
X23188Y-55236D01*
X23149Y-50570D02*
X23188Y-50610D01*
X22736Y-57400D02*
X22736Y-56574D01*
X27657Y-55767D02*
X27657Y-54409D01*
X27165Y-56259D02*
X27657Y-55767D01*
X23051Y-56259D02*
X27165Y-56259D01*
X22736Y-56574D02*
X23051Y-56259D01*
X23464Y-46141D02*
X25000Y-46141D01*
X27952Y-46181D02*
X27913Y-46141D01*
X27913Y-46141D02*
X25000Y-46141D01*
X23582Y-50236D02*
X23523Y-50236D01*
X23523Y-50236D02*
X23110Y-49822D01*
X23110Y-49330D02*
X22775Y-48996D01*
X23110Y-49822D02*
X23110Y-49330D01*
X22775Y-48996D02*
X17165Y-48996D01*
X17165Y-48996D02*
X16771Y-48602D01*
X16771Y-48602D02*
X16771Y-47027D01*
X16771Y-47027D02*
X17657Y-46141D01*
X17657Y-46141D02*
X23464Y-46141D01*
X24527Y-50236D02*
X23582Y-50236D01*
X24547Y-50255D02*
X24527Y-50236D01*
G54D11*
X23129Y-49842D02*
X23523Y-50236D01*
X23129Y-49350D02*
X23129Y-49842D01*
X22775Y-48996D02*
X23129Y-49350D01*
G54D31*
X33602Y-43287D02*
X33602Y-40964D01*
X33602Y-40964D02*
X32559Y-39921D01*
X32559Y-39921D02*
X32559Y-32874D01*
X33543Y-31889D02*
X35433Y-31889D01*
X32559Y-32874D02*
X33543Y-31889D01*
X33956Y-43818D02*
X32775Y-43818D01*
X32775Y-43818D02*
X32736Y-43779D01*
X29547Y-45688D02*
X31771Y-45688D01*
X31771Y-45688D02*
X31929Y-45531D01*
X31929Y-45531D02*
X31929Y-44586D01*
X31929Y-44586D02*
X32736Y-43779D01*
X33110Y-43779D02*
X33602Y-43287D01*
X32736Y-43779D02*
X33110Y-43779D01*
G54D11*
X31929Y-45531D02*
X31771Y-45688D01*
X31929Y-44586D02*
X31929Y-45531D01*
G54D31*
X20078Y-42972D02*
X20078Y-40866D01*
X20078Y-40866D02*
X20019Y-40807D01*
X18149Y-40059D02*
X16948Y-38858D01*
X16948Y-38858D02*
X14527Y-38858D01*
X14527Y-38858D02*
X13858Y-38188D01*
X13858Y-38188D02*
X13858Y-32283D01*
X13858Y-32283D02*
X13818Y-32244D01*
G54D11*
X13858Y-38188D02*
X13858Y-32283D01*
X16948Y-38858D02*
X14527Y-38858D01*
X14527Y-38858D02*
X13858Y-38188D01*
X13858Y-32283D02*
X13818Y-32244D01*
G54D31*
X15157Y-25413D02*
X15157Y-25846D01*
X17480Y-38484D02*
X18484Y-39488D01*
X15492Y-38484D02*
X17480Y-38484D01*
X14862Y-37854D02*
X15492Y-38484D01*
X14862Y-26141D02*
X14862Y-37854D01*
X15157Y-25846D02*
X14862Y-26141D01*
X21102Y-42992D02*
X21122Y-42972D01*
X21122Y-42972D02*
X21122Y-40944D01*
X17677Y-31338D02*
X17716Y-31338D01*
X17716Y-31338D02*
X18282Y-31905D01*
X18425Y-31905D02*
X18282Y-31905D01*
X29409Y-31043D02*
X28405Y-32047D01*
X21432Y-31905D02*
X18425Y-31905D01*
X21574Y-32047D02*
X21432Y-31905D01*
X28405Y-32047D02*
X21574Y-32047D01*
X22598Y-40649D02*
X22598Y-40059D01*
X21259Y-38720D02*
X22598Y-40059D01*
X18799Y-38720D02*
X21259Y-38720D01*
X17677Y-31338D02*
X15669Y-31338D01*
X15669Y-31338D02*
X15295Y-31712D01*
X15295Y-31712D02*
X15295Y-37559D01*
X15295Y-37559D02*
X15807Y-38070D01*
X15807Y-38070D02*
X18149Y-38070D01*
X18149Y-38070D02*
X18799Y-38720D01*
X29409Y-27913D02*
X29409Y-31043D01*
X26535Y-28976D02*
X26535Y-28582D01*
X27204Y-27913D02*
X29409Y-27913D01*
X26535Y-28582D02*
X27204Y-27913D01*
X29409Y-27913D02*
X29763Y-27559D01*
X29763Y-27559D02*
X29763Y-26811D01*
X29763Y-26811D02*
X30511Y-26062D01*
X22598Y-42637D02*
X22598Y-40649D01*
X22125Y-43110D02*
X22598Y-42637D01*
G54D11*
X29507Y-27795D02*
X29507Y-27814D01*
X29409Y-31043D02*
X29409Y-27893D01*
X29409Y-27893D02*
X29507Y-27795D01*
X29409Y-27913D02*
X29507Y-27814D01*
X29763Y-26811D02*
X30511Y-26062D01*
X29763Y-27559D02*
X29763Y-26811D01*
X29507Y-27814D02*
X29763Y-27559D01*
G54D31*
X31377Y-41338D02*
X31377Y-41318D01*
X31082Y-31633D02*
X31082Y-30314D01*
X32125Y-32677D02*
X31082Y-31633D01*
X32125Y-40570D02*
X32125Y-32677D01*
X31377Y-41318D02*
X32125Y-40570D01*
X23031Y-43070D02*
X23031Y-42047D01*
X31377Y-42952D02*
X31377Y-41338D01*
X30688Y-43641D02*
X31377Y-42952D01*
X29370Y-43641D02*
X30688Y-43641D01*
X28149Y-42421D02*
X29370Y-43641D01*
X28149Y-40807D02*
X28149Y-42421D01*
X27578Y-40236D02*
X28149Y-40807D01*
X24842Y-40236D02*
X27578Y-40236D01*
X23031Y-42047D02*
X24842Y-40236D01*
X30137Y-41259D02*
X30137Y-40653D01*
X30137Y-40653D02*
X30708Y-40082D01*
X12027Y-40452D02*
X12027Y-34311D01*
X12027Y-34311D02*
X11909Y-34192D01*
X28562Y-32834D02*
X27539Y-33858D01*
X27539Y-33858D02*
X24244Y-33858D01*
X21555Y-60944D02*
X22736Y-60944D01*
G54D11*
X11909Y-34192D02*
X12027Y-34311D01*
G54D31*
X25559Y-48759D02*
X25106Y-49212D01*
X32224Y-48759D02*
X25559Y-48759D01*
X32303Y-48838D02*
X32224Y-48759D01*
X25098Y-60944D02*
X30571Y-60944D01*
X30571Y-60944D02*
X31082Y-60433D01*
X31082Y-60433D02*
X31082Y-55295D01*
X23917Y-60944D02*
X25098Y-60944D01*
X22736Y-60944D02*
X23917Y-60944D01*
G54D11*
X27539Y-33858D02*
X24244Y-33858D01*
X30571Y-60944D02*
X31082Y-60433D01*
X31082Y-60433D02*
X31082Y-55295D01*
G54D31*
X22736Y-58150D02*
X22736Y-60118D01*
X21555Y-60118D02*
X21555Y-58150D01*
X23917Y-58150D02*
X23917Y-60118D01*
X25098Y-60118D02*
X25098Y-58150D01*
X23917Y-57400D02*
X23917Y-56870D01*
X23917Y-56870D02*
X23956Y-56830D01*
X23917Y-53307D02*
X23917Y-55807D01*
X23937Y-53287D02*
X23917Y-53307D01*
X33011Y-48897D02*
X32657Y-49251D01*
X33011Y-48366D02*
X33011Y-48897D01*
X33287Y-48090D02*
X33011Y-48366D01*
X34094Y-48090D02*
X33287Y-48090D01*
X34507Y-47677D02*
X34094Y-48090D01*
X34507Y-40629D02*
X34507Y-47677D01*
X34251Y-40374D02*
X34507Y-40629D01*
X32657Y-49251D02*
X31673Y-49251D01*
G54D11*
X32657Y-49251D02*
X31673Y-49251D01*
G54D10*
G36*
X12269Y-22765D02*
X12213Y-22803D01*
X10992Y-24024D01*
X10954Y-24080D01*
X10954Y-22765D01*
X12269Y-22765D01*
X12269Y-22765D01*
G37*
G54D32*
X12269Y-22765D02*
X12213Y-22803D01*
X10992Y-24024D01*
X10954Y-24080D01*
X10954Y-22765D01*
X12269Y-22765D01*
G54D10*
G36*
X14512Y-30504D02*
X14429Y-30421D01*
X14512Y-30338D01*
X14512Y-30504D01*
X14512Y-30504D01*
G37*
G54D32*
X14512Y-30504D02*
X14429Y-30421D01*
X14512Y-30338D01*
X14512Y-30504D01*
G54D10*
G36*
X15437Y-44472D02*
X15307Y-44343D01*
X15278Y-44330D01*
X15307Y-44318D01*
X15437Y-44188D01*
X15437Y-44472D01*
X15437Y-44472D01*
G37*
G54D32*
X15437Y-44472D02*
X15307Y-44343D01*
X15278Y-44330D01*
X15307Y-44318D01*
X15437Y-44188D01*
X15437Y-44472D01*
G54D10*
G36*
X15437Y-48418D02*
X15221Y-48633D01*
X15172Y-48513D01*
X15081Y-48423D01*
X15092Y-48423D01*
X15307Y-48334D01*
X15437Y-48204D01*
X15437Y-48418D01*
X15437Y-48418D01*
G37*
G54D32*
X15437Y-48418D02*
X15221Y-48633D01*
X15172Y-48513D01*
X15081Y-48423D01*
X15092Y-48423D01*
X15307Y-48334D01*
X15437Y-48204D01*
X15437Y-48418D01*
G54D10*
G36*
X15754Y-40522D02*
X15561Y-40715D01*
X15561Y-40707D01*
X15472Y-40492D01*
X15307Y-40327D01*
X15295Y-40322D01*
X15324Y-40309D01*
X15506Y-40128D01*
X15557Y-40005D01*
X15556Y-40198D01*
X15645Y-40413D01*
X15754Y-40522D01*
X15754Y-40522D01*
G37*
G54D32*
X15754Y-40522D02*
X15561Y-40715D01*
X15561Y-40707D01*
X15472Y-40492D01*
X15307Y-40327D01*
X15295Y-40322D01*
X15324Y-40309D01*
X15506Y-40128D01*
X15557Y-40005D01*
X15556Y-40198D01*
X15645Y-40413D01*
X15754Y-40522D01*
G54D10*
G36*
X16243Y-49238D02*
X16092Y-49238D01*
X15856Y-49335D01*
X15704Y-49487D01*
X15704Y-49141D01*
X15952Y-48893D01*
X15956Y-48913D01*
X16032Y-49027D01*
X16243Y-49238D01*
X16243Y-49238D01*
G37*
G54D32*
X16243Y-49238D02*
X16092Y-49238D01*
X15856Y-49335D01*
X15704Y-49487D01*
X15704Y-49141D01*
X15952Y-48893D01*
X15956Y-48913D01*
X16032Y-49027D01*
X16243Y-49238D01*
G54D10*
G36*
X16477Y-42928D02*
X15561Y-43845D01*
X15561Y-43707D01*
X15472Y-43492D01*
X15307Y-43327D01*
X15093Y-43238D01*
X14860Y-43238D01*
X14645Y-43326D01*
X14481Y-43491D01*
X14391Y-43706D01*
X14391Y-43938D01*
X14480Y-44153D01*
X14644Y-44318D01*
X14674Y-44330D01*
X14645Y-44342D01*
X14481Y-44506D01*
X14391Y-44721D01*
X14391Y-44954D01*
X14480Y-45169D01*
X14644Y-45333D01*
X14859Y-45423D01*
X15092Y-45423D01*
X15307Y-45334D01*
X15437Y-45204D01*
X15437Y-47472D01*
X15307Y-47343D01*
X15093Y-47254D01*
X14860Y-47253D01*
X14645Y-47342D01*
X14481Y-47506D01*
X14391Y-47721D01*
X14391Y-47954D01*
X14480Y-48169D01*
X14545Y-48234D01*
X14498Y-48234D01*
X14287Y-48321D01*
X14287Y-42940D01*
X14298Y-42928D01*
X16477Y-42928D01*
X16477Y-42928D01*
G37*
G54D32*
X16477Y-42928D02*
X15561Y-43845D01*
X15561Y-43707D01*
X15472Y-43492D01*
X15307Y-43327D01*
X15093Y-43238D01*
X14860Y-43238D01*
X14645Y-43326D01*
X14481Y-43491D01*
X14391Y-43706D01*
X14391Y-43938D01*
X14480Y-44153D01*
X14644Y-44318D01*
X14674Y-44330D01*
X14645Y-44342D01*
X14481Y-44506D01*
X14391Y-44721D01*
X14391Y-44954D01*
X14480Y-45169D01*
X14644Y-45333D01*
X14859Y-45423D01*
X15092Y-45423D01*
X15307Y-45334D01*
X15437Y-45204D01*
X15437Y-47472D01*
X15307Y-47343D01*
X15093Y-47254D01*
X14860Y-47253D01*
X14645Y-47342D01*
X14481Y-47506D01*
X14391Y-47721D01*
X14391Y-47954D01*
X14480Y-48169D01*
X14545Y-48234D01*
X14498Y-48234D01*
X14287Y-48321D01*
X14287Y-42940D01*
X14298Y-42928D01*
X16477Y-42928D01*
G54D10*
G36*
X17093Y-39498D02*
X17010Y-39497D01*
X16795Y-39586D01*
X16633Y-39747D01*
X16473Y-39587D01*
X16258Y-39498D01*
X16025Y-39497D01*
X15810Y-39586D01*
X15646Y-39751D01*
X15604Y-39852D01*
X15604Y-39636D01*
X15506Y-39399D01*
X15325Y-39218D01*
X15301Y-39208D01*
X16803Y-39208D01*
X17093Y-39498D01*
X17093Y-39498D01*
G37*
G54D32*
X17093Y-39498D02*
X17010Y-39497D01*
X16795Y-39586D01*
X16633Y-39747D01*
X16473Y-39587D01*
X16258Y-39498D01*
X16025Y-39497D01*
X15810Y-39586D01*
X15646Y-39751D01*
X15604Y-39852D01*
X15604Y-39636D01*
X15506Y-39399D01*
X15325Y-39218D01*
X15301Y-39208D01*
X16803Y-39208D01*
X17093Y-39498D01*
G54D10*
G36*
X17502Y-41135D02*
X16410Y-42228D01*
X15037Y-42228D01*
X15631Y-41634D01*
X15631Y-41651D01*
X15720Y-41866D01*
X15884Y-42030D01*
X16099Y-42119D01*
X16332Y-42120D01*
X16547Y-42031D01*
X16711Y-41867D01*
X16801Y-41652D01*
X16801Y-41419D01*
X16712Y-41204D01*
X16605Y-41098D01*
X17426Y-41098D01*
X17436Y-41108D01*
X17502Y-41135D01*
X17502Y-41135D01*
G37*
G54D32*
X17502Y-41135D02*
X16410Y-42228D01*
X15037Y-42228D01*
X15631Y-41634D01*
X15631Y-41651D01*
X15720Y-41866D01*
X15884Y-42030D01*
X16099Y-42119D01*
X16332Y-42120D01*
X16547Y-42031D01*
X16711Y-41867D01*
X16801Y-41652D01*
X16801Y-41419D01*
X16712Y-41204D01*
X16605Y-41098D01*
X17426Y-41098D01*
X17436Y-41108D01*
X17502Y-41135D01*
G54D10*
G36*
X17619Y-30988D02*
X15669Y-30988D01*
X15535Y-31015D01*
X15421Y-31091D01*
X15421Y-31091D01*
X15421Y-31091D01*
X15212Y-31300D01*
X15212Y-26286D01*
X15404Y-26093D01*
X15480Y-25980D01*
X15480Y-25980D01*
X15507Y-25846D01*
X15507Y-25664D01*
X15517Y-25654D01*
X15582Y-25498D01*
X15582Y-25329D01*
X15517Y-25172D01*
X15398Y-25053D01*
X15242Y-24988D01*
X15073Y-24988D01*
X14917Y-25052D01*
X14797Y-25172D01*
X14732Y-25328D01*
X14732Y-25497D01*
X14796Y-25653D01*
X14807Y-25664D01*
X14807Y-25701D01*
X14614Y-25894D01*
X14580Y-25946D01*
X14429Y-25795D01*
X14586Y-25638D01*
X14679Y-25416D01*
X14679Y-25175D01*
X14587Y-24953D01*
X14517Y-24883D01*
X14570Y-24861D01*
X14640Y-24791D01*
X14679Y-24699D01*
X14679Y-24600D01*
X14679Y-23891D01*
X14641Y-23799D01*
X14570Y-23729D01*
X14479Y-23690D01*
X14379Y-23690D01*
X13670Y-23690D01*
X13579Y-23728D01*
X13508Y-23799D01*
X13470Y-23890D01*
X13470Y-23990D01*
X13470Y-24699D01*
X13508Y-24791D01*
X13578Y-24861D01*
X13631Y-24883D01*
X13562Y-24952D01*
X13470Y-25174D01*
X13470Y-25414D01*
X13562Y-25637D01*
X13720Y-25795D01*
X13562Y-25952D01*
X13470Y-26174D01*
X13470Y-26414D01*
X13562Y-26637D01*
X13732Y-26807D01*
X13954Y-26899D01*
X14194Y-26899D01*
X14416Y-26807D01*
X14512Y-26712D01*
X14512Y-28330D01*
X14479Y-28316D01*
X14379Y-28316D01*
X13670Y-28316D01*
X13579Y-28354D01*
X13508Y-28425D01*
X13470Y-28516D01*
X13470Y-28616D01*
X13470Y-29325D01*
X13508Y-29417D01*
X13578Y-29487D01*
X13631Y-29509D01*
X13562Y-29578D01*
X13470Y-29800D01*
X13470Y-30040D01*
X13562Y-30263D01*
X13720Y-30421D01*
X13562Y-30578D01*
X13470Y-30800D01*
X13470Y-31040D01*
X13562Y-31263D01*
X13732Y-31433D01*
X13954Y-31525D01*
X14194Y-31525D01*
X14416Y-31433D01*
X14512Y-31338D01*
X14512Y-37854D01*
X14538Y-37988D01*
X14614Y-38101D01*
X15021Y-38508D01*
X14672Y-38508D01*
X14208Y-38044D01*
X14208Y-32414D01*
X14243Y-32329D01*
X14243Y-32159D01*
X14179Y-32003D01*
X14059Y-31884D01*
X13903Y-31819D01*
X13734Y-31819D01*
X13578Y-31883D01*
X13458Y-32003D01*
X13418Y-32099D01*
X13418Y-31317D01*
X13418Y-28317D01*
X13418Y-26691D01*
X13339Y-26498D01*
X13191Y-26350D01*
X12998Y-26270D01*
X12789Y-26270D01*
X12596Y-26349D01*
X12448Y-26497D01*
X12368Y-26690D01*
X12368Y-26899D01*
X12448Y-27092D01*
X12595Y-27240D01*
X12788Y-27320D01*
X12997Y-27320D01*
X13190Y-27240D01*
X13338Y-27093D01*
X13418Y-26900D01*
X13418Y-26691D01*
X13418Y-28317D01*
X13339Y-28124D01*
X13191Y-27976D01*
X12998Y-27896D01*
X12789Y-27896D01*
X12596Y-27975D01*
X12448Y-28123D01*
X12368Y-28316D01*
X12368Y-28525D01*
X12448Y-28718D01*
X12595Y-28866D01*
X12788Y-28946D01*
X12997Y-28946D01*
X13190Y-28866D01*
X13338Y-28719D01*
X13418Y-28526D01*
X13418Y-28317D01*
X13418Y-31317D01*
X13339Y-31124D01*
X13191Y-30976D01*
X12998Y-30896D01*
X12789Y-30896D01*
X12596Y-30975D01*
X12448Y-31123D01*
X12368Y-31316D01*
X12368Y-31525D01*
X12448Y-31718D01*
X12595Y-31866D01*
X12788Y-31946D01*
X12997Y-31946D01*
X13190Y-31866D01*
X13338Y-31719D01*
X13418Y-31526D01*
X13418Y-31317D01*
X13418Y-32099D01*
X13393Y-32159D01*
X13393Y-32328D01*
X13458Y-32484D01*
X13508Y-32534D01*
X13508Y-38188D01*
X13534Y-38322D01*
X13610Y-38436D01*
X14280Y-39105D01*
X14393Y-39181D01*
X14393Y-39181D01*
X14527Y-39208D01*
X14619Y-39208D01*
X14596Y-39217D01*
X14415Y-39398D01*
X14317Y-39635D01*
X14316Y-39891D01*
X14414Y-40127D01*
X14595Y-40309D01*
X14643Y-40329D01*
X14481Y-40491D01*
X14391Y-40706D01*
X14391Y-40938D01*
X14480Y-41153D01*
X14644Y-41318D01*
X14859Y-41407D01*
X14869Y-41407D01*
X14638Y-41638D01*
X13561Y-41638D01*
X13561Y-40707D01*
X13472Y-40492D01*
X13307Y-40327D01*
X13093Y-40238D01*
X12860Y-40238D01*
X12645Y-40326D01*
X12481Y-40491D01*
X12391Y-40706D01*
X12391Y-40938D01*
X12480Y-41153D01*
X12644Y-41318D01*
X12859Y-41407D01*
X13092Y-41407D01*
X13307Y-41318D01*
X13471Y-41154D01*
X13560Y-40939D01*
X13561Y-40707D01*
X13561Y-41638D01*
X12093Y-41638D01*
X11590Y-41134D01*
X11590Y-34474D01*
X11668Y-34553D01*
X11677Y-34556D01*
X11677Y-40201D01*
X11667Y-40211D01*
X11602Y-40367D01*
X11602Y-40536D01*
X11667Y-40693D01*
X11786Y-40812D01*
X11942Y-40877D01*
X12111Y-40877D01*
X12267Y-40813D01*
X12387Y-40693D01*
X12452Y-40537D01*
X12452Y-40368D01*
X12388Y-40212D01*
X12377Y-40201D01*
X12377Y-34311D01*
X12350Y-34177D01*
X12350Y-34177D01*
X12334Y-34152D01*
X12334Y-34152D01*
X12334Y-34108D01*
X12269Y-33952D01*
X12150Y-33832D01*
X11994Y-33767D01*
X11825Y-33767D01*
X11669Y-33832D01*
X11590Y-33911D01*
X11590Y-24416D01*
X12405Y-23600D01*
X12368Y-23690D01*
X12368Y-23899D01*
X12448Y-24092D01*
X12595Y-24240D01*
X12788Y-24320D01*
X12997Y-24320D01*
X13190Y-24240D01*
X13338Y-24093D01*
X13418Y-23900D01*
X13418Y-23691D01*
X13339Y-23498D01*
X13242Y-23401D01*
X14677Y-23401D01*
X15791Y-24515D01*
X15791Y-24524D01*
X15696Y-24619D01*
X15616Y-24812D01*
X15616Y-25021D01*
X15696Y-25214D01*
X15843Y-25362D01*
X16036Y-25442D01*
X16171Y-25442D01*
X16421Y-25692D01*
X16421Y-27465D01*
X16246Y-27392D01*
X16037Y-27392D01*
X15844Y-27471D01*
X15696Y-27619D01*
X15616Y-27812D01*
X15616Y-28021D01*
X15696Y-28214D01*
X15843Y-28362D01*
X16036Y-28442D01*
X16245Y-28442D01*
X16421Y-28369D01*
X16421Y-29645D01*
X16448Y-29779D01*
X16524Y-29893D01*
X17619Y-30988D01*
X17619Y-30988D01*
G37*
G54D32*
X17619Y-30988D02*
X15669Y-30988D01*
X15535Y-31015D01*
X15421Y-31091D01*
X15421Y-31091D01*
X15421Y-31091D01*
X15212Y-31300D01*
X15212Y-26286D01*
X15404Y-26093D01*
X15480Y-25980D01*
X15480Y-25980D01*
X15507Y-25846D01*
X15507Y-25664D01*
X15517Y-25654D01*
X15582Y-25498D01*
X15582Y-25329D01*
X15517Y-25172D01*
X15398Y-25053D01*
X15242Y-24988D01*
X15073Y-24988D01*
X14917Y-25052D01*
X14797Y-25172D01*
X14732Y-25328D01*
X14732Y-25497D01*
X14796Y-25653D01*
X14807Y-25664D01*
X14807Y-25701D01*
X14614Y-25894D01*
X14580Y-25946D01*
X14429Y-25795D01*
X14586Y-25638D01*
X14679Y-25416D01*
X14679Y-25175D01*
X14587Y-24953D01*
X14517Y-24883D01*
X14570Y-24861D01*
X14640Y-24791D01*
X14679Y-24699D01*
X14679Y-24600D01*
X14679Y-23891D01*
X14641Y-23799D01*
X14570Y-23729D01*
X14479Y-23690D01*
X14379Y-23690D01*
X13670Y-23690D01*
X13579Y-23728D01*
X13508Y-23799D01*
X13470Y-23890D01*
X13470Y-23990D01*
X13470Y-24699D01*
X13508Y-24791D01*
X13578Y-24861D01*
X13631Y-24883D01*
X13562Y-24952D01*
X13470Y-25174D01*
X13470Y-25414D01*
X13562Y-25637D01*
X13720Y-25795D01*
X13562Y-25952D01*
X13470Y-26174D01*
X13470Y-26414D01*
X13562Y-26637D01*
X13732Y-26807D01*
X13954Y-26899D01*
X14194Y-26899D01*
X14416Y-26807D01*
X14512Y-26712D01*
X14512Y-28330D01*
X14479Y-28316D01*
X14379Y-28316D01*
X13670Y-28316D01*
X13579Y-28354D01*
X13508Y-28425D01*
X13470Y-28516D01*
X13470Y-28616D01*
X13470Y-29325D01*
X13508Y-29417D01*
X13578Y-29487D01*
X13631Y-29509D01*
X13562Y-29578D01*
X13470Y-29800D01*
X13470Y-30040D01*
X13562Y-30263D01*
X13720Y-30421D01*
X13562Y-30578D01*
X13470Y-30800D01*
X13470Y-31040D01*
X13562Y-31263D01*
X13732Y-31433D01*
X13954Y-31525D01*
X14194Y-31525D01*
X14416Y-31433D01*
X14512Y-31338D01*
X14512Y-37854D01*
X14538Y-37988D01*
X14614Y-38101D01*
X15021Y-38508D01*
X14672Y-38508D01*
X14208Y-38044D01*
X14208Y-32414D01*
X14243Y-32329D01*
X14243Y-32159D01*
X14179Y-32003D01*
X14059Y-31884D01*
X13903Y-31819D01*
X13734Y-31819D01*
X13578Y-31883D01*
X13458Y-32003D01*
X13418Y-32099D01*
X13418Y-31317D01*
X13418Y-28317D01*
X13418Y-26691D01*
X13339Y-26498D01*
X13191Y-26350D01*
X12998Y-26270D01*
X12789Y-26270D01*
X12596Y-26349D01*
X12448Y-26497D01*
X12368Y-26690D01*
X12368Y-26899D01*
X12448Y-27092D01*
X12595Y-27240D01*
X12788Y-27320D01*
X12997Y-27320D01*
X13190Y-27240D01*
X13338Y-27093D01*
X13418Y-26900D01*
X13418Y-26691D01*
X13418Y-28317D01*
X13339Y-28124D01*
X13191Y-27976D01*
X12998Y-27896D01*
X12789Y-27896D01*
X12596Y-27975D01*
X12448Y-28123D01*
X12368Y-28316D01*
X12368Y-28525D01*
X12448Y-28718D01*
X12595Y-28866D01*
X12788Y-28946D01*
X12997Y-28946D01*
X13190Y-28866D01*
X13338Y-28719D01*
X13418Y-28526D01*
X13418Y-28317D01*
X13418Y-31317D01*
X13339Y-31124D01*
X13191Y-30976D01*
X12998Y-30896D01*
X12789Y-30896D01*
X12596Y-30975D01*
X12448Y-31123D01*
X12368Y-31316D01*
X12368Y-31525D01*
X12448Y-31718D01*
X12595Y-31866D01*
X12788Y-31946D01*
X12997Y-31946D01*
X13190Y-31866D01*
X13338Y-31719D01*
X13418Y-31526D01*
X13418Y-31317D01*
X13418Y-32099D01*
X13393Y-32159D01*
X13393Y-32328D01*
X13458Y-32484D01*
X13508Y-32534D01*
X13508Y-38188D01*
X13534Y-38322D01*
X13610Y-38436D01*
X14280Y-39105D01*
X14393Y-39181D01*
X14393Y-39181D01*
X14527Y-39208D01*
X14619Y-39208D01*
X14596Y-39217D01*
X14415Y-39398D01*
X14317Y-39635D01*
X14316Y-39891D01*
X14414Y-40127D01*
X14595Y-40309D01*
X14643Y-40329D01*
X14481Y-40491D01*
X14391Y-40706D01*
X14391Y-40938D01*
X14480Y-41153D01*
X14644Y-41318D01*
X14859Y-41407D01*
X14869Y-41407D01*
X14638Y-41638D01*
X13561Y-41638D01*
X13561Y-40707D01*
X13472Y-40492D01*
X13307Y-40327D01*
X13093Y-40238D01*
X12860Y-40238D01*
X12645Y-40326D01*
X12481Y-40491D01*
X12391Y-40706D01*
X12391Y-40938D01*
X12480Y-41153D01*
X12644Y-41318D01*
X12859Y-41407D01*
X13092Y-41407D01*
X13307Y-41318D01*
X13471Y-41154D01*
X13560Y-40939D01*
X13561Y-40707D01*
X13561Y-41638D01*
X12093Y-41638D01*
X11590Y-41134D01*
X11590Y-34474D01*
X11668Y-34553D01*
X11677Y-34556D01*
X11677Y-40201D01*
X11667Y-40211D01*
X11602Y-40367D01*
X11602Y-40536D01*
X11667Y-40693D01*
X11786Y-40812D01*
X11942Y-40877D01*
X12111Y-40877D01*
X12267Y-40813D01*
X12387Y-40693D01*
X12452Y-40537D01*
X12452Y-40368D01*
X12388Y-40212D01*
X12377Y-40201D01*
X12377Y-34311D01*
X12350Y-34177D01*
X12350Y-34177D01*
X12334Y-34152D01*
X12334Y-34152D01*
X12334Y-34108D01*
X12269Y-33952D01*
X12150Y-33832D01*
X11994Y-33767D01*
X11825Y-33767D01*
X11669Y-33832D01*
X11590Y-33911D01*
X11590Y-24416D01*
X12405Y-23600D01*
X12368Y-23690D01*
X12368Y-23899D01*
X12448Y-24092D01*
X12595Y-24240D01*
X12788Y-24320D01*
X12997Y-24320D01*
X13190Y-24240D01*
X13338Y-24093D01*
X13418Y-23900D01*
X13418Y-23691D01*
X13339Y-23498D01*
X13242Y-23401D01*
X14677Y-23401D01*
X15791Y-24515D01*
X15791Y-24524D01*
X15696Y-24619D01*
X15616Y-24812D01*
X15616Y-25021D01*
X15696Y-25214D01*
X15843Y-25362D01*
X16036Y-25442D01*
X16171Y-25442D01*
X16421Y-25692D01*
X16421Y-27465D01*
X16246Y-27392D01*
X16037Y-27392D01*
X15844Y-27471D01*
X15696Y-27619D01*
X15616Y-27812D01*
X15616Y-28021D01*
X15696Y-28214D01*
X15843Y-28362D01*
X16036Y-28442D01*
X16245Y-28442D01*
X16421Y-28369D01*
X16421Y-29645D01*
X16448Y-29779D01*
X16524Y-29893D01*
X17619Y-30988D01*
G54D10*
G36*
X17705Y-37720D02*
X15952Y-37720D01*
X15898Y-37667D01*
X16525Y-37667D01*
X16617Y-37629D01*
X16633Y-37613D01*
X16649Y-37629D01*
X16741Y-37667D01*
X16840Y-37667D01*
X17510Y-37667D01*
X17602Y-37629D01*
X17672Y-37559D01*
X17702Y-37486D01*
X17702Y-37714D01*
X17705Y-37720D01*
X17705Y-37720D01*
G37*
G54D32*
X17705Y-37720D02*
X15952Y-37720D01*
X15898Y-37667D01*
X16525Y-37667D01*
X16617Y-37629D01*
X16633Y-37613D01*
X16649Y-37629D01*
X16741Y-37667D01*
X16840Y-37667D01*
X17510Y-37667D01*
X17602Y-37629D01*
X17672Y-37559D01*
X17702Y-37486D01*
X17702Y-37714D01*
X17705Y-37720D01*
G54D10*
G36*
X17836Y-31953D02*
X17290Y-31953D01*
X17275Y-31937D01*
X17161Y-31861D01*
X17027Y-31835D01*
X16077Y-31835D01*
X16067Y-31824D01*
X15911Y-31760D01*
X15742Y-31759D01*
X15814Y-31688D01*
X17571Y-31688D01*
X17836Y-31953D01*
X17836Y-31953D01*
G37*
G54D32*
X17836Y-31953D02*
X17290Y-31953D01*
X17275Y-31937D01*
X17161Y-31861D01*
X17027Y-31835D01*
X16077Y-31835D01*
X16067Y-31824D01*
X15911Y-31760D01*
X15742Y-31759D01*
X15814Y-31688D01*
X17571Y-31688D01*
X17836Y-31953D01*
G54D10*
G36*
X17848Y-40358D02*
X17762Y-40323D01*
X17659Y-40323D01*
X17710Y-40199D01*
X17710Y-40115D01*
X17724Y-40128D01*
X17724Y-40143D01*
X17789Y-40299D01*
X17848Y-40358D01*
X17848Y-40358D01*
G37*
G54D32*
X17848Y-40358D02*
X17762Y-40323D01*
X17659Y-40323D01*
X17710Y-40199D01*
X17710Y-40115D01*
X17724Y-40128D01*
X17724Y-40143D01*
X17789Y-40299D01*
X17848Y-40358D01*
G54D10*
G36*
X17864Y-36722D02*
X17811Y-36744D01*
X17740Y-36814D01*
X17710Y-36887D01*
X17710Y-36698D01*
X17672Y-36606D01*
X17656Y-36590D01*
X17710Y-36459D01*
X17710Y-36449D01*
X17794Y-36652D01*
X17864Y-36722D01*
X17864Y-36722D01*
G37*
G54D32*
X17864Y-36722D02*
X17811Y-36744D01*
X17740Y-36814D01*
X17710Y-36887D01*
X17710Y-36698D01*
X17672Y-36606D01*
X17656Y-36590D01*
X17710Y-36459D01*
X17710Y-36449D01*
X17794Y-36652D01*
X17864Y-36722D01*
G54D10*
G36*
X18154Y-40484D02*
X18065Y-40573D01*
X18037Y-40507D01*
X17978Y-40448D01*
X18064Y-40483D01*
X18154Y-40484D01*
X18154Y-40484D01*
G37*
G54D32*
X18154Y-40484D02*
X18065Y-40573D01*
X18037Y-40507D01*
X17978Y-40448D01*
X18064Y-40483D01*
X18154Y-40484D01*
G54D10*
G36*
X18705Y-35854D02*
X18649Y-35798D01*
X18427Y-35706D01*
X18187Y-35706D01*
X17965Y-35798D01*
X17795Y-35968D01*
X17702Y-36190D01*
X17702Y-36207D01*
X17621Y-36011D01*
X17457Y-35847D01*
X17242Y-35757D01*
X17010Y-35757D01*
X16795Y-35846D01*
X16633Y-36007D01*
X16473Y-35847D01*
X16258Y-35757D01*
X16025Y-35757D01*
X15810Y-35846D01*
X15646Y-36010D01*
X15645Y-36013D01*
X15645Y-33868D01*
X15665Y-33888D01*
X15757Y-33927D01*
X15856Y-33927D01*
X16525Y-33927D01*
X16617Y-33889D01*
X16633Y-33873D01*
X16649Y-33888D01*
X16741Y-33927D01*
X16840Y-33927D01*
X17510Y-33927D01*
X17602Y-33889D01*
X17672Y-33818D01*
X17710Y-33727D01*
X17710Y-33627D01*
X17710Y-32958D01*
X17672Y-32866D01*
X17602Y-32796D01*
X17510Y-32757D01*
X17411Y-32757D01*
X16741Y-32757D01*
X16649Y-32795D01*
X16633Y-32811D01*
X16618Y-32796D01*
X16526Y-32757D01*
X16426Y-32757D01*
X15757Y-32757D01*
X15665Y-32795D01*
X15645Y-32816D01*
X15645Y-32569D01*
X15741Y-32609D01*
X15910Y-32610D01*
X16067Y-32545D01*
X16077Y-32535D01*
X16882Y-32535D01*
X16898Y-32550D01*
X17011Y-32626D01*
X17011Y-32626D01*
X17145Y-32653D01*
X18039Y-32653D01*
X18039Y-32820D01*
X18104Y-32976D01*
X18114Y-32987D01*
X18114Y-34114D01*
X18141Y-34248D01*
X18217Y-34361D01*
X18705Y-34849D01*
X18705Y-35854D01*
X18705Y-35854D01*
G37*
G54D32*
X18705Y-35854D02*
X18649Y-35798D01*
X18427Y-35706D01*
X18187Y-35706D01*
X17965Y-35798D01*
X17795Y-35968D01*
X17702Y-36190D01*
X17702Y-36207D01*
X17621Y-36011D01*
X17457Y-35847D01*
X17242Y-35757D01*
X17010Y-35757D01*
X16795Y-35846D01*
X16633Y-36007D01*
X16473Y-35847D01*
X16258Y-35757D01*
X16025Y-35757D01*
X15810Y-35846D01*
X15646Y-36010D01*
X15645Y-36013D01*
X15645Y-33868D01*
X15665Y-33888D01*
X15757Y-33927D01*
X15856Y-33927D01*
X16525Y-33927D01*
X16617Y-33889D01*
X16633Y-33873D01*
X16649Y-33888D01*
X16741Y-33927D01*
X16840Y-33927D01*
X17510Y-33927D01*
X17602Y-33889D01*
X17672Y-33818D01*
X17710Y-33727D01*
X17710Y-33627D01*
X17710Y-32958D01*
X17672Y-32866D01*
X17602Y-32796D01*
X17510Y-32757D01*
X17411Y-32757D01*
X16741Y-32757D01*
X16649Y-32795D01*
X16633Y-32811D01*
X16618Y-32796D01*
X16526Y-32757D01*
X16426Y-32757D01*
X15757Y-32757D01*
X15665Y-32795D01*
X15645Y-32816D01*
X15645Y-32569D01*
X15741Y-32609D01*
X15910Y-32610D01*
X16067Y-32545D01*
X16077Y-32535D01*
X16882Y-32535D01*
X16898Y-32550D01*
X17011Y-32626D01*
X17011Y-32626D01*
X17145Y-32653D01*
X18039Y-32653D01*
X18039Y-32820D01*
X18104Y-32976D01*
X18114Y-32987D01*
X18114Y-34114D01*
X18141Y-34248D01*
X18217Y-34361D01*
X18705Y-34849D01*
X18705Y-35854D01*
G54D10*
G36*
X18850Y-30476D02*
X18550Y-30476D01*
X18679Y-30348D01*
X18700Y-30296D01*
X18721Y-30347D01*
X18850Y-30476D01*
X18850Y-30476D01*
G37*
G54D32*
X18850Y-30476D02*
X18550Y-30476D01*
X18679Y-30348D01*
X18700Y-30296D01*
X18721Y-30347D01*
X18850Y-30476D01*
G54D10*
G36*
X18920Y-44279D02*
X18891Y-44285D01*
X18710Y-44406D01*
X18606Y-44562D01*
X18502Y-44406D01*
X18398Y-44337D01*
X18474Y-44305D01*
X18655Y-44124D01*
X18704Y-44006D01*
X18745Y-44104D01*
X18920Y-44279D01*
X18920Y-44279D01*
G37*
G54D32*
X18920Y-44279D02*
X18891Y-44285D01*
X18710Y-44406D01*
X18606Y-44562D01*
X18502Y-44406D01*
X18398Y-44337D01*
X18474Y-44305D01*
X18655Y-44124D01*
X18704Y-44006D01*
X18745Y-44104D01*
X18920Y-44279D01*
G54D10*
G36*
X18931Y-29527D02*
X18881Y-29548D01*
X18722Y-29707D01*
X18700Y-29758D01*
X18680Y-29707D01*
X18521Y-29548D01*
X18469Y-29527D01*
X18520Y-29506D01*
X18679Y-29348D01*
X18700Y-29296D01*
X18721Y-29347D01*
X18880Y-29506D01*
X18931Y-29527D01*
X18931Y-29527D01*
G37*
G54D32*
X18931Y-29527D02*
X18881Y-29548D01*
X18722Y-29707D01*
X18700Y-29758D01*
X18680Y-29707D01*
X18521Y-29548D01*
X18469Y-29527D01*
X18520Y-29506D01*
X18679Y-29348D01*
X18700Y-29296D01*
X18721Y-29347D01*
X18880Y-29506D01*
X18931Y-29527D01*
G54D10*
G36*
X18983Y-48646D02*
X18491Y-48646D01*
X18557Y-48618D01*
X18628Y-48548D01*
X18666Y-48456D01*
X18666Y-48440D01*
X18710Y-48506D01*
X18891Y-48627D01*
X18983Y-48646D01*
X18983Y-48646D01*
G37*
G54D32*
X18983Y-48646D02*
X18491Y-48646D01*
X18557Y-48618D01*
X18628Y-48548D01*
X18666Y-48456D01*
X18666Y-48440D01*
X18710Y-48506D01*
X18891Y-48627D01*
X18983Y-48646D01*
G54D10*
G36*
X19229Y-31555D02*
X18427Y-31555D01*
X18049Y-31176D01*
X18851Y-31176D01*
X19229Y-31555D01*
X19229Y-31555D01*
G37*
G54D32*
X19229Y-31555D02*
X18427Y-31555D01*
X18049Y-31176D01*
X18851Y-31176D01*
X19229Y-31555D01*
G54D10*
G36*
X19568Y-39070D02*
X18574Y-40064D01*
X18574Y-39974D01*
X18549Y-39913D01*
X18568Y-39913D01*
X18724Y-39848D01*
X18844Y-39729D01*
X18909Y-39573D01*
X18909Y-39404D01*
X18844Y-39247D01*
X18725Y-39128D01*
X18569Y-39063D01*
X18554Y-39063D01*
X17911Y-38420D01*
X18004Y-38420D01*
X18551Y-38967D01*
X18665Y-39043D01*
X18799Y-39070D01*
X19568Y-39070D01*
X19568Y-39070D01*
G37*
G54D32*
X19568Y-39070D02*
X18574Y-40064D01*
X18574Y-39974D01*
X18549Y-39913D01*
X18568Y-39913D01*
X18724Y-39848D01*
X18844Y-39729D01*
X18909Y-39573D01*
X18909Y-39404D01*
X18844Y-39247D01*
X18725Y-39128D01*
X18569Y-39063D01*
X18554Y-39063D01*
X17911Y-38420D01*
X18004Y-38420D01*
X18551Y-38967D01*
X18665Y-39043D01*
X18799Y-39070D01*
X19568Y-39070D01*
G54D10*
G36*
X19728Y-41244D02*
X19712Y-41204D01*
X19548Y-41040D01*
X19333Y-40950D01*
X19248Y-40950D01*
X19554Y-40645D01*
X19626Y-40645D01*
X19594Y-40722D01*
X19594Y-40891D01*
X19659Y-41047D01*
X19728Y-41117D01*
X19728Y-41244D01*
X19728Y-41244D01*
G37*
G54D32*
X19728Y-41244D02*
X19712Y-41204D01*
X19548Y-41040D01*
X19333Y-40950D01*
X19248Y-40950D01*
X19554Y-40645D01*
X19626Y-40645D01*
X19594Y-40722D01*
X19594Y-40891D01*
X19659Y-41047D01*
X19728Y-41117D01*
X19728Y-41244D01*
G54D10*
G36*
X19795Y-37167D02*
X19482Y-37167D01*
X19390Y-37205D01*
X19319Y-37275D01*
X19281Y-37367D01*
X19281Y-37467D01*
X19281Y-38254D01*
X19319Y-38345D01*
X19344Y-38370D01*
X18944Y-38370D01*
X18489Y-37915D01*
X18710Y-37915D01*
X18802Y-37877D01*
X18873Y-37807D01*
X18911Y-37715D01*
X18911Y-37615D01*
X18911Y-36907D01*
X18873Y-36815D01*
X18803Y-36744D01*
X18750Y-36722D01*
X18819Y-36653D01*
X18911Y-36431D01*
X18911Y-36374D01*
X19614Y-37078D01*
X19614Y-37078D01*
X19728Y-37154D01*
X19795Y-37167D01*
X19795Y-37167D01*
G37*
G54D32*
X19795Y-37167D02*
X19482Y-37167D01*
X19390Y-37205D01*
X19319Y-37275D01*
X19281Y-37367D01*
X19281Y-37467D01*
X19281Y-38254D01*
X19319Y-38345D01*
X19344Y-38370D01*
X18944Y-38370D01*
X18489Y-37915D01*
X18710Y-37915D01*
X18802Y-37877D01*
X18873Y-37807D01*
X18911Y-37715D01*
X18911Y-37615D01*
X18911Y-36907D01*
X18873Y-36815D01*
X18803Y-36744D01*
X18750Y-36722D01*
X18819Y-36653D01*
X18911Y-36431D01*
X18911Y-36374D01*
X19614Y-37078D01*
X19614Y-37078D01*
X19728Y-37154D01*
X19795Y-37167D01*
G54D10*
G36*
X19983Y-48646D02*
X19228Y-48646D01*
X19320Y-48627D01*
X19502Y-48506D01*
X19606Y-48350D01*
X19710Y-48506D01*
X19891Y-48627D01*
X19983Y-48646D01*
X19983Y-48646D01*
G37*
G54D32*
X19983Y-48646D02*
X19228Y-48646D01*
X19320Y-48627D01*
X19502Y-48506D01*
X19606Y-48350D01*
X19710Y-48506D01*
X19891Y-48627D01*
X19983Y-48646D01*
G54D10*
G36*
X20594Y-38370D02*
X20506Y-38370D01*
X20530Y-38346D01*
X20536Y-38332D01*
X20560Y-38356D01*
X20594Y-38370D01*
X20594Y-38370D01*
G37*
G54D32*
X20594Y-38370D02*
X20506Y-38370D01*
X20530Y-38346D01*
X20536Y-38332D01*
X20560Y-38356D01*
X20594Y-38370D01*
G54D10*
G36*
X20765Y-37180D02*
X20561Y-37265D01*
X20536Y-37289D01*
X20530Y-37276D01*
X20460Y-37205D01*
X20400Y-37180D01*
X20765Y-37180D01*
X20765Y-37180D01*
G37*
G54D32*
X20765Y-37180D02*
X20561Y-37265D01*
X20536Y-37289D01*
X20530Y-37276D01*
X20460Y-37205D01*
X20400Y-37180D01*
X20765Y-37180D01*
G54D10*
G36*
X20983Y-48646D02*
X20228Y-48646D01*
X20320Y-48627D01*
X20502Y-48506D01*
X20606Y-48350D01*
X20710Y-48506D01*
X20891Y-48627D01*
X20983Y-48646D01*
X20983Y-48646D01*
G37*
G54D32*
X20983Y-48646D02*
X20228Y-48646D01*
X20320Y-48627D01*
X20502Y-48506D01*
X20606Y-48350D01*
X20710Y-48506D01*
X20891Y-48627D01*
X20983Y-48646D01*
G54D10*
G36*
X21765Y-37180D02*
X21561Y-37265D01*
X21425Y-37400D01*
X21290Y-37265D01*
X21085Y-37180D01*
X21765Y-37180D01*
X21765Y-37180D01*
G37*
G54D32*
X21765Y-37180D02*
X21561Y-37265D01*
X21425Y-37400D01*
X21290Y-37265D01*
X21085Y-37180D01*
X21765Y-37180D01*
G54D10*
G36*
X21790Y-49346D02*
X21698Y-49438D01*
X21653Y-49546D01*
X21609Y-49438D01*
X21516Y-49346D01*
X21790Y-49346D01*
X21790Y-49346D01*
G37*
G54D32*
X21790Y-49346D02*
X21698Y-49438D01*
X21653Y-49546D01*
X21609Y-49438D01*
X21516Y-49346D01*
X21790Y-49346D01*
G54D10*
G36*
X21983Y-48646D02*
X21228Y-48646D01*
X21320Y-48627D01*
X21502Y-48506D01*
X21606Y-48350D01*
X21710Y-48506D01*
X21891Y-48627D01*
X21983Y-48646D01*
X21983Y-48646D01*
G37*
G54D32*
X21983Y-48646D02*
X21228Y-48646D01*
X21320Y-48627D01*
X21502Y-48506D01*
X21606Y-48350D01*
X21710Y-48506D01*
X21891Y-48627D01*
X21983Y-48646D01*
G54D10*
G36*
X22081Y-29527D02*
X22030Y-29548D01*
X21871Y-29707D01*
X21850Y-29758D01*
X21829Y-29707D01*
X21670Y-29548D01*
X21619Y-29527D01*
X21670Y-29506D01*
X21829Y-29348D01*
X21850Y-29296D01*
X21871Y-29347D01*
X22029Y-29506D01*
X22081Y-29527D01*
X22081Y-29527D01*
G37*
G54D32*
X22081Y-29527D02*
X22030Y-29548D01*
X21871Y-29707D01*
X21850Y-29758D01*
X21829Y-29707D01*
X21670Y-29548D01*
X21619Y-29527D01*
X21670Y-29506D01*
X21829Y-29348D01*
X21850Y-29296D01*
X21871Y-29347D01*
X22029Y-29506D01*
X22081Y-29527D01*
G54D10*
G36*
X22765Y-37180D02*
X22561Y-37265D01*
X22425Y-37400D01*
X22290Y-37265D01*
X22085Y-37180D01*
X22765Y-37180D01*
X22765Y-37180D01*
G37*
G54D32*
X22765Y-37180D02*
X22561Y-37265D01*
X22425Y-37400D01*
X22290Y-37265D01*
X22085Y-37180D01*
X22765Y-37180D01*
G54D10*
G36*
X22809Y-56008D02*
X22803Y-56012D01*
X22803Y-56012D01*
X22803Y-56012D01*
X22488Y-56327D01*
X22412Y-56440D01*
X22386Y-56574D01*
X22386Y-56986D01*
X22319Y-57013D01*
X22249Y-57083D01*
X22211Y-57175D01*
X22211Y-57275D01*
X22211Y-57625D01*
X22249Y-57717D01*
X22307Y-57775D01*
X22249Y-57833D01*
X22211Y-57925D01*
X22211Y-58025D01*
X22211Y-58375D01*
X22249Y-58467D01*
X22319Y-58537D01*
X22386Y-58565D01*
X22386Y-59659D01*
X22358Y-59670D01*
X22288Y-59740D01*
X22250Y-59832D01*
X22250Y-59932D01*
X22250Y-60404D01*
X22288Y-60495D01*
X22323Y-60531D01*
X22288Y-60566D01*
X22276Y-60594D01*
X22014Y-60594D01*
X22003Y-60567D01*
X21967Y-60531D01*
X22002Y-60496D01*
X22041Y-60404D01*
X22041Y-60304D01*
X22041Y-59832D01*
X22003Y-59741D01*
X21932Y-59670D01*
X21905Y-59659D01*
X21905Y-58565D01*
X21971Y-58537D01*
X22041Y-58467D01*
X22080Y-58375D01*
X22080Y-58276D01*
X22080Y-57926D01*
X22042Y-57834D01*
X21983Y-57775D01*
X22041Y-57717D01*
X22080Y-57625D01*
X22080Y-57526D01*
X22080Y-57176D01*
X22042Y-57084D01*
X21971Y-57013D01*
X21905Y-56986D01*
X21905Y-56326D01*
X22211Y-56019D01*
X22755Y-56019D01*
X22809Y-56008D01*
X22809Y-56008D01*
G37*
G54D32*
X22809Y-56008D02*
X22803Y-56012D01*
X22803Y-56012D01*
X22803Y-56012D01*
X22488Y-56327D01*
X22412Y-56440D01*
X22386Y-56574D01*
X22386Y-56986D01*
X22319Y-57013D01*
X22249Y-57083D01*
X22211Y-57175D01*
X22211Y-57275D01*
X22211Y-57625D01*
X22249Y-57717D01*
X22307Y-57775D01*
X22249Y-57833D01*
X22211Y-57925D01*
X22211Y-58025D01*
X22211Y-58375D01*
X22249Y-58467D01*
X22319Y-58537D01*
X22386Y-58565D01*
X22386Y-59659D01*
X22358Y-59670D01*
X22288Y-59740D01*
X22250Y-59832D01*
X22250Y-59932D01*
X22250Y-60404D01*
X22288Y-60495D01*
X22323Y-60531D01*
X22288Y-60566D01*
X22276Y-60594D01*
X22014Y-60594D01*
X22003Y-60567D01*
X21967Y-60531D01*
X22002Y-60496D01*
X22041Y-60404D01*
X22041Y-60304D01*
X22041Y-59832D01*
X22003Y-59741D01*
X21932Y-59670D01*
X21905Y-59659D01*
X21905Y-58565D01*
X21971Y-58537D01*
X22041Y-58467D01*
X22080Y-58375D01*
X22080Y-58276D01*
X22080Y-57926D01*
X22042Y-57834D01*
X21983Y-57775D01*
X22041Y-57717D01*
X22080Y-57625D01*
X22080Y-57526D01*
X22080Y-57176D01*
X22042Y-57084D01*
X21971Y-57013D01*
X21905Y-56986D01*
X21905Y-56326D01*
X22211Y-56019D01*
X22755Y-56019D01*
X22809Y-56008D01*
G54D10*
G36*
X23567Y-55555D02*
X23557Y-55566D01*
X23492Y-55722D01*
X23492Y-55891D01*
X23499Y-55909D01*
X23051Y-55909D01*
X23051Y-55909D01*
X22997Y-55920D01*
X23003Y-55916D01*
X23436Y-55483D01*
X23436Y-55483D01*
X23436Y-55483D01*
X23512Y-55370D01*
X23538Y-55236D01*
X23538Y-55236D01*
X23538Y-53437D01*
X23567Y-53505D01*
X23567Y-55555D01*
X23567Y-55555D01*
G37*
G54D32*
X23567Y-55555D02*
X23557Y-55566D01*
X23492Y-55722D01*
X23492Y-55891D01*
X23499Y-55909D01*
X23051Y-55909D01*
X23051Y-55909D01*
X22997Y-55920D01*
X23003Y-55916D01*
X23436Y-55483D01*
X23436Y-55483D01*
X23436Y-55483D01*
X23512Y-55370D01*
X23538Y-55236D01*
X23538Y-55236D01*
X23538Y-53437D01*
X23567Y-53505D01*
X23567Y-55555D01*
G54D10*
G36*
X23588Y-56609D02*
X23531Y-56745D01*
X23531Y-56914D01*
X23561Y-56988D01*
X23500Y-57013D01*
X23430Y-57083D01*
X23392Y-57175D01*
X23392Y-57275D01*
X23392Y-57625D01*
X23430Y-57717D01*
X23488Y-57775D01*
X23430Y-57833D01*
X23392Y-57925D01*
X23392Y-58025D01*
X23392Y-58375D01*
X23430Y-58467D01*
X23500Y-58537D01*
X23567Y-58565D01*
X23567Y-59659D01*
X23539Y-59670D01*
X23469Y-59740D01*
X23431Y-59832D01*
X23431Y-59932D01*
X23431Y-60404D01*
X23469Y-60495D01*
X23504Y-60531D01*
X23469Y-60566D01*
X23457Y-60594D01*
X23195Y-60594D01*
X23184Y-60567D01*
X23148Y-60531D01*
X23184Y-60496D01*
X23222Y-60404D01*
X23222Y-60304D01*
X23222Y-59832D01*
X23184Y-59741D01*
X23114Y-59670D01*
X23086Y-59659D01*
X23086Y-58565D01*
X23152Y-58537D01*
X23223Y-58467D01*
X23261Y-58375D01*
X23261Y-58276D01*
X23261Y-57926D01*
X23223Y-57834D01*
X23164Y-57775D01*
X23223Y-57717D01*
X23261Y-57625D01*
X23261Y-57526D01*
X23261Y-57176D01*
X23223Y-57084D01*
X23153Y-57013D01*
X23086Y-56986D01*
X23086Y-56719D01*
X23196Y-56609D01*
X23588Y-56609D01*
X23588Y-56609D01*
G37*
G54D32*
X23588Y-56609D02*
X23531Y-56745D01*
X23531Y-56914D01*
X23561Y-56988D01*
X23500Y-57013D01*
X23430Y-57083D01*
X23392Y-57175D01*
X23392Y-57275D01*
X23392Y-57625D01*
X23430Y-57717D01*
X23488Y-57775D01*
X23430Y-57833D01*
X23392Y-57925D01*
X23392Y-58025D01*
X23392Y-58375D01*
X23430Y-58467D01*
X23500Y-58537D01*
X23567Y-58565D01*
X23567Y-59659D01*
X23539Y-59670D01*
X23469Y-59740D01*
X23431Y-59832D01*
X23431Y-59932D01*
X23431Y-60404D01*
X23469Y-60495D01*
X23504Y-60531D01*
X23469Y-60566D01*
X23457Y-60594D01*
X23195Y-60594D01*
X23184Y-60567D01*
X23148Y-60531D01*
X23184Y-60496D01*
X23222Y-60404D01*
X23222Y-60304D01*
X23222Y-59832D01*
X23184Y-59741D01*
X23114Y-59670D01*
X23086Y-59659D01*
X23086Y-58565D01*
X23152Y-58537D01*
X23223Y-58467D01*
X23261Y-58375D01*
X23261Y-58276D01*
X23261Y-57926D01*
X23223Y-57834D01*
X23164Y-57775D01*
X23223Y-57717D01*
X23261Y-57625D01*
X23261Y-57526D01*
X23261Y-57176D01*
X23223Y-57084D01*
X23153Y-57013D01*
X23086Y-56986D01*
X23086Y-56719D01*
X23196Y-56609D01*
X23588Y-56609D01*
G54D10*
G36*
X24958Y-44272D02*
X24891Y-44285D01*
X24710Y-44406D01*
X24606Y-44562D01*
X24502Y-44406D01*
X24320Y-44285D01*
X24253Y-44272D01*
X24437Y-44196D01*
X24601Y-44032D01*
X24606Y-44021D01*
X24610Y-44031D01*
X24774Y-44196D01*
X24958Y-44272D01*
X24958Y-44272D01*
G37*
G54D32*
X24958Y-44272D02*
X24891Y-44285D01*
X24710Y-44406D01*
X24606Y-44562D01*
X24502Y-44406D01*
X24320Y-44285D01*
X24253Y-44272D01*
X24437Y-44196D01*
X24601Y-44032D01*
X24606Y-44021D01*
X24610Y-44031D01*
X24774Y-44196D01*
X24958Y-44272D01*
G54D10*
G36*
X24958Y-48641D02*
X24775Y-48716D01*
X24610Y-48880D01*
X24606Y-48891D01*
X24602Y-48881D01*
X24437Y-48717D01*
X24254Y-48640D01*
X24320Y-48627D01*
X24502Y-48506D01*
X24606Y-48350D01*
X24710Y-48506D01*
X24891Y-48627D01*
X24958Y-48641D01*
X24958Y-48641D01*
G37*
G54D32*
X24958Y-48641D02*
X24775Y-48716D01*
X24610Y-48880D01*
X24606Y-48891D01*
X24602Y-48881D01*
X24437Y-48717D01*
X24254Y-48640D01*
X24320Y-48627D01*
X24502Y-48506D01*
X24606Y-48350D01*
X24710Y-48506D01*
X24891Y-48627D01*
X24958Y-48641D01*
G54D10*
G36*
X25230Y-29527D02*
X25180Y-29548D01*
X25021Y-29707D01*
X25000Y-29758D01*
X24979Y-29707D01*
X24820Y-29548D01*
X24769Y-29527D01*
X24819Y-29506D01*
X24978Y-29348D01*
X24999Y-29296D01*
X25020Y-29347D01*
X25179Y-29506D01*
X25230Y-29527D01*
X25230Y-29527D01*
G37*
G54D32*
X25230Y-29527D02*
X25180Y-29548D01*
X25021Y-29707D01*
X25000Y-29758D01*
X24979Y-29707D01*
X24820Y-29548D01*
X24769Y-29527D01*
X24819Y-29506D01*
X24978Y-29348D01*
X24999Y-29296D01*
X25020Y-29347D01*
X25179Y-29506D01*
X25230Y-29527D01*
G54D10*
G36*
X25645Y-48409D02*
X25566Y-48409D01*
X25606Y-48350D01*
X25645Y-48409D01*
X25645Y-48409D01*
G37*
G54D32*
X25645Y-48409D02*
X25566Y-48409D01*
X25606Y-48350D01*
X25645Y-48409D01*
G54D10*
G36*
X25846Y-44315D02*
X25710Y-44406D01*
X25606Y-44562D01*
X25502Y-44406D01*
X25320Y-44285D01*
X25253Y-44272D01*
X25437Y-44196D01*
X25601Y-44032D01*
X25618Y-43992D01*
X25685Y-44153D01*
X25846Y-44315D01*
X25846Y-44315D01*
G37*
G54D32*
X25846Y-44315D02*
X25710Y-44406D01*
X25606Y-44562D01*
X25502Y-44406D01*
X25320Y-44285D01*
X25253Y-44272D01*
X25437Y-44196D01*
X25601Y-44032D01*
X25618Y-43992D01*
X25685Y-44153D01*
X25846Y-44315D01*
G54D10*
G36*
X26170Y-36401D02*
X25743Y-36401D01*
X25733Y-36391D01*
X25718Y-36385D01*
X25789Y-36356D01*
X25925Y-36221D01*
X26060Y-36356D01*
X26170Y-36401D01*
X26170Y-36401D01*
G37*
G54D32*
X26170Y-36401D02*
X25743Y-36401D01*
X25733Y-36391D01*
X25718Y-36385D01*
X25789Y-36356D01*
X25925Y-36221D01*
X26060Y-36356D01*
X26170Y-36401D01*
G54D10*
G36*
X26645Y-48409D02*
X26566Y-48409D01*
X26606Y-48350D01*
X26645Y-48409D01*
X26645Y-48409D01*
G37*
G54D32*
X26645Y-48409D02*
X26566Y-48409D01*
X26606Y-48350D01*
X26645Y-48409D01*
G54D10*
G36*
X26908Y-37167D02*
X26797Y-37167D01*
X26561Y-37265D01*
X26425Y-37400D01*
X26290Y-37265D01*
X26053Y-37167D01*
X25797Y-37167D01*
X25561Y-37265D01*
X25425Y-37400D01*
X25290Y-37265D01*
X25053Y-37167D01*
X24797Y-37167D01*
X24561Y-37265D01*
X24425Y-37400D01*
X24290Y-37265D01*
X24053Y-37167D01*
X23797Y-37167D01*
X23561Y-37265D01*
X23425Y-37400D01*
X23290Y-37265D01*
X23265Y-37255D01*
X23332Y-37255D01*
X23488Y-37191D01*
X23608Y-37071D01*
X23672Y-36915D01*
X23673Y-36746D01*
X23608Y-36590D01*
X23489Y-36470D01*
X23450Y-36454D01*
X23552Y-36454D01*
X23789Y-36356D01*
X23925Y-36221D01*
X24060Y-36356D01*
X24296Y-36454D01*
X24552Y-36454D01*
X24789Y-36356D01*
X24925Y-36221D01*
X25060Y-36356D01*
X25220Y-36422D01*
X25132Y-36510D01*
X25067Y-36667D01*
X25067Y-36836D01*
X25131Y-36992D01*
X25251Y-37112D01*
X25407Y-37176D01*
X25576Y-37177D01*
X25732Y-37112D01*
X25743Y-37101D01*
X26843Y-37101D01*
X26908Y-37167D01*
X26908Y-37167D01*
G37*
G54D32*
X26908Y-37167D02*
X26797Y-37167D01*
X26561Y-37265D01*
X26425Y-37400D01*
X26290Y-37265D01*
X26053Y-37167D01*
X25797Y-37167D01*
X25561Y-37265D01*
X25425Y-37400D01*
X25290Y-37265D01*
X25053Y-37167D01*
X24797Y-37167D01*
X24561Y-37265D01*
X24425Y-37400D01*
X24290Y-37265D01*
X24053Y-37167D01*
X23797Y-37167D01*
X23561Y-37265D01*
X23425Y-37400D01*
X23290Y-37265D01*
X23265Y-37255D01*
X23332Y-37255D01*
X23488Y-37191D01*
X23608Y-37071D01*
X23672Y-36915D01*
X23673Y-36746D01*
X23608Y-36590D01*
X23489Y-36470D01*
X23450Y-36454D01*
X23552Y-36454D01*
X23789Y-36356D01*
X23925Y-36221D01*
X24060Y-36356D01*
X24296Y-36454D01*
X24552Y-36454D01*
X24789Y-36356D01*
X24925Y-36221D01*
X25060Y-36356D01*
X25220Y-36422D01*
X25132Y-36510D01*
X25067Y-36667D01*
X25067Y-36836D01*
X25131Y-36992D01*
X25251Y-37112D01*
X25407Y-37176D01*
X25576Y-37177D01*
X25732Y-37112D01*
X25743Y-37101D01*
X26843Y-37101D01*
X26908Y-37167D01*
G54D10*
G36*
X27645Y-48409D02*
X27566Y-48409D01*
X27606Y-48350D01*
X27645Y-48409D01*
X27645Y-48409D01*
G37*
G54D32*
X27645Y-48409D02*
X27566Y-48409D01*
X27606Y-48350D01*
X27645Y-48409D01*
G54D10*
G36*
X28311Y-40473D02*
X27826Y-39988D01*
X27749Y-39937D01*
X27921Y-39866D01*
X28085Y-39701D01*
X28175Y-39486D01*
X28175Y-39254D01*
X28086Y-39039D01*
X27922Y-38874D01*
X27707Y-38785D01*
X27474Y-38785D01*
X27259Y-38874D01*
X27095Y-39038D01*
X27006Y-39253D01*
X27005Y-39485D01*
X27094Y-39700D01*
X27258Y-39865D01*
X27309Y-39886D01*
X24842Y-39886D01*
X24708Y-39912D01*
X24595Y-39988D01*
X24175Y-40408D01*
X24175Y-39655D01*
X24175Y-38985D01*
X24137Y-38894D01*
X24066Y-38823D01*
X23975Y-38785D01*
X23875Y-38785D01*
X23206Y-38785D01*
X23114Y-38823D01*
X23044Y-38893D01*
X23005Y-38985D01*
X23005Y-39084D01*
X23005Y-39754D01*
X23043Y-39846D01*
X23114Y-39916D01*
X23205Y-39954D01*
X23305Y-39954D01*
X23974Y-39954D01*
X24066Y-39916D01*
X24137Y-39846D01*
X24175Y-39754D01*
X24175Y-39655D01*
X24175Y-40408D01*
X22948Y-41635D01*
X22948Y-40649D01*
X22948Y-40059D01*
X22921Y-39925D01*
X22921Y-39925D01*
X22845Y-39811D01*
X21507Y-38472D01*
X21393Y-38397D01*
X21259Y-38370D01*
X21256Y-38370D01*
X21289Y-38356D01*
X21425Y-38221D01*
X21560Y-38356D01*
X21796Y-38454D01*
X22052Y-38454D01*
X22289Y-38356D01*
X22425Y-38221D01*
X22560Y-38356D01*
X22796Y-38454D01*
X23052Y-38454D01*
X23289Y-38356D01*
X23425Y-38221D01*
X23560Y-38356D01*
X23796Y-38454D01*
X24052Y-38454D01*
X24289Y-38356D01*
X24425Y-38221D01*
X24560Y-38356D01*
X24796Y-38454D01*
X25052Y-38454D01*
X25289Y-38356D01*
X25425Y-38221D01*
X25560Y-38356D01*
X25796Y-38454D01*
X26052Y-38454D01*
X26289Y-38356D01*
X26425Y-38221D01*
X26560Y-38356D01*
X26796Y-38454D01*
X27052Y-38454D01*
X27289Y-38356D01*
X27470Y-38176D01*
X27514Y-38068D01*
X28311Y-38865D01*
X28311Y-40473D01*
X28311Y-40473D01*
G37*
G54D32*
X28311Y-40473D02*
X27826Y-39988D01*
X27749Y-39937D01*
X27921Y-39866D01*
X28085Y-39701D01*
X28175Y-39486D01*
X28175Y-39254D01*
X28086Y-39039D01*
X27922Y-38874D01*
X27707Y-38785D01*
X27474Y-38785D01*
X27259Y-38874D01*
X27095Y-39038D01*
X27006Y-39253D01*
X27005Y-39485D01*
X27094Y-39700D01*
X27258Y-39865D01*
X27309Y-39886D01*
X24842Y-39886D01*
X24708Y-39912D01*
X24595Y-39988D01*
X24175Y-40408D01*
X24175Y-39655D01*
X24175Y-38985D01*
X24137Y-38894D01*
X24066Y-38823D01*
X23975Y-38785D01*
X23875Y-38785D01*
X23206Y-38785D01*
X23114Y-38823D01*
X23044Y-38893D01*
X23005Y-38985D01*
X23005Y-39084D01*
X23005Y-39754D01*
X23043Y-39846D01*
X23114Y-39916D01*
X23205Y-39954D01*
X23305Y-39954D01*
X23974Y-39954D01*
X24066Y-39916D01*
X24137Y-39846D01*
X24175Y-39754D01*
X24175Y-39655D01*
X24175Y-40408D01*
X22948Y-41635D01*
X22948Y-40649D01*
X22948Y-40059D01*
X22921Y-39925D01*
X22921Y-39925D01*
X22845Y-39811D01*
X21507Y-38472D01*
X21393Y-38397D01*
X21259Y-38370D01*
X21256Y-38370D01*
X21289Y-38356D01*
X21425Y-38221D01*
X21560Y-38356D01*
X21796Y-38454D01*
X22052Y-38454D01*
X22289Y-38356D01*
X22425Y-38221D01*
X22560Y-38356D01*
X22796Y-38454D01*
X23052Y-38454D01*
X23289Y-38356D01*
X23425Y-38221D01*
X23560Y-38356D01*
X23796Y-38454D01*
X24052Y-38454D01*
X24289Y-38356D01*
X24425Y-38221D01*
X24560Y-38356D01*
X24796Y-38454D01*
X25052Y-38454D01*
X25289Y-38356D01*
X25425Y-38221D01*
X25560Y-38356D01*
X25796Y-38454D01*
X26052Y-38454D01*
X26289Y-38356D01*
X26425Y-38221D01*
X26560Y-38356D01*
X26796Y-38454D01*
X27052Y-38454D01*
X27289Y-38356D01*
X27470Y-38176D01*
X27514Y-38068D01*
X28311Y-38865D01*
X28311Y-40473D01*
G54D10*
G36*
X28380Y-29527D02*
X28330Y-29548D01*
X28170Y-29707D01*
X28149Y-29758D01*
X28128Y-29707D01*
X27970Y-29548D01*
X27918Y-29527D01*
X27969Y-29506D01*
X28128Y-29348D01*
X28149Y-29296D01*
X28170Y-29347D01*
X28329Y-29506D01*
X28380Y-29527D01*
X28380Y-29527D01*
G37*
G54D32*
X28380Y-29527D02*
X28330Y-29548D01*
X28170Y-29707D01*
X28149Y-29758D01*
X28128Y-29707D01*
X27970Y-29548D01*
X27918Y-29527D01*
X27969Y-29506D01*
X28128Y-29348D01*
X28149Y-29296D01*
X28170Y-29347D01*
X28329Y-29506D01*
X28380Y-29527D01*
G54D10*
G36*
X28645Y-48409D02*
X28566Y-48409D01*
X28606Y-48350D01*
X28645Y-48409D01*
X28645Y-48409D01*
G37*
G54D32*
X28645Y-48409D02*
X28566Y-48409D01*
X28606Y-48350D01*
X28645Y-48409D01*
G54D10*
G36*
X28697Y-44426D02*
X28606Y-44562D01*
X28502Y-44406D01*
X28320Y-44285D01*
X28106Y-44242D01*
X27891Y-44285D01*
X27710Y-44406D01*
X27606Y-44562D01*
X27502Y-44406D01*
X27320Y-44285D01*
X27106Y-44242D01*
X26891Y-44285D01*
X26710Y-44406D01*
X26606Y-44562D01*
X26502Y-44406D01*
X26424Y-44354D01*
X26511Y-44318D01*
X26658Y-44172D01*
X28441Y-44172D01*
X28689Y-44420D01*
X28697Y-44426D01*
X28697Y-44426D01*
G37*
G54D32*
X28697Y-44426D02*
X28606Y-44562D01*
X28502Y-44406D01*
X28320Y-44285D01*
X28106Y-44242D01*
X27891Y-44285D01*
X27710Y-44406D01*
X27606Y-44562D01*
X27502Y-44406D01*
X27320Y-44285D01*
X27106Y-44242D01*
X26891Y-44285D01*
X26710Y-44406D01*
X26606Y-44562D01*
X26502Y-44406D01*
X26424Y-44354D01*
X26511Y-44318D01*
X26658Y-44172D01*
X28441Y-44172D01*
X28689Y-44420D01*
X28697Y-44426D01*
G54D10*
G36*
X28757Y-43524D02*
X28720Y-43499D01*
X28586Y-43472D01*
X27749Y-43472D01*
X27769Y-43423D01*
X27769Y-43324D01*
X27769Y-42615D01*
X27731Y-42523D01*
X27661Y-42453D01*
X27608Y-42431D01*
X27677Y-42362D01*
X27769Y-42140D01*
X27769Y-41900D01*
X27677Y-41677D01*
X27508Y-41507D01*
X27286Y-41415D01*
X27045Y-41415D01*
X26823Y-41507D01*
X26653Y-41676D01*
X26561Y-41898D01*
X26560Y-42139D01*
X26652Y-42361D01*
X26722Y-42431D01*
X26669Y-42453D01*
X26599Y-42523D01*
X26561Y-42615D01*
X26560Y-42714D01*
X26560Y-43375D01*
X26512Y-43327D01*
X26297Y-43238D01*
X26065Y-43238D01*
X25850Y-43326D01*
X25685Y-43491D01*
X25668Y-43531D01*
X25602Y-43370D01*
X25437Y-43205D01*
X25223Y-43116D01*
X24990Y-43116D01*
X24775Y-43204D01*
X24610Y-43369D01*
X24606Y-43380D01*
X24602Y-43370D01*
X24437Y-43205D01*
X24223Y-43116D01*
X23990Y-43116D01*
X23775Y-43204D01*
X23610Y-43369D01*
X23521Y-43583D01*
X23521Y-43816D01*
X23610Y-44031D01*
X23774Y-44196D01*
X23958Y-44272D01*
X23891Y-44285D01*
X23710Y-44406D01*
X23606Y-44562D01*
X23502Y-44406D01*
X23320Y-44285D01*
X23106Y-44242D01*
X22891Y-44285D01*
X22710Y-44406D01*
X22606Y-44562D01*
X22502Y-44406D01*
X22320Y-44285D01*
X22106Y-44242D01*
X21891Y-44285D01*
X21710Y-44406D01*
X21606Y-44562D01*
X21502Y-44406D01*
X21320Y-44285D01*
X21106Y-44242D01*
X20891Y-44285D01*
X20710Y-44406D01*
X20606Y-44562D01*
X20502Y-44406D01*
X20320Y-44285D01*
X20106Y-44242D01*
X19891Y-44285D01*
X19710Y-44406D01*
X19606Y-44562D01*
X19502Y-44406D01*
X19449Y-44371D01*
X19655Y-44286D01*
X19836Y-44105D01*
X19934Y-43868D01*
X19935Y-43612D01*
X19837Y-43376D01*
X19656Y-43194D01*
X19419Y-43096D01*
X19163Y-43096D01*
X18927Y-43194D01*
X18745Y-43375D01*
X18696Y-43493D01*
X18656Y-43395D01*
X18475Y-43214D01*
X18238Y-43116D01*
X17982Y-43116D01*
X17926Y-43139D01*
X18991Y-42074D01*
X19099Y-42119D01*
X19332Y-42120D01*
X19547Y-42031D01*
X19711Y-41867D01*
X19728Y-41826D01*
X19728Y-42721D01*
X19718Y-42731D01*
X19653Y-42887D01*
X19653Y-43056D01*
X19718Y-43212D01*
X19837Y-43332D01*
X19993Y-43397D01*
X20162Y-43397D01*
X20319Y-43332D01*
X20438Y-43213D01*
X20503Y-43057D01*
X20503Y-42888D01*
X20439Y-42732D01*
X20428Y-42721D01*
X20428Y-40930D01*
X20444Y-40891D01*
X20444Y-40722D01*
X20412Y-40645D01*
X20820Y-40645D01*
X20761Y-40703D01*
X20697Y-40859D01*
X20696Y-41029D01*
X20761Y-41185D01*
X20772Y-41195D01*
X20772Y-42721D01*
X20742Y-42751D01*
X20677Y-42907D01*
X20677Y-43076D01*
X20741Y-43232D01*
X20861Y-43352D01*
X21017Y-43417D01*
X21186Y-43417D01*
X21342Y-43352D01*
X21462Y-43233D01*
X21527Y-43077D01*
X21527Y-42907D01*
X21472Y-42773D01*
X21472Y-41196D01*
X21482Y-41185D01*
X21546Y-41029D01*
X21547Y-40860D01*
X21482Y-40704D01*
X21423Y-40645D01*
X21522Y-40645D01*
X21608Y-40680D01*
X21777Y-40680D01*
X21933Y-40616D01*
X22053Y-40496D01*
X22117Y-40340D01*
X22117Y-40171D01*
X22053Y-40015D01*
X21933Y-39895D01*
X21777Y-39830D01*
X21608Y-39830D01*
X21452Y-39895D01*
X21402Y-39945D01*
X19683Y-39945D01*
X20007Y-39621D01*
X20811Y-39621D01*
X20821Y-39631D01*
X20978Y-39696D01*
X21147Y-39696D01*
X21303Y-39632D01*
X21423Y-39512D01*
X21462Y-39418D01*
X22248Y-40204D01*
X22248Y-40649D01*
X22248Y-42492D01*
X22056Y-42685D01*
X22041Y-42685D01*
X21885Y-42749D01*
X21765Y-42869D01*
X21701Y-43025D01*
X21700Y-43194D01*
X21765Y-43350D01*
X21884Y-43470D01*
X22041Y-43535D01*
X22210Y-43535D01*
X22366Y-43470D01*
X22486Y-43351D01*
X22550Y-43195D01*
X22550Y-43180D01*
X22606Y-43124D01*
X22606Y-43155D01*
X22670Y-43311D01*
X22790Y-43430D01*
X22946Y-43495D01*
X23115Y-43495D01*
X23271Y-43431D01*
X23391Y-43311D01*
X23456Y-43155D01*
X23456Y-42986D01*
X23392Y-42830D01*
X23381Y-42819D01*
X23381Y-42192D01*
X24349Y-41224D01*
X24349Y-41987D01*
X24223Y-41935D01*
X23990Y-41934D01*
X23775Y-42023D01*
X23610Y-42188D01*
X23521Y-42402D01*
X23521Y-42635D01*
X23610Y-42850D01*
X23774Y-43015D01*
X23989Y-43104D01*
X24222Y-43104D01*
X24437Y-43015D01*
X24601Y-42851D01*
X24606Y-42840D01*
X24610Y-42850D01*
X24774Y-43015D01*
X24989Y-43104D01*
X25222Y-43104D01*
X25437Y-43015D01*
X25601Y-42851D01*
X25690Y-42636D01*
X25691Y-42403D01*
X25626Y-42247D01*
X26083Y-42247D01*
X26083Y-41407D01*
X26296Y-41407D01*
X26511Y-41318D01*
X26676Y-41154D01*
X26765Y-40939D01*
X26765Y-40707D01*
X26715Y-40586D01*
X27433Y-40586D01*
X27799Y-40952D01*
X27799Y-42421D01*
X27826Y-42555D01*
X27902Y-42668D01*
X28757Y-43524D01*
X28757Y-43524D01*
G37*
G54D32*
X28757Y-43524D02*
X28720Y-43499D01*
X28586Y-43472D01*
X27749Y-43472D01*
X27769Y-43423D01*
X27769Y-43324D01*
X27769Y-42615D01*
X27731Y-42523D01*
X27661Y-42453D01*
X27608Y-42431D01*
X27677Y-42362D01*
X27769Y-42140D01*
X27769Y-41900D01*
X27677Y-41677D01*
X27508Y-41507D01*
X27286Y-41415D01*
X27045Y-41415D01*
X26823Y-41507D01*
X26653Y-41676D01*
X26561Y-41898D01*
X26560Y-42139D01*
X26652Y-42361D01*
X26722Y-42431D01*
X26669Y-42453D01*
X26599Y-42523D01*
X26561Y-42615D01*
X26560Y-42714D01*
X26560Y-43375D01*
X26512Y-43327D01*
X26297Y-43238D01*
X26065Y-43238D01*
X25850Y-43326D01*
X25685Y-43491D01*
X25668Y-43531D01*
X25602Y-43370D01*
X25437Y-43205D01*
X25223Y-43116D01*
X24990Y-43116D01*
X24775Y-43204D01*
X24610Y-43369D01*
X24606Y-43380D01*
X24602Y-43370D01*
X24437Y-43205D01*
X24223Y-43116D01*
X23990Y-43116D01*
X23775Y-43204D01*
X23610Y-43369D01*
X23521Y-43583D01*
X23521Y-43816D01*
X23610Y-44031D01*
X23774Y-44196D01*
X23958Y-44272D01*
X23891Y-44285D01*
X23710Y-44406D01*
X23606Y-44562D01*
X23502Y-44406D01*
X23320Y-44285D01*
X23106Y-44242D01*
X22891Y-44285D01*
X22710Y-44406D01*
X22606Y-44562D01*
X22502Y-44406D01*
X22320Y-44285D01*
X22106Y-44242D01*
X21891Y-44285D01*
X21710Y-44406D01*
X21606Y-44562D01*
X21502Y-44406D01*
X21320Y-44285D01*
X21106Y-44242D01*
X20891Y-44285D01*
X20710Y-44406D01*
X20606Y-44562D01*
X20502Y-44406D01*
X20320Y-44285D01*
X20106Y-44242D01*
X19891Y-44285D01*
X19710Y-44406D01*
X19606Y-44562D01*
X19502Y-44406D01*
X19449Y-44371D01*
X19655Y-44286D01*
X19836Y-44105D01*
X19934Y-43868D01*
X19935Y-43612D01*
X19837Y-43376D01*
X19656Y-43194D01*
X19419Y-43096D01*
X19163Y-43096D01*
X18927Y-43194D01*
X18745Y-43375D01*
X18696Y-43493D01*
X18656Y-43395D01*
X18475Y-43214D01*
X18238Y-43116D01*
X17982Y-43116D01*
X17926Y-43139D01*
X18991Y-42074D01*
X19099Y-42119D01*
X19332Y-42120D01*
X19547Y-42031D01*
X19711Y-41867D01*
X19728Y-41826D01*
X19728Y-42721D01*
X19718Y-42731D01*
X19653Y-42887D01*
X19653Y-43056D01*
X19718Y-43212D01*
X19837Y-43332D01*
X19993Y-43397D01*
X20162Y-43397D01*
X20319Y-43332D01*
X20438Y-43213D01*
X20503Y-43057D01*
X20503Y-42888D01*
X20439Y-42732D01*
X20428Y-42721D01*
X20428Y-40930D01*
X20444Y-40891D01*
X20444Y-40722D01*
X20412Y-40645D01*
X20820Y-40645D01*
X20761Y-40703D01*
X20697Y-40859D01*
X20696Y-41029D01*
X20761Y-41185D01*
X20772Y-41195D01*
X20772Y-42721D01*
X20742Y-42751D01*
X20677Y-42907D01*
X20677Y-43076D01*
X20741Y-43232D01*
X20861Y-43352D01*
X21017Y-43417D01*
X21186Y-43417D01*
X21342Y-43352D01*
X21462Y-43233D01*
X21527Y-43077D01*
X21527Y-42907D01*
X21472Y-42773D01*
X21472Y-41196D01*
X21482Y-41185D01*
X21546Y-41029D01*
X21547Y-40860D01*
X21482Y-40704D01*
X21423Y-40645D01*
X21522Y-40645D01*
X21608Y-40680D01*
X21777Y-40680D01*
X21933Y-40616D01*
X22053Y-40496D01*
X22117Y-40340D01*
X22117Y-40171D01*
X22053Y-40015D01*
X21933Y-39895D01*
X21777Y-39830D01*
X21608Y-39830D01*
X21452Y-39895D01*
X21402Y-39945D01*
X19683Y-39945D01*
X20007Y-39621D01*
X20811Y-39621D01*
X20821Y-39631D01*
X20978Y-39696D01*
X21147Y-39696D01*
X21303Y-39632D01*
X21423Y-39512D01*
X21462Y-39418D01*
X22248Y-40204D01*
X22248Y-40649D01*
X22248Y-42492D01*
X22056Y-42685D01*
X22041Y-42685D01*
X21885Y-42749D01*
X21765Y-42869D01*
X21701Y-43025D01*
X21700Y-43194D01*
X21765Y-43350D01*
X21884Y-43470D01*
X22041Y-43535D01*
X22210Y-43535D01*
X22366Y-43470D01*
X22486Y-43351D01*
X22550Y-43195D01*
X22550Y-43180D01*
X22606Y-43124D01*
X22606Y-43155D01*
X22670Y-43311D01*
X22790Y-43430D01*
X22946Y-43495D01*
X23115Y-43495D01*
X23271Y-43431D01*
X23391Y-43311D01*
X23456Y-43155D01*
X23456Y-42986D01*
X23392Y-42830D01*
X23381Y-42819D01*
X23381Y-42192D01*
X24349Y-41224D01*
X24349Y-41987D01*
X24223Y-41935D01*
X23990Y-41934D01*
X23775Y-42023D01*
X23610Y-42188D01*
X23521Y-42402D01*
X23521Y-42635D01*
X23610Y-42850D01*
X23774Y-43015D01*
X23989Y-43104D01*
X24222Y-43104D01*
X24437Y-43015D01*
X24601Y-42851D01*
X24606Y-42840D01*
X24610Y-42850D01*
X24774Y-43015D01*
X24989Y-43104D01*
X25222Y-43104D01*
X25437Y-43015D01*
X25601Y-42851D01*
X25690Y-42636D01*
X25691Y-42403D01*
X25626Y-42247D01*
X26083Y-42247D01*
X26083Y-41407D01*
X26296Y-41407D01*
X26511Y-41318D01*
X26676Y-41154D01*
X26765Y-40939D01*
X26765Y-40707D01*
X26715Y-40586D01*
X27433Y-40586D01*
X27799Y-40952D01*
X27799Y-42421D01*
X27826Y-42555D01*
X27902Y-42668D01*
X28757Y-43524D01*
G54D10*
G36*
X29005Y-27234D02*
X24476Y-27234D01*
X24476Y-25791D01*
X24475Y-25587D01*
X24475Y-25382D01*
X24473Y-25378D01*
X24473Y-25373D01*
X24319Y-25002D01*
X24317Y-25001D01*
X24315Y-24996D01*
X24020Y-24700D01*
X24014Y-24698D01*
X24013Y-24695D01*
X23823Y-24619D01*
X23634Y-24540D01*
X23630Y-24540D01*
X23626Y-24539D01*
X23421Y-24540D01*
X23217Y-24540D01*
X23213Y-24542D01*
X23208Y-24542D01*
X22837Y-24695D01*
X22835Y-24697D01*
X22831Y-24699D01*
X22535Y-24994D01*
X22533Y-25000D01*
X22530Y-25002D01*
X22453Y-25191D01*
X22375Y-25380D01*
X22375Y-25385D01*
X22373Y-25389D01*
X22375Y-25593D01*
X22375Y-25798D01*
X22376Y-25802D01*
X22376Y-25807D01*
X22530Y-26178D01*
X22532Y-26179D01*
X22534Y-26184D01*
X22829Y-26480D01*
X22835Y-26482D01*
X22837Y-26485D01*
X23026Y-26561D01*
X23215Y-26640D01*
X23219Y-26640D01*
X23224Y-26642D01*
X23428Y-26640D01*
X23633Y-26640D01*
X23637Y-26638D01*
X23641Y-26638D01*
X24013Y-26485D01*
X24014Y-26483D01*
X24019Y-26481D01*
X24314Y-26186D01*
X24317Y-26180D01*
X24319Y-26178D01*
X24396Y-25989D01*
X24475Y-25800D01*
X24475Y-25795D01*
X24476Y-25791D01*
X24476Y-27234D01*
X20994Y-27234D01*
X20994Y-23947D01*
X29005Y-23947D01*
X29005Y-27234D01*
X29005Y-27234D01*
G37*
G54D32*
X29005Y-27234D02*
X24476Y-27234D01*
X24476Y-25791D01*
X24475Y-25587D01*
X24475Y-25382D01*
X24473Y-25378D01*
X24473Y-25373D01*
X24319Y-25002D01*
X24317Y-25001D01*
X24315Y-24996D01*
X24020Y-24700D01*
X24014Y-24698D01*
X24013Y-24695D01*
X23823Y-24619D01*
X23634Y-24540D01*
X23630Y-24540D01*
X23626Y-24539D01*
X23421Y-24540D01*
X23217Y-24540D01*
X23213Y-24542D01*
X23208Y-24542D01*
X22837Y-24695D01*
X22835Y-24697D01*
X22831Y-24699D01*
X22535Y-24994D01*
X22533Y-25000D01*
X22530Y-25002D01*
X22453Y-25191D01*
X22375Y-25380D01*
X22375Y-25385D01*
X22373Y-25389D01*
X22375Y-25593D01*
X22375Y-25798D01*
X22376Y-25802D01*
X22376Y-25807D01*
X22530Y-26178D01*
X22532Y-26179D01*
X22534Y-26184D01*
X22829Y-26480D01*
X22835Y-26482D01*
X22837Y-26485D01*
X23026Y-26561D01*
X23215Y-26640D01*
X23219Y-26640D01*
X23224Y-26642D01*
X23428Y-26640D01*
X23633Y-26640D01*
X23637Y-26638D01*
X23641Y-26638D01*
X24013Y-26485D01*
X24014Y-26483D01*
X24019Y-26481D01*
X24314Y-26186D01*
X24317Y-26180D01*
X24319Y-26178D01*
X24396Y-25989D01*
X24475Y-25800D01*
X24475Y-25795D01*
X24476Y-25791D01*
X24476Y-27234D01*
X20994Y-27234D01*
X20994Y-23947D01*
X29005Y-23947D01*
X29005Y-27234D01*
G54D10*
G36*
X29059Y-29638D02*
X28970Y-29548D01*
X28918Y-29527D01*
X28969Y-29506D01*
X29059Y-29416D01*
X29059Y-29638D01*
X29059Y-29638D01*
G37*
G54D32*
X29059Y-29638D02*
X28970Y-29548D01*
X28918Y-29527D01*
X28969Y-29506D01*
X29059Y-29416D01*
X29059Y-29638D01*
G54D10*
G36*
X29059Y-30898D02*
X28594Y-31363D01*
X28549Y-31255D01*
X28430Y-31135D01*
X28273Y-31071D01*
X28104Y-31070D01*
X27948Y-31135D01*
X27938Y-31146D01*
X26065Y-31146D01*
X26065Y-29915D01*
X25979Y-29707D01*
X25820Y-29548D01*
X25769Y-29527D01*
X25819Y-29506D01*
X25978Y-29348D01*
X26064Y-29140D01*
X26065Y-28915D01*
X25979Y-28707D01*
X25820Y-28548D01*
X25612Y-28462D01*
X25388Y-28462D01*
X25180Y-28548D01*
X25021Y-28707D01*
X25000Y-28758D01*
X24979Y-28707D01*
X24820Y-28548D01*
X24612Y-28462D01*
X24388Y-28462D01*
X24180Y-28548D01*
X24021Y-28707D01*
X23935Y-28914D01*
X23934Y-29139D01*
X24020Y-29347D01*
X24179Y-29506D01*
X24230Y-29527D01*
X24180Y-29548D01*
X24021Y-29707D01*
X23935Y-29914D01*
X23934Y-30139D01*
X24020Y-30347D01*
X24179Y-30506D01*
X24387Y-30592D01*
X24611Y-30592D01*
X24819Y-30506D01*
X24978Y-30348D01*
X24999Y-30296D01*
X25020Y-30347D01*
X25179Y-30506D01*
X25387Y-30592D01*
X25611Y-30592D01*
X25819Y-30506D01*
X25978Y-30348D01*
X26064Y-30140D01*
X26065Y-29915D01*
X26065Y-31146D01*
X25487Y-31146D01*
X25477Y-31135D01*
X25321Y-31071D01*
X25152Y-31070D01*
X24995Y-31135D01*
X24945Y-31185D01*
X22915Y-31185D01*
X22915Y-29915D01*
X22829Y-29707D01*
X22670Y-29548D01*
X22619Y-29527D01*
X22670Y-29506D01*
X22829Y-29348D01*
X22915Y-29140D01*
X22915Y-28915D01*
X22829Y-28707D01*
X22670Y-28548D01*
X22463Y-28462D01*
X22238Y-28462D01*
X22030Y-28548D01*
X21871Y-28707D01*
X21850Y-28758D01*
X21829Y-28707D01*
X21670Y-28548D01*
X21463Y-28462D01*
X21238Y-28462D01*
X21030Y-28548D01*
X20871Y-28707D01*
X20785Y-28914D01*
X20785Y-29139D01*
X20871Y-29347D01*
X21029Y-29506D01*
X21081Y-29527D01*
X21030Y-29548D01*
X20871Y-29707D01*
X20785Y-29914D01*
X20785Y-30139D01*
X20871Y-30347D01*
X21029Y-30506D01*
X21237Y-30592D01*
X21462Y-30592D01*
X21670Y-30506D01*
X21829Y-30348D01*
X21850Y-30296D01*
X21871Y-30347D01*
X22029Y-30506D01*
X22237Y-30592D01*
X22462Y-30592D01*
X22670Y-30506D01*
X22829Y-30348D01*
X22915Y-30140D01*
X22915Y-29915D01*
X22915Y-31185D01*
X22455Y-31185D01*
X22445Y-31175D01*
X22289Y-31110D01*
X22120Y-31110D01*
X22034Y-31146D01*
X20133Y-31146D01*
X20122Y-31135D01*
X19966Y-31071D01*
X19797Y-31070D01*
X19753Y-31089D01*
X19256Y-30592D01*
X19312Y-30592D01*
X19520Y-30506D01*
X19679Y-30348D01*
X19765Y-30140D01*
X19765Y-29915D01*
X19680Y-29707D01*
X19521Y-29548D01*
X19469Y-29527D01*
X19520Y-29506D01*
X19679Y-29348D01*
X19765Y-29140D01*
X19765Y-28915D01*
X19680Y-28707D01*
X19658Y-28686D01*
X19658Y-26474D01*
X19579Y-26281D01*
X19431Y-26133D01*
X19238Y-26053D01*
X19029Y-26053D01*
X18836Y-26133D01*
X18689Y-26280D01*
X18608Y-26473D01*
X18608Y-26682D01*
X18688Y-26875D01*
X18836Y-27023D01*
X19028Y-27103D01*
X19237Y-27103D01*
X19430Y-27024D01*
X19578Y-26876D01*
X19658Y-26683D01*
X19658Y-26474D01*
X19658Y-28686D01*
X19521Y-28548D01*
X19313Y-28462D01*
X19088Y-28462D01*
X18881Y-28548D01*
X18722Y-28707D01*
X18700Y-28758D01*
X18694Y-28744D01*
X18694Y-27081D01*
X18606Y-26866D01*
X18441Y-26701D01*
X18227Y-26612D01*
X17994Y-26612D01*
X17779Y-26700D01*
X17614Y-26865D01*
X17525Y-27080D01*
X17525Y-27312D01*
X17614Y-27527D01*
X17778Y-27692D01*
X17993Y-27781D01*
X18226Y-27781D01*
X18440Y-27692D01*
X18605Y-27528D01*
X18694Y-27313D01*
X18694Y-27081D01*
X18694Y-28744D01*
X18680Y-28707D01*
X18521Y-28548D01*
X18313Y-28462D01*
X18088Y-28462D01*
X17881Y-28548D01*
X17722Y-28707D01*
X17635Y-28914D01*
X17635Y-29139D01*
X17721Y-29347D01*
X17880Y-29506D01*
X17931Y-29527D01*
X17881Y-29548D01*
X17722Y-29707D01*
X17635Y-29914D01*
X17635Y-30014D01*
X17121Y-29500D01*
X17121Y-25547D01*
X17095Y-25413D01*
X17019Y-25299D01*
X17019Y-25299D01*
X16666Y-24947D01*
X16666Y-24813D01*
X16587Y-24620D01*
X16491Y-24524D01*
X16491Y-24370D01*
X16465Y-24236D01*
X16389Y-24122D01*
X16365Y-24099D01*
X16360Y-24091D01*
X15101Y-22831D01*
X15093Y-22826D01*
X15070Y-22803D01*
X15013Y-22765D01*
X17544Y-22765D01*
X17525Y-22812D01*
X17525Y-22911D01*
X17525Y-23581D01*
X17563Y-23672D01*
X17633Y-23743D01*
X17725Y-23781D01*
X17825Y-23781D01*
X18494Y-23781D01*
X18586Y-23743D01*
X18620Y-23709D01*
X18688Y-23875D01*
X18836Y-24023D01*
X19028Y-24103D01*
X19237Y-24103D01*
X19430Y-24024D01*
X19578Y-23876D01*
X19658Y-23683D01*
X19658Y-23474D01*
X19579Y-23281D01*
X19431Y-23133D01*
X19238Y-23053D01*
X19029Y-23053D01*
X18836Y-23133D01*
X18694Y-23275D01*
X18694Y-22812D01*
X18675Y-22765D01*
X19771Y-22765D01*
X19712Y-22907D01*
X19712Y-23076D01*
X19777Y-23232D01*
X19896Y-23352D01*
X20052Y-23417D01*
X20221Y-23417D01*
X20378Y-23352D01*
X20388Y-23342D01*
X20514Y-23342D01*
X20439Y-23392D01*
X20369Y-23497D01*
X20344Y-23622D01*
X20344Y-27559D01*
X20369Y-27683D01*
X20439Y-27788D01*
X20544Y-27859D01*
X20669Y-27884D01*
X26739Y-27884D01*
X26287Y-28335D01*
X26212Y-28448D01*
X26185Y-28582D01*
X26185Y-28725D01*
X26175Y-28735D01*
X26110Y-28891D01*
X26110Y-29060D01*
X26174Y-29216D01*
X26294Y-29336D01*
X26450Y-29401D01*
X26619Y-29401D01*
X26775Y-29336D01*
X26895Y-29217D01*
X26960Y-29061D01*
X26960Y-28892D01*
X26895Y-28735D01*
X26886Y-28726D01*
X27349Y-28263D01*
X29059Y-28263D01*
X29059Y-28638D01*
X28970Y-28548D01*
X28762Y-28462D01*
X28537Y-28462D01*
X28330Y-28548D01*
X28170Y-28707D01*
X28149Y-28758D01*
X28128Y-28707D01*
X27970Y-28548D01*
X27762Y-28462D01*
X27537Y-28462D01*
X27330Y-28548D01*
X27170Y-28707D01*
X27084Y-28914D01*
X27084Y-29139D01*
X27170Y-29347D01*
X27329Y-29506D01*
X27380Y-29527D01*
X27330Y-29548D01*
X27170Y-29707D01*
X27084Y-29914D01*
X27084Y-30139D01*
X27170Y-30347D01*
X27329Y-30506D01*
X27536Y-30592D01*
X27761Y-30592D01*
X27969Y-30506D01*
X28128Y-30348D01*
X28149Y-30296D01*
X28170Y-30347D01*
X28329Y-30506D01*
X28536Y-30592D01*
X28761Y-30592D01*
X28969Y-30506D01*
X29059Y-30416D01*
X29059Y-30898D01*
X29059Y-30898D01*
G37*
G54D32*
X29059Y-30898D02*
X28594Y-31363D01*
X28549Y-31255D01*
X28430Y-31135D01*
X28273Y-31071D01*
X28104Y-31070D01*
X27948Y-31135D01*
X27938Y-31146D01*
X26065Y-31146D01*
X26065Y-29915D01*
X25979Y-29707D01*
X25820Y-29548D01*
X25769Y-29527D01*
X25819Y-29506D01*
X25978Y-29348D01*
X26064Y-29140D01*
X26065Y-28915D01*
X25979Y-28707D01*
X25820Y-28548D01*
X25612Y-28462D01*
X25388Y-28462D01*
X25180Y-28548D01*
X25021Y-28707D01*
X25000Y-28758D01*
X24979Y-28707D01*
X24820Y-28548D01*
X24612Y-28462D01*
X24388Y-28462D01*
X24180Y-28548D01*
X24021Y-28707D01*
X23935Y-28914D01*
X23934Y-29139D01*
X24020Y-29347D01*
X24179Y-29506D01*
X24230Y-29527D01*
X24180Y-29548D01*
X24021Y-29707D01*
X23935Y-29914D01*
X23934Y-30139D01*
X24020Y-30347D01*
X24179Y-30506D01*
X24387Y-30592D01*
X24611Y-30592D01*
X24819Y-30506D01*
X24978Y-30348D01*
X24999Y-30296D01*
X25020Y-30347D01*
X25179Y-30506D01*
X25387Y-30592D01*
X25611Y-30592D01*
X25819Y-30506D01*
X25978Y-30348D01*
X26064Y-30140D01*
X26065Y-29915D01*
X26065Y-31146D01*
X25487Y-31146D01*
X25477Y-31135D01*
X25321Y-31071D01*
X25152Y-31070D01*
X24995Y-31135D01*
X24945Y-31185D01*
X22915Y-31185D01*
X22915Y-29915D01*
X22829Y-29707D01*
X22670Y-29548D01*
X22619Y-29527D01*
X22670Y-29506D01*
X22829Y-29348D01*
X22915Y-29140D01*
X22915Y-28915D01*
X22829Y-28707D01*
X22670Y-28548D01*
X22463Y-28462D01*
X22238Y-28462D01*
X22030Y-28548D01*
X21871Y-28707D01*
X21850Y-28758D01*
X21829Y-28707D01*
X21670Y-28548D01*
X21463Y-28462D01*
X21238Y-28462D01*
X21030Y-28548D01*
X20871Y-28707D01*
X20785Y-28914D01*
X20785Y-29139D01*
X20871Y-29347D01*
X21029Y-29506D01*
X21081Y-29527D01*
X21030Y-29548D01*
X20871Y-29707D01*
X20785Y-29914D01*
X20785Y-30139D01*
X20871Y-30347D01*
X21029Y-30506D01*
X21237Y-30592D01*
X21462Y-30592D01*
X21670Y-30506D01*
X21829Y-30348D01*
X21850Y-30296D01*
X21871Y-30347D01*
X22029Y-30506D01*
X22237Y-30592D01*
X22462Y-30592D01*
X22670Y-30506D01*
X22829Y-30348D01*
X22915Y-30140D01*
X22915Y-29915D01*
X22915Y-31185D01*
X22455Y-31185D01*
X22445Y-31175D01*
X22289Y-31110D01*
X22120Y-31110D01*
X22034Y-31146D01*
X20133Y-31146D01*
X20122Y-31135D01*
X19966Y-31071D01*
X19797Y-31070D01*
X19753Y-31089D01*
X19256Y-30592D01*
X19312Y-30592D01*
X19520Y-30506D01*
X19679Y-30348D01*
X19765Y-30140D01*
X19765Y-29915D01*
X19680Y-29707D01*
X19521Y-29548D01*
X19469Y-29527D01*
X19520Y-29506D01*
X19679Y-29348D01*
X19765Y-29140D01*
X19765Y-28915D01*
X19680Y-28707D01*
X19658Y-28686D01*
X19658Y-26474D01*
X19579Y-26281D01*
X19431Y-26133D01*
X19238Y-26053D01*
X19029Y-26053D01*
X18836Y-26133D01*
X18689Y-26280D01*
X18608Y-26473D01*
X18608Y-26682D01*
X18688Y-26875D01*
X18836Y-27023D01*
X19028Y-27103D01*
X19237Y-27103D01*
X19430Y-27024D01*
X19578Y-26876D01*
X19658Y-26683D01*
X19658Y-26474D01*
X19658Y-28686D01*
X19521Y-28548D01*
X19313Y-28462D01*
X19088Y-28462D01*
X18881Y-28548D01*
X18722Y-28707D01*
X18700Y-28758D01*
X18694Y-28744D01*
X18694Y-27081D01*
X18606Y-26866D01*
X18441Y-26701D01*
X18227Y-26612D01*
X17994Y-26612D01*
X17779Y-26700D01*
X17614Y-26865D01*
X17525Y-27080D01*
X17525Y-27312D01*
X17614Y-27527D01*
X17778Y-27692D01*
X17993Y-27781D01*
X18226Y-27781D01*
X18440Y-27692D01*
X18605Y-27528D01*
X18694Y-27313D01*
X18694Y-27081D01*
X18694Y-28744D01*
X18680Y-28707D01*
X18521Y-28548D01*
X18313Y-28462D01*
X18088Y-28462D01*
X17881Y-28548D01*
X17722Y-28707D01*
X17635Y-28914D01*
X17635Y-29139D01*
X17721Y-29347D01*
X17880Y-29506D01*
X17931Y-29527D01*
X17881Y-29548D01*
X17722Y-29707D01*
X17635Y-29914D01*
X17635Y-30014D01*
X17121Y-29500D01*
X17121Y-25547D01*
X17095Y-25413D01*
X17019Y-25299D01*
X17019Y-25299D01*
X16666Y-24947D01*
X16666Y-24813D01*
X16587Y-24620D01*
X16491Y-24524D01*
X16491Y-24370D01*
X16465Y-24236D01*
X16389Y-24122D01*
X16365Y-24099D01*
X16360Y-24091D01*
X15101Y-22831D01*
X15093Y-22826D01*
X15070Y-22803D01*
X15013Y-22765D01*
X17544Y-22765D01*
X17525Y-22812D01*
X17525Y-22911D01*
X17525Y-23581D01*
X17563Y-23672D01*
X17633Y-23743D01*
X17725Y-23781D01*
X17825Y-23781D01*
X18494Y-23781D01*
X18586Y-23743D01*
X18620Y-23709D01*
X18688Y-23875D01*
X18836Y-24023D01*
X19028Y-24103D01*
X19237Y-24103D01*
X19430Y-24024D01*
X19578Y-23876D01*
X19658Y-23683D01*
X19658Y-23474D01*
X19579Y-23281D01*
X19431Y-23133D01*
X19238Y-23053D01*
X19029Y-23053D01*
X18836Y-23133D01*
X18694Y-23275D01*
X18694Y-22812D01*
X18675Y-22765D01*
X19771Y-22765D01*
X19712Y-22907D01*
X19712Y-23076D01*
X19777Y-23232D01*
X19896Y-23352D01*
X20052Y-23417D01*
X20221Y-23417D01*
X20378Y-23352D01*
X20388Y-23342D01*
X20514Y-23342D01*
X20439Y-23392D01*
X20369Y-23497D01*
X20344Y-23622D01*
X20344Y-27559D01*
X20369Y-27683D01*
X20439Y-27788D01*
X20544Y-27859D01*
X20669Y-27884D01*
X26739Y-27884D01*
X26287Y-28335D01*
X26212Y-28448D01*
X26185Y-28582D01*
X26185Y-28725D01*
X26175Y-28735D01*
X26110Y-28891D01*
X26110Y-29060D01*
X26174Y-29216D01*
X26294Y-29336D01*
X26450Y-29401D01*
X26619Y-29401D01*
X26775Y-29336D01*
X26895Y-29217D01*
X26960Y-29061D01*
X26960Y-28892D01*
X26895Y-28735D01*
X26886Y-28726D01*
X27349Y-28263D01*
X29059Y-28263D01*
X29059Y-28638D01*
X28970Y-28548D01*
X28762Y-28462D01*
X28537Y-28462D01*
X28330Y-28548D01*
X28170Y-28707D01*
X28149Y-28758D01*
X28128Y-28707D01*
X27970Y-28548D01*
X27762Y-28462D01*
X27537Y-28462D01*
X27330Y-28548D01*
X27170Y-28707D01*
X27084Y-28914D01*
X27084Y-29139D01*
X27170Y-29347D01*
X27329Y-29506D01*
X27380Y-29527D01*
X27330Y-29548D01*
X27170Y-29707D01*
X27084Y-29914D01*
X27084Y-30139D01*
X27170Y-30347D01*
X27329Y-30506D01*
X27536Y-30592D01*
X27761Y-30592D01*
X27969Y-30506D01*
X28128Y-30348D01*
X28149Y-30296D01*
X28170Y-30347D01*
X28329Y-30506D01*
X28536Y-30592D01*
X28761Y-30592D01*
X28969Y-30506D01*
X29059Y-30416D01*
X29059Y-30898D01*
G54D10*
G36*
X29139Y-36734D02*
X29139Y-36797D01*
X29139Y-37171D01*
X29055Y-36969D01*
X28986Y-36899D01*
X29039Y-36877D01*
X29109Y-36807D01*
X29139Y-36734D01*
X29139Y-36734D01*
G37*
G54D32*
X29139Y-36734D02*
X29139Y-36797D01*
X29139Y-37171D01*
X29055Y-36969D01*
X28986Y-36899D01*
X29039Y-36877D01*
X29109Y-36807D01*
X29139Y-36734D01*
G54D10*
G36*
X29194Y-36590D02*
X29177Y-36606D01*
X29147Y-36679D01*
X29147Y-36615D01*
X29147Y-36477D01*
X29194Y-36590D01*
X29194Y-36590D01*
G37*
G54D32*
X29194Y-36590D02*
X29177Y-36606D01*
X29147Y-36679D01*
X29147Y-36615D01*
X29147Y-36477D01*
X29194Y-36590D01*
G54D10*
G36*
X29632Y-44523D02*
X29606Y-44562D01*
X29579Y-44523D01*
X29632Y-44523D01*
X29632Y-44523D01*
G37*
G54D32*
X29632Y-44523D02*
X29606Y-44562D01*
X29579Y-44523D01*
X29632Y-44523D01*
G54D10*
G36*
X29645Y-48409D02*
X29566Y-48409D01*
X29606Y-48350D01*
X29645Y-48409D01*
X29645Y-48409D01*
G37*
G54D32*
X29645Y-48409D02*
X29566Y-48409D01*
X29606Y-48350D01*
X29645Y-48409D01*
G54D10*
G36*
X30632Y-44523D02*
X30606Y-44562D01*
X30579Y-44523D01*
X30632Y-44523D01*
X30632Y-44523D01*
G37*
G54D32*
X30632Y-44523D02*
X30606Y-44562D01*
X30579Y-44523D01*
X30632Y-44523D01*
G54D10*
G36*
X30645Y-48409D02*
X30566Y-48409D01*
X30606Y-48350D01*
X30645Y-48409D01*
X30645Y-48409D01*
G37*
G54D32*
X30645Y-48409D02*
X30566Y-48409D01*
X30606Y-48350D01*
X30645Y-48409D01*
G54D10*
G36*
X30960Y-40611D02*
X30514Y-41057D01*
X30498Y-41019D01*
X30487Y-41008D01*
X30487Y-40798D01*
X30619Y-40667D01*
X30824Y-40667D01*
X30960Y-40611D01*
X30960Y-40611D01*
G37*
G54D32*
X30960Y-40611D02*
X30514Y-41057D01*
X30498Y-41019D01*
X30487Y-41008D01*
X30487Y-40798D01*
X30619Y-40667D01*
X30824Y-40667D01*
X30960Y-40611D01*
G54D10*
G36*
X31027Y-42474D02*
X31019Y-42465D01*
X31019Y-41542D01*
X31027Y-41533D01*
X31027Y-42474D01*
X31027Y-42474D01*
G37*
G54D32*
X31027Y-42474D02*
X31019Y-42465D01*
X31019Y-41542D01*
X31027Y-41533D01*
X31027Y-42474D01*
G54D10*
G36*
X31535Y-30815D02*
X31432Y-30917D01*
X31432Y-30712D01*
X31535Y-30815D01*
X31535Y-30815D01*
G37*
G54D32*
X31535Y-30815D02*
X31432Y-30917D01*
X31432Y-30712D01*
X31535Y-30815D01*
G54D10*
G36*
X31591Y-44523D02*
X31589Y-44536D01*
X31579Y-44523D01*
X31591Y-44523D01*
X31591Y-44523D01*
G37*
G54D32*
X31591Y-44523D02*
X31589Y-44536D01*
X31579Y-44523D01*
X31591Y-44523D01*
G54D10*
G36*
X31925Y-28710D02*
X31485Y-28710D01*
X31394Y-28748D01*
X31323Y-28818D01*
X31285Y-28910D01*
X31285Y-29010D01*
X31285Y-29718D01*
X31323Y-29810D01*
X31393Y-29881D01*
X31446Y-29903D01*
X31377Y-29972D01*
X31366Y-29998D01*
X31323Y-29954D01*
X31167Y-29890D01*
X30998Y-29889D01*
X30842Y-29954D01*
X30722Y-30073D01*
X30657Y-30230D01*
X30657Y-30399D01*
X30722Y-30555D01*
X30732Y-30565D01*
X30732Y-31633D01*
X30759Y-31767D01*
X30835Y-31881D01*
X31775Y-32822D01*
X31775Y-39929D01*
X31608Y-39929D01*
X31452Y-39993D01*
X31332Y-40113D01*
X31267Y-40269D01*
X31267Y-40303D01*
X31236Y-40335D01*
X31293Y-40199D01*
X31293Y-39966D01*
X31204Y-39751D01*
X31040Y-39587D01*
X30825Y-39498D01*
X30592Y-39497D01*
X30377Y-39586D01*
X30216Y-39747D01*
X30056Y-39587D01*
X29841Y-39498D01*
X29608Y-39497D01*
X29393Y-39586D01*
X29229Y-39751D01*
X29139Y-39965D01*
X29139Y-40198D01*
X29228Y-40413D01*
X29392Y-40578D01*
X29607Y-40667D01*
X29787Y-40667D01*
X29787Y-41008D01*
X29777Y-41018D01*
X29712Y-41174D01*
X29712Y-41344D01*
X29777Y-41500D01*
X29896Y-41619D01*
X30052Y-41684D01*
X30221Y-41684D01*
X30319Y-41644D01*
X30319Y-42465D01*
X30309Y-42475D01*
X30244Y-42631D01*
X30244Y-42800D01*
X30308Y-42956D01*
X30428Y-43076D01*
X30584Y-43141D01*
X30694Y-43141D01*
X30544Y-43291D01*
X29515Y-43291D01*
X28499Y-42276D01*
X28499Y-42144D01*
X28576Y-42176D01*
X28745Y-42177D01*
X28901Y-42112D01*
X29021Y-41993D01*
X29086Y-41836D01*
X29086Y-41667D01*
X29021Y-41511D01*
X29011Y-41501D01*
X29011Y-38720D01*
X28984Y-38586D01*
X28984Y-38586D01*
X28908Y-38472D01*
X28300Y-37864D01*
X28422Y-37915D01*
X28662Y-37915D01*
X28885Y-37823D01*
X29055Y-37653D01*
X29139Y-37450D01*
X29139Y-37466D01*
X29177Y-37558D01*
X29247Y-37629D01*
X29339Y-37667D01*
X29439Y-37667D01*
X30108Y-37667D01*
X30200Y-37629D01*
X30216Y-37613D01*
X30232Y-37629D01*
X30324Y-37667D01*
X30423Y-37667D01*
X31092Y-37667D01*
X31184Y-37629D01*
X31255Y-37559D01*
X31293Y-37467D01*
X31293Y-37367D01*
X31293Y-36698D01*
X31255Y-36606D01*
X31238Y-36590D01*
X31293Y-36459D01*
X31293Y-36226D01*
X31293Y-36226D01*
X31293Y-33627D01*
X31293Y-32958D01*
X31255Y-32866D01*
X31185Y-32796D01*
X31093Y-32757D01*
X30993Y-32757D01*
X30741Y-32757D01*
X30741Y-31947D01*
X30661Y-31754D01*
X30514Y-31606D01*
X30321Y-31526D01*
X30112Y-31526D01*
X29919Y-31605D01*
X29771Y-31753D01*
X29691Y-31946D01*
X29691Y-32155D01*
X29771Y-32348D01*
X29918Y-32495D01*
X30111Y-32576D01*
X30320Y-32576D01*
X30513Y-32496D01*
X30661Y-32348D01*
X30741Y-32156D01*
X30741Y-31947D01*
X30741Y-32757D01*
X30324Y-32757D01*
X30232Y-32795D01*
X30216Y-32811D01*
X30200Y-32796D01*
X30109Y-32757D01*
X30009Y-32757D01*
X29340Y-32757D01*
X29248Y-32795D01*
X29177Y-32866D01*
X29139Y-32957D01*
X29139Y-33057D01*
X29139Y-33726D01*
X29177Y-33818D01*
X29247Y-33888D01*
X29339Y-33927D01*
X29439Y-33927D01*
X30108Y-33927D01*
X30200Y-33889D01*
X30216Y-33873D01*
X30232Y-33888D01*
X30324Y-33927D01*
X30423Y-33927D01*
X31092Y-33927D01*
X31184Y-33889D01*
X31255Y-33818D01*
X31293Y-33727D01*
X31293Y-33627D01*
X31293Y-36226D01*
X31204Y-36011D01*
X31040Y-35847D01*
X30825Y-35757D01*
X30592Y-35757D01*
X30377Y-35846D01*
X30216Y-36007D01*
X30056Y-35847D01*
X29841Y-35757D01*
X29608Y-35757D01*
X29393Y-35846D01*
X29229Y-36010D01*
X29147Y-36206D01*
X29147Y-35907D01*
X29109Y-35815D01*
X29039Y-35744D01*
X28988Y-35723D01*
X28988Y-32750D01*
X28923Y-32594D01*
X28804Y-32474D01*
X28647Y-32409D01*
X28478Y-32409D01*
X28322Y-32474D01*
X28202Y-32593D01*
X28138Y-32749D01*
X28138Y-32764D01*
X27394Y-33508D01*
X24720Y-33508D01*
X24575Y-33362D01*
X24360Y-33273D01*
X24128Y-33273D01*
X23913Y-33362D01*
X23748Y-33526D01*
X23659Y-33741D01*
X23659Y-33974D01*
X23748Y-34189D01*
X23912Y-34353D01*
X24127Y-34442D01*
X24359Y-34443D01*
X24574Y-34354D01*
X24721Y-34208D01*
X27539Y-34208D01*
X27673Y-34181D01*
X27673Y-34181D01*
X27786Y-34105D01*
X28632Y-33259D01*
X28647Y-33259D01*
X28803Y-33195D01*
X28923Y-33075D01*
X28987Y-32919D01*
X28988Y-32750D01*
X28988Y-35723D01*
X28947Y-35706D01*
X28848Y-35706D01*
X28139Y-35706D01*
X28047Y-35744D01*
X27977Y-35814D01*
X27939Y-35906D01*
X27938Y-36006D01*
X27938Y-36714D01*
X27976Y-36806D01*
X28047Y-36877D01*
X28100Y-36899D01*
X28031Y-36968D01*
X27939Y-37190D01*
X27939Y-37207D01*
X27235Y-36504D01*
X27122Y-36428D01*
X26988Y-36401D01*
X26680Y-36401D01*
X26789Y-36356D01*
X26970Y-36176D01*
X27068Y-35939D01*
X27068Y-35683D01*
X26971Y-35446D01*
X26790Y-35265D01*
X26553Y-35167D01*
X26297Y-35167D01*
X26061Y-35265D01*
X25925Y-35400D01*
X25790Y-35265D01*
X25553Y-35167D01*
X25297Y-35167D01*
X25061Y-35265D01*
X24925Y-35400D01*
X24790Y-35265D01*
X24553Y-35167D01*
X24297Y-35167D01*
X24061Y-35265D01*
X23925Y-35400D01*
X23790Y-35265D01*
X23553Y-35167D01*
X23297Y-35167D01*
X23061Y-35265D01*
X22925Y-35400D01*
X22790Y-35265D01*
X22553Y-35167D01*
X22297Y-35167D01*
X22061Y-35265D01*
X21925Y-35400D01*
X21790Y-35265D01*
X21553Y-35167D01*
X21297Y-35167D01*
X21061Y-35265D01*
X20925Y-35400D01*
X20828Y-35304D01*
X20828Y-34143D01*
X20828Y-33474D01*
X20790Y-33382D01*
X20720Y-33311D01*
X20628Y-33273D01*
X20529Y-33273D01*
X19859Y-33273D01*
X19768Y-33311D01*
X19697Y-33381D01*
X19659Y-33473D01*
X19659Y-33573D01*
X19659Y-34242D01*
X19697Y-34334D01*
X19767Y-34404D01*
X19859Y-34442D01*
X19958Y-34442D01*
X20628Y-34442D01*
X20720Y-34404D01*
X20790Y-34334D01*
X20828Y-34242D01*
X20828Y-34143D01*
X20828Y-35304D01*
X20790Y-35265D01*
X20553Y-35167D01*
X20297Y-35167D01*
X20061Y-35265D01*
X19879Y-35446D01*
X19781Y-35682D01*
X19781Y-35938D01*
X19879Y-36175D01*
X20060Y-36356D01*
X20296Y-36454D01*
X20552Y-36454D01*
X20789Y-36356D01*
X20925Y-36221D01*
X21060Y-36356D01*
X21296Y-36454D01*
X21552Y-36454D01*
X21789Y-36356D01*
X21925Y-36221D01*
X22060Y-36356D01*
X22296Y-36454D01*
X22552Y-36454D01*
X22789Y-36356D01*
X22925Y-36221D01*
X23060Y-36356D01*
X23179Y-36405D01*
X23163Y-36405D01*
X23007Y-36470D01*
X22997Y-36480D01*
X20007Y-36480D01*
X19405Y-35878D01*
X19405Y-34704D01*
X19378Y-34570D01*
X19302Y-34457D01*
X18814Y-33969D01*
X18814Y-32987D01*
X18824Y-32977D01*
X18889Y-32821D01*
X18889Y-32653D01*
X20622Y-32653D01*
X21996Y-34026D01*
X21996Y-34040D01*
X22060Y-34197D01*
X22180Y-34316D01*
X22336Y-34381D01*
X22505Y-34381D01*
X22661Y-34317D01*
X22781Y-34197D01*
X22846Y-34041D01*
X22846Y-33872D01*
X22781Y-33716D01*
X22662Y-33596D01*
X22506Y-33531D01*
X22491Y-33531D01*
X21214Y-32255D01*
X21287Y-32255D01*
X21327Y-32294D01*
X21327Y-32294D01*
X21440Y-32370D01*
X21574Y-32397D01*
X21574Y-32397D01*
X21574Y-32397D01*
X28405Y-32397D01*
X28539Y-32370D01*
X28539Y-32370D01*
X28652Y-32294D01*
X29656Y-31290D01*
X29732Y-31177D01*
X29759Y-31043D01*
X29759Y-29319D01*
X29771Y-29348D01*
X29918Y-29495D01*
X30111Y-29576D01*
X30320Y-29576D01*
X30513Y-29496D01*
X30661Y-29348D01*
X30741Y-29156D01*
X30741Y-28947D01*
X30661Y-28754D01*
X30514Y-28606D01*
X30321Y-28526D01*
X30112Y-28526D01*
X29919Y-28605D01*
X29771Y-28753D01*
X29759Y-28782D01*
X29759Y-28058D01*
X30011Y-27806D01*
X30087Y-27692D01*
X30087Y-27692D01*
X30113Y-27559D01*
X30113Y-27395D01*
X30214Y-27495D01*
X30406Y-27576D01*
X30615Y-27576D01*
X30733Y-27527D01*
X31898Y-28692D01*
X31925Y-28710D01*
X31925Y-28710D01*
G37*
G54D32*
X31925Y-28710D02*
X31485Y-28710D01*
X31394Y-28748D01*
X31323Y-28818D01*
X31285Y-28910D01*
X31285Y-29010D01*
X31285Y-29718D01*
X31323Y-29810D01*
X31393Y-29881D01*
X31446Y-29903D01*
X31377Y-29972D01*
X31366Y-29998D01*
X31323Y-29954D01*
X31167Y-29890D01*
X30998Y-29889D01*
X30842Y-29954D01*
X30722Y-30073D01*
X30657Y-30230D01*
X30657Y-30399D01*
X30722Y-30555D01*
X30732Y-30565D01*
X30732Y-31633D01*
X30759Y-31767D01*
X30835Y-31881D01*
X31775Y-32822D01*
X31775Y-39929D01*
X31608Y-39929D01*
X31452Y-39993D01*
X31332Y-40113D01*
X31267Y-40269D01*
X31267Y-40303D01*
X31236Y-40335D01*
X31293Y-40199D01*
X31293Y-39966D01*
X31204Y-39751D01*
X31040Y-39587D01*
X30825Y-39498D01*
X30592Y-39497D01*
X30377Y-39586D01*
X30216Y-39747D01*
X30056Y-39587D01*
X29841Y-39498D01*
X29608Y-39497D01*
X29393Y-39586D01*
X29229Y-39751D01*
X29139Y-39965D01*
X29139Y-40198D01*
X29228Y-40413D01*
X29392Y-40578D01*
X29607Y-40667D01*
X29787Y-40667D01*
X29787Y-41008D01*
X29777Y-41018D01*
X29712Y-41174D01*
X29712Y-41344D01*
X29777Y-41500D01*
X29896Y-41619D01*
X30052Y-41684D01*
X30221Y-41684D01*
X30319Y-41644D01*
X30319Y-42465D01*
X30309Y-42475D01*
X30244Y-42631D01*
X30244Y-42800D01*
X30308Y-42956D01*
X30428Y-43076D01*
X30584Y-43141D01*
X30694Y-43141D01*
X30544Y-43291D01*
X29515Y-43291D01*
X28499Y-42276D01*
X28499Y-42144D01*
X28576Y-42176D01*
X28745Y-42177D01*
X28901Y-42112D01*
X29021Y-41993D01*
X29086Y-41836D01*
X29086Y-41667D01*
X29021Y-41511D01*
X29011Y-41501D01*
X29011Y-38720D01*
X28984Y-38586D01*
X28984Y-38586D01*
X28908Y-38472D01*
X28300Y-37864D01*
X28422Y-37915D01*
X28662Y-37915D01*
X28885Y-37823D01*
X29055Y-37653D01*
X29139Y-37450D01*
X29139Y-37466D01*
X29177Y-37558D01*
X29247Y-37629D01*
X29339Y-37667D01*
X29439Y-37667D01*
X30108Y-37667D01*
X30200Y-37629D01*
X30216Y-37613D01*
X30232Y-37629D01*
X30324Y-37667D01*
X30423Y-37667D01*
X31092Y-37667D01*
X31184Y-37629D01*
X31255Y-37559D01*
X31293Y-37467D01*
X31293Y-37367D01*
X31293Y-36698D01*
X31255Y-36606D01*
X31238Y-36590D01*
X31293Y-36459D01*
X31293Y-36226D01*
X31293Y-36226D01*
X31293Y-33627D01*
X31293Y-32958D01*
X31255Y-32866D01*
X31185Y-32796D01*
X31093Y-32757D01*
X30993Y-32757D01*
X30741Y-32757D01*
X30741Y-31947D01*
X30661Y-31754D01*
X30514Y-31606D01*
X30321Y-31526D01*
X30112Y-31526D01*
X29919Y-31605D01*
X29771Y-31753D01*
X29691Y-31946D01*
X29691Y-32155D01*
X29771Y-32348D01*
X29918Y-32495D01*
X30111Y-32576D01*
X30320Y-32576D01*
X30513Y-32496D01*
X30661Y-32348D01*
X30741Y-32156D01*
X30741Y-31947D01*
X30741Y-32757D01*
X30324Y-32757D01*
X30232Y-32795D01*
X30216Y-32811D01*
X30200Y-32796D01*
X30109Y-32757D01*
X30009Y-32757D01*
X29340Y-32757D01*
X29248Y-32795D01*
X29177Y-32866D01*
X29139Y-32957D01*
X29139Y-33057D01*
X29139Y-33726D01*
X29177Y-33818D01*
X29247Y-33888D01*
X29339Y-33927D01*
X29439Y-33927D01*
X30108Y-33927D01*
X30200Y-33889D01*
X30216Y-33873D01*
X30232Y-33888D01*
X30324Y-33927D01*
X30423Y-33927D01*
X31092Y-33927D01*
X31184Y-33889D01*
X31255Y-33818D01*
X31293Y-33727D01*
X31293Y-33627D01*
X31293Y-36226D01*
X31204Y-36011D01*
X31040Y-35847D01*
X30825Y-35757D01*
X30592Y-35757D01*
X30377Y-35846D01*
X30216Y-36007D01*
X30056Y-35847D01*
X29841Y-35757D01*
X29608Y-35757D01*
X29393Y-35846D01*
X29229Y-36010D01*
X29147Y-36206D01*
X29147Y-35907D01*
X29109Y-35815D01*
X29039Y-35744D01*
X28988Y-35723D01*
X28988Y-32750D01*
X28923Y-32594D01*
X28804Y-32474D01*
X28647Y-32409D01*
X28478Y-32409D01*
X28322Y-32474D01*
X28202Y-32593D01*
X28138Y-32749D01*
X28138Y-32764D01*
X27394Y-33508D01*
X24720Y-33508D01*
X24575Y-33362D01*
X24360Y-33273D01*
X24128Y-33273D01*
X23913Y-33362D01*
X23748Y-33526D01*
X23659Y-33741D01*
X23659Y-33974D01*
X23748Y-34189D01*
X23912Y-34353D01*
X24127Y-34442D01*
X24359Y-34443D01*
X24574Y-34354D01*
X24721Y-34208D01*
X27539Y-34208D01*
X27673Y-34181D01*
X27673Y-34181D01*
X27786Y-34105D01*
X28632Y-33259D01*
X28647Y-33259D01*
X28803Y-33195D01*
X28923Y-33075D01*
X28987Y-32919D01*
X28988Y-32750D01*
X28988Y-35723D01*
X28947Y-35706D01*
X28848Y-35706D01*
X28139Y-35706D01*
X28047Y-35744D01*
X27977Y-35814D01*
X27939Y-35906D01*
X27938Y-36006D01*
X27938Y-36714D01*
X27976Y-36806D01*
X28047Y-36877D01*
X28100Y-36899D01*
X28031Y-36968D01*
X27939Y-37190D01*
X27939Y-37207D01*
X27235Y-36504D01*
X27122Y-36428D01*
X26988Y-36401D01*
X26680Y-36401D01*
X26789Y-36356D01*
X26970Y-36176D01*
X27068Y-35939D01*
X27068Y-35683D01*
X26971Y-35446D01*
X26790Y-35265D01*
X26553Y-35167D01*
X26297Y-35167D01*
X26061Y-35265D01*
X25925Y-35400D01*
X25790Y-35265D01*
X25553Y-35167D01*
X25297Y-35167D01*
X25061Y-35265D01*
X24925Y-35400D01*
X24790Y-35265D01*
X24553Y-35167D01*
X24297Y-35167D01*
X24061Y-35265D01*
X23925Y-35400D01*
X23790Y-35265D01*
X23553Y-35167D01*
X23297Y-35167D01*
X23061Y-35265D01*
X22925Y-35400D01*
X22790Y-35265D01*
X22553Y-35167D01*
X22297Y-35167D01*
X22061Y-35265D01*
X21925Y-35400D01*
X21790Y-35265D01*
X21553Y-35167D01*
X21297Y-35167D01*
X21061Y-35265D01*
X20925Y-35400D01*
X20828Y-35304D01*
X20828Y-34143D01*
X20828Y-33474D01*
X20790Y-33382D01*
X20720Y-33311D01*
X20628Y-33273D01*
X20529Y-33273D01*
X19859Y-33273D01*
X19768Y-33311D01*
X19697Y-33381D01*
X19659Y-33473D01*
X19659Y-33573D01*
X19659Y-34242D01*
X19697Y-34334D01*
X19767Y-34404D01*
X19859Y-34442D01*
X19958Y-34442D01*
X20628Y-34442D01*
X20720Y-34404D01*
X20790Y-34334D01*
X20828Y-34242D01*
X20828Y-34143D01*
X20828Y-35304D01*
X20790Y-35265D01*
X20553Y-35167D01*
X20297Y-35167D01*
X20061Y-35265D01*
X19879Y-35446D01*
X19781Y-35682D01*
X19781Y-35938D01*
X19879Y-36175D01*
X20060Y-36356D01*
X20296Y-36454D01*
X20552Y-36454D01*
X20789Y-36356D01*
X20925Y-36221D01*
X21060Y-36356D01*
X21296Y-36454D01*
X21552Y-36454D01*
X21789Y-36356D01*
X21925Y-36221D01*
X22060Y-36356D01*
X22296Y-36454D01*
X22552Y-36454D01*
X22789Y-36356D01*
X22925Y-36221D01*
X23060Y-36356D01*
X23179Y-36405D01*
X23163Y-36405D01*
X23007Y-36470D01*
X22997Y-36480D01*
X20007Y-36480D01*
X19405Y-35878D01*
X19405Y-34704D01*
X19378Y-34570D01*
X19302Y-34457D01*
X18814Y-33969D01*
X18814Y-32987D01*
X18824Y-32977D01*
X18889Y-32821D01*
X18889Y-32653D01*
X20622Y-32653D01*
X21996Y-34026D01*
X21996Y-34040D01*
X22060Y-34197D01*
X22180Y-34316D01*
X22336Y-34381D01*
X22505Y-34381D01*
X22661Y-34317D01*
X22781Y-34197D01*
X22846Y-34041D01*
X22846Y-33872D01*
X22781Y-33716D01*
X22662Y-33596D01*
X22506Y-33531D01*
X22491Y-33531D01*
X21214Y-32255D01*
X21287Y-32255D01*
X21327Y-32294D01*
X21327Y-32294D01*
X21440Y-32370D01*
X21574Y-32397D01*
X21574Y-32397D01*
X21574Y-32397D01*
X28405Y-32397D01*
X28539Y-32370D01*
X28539Y-32370D01*
X28652Y-32294D01*
X29656Y-31290D01*
X29732Y-31177D01*
X29759Y-31043D01*
X29759Y-29319D01*
X29771Y-29348D01*
X29918Y-29495D01*
X30111Y-29576D01*
X30320Y-29576D01*
X30513Y-29496D01*
X30661Y-29348D01*
X30741Y-29156D01*
X30741Y-28947D01*
X30661Y-28754D01*
X30514Y-28606D01*
X30321Y-28526D01*
X30112Y-28526D01*
X29919Y-28605D01*
X29771Y-28753D01*
X29759Y-28782D01*
X29759Y-28058D01*
X30011Y-27806D01*
X30087Y-27692D01*
X30087Y-27692D01*
X30113Y-27559D01*
X30113Y-27395D01*
X30214Y-27495D01*
X30406Y-27576D01*
X30615Y-27576D01*
X30733Y-27527D01*
X31898Y-28692D01*
X31925Y-28710D01*
G54D10*
G36*
X32347Y-43672D02*
X32336Y-43684D01*
X32328Y-43665D01*
X32347Y-43672D01*
X32347Y-43672D01*
G37*
G54D32*
X32347Y-43672D02*
X32336Y-43684D01*
X32328Y-43665D01*
X32347Y-43672D01*
G54D10*
G36*
X32693Y-40550D02*
X32671Y-40541D01*
X32475Y-40541D01*
X32475Y-40333D01*
X32693Y-40550D01*
X32693Y-40550D01*
G37*
G54D32*
X32693Y-40550D02*
X32671Y-40541D01*
X32475Y-40541D01*
X32475Y-40333D01*
X32693Y-40550D01*
G54D10*
G36*
X33252Y-43142D02*
X33130Y-43263D01*
X33139Y-43242D01*
X33139Y-43010D01*
X33051Y-42795D01*
X32886Y-42630D01*
X32671Y-42541D01*
X32439Y-42541D01*
X32224Y-42630D01*
X32059Y-42794D01*
X31970Y-43009D01*
X31970Y-43241D01*
X32052Y-43441D01*
X32033Y-43433D01*
X31864Y-43433D01*
X31708Y-43497D01*
X31588Y-43617D01*
X31523Y-43773D01*
X31523Y-43788D01*
X31488Y-43823D01*
X31476Y-43823D01*
X31002Y-43823D01*
X31625Y-43200D01*
X31625Y-43200D01*
X31625Y-43200D01*
X31701Y-43086D01*
X31727Y-42952D01*
X31727Y-42952D01*
X31727Y-42952D01*
X31727Y-41463D01*
X31970Y-41221D01*
X31970Y-41241D01*
X32059Y-41456D01*
X32223Y-41621D01*
X32438Y-41710D01*
X32670Y-41710D01*
X32885Y-41621D01*
X33050Y-41457D01*
X33139Y-41242D01*
X33139Y-41010D01*
X33130Y-40987D01*
X33252Y-41109D01*
X33252Y-43142D01*
X33252Y-43142D01*
G37*
G54D32*
X33252Y-43142D02*
X33130Y-43263D01*
X33139Y-43242D01*
X33139Y-43010D01*
X33051Y-42795D01*
X32886Y-42630D01*
X32671Y-42541D01*
X32439Y-42541D01*
X32224Y-42630D01*
X32059Y-42794D01*
X31970Y-43009D01*
X31970Y-43241D01*
X32052Y-43441D01*
X32033Y-43433D01*
X31864Y-43433D01*
X31708Y-43497D01*
X31588Y-43617D01*
X31523Y-43773D01*
X31523Y-43788D01*
X31488Y-43823D01*
X31476Y-43823D01*
X31002Y-43823D01*
X31625Y-43200D01*
X31625Y-43200D01*
X31625Y-43200D01*
X31701Y-43086D01*
X31727Y-42952D01*
X31727Y-42952D01*
X31727Y-42952D01*
X31727Y-41463D01*
X31970Y-41221D01*
X31970Y-41241D01*
X32059Y-41456D01*
X32223Y-41621D01*
X32438Y-41710D01*
X32670Y-41710D01*
X32885Y-41621D01*
X33050Y-41457D01*
X33139Y-41242D01*
X33139Y-41010D01*
X33130Y-40987D01*
X33252Y-41109D01*
X33252Y-43142D01*
G54D10*
G36*
X33413Y-45563D02*
X33267Y-45708D01*
X33156Y-45596D01*
X33209Y-45575D01*
X33279Y-45504D01*
X33301Y-45451D01*
X33413Y-45563D01*
X33413Y-45563D01*
G37*
G54D32*
X33413Y-45563D02*
X33267Y-45708D01*
X33156Y-45596D01*
X33209Y-45575D01*
X33279Y-45504D01*
X33301Y-45451D01*
X33413Y-45563D01*
G54D10*
G36*
X33413Y-46563D02*
X33267Y-46708D01*
X33122Y-46562D01*
X33267Y-46417D01*
X33413Y-46563D01*
X33413Y-46563D01*
G37*
G54D32*
X33413Y-46563D02*
X33267Y-46708D01*
X33122Y-46562D01*
X33267Y-46417D01*
X33413Y-46563D01*
G54D10*
G36*
X34157Y-44598D02*
X34110Y-44550D01*
X33888Y-44458D01*
X33648Y-44458D01*
X33425Y-44550D01*
X33301Y-44674D01*
X33279Y-44621D01*
X33209Y-44551D01*
X33117Y-44513D01*
X33018Y-44512D01*
X32497Y-44512D01*
X32841Y-44168D01*
X33705Y-44168D01*
X33715Y-44178D01*
X33871Y-44243D01*
X34040Y-44243D01*
X34157Y-44195D01*
X34157Y-44598D01*
X34157Y-44598D01*
G37*
G54D32*
X34157Y-44598D02*
X34110Y-44550D01*
X33888Y-44458D01*
X33648Y-44458D01*
X33425Y-44550D01*
X33301Y-44674D01*
X33279Y-44621D01*
X33209Y-44551D01*
X33117Y-44513D01*
X33018Y-44512D01*
X32497Y-44512D01*
X32841Y-44168D01*
X33705Y-44168D01*
X33715Y-44178D01*
X33871Y-44243D01*
X34040Y-44243D01*
X34157Y-44195D01*
X34157Y-44598D01*
G54D10*
G36*
X34157Y-45598D02*
X34122Y-45562D01*
X34157Y-45527D01*
X34157Y-45598D01*
X34157Y-45598D01*
G37*
G54D32*
X34157Y-45598D02*
X34122Y-45562D01*
X34157Y-45527D01*
X34157Y-45598D01*
G54D10*
G36*
X34157Y-46598D02*
X34122Y-46562D01*
X34157Y-46527D01*
X34157Y-46598D01*
X34157Y-46598D01*
G37*
G54D32*
X34157Y-46598D02*
X34122Y-46562D01*
X34157Y-46527D01*
X34157Y-46598D01*
G54D10*
G36*
X34157Y-47532D02*
X33949Y-47740D01*
X33287Y-47740D01*
X33153Y-47767D01*
X33039Y-47843D01*
X32764Y-48118D01*
X32688Y-48232D01*
X32661Y-48366D01*
X32661Y-48596D01*
X32544Y-48478D01*
X32388Y-48413D01*
X32242Y-48413D01*
X32224Y-48409D01*
X31566Y-48409D01*
X31623Y-48324D01*
X31666Y-48110D01*
X31666Y-47802D01*
X31623Y-47588D01*
X31502Y-47406D01*
X31320Y-47285D01*
X31106Y-47242D01*
X30891Y-47285D01*
X30710Y-47406D01*
X30606Y-47562D01*
X30502Y-47406D01*
X30320Y-47285D01*
X30106Y-47242D01*
X29891Y-47285D01*
X29710Y-47406D01*
X29606Y-47562D01*
X29502Y-47406D01*
X29320Y-47285D01*
X29106Y-47242D01*
X28891Y-47285D01*
X28710Y-47406D01*
X28606Y-47562D01*
X28502Y-47406D01*
X28320Y-47285D01*
X28106Y-47242D01*
X27891Y-47285D01*
X27710Y-47406D01*
X27606Y-47562D01*
X27502Y-47406D01*
X27320Y-47285D01*
X27106Y-47242D01*
X26891Y-47285D01*
X26710Y-47406D01*
X26606Y-47562D01*
X26502Y-47406D01*
X26320Y-47285D01*
X26106Y-47242D01*
X25891Y-47285D01*
X25710Y-47406D01*
X25606Y-47562D01*
X25502Y-47406D01*
X25320Y-47285D01*
X25106Y-47242D01*
X24891Y-47285D01*
X24710Y-47406D01*
X24606Y-47562D01*
X24502Y-47406D01*
X24320Y-47285D01*
X24106Y-47242D01*
X23891Y-47285D01*
X23710Y-47406D01*
X23606Y-47562D01*
X23502Y-47406D01*
X23320Y-47285D01*
X23106Y-47242D01*
X22891Y-47285D01*
X22710Y-47406D01*
X22606Y-47562D01*
X22502Y-47406D01*
X22320Y-47285D01*
X22106Y-47242D01*
X21891Y-47285D01*
X21710Y-47406D01*
X21606Y-47562D01*
X21502Y-47406D01*
X21320Y-47285D01*
X21106Y-47242D01*
X20891Y-47285D01*
X20710Y-47406D01*
X20606Y-47562D01*
X20502Y-47406D01*
X20320Y-47285D01*
X20106Y-47242D01*
X19891Y-47285D01*
X19710Y-47406D01*
X19606Y-47562D01*
X19502Y-47406D01*
X19320Y-47285D01*
X19106Y-47242D01*
X18891Y-47285D01*
X18710Y-47406D01*
X18666Y-47472D01*
X18666Y-47457D01*
X18628Y-47365D01*
X18558Y-47294D01*
X18466Y-47256D01*
X18366Y-47256D01*
X17746Y-47256D01*
X17654Y-47294D01*
X17584Y-47364D01*
X17546Y-47456D01*
X17546Y-47556D01*
X17546Y-48456D01*
X17584Y-48548D01*
X17654Y-48618D01*
X17720Y-48646D01*
X17310Y-48646D01*
X17121Y-48457D01*
X17121Y-47172D01*
X17802Y-46491D01*
X23464Y-46491D01*
X25000Y-46491D01*
X27662Y-46491D01*
X27711Y-46541D01*
X27867Y-46606D01*
X28036Y-46606D01*
X28193Y-46541D01*
X28312Y-46422D01*
X28377Y-46266D01*
X28377Y-46096D01*
X28313Y-45940D01*
X28193Y-45821D01*
X28037Y-45756D01*
X27868Y-45756D01*
X27782Y-45791D01*
X25000Y-45791D01*
X23464Y-45791D01*
X17657Y-45791D01*
X17523Y-45818D01*
X17409Y-45894D01*
X16629Y-46674D01*
X16629Y-44436D01*
X17489Y-43576D01*
X17466Y-43631D01*
X17466Y-43887D01*
X17564Y-44123D01*
X17745Y-44305D01*
X17817Y-44335D01*
X17710Y-44406D01*
X17588Y-44588D01*
X17546Y-44802D01*
X17546Y-45110D01*
X17588Y-45324D01*
X17710Y-45506D01*
X17891Y-45627D01*
X18106Y-45670D01*
X18320Y-45627D01*
X18502Y-45506D01*
X18606Y-45350D01*
X18710Y-45506D01*
X18891Y-45627D01*
X19106Y-45670D01*
X19320Y-45627D01*
X19502Y-45506D01*
X19606Y-45350D01*
X19710Y-45506D01*
X19891Y-45627D01*
X20106Y-45670D01*
X20320Y-45627D01*
X20502Y-45506D01*
X20606Y-45350D01*
X20710Y-45506D01*
X20891Y-45627D01*
X21106Y-45670D01*
X21320Y-45627D01*
X21502Y-45506D01*
X21606Y-45350D01*
X21710Y-45506D01*
X21891Y-45627D01*
X22106Y-45670D01*
X22320Y-45627D01*
X22502Y-45506D01*
X22606Y-45350D01*
X22710Y-45506D01*
X22891Y-45627D01*
X23106Y-45670D01*
X23320Y-45627D01*
X23502Y-45506D01*
X23606Y-45350D01*
X23710Y-45506D01*
X23891Y-45627D01*
X24106Y-45670D01*
X24320Y-45627D01*
X24502Y-45506D01*
X24606Y-45350D01*
X24710Y-45506D01*
X24891Y-45627D01*
X25106Y-45670D01*
X25320Y-45627D01*
X25502Y-45506D01*
X25606Y-45350D01*
X25710Y-45506D01*
X25891Y-45627D01*
X26106Y-45670D01*
X26320Y-45627D01*
X26502Y-45506D01*
X26606Y-45350D01*
X26710Y-45506D01*
X26891Y-45627D01*
X27106Y-45670D01*
X27320Y-45627D01*
X27502Y-45506D01*
X27606Y-45350D01*
X27710Y-45506D01*
X27891Y-45627D01*
X28106Y-45670D01*
X28320Y-45627D01*
X28502Y-45506D01*
X28606Y-45350D01*
X28710Y-45506D01*
X28891Y-45627D01*
X29106Y-45670D01*
X29122Y-45667D01*
X29122Y-45773D01*
X29186Y-45929D01*
X29306Y-46049D01*
X29462Y-46113D01*
X29631Y-46114D01*
X29787Y-46049D01*
X29798Y-46038D01*
X31771Y-46038D01*
X31905Y-46012D01*
X31905Y-46012D01*
X32019Y-45936D01*
X32176Y-45778D01*
X32252Y-45665D01*
X32279Y-45531D01*
X32279Y-45527D01*
X32325Y-45574D01*
X32379Y-45596D01*
X32255Y-45720D01*
X32163Y-45942D01*
X32163Y-46182D01*
X32255Y-46404D01*
X32413Y-46563D01*
X32255Y-46720D01*
X32163Y-46942D01*
X32163Y-47182D01*
X32255Y-47404D01*
X32424Y-47575D01*
X32646Y-47667D01*
X32887Y-47667D01*
X33109Y-47575D01*
X33267Y-47417D01*
X33424Y-47575D01*
X33646Y-47667D01*
X33887Y-47667D01*
X34109Y-47575D01*
X34157Y-47527D01*
X34157Y-47532D01*
X34157Y-47532D01*
G37*
G54D32*
X34157Y-47532D02*
X33949Y-47740D01*
X33287Y-47740D01*
X33153Y-47767D01*
X33039Y-47843D01*
X32764Y-48118D01*
X32688Y-48232D01*
X32661Y-48366D01*
X32661Y-48596D01*
X32544Y-48478D01*
X32388Y-48413D01*
X32242Y-48413D01*
X32224Y-48409D01*
X31566Y-48409D01*
X31623Y-48324D01*
X31666Y-48110D01*
X31666Y-47802D01*
X31623Y-47588D01*
X31502Y-47406D01*
X31320Y-47285D01*
X31106Y-47242D01*
X30891Y-47285D01*
X30710Y-47406D01*
X30606Y-47562D01*
X30502Y-47406D01*
X30320Y-47285D01*
X30106Y-47242D01*
X29891Y-47285D01*
X29710Y-47406D01*
X29606Y-47562D01*
X29502Y-47406D01*
X29320Y-47285D01*
X29106Y-47242D01*
X28891Y-47285D01*
X28710Y-47406D01*
X28606Y-47562D01*
X28502Y-47406D01*
X28320Y-47285D01*
X28106Y-47242D01*
X27891Y-47285D01*
X27710Y-47406D01*
X27606Y-47562D01*
X27502Y-47406D01*
X27320Y-47285D01*
X27106Y-47242D01*
X26891Y-47285D01*
X26710Y-47406D01*
X26606Y-47562D01*
X26502Y-47406D01*
X26320Y-47285D01*
X26106Y-47242D01*
X25891Y-47285D01*
X25710Y-47406D01*
X25606Y-47562D01*
X25502Y-47406D01*
X25320Y-47285D01*
X25106Y-47242D01*
X24891Y-47285D01*
X24710Y-47406D01*
X24606Y-47562D01*
X24502Y-47406D01*
X24320Y-47285D01*
X24106Y-47242D01*
X23891Y-47285D01*
X23710Y-47406D01*
X23606Y-47562D01*
X23502Y-47406D01*
X23320Y-47285D01*
X23106Y-47242D01*
X22891Y-47285D01*
X22710Y-47406D01*
X22606Y-47562D01*
X22502Y-47406D01*
X22320Y-47285D01*
X22106Y-47242D01*
X21891Y-47285D01*
X21710Y-47406D01*
X21606Y-47562D01*
X21502Y-47406D01*
X21320Y-47285D01*
X21106Y-47242D01*
X20891Y-47285D01*
X20710Y-47406D01*
X20606Y-47562D01*
X20502Y-47406D01*
X20320Y-47285D01*
X20106Y-47242D01*
X19891Y-47285D01*
X19710Y-47406D01*
X19606Y-47562D01*
X19502Y-47406D01*
X19320Y-47285D01*
X19106Y-47242D01*
X18891Y-47285D01*
X18710Y-47406D01*
X18666Y-47472D01*
X18666Y-47457D01*
X18628Y-47365D01*
X18558Y-47294D01*
X18466Y-47256D01*
X18366Y-47256D01*
X17746Y-47256D01*
X17654Y-47294D01*
X17584Y-47364D01*
X17546Y-47456D01*
X17546Y-47556D01*
X17546Y-48456D01*
X17584Y-48548D01*
X17654Y-48618D01*
X17720Y-48646D01*
X17310Y-48646D01*
X17121Y-48457D01*
X17121Y-47172D01*
X17802Y-46491D01*
X23464Y-46491D01*
X25000Y-46491D01*
X27662Y-46491D01*
X27711Y-46541D01*
X27867Y-46606D01*
X28036Y-46606D01*
X28193Y-46541D01*
X28312Y-46422D01*
X28377Y-46266D01*
X28377Y-46096D01*
X28313Y-45940D01*
X28193Y-45821D01*
X28037Y-45756D01*
X27868Y-45756D01*
X27782Y-45791D01*
X25000Y-45791D01*
X23464Y-45791D01*
X17657Y-45791D01*
X17523Y-45818D01*
X17409Y-45894D01*
X16629Y-46674D01*
X16629Y-44436D01*
X17489Y-43576D01*
X17466Y-43631D01*
X17466Y-43887D01*
X17564Y-44123D01*
X17745Y-44305D01*
X17817Y-44335D01*
X17710Y-44406D01*
X17588Y-44588D01*
X17546Y-44802D01*
X17546Y-45110D01*
X17588Y-45324D01*
X17710Y-45506D01*
X17891Y-45627D01*
X18106Y-45670D01*
X18320Y-45627D01*
X18502Y-45506D01*
X18606Y-45350D01*
X18710Y-45506D01*
X18891Y-45627D01*
X19106Y-45670D01*
X19320Y-45627D01*
X19502Y-45506D01*
X19606Y-45350D01*
X19710Y-45506D01*
X19891Y-45627D01*
X20106Y-45670D01*
X20320Y-45627D01*
X20502Y-45506D01*
X20606Y-45350D01*
X20710Y-45506D01*
X20891Y-45627D01*
X21106Y-45670D01*
X21320Y-45627D01*
X21502Y-45506D01*
X21606Y-45350D01*
X21710Y-45506D01*
X21891Y-45627D01*
X22106Y-45670D01*
X22320Y-45627D01*
X22502Y-45506D01*
X22606Y-45350D01*
X22710Y-45506D01*
X22891Y-45627D01*
X23106Y-45670D01*
X23320Y-45627D01*
X23502Y-45506D01*
X23606Y-45350D01*
X23710Y-45506D01*
X23891Y-45627D01*
X24106Y-45670D01*
X24320Y-45627D01*
X24502Y-45506D01*
X24606Y-45350D01*
X24710Y-45506D01*
X24891Y-45627D01*
X25106Y-45670D01*
X25320Y-45627D01*
X25502Y-45506D01*
X25606Y-45350D01*
X25710Y-45506D01*
X25891Y-45627D01*
X26106Y-45670D01*
X26320Y-45627D01*
X26502Y-45506D01*
X26606Y-45350D01*
X26710Y-45506D01*
X26891Y-45627D01*
X27106Y-45670D01*
X27320Y-45627D01*
X27502Y-45506D01*
X27606Y-45350D01*
X27710Y-45506D01*
X27891Y-45627D01*
X28106Y-45670D01*
X28320Y-45627D01*
X28502Y-45506D01*
X28606Y-45350D01*
X28710Y-45506D01*
X28891Y-45627D01*
X29106Y-45670D01*
X29122Y-45667D01*
X29122Y-45773D01*
X29186Y-45929D01*
X29306Y-46049D01*
X29462Y-46113D01*
X29631Y-46114D01*
X29787Y-46049D01*
X29798Y-46038D01*
X31771Y-46038D01*
X31905Y-46012D01*
X31905Y-46012D01*
X32019Y-45936D01*
X32176Y-45778D01*
X32252Y-45665D01*
X32279Y-45531D01*
X32279Y-45527D01*
X32325Y-45574D01*
X32379Y-45596D01*
X32255Y-45720D01*
X32163Y-45942D01*
X32163Y-46182D01*
X32255Y-46404D01*
X32413Y-46563D01*
X32255Y-46720D01*
X32163Y-46942D01*
X32163Y-47182D01*
X32255Y-47404D01*
X32424Y-47575D01*
X32646Y-47667D01*
X32887Y-47667D01*
X33109Y-47575D01*
X33267Y-47417D01*
X33424Y-47575D01*
X33646Y-47667D01*
X33887Y-47667D01*
X34109Y-47575D01*
X34157Y-47527D01*
X34157Y-47532D01*
G54D10*
G36*
X34335Y-30610D02*
X34258Y-30579D01*
X34089Y-30578D01*
X33932Y-30643D01*
X33898Y-30677D01*
X33463Y-30677D01*
X33420Y-30635D01*
X33420Y-29035D01*
X33394Y-28901D01*
X33318Y-28787D01*
X33082Y-28552D01*
X33174Y-28552D01*
X33367Y-28472D01*
X33515Y-28325D01*
X33595Y-28132D01*
X33595Y-27923D01*
X33516Y-27730D01*
X33368Y-27582D01*
X33257Y-27536D01*
X33450Y-27536D01*
X33643Y-27457D01*
X33791Y-27309D01*
X33871Y-27116D01*
X33871Y-26907D01*
X33871Y-23907D01*
X33791Y-23714D01*
X33644Y-23566D01*
X33451Y-23486D01*
X33242Y-23486D01*
X33049Y-23566D01*
X32901Y-23714D01*
X32821Y-23906D01*
X32821Y-24115D01*
X32901Y-24308D01*
X33048Y-24456D01*
X33241Y-24536D01*
X33450Y-24536D01*
X33643Y-24457D01*
X33791Y-24309D01*
X33871Y-24116D01*
X33871Y-23907D01*
X33871Y-26907D01*
X33791Y-26714D01*
X33644Y-26566D01*
X33451Y-26486D01*
X33242Y-26486D01*
X33049Y-26566D01*
X32901Y-26714D01*
X32821Y-26906D01*
X32821Y-27115D01*
X32901Y-27308D01*
X33048Y-27456D01*
X33159Y-27502D01*
X32966Y-27502D01*
X32773Y-27582D01*
X32626Y-27729D01*
X32545Y-27922D01*
X32545Y-28107D01*
X32480Y-28094D01*
X32297Y-28094D01*
X32297Y-26510D01*
X32205Y-26288D01*
X32047Y-26129D01*
X32204Y-25972D01*
X32297Y-25750D01*
X32297Y-25510D01*
X32205Y-25288D01*
X32135Y-25218D01*
X32188Y-25196D01*
X32259Y-25126D01*
X32297Y-25034D01*
X32297Y-24934D01*
X32297Y-24226D01*
X32259Y-24134D01*
X32189Y-24063D01*
X32097Y-24025D01*
X31997Y-24025D01*
X31289Y-24025D01*
X31197Y-24063D01*
X31126Y-24133D01*
X31088Y-24225D01*
X31088Y-24325D01*
X31088Y-25033D01*
X31126Y-25125D01*
X31196Y-25196D01*
X31249Y-25218D01*
X31180Y-25287D01*
X31088Y-25509D01*
X31088Y-25749D01*
X31180Y-25971D01*
X31338Y-26130D01*
X31180Y-26287D01*
X31088Y-26509D01*
X31088Y-26749D01*
X31180Y-26971D01*
X31350Y-27141D01*
X31572Y-27234D01*
X31812Y-27234D01*
X32034Y-27142D01*
X32204Y-26972D01*
X32297Y-26750D01*
X32297Y-26510D01*
X32297Y-28094D01*
X32290Y-28094D01*
X31036Y-26841D01*
X31036Y-23947D01*
X30957Y-23754D01*
X30809Y-23606D01*
X30616Y-23526D01*
X30407Y-23526D01*
X30214Y-23605D01*
X30066Y-23753D01*
X29986Y-23946D01*
X29986Y-24155D01*
X30066Y-24348D01*
X30214Y-24495D01*
X30406Y-24576D01*
X30615Y-24576D01*
X30808Y-24496D01*
X30956Y-24348D01*
X31036Y-24156D01*
X31036Y-23947D01*
X31036Y-26841D01*
X30999Y-26803D01*
X30969Y-26783D01*
X30957Y-26754D01*
X30809Y-26606D01*
X30616Y-26526D01*
X30543Y-26526D01*
X30581Y-26488D01*
X30595Y-26488D01*
X30752Y-26423D01*
X30871Y-26304D01*
X30936Y-26147D01*
X30936Y-25978D01*
X30872Y-25822D01*
X30752Y-25702D01*
X30596Y-25638D01*
X30427Y-25637D01*
X30271Y-25702D01*
X30151Y-25821D01*
X30086Y-25978D01*
X30086Y-25992D01*
X29655Y-26424D01*
X29655Y-23622D01*
X29630Y-23497D01*
X29560Y-23392D01*
X29485Y-23342D01*
X33477Y-23342D01*
X34197Y-24062D01*
X34197Y-27913D01*
X34223Y-28047D01*
X34299Y-28160D01*
X34335Y-28196D01*
X34335Y-28469D01*
X34324Y-28479D01*
X34260Y-28635D01*
X34259Y-28804D01*
X34324Y-28960D01*
X34335Y-28971D01*
X34335Y-30610D01*
X34335Y-30610D01*
G37*
G54D32*
X34335Y-30610D02*
X34258Y-30579D01*
X34089Y-30578D01*
X33932Y-30643D01*
X33898Y-30677D01*
X33463Y-30677D01*
X33420Y-30635D01*
X33420Y-29035D01*
X33394Y-28901D01*
X33318Y-28787D01*
X33082Y-28552D01*
X33174Y-28552D01*
X33367Y-28472D01*
X33515Y-28325D01*
X33595Y-28132D01*
X33595Y-27923D01*
X33516Y-27730D01*
X33368Y-27582D01*
X33257Y-27536D01*
X33450Y-27536D01*
X33643Y-27457D01*
X33791Y-27309D01*
X33871Y-27116D01*
X33871Y-26907D01*
X33871Y-23907D01*
X33791Y-23714D01*
X33644Y-23566D01*
X33451Y-23486D01*
X33242Y-23486D01*
X33049Y-23566D01*
X32901Y-23714D01*
X32821Y-23906D01*
X32821Y-24115D01*
X32901Y-24308D01*
X33048Y-24456D01*
X33241Y-24536D01*
X33450Y-24536D01*
X33643Y-24457D01*
X33791Y-24309D01*
X33871Y-24116D01*
X33871Y-23907D01*
X33871Y-26907D01*
X33791Y-26714D01*
X33644Y-26566D01*
X33451Y-26486D01*
X33242Y-26486D01*
X33049Y-26566D01*
X32901Y-26714D01*
X32821Y-26906D01*
X32821Y-27115D01*
X32901Y-27308D01*
X33048Y-27456D01*
X33159Y-27502D01*
X32966Y-27502D01*
X32773Y-27582D01*
X32626Y-27729D01*
X32545Y-27922D01*
X32545Y-28107D01*
X32480Y-28094D01*
X32297Y-28094D01*
X32297Y-26510D01*
X32205Y-26288D01*
X32047Y-26129D01*
X32204Y-25972D01*
X32297Y-25750D01*
X32297Y-25510D01*
X32205Y-25288D01*
X32135Y-25218D01*
X32188Y-25196D01*
X32259Y-25126D01*
X32297Y-25034D01*
X32297Y-24934D01*
X32297Y-24226D01*
X32259Y-24134D01*
X32189Y-24063D01*
X32097Y-24025D01*
X31997Y-24025D01*
X31289Y-24025D01*
X31197Y-24063D01*
X31126Y-24133D01*
X31088Y-24225D01*
X31088Y-24325D01*
X31088Y-25033D01*
X31126Y-25125D01*
X31196Y-25196D01*
X31249Y-25218D01*
X31180Y-25287D01*
X31088Y-25509D01*
X31088Y-25749D01*
X31180Y-25971D01*
X31338Y-26130D01*
X31180Y-26287D01*
X31088Y-26509D01*
X31088Y-26749D01*
X31180Y-26971D01*
X31350Y-27141D01*
X31572Y-27234D01*
X31812Y-27234D01*
X32034Y-27142D01*
X32204Y-26972D01*
X32297Y-26750D01*
X32297Y-26510D01*
X32297Y-28094D01*
X32290Y-28094D01*
X31036Y-26841D01*
X31036Y-23947D01*
X30957Y-23754D01*
X30809Y-23606D01*
X30616Y-23526D01*
X30407Y-23526D01*
X30214Y-23605D01*
X30066Y-23753D01*
X29986Y-23946D01*
X29986Y-24155D01*
X30066Y-24348D01*
X30214Y-24495D01*
X30406Y-24576D01*
X30615Y-24576D01*
X30808Y-24496D01*
X30956Y-24348D01*
X31036Y-24156D01*
X31036Y-23947D01*
X31036Y-26841D01*
X30999Y-26803D01*
X30969Y-26783D01*
X30957Y-26754D01*
X30809Y-26606D01*
X30616Y-26526D01*
X30543Y-26526D01*
X30581Y-26488D01*
X30595Y-26488D01*
X30752Y-26423D01*
X30871Y-26304D01*
X30936Y-26147D01*
X30936Y-25978D01*
X30872Y-25822D01*
X30752Y-25702D01*
X30596Y-25638D01*
X30427Y-25637D01*
X30271Y-25702D01*
X30151Y-25821D01*
X30086Y-25978D01*
X30086Y-25992D01*
X29655Y-26424D01*
X29655Y-23622D01*
X29630Y-23497D01*
X29560Y-23392D01*
X29485Y-23342D01*
X33477Y-23342D01*
X34197Y-24062D01*
X34197Y-27913D01*
X34223Y-28047D01*
X34299Y-28160D01*
X34335Y-28196D01*
X34335Y-28469D01*
X34324Y-28479D01*
X34260Y-28635D01*
X34259Y-28804D01*
X34324Y-28960D01*
X34335Y-28971D01*
X34335Y-30610D01*
G54D10*
G36*
X34624Y-23499D02*
X33890Y-22765D01*
X34624Y-22765D01*
X34624Y-23499D01*
X34624Y-23499D01*
G37*
G54D32*
X34624Y-23499D02*
X33890Y-22765D01*
X34624Y-22765D01*
X34624Y-23499D01*
G54D10*
G36*
X34692Y-31539D02*
X33543Y-31539D01*
X33409Y-31566D01*
X33295Y-31642D01*
X33295Y-31642D01*
X33295Y-31642D01*
X32427Y-32510D01*
X32373Y-32429D01*
X32373Y-32429D01*
X31863Y-31919D01*
X32009Y-31919D01*
X32231Y-31827D01*
X32401Y-31657D01*
X32493Y-31435D01*
X32494Y-31195D01*
X32402Y-30973D01*
X32244Y-30814D01*
X32401Y-30657D01*
X32493Y-30435D01*
X32494Y-30195D01*
X32402Y-29973D01*
X32332Y-29903D01*
X32385Y-29881D01*
X32455Y-29811D01*
X32494Y-29719D01*
X32494Y-29619D01*
X32494Y-28953D01*
X32720Y-29180D01*
X32720Y-30635D01*
X32626Y-30729D01*
X32545Y-30922D01*
X32545Y-31131D01*
X32625Y-31324D01*
X32773Y-31472D01*
X32965Y-31552D01*
X33174Y-31552D01*
X33367Y-31472D01*
X33463Y-31377D01*
X33964Y-31377D01*
X34088Y-31428D01*
X34257Y-31429D01*
X34413Y-31364D01*
X34462Y-31315D01*
X34673Y-31527D01*
X34692Y-31539D01*
X34692Y-31539D01*
G37*
G54D32*
X34692Y-31539D02*
X33543Y-31539D01*
X33409Y-31566D01*
X33295Y-31642D01*
X33295Y-31642D01*
X33295Y-31642D01*
X32427Y-32510D01*
X32373Y-32429D01*
X32373Y-32429D01*
X31863Y-31919D01*
X32009Y-31919D01*
X32231Y-31827D01*
X32401Y-31657D01*
X32493Y-31435D01*
X32494Y-31195D01*
X32402Y-30973D01*
X32244Y-30814D01*
X32401Y-30657D01*
X32493Y-30435D01*
X32494Y-30195D01*
X32402Y-29973D01*
X32332Y-29903D01*
X32385Y-29881D01*
X32455Y-29811D01*
X32494Y-29719D01*
X32494Y-29619D01*
X32494Y-28953D01*
X32720Y-29180D01*
X32720Y-30635D01*
X32626Y-30729D01*
X32545Y-30922D01*
X32545Y-31131D01*
X32625Y-31324D01*
X32773Y-31472D01*
X32965Y-31552D01*
X33174Y-31552D01*
X33367Y-31472D01*
X33463Y-31377D01*
X33964Y-31377D01*
X34088Y-31428D01*
X34257Y-31429D01*
X34413Y-31364D01*
X34462Y-31315D01*
X34673Y-31527D01*
X34692Y-31539D01*
G54D10*
G36*
X34779Y-48227D02*
X34616Y-48159D01*
X34520Y-48159D01*
X34649Y-48030D01*
X34656Y-48067D01*
X34732Y-48180D01*
X34779Y-48227D01*
X34779Y-48227D01*
G37*
G54D32*
X34779Y-48227D02*
X34616Y-48159D01*
X34520Y-48159D01*
X34649Y-48030D01*
X34656Y-48067D01*
X34732Y-48180D01*
X34779Y-48227D01*
G54D10*
G36*
X34945Y-25453D02*
X34897Y-25501D01*
X34897Y-25453D01*
X34945Y-25453D01*
X34945Y-25453D01*
G37*
G54D32*
X34945Y-25453D02*
X34897Y-25501D01*
X34897Y-25453D01*
X34945Y-25453D01*
G54D10*
G36*
X35009Y-26596D02*
X34940Y-26665D01*
X34897Y-26769D01*
X34897Y-26514D01*
X34956Y-26574D01*
X35009Y-26596D01*
X35009Y-26596D01*
G37*
G54D32*
X35009Y-26596D02*
X34940Y-26665D01*
X34897Y-26769D01*
X34897Y-26514D01*
X34956Y-26574D01*
X35009Y-26596D01*
G54D10*
G36*
X35098Y-27508D02*
X34940Y-27665D01*
X34897Y-27768D01*
X34897Y-27768D01*
X34897Y-27245D01*
X34940Y-27349D01*
X35098Y-27508D01*
X35098Y-27508D01*
G37*
G54D32*
X35098Y-27508D02*
X34940Y-27665D01*
X34897Y-27768D01*
X34897Y-27768D01*
X34897Y-27245D01*
X34940Y-27349D01*
X35098Y-27508D01*
G54D10*
G36*
X35496Y-44909D02*
X35458Y-44818D01*
X35339Y-44698D01*
X35183Y-44634D01*
X35014Y-44633D01*
X34857Y-44698D01*
X34857Y-44698D01*
X34857Y-44033D01*
X34890Y-44066D01*
X34890Y-44066D01*
X35003Y-44142D01*
X35137Y-44168D01*
X35137Y-44168D01*
X35137Y-44168D01*
X35347Y-44168D01*
X35496Y-44318D01*
X35496Y-44909D01*
X35496Y-44909D01*
G37*
G54D32*
X35496Y-44909D02*
X35458Y-44818D01*
X35339Y-44698D01*
X35183Y-44634D01*
X35014Y-44633D01*
X34857Y-44698D01*
X34857Y-44698D01*
X34857Y-44033D01*
X34890Y-44066D01*
X34890Y-44066D01*
X35003Y-44142D01*
X35137Y-44168D01*
X35137Y-44168D01*
X35137Y-44168D01*
X35347Y-44168D01*
X35496Y-44318D01*
X35496Y-44909D01*
G54D10*
G36*
X35496Y-46882D02*
X35468Y-46910D01*
X35468Y-45276D01*
X35496Y-45208D01*
X35496Y-46882D01*
X35496Y-46882D01*
G37*
G54D32*
X35496Y-46882D02*
X35468Y-46910D01*
X35468Y-45276D01*
X35496Y-45208D01*
X35496Y-46882D01*
G54D10*
G36*
X35516Y-33326D02*
X35365Y-33175D01*
X35128Y-33076D01*
X34872Y-33076D01*
X34635Y-33174D01*
X34585Y-33224D01*
X34567Y-33224D01*
X34659Y-33002D01*
X34659Y-32746D01*
X34561Y-32509D01*
X34380Y-32328D01*
X34166Y-32239D01*
X35181Y-32239D01*
X35192Y-32249D01*
X35348Y-32314D01*
X35516Y-32314D01*
X35516Y-33326D01*
X35516Y-33326D01*
G37*
G54D32*
X35516Y-33326D02*
X35365Y-33175D01*
X35128Y-33076D01*
X34872Y-33076D01*
X34635Y-33174D01*
X34585Y-33224D01*
X34567Y-33224D01*
X34659Y-33002D01*
X34659Y-32746D01*
X34561Y-32509D01*
X34380Y-32328D01*
X34166Y-32239D01*
X35181Y-32239D01*
X35192Y-32249D01*
X35348Y-32314D01*
X35516Y-32314D01*
X35516Y-33326D01*
G54D10*
G36*
X35516Y-39697D02*
X35465Y-39748D01*
X35236Y-39748D01*
X35102Y-39775D01*
X35092Y-39781D01*
X35092Y-36825D01*
X34964Y-36516D01*
X34728Y-36279D01*
X34419Y-36151D01*
X34085Y-36151D01*
X33776Y-36279D01*
X33539Y-36515D01*
X33411Y-36824D01*
X33411Y-37158D01*
X33538Y-37467D01*
X33775Y-37704D01*
X34084Y-37832D01*
X34418Y-37832D01*
X34727Y-37705D01*
X34964Y-37468D01*
X35092Y-37160D01*
X35092Y-36825D01*
X35092Y-39781D01*
X35092Y-39781D01*
X35092Y-39533D01*
X35092Y-38352D01*
X35054Y-38260D01*
X34984Y-38189D01*
X34892Y-38151D01*
X34793Y-38151D01*
X33611Y-38151D01*
X33519Y-38189D01*
X33449Y-38259D01*
X33411Y-38351D01*
X33411Y-38451D01*
X33411Y-39632D01*
X33449Y-39724D01*
X33519Y-39794D01*
X33611Y-39832D01*
X33710Y-39832D01*
X34892Y-39832D01*
X34983Y-39794D01*
X35054Y-39724D01*
X35092Y-39632D01*
X35092Y-39533D01*
X35092Y-39781D01*
X34988Y-39850D01*
X34693Y-40146D01*
X34646Y-40216D01*
X34612Y-40133D01*
X34493Y-40013D01*
X34336Y-39949D01*
X34167Y-39948D01*
X34011Y-40013D01*
X33891Y-40132D01*
X33827Y-40289D01*
X33826Y-40458D01*
X33891Y-40614D01*
X34010Y-40734D01*
X34157Y-40795D01*
X34157Y-43442D01*
X34041Y-43393D01*
X33931Y-43393D01*
X33952Y-43287D01*
X33952Y-43287D01*
X33952Y-40964D01*
X33952Y-40964D01*
X33925Y-40830D01*
X33849Y-40717D01*
X33849Y-40717D01*
X32909Y-39776D01*
X32909Y-33018D01*
X33688Y-32239D01*
X33865Y-32239D01*
X33651Y-32327D01*
X33470Y-32508D01*
X33372Y-32745D01*
X33371Y-33001D01*
X33464Y-33224D01*
X32927Y-33224D01*
X32927Y-35673D01*
X34787Y-35673D01*
X34787Y-34329D01*
X34871Y-34364D01*
X35127Y-34364D01*
X35364Y-34266D01*
X35516Y-34114D01*
X35516Y-39697D01*
X35516Y-39697D01*
G37*
G54D32*
X35516Y-39697D02*
X35465Y-39748D01*
X35236Y-39748D01*
X35102Y-39775D01*
X35092Y-39781D01*
X35092Y-36825D01*
X34964Y-36516D01*
X34728Y-36279D01*
X34419Y-36151D01*
X34085Y-36151D01*
X33776Y-36279D01*
X33539Y-36515D01*
X33411Y-36824D01*
X33411Y-37158D01*
X33538Y-37467D01*
X33775Y-37704D01*
X34084Y-37832D01*
X34418Y-37832D01*
X34727Y-37705D01*
X34964Y-37468D01*
X35092Y-37160D01*
X35092Y-36825D01*
X35092Y-39781D01*
X35092Y-39781D01*
X35092Y-39533D01*
X35092Y-38352D01*
X35054Y-38260D01*
X34984Y-38189D01*
X34892Y-38151D01*
X34793Y-38151D01*
X33611Y-38151D01*
X33519Y-38189D01*
X33449Y-38259D01*
X33411Y-38351D01*
X33411Y-38451D01*
X33411Y-39632D01*
X33449Y-39724D01*
X33519Y-39794D01*
X33611Y-39832D01*
X33710Y-39832D01*
X34892Y-39832D01*
X34983Y-39794D01*
X35054Y-39724D01*
X35092Y-39632D01*
X35092Y-39533D01*
X35092Y-39781D01*
X34988Y-39850D01*
X34693Y-40146D01*
X34646Y-40216D01*
X34612Y-40133D01*
X34493Y-40013D01*
X34336Y-39949D01*
X34167Y-39948D01*
X34011Y-40013D01*
X33891Y-40132D01*
X33827Y-40289D01*
X33826Y-40458D01*
X33891Y-40614D01*
X34010Y-40734D01*
X34157Y-40795D01*
X34157Y-43442D01*
X34041Y-43393D01*
X33931Y-43393D01*
X33952Y-43287D01*
X33952Y-43287D01*
X33952Y-40964D01*
X33952Y-40964D01*
X33925Y-40830D01*
X33849Y-40717D01*
X33849Y-40717D01*
X32909Y-39776D01*
X32909Y-33018D01*
X33688Y-32239D01*
X33865Y-32239D01*
X33651Y-32327D01*
X33470Y-32508D01*
X33372Y-32745D01*
X33371Y-33001D01*
X33464Y-33224D01*
X32927Y-33224D01*
X32927Y-35673D01*
X34787Y-35673D01*
X34787Y-34329D01*
X34871Y-34364D01*
X35127Y-34364D01*
X35364Y-34266D01*
X35516Y-34114D01*
X35516Y-39697D01*
G54D10*
G36*
X35895Y-27595D02*
X35807Y-27507D01*
X35895Y-27419D01*
X35895Y-27595D01*
X35895Y-27595D01*
G37*
G54D32*
X35895Y-27595D02*
X35807Y-27507D01*
X35895Y-27419D01*
X35895Y-27595D01*
G54D10*
G36*
X35895Y-29029D02*
X35775Y-28909D01*
X35553Y-28817D01*
X35313Y-28816D01*
X35091Y-28908D01*
X35050Y-28949D01*
X35109Y-28805D01*
X35110Y-28636D01*
X35045Y-28480D01*
X35035Y-28469D01*
X35035Y-28444D01*
X35109Y-28519D01*
X35332Y-28612D01*
X35572Y-28612D01*
X35794Y-28520D01*
X35895Y-28419D01*
X35895Y-29029D01*
X35895Y-29029D01*
G37*
G54D32*
X35895Y-29029D02*
X35775Y-28909D01*
X35553Y-28817D01*
X35313Y-28816D01*
X35091Y-28908D01*
X35050Y-28949D01*
X35109Y-28805D01*
X35110Y-28636D01*
X35045Y-28480D01*
X35035Y-28469D01*
X35035Y-28444D01*
X35109Y-28519D01*
X35332Y-28612D01*
X35572Y-28612D01*
X35794Y-28520D01*
X35895Y-28419D01*
X35895Y-29029D01*
G54D10*
G36*
X35895Y-29841D02*
X35875Y-29833D01*
X35895Y-29813D01*
X35895Y-29841D01*
X35895Y-29841D01*
G37*
G54D32*
X35895Y-29841D02*
X35875Y-29833D01*
X35895Y-29813D01*
X35895Y-29841D01*
G54D10*
G36*
X35895Y-40639D02*
X35886Y-40630D01*
X35671Y-40541D01*
X35439Y-40541D01*
X35290Y-40602D01*
X35290Y-40538D01*
X35381Y-40448D01*
X35610Y-40448D01*
X35744Y-40421D01*
X35744Y-40421D01*
X35857Y-40345D01*
X35895Y-40308D01*
X35895Y-40639D01*
X35895Y-40639D01*
G37*
G54D32*
X35895Y-40639D02*
X35886Y-40630D01*
X35671Y-40541D01*
X35439Y-40541D01*
X35290Y-40602D01*
X35290Y-40538D01*
X35381Y-40448D01*
X35610Y-40448D01*
X35744Y-40421D01*
X35744Y-40421D01*
X35857Y-40345D01*
X35895Y-40308D01*
X35895Y-40639D01*
G54D10*
G36*
X35895Y-42639D02*
X35886Y-42630D01*
X35671Y-42541D01*
X35439Y-42541D01*
X35290Y-42602D01*
X35290Y-41649D01*
X35438Y-41710D01*
X35670Y-41710D01*
X35885Y-41621D01*
X35895Y-41612D01*
X35895Y-42639D01*
X35895Y-42639D01*
G37*
G54D32*
X35895Y-42639D02*
X35886Y-42630D01*
X35671Y-42541D01*
X35439Y-42541D01*
X35290Y-42602D01*
X35290Y-41649D01*
X35438Y-41710D01*
X35670Y-41710D01*
X35885Y-41621D01*
X35895Y-41612D01*
X35895Y-42639D01*
G54D10*
G36*
X35895Y-43727D02*
X35818Y-43649D01*
X35885Y-43621D01*
X35895Y-43612D01*
X35895Y-43727D01*
X35895Y-43727D01*
G37*
G54D32*
X35895Y-43727D02*
X35818Y-43649D01*
X35885Y-43621D01*
X35895Y-43612D01*
X35895Y-43727D01*
G54D10*
G36*
X35895Y-61486D02*
X34899Y-61486D01*
X34899Y-59946D01*
X34895Y-59830D01*
X34895Y-59715D01*
X34890Y-59703D01*
X34890Y-59690D01*
X34810Y-59498D01*
X34805Y-59496D01*
X34797Y-59478D01*
X34617Y-59297D01*
X34598Y-59289D01*
X34596Y-59283D01*
X34487Y-59243D01*
X34380Y-59198D01*
X34367Y-59198D01*
X34356Y-59194D01*
X34240Y-59198D01*
X34124Y-59198D01*
X34112Y-59203D01*
X34100Y-59203D01*
X33907Y-59283D01*
X33905Y-59289D01*
X33887Y-59296D01*
X33706Y-59477D01*
X33698Y-59496D01*
X33693Y-59498D01*
X33652Y-59606D01*
X33608Y-59713D01*
X33608Y-59726D01*
X33603Y-59738D01*
X33608Y-59854D01*
X33608Y-59969D01*
X33612Y-59981D01*
X33613Y-59994D01*
X33693Y-60186D01*
X33698Y-60188D01*
X33705Y-60206D01*
X33886Y-60387D01*
X33905Y-60395D01*
X33907Y-60401D01*
X34016Y-60441D01*
X34123Y-60486D01*
X34135Y-60486D01*
X34147Y-60490D01*
X34263Y-60486D01*
X34379Y-60486D01*
X34391Y-60481D01*
X34403Y-60481D01*
X34596Y-60401D01*
X34598Y-60395D01*
X34616Y-60388D01*
X34797Y-60207D01*
X34805Y-60188D01*
X34810Y-60186D01*
X34851Y-60078D01*
X34895Y-59971D01*
X34895Y-59958D01*
X34899Y-59946D01*
X34899Y-61486D01*
X19909Y-61486D01*
X19909Y-58483D01*
X19909Y-55562D01*
X17868Y-55562D01*
X17868Y-51998D01*
X17779Y-51783D01*
X17615Y-51618D01*
X17604Y-51614D01*
X17614Y-51610D01*
X17778Y-51445D01*
X17868Y-51230D01*
X17868Y-50998D01*
X17779Y-50783D01*
X17615Y-50618D01*
X17400Y-50529D01*
X17167Y-50529D01*
X16952Y-50618D01*
X16788Y-50782D01*
X16698Y-50997D01*
X16698Y-51229D01*
X16787Y-51444D01*
X16951Y-51609D01*
X16962Y-51614D01*
X16952Y-51618D01*
X16788Y-51782D01*
X16698Y-51997D01*
X16698Y-52229D01*
X16787Y-52444D01*
X16951Y-52609D01*
X17166Y-52698D01*
X17399Y-52698D01*
X17614Y-52610D01*
X17778Y-52445D01*
X17868Y-52230D01*
X17868Y-51998D01*
X17868Y-55562D01*
X13246Y-55562D01*
X13246Y-53253D01*
X13242Y-53137D01*
X13242Y-53022D01*
X13237Y-53010D01*
X13236Y-52997D01*
X13157Y-52805D01*
X13151Y-52803D01*
X13144Y-52785D01*
X12963Y-52604D01*
X12944Y-52596D01*
X12942Y-52590D01*
X12834Y-52550D01*
X12727Y-52506D01*
X12714Y-52506D01*
X12702Y-52501D01*
X12586Y-52505D01*
X12470Y-52505D01*
X12459Y-52510D01*
X12446Y-52511D01*
X12254Y-52590D01*
X12252Y-52596D01*
X12234Y-52603D01*
X12053Y-52784D01*
X12045Y-52803D01*
X12039Y-52805D01*
X11999Y-52914D01*
X11954Y-53021D01*
X11954Y-53033D01*
X11950Y-53045D01*
X11954Y-53161D01*
X11954Y-53277D01*
X11959Y-53288D01*
X11959Y-53301D01*
X12039Y-53493D01*
X12044Y-53495D01*
X12052Y-53513D01*
X12233Y-53694D01*
X12252Y-53702D01*
X12254Y-53708D01*
X12362Y-53748D01*
X12469Y-53793D01*
X12482Y-53793D01*
X12494Y-53797D01*
X12610Y-53793D01*
X12725Y-53793D01*
X12737Y-53788D01*
X12750Y-53788D01*
X12942Y-53708D01*
X12944Y-53703D01*
X12962Y-53695D01*
X13143Y-53514D01*
X13151Y-53495D01*
X13157Y-53493D01*
X13197Y-53385D01*
X13242Y-53278D01*
X13242Y-53265D01*
X13246Y-53253D01*
X13246Y-55562D01*
X11626Y-55562D01*
X11626Y-58483D01*
X19909Y-58483D01*
X19909Y-61486D01*
X13246Y-61486D01*
X13246Y-59946D01*
X13242Y-59830D01*
X13242Y-59715D01*
X13237Y-59703D01*
X13236Y-59690D01*
X13157Y-59498D01*
X13151Y-59496D01*
X13144Y-59478D01*
X12963Y-59297D01*
X12944Y-59289D01*
X12942Y-59283D01*
X12834Y-59243D01*
X12727Y-59198D01*
X12714Y-59198D01*
X12702Y-59194D01*
X12586Y-59198D01*
X12470Y-59198D01*
X12459Y-59203D01*
X12446Y-59203D01*
X12254Y-59283D01*
X12252Y-59289D01*
X12234Y-59296D01*
X12053Y-59477D01*
X12045Y-59496D01*
X12039Y-59498D01*
X11999Y-59606D01*
X11954Y-59713D01*
X11954Y-59726D01*
X11950Y-59738D01*
X11954Y-59854D01*
X11954Y-59969D01*
X11959Y-59981D01*
X11959Y-59994D01*
X12039Y-60186D01*
X12044Y-60188D01*
X12052Y-60206D01*
X12233Y-60387D01*
X12252Y-60395D01*
X12254Y-60401D01*
X12362Y-60441D01*
X12469Y-60486D01*
X12482Y-60486D01*
X12494Y-60490D01*
X12610Y-60486D01*
X12725Y-60486D01*
X12737Y-60481D01*
X12750Y-60481D01*
X12942Y-60401D01*
X12944Y-60395D01*
X12962Y-60388D01*
X13143Y-60207D01*
X13151Y-60188D01*
X13157Y-60186D01*
X13197Y-60078D01*
X13242Y-59971D01*
X13242Y-59958D01*
X13246Y-59946D01*
X13246Y-61486D01*
X10954Y-61486D01*
X10954Y-41470D01*
X10992Y-41527D01*
X11701Y-42235D01*
X11814Y-42311D01*
X11948Y-42338D01*
X13899Y-42338D01*
X13689Y-42547D01*
X13613Y-42661D01*
X13587Y-42795D01*
X13587Y-48458D01*
X13561Y-48458D01*
X13561Y-47722D01*
X13561Y-44722D01*
X13472Y-44507D01*
X13307Y-44343D01*
X13278Y-44330D01*
X13307Y-44318D01*
X13471Y-44154D01*
X13560Y-43939D01*
X13561Y-43707D01*
X13472Y-43492D01*
X13307Y-43327D01*
X13093Y-43238D01*
X12860Y-43238D01*
X12645Y-43326D01*
X12481Y-43491D01*
X12391Y-43706D01*
X12391Y-43938D01*
X12480Y-44153D01*
X12644Y-44318D01*
X12674Y-44330D01*
X12645Y-44342D01*
X12481Y-44506D01*
X12391Y-44721D01*
X12391Y-44954D01*
X12480Y-45169D01*
X12644Y-45333D01*
X12859Y-45423D01*
X13092Y-45423D01*
X13307Y-45334D01*
X13471Y-45170D01*
X13560Y-44955D01*
X13561Y-44722D01*
X13561Y-47722D01*
X13472Y-47507D01*
X13307Y-47343D01*
X13093Y-47254D01*
X12860Y-47253D01*
X12645Y-47342D01*
X12481Y-47506D01*
X12391Y-47721D01*
X12391Y-47954D01*
X12480Y-48169D01*
X12644Y-48333D01*
X12859Y-48423D01*
X13092Y-48423D01*
X13307Y-48334D01*
X13471Y-48170D01*
X13560Y-47955D01*
X13561Y-47722D01*
X13561Y-48458D01*
X11531Y-48458D01*
X11531Y-50318D01*
X13587Y-50318D01*
X13587Y-54822D01*
X13613Y-54956D01*
X13649Y-55010D01*
X13649Y-55044D01*
X13714Y-55201D01*
X13833Y-55320D01*
X13989Y-55385D01*
X14158Y-55385D01*
X14315Y-55321D01*
X14434Y-55201D01*
X14499Y-55045D01*
X14499Y-54876D01*
X14435Y-54720D01*
X14315Y-54600D01*
X14287Y-54588D01*
X14287Y-49434D01*
X14497Y-49521D01*
X14753Y-49521D01*
X14990Y-49423D01*
X15004Y-49409D01*
X15004Y-54512D01*
X14994Y-54522D01*
X14929Y-54678D01*
X14929Y-54847D01*
X14993Y-55004D01*
X15113Y-55123D01*
X15269Y-55188D01*
X15438Y-55188D01*
X15594Y-55124D01*
X15714Y-55004D01*
X15779Y-54848D01*
X15779Y-54679D01*
X15714Y-54523D01*
X15704Y-54512D01*
X15704Y-50275D01*
X15855Y-50427D01*
X16091Y-50525D01*
X16347Y-50525D01*
X16584Y-50427D01*
X16765Y-50246D01*
X16864Y-50010D01*
X16864Y-49859D01*
X17114Y-50109D01*
X17228Y-50185D01*
X17362Y-50212D01*
X19205Y-50212D01*
X20224Y-51231D01*
X20224Y-51231D01*
X20338Y-51307D01*
X20472Y-51334D01*
X21298Y-51334D01*
X21443Y-51479D01*
X21640Y-51561D01*
X21459Y-51560D01*
X21236Y-51652D01*
X21078Y-51810D01*
X20921Y-51653D01*
X20699Y-51561D01*
X20459Y-51560D01*
X20236Y-51652D01*
X20078Y-51810D01*
X19921Y-51653D01*
X19699Y-51561D01*
X19459Y-51560D01*
X19236Y-51652D01*
X19166Y-51722D01*
X19145Y-51669D01*
X19074Y-51599D01*
X18983Y-51561D01*
X18910Y-51561D01*
X19106Y-51480D01*
X19270Y-51315D01*
X19360Y-51101D01*
X19360Y-50868D01*
X19271Y-50653D01*
X19107Y-50488D01*
X18892Y-50399D01*
X18659Y-50399D01*
X18444Y-50488D01*
X18280Y-50652D01*
X18191Y-50867D01*
X18190Y-51100D01*
X18279Y-51314D01*
X18443Y-51479D01*
X18639Y-51560D01*
X18174Y-51560D01*
X18082Y-51598D01*
X18012Y-51669D01*
X17974Y-51761D01*
X17974Y-51860D01*
X17974Y-52569D01*
X18012Y-52661D01*
X18082Y-52731D01*
X18174Y-52769D01*
X18273Y-52769D01*
X18982Y-52769D01*
X19074Y-52731D01*
X19144Y-52661D01*
X19166Y-52608D01*
X19235Y-52677D01*
X19458Y-52769D01*
X19698Y-52769D01*
X19920Y-52677D01*
X20078Y-52520D01*
X20235Y-52677D01*
X20282Y-52696D01*
X20153Y-52749D01*
X20033Y-52869D01*
X19968Y-53025D01*
X19968Y-53194D01*
X20033Y-53350D01*
X20043Y-53361D01*
X20043Y-58313D01*
X20008Y-58399D01*
X20007Y-58568D01*
X20072Y-58724D01*
X20192Y-58844D01*
X20348Y-58909D01*
X20517Y-58909D01*
X20673Y-58844D01*
X20793Y-58725D01*
X20857Y-58569D01*
X20858Y-58400D01*
X20793Y-58243D01*
X20743Y-58193D01*
X20743Y-53361D01*
X20753Y-53351D01*
X20818Y-53195D01*
X20818Y-53026D01*
X20754Y-52869D01*
X20654Y-52769D01*
X20698Y-52769D01*
X20920Y-52677D01*
X21078Y-52520D01*
X21235Y-52677D01*
X21458Y-52769D01*
X21698Y-52769D01*
X21920Y-52677D01*
X22090Y-52508D01*
X22182Y-52286D01*
X22183Y-52045D01*
X22091Y-51823D01*
X21921Y-51653D01*
X21718Y-51568D01*
X21891Y-51568D01*
X22106Y-51480D01*
X22270Y-51315D01*
X22360Y-51101D01*
X22360Y-50868D01*
X22271Y-50653D01*
X22107Y-50488D01*
X21892Y-50399D01*
X21659Y-50399D01*
X21444Y-50488D01*
X21298Y-50634D01*
X20617Y-50634D01*
X19597Y-49614D01*
X19484Y-49538D01*
X19350Y-49512D01*
X17507Y-49512D01*
X17341Y-49346D01*
X20609Y-49346D01*
X20517Y-49438D01*
X20419Y-49674D01*
X20419Y-49930D01*
X20516Y-50167D01*
X20697Y-50348D01*
X20934Y-50446D01*
X21190Y-50446D01*
X21427Y-50349D01*
X21608Y-50168D01*
X21653Y-50059D01*
X21698Y-50167D01*
X21878Y-50348D01*
X22115Y-50446D01*
X22371Y-50446D01*
X22608Y-50349D01*
X22789Y-50168D01*
X22842Y-50040D01*
X22862Y-50070D01*
X22975Y-50182D01*
X22909Y-50210D01*
X22789Y-50329D01*
X22724Y-50485D01*
X22724Y-50655D01*
X22789Y-50811D01*
X22838Y-50861D01*
X22838Y-55091D01*
X22610Y-55319D01*
X22066Y-55319D01*
X21932Y-55345D01*
X21819Y-55421D01*
X21819Y-55421D01*
X21307Y-55933D01*
X21231Y-56047D01*
X21205Y-56181D01*
X21205Y-56986D01*
X21138Y-57013D01*
X21068Y-57083D01*
X21030Y-57175D01*
X21030Y-57275D01*
X21030Y-57625D01*
X21068Y-57717D01*
X21126Y-57775D01*
X21068Y-57833D01*
X21030Y-57925D01*
X21030Y-58025D01*
X21030Y-58375D01*
X21068Y-58467D01*
X21138Y-58537D01*
X21205Y-58565D01*
X21205Y-59659D01*
X21177Y-59670D01*
X21107Y-59740D01*
X21069Y-59832D01*
X21069Y-59932D01*
X21069Y-60404D01*
X21107Y-60495D01*
X21142Y-60531D01*
X21107Y-60566D01*
X21069Y-60658D01*
X21069Y-60758D01*
X21069Y-61230D01*
X21107Y-61321D01*
X21177Y-61392D01*
X21269Y-61430D01*
X21368Y-61430D01*
X21840Y-61430D01*
X21932Y-61392D01*
X22002Y-61322D01*
X22014Y-61294D01*
X22276Y-61294D01*
X22288Y-61321D01*
X22358Y-61392D01*
X22450Y-61430D01*
X22549Y-61430D01*
X23021Y-61430D01*
X23113Y-61392D01*
X23184Y-61322D01*
X23195Y-61294D01*
X23457Y-61294D01*
X23469Y-61321D01*
X23539Y-61392D01*
X23631Y-61430D01*
X23730Y-61430D01*
X24202Y-61430D01*
X24294Y-61392D01*
X24365Y-61322D01*
X24376Y-61294D01*
X24639Y-61294D01*
X24650Y-61321D01*
X24720Y-61392D01*
X24812Y-61430D01*
X24911Y-61430D01*
X25383Y-61430D01*
X25475Y-61392D01*
X25546Y-61322D01*
X25557Y-61294D01*
X30571Y-61294D01*
X30705Y-61267D01*
X30705Y-61267D01*
X30818Y-61191D01*
X31330Y-60680D01*
X31330Y-60680D01*
X31330Y-60680D01*
X31406Y-60567D01*
X31432Y-60433D01*
X31432Y-55546D01*
X31442Y-55536D01*
X31507Y-55380D01*
X31507Y-55211D01*
X31443Y-55054D01*
X31323Y-54935D01*
X31167Y-54870D01*
X30998Y-54870D01*
X30842Y-54934D01*
X30722Y-55054D01*
X30657Y-55210D01*
X30657Y-55379D01*
X30722Y-55535D01*
X30732Y-55546D01*
X30732Y-60288D01*
X30426Y-60594D01*
X25557Y-60594D01*
X25546Y-60567D01*
X25510Y-60531D01*
X25546Y-60496D01*
X25584Y-60404D01*
X25584Y-60304D01*
X25584Y-59832D01*
X25546Y-59741D01*
X25476Y-59670D01*
X25448Y-59659D01*
X25448Y-58565D01*
X25514Y-58537D01*
X25585Y-58467D01*
X25623Y-58375D01*
X25623Y-58276D01*
X25623Y-57926D01*
X25585Y-57834D01*
X25526Y-57775D01*
X25551Y-57750D01*
X28701Y-57750D01*
X28835Y-57723D01*
X28835Y-57723D01*
X28949Y-57648D01*
X29558Y-57038D01*
X29634Y-56925D01*
X29661Y-56791D01*
X29661Y-54483D01*
X29710Y-54433D01*
X29775Y-54277D01*
X29775Y-54108D01*
X29710Y-53952D01*
X29591Y-53832D01*
X29435Y-53767D01*
X29266Y-53767D01*
X29109Y-53832D01*
X28990Y-53951D01*
X28925Y-54108D01*
X28925Y-54277D01*
X28961Y-54363D01*
X28961Y-56646D01*
X28556Y-57050D01*
X25551Y-57050D01*
X25515Y-57013D01*
X25423Y-56975D01*
X25323Y-56975D01*
X24773Y-56975D01*
X24681Y-57013D01*
X24611Y-57083D01*
X24573Y-57175D01*
X24573Y-57275D01*
X24573Y-57625D01*
X24611Y-57717D01*
X24669Y-57775D01*
X24611Y-57833D01*
X24573Y-57925D01*
X24573Y-58025D01*
X24573Y-58375D01*
X24611Y-58467D01*
X24681Y-58537D01*
X24748Y-58565D01*
X24748Y-59659D01*
X24720Y-59670D01*
X24650Y-59740D01*
X24612Y-59832D01*
X24612Y-59932D01*
X24612Y-60404D01*
X24650Y-60495D01*
X24685Y-60531D01*
X24650Y-60566D01*
X24639Y-60594D01*
X24376Y-60594D01*
X24365Y-60567D01*
X24329Y-60531D01*
X24365Y-60496D01*
X24403Y-60404D01*
X24403Y-60304D01*
X24403Y-59832D01*
X24365Y-59741D01*
X24295Y-59670D01*
X24267Y-59659D01*
X24267Y-58565D01*
X24333Y-58537D01*
X24404Y-58467D01*
X24442Y-58375D01*
X24442Y-58276D01*
X24442Y-57926D01*
X24404Y-57834D01*
X24345Y-57775D01*
X24404Y-57717D01*
X24442Y-57625D01*
X24442Y-57526D01*
X24442Y-57176D01*
X24404Y-57084D01*
X24338Y-57018D01*
X24381Y-56915D01*
X24381Y-56746D01*
X24325Y-56609D01*
X27165Y-56609D01*
X27299Y-56583D01*
X27299Y-56583D01*
X27412Y-56507D01*
X27904Y-56015D01*
X27904Y-56015D01*
X27904Y-56015D01*
X27980Y-55901D01*
X28007Y-55767D01*
X28007Y-55767D01*
X28007Y-54660D01*
X28017Y-54650D01*
X28082Y-54494D01*
X28082Y-54325D01*
X28017Y-54169D01*
X27898Y-54049D01*
X27742Y-53984D01*
X27573Y-53984D01*
X27417Y-54048D01*
X27297Y-54168D01*
X27232Y-54324D01*
X27232Y-54493D01*
X27296Y-54649D01*
X27307Y-54660D01*
X27307Y-55622D01*
X27020Y-55909D01*
X24334Y-55909D01*
X24342Y-55891D01*
X24342Y-55722D01*
X24277Y-55566D01*
X24267Y-55556D01*
X24267Y-53558D01*
X24297Y-53528D01*
X24361Y-53372D01*
X24362Y-53203D01*
X24297Y-53046D01*
X24178Y-52927D01*
X24021Y-52862D01*
X23852Y-52862D01*
X23696Y-52926D01*
X23576Y-53046D01*
X23538Y-53137D01*
X23538Y-52316D01*
X23604Y-52316D01*
X24313Y-52316D01*
X24405Y-52278D01*
X24475Y-52208D01*
X24497Y-52155D01*
X24566Y-52224D01*
X24788Y-52316D01*
X25029Y-52317D01*
X25231Y-52233D01*
X25231Y-52621D01*
X28508Y-52621D01*
X28508Y-50761D01*
X25231Y-50761D01*
X25231Y-51191D01*
X25030Y-51108D01*
X24789Y-51108D01*
X24567Y-51199D01*
X24497Y-51269D01*
X24475Y-51216D01*
X24405Y-51146D01*
X24313Y-51108D01*
X24214Y-51108D01*
X23538Y-51108D01*
X23538Y-50741D01*
X23574Y-50655D01*
X23574Y-50586D01*
X23582Y-50586D01*
X24276Y-50586D01*
X24306Y-50615D01*
X24462Y-50680D01*
X24631Y-50680D01*
X24787Y-50616D01*
X24907Y-50496D01*
X24972Y-50340D01*
X24972Y-50171D01*
X24907Y-50015D01*
X24788Y-49895D01*
X24632Y-49830D01*
X24463Y-49830D01*
X24329Y-49886D01*
X23668Y-49886D01*
X23460Y-49677D01*
X23460Y-49330D01*
X23433Y-49196D01*
X23357Y-49083D01*
X23023Y-48748D01*
X22909Y-48672D01*
X22775Y-48646D01*
X22228Y-48646D01*
X22320Y-48627D01*
X22502Y-48506D01*
X22606Y-48350D01*
X22710Y-48506D01*
X22891Y-48627D01*
X23106Y-48670D01*
X23320Y-48627D01*
X23502Y-48506D01*
X23606Y-48350D01*
X23710Y-48506D01*
X23891Y-48627D01*
X23958Y-48641D01*
X23775Y-48716D01*
X23610Y-48880D01*
X23521Y-49095D01*
X23521Y-49328D01*
X23610Y-49543D01*
X23774Y-49707D01*
X23989Y-49797D01*
X24222Y-49797D01*
X24437Y-49708D01*
X24601Y-49544D01*
X24606Y-49533D01*
X24610Y-49543D01*
X24774Y-49707D01*
X24989Y-49797D01*
X25222Y-49797D01*
X25437Y-49708D01*
X25601Y-49544D01*
X25690Y-49329D01*
X25691Y-49122D01*
X25704Y-49109D01*
X31272Y-49109D01*
X31248Y-49167D01*
X31248Y-49336D01*
X31272Y-49395D01*
X31179Y-49395D01*
X30957Y-49487D01*
X30887Y-49557D01*
X30865Y-49504D01*
X30795Y-49433D01*
X30703Y-49395D01*
X30604Y-49395D01*
X29895Y-49395D01*
X29803Y-49433D01*
X29733Y-49503D01*
X29694Y-49595D01*
X29694Y-49695D01*
X29694Y-50403D01*
X29732Y-50495D01*
X29803Y-50566D01*
X29894Y-50604D01*
X29994Y-50604D01*
X30703Y-50604D01*
X30794Y-50566D01*
X30865Y-50496D01*
X30887Y-50442D01*
X30956Y-50512D01*
X31178Y-50604D01*
X31418Y-50604D01*
X31641Y-50512D01*
X31799Y-50354D01*
X31956Y-50512D01*
X32178Y-50604D01*
X32418Y-50604D01*
X32641Y-50512D01*
X32811Y-50342D01*
X32903Y-50120D01*
X32903Y-49880D01*
X32811Y-49658D01*
X32739Y-49585D01*
X32791Y-49575D01*
X32791Y-49575D01*
X32904Y-49499D01*
X33259Y-49145D01*
X33335Y-49031D01*
X33335Y-49031D01*
X33361Y-48897D01*
X33361Y-48511D01*
X33432Y-48440D01*
X33819Y-48440D01*
X33736Y-48523D01*
X33608Y-48832D01*
X33608Y-49166D01*
X33735Y-49475D01*
X33972Y-49712D01*
X34280Y-49840D01*
X34615Y-49840D01*
X34924Y-49713D01*
X35102Y-49534D01*
X35102Y-50165D01*
X35089Y-50159D01*
X34989Y-50159D01*
X33808Y-50159D01*
X33716Y-50197D01*
X33646Y-50267D01*
X33608Y-50359D01*
X33608Y-50458D01*
X33608Y-51640D01*
X33646Y-51731D01*
X33716Y-51802D01*
X33808Y-51840D01*
X33907Y-51840D01*
X35088Y-51840D01*
X35102Y-51834D01*
X35102Y-55878D01*
X35032Y-55949D01*
X34899Y-55949D01*
X34899Y-53253D01*
X34895Y-53137D01*
X34895Y-53022D01*
X34890Y-53010D01*
X34890Y-52997D01*
X34810Y-52805D01*
X34805Y-52803D01*
X34797Y-52785D01*
X34617Y-52604D01*
X34598Y-52596D01*
X34596Y-52590D01*
X34487Y-52550D01*
X34380Y-52506D01*
X34367Y-52506D01*
X34356Y-52501D01*
X34240Y-52505D01*
X34124Y-52505D01*
X34112Y-52510D01*
X34100Y-52511D01*
X33907Y-52590D01*
X33905Y-52596D01*
X33887Y-52603D01*
X33706Y-52784D01*
X33698Y-52803D01*
X33693Y-52805D01*
X33652Y-52914D01*
X33608Y-53021D01*
X33608Y-53033D01*
X33603Y-53045D01*
X33608Y-53161D01*
X33608Y-53277D01*
X33612Y-53288D01*
X33613Y-53301D01*
X33693Y-53493D01*
X33698Y-53495D01*
X33705Y-53513D01*
X33886Y-53694D01*
X33905Y-53702D01*
X33907Y-53708D01*
X34016Y-53748D01*
X34123Y-53793D01*
X34135Y-53793D01*
X34147Y-53797D01*
X34263Y-53793D01*
X34379Y-53793D01*
X34391Y-53788D01*
X34403Y-53788D01*
X34596Y-53708D01*
X34598Y-53703D01*
X34616Y-53695D01*
X34797Y-53514D01*
X34805Y-53495D01*
X34810Y-53493D01*
X34851Y-53385D01*
X34895Y-53278D01*
X34895Y-53265D01*
X34899Y-53253D01*
X34899Y-55949D01*
X32613Y-55949D01*
X32603Y-55939D01*
X32447Y-55874D01*
X32278Y-55874D01*
X32121Y-55938D01*
X32002Y-56058D01*
X31937Y-56214D01*
X31937Y-56383D01*
X32001Y-56539D01*
X32121Y-56659D01*
X32277Y-56724D01*
X32446Y-56724D01*
X32602Y-56659D01*
X32613Y-56649D01*
X35177Y-56649D01*
X35311Y-56622D01*
X35311Y-56622D01*
X35424Y-56546D01*
X35700Y-56271D01*
X35776Y-56157D01*
X35802Y-56023D01*
X35802Y-48405D01*
X35776Y-48271D01*
X35700Y-48158D01*
X35531Y-47989D01*
X35653Y-47939D01*
X35773Y-47819D01*
X35838Y-47663D01*
X35838Y-47530D01*
X35895Y-47473D01*
X35895Y-61486D01*
X35895Y-61486D01*
G37*
G54D32*
X35895Y-61486D02*
X34899Y-61486D01*
X34899Y-59946D01*
X34895Y-59830D01*
X34895Y-59715D01*
X34890Y-59703D01*
X34890Y-59690D01*
X34810Y-59498D01*
X34805Y-59496D01*
X34797Y-59478D01*
X34617Y-59297D01*
X34598Y-59289D01*
X34596Y-59283D01*
X34487Y-59243D01*
X34380Y-59198D01*
X34367Y-59198D01*
X34356Y-59194D01*
X34240Y-59198D01*
X34124Y-59198D01*
X34112Y-59203D01*
X34100Y-59203D01*
X33907Y-59283D01*
X33905Y-59289D01*
X33887Y-59296D01*
X33706Y-59477D01*
X33698Y-59496D01*
X33693Y-59498D01*
X33652Y-59606D01*
X33608Y-59713D01*
X33608Y-59726D01*
X33603Y-59738D01*
X33608Y-59854D01*
X33608Y-59969D01*
X33612Y-59981D01*
X33613Y-59994D01*
X33693Y-60186D01*
X33698Y-60188D01*
X33705Y-60206D01*
X33886Y-60387D01*
X33905Y-60395D01*
X33907Y-60401D01*
X34016Y-60441D01*
X34123Y-60486D01*
X34135Y-60486D01*
X34147Y-60490D01*
X34263Y-60486D01*
X34379Y-60486D01*
X34391Y-60481D01*
X34403Y-60481D01*
X34596Y-60401D01*
X34598Y-60395D01*
X34616Y-60388D01*
X34797Y-60207D01*
X34805Y-60188D01*
X34810Y-60186D01*
X34851Y-60078D01*
X34895Y-59971D01*
X34895Y-59958D01*
X34899Y-59946D01*
X34899Y-61486D01*
X19909Y-61486D01*
X19909Y-58483D01*
X19909Y-55562D01*
X17868Y-55562D01*
X17868Y-51998D01*
X17779Y-51783D01*
X17615Y-51618D01*
X17604Y-51614D01*
X17614Y-51610D01*
X17778Y-51445D01*
X17868Y-51230D01*
X17868Y-50998D01*
X17779Y-50783D01*
X17615Y-50618D01*
X17400Y-50529D01*
X17167Y-50529D01*
X16952Y-50618D01*
X16788Y-50782D01*
X16698Y-50997D01*
X16698Y-51229D01*
X16787Y-51444D01*
X16951Y-51609D01*
X16962Y-51614D01*
X16952Y-51618D01*
X16788Y-51782D01*
X16698Y-51997D01*
X16698Y-52229D01*
X16787Y-52444D01*
X16951Y-52609D01*
X17166Y-52698D01*
X17399Y-52698D01*
X17614Y-52610D01*
X17778Y-52445D01*
X17868Y-52230D01*
X17868Y-51998D01*
X17868Y-55562D01*
X13246Y-55562D01*
X13246Y-53253D01*
X13242Y-53137D01*
X13242Y-53022D01*
X13237Y-53010D01*
X13236Y-52997D01*
X13157Y-52805D01*
X13151Y-52803D01*
X13144Y-52785D01*
X12963Y-52604D01*
X12944Y-52596D01*
X12942Y-52590D01*
X12834Y-52550D01*
X12727Y-52506D01*
X12714Y-52506D01*
X12702Y-52501D01*
X12586Y-52505D01*
X12470Y-52505D01*
X12459Y-52510D01*
X12446Y-52511D01*
X12254Y-52590D01*
X12252Y-52596D01*
X12234Y-52603D01*
X12053Y-52784D01*
X12045Y-52803D01*
X12039Y-52805D01*
X11999Y-52914D01*
X11954Y-53021D01*
X11954Y-53033D01*
X11950Y-53045D01*
X11954Y-53161D01*
X11954Y-53277D01*
X11959Y-53288D01*
X11959Y-53301D01*
X12039Y-53493D01*
X12044Y-53495D01*
X12052Y-53513D01*
X12233Y-53694D01*
X12252Y-53702D01*
X12254Y-53708D01*
X12362Y-53748D01*
X12469Y-53793D01*
X12482Y-53793D01*
X12494Y-53797D01*
X12610Y-53793D01*
X12725Y-53793D01*
X12737Y-53788D01*
X12750Y-53788D01*
X12942Y-53708D01*
X12944Y-53703D01*
X12962Y-53695D01*
X13143Y-53514D01*
X13151Y-53495D01*
X13157Y-53493D01*
X13197Y-53385D01*
X13242Y-53278D01*
X13242Y-53265D01*
X13246Y-53253D01*
X13246Y-55562D01*
X11626Y-55562D01*
X11626Y-58483D01*
X19909Y-58483D01*
X19909Y-61486D01*
X13246Y-61486D01*
X13246Y-59946D01*
X13242Y-59830D01*
X13242Y-59715D01*
X13237Y-59703D01*
X13236Y-59690D01*
X13157Y-59498D01*
X13151Y-59496D01*
X13144Y-59478D01*
X12963Y-59297D01*
X12944Y-59289D01*
X12942Y-59283D01*
X12834Y-59243D01*
X12727Y-59198D01*
X12714Y-59198D01*
X12702Y-59194D01*
X12586Y-59198D01*
X12470Y-59198D01*
X12459Y-59203D01*
X12446Y-59203D01*
X12254Y-59283D01*
X12252Y-59289D01*
X12234Y-59296D01*
X12053Y-59477D01*
X12045Y-59496D01*
X12039Y-59498D01*
X11999Y-59606D01*
X11954Y-59713D01*
X11954Y-59726D01*
X11950Y-59738D01*
X11954Y-59854D01*
X11954Y-59969D01*
X11959Y-59981D01*
X11959Y-59994D01*
X12039Y-60186D01*
X12044Y-60188D01*
X12052Y-60206D01*
X12233Y-60387D01*
X12252Y-60395D01*
X12254Y-60401D01*
X12362Y-60441D01*
X12469Y-60486D01*
X12482Y-60486D01*
X12494Y-60490D01*
X12610Y-60486D01*
X12725Y-60486D01*
X12737Y-60481D01*
X12750Y-60481D01*
X12942Y-60401D01*
X12944Y-60395D01*
X12962Y-60388D01*
X13143Y-60207D01*
X13151Y-60188D01*
X13157Y-60186D01*
X13197Y-60078D01*
X13242Y-59971D01*
X13242Y-59958D01*
X13246Y-59946D01*
X13246Y-61486D01*
X10954Y-61486D01*
X10954Y-41470D01*
X10992Y-41527D01*
X11701Y-42235D01*
X11814Y-42311D01*
X11948Y-42338D01*
X13899Y-42338D01*
X13689Y-42547D01*
X13613Y-42661D01*
X13587Y-42795D01*
X13587Y-48458D01*
X13561Y-48458D01*
X13561Y-47722D01*
X13561Y-44722D01*
X13472Y-44507D01*
X13307Y-44343D01*
X13278Y-44330D01*
X13307Y-44318D01*
X13471Y-44154D01*
X13560Y-43939D01*
X13561Y-43707D01*
X13472Y-43492D01*
X13307Y-43327D01*
X13093Y-43238D01*
X12860Y-43238D01*
X12645Y-43326D01*
X12481Y-43491D01*
X12391Y-43706D01*
X12391Y-43938D01*
X12480Y-44153D01*
X12644Y-44318D01*
X12674Y-44330D01*
X12645Y-44342D01*
X12481Y-44506D01*
X12391Y-44721D01*
X12391Y-44954D01*
X12480Y-45169D01*
X12644Y-45333D01*
X12859Y-45423D01*
X13092Y-45423D01*
X13307Y-45334D01*
X13471Y-45170D01*
X13560Y-44955D01*
X13561Y-44722D01*
X13561Y-47722D01*
X13472Y-47507D01*
X13307Y-47343D01*
X13093Y-47254D01*
X12860Y-47253D01*
X12645Y-47342D01*
X12481Y-47506D01*
X12391Y-47721D01*
X12391Y-47954D01*
X12480Y-48169D01*
X12644Y-48333D01*
X12859Y-48423D01*
X13092Y-48423D01*
X13307Y-48334D01*
X13471Y-48170D01*
X13560Y-47955D01*
X13561Y-47722D01*
X13561Y-48458D01*
X11531Y-48458D01*
X11531Y-50318D01*
X13587Y-50318D01*
X13587Y-54822D01*
X13613Y-54956D01*
X13649Y-55010D01*
X13649Y-55044D01*
X13714Y-55201D01*
X13833Y-55320D01*
X13989Y-55385D01*
X14158Y-55385D01*
X14315Y-55321D01*
X14434Y-55201D01*
X14499Y-55045D01*
X14499Y-54876D01*
X14435Y-54720D01*
X14315Y-54600D01*
X14287Y-54588D01*
X14287Y-49434D01*
X14497Y-49521D01*
X14753Y-49521D01*
X14990Y-49423D01*
X15004Y-49409D01*
X15004Y-54512D01*
X14994Y-54522D01*
X14929Y-54678D01*
X14929Y-54847D01*
X14993Y-55004D01*
X15113Y-55123D01*
X15269Y-55188D01*
X15438Y-55188D01*
X15594Y-55124D01*
X15714Y-55004D01*
X15779Y-54848D01*
X15779Y-54679D01*
X15714Y-54523D01*
X15704Y-54512D01*
X15704Y-50275D01*
X15855Y-50427D01*
X16091Y-50525D01*
X16347Y-50525D01*
X16584Y-50427D01*
X16765Y-50246D01*
X16864Y-50010D01*
X16864Y-49859D01*
X17114Y-50109D01*
X17228Y-50185D01*
X17362Y-50212D01*
X19205Y-50212D01*
X20224Y-51231D01*
X20224Y-51231D01*
X20338Y-51307D01*
X20472Y-51334D01*
X21298Y-51334D01*
X21443Y-51479D01*
X21640Y-51561D01*
X21459Y-51560D01*
X21236Y-51652D01*
X21078Y-51810D01*
X20921Y-51653D01*
X20699Y-51561D01*
X20459Y-51560D01*
X20236Y-51652D01*
X20078Y-51810D01*
X19921Y-51653D01*
X19699Y-51561D01*
X19459Y-51560D01*
X19236Y-51652D01*
X19166Y-51722D01*
X19145Y-51669D01*
X19074Y-51599D01*
X18983Y-51561D01*
X18910Y-51561D01*
X19106Y-51480D01*
X19270Y-51315D01*
X19360Y-51101D01*
X19360Y-50868D01*
X19271Y-50653D01*
X19107Y-50488D01*
X18892Y-50399D01*
X18659Y-50399D01*
X18444Y-50488D01*
X18280Y-50652D01*
X18191Y-50867D01*
X18190Y-51100D01*
X18279Y-51314D01*
X18443Y-51479D01*
X18639Y-51560D01*
X18174Y-51560D01*
X18082Y-51598D01*
X18012Y-51669D01*
X17974Y-51761D01*
X17974Y-51860D01*
X17974Y-52569D01*
X18012Y-52661D01*
X18082Y-52731D01*
X18174Y-52769D01*
X18273Y-52769D01*
X18982Y-52769D01*
X19074Y-52731D01*
X19144Y-52661D01*
X19166Y-52608D01*
X19235Y-52677D01*
X19458Y-52769D01*
X19698Y-52769D01*
X19920Y-52677D01*
X20078Y-52520D01*
X20235Y-52677D01*
X20282Y-52696D01*
X20153Y-52749D01*
X20033Y-52869D01*
X19968Y-53025D01*
X19968Y-53194D01*
X20033Y-53350D01*
X20043Y-53361D01*
X20043Y-58313D01*
X20008Y-58399D01*
X20007Y-58568D01*
X20072Y-58724D01*
X20192Y-58844D01*
X20348Y-58909D01*
X20517Y-58909D01*
X20673Y-58844D01*
X20793Y-58725D01*
X20857Y-58569D01*
X20858Y-58400D01*
X20793Y-58243D01*
X20743Y-58193D01*
X20743Y-53361D01*
X20753Y-53351D01*
X20818Y-53195D01*
X20818Y-53026D01*
X20754Y-52869D01*
X20654Y-52769D01*
X20698Y-52769D01*
X20920Y-52677D01*
X21078Y-52520D01*
X21235Y-52677D01*
X21458Y-52769D01*
X21698Y-52769D01*
X21920Y-52677D01*
X22090Y-52508D01*
X22182Y-52286D01*
X22183Y-52045D01*
X22091Y-51823D01*
X21921Y-51653D01*
X21718Y-51568D01*
X21891Y-51568D01*
X22106Y-51480D01*
X22270Y-51315D01*
X22360Y-51101D01*
X22360Y-50868D01*
X22271Y-50653D01*
X22107Y-50488D01*
X21892Y-50399D01*
X21659Y-50399D01*
X21444Y-50488D01*
X21298Y-50634D01*
X20617Y-50634D01*
X19597Y-49614D01*
X19484Y-49538D01*
X19350Y-49512D01*
X17507Y-49512D01*
X17341Y-49346D01*
X20609Y-49346D01*
X20517Y-49438D01*
X20419Y-49674D01*
X20419Y-49930D01*
X20516Y-50167D01*
X20697Y-50348D01*
X20934Y-50446D01*
X21190Y-50446D01*
X21427Y-50349D01*
X21608Y-50168D01*
X21653Y-50059D01*
X21698Y-50167D01*
X21878Y-50348D01*
X22115Y-50446D01*
X22371Y-50446D01*
X22608Y-50349D01*
X22789Y-50168D01*
X22842Y-50040D01*
X22862Y-50070D01*
X22975Y-50182D01*
X22909Y-50210D01*
X22789Y-50329D01*
X22724Y-50485D01*
X22724Y-50655D01*
X22789Y-50811D01*
X22838Y-50861D01*
X22838Y-55091D01*
X22610Y-55319D01*
X22066Y-55319D01*
X21932Y-55345D01*
X21819Y-55421D01*
X21819Y-55421D01*
X21307Y-55933D01*
X21231Y-56047D01*
X21205Y-56181D01*
X21205Y-56986D01*
X21138Y-57013D01*
X21068Y-57083D01*
X21030Y-57175D01*
X21030Y-57275D01*
X21030Y-57625D01*
X21068Y-57717D01*
X21126Y-57775D01*
X21068Y-57833D01*
X21030Y-57925D01*
X21030Y-58025D01*
X21030Y-58375D01*
X21068Y-58467D01*
X21138Y-58537D01*
X21205Y-58565D01*
X21205Y-59659D01*
X21177Y-59670D01*
X21107Y-59740D01*
X21069Y-59832D01*
X21069Y-59932D01*
X21069Y-60404D01*
X21107Y-60495D01*
X21142Y-60531D01*
X21107Y-60566D01*
X21069Y-60658D01*
X21069Y-60758D01*
X21069Y-61230D01*
X21107Y-61321D01*
X21177Y-61392D01*
X21269Y-61430D01*
X21368Y-61430D01*
X21840Y-61430D01*
X21932Y-61392D01*
X22002Y-61322D01*
X22014Y-61294D01*
X22276Y-61294D01*
X22288Y-61321D01*
X22358Y-61392D01*
X22450Y-61430D01*
X22549Y-61430D01*
X23021Y-61430D01*
X23113Y-61392D01*
X23184Y-61322D01*
X23195Y-61294D01*
X23457Y-61294D01*
X23469Y-61321D01*
X23539Y-61392D01*
X23631Y-61430D01*
X23730Y-61430D01*
X24202Y-61430D01*
X24294Y-61392D01*
X24365Y-61322D01*
X24376Y-61294D01*
X24639Y-61294D01*
X24650Y-61321D01*
X24720Y-61392D01*
X24812Y-61430D01*
X24911Y-61430D01*
X25383Y-61430D01*
X25475Y-61392D01*
X25546Y-61322D01*
X25557Y-61294D01*
X30571Y-61294D01*
X30705Y-61267D01*
X30705Y-61267D01*
X30818Y-61191D01*
X31330Y-60680D01*
X31330Y-60680D01*
X31330Y-60680D01*
X31406Y-60567D01*
X31432Y-60433D01*
X31432Y-55546D01*
X31442Y-55536D01*
X31507Y-55380D01*
X31507Y-55211D01*
X31443Y-55054D01*
X31323Y-54935D01*
X31167Y-54870D01*
X30998Y-54870D01*
X30842Y-54934D01*
X30722Y-55054D01*
X30657Y-55210D01*
X30657Y-55379D01*
X30722Y-55535D01*
X30732Y-55546D01*
X30732Y-60288D01*
X30426Y-60594D01*
X25557Y-60594D01*
X25546Y-60567D01*
X25510Y-60531D01*
X25546Y-60496D01*
X25584Y-60404D01*
X25584Y-60304D01*
X25584Y-59832D01*
X25546Y-59741D01*
X25476Y-59670D01*
X25448Y-59659D01*
X25448Y-58565D01*
X25514Y-58537D01*
X25585Y-58467D01*
X25623Y-58375D01*
X25623Y-58276D01*
X25623Y-57926D01*
X25585Y-57834D01*
X25526Y-57775D01*
X25551Y-57750D01*
X28701Y-57750D01*
X28835Y-57723D01*
X28835Y-57723D01*
X28949Y-57648D01*
X29558Y-57038D01*
X29634Y-56925D01*
X29661Y-56791D01*
X29661Y-54483D01*
X29710Y-54433D01*
X29775Y-54277D01*
X29775Y-54108D01*
X29710Y-53952D01*
X29591Y-53832D01*
X29435Y-53767D01*
X29266Y-53767D01*
X29109Y-53832D01*
X28990Y-53951D01*
X28925Y-54108D01*
X28925Y-54277D01*
X28961Y-54363D01*
X28961Y-56646D01*
X28556Y-57050D01*
X25551Y-57050D01*
X25515Y-57013D01*
X25423Y-56975D01*
X25323Y-56975D01*
X24773Y-56975D01*
X24681Y-57013D01*
X24611Y-57083D01*
X24573Y-57175D01*
X24573Y-57275D01*
X24573Y-57625D01*
X24611Y-57717D01*
X24669Y-57775D01*
X24611Y-57833D01*
X24573Y-57925D01*
X24573Y-58025D01*
X24573Y-58375D01*
X24611Y-58467D01*
X24681Y-58537D01*
X24748Y-58565D01*
X24748Y-59659D01*
X24720Y-59670D01*
X24650Y-59740D01*
X24612Y-59832D01*
X24612Y-59932D01*
X24612Y-60404D01*
X24650Y-60495D01*
X24685Y-60531D01*
X24650Y-60566D01*
X24639Y-60594D01*
X24376Y-60594D01*
X24365Y-60567D01*
X24329Y-60531D01*
X24365Y-60496D01*
X24403Y-60404D01*
X24403Y-60304D01*
X24403Y-59832D01*
X24365Y-59741D01*
X24295Y-59670D01*
X24267Y-59659D01*
X24267Y-58565D01*
X24333Y-58537D01*
X24404Y-58467D01*
X24442Y-58375D01*
X24442Y-58276D01*
X24442Y-57926D01*
X24404Y-57834D01*
X24345Y-57775D01*
X24404Y-57717D01*
X24442Y-57625D01*
X24442Y-57526D01*
X24442Y-57176D01*
X24404Y-57084D01*
X24338Y-57018D01*
X24381Y-56915D01*
X24381Y-56746D01*
X24325Y-56609D01*
X27165Y-56609D01*
X27299Y-56583D01*
X27299Y-56583D01*
X27412Y-56507D01*
X27904Y-56015D01*
X27904Y-56015D01*
X27904Y-56015D01*
X27980Y-55901D01*
X28007Y-55767D01*
X28007Y-55767D01*
X28007Y-54660D01*
X28017Y-54650D01*
X28082Y-54494D01*
X28082Y-54325D01*
X28017Y-54169D01*
X27898Y-54049D01*
X27742Y-53984D01*
X27573Y-53984D01*
X27417Y-54048D01*
X27297Y-54168D01*
X27232Y-54324D01*
X27232Y-54493D01*
X27296Y-54649D01*
X27307Y-54660D01*
X27307Y-55622D01*
X27020Y-55909D01*
X24334Y-55909D01*
X24342Y-55891D01*
X24342Y-55722D01*
X24277Y-55566D01*
X24267Y-55556D01*
X24267Y-53558D01*
X24297Y-53528D01*
X24361Y-53372D01*
X24362Y-53203D01*
X24297Y-53046D01*
X24178Y-52927D01*
X24021Y-52862D01*
X23852Y-52862D01*
X23696Y-52926D01*
X23576Y-53046D01*
X23538Y-53137D01*
X23538Y-52316D01*
X23604Y-52316D01*
X24313Y-52316D01*
X24405Y-52278D01*
X24475Y-52208D01*
X24497Y-52155D01*
X24566Y-52224D01*
X24788Y-52316D01*
X25029Y-52317D01*
X25231Y-52233D01*
X25231Y-52621D01*
X28508Y-52621D01*
X28508Y-50761D01*
X25231Y-50761D01*
X25231Y-51191D01*
X25030Y-51108D01*
X24789Y-51108D01*
X24567Y-51199D01*
X24497Y-51269D01*
X24475Y-51216D01*
X24405Y-51146D01*
X24313Y-51108D01*
X24214Y-51108D01*
X23538Y-51108D01*
X23538Y-50741D01*
X23574Y-50655D01*
X23574Y-50586D01*
X23582Y-50586D01*
X24276Y-50586D01*
X24306Y-50615D01*
X24462Y-50680D01*
X24631Y-50680D01*
X24787Y-50616D01*
X24907Y-50496D01*
X24972Y-50340D01*
X24972Y-50171D01*
X24907Y-50015D01*
X24788Y-49895D01*
X24632Y-49830D01*
X24463Y-49830D01*
X24329Y-49886D01*
X23668Y-49886D01*
X23460Y-49677D01*
X23460Y-49330D01*
X23433Y-49196D01*
X23357Y-49083D01*
X23023Y-48748D01*
X22909Y-48672D01*
X22775Y-48646D01*
X22228Y-48646D01*
X22320Y-48627D01*
X22502Y-48506D01*
X22606Y-48350D01*
X22710Y-48506D01*
X22891Y-48627D01*
X23106Y-48670D01*
X23320Y-48627D01*
X23502Y-48506D01*
X23606Y-48350D01*
X23710Y-48506D01*
X23891Y-48627D01*
X23958Y-48641D01*
X23775Y-48716D01*
X23610Y-48880D01*
X23521Y-49095D01*
X23521Y-49328D01*
X23610Y-49543D01*
X23774Y-49707D01*
X23989Y-49797D01*
X24222Y-49797D01*
X24437Y-49708D01*
X24601Y-49544D01*
X24606Y-49533D01*
X24610Y-49543D01*
X24774Y-49707D01*
X24989Y-49797D01*
X25222Y-49797D01*
X25437Y-49708D01*
X25601Y-49544D01*
X25690Y-49329D01*
X25691Y-49122D01*
X25704Y-49109D01*
X31272Y-49109D01*
X31248Y-49167D01*
X31248Y-49336D01*
X31272Y-49395D01*
X31179Y-49395D01*
X30957Y-49487D01*
X30887Y-49557D01*
X30865Y-49504D01*
X30795Y-49433D01*
X30703Y-49395D01*
X30604Y-49395D01*
X29895Y-49395D01*
X29803Y-49433D01*
X29733Y-49503D01*
X29694Y-49595D01*
X29694Y-49695D01*
X29694Y-50403D01*
X29732Y-50495D01*
X29803Y-50566D01*
X29894Y-50604D01*
X29994Y-50604D01*
X30703Y-50604D01*
X30794Y-50566D01*
X30865Y-50496D01*
X30887Y-50442D01*
X30956Y-50512D01*
X31178Y-50604D01*
X31418Y-50604D01*
X31641Y-50512D01*
X31799Y-50354D01*
X31956Y-50512D01*
X32178Y-50604D01*
X32418Y-50604D01*
X32641Y-50512D01*
X32811Y-50342D01*
X32903Y-50120D01*
X32903Y-49880D01*
X32811Y-49658D01*
X32739Y-49585D01*
X32791Y-49575D01*
X32791Y-49575D01*
X32904Y-49499D01*
X33259Y-49145D01*
X33335Y-49031D01*
X33335Y-49031D01*
X33361Y-48897D01*
X33361Y-48511D01*
X33432Y-48440D01*
X33819Y-48440D01*
X33736Y-48523D01*
X33608Y-48832D01*
X33608Y-49166D01*
X33735Y-49475D01*
X33972Y-49712D01*
X34280Y-49840D01*
X34615Y-49840D01*
X34924Y-49713D01*
X35102Y-49534D01*
X35102Y-50165D01*
X35089Y-50159D01*
X34989Y-50159D01*
X33808Y-50159D01*
X33716Y-50197D01*
X33646Y-50267D01*
X33608Y-50359D01*
X33608Y-50458D01*
X33608Y-51640D01*
X33646Y-51731D01*
X33716Y-51802D01*
X33808Y-51840D01*
X33907Y-51840D01*
X35088Y-51840D01*
X35102Y-51834D01*
X35102Y-55878D01*
X35032Y-55949D01*
X34899Y-55949D01*
X34899Y-53253D01*
X34895Y-53137D01*
X34895Y-53022D01*
X34890Y-53010D01*
X34890Y-52997D01*
X34810Y-52805D01*
X34805Y-52803D01*
X34797Y-52785D01*
X34617Y-52604D01*
X34598Y-52596D01*
X34596Y-52590D01*
X34487Y-52550D01*
X34380Y-52506D01*
X34367Y-52506D01*
X34356Y-52501D01*
X34240Y-52505D01*
X34124Y-52505D01*
X34112Y-52510D01*
X34100Y-52511D01*
X33907Y-52590D01*
X33905Y-52596D01*
X33887Y-52603D01*
X33706Y-52784D01*
X33698Y-52803D01*
X33693Y-52805D01*
X33652Y-52914D01*
X33608Y-53021D01*
X33608Y-53033D01*
X33603Y-53045D01*
X33608Y-53161D01*
X33608Y-53277D01*
X33612Y-53288D01*
X33613Y-53301D01*
X33693Y-53493D01*
X33698Y-53495D01*
X33705Y-53513D01*
X33886Y-53694D01*
X33905Y-53702D01*
X33907Y-53708D01*
X34016Y-53748D01*
X34123Y-53793D01*
X34135Y-53793D01*
X34147Y-53797D01*
X34263Y-53793D01*
X34379Y-53793D01*
X34391Y-53788D01*
X34403Y-53788D01*
X34596Y-53708D01*
X34598Y-53703D01*
X34616Y-53695D01*
X34797Y-53514D01*
X34805Y-53495D01*
X34810Y-53493D01*
X34851Y-53385D01*
X34895Y-53278D01*
X34895Y-53265D01*
X34899Y-53253D01*
X34899Y-55949D01*
X32613Y-55949D01*
X32603Y-55939D01*
X32447Y-55874D01*
X32278Y-55874D01*
X32121Y-55938D01*
X32002Y-56058D01*
X31937Y-56214D01*
X31937Y-56383D01*
X32001Y-56539D01*
X32121Y-56659D01*
X32277Y-56724D01*
X32446Y-56724D01*
X32602Y-56659D01*
X32613Y-56649D01*
X35177Y-56649D01*
X35311Y-56622D01*
X35311Y-56622D01*
X35424Y-56546D01*
X35700Y-56271D01*
X35776Y-56157D01*
X35802Y-56023D01*
X35802Y-48405D01*
X35776Y-48271D01*
X35700Y-48158D01*
X35531Y-47989D01*
X35653Y-47939D01*
X35773Y-47819D01*
X35838Y-47663D01*
X35838Y-47530D01*
X35895Y-47473D01*
X35895Y-61486D01*
M02*
