M48
;DRILL file {Pcbnew (2013-mar-13)-testing} date vie 03 may 2013 19:18:44 ART
;FORMAT={-:-/ absolute / inch / decimal}
FMAT,2
INCH,TZ
T1C0.024
T2C0.025
T3C0.032
T4C0.040
T5C0.060
T6C0.079
T7C0.120
%
G90
G05
M72
T1
X1.8201Y-2.9028
X1.8201Y-3.0028
X1.9201Y-2.9028
X1.9201Y-3.0028
X2.135Y-2.9028
X2.135Y-3.0028
X2.235Y-2.9028
X2.235Y-3.0028
X2.45Y-2.9028
X2.45Y-3.0028
X2.55Y-2.9028
X2.55Y-3.0028
X2.765Y-2.9028
X2.765Y-3.0028
X2.865Y-2.9028
X2.865Y-3.0028
T2
X1.1909Y-3.4193
X1.2028Y-4.0453
X1.3819Y-3.2244
X1.4075Y-5.4961
X1.5157Y-2.5413
X1.5354Y-5.4764
X1.5827Y-3.2185
X1.7677Y-4.0748
X1.815Y-4.0059
X1.8465Y-3.2736
X1.8484Y-3.9488
X1.9882Y-3.1496
X2.002Y-4.0807
X2.0079Y-4.2972
X2.0138Y-2.2992
X2.0394Y-5.311
X2.0433Y-5.8484
X2.1063Y-3.9272
X2.1102Y-4.2992
X2.1122Y-4.0945
X2.1693Y-4.0256
X2.2126Y-4.311
X2.2205Y-3.1535
X2.2421Y-3.3957
X2.3031Y-4.3071
X2.315Y-5.0571
X2.3248Y-3.6831
X2.3917Y-5.5807
X2.3937Y-5.3287
X2.3957Y-5.6831
X2.4547Y-5.0256
X2.5236Y-3.1496
X2.5492Y-3.6752
X2.6535Y-2.8976
X2.7657Y-5.4409
X2.7953Y-4.6181
X2.8189Y-3.1496
X2.8563Y-3.2835
X2.8661Y-4.1752
X2.935Y-5.4193
X2.9547Y-4.5689
X3.0138Y-4.126
X3.0512Y-2.6063
X3.0669Y-4.2717
X3.1083Y-3.0315
X3.1083Y-5.5295
X3.1673Y-4.9252
X3.1693Y-4.0354
X3.1949Y-4.3858
X3.2303Y-4.8839
X3.2362Y-5.6299
X3.3957Y-4.3819
X3.4173Y-3.1004
X3.4252Y-4.0374
X3.4685Y-2.872
X3.5098Y-4.5059
X3.5413Y-4.7579
X3.5433Y-3.189
T3
X1.2894Y-2.3795
X1.2894Y-2.6795
X1.2894Y-2.8421
X1.2894Y-3.1421
X1.2976Y-4.0823
X1.2976Y-4.3823
X1.2976Y-4.4839
X1.2976Y-4.7839
X1.4976Y-4.0823
X1.4976Y-4.3823
X1.4976Y-4.4839
X1.4976Y-4.7839
X1.6142Y-2.4917
X1.6142Y-2.7917
X1.6142Y-3.3343
X1.6142Y-3.6343
X1.6142Y-3.7083
X1.6142Y-4.0083
X1.6217Y-4.1535
X1.7126Y-3.3343
X1.7126Y-3.6343
X1.7126Y-3.7083
X1.7126Y-4.0083
X1.7283Y-5.1114
X1.7283Y-5.2114
X1.8106Y-4.4957
X1.8106Y-4.7957
X1.811Y-2.3197
X1.811Y-2.7197
X1.8776Y-5.0984
X1.9106Y-4.4957
X1.9106Y-4.7957
X1.9134Y-2.3579
X1.9134Y-2.6579
X1.9217Y-4.1535
X2.0106Y-4.4957
X2.0106Y-4.7957
X2.0244Y-3.3858
X2.0425Y-3.5811
X2.0925Y-3.7811
X2.1106Y-4.4957
X2.1106Y-4.7957
X2.1425Y-3.5811
X2.1776Y-5.0984
X2.1925Y-3.7811
X2.2106Y-4.4957
X2.2106Y-4.7957
X2.2425Y-3.5811
X2.2925Y-3.7811
X2.3106Y-4.4957
X2.3106Y-4.7957
X2.3425Y-3.5811
X2.3591Y-3.937
X2.3925Y-3.7811
X2.4106Y-4.252
X2.4106Y-4.3701
X2.4106Y-4.4957
X2.4106Y-4.7957
X2.4106Y-4.9213
X2.4244Y-3.3858
X2.4425Y-3.5811
X2.4925Y-3.7811
X2.5106Y-4.252
X2.5106Y-4.3701
X2.5106Y-4.4957
X2.5106Y-4.7957
X2.5106Y-4.9213
X2.5425Y-3.5811
X2.5925Y-3.7811
X2.6106Y-4.4957
X2.6106Y-4.7957
X2.6181Y-4.0823
X2.6181Y-4.3823
X2.6425Y-3.5811
X2.6925Y-3.7811
X2.7106Y-4.4957
X2.7106Y-4.7957
X2.7591Y-3.937
X2.8106Y-4.4957
X2.8106Y-4.7957
X2.9106Y-4.4957
X2.9106Y-4.7957
X2.9724Y-3.3343
X2.9724Y-3.6343
X2.9724Y-3.7083
X2.9724Y-4.0083
X3.0106Y-4.4957
X3.0106Y-4.7957
X3.0217Y-2.9051
X3.0217Y-3.2051
X3.0512Y-2.4051
X3.0512Y-2.7051
X3.0709Y-3.3343
X3.0709Y-3.6343
X3.0709Y-3.7083
X3.0709Y-4.0083
X3.1106Y-4.4957
X3.1106Y-4.7957
X3.2555Y-4.1126
X3.2555Y-4.3126
X3.3071Y-2.8028
X3.3071Y-3.1028
X3.3346Y-2.4012
X3.3346Y-2.7012
X3.5555Y-4.1126
X3.5555Y-4.3126
T4
X1.4075Y-2.4295
X1.4075Y-2.5295
X1.4075Y-2.6295
X1.4075Y-2.8921
X1.4075Y-2.9921
X1.4075Y-3.0921
X1.8307Y-3.6311
X1.8307Y-3.7311
X1.8579Y-5.2165
X1.9579Y-5.2165
X1.9925Y-3.7811
X2.0579Y-5.2165
X2.1579Y-5.2165
X2.3909Y-5.1713
X2.4909Y-5.1713
X2.7165Y-4.202
X2.7165Y-4.302
X2.8543Y-3.6311
X2.8543Y-3.7311
X3.0299Y-5.
X3.1299Y-5.
X3.1693Y-2.463
X3.1693Y-2.563
X3.1693Y-2.663
X3.189Y-2.9315
X3.189Y-3.0315
X3.189Y-3.1315
X3.2299Y-5.
X3.2768Y-4.5063
X3.2768Y-4.6063
X3.2768Y-4.7063
X3.3768Y-4.5063
X3.3768Y-4.6063
X3.3768Y-4.7063
X3.5433Y-2.9421
X3.5433Y-3.0421
X3.5453Y-2.6008
X3.5453Y-2.7008
X3.5453Y-2.8008
T5
X3.4252Y-3.6992
X3.4252Y-3.8992
X3.4449Y-4.9
X3.4449Y-5.1
T6
X1.2598Y-5.315
X1.2598Y-5.9843
X1.4626Y-4.8878
X1.4961Y-3.9764
X1.622Y-4.9882
X1.811Y-4.376
X1.9291Y-4.374
X2.1063Y-4.9803
X2.2244Y-4.9803
X2.3425Y-2.5591
X3.4016Y-3.2874
X3.4252Y-5.315
X3.4252Y-5.9843
X3.5Y-3.372
T7
X2.3425Y-2.5591
T0
M30
