G04 (created by PCBNEW (22-Jun-2014 BZR 4027)-stable) date lun 25 ago 2014 22:21:40 ART*
%MOIN*%
G04 Gerber Fmt 3.4, Leading zero omitted, Abs format*
%FSLAX34Y34*%
G01*
G70*
G90*
G04 APERTURE LIST*
%ADD10C,0.00590551*%
%ADD11C,0.012*%
%ADD12C,0.015*%
%ADD13R,0.0787X0.0177*%
%ADD14R,0.0177X0.0787*%
%ADD15C,0.0787402*%
%ADD16R,0.0787402X0.0787402*%
%ADD17R,0.0708661X0.0394*%
%ADD18O,0.0708661X0.0394*%
%ADD19R,0.055X0.035*%
%ADD20R,0.035X0.055*%
%ADD21R,0.015X0.05*%
%ADD22R,0.0968504X0.0968504*%
%ADD23C,0.07*%
%ADD24R,0.11X0.11*%
%ADD25C,0.11*%
%ADD26R,0.0512X0.0236*%
%ADD27R,0.0472X0.122*%
%ADD28C,0.0669291*%
%ADD29C,0.018*%
%ADD30C,0.02*%
%ADD31C,0.01*%
G04 APERTURE END LIST*
G54D10*
G54D11*
X16103Y-46177D02*
X15760Y-46177D01*
X15932Y-46977D02*
X15932Y-46177D01*
X15560Y-46977D02*
X15560Y-46177D01*
X15360Y-46177D02*
X15017Y-46177D01*
X15189Y-46977D02*
X15189Y-46177D01*
X14703Y-46177D02*
X14589Y-46177D01*
X14532Y-46215D01*
X14474Y-46291D01*
X14446Y-46444D01*
X14446Y-46710D01*
X14474Y-46863D01*
X14532Y-46939D01*
X14589Y-46977D01*
X14703Y-46977D01*
X14760Y-46939D01*
X14817Y-46863D01*
X14846Y-46710D01*
X14846Y-46444D01*
X14817Y-46291D01*
X14760Y-46215D01*
X14703Y-46177D01*
X13932Y-46444D02*
X13932Y-46977D01*
X14074Y-46139D02*
X14217Y-46710D01*
X13846Y-46710D01*
G54D12*
X36220Y-61811D02*
X10629Y-61811D01*
X36220Y-19488D02*
X36220Y-61811D01*
X10629Y-19488D02*
X36220Y-19488D01*
X10629Y-61811D02*
X10629Y-19488D01*
G54D13*
X22762Y-39281D03*
X22762Y-38966D03*
X22762Y-38651D03*
X22762Y-38336D03*
X22762Y-38021D03*
X22762Y-37706D03*
X22762Y-37391D03*
X22762Y-37076D03*
X18996Y-37078D03*
X18996Y-39288D03*
X18996Y-38968D03*
X18996Y-38648D03*
X18996Y-38338D03*
X18996Y-38018D03*
X18996Y-37708D03*
X18996Y-37388D03*
G54D14*
X21978Y-36288D03*
X21664Y-36288D03*
X21348Y-36288D03*
X21034Y-36288D03*
X20718Y-36288D03*
X20404Y-36288D03*
X20088Y-36288D03*
X19774Y-36288D03*
X21976Y-40068D03*
X21666Y-40068D03*
X21346Y-40068D03*
X21036Y-40068D03*
X20726Y-40068D03*
X20406Y-40068D03*
X20086Y-40068D03*
X19766Y-40068D03*
G54D15*
X23425Y-29724D03*
X12598Y-53149D03*
X12598Y-59842D03*
X34251Y-59842D03*
X34251Y-53149D03*
G54D16*
X25224Y-34618D03*
G54D15*
X24224Y-34618D03*
X24224Y-35618D03*
G54D17*
X14645Y-27181D03*
G54D18*
X14645Y-26681D03*
X14645Y-25681D03*
X14645Y-25181D03*
G54D17*
X22913Y-27181D03*
G54D18*
X22913Y-26681D03*
X22913Y-25681D03*
X22913Y-25181D03*
G54D17*
X17401Y-27181D03*
G54D18*
X17401Y-26681D03*
X17401Y-25681D03*
X17401Y-25181D03*
G54D17*
X25669Y-27181D03*
G54D18*
X25669Y-26681D03*
X25669Y-25681D03*
X25669Y-25181D03*
G54D17*
X28425Y-27181D03*
G54D18*
X28425Y-26681D03*
X28425Y-25681D03*
X28425Y-25181D03*
G54D17*
X20157Y-27181D03*
G54D18*
X20157Y-26681D03*
X20157Y-25681D03*
X20157Y-25181D03*
G54D15*
X13992Y-39885D03*
X11992Y-39885D03*
X13992Y-36885D03*
X11992Y-36885D03*
X13992Y-35122D03*
X11992Y-35122D03*
X13992Y-32122D03*
X11992Y-32122D03*
X13992Y-44649D03*
X11992Y-44649D03*
X13992Y-41649D03*
X11992Y-41649D03*
G54D19*
X19094Y-29152D03*
X19094Y-29902D03*
X25787Y-29152D03*
X25787Y-29902D03*
X21062Y-29152D03*
X21062Y-29902D03*
G54D20*
X21275Y-43900D03*
X22025Y-43900D03*
X24370Y-48153D03*
X25120Y-48153D03*
G54D19*
X27755Y-29152D03*
X27755Y-29902D03*
G54D20*
X20165Y-46090D03*
X20915Y-46090D03*
G54D19*
X18110Y-29152D03*
X18110Y-29902D03*
X17913Y-21121D03*
X17913Y-21871D03*
X22244Y-21081D03*
X22244Y-21831D03*
X14566Y-20097D03*
X14566Y-20847D03*
G54D20*
X12223Y-25196D03*
X12973Y-25196D03*
G54D19*
X28740Y-29152D03*
X28740Y-29902D03*
X25196Y-40373D03*
X25196Y-41123D03*
G54D20*
X14745Y-33110D03*
X13995Y-33110D03*
X13995Y-34133D03*
X14745Y-34133D03*
X28721Y-37795D03*
X27971Y-37795D03*
X28875Y-41814D03*
X28125Y-41814D03*
X30905Y-40354D03*
X31655Y-40354D03*
X14725Y-38350D03*
X13975Y-38350D03*
G54D19*
X15669Y-38209D03*
X15669Y-37459D03*
X15905Y-40176D03*
X15905Y-40926D03*
G54D20*
X28721Y-36417D03*
X27971Y-36417D03*
G54D19*
X26771Y-29152D03*
X26771Y-29902D03*
X20078Y-29152D03*
X20078Y-29902D03*
X23031Y-40373D03*
X23031Y-41123D03*
G54D16*
X15944Y-35161D03*
G54D15*
X15944Y-34161D03*
X15944Y-33161D03*
X15944Y-32161D03*
G54D16*
X34751Y-40960D03*
G54D15*
X33751Y-40960D03*
X34751Y-39960D03*
X33751Y-39960D03*
X34751Y-38960D03*
X33751Y-38960D03*
G54D16*
X30921Y-20275D03*
G54D15*
X29921Y-20275D03*
X28921Y-20275D03*
G54D16*
X26590Y-20275D03*
G54D15*
X25590Y-20275D03*
X24590Y-20275D03*
G54D16*
X22259Y-20275D03*
G54D15*
X21259Y-20275D03*
X20259Y-20275D03*
G54D16*
X11417Y-25181D03*
G54D15*
X11417Y-26181D03*
X11417Y-27181D03*
G54D16*
X17929Y-20275D03*
G54D15*
X16929Y-20275D03*
X15929Y-20275D03*
G54D16*
X13598Y-20275D03*
G54D15*
X12598Y-20275D03*
X11598Y-20275D03*
G54D16*
X21901Y-42834D03*
G54D15*
X22901Y-42834D03*
G54D16*
X25106Y-42834D03*
G54D15*
X24106Y-42834D03*
G54D16*
X25500Y-45000D03*
G54D15*
X25500Y-46000D03*
G54D16*
X33488Y-36614D03*
G54D15*
X34488Y-36614D03*
X35488Y-36614D03*
G54D16*
X33488Y-33976D03*
G54D15*
X34488Y-33976D03*
X35488Y-33976D03*
G54D21*
X22604Y-43898D03*
X22860Y-43898D03*
X23116Y-43898D03*
X23372Y-43898D03*
X23628Y-43898D03*
X23884Y-43898D03*
X24140Y-43898D03*
X24396Y-43898D03*
X24396Y-46102D03*
X24140Y-46102D03*
X23884Y-46102D03*
X23628Y-46102D03*
X23372Y-46102D03*
X23116Y-46102D03*
X22860Y-46102D03*
X22604Y-46102D03*
G54D22*
X23500Y-45000D03*
G54D23*
X26098Y-40736D03*
X24098Y-40736D03*
G54D15*
X20750Y-45100D03*
X21750Y-45100D03*
X31300Y-38300D03*
X31300Y-39300D03*
X31720Y-42755D03*
X30720Y-42755D03*
X22500Y-47500D03*
X23500Y-47500D03*
G54D24*
X34055Y-43763D03*
G54D25*
X34055Y-45606D03*
G54D24*
X34055Y-29787D03*
G54D25*
X34055Y-31590D03*
G54D15*
X11574Y-30354D03*
X12716Y-30354D03*
X13858Y-30354D03*
X15000Y-30354D03*
G54D26*
X29493Y-33948D03*
X29493Y-33448D03*
X29493Y-35448D03*
X29493Y-34948D03*
X29493Y-34448D03*
G54D27*
X27343Y-34448D03*
G54D26*
X29493Y-39263D03*
X29493Y-38763D03*
X29493Y-40763D03*
X29493Y-40263D03*
X29493Y-39763D03*
G54D27*
X27343Y-39763D03*
G54D19*
X30905Y-21081D03*
X30905Y-21831D03*
X26574Y-21081D03*
X26574Y-21831D03*
G54D20*
X35611Y-28149D03*
X34861Y-28149D03*
G54D19*
X32283Y-21831D03*
X32283Y-21081D03*
G54D16*
X35251Y-20275D03*
G54D15*
X34251Y-20275D03*
X33251Y-20275D03*
G54D16*
X35629Y-27181D03*
G54D15*
X35629Y-26181D03*
X35629Y-25181D03*
G54D17*
X33937Y-27181D03*
G54D18*
X33937Y-26681D03*
X33937Y-25681D03*
X33937Y-25181D03*
G54D17*
X31181Y-27181D03*
G54D18*
X31181Y-26681D03*
X31181Y-25681D03*
X31181Y-25181D03*
G54D15*
X12598Y-22637D03*
X34251Y-22637D03*
X31141Y-36850D03*
X29960Y-36850D03*
G54D28*
X25866Y-35629D03*
X32834Y-38070D03*
X20826Y-48188D03*
X18307Y-48228D03*
X21417Y-47440D03*
X19133Y-47401D03*
X25944Y-36811D03*
X28110Y-46889D03*
X25472Y-50944D03*
X25078Y-37362D03*
X22244Y-53775D03*
X12165Y-46023D03*
X18976Y-40393D03*
X18661Y-41338D03*
X26299Y-43818D03*
X28720Y-43670D03*
X32140Y-41390D03*
X22860Y-36210D03*
X19881Y-42637D03*
X21771Y-34448D03*
X30275Y-37874D03*
X17755Y-40826D03*
X33188Y-49881D03*
X35748Y-40039D03*
X23228Y-49803D03*
X16574Y-39055D03*
X12244Y-26102D03*
X16929Y-37204D03*
X15600Y-22310D03*
X17677Y-36653D03*
X16929Y-21732D03*
X18622Y-36299D03*
X19133Y-20275D03*
X18779Y-34803D03*
X23425Y-20275D03*
X19100Y-33680D03*
X27716Y-20275D03*
X20157Y-33661D03*
X32125Y-20314D03*
X21062Y-33661D03*
X27795Y-32362D03*
X26496Y-33543D03*
X11102Y-35629D03*
X14881Y-37440D03*
X14921Y-35472D03*
X30420Y-41180D03*
X31850Y-34645D03*
G54D29*
X24224Y-35618D02*
X25854Y-35618D01*
X25854Y-35618D02*
X25866Y-35629D01*
X31300Y-38300D02*
X32605Y-38300D01*
X32605Y-38300D02*
X32834Y-38070D01*
X29645Y-37480D02*
X29645Y-37165D01*
X29645Y-37165D02*
X29960Y-36850D01*
X29645Y-37165D02*
X29960Y-36850D01*
X30040Y-38450D02*
X30024Y-38450D01*
X30024Y-38450D02*
X29645Y-38070D01*
X29645Y-38070D02*
X29645Y-37480D01*
X29645Y-37480D02*
X29645Y-37450D01*
X29645Y-37450D02*
X29645Y-37440D01*
X30650Y-38450D02*
X30040Y-38450D01*
X29960Y-36850D02*
X31141Y-36850D01*
X30795Y-38305D02*
X31295Y-38305D01*
X31295Y-38305D02*
X31300Y-38300D01*
X30436Y-39263D02*
X30650Y-39050D01*
X30650Y-39050D02*
X30650Y-38450D01*
X30650Y-38450D02*
X30795Y-38305D01*
X30795Y-38305D02*
X30800Y-38300D01*
X29493Y-39263D02*
X30436Y-39263D01*
G54D11*
X32605Y-38300D02*
X32834Y-38070D01*
X30750Y-38349D02*
X30650Y-38450D01*
X30024Y-38450D02*
X29842Y-38267D01*
X29645Y-37440D02*
X29645Y-38070D01*
X29645Y-38070D02*
X29842Y-38267D01*
X30800Y-38300D02*
X31300Y-38300D01*
X30750Y-38349D02*
X30800Y-38300D01*
G54D29*
X18346Y-38968D02*
X17802Y-38968D01*
X15905Y-39645D02*
X17125Y-39645D01*
X17802Y-38968D02*
X18070Y-38968D01*
X17125Y-39645D02*
X17440Y-39330D01*
X17440Y-39330D02*
X17802Y-38968D01*
X14725Y-38897D02*
X14725Y-39213D01*
X15157Y-39645D02*
X15905Y-39645D01*
X14725Y-39213D02*
X15157Y-39645D01*
X18996Y-38968D02*
X18346Y-38968D01*
X18346Y-38968D02*
X18070Y-38968D01*
X15905Y-39645D02*
X15905Y-40176D01*
X15000Y-30354D02*
X13858Y-30354D01*
X15944Y-32161D02*
X15944Y-30634D01*
X15664Y-30354D02*
X15000Y-30354D01*
X15944Y-30634D02*
X15664Y-30354D01*
X14745Y-33110D02*
X14745Y-32354D01*
X14938Y-32161D02*
X15944Y-32161D01*
X14745Y-32354D02*
X14938Y-32161D01*
X13858Y-30354D02*
X13858Y-31191D01*
X13858Y-31191D02*
X13410Y-31640D01*
X13410Y-31640D02*
X13110Y-31640D01*
X13110Y-31640D02*
X12834Y-31915D01*
X12834Y-31915D02*
X12834Y-41338D01*
X13858Y-30354D02*
X13858Y-25431D01*
X13858Y-25431D02*
X14108Y-25181D01*
X14108Y-25181D02*
X14645Y-25181D01*
X22762Y-38021D02*
X25993Y-38021D01*
X25993Y-38021D02*
X26520Y-37495D01*
X27240Y-32870D02*
X28318Y-33948D01*
X26160Y-32870D02*
X27240Y-32870D01*
X25950Y-33080D02*
X26160Y-32870D01*
X25950Y-34360D02*
X25950Y-33080D01*
X26520Y-34930D02*
X25950Y-34360D01*
X26520Y-37495D02*
X26520Y-34930D01*
X28318Y-33948D02*
X29493Y-33948D01*
X16236Y-51670D02*
X12834Y-48267D01*
X12834Y-48267D02*
X12834Y-41338D01*
X12834Y-41338D02*
X13503Y-40669D01*
X13503Y-40669D02*
X14566Y-40669D01*
X14566Y-40669D02*
X14725Y-40511D01*
X14725Y-40511D02*
X14725Y-39016D01*
X14725Y-39016D02*
X14725Y-38897D01*
X14725Y-38897D02*
X14725Y-38350D01*
X33200Y-42755D02*
X35039Y-42755D01*
X32410Y-51670D02*
X16236Y-51670D01*
X35250Y-48830D02*
X32410Y-51670D01*
X35250Y-42966D02*
X35250Y-48830D01*
X35039Y-42755D02*
X35250Y-42966D01*
X31720Y-42755D02*
X33200Y-42755D01*
X33200Y-42755D02*
X33204Y-42755D01*
X33751Y-42208D02*
X33751Y-40960D01*
X33204Y-42755D02*
X33751Y-42208D01*
X22762Y-38651D02*
X21859Y-38651D01*
X21859Y-38651D02*
X21542Y-38968D01*
X21542Y-38968D02*
X18996Y-38968D01*
X17401Y-25181D02*
X14645Y-25181D01*
X20157Y-25181D02*
X17401Y-25181D01*
X22913Y-25181D02*
X20157Y-25181D01*
X25669Y-25181D02*
X22913Y-25181D01*
X31181Y-25181D02*
X28425Y-25181D01*
X33937Y-25181D02*
X31181Y-25181D01*
G54D11*
X12834Y-46259D02*
X12834Y-48267D01*
X12834Y-44409D02*
X12834Y-41456D01*
X12834Y-46259D02*
X12834Y-44409D01*
X29493Y-33948D02*
X28318Y-33948D01*
X25669Y-25181D02*
X28425Y-25181D01*
X14725Y-38350D02*
X14725Y-40511D01*
X14725Y-40511D02*
X14566Y-40669D01*
X12834Y-41456D02*
X12834Y-41338D01*
X12834Y-41338D02*
X13503Y-40669D01*
X13503Y-40669D02*
X14566Y-40669D01*
X21542Y-38968D02*
X21859Y-38651D01*
G54D29*
X34055Y-47559D02*
X34055Y-45606D01*
G54D12*
X23628Y-46102D02*
X23628Y-46620D01*
X24370Y-47362D02*
X24370Y-48153D01*
X23628Y-46620D02*
X24370Y-47362D01*
G54D29*
X20750Y-45100D02*
X20750Y-44131D01*
X20981Y-43900D02*
X21275Y-43900D01*
X20750Y-44131D02*
X20981Y-43900D01*
X20165Y-46090D02*
X20165Y-45365D01*
X20165Y-45365D02*
X20430Y-45100D01*
X20430Y-45100D02*
X20750Y-45100D01*
X24645Y-48906D02*
X20441Y-48906D01*
X20165Y-48629D02*
X20165Y-46090D01*
X20441Y-48906D02*
X20165Y-48629D01*
X34055Y-45685D02*
X34055Y-47559D01*
X34055Y-47559D02*
X34055Y-48464D01*
X33613Y-48906D02*
X24645Y-48906D01*
X24645Y-48906D02*
X24576Y-48906D01*
X34055Y-48464D02*
X33613Y-48906D01*
X24576Y-48906D02*
X24370Y-48700D01*
X24370Y-48700D02*
X24370Y-48153D01*
G54D11*
X24370Y-48153D02*
X24370Y-48700D01*
X24370Y-48700D02*
X24576Y-48906D01*
X20165Y-45365D02*
X20430Y-45100D01*
X20430Y-45100D02*
X20750Y-45100D01*
G54D29*
X21978Y-36288D02*
X21978Y-36958D01*
X21978Y-36958D02*
X21811Y-37125D01*
X21811Y-37125D02*
X19842Y-37125D01*
X13992Y-36885D02*
X16066Y-36885D01*
X18907Y-35600D02*
X19448Y-36141D01*
X17352Y-35600D02*
X18907Y-35600D01*
X16066Y-36885D02*
X17352Y-35600D01*
X13975Y-38350D02*
X13975Y-36902D01*
X13975Y-36902D02*
X13992Y-36885D01*
X13975Y-38350D02*
X13975Y-39868D01*
X13975Y-39868D02*
X13992Y-39885D01*
G54D11*
X19448Y-36732D02*
X19448Y-36141D01*
X21978Y-36958D02*
X21811Y-37125D01*
X19842Y-37125D02*
X19448Y-36732D01*
X13975Y-39868D02*
X13992Y-39885D01*
G54D29*
X19901Y-41555D02*
X19910Y-41555D01*
X20406Y-41059D02*
X20406Y-40068D01*
X19910Y-41555D02*
X20406Y-41059D01*
X19803Y-41653D02*
X19615Y-41653D01*
X19901Y-41555D02*
X19803Y-41653D01*
X14960Y-42086D02*
X14523Y-41649D01*
X19182Y-42086D02*
X14960Y-42086D01*
X19615Y-41653D02*
X19182Y-42086D01*
X13992Y-41649D02*
X14523Y-41649D01*
X15905Y-40926D02*
X15905Y-41023D01*
X15279Y-41649D02*
X13992Y-41649D01*
X15905Y-41023D02*
X15279Y-41649D01*
X13992Y-44649D02*
X13992Y-41649D01*
G54D12*
X22860Y-43622D02*
X22860Y-43489D01*
X22755Y-43385D02*
X22125Y-43385D01*
X22860Y-43489D02*
X22755Y-43385D01*
X22860Y-43898D02*
X22860Y-43622D01*
X21901Y-43240D02*
X21901Y-42834D01*
X22047Y-43385D02*
X21901Y-43240D01*
X22125Y-43385D02*
X22047Y-43385D01*
X23372Y-43898D02*
X23372Y-42978D01*
X23228Y-42834D02*
X22901Y-42834D01*
X23372Y-42978D02*
X23228Y-42834D01*
X24140Y-43898D02*
X24140Y-43497D01*
X25106Y-43200D02*
X25106Y-42834D01*
X24921Y-43385D02*
X25106Y-43200D01*
X24251Y-43385D02*
X24921Y-43385D01*
X24140Y-43497D02*
X24251Y-43385D01*
X23628Y-43898D02*
X23628Y-42986D01*
X23779Y-42834D02*
X24106Y-42834D01*
X23628Y-42986D02*
X23779Y-42834D01*
X20826Y-48188D02*
X20826Y-47165D01*
X20826Y-47165D02*
X21890Y-46102D01*
X21890Y-46102D02*
X22604Y-46102D01*
G54D29*
X21666Y-40068D02*
X21666Y-41325D01*
X20039Y-43307D02*
X20039Y-44030D01*
X20472Y-42874D02*
X20039Y-43307D01*
X20472Y-42519D02*
X20472Y-42874D01*
X21666Y-41325D02*
X20472Y-42519D01*
X20039Y-44030D02*
X19896Y-44173D01*
X20039Y-44030D02*
X19896Y-44173D01*
G54D11*
X21890Y-46102D02*
X20826Y-47165D01*
X22604Y-46102D02*
X21890Y-46102D01*
G54D29*
X19896Y-44173D02*
X18622Y-44173D01*
X18622Y-44173D02*
X18307Y-44488D01*
X18307Y-44488D02*
X18307Y-48228D01*
G54D12*
X22860Y-46102D02*
X22860Y-46588D01*
X22860Y-46588D02*
X22637Y-46811D01*
X22637Y-46811D02*
X22047Y-46811D01*
X22047Y-46811D02*
X21417Y-47440D01*
G54D29*
X21976Y-40068D02*
X21976Y-41645D01*
X20866Y-43188D02*
X20511Y-43543D01*
X20866Y-42755D02*
X20866Y-43188D01*
X21976Y-41645D02*
X20866Y-42755D01*
X19133Y-44842D02*
X19133Y-47401D01*
X19488Y-44488D02*
X19133Y-44842D01*
X20157Y-44488D02*
X19488Y-44488D01*
X20393Y-44251D02*
X20157Y-44488D01*
X20393Y-43661D02*
X20393Y-44251D01*
X20511Y-43543D02*
X20393Y-43661D01*
G54D11*
X22860Y-46588D02*
X22637Y-46811D01*
X22637Y-46811D02*
X22047Y-46811D01*
X22047Y-46811D02*
X21417Y-47440D01*
X24396Y-46102D02*
X25398Y-46102D01*
X25398Y-46102D02*
X25500Y-46000D01*
G54D29*
X24370Y-36790D02*
X25924Y-36790D01*
X25924Y-36790D02*
X25944Y-36811D01*
G54D12*
X25669Y-46929D02*
X28070Y-46929D01*
X28070Y-46929D02*
X28110Y-46889D01*
X24140Y-46344D02*
X24724Y-46929D01*
X24724Y-46929D02*
X25669Y-46929D01*
X24140Y-46102D02*
X24140Y-46344D01*
G54D29*
X24310Y-36790D02*
X24370Y-36790D01*
X24023Y-37076D02*
X24310Y-36790D01*
X22762Y-37076D02*
X24023Y-37076D01*
X20334Y-41555D02*
X19881Y-42007D01*
X19881Y-42007D02*
X19685Y-42007D01*
X17480Y-44212D02*
X17480Y-45393D01*
X19685Y-42007D02*
X17480Y-44212D01*
X21036Y-40068D02*
X21036Y-40853D01*
X17677Y-50944D02*
X25472Y-50944D01*
X17480Y-50748D02*
X17677Y-50944D01*
X17480Y-45393D02*
X17480Y-50748D01*
X21036Y-40853D02*
X20334Y-41555D01*
X22762Y-37391D02*
X25048Y-37391D01*
X25048Y-37391D02*
X25078Y-37362D01*
X22244Y-52914D02*
X22244Y-53775D01*
X28858Y-52125D02*
X23032Y-52125D01*
X23032Y-52125D02*
X22244Y-52914D01*
X32598Y-52125D02*
X34133Y-50590D01*
X35708Y-48267D02*
X35710Y-48267D01*
X35708Y-50078D02*
X35708Y-48267D01*
X35196Y-50590D02*
X35708Y-50078D01*
X34133Y-50590D02*
X35196Y-50590D01*
X28858Y-52125D02*
X32598Y-52125D01*
X19766Y-40068D02*
X19766Y-40627D01*
X19645Y-40748D02*
X19330Y-40748D01*
X19766Y-40627D02*
X19645Y-40748D01*
X19330Y-40748D02*
X18976Y-40393D01*
X21574Y-52244D02*
X15984Y-52244D01*
X22244Y-52914D02*
X21574Y-52244D01*
X15984Y-52244D02*
X12165Y-48425D01*
X12165Y-48425D02*
X12165Y-46023D01*
X34751Y-40960D02*
X34751Y-41841D01*
X34751Y-41841D02*
X35710Y-42800D01*
X35710Y-42800D02*
X35710Y-48267D01*
G54D11*
X15984Y-52244D02*
X12165Y-48425D01*
X19330Y-40748D02*
X18976Y-40393D01*
G54D29*
X20086Y-40068D02*
X20086Y-40780D01*
X20086Y-40780D02*
X19527Y-41338D01*
X19527Y-41338D02*
X18661Y-41338D01*
X20086Y-40780D02*
X20064Y-40780D01*
X19505Y-41338D02*
X18661Y-41338D01*
X20064Y-40780D02*
X19505Y-41338D01*
X25500Y-45000D02*
X25500Y-46000D01*
X25500Y-45000D02*
X26181Y-45000D01*
X26299Y-44881D02*
X26299Y-43818D01*
X26181Y-45000D02*
X26299Y-44881D01*
X26299Y-43818D02*
X28571Y-43818D01*
X28571Y-43818D02*
X28720Y-43670D01*
X32140Y-41390D02*
X32550Y-40980D01*
X32550Y-40980D02*
X32550Y-40350D01*
X32550Y-40350D02*
X32939Y-39960D01*
X32939Y-39960D02*
X33751Y-39960D01*
X22860Y-36210D02*
X22860Y-36060D01*
X23540Y-35380D02*
X23540Y-34790D01*
X22860Y-36060D02*
X23540Y-35380D01*
X23540Y-34790D02*
X23711Y-34618D01*
X23711Y-34618D02*
X24224Y-34618D01*
X23540Y-34790D02*
X23711Y-34618D01*
X23711Y-34618D02*
X24224Y-34618D01*
X21346Y-41173D02*
X21346Y-40068D01*
X19881Y-42637D02*
X21346Y-41173D01*
X23711Y-34618D02*
X24224Y-34618D01*
X21417Y-33060D02*
X21540Y-33060D01*
X21540Y-33060D02*
X21771Y-33291D01*
X21771Y-34448D02*
X21771Y-33291D01*
X21771Y-33291D02*
X21732Y-33252D01*
X14238Y-36050D02*
X13992Y-35803D01*
X16220Y-36050D02*
X14238Y-36050D01*
X16811Y-35458D02*
X16220Y-36050D01*
X16811Y-33998D02*
X16811Y-35458D01*
X17750Y-33060D02*
X16811Y-33998D01*
X21417Y-33060D02*
X17750Y-33060D01*
X21732Y-33252D02*
X21540Y-33060D01*
X21771Y-34448D02*
X21771Y-34645D01*
X21338Y-35078D02*
X21338Y-35081D01*
X21771Y-34645D02*
X21338Y-35078D01*
X30275Y-37874D02*
X30669Y-37480D01*
X13992Y-35803D02*
X13992Y-35122D01*
X13992Y-35122D02*
X13992Y-34136D01*
X13992Y-34136D02*
X13995Y-34133D01*
X13995Y-34133D02*
X13995Y-33110D01*
X13995Y-33110D02*
X13995Y-32125D01*
X13995Y-32125D02*
X13992Y-32122D01*
X21034Y-36288D02*
X21034Y-35385D01*
X21034Y-35385D02*
X21338Y-35081D01*
X30669Y-37480D02*
X34448Y-37480D01*
X34448Y-37480D02*
X34751Y-37783D01*
X34751Y-37783D02*
X34751Y-38960D01*
G54D11*
X34751Y-37783D02*
X34751Y-38960D01*
X34448Y-37480D02*
X34751Y-37783D01*
X30669Y-37480D02*
X34448Y-37480D01*
X13992Y-35122D02*
X13992Y-35803D01*
X13995Y-32125D02*
X13992Y-32122D01*
G54D29*
X16968Y-32961D02*
X16968Y-33351D01*
X16158Y-34161D02*
X15944Y-34161D01*
X16968Y-33351D02*
X16158Y-34161D01*
X21348Y-36288D02*
X21348Y-35601D01*
X17220Y-32710D02*
X16968Y-32961D01*
X22310Y-32710D02*
X17220Y-32710D01*
X22650Y-33050D02*
X22310Y-32710D01*
X22650Y-34820D02*
X22650Y-33050D01*
X22310Y-35160D02*
X22650Y-34820D01*
X21790Y-35160D02*
X22310Y-35160D01*
X21348Y-35601D02*
X21790Y-35160D01*
X17755Y-40826D02*
X17755Y-40236D01*
X34751Y-39960D02*
X35669Y-39960D01*
X35669Y-39960D02*
X35748Y-40039D01*
G54D30*
X23228Y-49803D02*
X33110Y-49803D01*
X33110Y-49803D02*
X33188Y-49881D01*
G54D29*
X18290Y-39288D02*
X18270Y-39288D01*
X18270Y-39288D02*
X17755Y-39803D01*
X17755Y-39803D02*
X17755Y-40236D01*
X17755Y-40236D02*
X17755Y-40511D01*
X18996Y-39288D02*
X18290Y-39288D01*
G54D11*
X17755Y-39803D02*
X17755Y-40511D01*
X18270Y-39288D02*
X17755Y-39803D01*
X35748Y-40039D02*
X35669Y-39960D01*
G54D29*
X19094Y-29902D02*
X18110Y-29902D01*
X20078Y-29902D02*
X19094Y-29902D01*
X21062Y-29902D02*
X20078Y-29902D01*
X27755Y-29902D02*
X28740Y-29902D01*
X26771Y-29902D02*
X27755Y-29902D01*
X25787Y-29902D02*
X26771Y-29902D01*
X25224Y-32290D02*
X25224Y-32192D01*
X21062Y-31582D02*
X21062Y-29902D01*
X21330Y-31850D02*
X21062Y-31582D01*
X24881Y-31850D02*
X21330Y-31850D01*
X25224Y-32192D02*
X24881Y-31850D01*
X25224Y-34618D02*
X25224Y-32290D01*
X25224Y-32290D02*
X25224Y-32255D01*
X25224Y-32255D02*
X26771Y-30708D01*
X26771Y-30708D02*
X26771Y-29902D01*
X18228Y-38648D02*
X17335Y-38648D01*
X16929Y-39055D02*
X16574Y-39055D01*
X17335Y-38648D02*
X16929Y-39055D01*
X18996Y-38648D02*
X18228Y-38648D01*
X11417Y-26181D02*
X12165Y-26181D01*
X12165Y-26181D02*
X12244Y-26102D01*
X11417Y-27181D02*
X11417Y-26181D01*
G54D11*
X12165Y-26181D02*
X12244Y-26102D01*
G54D29*
X18996Y-37708D02*
X17708Y-37708D01*
X17708Y-37708D02*
X17283Y-37283D01*
X17283Y-37283D02*
X16929Y-37204D01*
X15600Y-22310D02*
X14800Y-22310D01*
X13513Y-21023D02*
X12853Y-21023D01*
X14800Y-22310D02*
X13513Y-21023D01*
X15570Y-22339D02*
X14780Y-22339D01*
X15600Y-22310D02*
X15570Y-22339D01*
X12598Y-20275D02*
X12598Y-20768D01*
X12598Y-20768D02*
X12853Y-21023D01*
X12853Y-21023D02*
X13464Y-21023D01*
X13464Y-21023D02*
X14780Y-22339D01*
X11598Y-20275D02*
X12598Y-20275D01*
X18582Y-37388D02*
X18176Y-37388D01*
X18176Y-37388D02*
X17677Y-36889D01*
X17677Y-36889D02*
X17677Y-36653D01*
X18996Y-37388D02*
X18582Y-37388D01*
X16929Y-20275D02*
X15929Y-20275D01*
X16929Y-20275D02*
X16929Y-21732D01*
X18996Y-37078D02*
X18575Y-37078D01*
X18503Y-36417D02*
X18622Y-36299D01*
X18503Y-37007D02*
X18503Y-36417D01*
X18575Y-37078D02*
X18503Y-37007D01*
X20259Y-20275D02*
X19133Y-20275D01*
X21259Y-20275D02*
X20259Y-20275D01*
X19276Y-35300D02*
X19410Y-35300D01*
X18779Y-34803D02*
X19276Y-35300D01*
X19774Y-36288D02*
X19774Y-35664D01*
X19774Y-35664D02*
X19410Y-35300D01*
X24590Y-20275D02*
X23425Y-20275D01*
X25590Y-20275D02*
X24590Y-20275D01*
X20088Y-36288D02*
X20088Y-35328D01*
X19094Y-34334D02*
X19100Y-33680D01*
X20088Y-35328D02*
X19094Y-34334D01*
X28921Y-20275D02*
X27716Y-20275D01*
X29921Y-20275D02*
X28921Y-20275D01*
X19881Y-34370D02*
X19881Y-33937D01*
X19881Y-33937D02*
X20157Y-33661D01*
X20404Y-36288D02*
X20404Y-34964D01*
X19881Y-34441D02*
X19881Y-34370D01*
X20404Y-34964D02*
X19881Y-34441D01*
X33251Y-20275D02*
X32165Y-20275D01*
X32165Y-20275D02*
X32125Y-20314D01*
X34251Y-20275D02*
X33251Y-20275D01*
X32165Y-20275D02*
X32125Y-20314D01*
G54D11*
X32125Y-20314D02*
X32165Y-20275D01*
G54D29*
X20718Y-36288D02*
X20718Y-34006D01*
X20718Y-34006D02*
X21062Y-33661D01*
X35629Y-26181D02*
X35031Y-26181D01*
X35031Y-26181D02*
X34531Y-25681D01*
X34531Y-25681D02*
X33937Y-25681D01*
X35629Y-26181D02*
X35629Y-25181D01*
G54D11*
X20718Y-34006D02*
X21062Y-33661D01*
G54D29*
X21664Y-36288D02*
X21664Y-35737D01*
X21664Y-35737D02*
X21921Y-35480D01*
X16418Y-33161D02*
X15944Y-33161D01*
X16620Y-32960D02*
X16418Y-33161D01*
X16620Y-32610D02*
X16620Y-32960D01*
X16870Y-32360D02*
X16620Y-32610D01*
X22490Y-32360D02*
X16870Y-32360D01*
X23060Y-32930D02*
X22490Y-32360D01*
X23060Y-35200D02*
X23060Y-32930D01*
X22780Y-35480D02*
X23060Y-35200D01*
X21921Y-35480D02*
X22780Y-35480D01*
X25196Y-40373D02*
X25196Y-39456D01*
X24706Y-38966D02*
X22762Y-38966D01*
X25196Y-39456D02*
X24706Y-38966D01*
X25196Y-40373D02*
X25735Y-40373D01*
X25735Y-40373D02*
X26098Y-40736D01*
G54D11*
X25735Y-40373D02*
X26098Y-40736D01*
G54D29*
X24098Y-40736D02*
X24098Y-39649D01*
X24098Y-39649D02*
X23730Y-39281D01*
X23730Y-39281D02*
X22762Y-39281D01*
X24098Y-40736D02*
X23735Y-40373D01*
X23735Y-40373D02*
X23031Y-40373D01*
G54D11*
X22762Y-39281D02*
X23730Y-39281D01*
X23730Y-39281D02*
X24098Y-39649D01*
X23031Y-40373D02*
X23735Y-40373D01*
G54D29*
X34861Y-28149D02*
X34861Y-28876D01*
X34055Y-29683D02*
X34055Y-29787D01*
X34861Y-28876D02*
X34055Y-29683D01*
X32755Y-29708D02*
X33976Y-29708D01*
X33976Y-29708D02*
X34055Y-29787D01*
X30041Y-29708D02*
X29780Y-29970D01*
X29780Y-29970D02*
X29780Y-31970D01*
X29780Y-31970D02*
X29387Y-32362D01*
X29387Y-32362D02*
X27795Y-32362D01*
X32755Y-29708D02*
X30041Y-29708D01*
X27143Y-33543D02*
X27343Y-33743D01*
X27343Y-33743D02*
X27343Y-34448D01*
X26496Y-33543D02*
X27143Y-33543D01*
X11207Y-35122D02*
X11992Y-35122D01*
X11102Y-35227D02*
X11207Y-35122D01*
X11102Y-35629D02*
X11102Y-35227D01*
X14745Y-34133D02*
X14745Y-35296D01*
X14745Y-35296D02*
X14921Y-35472D01*
X15944Y-35161D02*
X15232Y-35161D01*
X15232Y-35161D02*
X14921Y-35472D01*
X17913Y-21871D02*
X17913Y-21889D01*
X16574Y-23228D02*
X16574Y-23700D01*
X17913Y-21889D02*
X16574Y-23228D01*
X14566Y-20847D02*
X14941Y-20847D01*
X14941Y-20847D02*
X16574Y-22480D01*
G54D12*
X23372Y-46102D02*
X23372Y-47372D01*
X23372Y-47372D02*
X23500Y-47500D01*
X21750Y-45100D02*
X23400Y-45100D01*
X23400Y-45100D02*
X23500Y-45000D01*
X23116Y-43898D02*
X23116Y-44616D01*
X23116Y-44616D02*
X23500Y-45000D01*
X23884Y-43898D02*
X23884Y-44616D01*
X23884Y-44616D02*
X23500Y-45000D01*
X23372Y-46102D02*
X23372Y-45128D01*
X23372Y-45128D02*
X23500Y-45000D01*
X23372Y-47372D02*
X23500Y-47500D01*
G54D29*
X31181Y-26681D02*
X33937Y-26681D01*
X28425Y-26681D02*
X31181Y-26681D01*
X25669Y-26681D02*
X28425Y-26681D01*
X22913Y-26681D02*
X25669Y-26681D01*
X20157Y-26681D02*
X22913Y-26681D01*
X17401Y-26681D02*
X20157Y-26681D01*
X14645Y-26681D02*
X17401Y-26681D01*
X11992Y-41649D02*
X11992Y-39885D01*
X11992Y-44649D02*
X11992Y-41649D01*
X27343Y-39763D02*
X27343Y-42853D01*
X26023Y-43228D02*
X24251Y-45000D01*
X26968Y-43228D02*
X26023Y-43228D01*
X27343Y-42853D02*
X26968Y-43228D01*
X24251Y-45000D02*
X23500Y-45000D01*
X21750Y-45100D02*
X21750Y-45800D01*
X21750Y-45800D02*
X21460Y-46090D01*
X21460Y-46090D02*
X20915Y-46090D01*
X15669Y-37459D02*
X14900Y-37459D01*
X14900Y-37459D02*
X14881Y-37440D01*
X18996Y-38018D02*
X17349Y-38018D01*
X16357Y-37459D02*
X15669Y-37459D01*
X16732Y-37834D02*
X16357Y-37459D01*
X17165Y-37834D02*
X16732Y-37834D01*
X17349Y-38018D02*
X17165Y-37834D01*
X11992Y-39885D02*
X11992Y-36885D01*
X12716Y-30354D02*
X12716Y-27903D01*
X12973Y-27646D02*
X12973Y-25196D01*
X12716Y-27903D02*
X12973Y-27646D01*
X11574Y-30354D02*
X12716Y-30354D01*
X11992Y-32122D02*
X11992Y-30771D01*
X11992Y-30771D02*
X11574Y-30354D01*
X11992Y-35122D02*
X11992Y-32122D01*
X11992Y-36885D02*
X11992Y-35122D01*
X30720Y-42755D02*
X30720Y-42199D01*
X30720Y-42199D02*
X31100Y-41820D01*
X31100Y-41820D02*
X31100Y-41300D01*
X31100Y-41300D02*
X31655Y-40744D01*
X31655Y-40744D02*
X31655Y-40354D01*
X29493Y-34448D02*
X27343Y-34448D01*
X27971Y-36417D02*
X27971Y-34581D01*
X27971Y-34581D02*
X27838Y-34448D01*
X27838Y-34448D02*
X27343Y-34448D01*
X27971Y-37795D02*
X27971Y-36417D01*
X27971Y-37795D02*
X27971Y-39548D01*
X27756Y-39763D02*
X27343Y-39763D01*
X27971Y-39548D02*
X27756Y-39763D01*
X22762Y-38336D02*
X27893Y-38336D01*
X27971Y-38258D02*
X27971Y-37795D01*
X27893Y-38336D02*
X27971Y-38258D01*
X22762Y-37706D02*
X21362Y-37706D01*
X21362Y-37706D02*
X21050Y-38018D01*
X22762Y-38336D02*
X21368Y-38336D01*
X21368Y-38336D02*
X21050Y-38018D01*
X21050Y-38018D02*
X18996Y-38018D01*
X30905Y-21831D02*
X31554Y-21831D01*
X31554Y-21831D02*
X31740Y-21645D01*
X31740Y-21212D02*
X31871Y-21081D01*
X31740Y-21645D02*
X31740Y-21212D01*
X31871Y-21081D02*
X32283Y-21081D01*
X26574Y-21831D02*
X30905Y-21831D01*
X22244Y-21831D02*
X26574Y-21831D01*
X17913Y-21871D02*
X22204Y-21871D01*
X22204Y-21871D02*
X22244Y-21831D01*
X16574Y-22580D02*
X16574Y-22480D01*
X16574Y-23700D02*
X16574Y-22580D01*
X12973Y-25196D02*
X12973Y-24706D01*
X12973Y-24706D02*
X13260Y-24420D01*
X13260Y-24420D02*
X16310Y-24420D01*
X16310Y-24420D02*
X16574Y-24155D01*
X16574Y-24155D02*
X16574Y-23700D01*
X34861Y-28149D02*
X34861Y-27144D01*
X34861Y-27144D02*
X34397Y-26681D01*
X34397Y-26681D02*
X33937Y-26681D01*
X29493Y-39763D02*
X30836Y-39763D01*
X30836Y-39763D02*
X31300Y-39300D01*
X31655Y-40354D02*
X31655Y-39655D01*
X31655Y-39655D02*
X31300Y-39300D01*
X33751Y-38960D02*
X33412Y-39300D01*
X33412Y-39300D02*
X31300Y-39300D01*
X29493Y-39763D02*
X27343Y-39763D01*
X28125Y-41814D02*
X28125Y-39975D01*
X28125Y-39975D02*
X27913Y-39763D01*
X27913Y-39763D02*
X27343Y-39763D01*
X27343Y-39763D02*
X27343Y-40963D01*
X27343Y-40963D02*
X26771Y-41535D01*
X26771Y-41535D02*
X25590Y-41535D01*
X25590Y-41535D02*
X25196Y-41141D01*
X25196Y-41141D02*
X25196Y-41123D01*
X25196Y-41123D02*
X24784Y-41535D01*
X24784Y-41535D02*
X23228Y-41535D01*
X23228Y-41535D02*
X23031Y-41338D01*
X23031Y-41338D02*
X23031Y-41123D01*
G54D11*
X14881Y-37440D02*
X14900Y-37459D01*
X21368Y-38336D02*
X21050Y-38018D01*
X31655Y-39655D02*
X31300Y-39300D01*
X31692Y-21259D02*
X31871Y-21081D01*
X31871Y-21081D02*
X32283Y-21081D01*
X31692Y-21692D02*
X31692Y-21259D01*
X31554Y-21831D02*
X31692Y-21692D01*
X22204Y-21871D02*
X22244Y-21831D01*
X24251Y-45000D02*
X23500Y-45000D01*
X24251Y-45000D02*
X23500Y-45000D01*
X30836Y-39763D02*
X31300Y-39300D01*
X33937Y-26681D02*
X34397Y-26681D01*
X34397Y-26681D02*
X34861Y-27144D01*
X25196Y-41123D02*
X25196Y-41141D01*
X26771Y-41535D02*
X27343Y-40963D01*
X25590Y-41535D02*
X26771Y-41535D01*
X25196Y-41141D02*
X25590Y-41535D01*
X23031Y-41123D02*
X23031Y-41338D01*
X23228Y-41535D02*
X24784Y-41535D01*
X23031Y-41338D02*
X23228Y-41535D01*
X20915Y-46090D02*
X21460Y-46090D01*
X21460Y-46090D02*
X21750Y-45800D01*
X23372Y-47372D02*
X23500Y-47500D01*
X23372Y-45128D02*
X23500Y-45000D01*
X23884Y-44616D02*
X23500Y-45000D01*
X23116Y-44616D02*
X23500Y-45000D01*
X28125Y-39975D02*
X27913Y-39763D01*
X27913Y-39763D02*
X27343Y-39763D01*
X11992Y-32161D02*
X11992Y-30771D01*
X11992Y-32161D02*
X11992Y-35161D01*
X11992Y-36885D02*
X11992Y-35161D01*
X11992Y-30771D02*
X11574Y-30354D01*
G54D29*
X33488Y-36614D02*
X33488Y-36218D01*
X28964Y-37795D02*
X28721Y-37795D01*
X29240Y-37520D02*
X28964Y-37795D01*
X29240Y-36210D02*
X29240Y-37520D01*
X29520Y-35930D02*
X29240Y-36210D01*
X33200Y-35930D02*
X29520Y-35930D01*
X33488Y-36218D02*
X33200Y-35930D01*
X29493Y-38763D02*
X28813Y-38763D01*
X28813Y-38763D02*
X28721Y-38671D01*
X28721Y-38671D02*
X28721Y-37795D01*
X34488Y-36614D02*
X33488Y-36614D01*
G54D11*
X28721Y-37795D02*
X28721Y-38671D01*
X28721Y-38671D02*
X28813Y-38763D01*
G54D29*
X28875Y-42598D02*
X28875Y-42615D01*
X30023Y-43763D02*
X34055Y-43763D01*
X28875Y-42615D02*
X30023Y-43763D01*
X28875Y-42598D02*
X28875Y-41814D01*
X30420Y-41180D02*
X30433Y-41141D01*
X33488Y-33976D02*
X34488Y-33976D01*
X29493Y-35448D02*
X32897Y-35448D01*
X32897Y-35448D02*
X33488Y-34858D01*
X33488Y-34858D02*
X33488Y-33976D01*
X31850Y-34645D02*
X31850Y-34230D01*
X31490Y-33870D02*
X30390Y-33870D01*
X31850Y-34230D02*
X31490Y-33870D01*
X29493Y-33448D02*
X30168Y-33448D01*
X30168Y-33448D02*
X30390Y-33670D01*
X30390Y-33670D02*
X30390Y-33870D01*
X30211Y-35448D02*
X29493Y-35448D01*
X30390Y-33870D02*
X30390Y-35270D01*
X30390Y-35270D02*
X30211Y-35448D01*
X28875Y-41814D02*
X28875Y-40975D01*
X28875Y-40975D02*
X29086Y-40763D01*
X29086Y-40763D02*
X29493Y-40763D01*
X30433Y-41141D02*
X30055Y-40763D01*
X30055Y-40763D02*
X29493Y-40763D01*
G54D11*
X29493Y-40763D02*
X30055Y-40763D01*
X30055Y-40763D02*
X30433Y-41141D01*
X32897Y-35448D02*
X33488Y-34858D01*
X33488Y-34858D02*
X33488Y-33976D01*
X29948Y-33448D02*
X29493Y-33448D01*
X29493Y-33448D02*
X29948Y-33448D01*
X28875Y-40975D02*
X29086Y-40763D01*
X29086Y-40763D02*
X29493Y-40763D01*
G54D29*
X18996Y-38338D02*
X17197Y-38338D01*
X17197Y-38338D02*
X17067Y-38209D01*
X17067Y-38209D02*
X15669Y-38209D01*
G54D11*
X17067Y-38209D02*
X15669Y-38209D01*
X17197Y-38338D02*
X17067Y-38209D01*
G54D29*
X28721Y-36417D02*
X28721Y-35118D01*
X28891Y-34948D02*
X29493Y-34948D01*
X28721Y-35118D02*
X28891Y-34948D01*
X29493Y-40263D02*
X30814Y-40263D01*
X30814Y-40263D02*
X30905Y-40354D01*
G54D11*
X30814Y-40263D02*
X30905Y-40354D01*
X30814Y-40263D02*
X30905Y-40354D01*
G54D12*
X22604Y-43898D02*
X22027Y-43898D01*
X22027Y-43898D02*
X22025Y-43900D01*
G54D11*
X22027Y-43898D02*
X22025Y-43900D01*
G54D12*
X23884Y-46102D02*
X23884Y-46482D01*
X23884Y-46482D02*
X25120Y-47718D01*
G54D29*
X25120Y-47718D02*
X25120Y-48153D01*
G54D12*
X23116Y-46102D02*
X23116Y-46884D01*
X23116Y-46884D02*
X22500Y-47500D01*
G54D11*
X23116Y-46884D02*
X22500Y-47500D01*
G54D29*
X26771Y-29152D02*
X26771Y-27378D01*
X26968Y-27181D02*
X28425Y-27181D01*
X26771Y-27378D02*
X26968Y-27181D01*
X25787Y-29152D02*
X25787Y-27298D01*
X25787Y-27298D02*
X25669Y-27181D01*
G54D11*
X25787Y-27298D02*
X25669Y-27181D01*
G54D29*
X27755Y-29152D02*
X27755Y-28214D01*
X31181Y-27538D02*
X31181Y-27181D01*
X30940Y-27780D02*
X31181Y-27538D01*
X28190Y-27780D02*
X30940Y-27780D01*
X27755Y-28214D02*
X28190Y-27780D01*
X20078Y-29152D02*
X20078Y-27260D01*
X20078Y-27260D02*
X20157Y-27181D01*
G54D11*
X20078Y-27260D02*
X20157Y-27181D01*
X30921Y-20275D02*
X30921Y-21065D01*
X30921Y-21065D02*
X30905Y-21081D01*
G54D29*
X12223Y-25196D02*
X11433Y-25196D01*
X11433Y-25196D02*
X11417Y-25181D01*
X14566Y-20097D02*
X13776Y-20097D01*
X13776Y-20097D02*
X13598Y-20275D01*
G54D11*
X13776Y-20097D02*
X13598Y-20275D01*
G54D29*
X17929Y-20275D02*
X17929Y-21105D01*
X17929Y-21105D02*
X17913Y-21121D01*
G54D11*
X17929Y-21105D02*
X17913Y-21121D01*
G54D29*
X17401Y-27181D02*
X18781Y-27181D01*
X19094Y-27494D02*
X19094Y-29152D01*
X18781Y-27181D02*
X19094Y-27494D01*
X18110Y-29152D02*
X18110Y-28267D01*
X18110Y-28267D02*
X17792Y-27950D01*
X15441Y-27181D02*
X14645Y-27181D01*
X16210Y-27950D02*
X15441Y-27181D01*
X17792Y-27950D02*
X16210Y-27950D01*
X26590Y-20275D02*
X26590Y-21065D01*
X26590Y-21065D02*
X26574Y-21081D01*
X35611Y-28149D02*
X35611Y-27199D01*
X35611Y-27199D02*
X35629Y-27181D01*
G54D11*
X35611Y-27199D02*
X35629Y-27181D01*
G54D29*
X35251Y-20275D02*
X35251Y-20732D01*
X35251Y-20732D02*
X35064Y-20920D01*
X35064Y-20920D02*
X33512Y-20920D01*
X33512Y-20920D02*
X32922Y-21510D01*
X32922Y-21510D02*
X32605Y-21510D01*
X32605Y-21510D02*
X32283Y-21831D01*
X32283Y-21831D02*
X32619Y-21496D01*
X32936Y-21496D02*
X33512Y-20920D01*
X33512Y-20920D02*
X35064Y-20920D01*
X35064Y-20920D02*
X35251Y-20732D01*
X32619Y-21496D02*
X32936Y-21496D01*
G54D11*
X35251Y-20275D02*
X35251Y-20732D01*
G54D29*
X28740Y-29152D02*
X28740Y-28499D01*
X33937Y-28062D02*
X33937Y-27181D01*
X33732Y-28267D02*
X33937Y-28062D01*
X28972Y-28267D02*
X33732Y-28267D01*
X28740Y-28499D02*
X28972Y-28267D01*
X21062Y-29152D02*
X21062Y-27387D01*
X21268Y-27181D02*
X22913Y-27181D01*
X21062Y-27387D02*
X21268Y-27181D01*
X22259Y-20275D02*
X22259Y-21065D01*
X22259Y-21065D02*
X22244Y-21081D01*
X35488Y-32716D02*
X35488Y-32062D01*
X35015Y-31590D02*
X34055Y-31590D01*
X35488Y-32062D02*
X35015Y-31590D01*
X35488Y-32716D02*
X35488Y-33976D01*
X34425Y-31708D02*
X34055Y-31708D01*
X35488Y-36614D02*
X35488Y-33976D01*
G54D11*
X34425Y-31708D02*
X34055Y-31708D01*
G54D10*
G36*
X16002Y-35211D02*
X15994Y-35211D01*
X15994Y-35219D01*
X15894Y-35219D01*
X15894Y-35211D01*
X15363Y-35211D01*
X15301Y-35273D01*
X15301Y-35604D01*
X15339Y-35696D01*
X15352Y-35710D01*
X15170Y-35710D01*
X15170Y-34359D01*
X15170Y-34246D01*
X15107Y-34183D01*
X14795Y-34183D01*
X14795Y-34596D01*
X14857Y-34658D01*
X14969Y-34658D01*
X15061Y-34620D01*
X15131Y-34550D01*
X15170Y-34458D01*
X15170Y-34359D01*
X15170Y-35710D01*
X14379Y-35710D01*
X14343Y-35673D01*
X14356Y-35668D01*
X14537Y-35487D01*
X14635Y-35250D01*
X14635Y-34994D01*
X14538Y-34757D01*
X14357Y-34576D01*
X14356Y-34576D01*
X14370Y-34562D01*
X14428Y-34620D01*
X14520Y-34658D01*
X14632Y-34658D01*
X14695Y-34596D01*
X14695Y-34183D01*
X14687Y-34183D01*
X14687Y-34083D01*
X14695Y-34083D01*
X14695Y-34075D01*
X14795Y-34075D01*
X14795Y-34083D01*
X15107Y-34083D01*
X15170Y-34021D01*
X15170Y-33908D01*
X15170Y-33808D01*
X15131Y-33717D01*
X15061Y-33646D01*
X15001Y-33622D01*
X15061Y-33597D01*
X15131Y-33527D01*
X15170Y-33435D01*
X15170Y-33335D01*
X15170Y-32785D01*
X15132Y-32693D01*
X15085Y-32646D01*
X15085Y-32501D01*
X15388Y-32501D01*
X15398Y-32525D01*
X15534Y-32661D01*
X15399Y-32796D01*
X15301Y-33032D01*
X15301Y-33288D01*
X15398Y-33525D01*
X15534Y-33661D01*
X15399Y-33796D01*
X15301Y-34032D01*
X15301Y-34288D01*
X15398Y-34525D01*
X15423Y-34550D01*
X15409Y-34555D01*
X15339Y-34626D01*
X15301Y-34718D01*
X15301Y-35048D01*
X15363Y-35111D01*
X15894Y-35111D01*
X15894Y-35103D01*
X15994Y-35103D01*
X15994Y-35111D01*
X16002Y-35111D01*
X16002Y-35211D01*
X16002Y-35211D01*
G37*
G54D31*
X16002Y-35211D02*
X15994Y-35211D01*
X15994Y-35219D01*
X15894Y-35219D01*
X15894Y-35211D01*
X15363Y-35211D01*
X15301Y-35273D01*
X15301Y-35604D01*
X15339Y-35696D01*
X15352Y-35710D01*
X15170Y-35710D01*
X15170Y-34359D01*
X15170Y-34246D01*
X15107Y-34183D01*
X14795Y-34183D01*
X14795Y-34596D01*
X14857Y-34658D01*
X14969Y-34658D01*
X15061Y-34620D01*
X15131Y-34550D01*
X15170Y-34458D01*
X15170Y-34359D01*
X15170Y-35710D01*
X14379Y-35710D01*
X14343Y-35673D01*
X14356Y-35668D01*
X14537Y-35487D01*
X14635Y-35250D01*
X14635Y-34994D01*
X14538Y-34757D01*
X14357Y-34576D01*
X14356Y-34576D01*
X14370Y-34562D01*
X14428Y-34620D01*
X14520Y-34658D01*
X14632Y-34658D01*
X14695Y-34596D01*
X14695Y-34183D01*
X14687Y-34183D01*
X14687Y-34083D01*
X14695Y-34083D01*
X14695Y-34075D01*
X14795Y-34075D01*
X14795Y-34083D01*
X15107Y-34083D01*
X15170Y-34021D01*
X15170Y-33908D01*
X15170Y-33808D01*
X15131Y-33717D01*
X15061Y-33646D01*
X15001Y-33622D01*
X15061Y-33597D01*
X15131Y-33527D01*
X15170Y-33435D01*
X15170Y-33335D01*
X15170Y-32785D01*
X15132Y-32693D01*
X15085Y-32646D01*
X15085Y-32501D01*
X15388Y-32501D01*
X15398Y-32525D01*
X15534Y-32661D01*
X15399Y-32796D01*
X15301Y-33032D01*
X15301Y-33288D01*
X15398Y-33525D01*
X15534Y-33661D01*
X15399Y-33796D01*
X15301Y-34032D01*
X15301Y-34288D01*
X15398Y-34525D01*
X15423Y-34550D01*
X15409Y-34555D01*
X15339Y-34626D01*
X15301Y-34718D01*
X15301Y-35048D01*
X15363Y-35111D01*
X15894Y-35111D01*
X15894Y-35103D01*
X15994Y-35103D01*
X15994Y-35111D01*
X16002Y-35111D01*
X16002Y-35211D01*
G54D10*
G36*
X17542Y-37998D02*
X17338Y-37998D01*
X17308Y-37969D01*
X17198Y-37895D01*
X17067Y-37869D01*
X16132Y-37869D01*
X16097Y-37834D01*
X16156Y-37776D01*
X16194Y-37684D01*
X16194Y-37572D01*
X16131Y-37509D01*
X15719Y-37509D01*
X15719Y-37517D01*
X15619Y-37517D01*
X15619Y-37509D01*
X15206Y-37509D01*
X15144Y-37572D01*
X15144Y-37684D01*
X15182Y-37776D01*
X15240Y-37834D01*
X15182Y-37892D01*
X15144Y-37984D01*
X15144Y-38011D01*
X15112Y-37933D01*
X15041Y-37863D01*
X14949Y-37825D01*
X14850Y-37824D01*
X14500Y-37824D01*
X14408Y-37862D01*
X14349Y-37921D01*
X14315Y-37886D01*
X14315Y-37448D01*
X14356Y-37431D01*
X14537Y-37250D01*
X14547Y-37225D01*
X15148Y-37225D01*
X15144Y-37235D01*
X15144Y-37347D01*
X15206Y-37409D01*
X15619Y-37409D01*
X15619Y-37401D01*
X15719Y-37401D01*
X15719Y-37409D01*
X16131Y-37409D01*
X16194Y-37347D01*
X16194Y-37235D01*
X16181Y-37203D01*
X16197Y-37199D01*
X16307Y-37126D01*
X16344Y-37088D01*
X16344Y-37320D01*
X16433Y-37535D01*
X16597Y-37700D01*
X16812Y-37789D01*
X17044Y-37789D01*
X17231Y-37712D01*
X17468Y-37949D01*
X17542Y-37998D01*
X17542Y-37998D01*
G37*
G54D31*
X17542Y-37998D02*
X17338Y-37998D01*
X17308Y-37969D01*
X17198Y-37895D01*
X17067Y-37869D01*
X16132Y-37869D01*
X16097Y-37834D01*
X16156Y-37776D01*
X16194Y-37684D01*
X16194Y-37572D01*
X16131Y-37509D01*
X15719Y-37509D01*
X15719Y-37517D01*
X15619Y-37517D01*
X15619Y-37509D01*
X15206Y-37509D01*
X15144Y-37572D01*
X15144Y-37684D01*
X15182Y-37776D01*
X15240Y-37834D01*
X15182Y-37892D01*
X15144Y-37984D01*
X15144Y-38011D01*
X15112Y-37933D01*
X15041Y-37863D01*
X14949Y-37825D01*
X14850Y-37824D01*
X14500Y-37824D01*
X14408Y-37862D01*
X14349Y-37921D01*
X14315Y-37886D01*
X14315Y-37448D01*
X14356Y-37431D01*
X14537Y-37250D01*
X14547Y-37225D01*
X15148Y-37225D01*
X15144Y-37235D01*
X15144Y-37347D01*
X15206Y-37409D01*
X15619Y-37409D01*
X15619Y-37401D01*
X15719Y-37401D01*
X15719Y-37409D01*
X16131Y-37409D01*
X16194Y-37347D01*
X16194Y-37235D01*
X16181Y-37203D01*
X16197Y-37199D01*
X16307Y-37126D01*
X16344Y-37088D01*
X16344Y-37320D01*
X16433Y-37535D01*
X16597Y-37700D01*
X16812Y-37789D01*
X17044Y-37789D01*
X17231Y-37712D01*
X17468Y-37949D01*
X17542Y-37998D01*
G54D10*
G36*
X22262Y-37706D02*
X22227Y-37721D01*
X22197Y-37751D01*
X22181Y-37751D01*
X22118Y-37813D01*
X22118Y-37845D01*
X22126Y-37864D01*
X22118Y-37883D01*
X22118Y-37982D01*
X22118Y-38159D01*
X22126Y-38179D01*
X22118Y-38198D01*
X22118Y-38230D01*
X22175Y-38286D01*
X22118Y-38286D01*
X22118Y-38311D01*
X21859Y-38311D01*
X21729Y-38337D01*
X21693Y-38362D01*
X21619Y-38411D01*
X21402Y-38628D01*
X19639Y-38628D01*
X19639Y-38510D01*
X19632Y-38494D01*
X19639Y-38477D01*
X19639Y-38377D01*
X19639Y-38200D01*
X19630Y-38179D01*
X19639Y-38157D01*
X19639Y-38125D01*
X19577Y-38063D01*
X19555Y-38063D01*
X19531Y-38038D01*
X19496Y-38023D01*
X19531Y-38009D01*
X19565Y-37974D01*
X19577Y-37974D01*
X19639Y-37912D01*
X19639Y-37880D01*
X19632Y-37863D01*
X19639Y-37847D01*
X19639Y-37747D01*
X19639Y-37570D01*
X19630Y-37549D01*
X19639Y-37527D01*
X19639Y-37427D01*
X19639Y-37391D01*
X19712Y-37440D01*
X19842Y-37465D01*
X21811Y-37465D01*
X21811Y-37465D01*
X21941Y-37440D01*
X22051Y-37366D01*
X22118Y-37299D01*
X22118Y-37352D01*
X22118Y-37529D01*
X22126Y-37549D01*
X22118Y-37568D01*
X22118Y-37600D01*
X22181Y-37662D01*
X22197Y-37662D01*
X22226Y-37692D01*
X22262Y-37706D01*
X22262Y-37706D01*
G37*
G54D31*
X22262Y-37706D02*
X22227Y-37721D01*
X22197Y-37751D01*
X22181Y-37751D01*
X22118Y-37813D01*
X22118Y-37845D01*
X22126Y-37864D01*
X22118Y-37883D01*
X22118Y-37982D01*
X22118Y-38159D01*
X22126Y-38179D01*
X22118Y-38198D01*
X22118Y-38230D01*
X22175Y-38286D01*
X22118Y-38286D01*
X22118Y-38311D01*
X21859Y-38311D01*
X21729Y-38337D01*
X21693Y-38362D01*
X21619Y-38411D01*
X21402Y-38628D01*
X19639Y-38628D01*
X19639Y-38510D01*
X19632Y-38494D01*
X19639Y-38477D01*
X19639Y-38377D01*
X19639Y-38200D01*
X19630Y-38179D01*
X19639Y-38157D01*
X19639Y-38125D01*
X19577Y-38063D01*
X19555Y-38063D01*
X19531Y-38038D01*
X19496Y-38023D01*
X19531Y-38009D01*
X19565Y-37974D01*
X19577Y-37974D01*
X19639Y-37912D01*
X19639Y-37880D01*
X19632Y-37863D01*
X19639Y-37847D01*
X19639Y-37747D01*
X19639Y-37570D01*
X19630Y-37549D01*
X19639Y-37527D01*
X19639Y-37427D01*
X19639Y-37391D01*
X19712Y-37440D01*
X19842Y-37465D01*
X21811Y-37465D01*
X21811Y-37465D01*
X21941Y-37440D01*
X22051Y-37366D01*
X22118Y-37299D01*
X22118Y-37352D01*
X22118Y-37529D01*
X22126Y-37549D01*
X22118Y-37568D01*
X22118Y-37600D01*
X22181Y-37662D01*
X22197Y-37662D01*
X22226Y-37692D01*
X22262Y-37706D01*
G54D10*
G36*
X23981Y-48566D02*
X23883Y-48566D01*
X21276Y-48566D01*
X21322Y-48520D01*
X21411Y-48305D01*
X21411Y-48073D01*
X21391Y-48025D01*
X21533Y-48025D01*
X21748Y-47936D01*
X21912Y-47772D01*
X21914Y-47768D01*
X21953Y-47864D01*
X22134Y-48045D01*
X22371Y-48143D01*
X22627Y-48143D01*
X22864Y-48046D01*
X23032Y-47877D01*
X23046Y-47883D01*
X23429Y-47500D01*
X23423Y-47494D01*
X23494Y-47423D01*
X23500Y-47429D01*
X23505Y-47423D01*
X23576Y-47494D01*
X23570Y-47500D01*
X23576Y-47505D01*
X23505Y-47576D01*
X23500Y-47570D01*
X23116Y-47953D01*
X23155Y-48058D01*
X23395Y-48147D01*
X23651Y-48138D01*
X23844Y-48058D01*
X23883Y-47953D01*
X23883Y-47953D01*
X23928Y-47998D01*
X23944Y-47981D01*
X23944Y-48477D01*
X23981Y-48566D01*
X23981Y-48566D01*
G37*
G54D31*
X23981Y-48566D02*
X23883Y-48566D01*
X21276Y-48566D01*
X21322Y-48520D01*
X21411Y-48305D01*
X21411Y-48073D01*
X21391Y-48025D01*
X21533Y-48025D01*
X21748Y-47936D01*
X21912Y-47772D01*
X21914Y-47768D01*
X21953Y-47864D01*
X22134Y-48045D01*
X22371Y-48143D01*
X22627Y-48143D01*
X22864Y-48046D01*
X23032Y-47877D01*
X23046Y-47883D01*
X23429Y-47500D01*
X23423Y-47494D01*
X23494Y-47423D01*
X23500Y-47429D01*
X23505Y-47423D01*
X23576Y-47494D01*
X23570Y-47500D01*
X23576Y-47505D01*
X23505Y-47576D01*
X23500Y-47570D01*
X23116Y-47953D01*
X23155Y-48058D01*
X23395Y-48147D01*
X23651Y-48138D01*
X23844Y-48058D01*
X23883Y-47953D01*
X23883Y-47953D01*
X23928Y-47998D01*
X23944Y-47981D01*
X23944Y-48477D01*
X23981Y-48566D01*
G54D10*
G36*
X34411Y-38404D02*
X34387Y-38414D01*
X34219Y-38582D01*
X34205Y-38577D01*
X34135Y-38648D01*
X34135Y-38506D01*
X34096Y-38401D01*
X33856Y-38312D01*
X33600Y-38322D01*
X33407Y-38401D01*
X33368Y-38506D01*
X33751Y-38889D01*
X34135Y-38506D01*
X34135Y-38648D01*
X33822Y-38960D01*
X34205Y-39343D01*
X34219Y-39338D01*
X34341Y-39460D01*
X34251Y-39550D01*
X34129Y-39428D01*
X34135Y-39414D01*
X33751Y-39031D01*
X33681Y-39102D01*
X33681Y-38960D01*
X33298Y-38577D01*
X33193Y-38616D01*
X33103Y-38856D01*
X33113Y-39112D01*
X33193Y-39304D01*
X33298Y-39343D01*
X33681Y-38960D01*
X33681Y-39102D01*
X33368Y-39414D01*
X33374Y-39428D01*
X33206Y-39595D01*
X33196Y-39620D01*
X32939Y-39620D01*
X32830Y-39642D01*
X32809Y-39646D01*
X32698Y-39720D01*
X32309Y-40109D01*
X32235Y-40219D01*
X32210Y-40350D01*
X32210Y-40805D01*
X32024Y-40805D01*
X31996Y-40816D01*
X32042Y-40771D01*
X32080Y-40679D01*
X32080Y-40579D01*
X32080Y-40128D01*
X32080Y-40029D01*
X32042Y-39937D01*
X31971Y-39867D01*
X31947Y-39857D01*
X31947Y-39404D01*
X31938Y-39148D01*
X31858Y-38955D01*
X31753Y-38916D01*
X31370Y-39300D01*
X31753Y-39683D01*
X31858Y-39644D01*
X31947Y-39404D01*
X31947Y-39857D01*
X31880Y-39829D01*
X31768Y-39829D01*
X31705Y-39891D01*
X31705Y-40304D01*
X32018Y-40304D01*
X32080Y-40241D01*
X32080Y-40128D01*
X32080Y-40579D01*
X32080Y-40466D01*
X32018Y-40404D01*
X31705Y-40404D01*
X31705Y-40816D01*
X31768Y-40879D01*
X31844Y-40879D01*
X31809Y-40894D01*
X31644Y-41058D01*
X31555Y-41273D01*
X31555Y-41505D01*
X31644Y-41720D01*
X31808Y-41885D01*
X32023Y-41974D01*
X32255Y-41974D01*
X32470Y-41885D01*
X32635Y-41721D01*
X32724Y-41506D01*
X32724Y-41286D01*
X32790Y-41220D01*
X32864Y-41110D01*
X32889Y-40980D01*
X32890Y-40980D01*
X32890Y-40490D01*
X33080Y-40300D01*
X33195Y-40300D01*
X33205Y-40324D01*
X33341Y-40460D01*
X33206Y-40595D01*
X33108Y-40832D01*
X33108Y-41088D01*
X33205Y-41324D01*
X33386Y-41506D01*
X33411Y-41516D01*
X33411Y-42067D01*
X33063Y-42415D01*
X32276Y-42415D01*
X32266Y-42391D01*
X32085Y-42210D01*
X31849Y-42112D01*
X31592Y-42112D01*
X31356Y-42209D01*
X31187Y-42377D01*
X31174Y-42372D01*
X31103Y-42443D01*
X31103Y-42302D01*
X31064Y-42197D01*
X30824Y-42107D01*
X30568Y-42117D01*
X30376Y-42197D01*
X30337Y-42302D01*
X30720Y-42685D01*
X31103Y-42302D01*
X31103Y-42443D01*
X30791Y-42755D01*
X31174Y-43138D01*
X31188Y-43133D01*
X31355Y-43301D01*
X31460Y-43345D01*
X30991Y-43345D01*
X31064Y-43314D01*
X31103Y-43209D01*
X30720Y-42826D01*
X30649Y-42897D01*
X30649Y-42755D01*
X30266Y-42372D01*
X30161Y-42411D01*
X30072Y-42651D01*
X30081Y-42907D01*
X30161Y-43100D01*
X30266Y-43138D01*
X30649Y-42755D01*
X30649Y-42897D01*
X30337Y-43209D01*
X30376Y-43314D01*
X30457Y-43345D01*
X29888Y-43345D01*
X29215Y-42671D01*
X29215Y-42278D01*
X29261Y-42231D01*
X29299Y-42139D01*
X29300Y-42040D01*
X29300Y-41490D01*
X29262Y-41398D01*
X29215Y-41351D01*
X29215Y-41131D01*
X29286Y-41131D01*
X29798Y-41131D01*
X29835Y-41116D01*
X29835Y-41295D01*
X29924Y-41510D01*
X30088Y-41675D01*
X30303Y-41764D01*
X30535Y-41764D01*
X30750Y-41675D01*
X30915Y-41511D01*
X31004Y-41296D01*
X31004Y-41064D01*
X30928Y-40879D01*
X31130Y-40879D01*
X31221Y-40841D01*
X31280Y-40782D01*
X31339Y-40841D01*
X31431Y-40879D01*
X31543Y-40879D01*
X31605Y-40816D01*
X31605Y-40404D01*
X31597Y-40404D01*
X31597Y-40304D01*
X31605Y-40304D01*
X31605Y-39891D01*
X31593Y-39879D01*
X31644Y-39858D01*
X31683Y-39753D01*
X31300Y-39370D01*
X30916Y-39753D01*
X30944Y-39829D01*
X30681Y-39829D01*
X30589Y-39867D01*
X30532Y-39923D01*
X29999Y-39923D01*
X29999Y-39876D01*
X29936Y-39813D01*
X29543Y-39813D01*
X29543Y-39821D01*
X29443Y-39821D01*
X29443Y-39813D01*
X29049Y-39813D01*
X28987Y-39876D01*
X28987Y-39931D01*
X29021Y-40013D01*
X28987Y-40095D01*
X28987Y-40195D01*
X28987Y-40431D01*
X28991Y-40442D01*
X28956Y-40449D01*
X28919Y-40474D01*
X28845Y-40523D01*
X28634Y-40734D01*
X28560Y-40844D01*
X28535Y-40975D01*
X28535Y-41351D01*
X28500Y-41386D01*
X28441Y-41327D01*
X28349Y-41289D01*
X28237Y-41289D01*
X28175Y-41352D01*
X28175Y-41764D01*
X28182Y-41764D01*
X28182Y-41864D01*
X28175Y-41864D01*
X28175Y-42277D01*
X28237Y-42339D01*
X28349Y-42340D01*
X28441Y-42302D01*
X28500Y-42243D01*
X28535Y-42278D01*
X28535Y-42812D01*
X28560Y-42942D01*
X28634Y-43052D01*
X28667Y-43085D01*
X28604Y-43085D01*
X28389Y-43174D01*
X28224Y-43338D01*
X28166Y-43478D01*
X28075Y-43478D01*
X28075Y-42277D01*
X28075Y-41864D01*
X28075Y-41764D01*
X28075Y-41352D01*
X28012Y-41289D01*
X27921Y-41289D01*
X27921Y-38257D01*
X27921Y-37845D01*
X27921Y-37745D01*
X27921Y-37332D01*
X27921Y-36879D01*
X27921Y-36467D01*
X27921Y-36367D01*
X27921Y-35954D01*
X27858Y-35892D01*
X27829Y-35892D01*
X27829Y-35108D01*
X27829Y-34561D01*
X27766Y-34498D01*
X27393Y-34498D01*
X27393Y-35246D01*
X27455Y-35308D01*
X27529Y-35308D01*
X27629Y-35308D01*
X27721Y-35270D01*
X27791Y-35200D01*
X27829Y-35108D01*
X27829Y-35892D01*
X27746Y-35892D01*
X27655Y-35930D01*
X27584Y-36000D01*
X27546Y-36092D01*
X27546Y-36191D01*
X27546Y-36304D01*
X27608Y-36367D01*
X27921Y-36367D01*
X27921Y-36467D01*
X27608Y-36467D01*
X27546Y-36529D01*
X27546Y-36642D01*
X27546Y-36742D01*
X27584Y-36834D01*
X27655Y-36904D01*
X27746Y-36942D01*
X27858Y-36942D01*
X27921Y-36879D01*
X27921Y-37332D01*
X27858Y-37270D01*
X27746Y-37270D01*
X27655Y-37308D01*
X27584Y-37378D01*
X27546Y-37470D01*
X27546Y-37569D01*
X27546Y-37682D01*
X27608Y-37745D01*
X27921Y-37745D01*
X27921Y-37845D01*
X27608Y-37845D01*
X27546Y-37907D01*
X27546Y-38020D01*
X27546Y-38120D01*
X27584Y-38212D01*
X27655Y-38282D01*
X27746Y-38320D01*
X27858Y-38320D01*
X27921Y-38257D01*
X27921Y-41289D01*
X27900Y-41289D01*
X27829Y-41319D01*
X27829Y-40423D01*
X27829Y-39104D01*
X27791Y-39012D01*
X27721Y-38941D01*
X27629Y-38903D01*
X27529Y-38903D01*
X27455Y-38903D01*
X27393Y-38966D01*
X27393Y-39713D01*
X27766Y-39713D01*
X27829Y-39651D01*
X27829Y-39104D01*
X27829Y-40423D01*
X27829Y-39876D01*
X27766Y-39813D01*
X27393Y-39813D01*
X27393Y-40561D01*
X27455Y-40623D01*
X27529Y-40623D01*
X27629Y-40623D01*
X27721Y-40585D01*
X27791Y-40515D01*
X27829Y-40423D01*
X27829Y-41319D01*
X27808Y-41327D01*
X27738Y-41398D01*
X27700Y-41490D01*
X27699Y-41589D01*
X27700Y-41702D01*
X27762Y-41764D01*
X28075Y-41764D01*
X28075Y-41864D01*
X27762Y-41864D01*
X27700Y-41927D01*
X27699Y-42040D01*
X27700Y-42139D01*
X27738Y-42231D01*
X27808Y-42302D01*
X27900Y-42340D01*
X28012Y-42339D01*
X28075Y-42277D01*
X28075Y-43478D01*
X27293Y-43478D01*
X27293Y-40561D01*
X27293Y-39813D01*
X27293Y-39713D01*
X27293Y-38966D01*
X27230Y-38903D01*
X27156Y-38903D01*
X27057Y-38903D01*
X26965Y-38941D01*
X26895Y-39012D01*
X26857Y-39104D01*
X26857Y-39651D01*
X26919Y-39713D01*
X27293Y-39713D01*
X27293Y-39813D01*
X26919Y-39813D01*
X26857Y-39876D01*
X26857Y-40423D01*
X26895Y-40515D01*
X26965Y-40585D01*
X27057Y-40623D01*
X27156Y-40623D01*
X27230Y-40623D01*
X27293Y-40561D01*
X27293Y-43478D01*
X26785Y-43478D01*
X26630Y-43323D01*
X26416Y-43234D01*
X26183Y-43234D01*
X25968Y-43322D01*
X25803Y-43487D01*
X25714Y-43702D01*
X25714Y-43934D01*
X25803Y-44149D01*
X25959Y-44305D01*
X25959Y-44362D01*
X25943Y-44356D01*
X25844Y-44356D01*
X25056Y-44356D01*
X24964Y-44394D01*
X24894Y-44464D01*
X24856Y-44556D01*
X24856Y-44655D01*
X24856Y-45443D01*
X24894Y-45535D01*
X24964Y-45605D01*
X24978Y-45611D01*
X24954Y-45634D01*
X24889Y-45792D01*
X24716Y-45792D01*
X24683Y-45710D01*
X24612Y-45640D01*
X24520Y-45602D01*
X24421Y-45601D01*
X24271Y-45601D01*
X24268Y-45603D01*
X24264Y-45602D01*
X24206Y-45601D01*
X24234Y-45534D01*
X24234Y-45434D01*
X24234Y-45112D01*
X24171Y-45050D01*
X23550Y-45050D01*
X23550Y-45057D01*
X23450Y-45057D01*
X23450Y-45050D01*
X22828Y-45050D01*
X22765Y-45112D01*
X22765Y-45434D01*
X22765Y-45534D01*
X22793Y-45601D01*
X22735Y-45601D01*
X22732Y-45603D01*
X22728Y-45602D01*
X22629Y-45601D01*
X22479Y-45601D01*
X22397Y-45635D01*
X22397Y-45204D01*
X22388Y-44948D01*
X22308Y-44755D01*
X22203Y-44716D01*
X22133Y-44787D01*
X22133Y-44646D01*
X22094Y-44541D01*
X21854Y-44452D01*
X21598Y-44461D01*
X21405Y-44541D01*
X21366Y-44646D01*
X21750Y-45029D01*
X22133Y-44646D01*
X22133Y-44787D01*
X21820Y-45100D01*
X22203Y-45483D01*
X22308Y-45444D01*
X22397Y-45204D01*
X22397Y-45635D01*
X22387Y-45639D01*
X22317Y-45710D01*
X22289Y-45777D01*
X22133Y-45777D01*
X22133Y-45553D01*
X21750Y-45170D01*
X21366Y-45553D01*
X21405Y-45658D01*
X21645Y-45747D01*
X21901Y-45738D01*
X22094Y-45658D01*
X22133Y-45553D01*
X22133Y-45777D01*
X21890Y-45777D01*
X21765Y-45801D01*
X21660Y-45872D01*
X21660Y-45872D01*
X21335Y-46197D01*
X21277Y-46140D01*
X20965Y-46140D01*
X20965Y-46552D01*
X20972Y-46560D01*
X20596Y-46935D01*
X20526Y-47040D01*
X20505Y-47149D01*
X20505Y-46553D01*
X20540Y-46518D01*
X20598Y-46577D01*
X20690Y-46615D01*
X20802Y-46615D01*
X20865Y-46552D01*
X20865Y-46140D01*
X20857Y-46140D01*
X20857Y-46040D01*
X20865Y-46040D01*
X20865Y-46032D01*
X20965Y-46032D01*
X20965Y-46040D01*
X21277Y-46040D01*
X21340Y-45977D01*
X21340Y-45864D01*
X21339Y-45765D01*
X21301Y-45673D01*
X21231Y-45602D01*
X21179Y-45581D01*
X21282Y-45477D01*
X21296Y-45483D01*
X21679Y-45100D01*
X21296Y-44716D01*
X21282Y-44722D01*
X21115Y-44554D01*
X21090Y-44544D01*
X21090Y-44424D01*
X21149Y-44425D01*
X21499Y-44425D01*
X21591Y-44387D01*
X21650Y-44328D01*
X21708Y-44386D01*
X21800Y-44424D01*
X21899Y-44425D01*
X22249Y-44425D01*
X22341Y-44387D01*
X22377Y-44350D01*
X22387Y-44359D01*
X22479Y-44397D01*
X22578Y-44398D01*
X22728Y-44398D01*
X22731Y-44396D01*
X22735Y-44397D01*
X22793Y-44398D01*
X22765Y-44465D01*
X22765Y-44565D01*
X22765Y-44887D01*
X22828Y-44950D01*
X23450Y-44950D01*
X23450Y-44942D01*
X23550Y-44942D01*
X23550Y-44950D01*
X24171Y-44950D01*
X24234Y-44887D01*
X24234Y-44565D01*
X24234Y-44465D01*
X24206Y-44398D01*
X24264Y-44398D01*
X24267Y-44396D01*
X24271Y-44397D01*
X24370Y-44398D01*
X24520Y-44398D01*
X24612Y-44360D01*
X24682Y-44289D01*
X24720Y-44197D01*
X24721Y-44098D01*
X24721Y-43710D01*
X24921Y-43710D01*
X25045Y-43686D01*
X25045Y-43686D01*
X25151Y-43615D01*
X25288Y-43478D01*
X25549Y-43478D01*
X25641Y-43440D01*
X25711Y-43370D01*
X25749Y-43278D01*
X25750Y-43178D01*
X25750Y-42391D01*
X25721Y-42323D01*
X25712Y-42299D01*
X25641Y-42229D01*
X25549Y-42190D01*
X25450Y-42190D01*
X25146Y-42190D01*
X25146Y-41485D01*
X25146Y-41173D01*
X24734Y-41173D01*
X24671Y-41235D01*
X24671Y-41347D01*
X24709Y-41439D01*
X24780Y-41509D01*
X24871Y-41547D01*
X24971Y-41548D01*
X25084Y-41548D01*
X25146Y-41485D01*
X25146Y-42190D01*
X24663Y-42190D01*
X24571Y-42228D01*
X24500Y-42299D01*
X24495Y-42312D01*
X24471Y-42289D01*
X24234Y-42191D01*
X23978Y-42190D01*
X23742Y-42288D01*
X23560Y-42469D01*
X23556Y-42480D01*
X23556Y-41347D01*
X23556Y-41235D01*
X23493Y-41173D01*
X23081Y-41173D01*
X23081Y-41485D01*
X23143Y-41548D01*
X23256Y-41548D01*
X23356Y-41547D01*
X23448Y-41509D01*
X23518Y-41439D01*
X23556Y-41347D01*
X23556Y-42480D01*
X23503Y-42606D01*
X23447Y-42470D01*
X23266Y-42289D01*
X23030Y-42191D01*
X22981Y-42191D01*
X22981Y-41485D01*
X22981Y-41173D01*
X22568Y-41173D01*
X22506Y-41235D01*
X22506Y-41347D01*
X22544Y-41439D01*
X22614Y-41509D01*
X22706Y-41547D01*
X22806Y-41548D01*
X22918Y-41548D01*
X22981Y-41485D01*
X22981Y-42191D01*
X22774Y-42190D01*
X22537Y-42288D01*
X22512Y-42313D01*
X22507Y-42299D01*
X22437Y-42229D01*
X22345Y-42190D01*
X22245Y-42190D01*
X21911Y-42190D01*
X22216Y-41886D01*
X22216Y-41886D01*
X22265Y-41812D01*
X22290Y-41776D01*
X22290Y-41776D01*
X22316Y-41645D01*
X22316Y-41645D01*
X22316Y-40068D01*
X22314Y-40061D01*
X22314Y-39625D01*
X22311Y-39617D01*
X22318Y-39620D01*
X22418Y-39620D01*
X22754Y-39620D01*
X22762Y-39621D01*
X23589Y-39621D01*
X23758Y-39790D01*
X23758Y-40037D01*
X23735Y-40033D01*
X23495Y-40033D01*
X23448Y-39986D01*
X23356Y-39948D01*
X23256Y-39947D01*
X22706Y-39947D01*
X22615Y-39985D01*
X22544Y-40056D01*
X22506Y-40148D01*
X22506Y-40247D01*
X22506Y-40597D01*
X22544Y-40689D01*
X22602Y-40748D01*
X22544Y-40806D01*
X22506Y-40898D01*
X22506Y-41010D01*
X22568Y-41073D01*
X22981Y-41073D01*
X22981Y-41065D01*
X23081Y-41065D01*
X23081Y-41073D01*
X23493Y-41073D01*
X23556Y-41010D01*
X23556Y-40995D01*
X23589Y-41075D01*
X23758Y-41244D01*
X23978Y-41336D01*
X24217Y-41336D01*
X24437Y-41245D01*
X24606Y-41076D01*
X24671Y-40919D01*
X24671Y-41010D01*
X24734Y-41073D01*
X25146Y-41073D01*
X25146Y-41065D01*
X25246Y-41065D01*
X25246Y-41073D01*
X25254Y-41073D01*
X25254Y-41173D01*
X25246Y-41173D01*
X25246Y-41485D01*
X25309Y-41548D01*
X25422Y-41548D01*
X25521Y-41547D01*
X25613Y-41509D01*
X25683Y-41439D01*
X25721Y-41347D01*
X25721Y-41235D01*
X25659Y-41173D01*
X25686Y-41173D01*
X25758Y-41244D01*
X25978Y-41336D01*
X26217Y-41336D01*
X26437Y-41245D01*
X26606Y-41076D01*
X26698Y-40856D01*
X26698Y-40617D01*
X26607Y-40396D01*
X26438Y-40227D01*
X26218Y-40136D01*
X25979Y-40136D01*
X25979Y-40136D01*
X25975Y-40132D01*
X25865Y-40058D01*
X25735Y-40033D01*
X25660Y-40033D01*
X25613Y-39986D01*
X25536Y-39954D01*
X25536Y-39456D01*
X25510Y-39326D01*
X25510Y-39326D01*
X25486Y-39290D01*
X25437Y-39216D01*
X25437Y-39216D01*
X24947Y-38726D01*
X24837Y-38652D01*
X24706Y-38626D01*
X23405Y-38626D01*
X23405Y-38513D01*
X23397Y-38494D01*
X23405Y-38475D01*
X23405Y-38443D01*
X23348Y-38386D01*
X23405Y-38386D01*
X23405Y-38361D01*
X25993Y-38361D01*
X25993Y-38361D01*
X26123Y-38336D01*
X26234Y-38262D01*
X26760Y-37736D01*
X26760Y-37736D01*
X26834Y-37625D01*
X26834Y-37625D01*
X26838Y-37604D01*
X26859Y-37495D01*
X26860Y-37495D01*
X26860Y-35114D01*
X26895Y-35200D01*
X26965Y-35270D01*
X27057Y-35308D01*
X27156Y-35308D01*
X27230Y-35308D01*
X27293Y-35246D01*
X27293Y-34498D01*
X27293Y-34398D01*
X27293Y-33651D01*
X27230Y-33588D01*
X27156Y-33588D01*
X27057Y-33588D01*
X26965Y-33627D01*
X26895Y-33697D01*
X26857Y-33789D01*
X26857Y-34336D01*
X26919Y-34398D01*
X27293Y-34398D01*
X27293Y-34498D01*
X26919Y-34498D01*
X26857Y-34561D01*
X26857Y-34916D01*
X26838Y-34821D01*
X26834Y-34799D01*
X26834Y-34799D01*
X26760Y-34689D01*
X26760Y-34689D01*
X26290Y-34219D01*
X26290Y-33220D01*
X26300Y-33210D01*
X27099Y-33210D01*
X27478Y-33588D01*
X27455Y-33588D01*
X27393Y-33651D01*
X27393Y-34398D01*
X27766Y-34398D01*
X27829Y-34336D01*
X27829Y-33940D01*
X28078Y-34189D01*
X28188Y-34262D01*
X28318Y-34288D01*
X28987Y-34288D01*
X28987Y-34336D01*
X29049Y-34398D01*
X29443Y-34398D01*
X29443Y-34390D01*
X29543Y-34390D01*
X29543Y-34398D01*
X29936Y-34398D01*
X29999Y-34336D01*
X29999Y-34281D01*
X29965Y-34198D01*
X29999Y-34116D01*
X29999Y-34017D01*
X29999Y-33788D01*
X30027Y-33788D01*
X30050Y-33810D01*
X30050Y-33870D01*
X30050Y-35108D01*
X29999Y-35108D01*
X29999Y-35017D01*
X29999Y-34781D01*
X29965Y-34698D01*
X29999Y-34616D01*
X29999Y-34561D01*
X29936Y-34498D01*
X29543Y-34498D01*
X29543Y-34506D01*
X29443Y-34506D01*
X29443Y-34498D01*
X29049Y-34498D01*
X28987Y-34561D01*
X28987Y-34608D01*
X28891Y-34608D01*
X28761Y-34634D01*
X28724Y-34659D01*
X28650Y-34708D01*
X28481Y-34878D01*
X28407Y-34988D01*
X28381Y-35118D01*
X28381Y-35953D01*
X28346Y-35988D01*
X28287Y-35930D01*
X28195Y-35892D01*
X28083Y-35892D01*
X28021Y-35954D01*
X28021Y-36367D01*
X28029Y-36367D01*
X28029Y-36467D01*
X28021Y-36467D01*
X28021Y-36879D01*
X28083Y-36942D01*
X28195Y-36942D01*
X28287Y-36904D01*
X28346Y-36845D01*
X28404Y-36904D01*
X28496Y-36942D01*
X28595Y-36942D01*
X28900Y-36942D01*
X28900Y-37270D01*
X28846Y-37270D01*
X28496Y-37270D01*
X28405Y-37308D01*
X28346Y-37366D01*
X28287Y-37308D01*
X28195Y-37270D01*
X28083Y-37270D01*
X28021Y-37332D01*
X28021Y-37745D01*
X28029Y-37745D01*
X28029Y-37845D01*
X28021Y-37845D01*
X28021Y-38257D01*
X28083Y-38320D01*
X28195Y-38320D01*
X28287Y-38282D01*
X28346Y-38223D01*
X28381Y-38258D01*
X28381Y-38671D01*
X28407Y-38801D01*
X28481Y-38911D01*
X28573Y-39004D01*
X28683Y-39077D01*
X28683Y-39077D01*
X28705Y-39082D01*
X28813Y-39103D01*
X28987Y-39103D01*
X28987Y-39195D01*
X28987Y-39431D01*
X29021Y-39513D01*
X28987Y-39596D01*
X28987Y-39651D01*
X29049Y-39713D01*
X29443Y-39713D01*
X29443Y-39705D01*
X29543Y-39705D01*
X29543Y-39713D01*
X29936Y-39713D01*
X29999Y-39651D01*
X29999Y-39603D01*
X30436Y-39603D01*
X30436Y-39603D01*
X30566Y-39577D01*
X30676Y-39504D01*
X30681Y-39499D01*
X30741Y-39644D01*
X30846Y-39683D01*
X31229Y-39300D01*
X31223Y-39294D01*
X31294Y-39223D01*
X31300Y-39229D01*
X31683Y-38846D01*
X31677Y-38832D01*
X31845Y-38665D01*
X31855Y-38640D01*
X32605Y-38640D01*
X32605Y-38639D01*
X32656Y-38629D01*
X32717Y-38655D01*
X32950Y-38655D01*
X33165Y-38566D01*
X33329Y-38402D01*
X33419Y-38187D01*
X33419Y-37955D01*
X33363Y-37820D01*
X34307Y-37820D01*
X34411Y-37924D01*
X34411Y-38404D01*
X34411Y-38404D01*
G37*
G54D31*
X34411Y-38404D02*
X34387Y-38414D01*
X34219Y-38582D01*
X34205Y-38577D01*
X34135Y-38648D01*
X34135Y-38506D01*
X34096Y-38401D01*
X33856Y-38312D01*
X33600Y-38322D01*
X33407Y-38401D01*
X33368Y-38506D01*
X33751Y-38889D01*
X34135Y-38506D01*
X34135Y-38648D01*
X33822Y-38960D01*
X34205Y-39343D01*
X34219Y-39338D01*
X34341Y-39460D01*
X34251Y-39550D01*
X34129Y-39428D01*
X34135Y-39414D01*
X33751Y-39031D01*
X33681Y-39102D01*
X33681Y-38960D01*
X33298Y-38577D01*
X33193Y-38616D01*
X33103Y-38856D01*
X33113Y-39112D01*
X33193Y-39304D01*
X33298Y-39343D01*
X33681Y-38960D01*
X33681Y-39102D01*
X33368Y-39414D01*
X33374Y-39428D01*
X33206Y-39595D01*
X33196Y-39620D01*
X32939Y-39620D01*
X32830Y-39642D01*
X32809Y-39646D01*
X32698Y-39720D01*
X32309Y-40109D01*
X32235Y-40219D01*
X32210Y-40350D01*
X32210Y-40805D01*
X32024Y-40805D01*
X31996Y-40816D01*
X32042Y-40771D01*
X32080Y-40679D01*
X32080Y-40579D01*
X32080Y-40128D01*
X32080Y-40029D01*
X32042Y-39937D01*
X31971Y-39867D01*
X31947Y-39857D01*
X31947Y-39404D01*
X31938Y-39148D01*
X31858Y-38955D01*
X31753Y-38916D01*
X31370Y-39300D01*
X31753Y-39683D01*
X31858Y-39644D01*
X31947Y-39404D01*
X31947Y-39857D01*
X31880Y-39829D01*
X31768Y-39829D01*
X31705Y-39891D01*
X31705Y-40304D01*
X32018Y-40304D01*
X32080Y-40241D01*
X32080Y-40128D01*
X32080Y-40579D01*
X32080Y-40466D01*
X32018Y-40404D01*
X31705Y-40404D01*
X31705Y-40816D01*
X31768Y-40879D01*
X31844Y-40879D01*
X31809Y-40894D01*
X31644Y-41058D01*
X31555Y-41273D01*
X31555Y-41505D01*
X31644Y-41720D01*
X31808Y-41885D01*
X32023Y-41974D01*
X32255Y-41974D01*
X32470Y-41885D01*
X32635Y-41721D01*
X32724Y-41506D01*
X32724Y-41286D01*
X32790Y-41220D01*
X32864Y-41110D01*
X32889Y-40980D01*
X32890Y-40980D01*
X32890Y-40490D01*
X33080Y-40300D01*
X33195Y-40300D01*
X33205Y-40324D01*
X33341Y-40460D01*
X33206Y-40595D01*
X33108Y-40832D01*
X33108Y-41088D01*
X33205Y-41324D01*
X33386Y-41506D01*
X33411Y-41516D01*
X33411Y-42067D01*
X33063Y-42415D01*
X32276Y-42415D01*
X32266Y-42391D01*
X32085Y-42210D01*
X31849Y-42112D01*
X31592Y-42112D01*
X31356Y-42209D01*
X31187Y-42377D01*
X31174Y-42372D01*
X31103Y-42443D01*
X31103Y-42302D01*
X31064Y-42197D01*
X30824Y-42107D01*
X30568Y-42117D01*
X30376Y-42197D01*
X30337Y-42302D01*
X30720Y-42685D01*
X31103Y-42302D01*
X31103Y-42443D01*
X30791Y-42755D01*
X31174Y-43138D01*
X31188Y-43133D01*
X31355Y-43301D01*
X31460Y-43345D01*
X30991Y-43345D01*
X31064Y-43314D01*
X31103Y-43209D01*
X30720Y-42826D01*
X30649Y-42897D01*
X30649Y-42755D01*
X30266Y-42372D01*
X30161Y-42411D01*
X30072Y-42651D01*
X30081Y-42907D01*
X30161Y-43100D01*
X30266Y-43138D01*
X30649Y-42755D01*
X30649Y-42897D01*
X30337Y-43209D01*
X30376Y-43314D01*
X30457Y-43345D01*
X29888Y-43345D01*
X29215Y-42671D01*
X29215Y-42278D01*
X29261Y-42231D01*
X29299Y-42139D01*
X29300Y-42040D01*
X29300Y-41490D01*
X29262Y-41398D01*
X29215Y-41351D01*
X29215Y-41131D01*
X29286Y-41131D01*
X29798Y-41131D01*
X29835Y-41116D01*
X29835Y-41295D01*
X29924Y-41510D01*
X30088Y-41675D01*
X30303Y-41764D01*
X30535Y-41764D01*
X30750Y-41675D01*
X30915Y-41511D01*
X31004Y-41296D01*
X31004Y-41064D01*
X30928Y-40879D01*
X31130Y-40879D01*
X31221Y-40841D01*
X31280Y-40782D01*
X31339Y-40841D01*
X31431Y-40879D01*
X31543Y-40879D01*
X31605Y-40816D01*
X31605Y-40404D01*
X31597Y-40404D01*
X31597Y-40304D01*
X31605Y-40304D01*
X31605Y-39891D01*
X31593Y-39879D01*
X31644Y-39858D01*
X31683Y-39753D01*
X31300Y-39370D01*
X30916Y-39753D01*
X30944Y-39829D01*
X30681Y-39829D01*
X30589Y-39867D01*
X30532Y-39923D01*
X29999Y-39923D01*
X29999Y-39876D01*
X29936Y-39813D01*
X29543Y-39813D01*
X29543Y-39821D01*
X29443Y-39821D01*
X29443Y-39813D01*
X29049Y-39813D01*
X28987Y-39876D01*
X28987Y-39931D01*
X29021Y-40013D01*
X28987Y-40095D01*
X28987Y-40195D01*
X28987Y-40431D01*
X28991Y-40442D01*
X28956Y-40449D01*
X28919Y-40474D01*
X28845Y-40523D01*
X28634Y-40734D01*
X28560Y-40844D01*
X28535Y-40975D01*
X28535Y-41351D01*
X28500Y-41386D01*
X28441Y-41327D01*
X28349Y-41289D01*
X28237Y-41289D01*
X28175Y-41352D01*
X28175Y-41764D01*
X28182Y-41764D01*
X28182Y-41864D01*
X28175Y-41864D01*
X28175Y-42277D01*
X28237Y-42339D01*
X28349Y-42340D01*
X28441Y-42302D01*
X28500Y-42243D01*
X28535Y-42278D01*
X28535Y-42812D01*
X28560Y-42942D01*
X28634Y-43052D01*
X28667Y-43085D01*
X28604Y-43085D01*
X28389Y-43174D01*
X28224Y-43338D01*
X28166Y-43478D01*
X28075Y-43478D01*
X28075Y-42277D01*
X28075Y-41864D01*
X28075Y-41764D01*
X28075Y-41352D01*
X28012Y-41289D01*
X27921Y-41289D01*
X27921Y-38257D01*
X27921Y-37845D01*
X27921Y-37745D01*
X27921Y-37332D01*
X27921Y-36879D01*
X27921Y-36467D01*
X27921Y-36367D01*
X27921Y-35954D01*
X27858Y-35892D01*
X27829Y-35892D01*
X27829Y-35108D01*
X27829Y-34561D01*
X27766Y-34498D01*
X27393Y-34498D01*
X27393Y-35246D01*
X27455Y-35308D01*
X27529Y-35308D01*
X27629Y-35308D01*
X27721Y-35270D01*
X27791Y-35200D01*
X27829Y-35108D01*
X27829Y-35892D01*
X27746Y-35892D01*
X27655Y-35930D01*
X27584Y-36000D01*
X27546Y-36092D01*
X27546Y-36191D01*
X27546Y-36304D01*
X27608Y-36367D01*
X27921Y-36367D01*
X27921Y-36467D01*
X27608Y-36467D01*
X27546Y-36529D01*
X27546Y-36642D01*
X27546Y-36742D01*
X27584Y-36834D01*
X27655Y-36904D01*
X27746Y-36942D01*
X27858Y-36942D01*
X27921Y-36879D01*
X27921Y-37332D01*
X27858Y-37270D01*
X27746Y-37270D01*
X27655Y-37308D01*
X27584Y-37378D01*
X27546Y-37470D01*
X27546Y-37569D01*
X27546Y-37682D01*
X27608Y-37745D01*
X27921Y-37745D01*
X27921Y-37845D01*
X27608Y-37845D01*
X27546Y-37907D01*
X27546Y-38020D01*
X27546Y-38120D01*
X27584Y-38212D01*
X27655Y-38282D01*
X27746Y-38320D01*
X27858Y-38320D01*
X27921Y-38257D01*
X27921Y-41289D01*
X27900Y-41289D01*
X27829Y-41319D01*
X27829Y-40423D01*
X27829Y-39104D01*
X27791Y-39012D01*
X27721Y-38941D01*
X27629Y-38903D01*
X27529Y-38903D01*
X27455Y-38903D01*
X27393Y-38966D01*
X27393Y-39713D01*
X27766Y-39713D01*
X27829Y-39651D01*
X27829Y-39104D01*
X27829Y-40423D01*
X27829Y-39876D01*
X27766Y-39813D01*
X27393Y-39813D01*
X27393Y-40561D01*
X27455Y-40623D01*
X27529Y-40623D01*
X27629Y-40623D01*
X27721Y-40585D01*
X27791Y-40515D01*
X27829Y-40423D01*
X27829Y-41319D01*
X27808Y-41327D01*
X27738Y-41398D01*
X27700Y-41490D01*
X27699Y-41589D01*
X27700Y-41702D01*
X27762Y-41764D01*
X28075Y-41764D01*
X28075Y-41864D01*
X27762Y-41864D01*
X27700Y-41927D01*
X27699Y-42040D01*
X27700Y-42139D01*
X27738Y-42231D01*
X27808Y-42302D01*
X27900Y-42340D01*
X28012Y-42339D01*
X28075Y-42277D01*
X28075Y-43478D01*
X27293Y-43478D01*
X27293Y-40561D01*
X27293Y-39813D01*
X27293Y-39713D01*
X27293Y-38966D01*
X27230Y-38903D01*
X27156Y-38903D01*
X27057Y-38903D01*
X26965Y-38941D01*
X26895Y-39012D01*
X26857Y-39104D01*
X26857Y-39651D01*
X26919Y-39713D01*
X27293Y-39713D01*
X27293Y-39813D01*
X26919Y-39813D01*
X26857Y-39876D01*
X26857Y-40423D01*
X26895Y-40515D01*
X26965Y-40585D01*
X27057Y-40623D01*
X27156Y-40623D01*
X27230Y-40623D01*
X27293Y-40561D01*
X27293Y-43478D01*
X26785Y-43478D01*
X26630Y-43323D01*
X26416Y-43234D01*
X26183Y-43234D01*
X25968Y-43322D01*
X25803Y-43487D01*
X25714Y-43702D01*
X25714Y-43934D01*
X25803Y-44149D01*
X25959Y-44305D01*
X25959Y-44362D01*
X25943Y-44356D01*
X25844Y-44356D01*
X25056Y-44356D01*
X24964Y-44394D01*
X24894Y-44464D01*
X24856Y-44556D01*
X24856Y-44655D01*
X24856Y-45443D01*
X24894Y-45535D01*
X24964Y-45605D01*
X24978Y-45611D01*
X24954Y-45634D01*
X24889Y-45792D01*
X24716Y-45792D01*
X24683Y-45710D01*
X24612Y-45640D01*
X24520Y-45602D01*
X24421Y-45601D01*
X24271Y-45601D01*
X24268Y-45603D01*
X24264Y-45602D01*
X24206Y-45601D01*
X24234Y-45534D01*
X24234Y-45434D01*
X24234Y-45112D01*
X24171Y-45050D01*
X23550Y-45050D01*
X23550Y-45057D01*
X23450Y-45057D01*
X23450Y-45050D01*
X22828Y-45050D01*
X22765Y-45112D01*
X22765Y-45434D01*
X22765Y-45534D01*
X22793Y-45601D01*
X22735Y-45601D01*
X22732Y-45603D01*
X22728Y-45602D01*
X22629Y-45601D01*
X22479Y-45601D01*
X22397Y-45635D01*
X22397Y-45204D01*
X22388Y-44948D01*
X22308Y-44755D01*
X22203Y-44716D01*
X22133Y-44787D01*
X22133Y-44646D01*
X22094Y-44541D01*
X21854Y-44452D01*
X21598Y-44461D01*
X21405Y-44541D01*
X21366Y-44646D01*
X21750Y-45029D01*
X22133Y-44646D01*
X22133Y-44787D01*
X21820Y-45100D01*
X22203Y-45483D01*
X22308Y-45444D01*
X22397Y-45204D01*
X22397Y-45635D01*
X22387Y-45639D01*
X22317Y-45710D01*
X22289Y-45777D01*
X22133Y-45777D01*
X22133Y-45553D01*
X21750Y-45170D01*
X21366Y-45553D01*
X21405Y-45658D01*
X21645Y-45747D01*
X21901Y-45738D01*
X22094Y-45658D01*
X22133Y-45553D01*
X22133Y-45777D01*
X21890Y-45777D01*
X21765Y-45801D01*
X21660Y-45872D01*
X21660Y-45872D01*
X21335Y-46197D01*
X21277Y-46140D01*
X20965Y-46140D01*
X20965Y-46552D01*
X20972Y-46560D01*
X20596Y-46935D01*
X20526Y-47040D01*
X20505Y-47149D01*
X20505Y-46553D01*
X20540Y-46518D01*
X20598Y-46577D01*
X20690Y-46615D01*
X20802Y-46615D01*
X20865Y-46552D01*
X20865Y-46140D01*
X20857Y-46140D01*
X20857Y-46040D01*
X20865Y-46040D01*
X20865Y-46032D01*
X20965Y-46032D01*
X20965Y-46040D01*
X21277Y-46040D01*
X21340Y-45977D01*
X21340Y-45864D01*
X21339Y-45765D01*
X21301Y-45673D01*
X21231Y-45602D01*
X21179Y-45581D01*
X21282Y-45477D01*
X21296Y-45483D01*
X21679Y-45100D01*
X21296Y-44716D01*
X21282Y-44722D01*
X21115Y-44554D01*
X21090Y-44544D01*
X21090Y-44424D01*
X21149Y-44425D01*
X21499Y-44425D01*
X21591Y-44387D01*
X21650Y-44328D01*
X21708Y-44386D01*
X21800Y-44424D01*
X21899Y-44425D01*
X22249Y-44425D01*
X22341Y-44387D01*
X22377Y-44350D01*
X22387Y-44359D01*
X22479Y-44397D01*
X22578Y-44398D01*
X22728Y-44398D01*
X22731Y-44396D01*
X22735Y-44397D01*
X22793Y-44398D01*
X22765Y-44465D01*
X22765Y-44565D01*
X22765Y-44887D01*
X22828Y-44950D01*
X23450Y-44950D01*
X23450Y-44942D01*
X23550Y-44942D01*
X23550Y-44950D01*
X24171Y-44950D01*
X24234Y-44887D01*
X24234Y-44565D01*
X24234Y-44465D01*
X24206Y-44398D01*
X24264Y-44398D01*
X24267Y-44396D01*
X24271Y-44397D01*
X24370Y-44398D01*
X24520Y-44398D01*
X24612Y-44360D01*
X24682Y-44289D01*
X24720Y-44197D01*
X24721Y-44098D01*
X24721Y-43710D01*
X24921Y-43710D01*
X25045Y-43686D01*
X25045Y-43686D01*
X25151Y-43615D01*
X25288Y-43478D01*
X25549Y-43478D01*
X25641Y-43440D01*
X25711Y-43370D01*
X25749Y-43278D01*
X25750Y-43178D01*
X25750Y-42391D01*
X25721Y-42323D01*
X25712Y-42299D01*
X25641Y-42229D01*
X25549Y-42190D01*
X25450Y-42190D01*
X25146Y-42190D01*
X25146Y-41485D01*
X25146Y-41173D01*
X24734Y-41173D01*
X24671Y-41235D01*
X24671Y-41347D01*
X24709Y-41439D01*
X24780Y-41509D01*
X24871Y-41547D01*
X24971Y-41548D01*
X25084Y-41548D01*
X25146Y-41485D01*
X25146Y-42190D01*
X24663Y-42190D01*
X24571Y-42228D01*
X24500Y-42299D01*
X24495Y-42312D01*
X24471Y-42289D01*
X24234Y-42191D01*
X23978Y-42190D01*
X23742Y-42288D01*
X23560Y-42469D01*
X23556Y-42480D01*
X23556Y-41347D01*
X23556Y-41235D01*
X23493Y-41173D01*
X23081Y-41173D01*
X23081Y-41485D01*
X23143Y-41548D01*
X23256Y-41548D01*
X23356Y-41547D01*
X23448Y-41509D01*
X23518Y-41439D01*
X23556Y-41347D01*
X23556Y-42480D01*
X23503Y-42606D01*
X23447Y-42470D01*
X23266Y-42289D01*
X23030Y-42191D01*
X22981Y-42191D01*
X22981Y-41485D01*
X22981Y-41173D01*
X22568Y-41173D01*
X22506Y-41235D01*
X22506Y-41347D01*
X22544Y-41439D01*
X22614Y-41509D01*
X22706Y-41547D01*
X22806Y-41548D01*
X22918Y-41548D01*
X22981Y-41485D01*
X22981Y-42191D01*
X22774Y-42190D01*
X22537Y-42288D01*
X22512Y-42313D01*
X22507Y-42299D01*
X22437Y-42229D01*
X22345Y-42190D01*
X22245Y-42190D01*
X21911Y-42190D01*
X22216Y-41886D01*
X22216Y-41886D01*
X22265Y-41812D01*
X22290Y-41776D01*
X22290Y-41776D01*
X22316Y-41645D01*
X22316Y-41645D01*
X22316Y-40068D01*
X22314Y-40061D01*
X22314Y-39625D01*
X22311Y-39617D01*
X22318Y-39620D01*
X22418Y-39620D01*
X22754Y-39620D01*
X22762Y-39621D01*
X23589Y-39621D01*
X23758Y-39790D01*
X23758Y-40037D01*
X23735Y-40033D01*
X23495Y-40033D01*
X23448Y-39986D01*
X23356Y-39948D01*
X23256Y-39947D01*
X22706Y-39947D01*
X22615Y-39985D01*
X22544Y-40056D01*
X22506Y-40148D01*
X22506Y-40247D01*
X22506Y-40597D01*
X22544Y-40689D01*
X22602Y-40748D01*
X22544Y-40806D01*
X22506Y-40898D01*
X22506Y-41010D01*
X22568Y-41073D01*
X22981Y-41073D01*
X22981Y-41065D01*
X23081Y-41065D01*
X23081Y-41073D01*
X23493Y-41073D01*
X23556Y-41010D01*
X23556Y-40995D01*
X23589Y-41075D01*
X23758Y-41244D01*
X23978Y-41336D01*
X24217Y-41336D01*
X24437Y-41245D01*
X24606Y-41076D01*
X24671Y-40919D01*
X24671Y-41010D01*
X24734Y-41073D01*
X25146Y-41073D01*
X25146Y-41065D01*
X25246Y-41065D01*
X25246Y-41073D01*
X25254Y-41073D01*
X25254Y-41173D01*
X25246Y-41173D01*
X25246Y-41485D01*
X25309Y-41548D01*
X25422Y-41548D01*
X25521Y-41547D01*
X25613Y-41509D01*
X25683Y-41439D01*
X25721Y-41347D01*
X25721Y-41235D01*
X25659Y-41173D01*
X25686Y-41173D01*
X25758Y-41244D01*
X25978Y-41336D01*
X26217Y-41336D01*
X26437Y-41245D01*
X26606Y-41076D01*
X26698Y-40856D01*
X26698Y-40617D01*
X26607Y-40396D01*
X26438Y-40227D01*
X26218Y-40136D01*
X25979Y-40136D01*
X25979Y-40136D01*
X25975Y-40132D01*
X25865Y-40058D01*
X25735Y-40033D01*
X25660Y-40033D01*
X25613Y-39986D01*
X25536Y-39954D01*
X25536Y-39456D01*
X25510Y-39326D01*
X25510Y-39326D01*
X25486Y-39290D01*
X25437Y-39216D01*
X25437Y-39216D01*
X24947Y-38726D01*
X24837Y-38652D01*
X24706Y-38626D01*
X23405Y-38626D01*
X23405Y-38513D01*
X23397Y-38494D01*
X23405Y-38475D01*
X23405Y-38443D01*
X23348Y-38386D01*
X23405Y-38386D01*
X23405Y-38361D01*
X25993Y-38361D01*
X25993Y-38361D01*
X26123Y-38336D01*
X26234Y-38262D01*
X26760Y-37736D01*
X26760Y-37736D01*
X26834Y-37625D01*
X26834Y-37625D01*
X26838Y-37604D01*
X26859Y-37495D01*
X26860Y-37495D01*
X26860Y-35114D01*
X26895Y-35200D01*
X26965Y-35270D01*
X27057Y-35308D01*
X27156Y-35308D01*
X27230Y-35308D01*
X27293Y-35246D01*
X27293Y-34498D01*
X27293Y-34398D01*
X27293Y-33651D01*
X27230Y-33588D01*
X27156Y-33588D01*
X27057Y-33588D01*
X26965Y-33627D01*
X26895Y-33697D01*
X26857Y-33789D01*
X26857Y-34336D01*
X26919Y-34398D01*
X27293Y-34398D01*
X27293Y-34498D01*
X26919Y-34498D01*
X26857Y-34561D01*
X26857Y-34916D01*
X26838Y-34821D01*
X26834Y-34799D01*
X26834Y-34799D01*
X26760Y-34689D01*
X26760Y-34689D01*
X26290Y-34219D01*
X26290Y-33220D01*
X26300Y-33210D01*
X27099Y-33210D01*
X27478Y-33588D01*
X27455Y-33588D01*
X27393Y-33651D01*
X27393Y-34398D01*
X27766Y-34398D01*
X27829Y-34336D01*
X27829Y-33940D01*
X28078Y-34189D01*
X28188Y-34262D01*
X28318Y-34288D01*
X28987Y-34288D01*
X28987Y-34336D01*
X29049Y-34398D01*
X29443Y-34398D01*
X29443Y-34390D01*
X29543Y-34390D01*
X29543Y-34398D01*
X29936Y-34398D01*
X29999Y-34336D01*
X29999Y-34281D01*
X29965Y-34198D01*
X29999Y-34116D01*
X29999Y-34017D01*
X29999Y-33788D01*
X30027Y-33788D01*
X30050Y-33810D01*
X30050Y-33870D01*
X30050Y-35108D01*
X29999Y-35108D01*
X29999Y-35017D01*
X29999Y-34781D01*
X29965Y-34698D01*
X29999Y-34616D01*
X29999Y-34561D01*
X29936Y-34498D01*
X29543Y-34498D01*
X29543Y-34506D01*
X29443Y-34506D01*
X29443Y-34498D01*
X29049Y-34498D01*
X28987Y-34561D01*
X28987Y-34608D01*
X28891Y-34608D01*
X28761Y-34634D01*
X28724Y-34659D01*
X28650Y-34708D01*
X28481Y-34878D01*
X28407Y-34988D01*
X28381Y-35118D01*
X28381Y-35953D01*
X28346Y-35988D01*
X28287Y-35930D01*
X28195Y-35892D01*
X28083Y-35892D01*
X28021Y-35954D01*
X28021Y-36367D01*
X28029Y-36367D01*
X28029Y-36467D01*
X28021Y-36467D01*
X28021Y-36879D01*
X28083Y-36942D01*
X28195Y-36942D01*
X28287Y-36904D01*
X28346Y-36845D01*
X28404Y-36904D01*
X28496Y-36942D01*
X28595Y-36942D01*
X28900Y-36942D01*
X28900Y-37270D01*
X28846Y-37270D01*
X28496Y-37270D01*
X28405Y-37308D01*
X28346Y-37366D01*
X28287Y-37308D01*
X28195Y-37270D01*
X28083Y-37270D01*
X28021Y-37332D01*
X28021Y-37745D01*
X28029Y-37745D01*
X28029Y-37845D01*
X28021Y-37845D01*
X28021Y-38257D01*
X28083Y-38320D01*
X28195Y-38320D01*
X28287Y-38282D01*
X28346Y-38223D01*
X28381Y-38258D01*
X28381Y-38671D01*
X28407Y-38801D01*
X28481Y-38911D01*
X28573Y-39004D01*
X28683Y-39077D01*
X28683Y-39077D01*
X28705Y-39082D01*
X28813Y-39103D01*
X28987Y-39103D01*
X28987Y-39195D01*
X28987Y-39431D01*
X29021Y-39513D01*
X28987Y-39596D01*
X28987Y-39651D01*
X29049Y-39713D01*
X29443Y-39713D01*
X29443Y-39705D01*
X29543Y-39705D01*
X29543Y-39713D01*
X29936Y-39713D01*
X29999Y-39651D01*
X29999Y-39603D01*
X30436Y-39603D01*
X30436Y-39603D01*
X30566Y-39577D01*
X30676Y-39504D01*
X30681Y-39499D01*
X30741Y-39644D01*
X30846Y-39683D01*
X31229Y-39300D01*
X31223Y-39294D01*
X31294Y-39223D01*
X31300Y-39229D01*
X31683Y-38846D01*
X31677Y-38832D01*
X31845Y-38665D01*
X31855Y-38640D01*
X32605Y-38640D01*
X32605Y-38639D01*
X32656Y-38629D01*
X32717Y-38655D01*
X32950Y-38655D01*
X33165Y-38566D01*
X33329Y-38402D01*
X33419Y-38187D01*
X33419Y-37955D01*
X33363Y-37820D01*
X34307Y-37820D01*
X34411Y-37924D01*
X34411Y-38404D01*
G54D10*
G36*
X35895Y-33473D02*
X35853Y-33430D01*
X35828Y-33420D01*
X35828Y-32468D01*
X35828Y-32468D01*
X35802Y-32338D01*
X35802Y-32338D01*
X35777Y-32301D01*
X35728Y-32227D01*
X35728Y-32227D01*
X34969Y-31468D01*
X34858Y-31394D01*
X34811Y-31385D01*
X34811Y-28612D01*
X34811Y-28199D01*
X34811Y-28099D01*
X34811Y-27687D01*
X34748Y-27624D01*
X34636Y-27624D01*
X34544Y-27662D01*
X34474Y-27732D01*
X34436Y-27824D01*
X34436Y-27924D01*
X34436Y-28037D01*
X34498Y-28099D01*
X34811Y-28099D01*
X34811Y-28199D01*
X34498Y-28199D01*
X34436Y-28262D01*
X34436Y-28375D01*
X34436Y-28474D01*
X34474Y-28566D01*
X34544Y-28636D01*
X34636Y-28674D01*
X34748Y-28674D01*
X34811Y-28612D01*
X34811Y-31385D01*
X34805Y-31383D01*
X34805Y-30258D01*
X34805Y-29159D01*
X34767Y-29067D01*
X34696Y-28996D01*
X34605Y-28958D01*
X34505Y-28958D01*
X34167Y-28958D01*
X34105Y-29021D01*
X34105Y-29658D01*
X34742Y-29658D01*
X34805Y-29596D01*
X34805Y-29159D01*
X34805Y-30258D01*
X34805Y-29821D01*
X34742Y-29758D01*
X34105Y-29758D01*
X34105Y-30396D01*
X34167Y-30458D01*
X34505Y-30458D01*
X34605Y-30458D01*
X34696Y-30420D01*
X34767Y-30350D01*
X34805Y-30258D01*
X34805Y-31383D01*
X34728Y-31368D01*
X34726Y-31368D01*
X34691Y-31284D01*
X34480Y-31073D01*
X34204Y-30958D01*
X34005Y-30958D01*
X34005Y-30396D01*
X34005Y-29758D01*
X34005Y-29658D01*
X34005Y-29021D01*
X33942Y-28958D01*
X33604Y-28958D01*
X33505Y-28958D01*
X33413Y-28996D01*
X33343Y-29067D01*
X33305Y-29159D01*
X33305Y-29596D01*
X33367Y-29658D01*
X34005Y-29658D01*
X34005Y-29758D01*
X33367Y-29758D01*
X33305Y-29821D01*
X33305Y-30258D01*
X33343Y-30350D01*
X33413Y-30420D01*
X33505Y-30458D01*
X33604Y-30458D01*
X33942Y-30458D01*
X34005Y-30396D01*
X34005Y-30958D01*
X33906Y-30958D01*
X33630Y-31072D01*
X33419Y-31283D01*
X33305Y-31558D01*
X33304Y-31857D01*
X33418Y-32132D01*
X33629Y-32344D01*
X33905Y-32458D01*
X34203Y-32458D01*
X34479Y-32344D01*
X34681Y-32142D01*
X35148Y-32609D01*
X35148Y-33420D01*
X35124Y-33430D01*
X34988Y-33566D01*
X34853Y-33430D01*
X34616Y-33332D01*
X34360Y-33332D01*
X34124Y-33430D01*
X34099Y-33454D01*
X34093Y-33441D01*
X34023Y-33370D01*
X33931Y-33332D01*
X33832Y-33332D01*
X33044Y-33332D01*
X32953Y-33370D01*
X32882Y-33440D01*
X32844Y-33532D01*
X32844Y-33632D01*
X32844Y-34419D01*
X32882Y-34511D01*
X32952Y-34581D01*
X33044Y-34620D01*
X33143Y-34620D01*
X33148Y-34620D01*
X33148Y-34717D01*
X32756Y-35108D01*
X32213Y-35108D01*
X32345Y-34977D01*
X32434Y-34762D01*
X32435Y-34529D01*
X32346Y-34314D01*
X32182Y-34150D01*
X32173Y-34146D01*
X32173Y-34146D01*
X32168Y-34121D01*
X32164Y-34100D01*
X32164Y-34100D01*
X32090Y-33989D01*
X31730Y-33629D01*
X31620Y-33555D01*
X31490Y-33530D01*
X30697Y-33530D01*
X30630Y-33429D01*
X30630Y-33429D01*
X30409Y-33208D01*
X30298Y-33134D01*
X30168Y-33108D01*
X29866Y-33108D01*
X29799Y-33080D01*
X29699Y-33080D01*
X29187Y-33080D01*
X29095Y-33118D01*
X29025Y-33189D01*
X28987Y-33280D01*
X28987Y-33380D01*
X28987Y-33608D01*
X28459Y-33608D01*
X27480Y-32629D01*
X27370Y-32555D01*
X27240Y-32530D01*
X26160Y-32530D01*
X26029Y-32555D01*
X25993Y-32580D01*
X25919Y-32629D01*
X25709Y-32839D01*
X25635Y-32949D01*
X25610Y-33080D01*
X25610Y-33974D01*
X25568Y-33974D01*
X25564Y-33974D01*
X25564Y-32396D01*
X27012Y-30948D01*
X27012Y-30948D01*
X27085Y-30838D01*
X27085Y-30838D01*
X27090Y-30816D01*
X27111Y-30708D01*
X27111Y-30708D01*
X27111Y-30321D01*
X27188Y-30289D01*
X27235Y-30242D01*
X27292Y-30242D01*
X27339Y-30289D01*
X27430Y-30327D01*
X27530Y-30327D01*
X28080Y-30327D01*
X28172Y-30289D01*
X28219Y-30242D01*
X28276Y-30242D01*
X28323Y-30289D01*
X28415Y-30327D01*
X28514Y-30327D01*
X29064Y-30327D01*
X29156Y-30289D01*
X29226Y-30219D01*
X29265Y-30127D01*
X29265Y-30028D01*
X29265Y-29678D01*
X29227Y-29586D01*
X29168Y-29527D01*
X29226Y-29469D01*
X29265Y-29377D01*
X29265Y-29278D01*
X29265Y-28928D01*
X29227Y-28836D01*
X29156Y-28765D01*
X29080Y-28733D01*
X29080Y-28640D01*
X29113Y-28607D01*
X33732Y-28607D01*
X33732Y-28607D01*
X33862Y-28581D01*
X33972Y-28508D01*
X34177Y-28303D01*
X34177Y-28303D01*
X34251Y-28192D01*
X34251Y-28192D01*
X34255Y-28171D01*
X34277Y-28062D01*
X34277Y-28062D01*
X34277Y-27628D01*
X34341Y-27628D01*
X34433Y-27590D01*
X34503Y-27519D01*
X34541Y-27428D01*
X34541Y-27328D01*
X34541Y-26934D01*
X34504Y-26843D01*
X34525Y-26799D01*
X34525Y-26562D01*
X34446Y-26400D01*
X34311Y-26287D01*
X34144Y-26234D01*
X33987Y-26234D01*
X33987Y-26631D01*
X34475Y-26631D01*
X34525Y-26562D01*
X34525Y-26799D01*
X34475Y-26731D01*
X33987Y-26731D01*
X33987Y-26734D01*
X33887Y-26734D01*
X33887Y-26731D01*
X33887Y-26631D01*
X33887Y-26234D01*
X33729Y-26234D01*
X33562Y-26287D01*
X33428Y-26400D01*
X33349Y-26562D01*
X33398Y-26631D01*
X33887Y-26631D01*
X33887Y-26731D01*
X33398Y-26731D01*
X33349Y-26799D01*
X33370Y-26843D01*
X33332Y-26934D01*
X33332Y-27033D01*
X33332Y-27427D01*
X33370Y-27519D01*
X33441Y-27589D01*
X33532Y-27628D01*
X33597Y-27628D01*
X33597Y-27921D01*
X33591Y-27927D01*
X31273Y-27927D01*
X31421Y-27779D01*
X31421Y-27779D01*
X31471Y-27705D01*
X31495Y-27668D01*
X31495Y-27668D01*
X31503Y-27628D01*
X31585Y-27628D01*
X31677Y-27590D01*
X31747Y-27519D01*
X31785Y-27428D01*
X31785Y-27328D01*
X31785Y-26934D01*
X31748Y-26843D01*
X31769Y-26799D01*
X31769Y-26562D01*
X31690Y-26400D01*
X31555Y-26287D01*
X31388Y-26234D01*
X31231Y-26234D01*
X31231Y-26631D01*
X31719Y-26631D01*
X31769Y-26562D01*
X31769Y-26799D01*
X31719Y-26731D01*
X31231Y-26731D01*
X31231Y-26734D01*
X31131Y-26734D01*
X31131Y-26731D01*
X31131Y-26631D01*
X31131Y-26234D01*
X30974Y-26234D01*
X30806Y-26287D01*
X30672Y-26400D01*
X30593Y-26562D01*
X30642Y-26631D01*
X31131Y-26631D01*
X31131Y-26731D01*
X30642Y-26731D01*
X30593Y-26799D01*
X30614Y-26843D01*
X30577Y-26934D01*
X30576Y-27033D01*
X30576Y-27427D01*
X30582Y-27440D01*
X29024Y-27440D01*
X29029Y-27428D01*
X29029Y-27328D01*
X29029Y-26934D01*
X28992Y-26843D01*
X29013Y-26799D01*
X29013Y-26562D01*
X28934Y-26400D01*
X28800Y-26287D01*
X28632Y-26234D01*
X28475Y-26234D01*
X28475Y-26631D01*
X28964Y-26631D01*
X29013Y-26562D01*
X29013Y-26799D01*
X28964Y-26731D01*
X28475Y-26731D01*
X28475Y-26734D01*
X28375Y-26734D01*
X28375Y-26731D01*
X28375Y-26631D01*
X28375Y-26234D01*
X28218Y-26234D01*
X28050Y-26287D01*
X27916Y-26400D01*
X27837Y-26562D01*
X27886Y-26631D01*
X28375Y-26631D01*
X28375Y-26731D01*
X27886Y-26731D01*
X27837Y-26799D01*
X27857Y-26841D01*
X26968Y-26841D01*
X26838Y-26866D01*
X26802Y-26891D01*
X26728Y-26940D01*
X26531Y-27137D01*
X26457Y-27248D01*
X26431Y-27378D01*
X26431Y-28733D01*
X26355Y-28765D01*
X26284Y-28835D01*
X26279Y-28848D01*
X26274Y-28836D01*
X26204Y-28765D01*
X26127Y-28733D01*
X26127Y-27605D01*
X26165Y-27590D01*
X26235Y-27519D01*
X26273Y-27428D01*
X26273Y-27328D01*
X26273Y-26934D01*
X26236Y-26843D01*
X26257Y-26799D01*
X26257Y-26562D01*
X26178Y-26400D01*
X26044Y-26287D01*
X25876Y-26234D01*
X25719Y-26234D01*
X25719Y-26631D01*
X26208Y-26631D01*
X26257Y-26562D01*
X26257Y-26799D01*
X26208Y-26731D01*
X25719Y-26731D01*
X25719Y-26734D01*
X25619Y-26734D01*
X25619Y-26731D01*
X25619Y-26631D01*
X25619Y-26234D01*
X25462Y-26234D01*
X25294Y-26287D01*
X25160Y-26400D01*
X25081Y-26562D01*
X25130Y-26631D01*
X25619Y-26631D01*
X25619Y-26731D01*
X25130Y-26731D01*
X25081Y-26799D01*
X25102Y-26843D01*
X25065Y-26934D01*
X25065Y-27033D01*
X25065Y-27427D01*
X25103Y-27519D01*
X25173Y-27589D01*
X25265Y-27628D01*
X25364Y-27628D01*
X25447Y-27628D01*
X25447Y-28733D01*
X25370Y-28765D01*
X25300Y-28835D01*
X25262Y-28927D01*
X25262Y-29027D01*
X25262Y-29377D01*
X25300Y-29468D01*
X25358Y-29527D01*
X25300Y-29585D01*
X25262Y-29677D01*
X25262Y-29777D01*
X25262Y-30127D01*
X25300Y-30218D01*
X25370Y-30289D01*
X25462Y-30327D01*
X25561Y-30327D01*
X26111Y-30327D01*
X26203Y-30289D01*
X26250Y-30242D01*
X26308Y-30242D01*
X26354Y-30289D01*
X26431Y-30321D01*
X26431Y-30567D01*
X25255Y-31743D01*
X25121Y-31609D01*
X25050Y-31561D01*
X25050Y-29402D01*
X24803Y-28805D01*
X24346Y-28347D01*
X23749Y-28099D01*
X23103Y-28099D01*
X22506Y-28346D01*
X22048Y-28802D01*
X21800Y-29399D01*
X21800Y-30046D01*
X22046Y-30643D01*
X22503Y-31101D01*
X23100Y-31348D01*
X23746Y-31349D01*
X24344Y-31102D01*
X24801Y-30645D01*
X25049Y-30049D01*
X25050Y-29402D01*
X25050Y-31561D01*
X25011Y-31535D01*
X24881Y-31510D01*
X21470Y-31510D01*
X21402Y-31442D01*
X21402Y-30321D01*
X21479Y-30289D01*
X21549Y-30219D01*
X21587Y-30127D01*
X21588Y-30028D01*
X21588Y-29678D01*
X21550Y-29586D01*
X21491Y-29527D01*
X21549Y-29469D01*
X21587Y-29377D01*
X21588Y-29278D01*
X21588Y-28928D01*
X21550Y-28836D01*
X21479Y-28765D01*
X21402Y-28733D01*
X21402Y-27527D01*
X21409Y-27521D01*
X22348Y-27521D01*
X22417Y-27589D01*
X22509Y-27628D01*
X22608Y-27628D01*
X23317Y-27628D01*
X23409Y-27590D01*
X23479Y-27519D01*
X23517Y-27428D01*
X23518Y-27328D01*
X23518Y-26934D01*
X23480Y-26843D01*
X23501Y-26799D01*
X23501Y-26562D01*
X23422Y-26400D01*
X23288Y-26287D01*
X23120Y-26234D01*
X22963Y-26234D01*
X22963Y-26631D01*
X23452Y-26631D01*
X23501Y-26562D01*
X23501Y-26799D01*
X23452Y-26731D01*
X22963Y-26731D01*
X22963Y-26734D01*
X22863Y-26734D01*
X22863Y-26731D01*
X22863Y-26631D01*
X22863Y-26234D01*
X22706Y-26234D01*
X22539Y-26287D01*
X22404Y-26400D01*
X22325Y-26562D01*
X22375Y-26631D01*
X22863Y-26631D01*
X22863Y-26731D01*
X22375Y-26731D01*
X22325Y-26799D01*
X22345Y-26841D01*
X21268Y-26841D01*
X21138Y-26866D01*
X21102Y-26891D01*
X21028Y-26940D01*
X20822Y-27146D01*
X20762Y-27237D01*
X20762Y-26934D01*
X20724Y-26843D01*
X20745Y-26799D01*
X20745Y-26562D01*
X20666Y-26400D01*
X20532Y-26287D01*
X20365Y-26234D01*
X20207Y-26234D01*
X20207Y-26631D01*
X20696Y-26631D01*
X20745Y-26562D01*
X20745Y-26799D01*
X20696Y-26731D01*
X20207Y-26731D01*
X20207Y-26734D01*
X20107Y-26734D01*
X20107Y-26731D01*
X20107Y-26631D01*
X20107Y-26234D01*
X19950Y-26234D01*
X19783Y-26287D01*
X19648Y-26400D01*
X19569Y-26562D01*
X19619Y-26631D01*
X20107Y-26631D01*
X20107Y-26731D01*
X19619Y-26731D01*
X19569Y-26799D01*
X19590Y-26843D01*
X19553Y-26934D01*
X19553Y-27033D01*
X19553Y-27427D01*
X19591Y-27519D01*
X19661Y-27589D01*
X19738Y-27621D01*
X19738Y-28733D01*
X19662Y-28765D01*
X19591Y-28835D01*
X19586Y-28848D01*
X19581Y-28836D01*
X19511Y-28765D01*
X19434Y-28733D01*
X19434Y-27494D01*
X19434Y-27494D01*
X19408Y-27364D01*
X19408Y-27364D01*
X19384Y-27327D01*
X19334Y-27254D01*
X19334Y-27254D01*
X19021Y-26940D01*
X18911Y-26866D01*
X18781Y-26841D01*
X17969Y-26841D01*
X17990Y-26799D01*
X17990Y-26562D01*
X17910Y-26400D01*
X17776Y-26287D01*
X17609Y-26234D01*
X17451Y-26234D01*
X17451Y-26631D01*
X17940Y-26631D01*
X17990Y-26562D01*
X17990Y-26799D01*
X17940Y-26731D01*
X17451Y-26731D01*
X17451Y-26734D01*
X17351Y-26734D01*
X17351Y-26731D01*
X17351Y-26631D01*
X17351Y-26234D01*
X17194Y-26234D01*
X17027Y-26287D01*
X16893Y-26400D01*
X16813Y-26562D01*
X16863Y-26631D01*
X17351Y-26631D01*
X17351Y-26731D01*
X16863Y-26731D01*
X16813Y-26799D01*
X16835Y-26843D01*
X16797Y-26934D01*
X16797Y-27033D01*
X16797Y-27427D01*
X16835Y-27519D01*
X16905Y-27589D01*
X16954Y-27610D01*
X16350Y-27610D01*
X15681Y-26940D01*
X15571Y-26866D01*
X15441Y-26841D01*
X15213Y-26841D01*
X15234Y-26799D01*
X15234Y-26562D01*
X15154Y-26400D01*
X15020Y-26287D01*
X14853Y-26234D01*
X14695Y-26234D01*
X14695Y-26631D01*
X15184Y-26631D01*
X15234Y-26562D01*
X15234Y-26799D01*
X15184Y-26731D01*
X14695Y-26731D01*
X14695Y-26734D01*
X14595Y-26734D01*
X14595Y-26731D01*
X14588Y-26731D01*
X14588Y-26631D01*
X14595Y-26631D01*
X14595Y-26234D01*
X14438Y-26234D01*
X14271Y-26287D01*
X14198Y-26348D01*
X14198Y-26022D01*
X14305Y-26094D01*
X14476Y-26128D01*
X14815Y-26128D01*
X14986Y-26094D01*
X15131Y-25997D01*
X15228Y-25852D01*
X15262Y-25681D01*
X15230Y-25521D01*
X16817Y-25521D01*
X16785Y-25681D01*
X16819Y-25852D01*
X16916Y-25997D01*
X17061Y-26094D01*
X17232Y-26128D01*
X17571Y-26128D01*
X17742Y-26094D01*
X17887Y-25997D01*
X17983Y-25852D01*
X18018Y-25681D01*
X17986Y-25521D01*
X19573Y-25521D01*
X19541Y-25681D01*
X19575Y-25852D01*
X19672Y-25997D01*
X19817Y-26094D01*
X19988Y-26128D01*
X20326Y-26128D01*
X20497Y-26094D01*
X20642Y-25997D01*
X20739Y-25852D01*
X20773Y-25681D01*
X20742Y-25521D01*
X22329Y-25521D01*
X22297Y-25681D01*
X22331Y-25852D01*
X22428Y-25997D01*
X22573Y-26094D01*
X22744Y-26128D01*
X23082Y-26128D01*
X23253Y-26094D01*
X23398Y-25997D01*
X23495Y-25852D01*
X23529Y-25681D01*
X23497Y-25521D01*
X25085Y-25521D01*
X25053Y-25681D01*
X25087Y-25852D01*
X25184Y-25997D01*
X25329Y-26094D01*
X25500Y-26128D01*
X25838Y-26128D01*
X26009Y-26094D01*
X26154Y-25997D01*
X26251Y-25852D01*
X26285Y-25681D01*
X26251Y-25510D01*
X26239Y-25491D01*
X27855Y-25491D01*
X27843Y-25510D01*
X27809Y-25681D01*
X27843Y-25852D01*
X27940Y-25997D01*
X28085Y-26094D01*
X28256Y-26128D01*
X28594Y-26128D01*
X28765Y-26094D01*
X28910Y-25997D01*
X29007Y-25852D01*
X29041Y-25681D01*
X29009Y-25521D01*
X30597Y-25521D01*
X30565Y-25681D01*
X30599Y-25852D01*
X30696Y-25997D01*
X30841Y-26094D01*
X31012Y-26128D01*
X31350Y-26128D01*
X31521Y-26094D01*
X31666Y-25997D01*
X31763Y-25852D01*
X31797Y-25681D01*
X31765Y-25521D01*
X33352Y-25521D01*
X33321Y-25681D01*
X33355Y-25852D01*
X33452Y-25997D01*
X33597Y-26094D01*
X33768Y-26128D01*
X34106Y-26128D01*
X34277Y-26094D01*
X34386Y-26021D01*
X34390Y-26021D01*
X34790Y-26421D01*
X34790Y-26421D01*
X34900Y-26495D01*
X34900Y-26495D01*
X34922Y-26499D01*
X35031Y-26521D01*
X35073Y-26521D01*
X35083Y-26545D01*
X35108Y-26569D01*
X35094Y-26575D01*
X35024Y-26645D01*
X34986Y-26737D01*
X34986Y-26836D01*
X34986Y-27624D01*
X34986Y-27624D01*
X34973Y-27624D01*
X34911Y-27687D01*
X34911Y-28099D01*
X34919Y-28099D01*
X34919Y-28199D01*
X34911Y-28199D01*
X34911Y-28612D01*
X34973Y-28674D01*
X35085Y-28674D01*
X35177Y-28636D01*
X35236Y-28578D01*
X35294Y-28636D01*
X35386Y-28674D01*
X35485Y-28674D01*
X35835Y-28674D01*
X35895Y-28649D01*
X35895Y-33473D01*
X35895Y-33473D01*
G37*
G54D31*
X35895Y-33473D02*
X35853Y-33430D01*
X35828Y-33420D01*
X35828Y-32468D01*
X35828Y-32468D01*
X35802Y-32338D01*
X35802Y-32338D01*
X35777Y-32301D01*
X35728Y-32227D01*
X35728Y-32227D01*
X34969Y-31468D01*
X34858Y-31394D01*
X34811Y-31385D01*
X34811Y-28612D01*
X34811Y-28199D01*
X34811Y-28099D01*
X34811Y-27687D01*
X34748Y-27624D01*
X34636Y-27624D01*
X34544Y-27662D01*
X34474Y-27732D01*
X34436Y-27824D01*
X34436Y-27924D01*
X34436Y-28037D01*
X34498Y-28099D01*
X34811Y-28099D01*
X34811Y-28199D01*
X34498Y-28199D01*
X34436Y-28262D01*
X34436Y-28375D01*
X34436Y-28474D01*
X34474Y-28566D01*
X34544Y-28636D01*
X34636Y-28674D01*
X34748Y-28674D01*
X34811Y-28612D01*
X34811Y-31385D01*
X34805Y-31383D01*
X34805Y-30258D01*
X34805Y-29159D01*
X34767Y-29067D01*
X34696Y-28996D01*
X34605Y-28958D01*
X34505Y-28958D01*
X34167Y-28958D01*
X34105Y-29021D01*
X34105Y-29658D01*
X34742Y-29658D01*
X34805Y-29596D01*
X34805Y-29159D01*
X34805Y-30258D01*
X34805Y-29821D01*
X34742Y-29758D01*
X34105Y-29758D01*
X34105Y-30396D01*
X34167Y-30458D01*
X34505Y-30458D01*
X34605Y-30458D01*
X34696Y-30420D01*
X34767Y-30350D01*
X34805Y-30258D01*
X34805Y-31383D01*
X34728Y-31368D01*
X34726Y-31368D01*
X34691Y-31284D01*
X34480Y-31073D01*
X34204Y-30958D01*
X34005Y-30958D01*
X34005Y-30396D01*
X34005Y-29758D01*
X34005Y-29658D01*
X34005Y-29021D01*
X33942Y-28958D01*
X33604Y-28958D01*
X33505Y-28958D01*
X33413Y-28996D01*
X33343Y-29067D01*
X33305Y-29159D01*
X33305Y-29596D01*
X33367Y-29658D01*
X34005Y-29658D01*
X34005Y-29758D01*
X33367Y-29758D01*
X33305Y-29821D01*
X33305Y-30258D01*
X33343Y-30350D01*
X33413Y-30420D01*
X33505Y-30458D01*
X33604Y-30458D01*
X33942Y-30458D01*
X34005Y-30396D01*
X34005Y-30958D01*
X33906Y-30958D01*
X33630Y-31072D01*
X33419Y-31283D01*
X33305Y-31558D01*
X33304Y-31857D01*
X33418Y-32132D01*
X33629Y-32344D01*
X33905Y-32458D01*
X34203Y-32458D01*
X34479Y-32344D01*
X34681Y-32142D01*
X35148Y-32609D01*
X35148Y-33420D01*
X35124Y-33430D01*
X34988Y-33566D01*
X34853Y-33430D01*
X34616Y-33332D01*
X34360Y-33332D01*
X34124Y-33430D01*
X34099Y-33454D01*
X34093Y-33441D01*
X34023Y-33370D01*
X33931Y-33332D01*
X33832Y-33332D01*
X33044Y-33332D01*
X32953Y-33370D01*
X32882Y-33440D01*
X32844Y-33532D01*
X32844Y-33632D01*
X32844Y-34419D01*
X32882Y-34511D01*
X32952Y-34581D01*
X33044Y-34620D01*
X33143Y-34620D01*
X33148Y-34620D01*
X33148Y-34717D01*
X32756Y-35108D01*
X32213Y-35108D01*
X32345Y-34977D01*
X32434Y-34762D01*
X32435Y-34529D01*
X32346Y-34314D01*
X32182Y-34150D01*
X32173Y-34146D01*
X32173Y-34146D01*
X32168Y-34121D01*
X32164Y-34100D01*
X32164Y-34100D01*
X32090Y-33989D01*
X31730Y-33629D01*
X31620Y-33555D01*
X31490Y-33530D01*
X30697Y-33530D01*
X30630Y-33429D01*
X30630Y-33429D01*
X30409Y-33208D01*
X30298Y-33134D01*
X30168Y-33108D01*
X29866Y-33108D01*
X29799Y-33080D01*
X29699Y-33080D01*
X29187Y-33080D01*
X29095Y-33118D01*
X29025Y-33189D01*
X28987Y-33280D01*
X28987Y-33380D01*
X28987Y-33608D01*
X28459Y-33608D01*
X27480Y-32629D01*
X27370Y-32555D01*
X27240Y-32530D01*
X26160Y-32530D01*
X26029Y-32555D01*
X25993Y-32580D01*
X25919Y-32629D01*
X25709Y-32839D01*
X25635Y-32949D01*
X25610Y-33080D01*
X25610Y-33974D01*
X25568Y-33974D01*
X25564Y-33974D01*
X25564Y-32396D01*
X27012Y-30948D01*
X27012Y-30948D01*
X27085Y-30838D01*
X27085Y-30838D01*
X27090Y-30816D01*
X27111Y-30708D01*
X27111Y-30708D01*
X27111Y-30321D01*
X27188Y-30289D01*
X27235Y-30242D01*
X27292Y-30242D01*
X27339Y-30289D01*
X27430Y-30327D01*
X27530Y-30327D01*
X28080Y-30327D01*
X28172Y-30289D01*
X28219Y-30242D01*
X28276Y-30242D01*
X28323Y-30289D01*
X28415Y-30327D01*
X28514Y-30327D01*
X29064Y-30327D01*
X29156Y-30289D01*
X29226Y-30219D01*
X29265Y-30127D01*
X29265Y-30028D01*
X29265Y-29678D01*
X29227Y-29586D01*
X29168Y-29527D01*
X29226Y-29469D01*
X29265Y-29377D01*
X29265Y-29278D01*
X29265Y-28928D01*
X29227Y-28836D01*
X29156Y-28765D01*
X29080Y-28733D01*
X29080Y-28640D01*
X29113Y-28607D01*
X33732Y-28607D01*
X33732Y-28607D01*
X33862Y-28581D01*
X33972Y-28508D01*
X34177Y-28303D01*
X34177Y-28303D01*
X34251Y-28192D01*
X34251Y-28192D01*
X34255Y-28171D01*
X34277Y-28062D01*
X34277Y-28062D01*
X34277Y-27628D01*
X34341Y-27628D01*
X34433Y-27590D01*
X34503Y-27519D01*
X34541Y-27428D01*
X34541Y-27328D01*
X34541Y-26934D01*
X34504Y-26843D01*
X34525Y-26799D01*
X34525Y-26562D01*
X34446Y-26400D01*
X34311Y-26287D01*
X34144Y-26234D01*
X33987Y-26234D01*
X33987Y-26631D01*
X34475Y-26631D01*
X34525Y-26562D01*
X34525Y-26799D01*
X34475Y-26731D01*
X33987Y-26731D01*
X33987Y-26734D01*
X33887Y-26734D01*
X33887Y-26731D01*
X33887Y-26631D01*
X33887Y-26234D01*
X33729Y-26234D01*
X33562Y-26287D01*
X33428Y-26400D01*
X33349Y-26562D01*
X33398Y-26631D01*
X33887Y-26631D01*
X33887Y-26731D01*
X33398Y-26731D01*
X33349Y-26799D01*
X33370Y-26843D01*
X33332Y-26934D01*
X33332Y-27033D01*
X33332Y-27427D01*
X33370Y-27519D01*
X33441Y-27589D01*
X33532Y-27628D01*
X33597Y-27628D01*
X33597Y-27921D01*
X33591Y-27927D01*
X31273Y-27927D01*
X31421Y-27779D01*
X31421Y-27779D01*
X31471Y-27705D01*
X31495Y-27668D01*
X31495Y-27668D01*
X31503Y-27628D01*
X31585Y-27628D01*
X31677Y-27590D01*
X31747Y-27519D01*
X31785Y-27428D01*
X31785Y-27328D01*
X31785Y-26934D01*
X31748Y-26843D01*
X31769Y-26799D01*
X31769Y-26562D01*
X31690Y-26400D01*
X31555Y-26287D01*
X31388Y-26234D01*
X31231Y-26234D01*
X31231Y-26631D01*
X31719Y-26631D01*
X31769Y-26562D01*
X31769Y-26799D01*
X31719Y-26731D01*
X31231Y-26731D01*
X31231Y-26734D01*
X31131Y-26734D01*
X31131Y-26731D01*
X31131Y-26631D01*
X31131Y-26234D01*
X30974Y-26234D01*
X30806Y-26287D01*
X30672Y-26400D01*
X30593Y-26562D01*
X30642Y-26631D01*
X31131Y-26631D01*
X31131Y-26731D01*
X30642Y-26731D01*
X30593Y-26799D01*
X30614Y-26843D01*
X30577Y-26934D01*
X30576Y-27033D01*
X30576Y-27427D01*
X30582Y-27440D01*
X29024Y-27440D01*
X29029Y-27428D01*
X29029Y-27328D01*
X29029Y-26934D01*
X28992Y-26843D01*
X29013Y-26799D01*
X29013Y-26562D01*
X28934Y-26400D01*
X28800Y-26287D01*
X28632Y-26234D01*
X28475Y-26234D01*
X28475Y-26631D01*
X28964Y-26631D01*
X29013Y-26562D01*
X29013Y-26799D01*
X28964Y-26731D01*
X28475Y-26731D01*
X28475Y-26734D01*
X28375Y-26734D01*
X28375Y-26731D01*
X28375Y-26631D01*
X28375Y-26234D01*
X28218Y-26234D01*
X28050Y-26287D01*
X27916Y-26400D01*
X27837Y-26562D01*
X27886Y-26631D01*
X28375Y-26631D01*
X28375Y-26731D01*
X27886Y-26731D01*
X27837Y-26799D01*
X27857Y-26841D01*
X26968Y-26841D01*
X26838Y-26866D01*
X26802Y-26891D01*
X26728Y-26940D01*
X26531Y-27137D01*
X26457Y-27248D01*
X26431Y-27378D01*
X26431Y-28733D01*
X26355Y-28765D01*
X26284Y-28835D01*
X26279Y-28848D01*
X26274Y-28836D01*
X26204Y-28765D01*
X26127Y-28733D01*
X26127Y-27605D01*
X26165Y-27590D01*
X26235Y-27519D01*
X26273Y-27428D01*
X26273Y-27328D01*
X26273Y-26934D01*
X26236Y-26843D01*
X26257Y-26799D01*
X26257Y-26562D01*
X26178Y-26400D01*
X26044Y-26287D01*
X25876Y-26234D01*
X25719Y-26234D01*
X25719Y-26631D01*
X26208Y-26631D01*
X26257Y-26562D01*
X26257Y-26799D01*
X26208Y-26731D01*
X25719Y-26731D01*
X25719Y-26734D01*
X25619Y-26734D01*
X25619Y-26731D01*
X25619Y-26631D01*
X25619Y-26234D01*
X25462Y-26234D01*
X25294Y-26287D01*
X25160Y-26400D01*
X25081Y-26562D01*
X25130Y-26631D01*
X25619Y-26631D01*
X25619Y-26731D01*
X25130Y-26731D01*
X25081Y-26799D01*
X25102Y-26843D01*
X25065Y-26934D01*
X25065Y-27033D01*
X25065Y-27427D01*
X25103Y-27519D01*
X25173Y-27589D01*
X25265Y-27628D01*
X25364Y-27628D01*
X25447Y-27628D01*
X25447Y-28733D01*
X25370Y-28765D01*
X25300Y-28835D01*
X25262Y-28927D01*
X25262Y-29027D01*
X25262Y-29377D01*
X25300Y-29468D01*
X25358Y-29527D01*
X25300Y-29585D01*
X25262Y-29677D01*
X25262Y-29777D01*
X25262Y-30127D01*
X25300Y-30218D01*
X25370Y-30289D01*
X25462Y-30327D01*
X25561Y-30327D01*
X26111Y-30327D01*
X26203Y-30289D01*
X26250Y-30242D01*
X26308Y-30242D01*
X26354Y-30289D01*
X26431Y-30321D01*
X26431Y-30567D01*
X25255Y-31743D01*
X25121Y-31609D01*
X25050Y-31561D01*
X25050Y-29402D01*
X24803Y-28805D01*
X24346Y-28347D01*
X23749Y-28099D01*
X23103Y-28099D01*
X22506Y-28346D01*
X22048Y-28802D01*
X21800Y-29399D01*
X21800Y-30046D01*
X22046Y-30643D01*
X22503Y-31101D01*
X23100Y-31348D01*
X23746Y-31349D01*
X24344Y-31102D01*
X24801Y-30645D01*
X25049Y-30049D01*
X25050Y-29402D01*
X25050Y-31561D01*
X25011Y-31535D01*
X24881Y-31510D01*
X21470Y-31510D01*
X21402Y-31442D01*
X21402Y-30321D01*
X21479Y-30289D01*
X21549Y-30219D01*
X21587Y-30127D01*
X21588Y-30028D01*
X21588Y-29678D01*
X21550Y-29586D01*
X21491Y-29527D01*
X21549Y-29469D01*
X21587Y-29377D01*
X21588Y-29278D01*
X21588Y-28928D01*
X21550Y-28836D01*
X21479Y-28765D01*
X21402Y-28733D01*
X21402Y-27527D01*
X21409Y-27521D01*
X22348Y-27521D01*
X22417Y-27589D01*
X22509Y-27628D01*
X22608Y-27628D01*
X23317Y-27628D01*
X23409Y-27590D01*
X23479Y-27519D01*
X23517Y-27428D01*
X23518Y-27328D01*
X23518Y-26934D01*
X23480Y-26843D01*
X23501Y-26799D01*
X23501Y-26562D01*
X23422Y-26400D01*
X23288Y-26287D01*
X23120Y-26234D01*
X22963Y-26234D01*
X22963Y-26631D01*
X23452Y-26631D01*
X23501Y-26562D01*
X23501Y-26799D01*
X23452Y-26731D01*
X22963Y-26731D01*
X22963Y-26734D01*
X22863Y-26734D01*
X22863Y-26731D01*
X22863Y-26631D01*
X22863Y-26234D01*
X22706Y-26234D01*
X22539Y-26287D01*
X22404Y-26400D01*
X22325Y-26562D01*
X22375Y-26631D01*
X22863Y-26631D01*
X22863Y-26731D01*
X22375Y-26731D01*
X22325Y-26799D01*
X22345Y-26841D01*
X21268Y-26841D01*
X21138Y-26866D01*
X21102Y-26891D01*
X21028Y-26940D01*
X20822Y-27146D01*
X20762Y-27237D01*
X20762Y-26934D01*
X20724Y-26843D01*
X20745Y-26799D01*
X20745Y-26562D01*
X20666Y-26400D01*
X20532Y-26287D01*
X20365Y-26234D01*
X20207Y-26234D01*
X20207Y-26631D01*
X20696Y-26631D01*
X20745Y-26562D01*
X20745Y-26799D01*
X20696Y-26731D01*
X20207Y-26731D01*
X20207Y-26734D01*
X20107Y-26734D01*
X20107Y-26731D01*
X20107Y-26631D01*
X20107Y-26234D01*
X19950Y-26234D01*
X19783Y-26287D01*
X19648Y-26400D01*
X19569Y-26562D01*
X19619Y-26631D01*
X20107Y-26631D01*
X20107Y-26731D01*
X19619Y-26731D01*
X19569Y-26799D01*
X19590Y-26843D01*
X19553Y-26934D01*
X19553Y-27033D01*
X19553Y-27427D01*
X19591Y-27519D01*
X19661Y-27589D01*
X19738Y-27621D01*
X19738Y-28733D01*
X19662Y-28765D01*
X19591Y-28835D01*
X19586Y-28848D01*
X19581Y-28836D01*
X19511Y-28765D01*
X19434Y-28733D01*
X19434Y-27494D01*
X19434Y-27494D01*
X19408Y-27364D01*
X19408Y-27364D01*
X19384Y-27327D01*
X19334Y-27254D01*
X19334Y-27254D01*
X19021Y-26940D01*
X18911Y-26866D01*
X18781Y-26841D01*
X17969Y-26841D01*
X17990Y-26799D01*
X17990Y-26562D01*
X17910Y-26400D01*
X17776Y-26287D01*
X17609Y-26234D01*
X17451Y-26234D01*
X17451Y-26631D01*
X17940Y-26631D01*
X17990Y-26562D01*
X17990Y-26799D01*
X17940Y-26731D01*
X17451Y-26731D01*
X17451Y-26734D01*
X17351Y-26734D01*
X17351Y-26731D01*
X17351Y-26631D01*
X17351Y-26234D01*
X17194Y-26234D01*
X17027Y-26287D01*
X16893Y-26400D01*
X16813Y-26562D01*
X16863Y-26631D01*
X17351Y-26631D01*
X17351Y-26731D01*
X16863Y-26731D01*
X16813Y-26799D01*
X16835Y-26843D01*
X16797Y-26934D01*
X16797Y-27033D01*
X16797Y-27427D01*
X16835Y-27519D01*
X16905Y-27589D01*
X16954Y-27610D01*
X16350Y-27610D01*
X15681Y-26940D01*
X15571Y-26866D01*
X15441Y-26841D01*
X15213Y-26841D01*
X15234Y-26799D01*
X15234Y-26562D01*
X15154Y-26400D01*
X15020Y-26287D01*
X14853Y-26234D01*
X14695Y-26234D01*
X14695Y-26631D01*
X15184Y-26631D01*
X15234Y-26562D01*
X15234Y-26799D01*
X15184Y-26731D01*
X14695Y-26731D01*
X14695Y-26734D01*
X14595Y-26734D01*
X14595Y-26731D01*
X14588Y-26731D01*
X14588Y-26631D01*
X14595Y-26631D01*
X14595Y-26234D01*
X14438Y-26234D01*
X14271Y-26287D01*
X14198Y-26348D01*
X14198Y-26022D01*
X14305Y-26094D01*
X14476Y-26128D01*
X14815Y-26128D01*
X14986Y-26094D01*
X15131Y-25997D01*
X15228Y-25852D01*
X15262Y-25681D01*
X15230Y-25521D01*
X16817Y-25521D01*
X16785Y-25681D01*
X16819Y-25852D01*
X16916Y-25997D01*
X17061Y-26094D01*
X17232Y-26128D01*
X17571Y-26128D01*
X17742Y-26094D01*
X17887Y-25997D01*
X17983Y-25852D01*
X18018Y-25681D01*
X17986Y-25521D01*
X19573Y-25521D01*
X19541Y-25681D01*
X19575Y-25852D01*
X19672Y-25997D01*
X19817Y-26094D01*
X19988Y-26128D01*
X20326Y-26128D01*
X20497Y-26094D01*
X20642Y-25997D01*
X20739Y-25852D01*
X20773Y-25681D01*
X20742Y-25521D01*
X22329Y-25521D01*
X22297Y-25681D01*
X22331Y-25852D01*
X22428Y-25997D01*
X22573Y-26094D01*
X22744Y-26128D01*
X23082Y-26128D01*
X23253Y-26094D01*
X23398Y-25997D01*
X23495Y-25852D01*
X23529Y-25681D01*
X23497Y-25521D01*
X25085Y-25521D01*
X25053Y-25681D01*
X25087Y-25852D01*
X25184Y-25997D01*
X25329Y-26094D01*
X25500Y-26128D01*
X25838Y-26128D01*
X26009Y-26094D01*
X26154Y-25997D01*
X26251Y-25852D01*
X26285Y-25681D01*
X26251Y-25510D01*
X26239Y-25491D01*
X27855Y-25491D01*
X27843Y-25510D01*
X27809Y-25681D01*
X27843Y-25852D01*
X27940Y-25997D01*
X28085Y-26094D01*
X28256Y-26128D01*
X28594Y-26128D01*
X28765Y-26094D01*
X28910Y-25997D01*
X29007Y-25852D01*
X29041Y-25681D01*
X29009Y-25521D01*
X30597Y-25521D01*
X30565Y-25681D01*
X30599Y-25852D01*
X30696Y-25997D01*
X30841Y-26094D01*
X31012Y-26128D01*
X31350Y-26128D01*
X31521Y-26094D01*
X31666Y-25997D01*
X31763Y-25852D01*
X31797Y-25681D01*
X31765Y-25521D01*
X33352Y-25521D01*
X33321Y-25681D01*
X33355Y-25852D01*
X33452Y-25997D01*
X33597Y-26094D01*
X33768Y-26128D01*
X34106Y-26128D01*
X34277Y-26094D01*
X34386Y-26021D01*
X34390Y-26021D01*
X34790Y-26421D01*
X34790Y-26421D01*
X34900Y-26495D01*
X34900Y-26495D01*
X34922Y-26499D01*
X35031Y-26521D01*
X35073Y-26521D01*
X35083Y-26545D01*
X35108Y-26569D01*
X35094Y-26575D01*
X35024Y-26645D01*
X34986Y-26737D01*
X34986Y-26836D01*
X34986Y-27624D01*
X34986Y-27624D01*
X34973Y-27624D01*
X34911Y-27687D01*
X34911Y-28099D01*
X34919Y-28099D01*
X34919Y-28199D01*
X34911Y-28199D01*
X34911Y-28612D01*
X34973Y-28674D01*
X35085Y-28674D01*
X35177Y-28636D01*
X35236Y-28578D01*
X35294Y-28636D01*
X35386Y-28674D01*
X35485Y-28674D01*
X35835Y-28674D01*
X35895Y-28649D01*
X35895Y-33473D01*
G54D10*
G36*
X35895Y-61486D02*
X35877Y-61486D01*
X35877Y-59520D01*
X35630Y-58923D01*
X35173Y-58465D01*
X34576Y-58217D01*
X33930Y-58217D01*
X33332Y-58464D01*
X32875Y-58920D01*
X32627Y-59517D01*
X32626Y-60164D01*
X32873Y-60761D01*
X33330Y-61219D01*
X33927Y-61467D01*
X34573Y-61467D01*
X35171Y-61220D01*
X35628Y-60764D01*
X35876Y-60167D01*
X35877Y-59520D01*
X35877Y-61486D01*
X22694Y-61486D01*
X22694Y-56434D01*
X22694Y-55434D01*
X22625Y-55269D01*
X22499Y-55142D01*
X22333Y-55073D01*
X22154Y-55073D01*
X21989Y-55141D01*
X21862Y-55268D01*
X21794Y-55433D01*
X21794Y-55612D01*
X21862Y-55778D01*
X21988Y-55904D01*
X22154Y-55973D01*
X22333Y-55973D01*
X22498Y-55905D01*
X22625Y-55778D01*
X22694Y-55613D01*
X22694Y-55434D01*
X22694Y-56434D01*
X22625Y-56269D01*
X22499Y-56142D01*
X22333Y-56073D01*
X22154Y-56073D01*
X21989Y-56141D01*
X21862Y-56268D01*
X21794Y-56433D01*
X21794Y-56612D01*
X21862Y-56778D01*
X21988Y-56904D01*
X22154Y-56973D01*
X22333Y-56973D01*
X22498Y-56905D01*
X22625Y-56778D01*
X22694Y-56613D01*
X22694Y-56434D01*
X22694Y-61486D01*
X21119Y-61486D01*
X21119Y-56434D01*
X21119Y-55434D01*
X21051Y-55269D01*
X20924Y-55142D01*
X20759Y-55073D01*
X20580Y-55073D01*
X20414Y-55141D01*
X20288Y-55268D01*
X20219Y-55433D01*
X20219Y-55612D01*
X20287Y-55778D01*
X20414Y-55904D01*
X20579Y-55973D01*
X20758Y-55973D01*
X20923Y-55905D01*
X21050Y-55778D01*
X21119Y-55613D01*
X21119Y-55434D01*
X21119Y-56434D01*
X21051Y-56269D01*
X20924Y-56142D01*
X20759Y-56073D01*
X20580Y-56073D01*
X20414Y-56141D01*
X20288Y-56268D01*
X20219Y-56433D01*
X20219Y-56612D01*
X20287Y-56778D01*
X20414Y-56904D01*
X20579Y-56973D01*
X20758Y-56973D01*
X20923Y-56905D01*
X21050Y-56778D01*
X21119Y-56613D01*
X21119Y-56434D01*
X21119Y-61486D01*
X14223Y-61486D01*
X14223Y-59520D01*
X14223Y-52827D01*
X13976Y-52230D01*
X13520Y-51772D01*
X12923Y-51525D01*
X12276Y-51524D01*
X11679Y-51771D01*
X11221Y-52228D01*
X10973Y-52824D01*
X10973Y-53471D01*
X11220Y-54068D01*
X11676Y-54526D01*
X12273Y-54774D01*
X12920Y-54774D01*
X13517Y-54527D01*
X13975Y-54071D01*
X14222Y-53474D01*
X14223Y-52827D01*
X14223Y-59520D01*
X13976Y-58923D01*
X13520Y-58465D01*
X12923Y-58217D01*
X12276Y-58217D01*
X11679Y-58464D01*
X11221Y-58920D01*
X10973Y-59517D01*
X10973Y-60164D01*
X11220Y-60761D01*
X11676Y-61219D01*
X12273Y-61467D01*
X12920Y-61467D01*
X13517Y-61220D01*
X13975Y-60764D01*
X14222Y-60167D01*
X14223Y-59520D01*
X14223Y-61486D01*
X10954Y-61486D01*
X10954Y-30551D01*
X11015Y-30698D01*
X11121Y-30737D01*
X11504Y-30354D01*
X11121Y-29971D01*
X11015Y-30010D01*
X10954Y-30174D01*
X10954Y-27629D01*
X11052Y-27726D01*
X11288Y-27824D01*
X11544Y-27824D01*
X11781Y-27727D01*
X11962Y-27546D01*
X12060Y-27309D01*
X12061Y-27053D01*
X11963Y-26816D01*
X11827Y-26681D01*
X11911Y-26597D01*
X11912Y-26597D01*
X12127Y-26686D01*
X12359Y-26687D01*
X12574Y-26598D01*
X12739Y-26433D01*
X12828Y-26219D01*
X12828Y-25986D01*
X12740Y-25771D01*
X12596Y-25627D01*
X12598Y-25625D01*
X12656Y-25683D01*
X12748Y-25721D01*
X12860Y-25721D01*
X12923Y-25659D01*
X12923Y-25246D01*
X12915Y-25246D01*
X12915Y-25146D01*
X12923Y-25146D01*
X12923Y-24734D01*
X12860Y-24671D01*
X12748Y-24671D01*
X12656Y-24709D01*
X12598Y-24768D01*
X12540Y-24710D01*
X12448Y-24671D01*
X12348Y-24671D01*
X12033Y-24671D01*
X12023Y-24645D01*
X11952Y-24575D01*
X11860Y-24537D01*
X11761Y-24537D01*
X10974Y-24537D01*
X10954Y-24545D01*
X10954Y-20403D01*
X11052Y-20639D01*
X11233Y-20820D01*
X11469Y-20919D01*
X11725Y-20919D01*
X11962Y-20821D01*
X12098Y-20685D01*
X12233Y-20820D01*
X12272Y-20837D01*
X12284Y-20898D01*
X12358Y-21008D01*
X12361Y-21012D01*
X12276Y-21012D01*
X11679Y-21259D01*
X11221Y-21716D01*
X10973Y-22313D01*
X10973Y-22959D01*
X11220Y-23556D01*
X11676Y-24014D01*
X12273Y-24262D01*
X12920Y-24262D01*
X13517Y-24016D01*
X13975Y-23559D01*
X14222Y-22962D01*
X14223Y-22316D01*
X14186Y-22226D01*
X14540Y-22579D01*
X14540Y-22579D01*
X14650Y-22653D01*
X14650Y-22653D01*
X14671Y-22657D01*
X14780Y-22679D01*
X15142Y-22679D01*
X15268Y-22805D01*
X15483Y-22894D01*
X15715Y-22894D01*
X15930Y-22805D01*
X16095Y-22641D01*
X16184Y-22426D01*
X16184Y-22194D01*
X16095Y-21979D01*
X15931Y-21814D01*
X15716Y-21725D01*
X15484Y-21725D01*
X15269Y-21814D01*
X15113Y-21970D01*
X15091Y-21970D01*
X15091Y-21071D01*
X15091Y-20959D01*
X15029Y-20897D01*
X14616Y-20897D01*
X14616Y-21209D01*
X14679Y-21272D01*
X14792Y-21272D01*
X14891Y-21272D01*
X14983Y-21234D01*
X15053Y-21163D01*
X15091Y-21071D01*
X15091Y-21970D01*
X14940Y-21970D01*
X14243Y-21272D01*
X14341Y-21272D01*
X14454Y-21272D01*
X14516Y-21209D01*
X14516Y-20897D01*
X14509Y-20897D01*
X14509Y-20797D01*
X14516Y-20797D01*
X14516Y-20789D01*
X14616Y-20789D01*
X14616Y-20797D01*
X15029Y-20797D01*
X15091Y-20734D01*
X15091Y-20622D01*
X15053Y-20531D01*
X14995Y-20472D01*
X15053Y-20414D01*
X15091Y-20322D01*
X15091Y-20222D01*
X15091Y-19872D01*
X15067Y-19813D01*
X15481Y-19813D01*
X15383Y-19910D01*
X15285Y-20146D01*
X15285Y-20403D01*
X15383Y-20639D01*
X15564Y-20820D01*
X15800Y-20919D01*
X16056Y-20919D01*
X16293Y-20821D01*
X16429Y-20685D01*
X16564Y-20820D01*
X16589Y-20831D01*
X16589Y-21245D01*
X16433Y-21400D01*
X16344Y-21615D01*
X16344Y-21848D01*
X16433Y-22063D01*
X16597Y-22227D01*
X16812Y-22316D01*
X17044Y-22317D01*
X17259Y-22228D01*
X17389Y-22098D01*
X17426Y-22187D01*
X17496Y-22257D01*
X17588Y-22296D01*
X17687Y-22296D01*
X17800Y-22296D01*
X17863Y-22233D01*
X17863Y-21921D01*
X17855Y-21921D01*
X17855Y-21821D01*
X17863Y-21821D01*
X17863Y-21813D01*
X17963Y-21813D01*
X17963Y-21821D01*
X18375Y-21821D01*
X18438Y-21758D01*
X18438Y-21646D01*
X18400Y-21554D01*
X18341Y-21496D01*
X18400Y-21437D01*
X18438Y-21346D01*
X18438Y-21246D01*
X18438Y-20896D01*
X18436Y-20892D01*
X18464Y-20881D01*
X18534Y-20811D01*
X18572Y-20719D01*
X18572Y-20619D01*
X18572Y-20448D01*
X18637Y-20606D01*
X18802Y-20770D01*
X19017Y-20860D01*
X19249Y-20860D01*
X19464Y-20771D01*
X19620Y-20615D01*
X19703Y-20615D01*
X19713Y-20639D01*
X19894Y-20820D01*
X20131Y-20919D01*
X20387Y-20919D01*
X20623Y-20821D01*
X20759Y-20685D01*
X20894Y-20820D01*
X21131Y-20919D01*
X21387Y-20919D01*
X21623Y-20821D01*
X21648Y-20797D01*
X21654Y-20810D01*
X21719Y-20875D01*
X21719Y-20956D01*
X21719Y-21306D01*
X21757Y-21398D01*
X21815Y-21456D01*
X21757Y-21515D01*
X21719Y-21607D01*
X21719Y-21719D01*
X21781Y-21781D01*
X22194Y-21781D01*
X22194Y-21773D01*
X22294Y-21773D01*
X22294Y-21781D01*
X22706Y-21781D01*
X22769Y-21719D01*
X22769Y-21607D01*
X22731Y-21515D01*
X22672Y-21456D01*
X22730Y-21398D01*
X22769Y-21306D01*
X22769Y-21207D01*
X22769Y-20892D01*
X22794Y-20881D01*
X22865Y-20811D01*
X22903Y-20719D01*
X22903Y-20619D01*
X22903Y-20544D01*
X22929Y-20606D01*
X23093Y-20770D01*
X23308Y-20860D01*
X23540Y-20860D01*
X23755Y-20771D01*
X23912Y-20615D01*
X24034Y-20615D01*
X24044Y-20639D01*
X24225Y-20820D01*
X24461Y-20919D01*
X24718Y-20919D01*
X24954Y-20821D01*
X25090Y-20685D01*
X25225Y-20820D01*
X25461Y-20919D01*
X25718Y-20919D01*
X25954Y-20821D01*
X25979Y-20797D01*
X25984Y-20810D01*
X26049Y-20875D01*
X26049Y-20956D01*
X26049Y-21306D01*
X26087Y-21398D01*
X26146Y-21456D01*
X26087Y-21515D01*
X26049Y-21607D01*
X26049Y-21719D01*
X26112Y-21781D01*
X26524Y-21781D01*
X26524Y-21773D01*
X26624Y-21773D01*
X26624Y-21781D01*
X27037Y-21781D01*
X27099Y-21719D01*
X27099Y-21607D01*
X27061Y-21515D01*
X27003Y-21456D01*
X27061Y-21398D01*
X27099Y-21306D01*
X27099Y-21207D01*
X27099Y-20892D01*
X27125Y-20881D01*
X27196Y-20811D01*
X27234Y-20719D01*
X27234Y-20620D01*
X27384Y-20770D01*
X27599Y-20860D01*
X27832Y-20860D01*
X28047Y-20771D01*
X28203Y-20615D01*
X28365Y-20615D01*
X28375Y-20639D01*
X28556Y-20820D01*
X28792Y-20919D01*
X29048Y-20919D01*
X29285Y-20821D01*
X29421Y-20685D01*
X29556Y-20820D01*
X29792Y-20919D01*
X30048Y-20919D01*
X30285Y-20821D01*
X30309Y-20797D01*
X30315Y-20810D01*
X30380Y-20875D01*
X30380Y-20956D01*
X30380Y-21306D01*
X30418Y-21398D01*
X30476Y-21456D01*
X30418Y-21515D01*
X30380Y-21607D01*
X30380Y-21719D01*
X30443Y-21781D01*
X30855Y-21781D01*
X30855Y-21773D01*
X30955Y-21773D01*
X30955Y-21781D01*
X31368Y-21781D01*
X31430Y-21719D01*
X31430Y-21607D01*
X31392Y-21515D01*
X31334Y-21456D01*
X31392Y-21398D01*
X31430Y-21306D01*
X31430Y-21207D01*
X31430Y-20892D01*
X31456Y-20881D01*
X31526Y-20811D01*
X31564Y-20719D01*
X31565Y-20619D01*
X31565Y-20488D01*
X31630Y-20645D01*
X31782Y-20798D01*
X31758Y-20857D01*
X31758Y-20969D01*
X31820Y-21031D01*
X32233Y-21031D01*
X32233Y-21023D01*
X32333Y-21023D01*
X32333Y-21031D01*
X32745Y-21031D01*
X32808Y-20969D01*
X32808Y-20857D01*
X32770Y-20765D01*
X32700Y-20694D01*
X32610Y-20657D01*
X32621Y-20646D01*
X32634Y-20615D01*
X32695Y-20615D01*
X32705Y-20639D01*
X32886Y-20820D01*
X33058Y-20892D01*
X32795Y-21156D01*
X32770Y-21156D01*
X32745Y-21131D01*
X32333Y-21131D01*
X32333Y-21139D01*
X32233Y-21139D01*
X32233Y-21131D01*
X31820Y-21131D01*
X31758Y-21194D01*
X31758Y-21306D01*
X31796Y-21398D01*
X31854Y-21456D01*
X31796Y-21514D01*
X31758Y-21606D01*
X31758Y-21706D01*
X31758Y-22056D01*
X31796Y-22148D01*
X31866Y-22218D01*
X31958Y-22256D01*
X32057Y-22256D01*
X32607Y-22256D01*
X32659Y-22235D01*
X32627Y-22313D01*
X32626Y-22959D01*
X32873Y-23556D01*
X33330Y-24014D01*
X33927Y-24262D01*
X34573Y-24262D01*
X35171Y-24016D01*
X35628Y-23559D01*
X35876Y-22962D01*
X35877Y-22316D01*
X35630Y-21718D01*
X35173Y-21261D01*
X35136Y-21245D01*
X35194Y-21234D01*
X35304Y-21160D01*
X35492Y-20972D01*
X35528Y-20919D01*
X35695Y-20919D01*
X35787Y-20881D01*
X35857Y-20811D01*
X35895Y-20719D01*
X35895Y-24594D01*
X35758Y-24537D01*
X35502Y-24537D01*
X35265Y-24635D01*
X35084Y-24815D01*
X34986Y-25052D01*
X34986Y-25308D01*
X35083Y-25545D01*
X35219Y-25681D01*
X35115Y-25784D01*
X34771Y-25440D01*
X34661Y-25366D01*
X34531Y-25341D01*
X34521Y-25341D01*
X34553Y-25181D01*
X34519Y-25010D01*
X34422Y-24865D01*
X34277Y-24768D01*
X34106Y-24734D01*
X33768Y-24734D01*
X33597Y-24768D01*
X33487Y-24841D01*
X31630Y-24841D01*
X31521Y-24768D01*
X31430Y-24750D01*
X31430Y-22056D01*
X31430Y-21944D01*
X31368Y-21881D01*
X30955Y-21881D01*
X30955Y-22194D01*
X31018Y-22256D01*
X31131Y-22256D01*
X31230Y-22256D01*
X31322Y-22218D01*
X31392Y-22148D01*
X31430Y-22056D01*
X31430Y-24750D01*
X31350Y-24734D01*
X31012Y-24734D01*
X30855Y-24765D01*
X30855Y-22194D01*
X30855Y-21881D01*
X30443Y-21881D01*
X30380Y-21944D01*
X30380Y-22056D01*
X30418Y-22148D01*
X30488Y-22218D01*
X30580Y-22256D01*
X30680Y-22256D01*
X30793Y-22256D01*
X30855Y-22194D01*
X30855Y-24765D01*
X30841Y-24768D01*
X30731Y-24841D01*
X28874Y-24841D01*
X28765Y-24768D01*
X28594Y-24734D01*
X28256Y-24734D01*
X28085Y-24768D01*
X27940Y-24865D01*
X27936Y-24871D01*
X27099Y-24871D01*
X27099Y-22056D01*
X27099Y-21944D01*
X27037Y-21881D01*
X26624Y-21881D01*
X26624Y-22194D01*
X26687Y-22256D01*
X26800Y-22256D01*
X26899Y-22256D01*
X26991Y-22218D01*
X27061Y-22148D01*
X27099Y-22056D01*
X27099Y-24871D01*
X26524Y-24871D01*
X26524Y-22194D01*
X26524Y-21881D01*
X26112Y-21881D01*
X26049Y-21944D01*
X26049Y-22056D01*
X26087Y-22148D01*
X26158Y-22218D01*
X26249Y-22256D01*
X26349Y-22256D01*
X26462Y-22256D01*
X26524Y-22194D01*
X26524Y-24871D01*
X26158Y-24871D01*
X26154Y-24865D01*
X26009Y-24768D01*
X25838Y-24734D01*
X25500Y-24734D01*
X25329Y-24768D01*
X25220Y-24841D01*
X23363Y-24841D01*
X23253Y-24768D01*
X23082Y-24734D01*
X22769Y-24734D01*
X22769Y-22056D01*
X22769Y-21944D01*
X22706Y-21881D01*
X22294Y-21881D01*
X22294Y-22194D01*
X22356Y-22256D01*
X22469Y-22256D01*
X22569Y-22256D01*
X22660Y-22218D01*
X22731Y-22148D01*
X22769Y-22056D01*
X22769Y-24734D01*
X22744Y-24734D01*
X22573Y-24768D01*
X22464Y-24841D01*
X22194Y-24841D01*
X22194Y-22194D01*
X22194Y-21881D01*
X21781Y-21881D01*
X21719Y-21944D01*
X21719Y-22056D01*
X21757Y-22148D01*
X21827Y-22218D01*
X21919Y-22256D01*
X22018Y-22256D01*
X22131Y-22256D01*
X22194Y-22194D01*
X22194Y-24841D01*
X20607Y-24841D01*
X20497Y-24768D01*
X20326Y-24734D01*
X19988Y-24734D01*
X19817Y-24768D01*
X19708Y-24841D01*
X18438Y-24841D01*
X18438Y-22095D01*
X18438Y-21983D01*
X18375Y-21921D01*
X17963Y-21921D01*
X17963Y-22233D01*
X18025Y-22296D01*
X18138Y-22296D01*
X18238Y-22296D01*
X18330Y-22257D01*
X18400Y-22187D01*
X18438Y-22095D01*
X18438Y-24841D01*
X17851Y-24841D01*
X17742Y-24768D01*
X17571Y-24734D01*
X17232Y-24734D01*
X17061Y-24768D01*
X16952Y-24841D01*
X15095Y-24841D01*
X14986Y-24768D01*
X14815Y-24734D01*
X14476Y-24734D01*
X14305Y-24768D01*
X14196Y-24841D01*
X14108Y-24841D01*
X14000Y-24862D01*
X13978Y-24866D01*
X13868Y-24940D01*
X13617Y-25191D01*
X13544Y-25301D01*
X13518Y-25431D01*
X13518Y-29798D01*
X13494Y-29808D01*
X13398Y-29903D01*
X13398Y-25422D01*
X13398Y-24971D01*
X13398Y-24871D01*
X13360Y-24780D01*
X13289Y-24709D01*
X13197Y-24671D01*
X13085Y-24671D01*
X13023Y-24734D01*
X13023Y-25146D01*
X13335Y-25146D01*
X13398Y-25084D01*
X13398Y-24971D01*
X13398Y-25422D01*
X13398Y-25309D01*
X13335Y-25246D01*
X13023Y-25246D01*
X13023Y-25659D01*
X13085Y-25721D01*
X13197Y-25721D01*
X13289Y-25683D01*
X13360Y-25613D01*
X13398Y-25521D01*
X13398Y-25422D01*
X13398Y-29903D01*
X13312Y-29989D01*
X13289Y-30044D01*
X13275Y-30010D01*
X13170Y-29971D01*
X13099Y-30042D01*
X13099Y-29900D01*
X13060Y-29795D01*
X12820Y-29706D01*
X12564Y-29715D01*
X12372Y-29795D01*
X12333Y-29900D01*
X12716Y-30283D01*
X13099Y-29900D01*
X13099Y-30042D01*
X12787Y-30354D01*
X13170Y-30737D01*
X13275Y-30698D01*
X13288Y-30662D01*
X13312Y-30718D01*
X13493Y-30899D01*
X13518Y-30910D01*
X13518Y-31050D01*
X13269Y-31300D01*
X13110Y-31300D01*
X13099Y-31302D01*
X13099Y-30808D01*
X12716Y-30425D01*
X12645Y-30495D01*
X12645Y-30354D01*
X12262Y-29971D01*
X12157Y-30010D01*
X12146Y-30040D01*
X12133Y-30010D01*
X12028Y-29971D01*
X11957Y-30042D01*
X11957Y-29900D01*
X11919Y-29795D01*
X11678Y-29706D01*
X11423Y-29715D01*
X11230Y-29795D01*
X11191Y-29900D01*
X11574Y-30283D01*
X11957Y-29900D01*
X11957Y-30042D01*
X11645Y-30354D01*
X12028Y-30737D01*
X12133Y-30698D01*
X12145Y-30667D01*
X12157Y-30698D01*
X12262Y-30737D01*
X12645Y-30354D01*
X12645Y-30495D01*
X12333Y-30808D01*
X12372Y-30913D01*
X12612Y-31002D01*
X12868Y-30992D01*
X13060Y-30913D01*
X13099Y-30808D01*
X13099Y-31302D01*
X12979Y-31325D01*
X12943Y-31350D01*
X12869Y-31399D01*
X12594Y-31674D01*
X12530Y-31770D01*
X12445Y-31739D01*
X12375Y-31809D01*
X12375Y-31668D01*
X12336Y-31563D01*
X12096Y-31474D01*
X11957Y-31479D01*
X11957Y-30808D01*
X11574Y-30425D01*
X11191Y-30808D01*
X11230Y-30913D01*
X11470Y-31002D01*
X11726Y-30992D01*
X11919Y-30913D01*
X11957Y-30808D01*
X11957Y-31479D01*
X11840Y-31483D01*
X11647Y-31563D01*
X11609Y-31668D01*
X11992Y-32051D01*
X12375Y-31668D01*
X12375Y-31809D01*
X12062Y-32122D01*
X12445Y-32505D01*
X12494Y-32487D01*
X12494Y-34757D01*
X12445Y-34739D01*
X12375Y-34809D01*
X12375Y-34668D01*
X12375Y-32575D01*
X11992Y-32192D01*
X11921Y-32263D01*
X11921Y-32122D01*
X11538Y-31739D01*
X11433Y-31777D01*
X11344Y-32017D01*
X11353Y-32273D01*
X11433Y-32466D01*
X11538Y-32505D01*
X11921Y-32122D01*
X11921Y-32263D01*
X11609Y-32575D01*
X11647Y-32680D01*
X11887Y-32770D01*
X12143Y-32760D01*
X12336Y-32680D01*
X12375Y-32575D01*
X12375Y-34668D01*
X12336Y-34563D01*
X12096Y-34474D01*
X11840Y-34483D01*
X11647Y-34563D01*
X11609Y-34668D01*
X11992Y-35051D01*
X12375Y-34668D01*
X12375Y-34809D01*
X12062Y-35122D01*
X12445Y-35505D01*
X12494Y-35487D01*
X12494Y-36520D01*
X12445Y-36502D01*
X12375Y-36573D01*
X12375Y-36432D01*
X12375Y-35575D01*
X11992Y-35192D01*
X11921Y-35263D01*
X11921Y-35122D01*
X11538Y-34739D01*
X11433Y-34777D01*
X11344Y-35017D01*
X11353Y-35273D01*
X11433Y-35466D01*
X11538Y-35505D01*
X11921Y-35122D01*
X11921Y-35263D01*
X11609Y-35575D01*
X11647Y-35680D01*
X11887Y-35770D01*
X12143Y-35760D01*
X12336Y-35680D01*
X12375Y-35575D01*
X12375Y-36432D01*
X12336Y-36327D01*
X12096Y-36237D01*
X11840Y-36247D01*
X11647Y-36327D01*
X11609Y-36432D01*
X11992Y-36815D01*
X12375Y-36432D01*
X12375Y-36573D01*
X12062Y-36885D01*
X12445Y-37268D01*
X12494Y-37250D01*
X12494Y-39520D01*
X12445Y-39502D01*
X12375Y-39573D01*
X12375Y-39432D01*
X12375Y-37339D01*
X11992Y-36956D01*
X11921Y-37027D01*
X11921Y-36885D01*
X11538Y-36502D01*
X11433Y-36541D01*
X11344Y-36781D01*
X11353Y-37037D01*
X11433Y-37230D01*
X11538Y-37268D01*
X11921Y-36885D01*
X11921Y-37027D01*
X11609Y-37339D01*
X11647Y-37444D01*
X11887Y-37533D01*
X12143Y-37524D01*
X12336Y-37444D01*
X12375Y-37339D01*
X12375Y-39432D01*
X12336Y-39327D01*
X12096Y-39237D01*
X11840Y-39247D01*
X11647Y-39327D01*
X11609Y-39432D01*
X11992Y-39815D01*
X12375Y-39432D01*
X12375Y-39573D01*
X12062Y-39885D01*
X12445Y-40268D01*
X12494Y-40250D01*
X12494Y-41284D01*
X12445Y-41266D01*
X12375Y-41337D01*
X12375Y-41195D01*
X12375Y-40339D01*
X11992Y-39956D01*
X11921Y-40027D01*
X11921Y-39885D01*
X11538Y-39502D01*
X11433Y-39541D01*
X11344Y-39781D01*
X11353Y-40037D01*
X11433Y-40230D01*
X11538Y-40268D01*
X11921Y-39885D01*
X11921Y-40027D01*
X11609Y-40339D01*
X11647Y-40444D01*
X11887Y-40533D01*
X12143Y-40524D01*
X12336Y-40444D01*
X12375Y-40339D01*
X12375Y-41195D01*
X12336Y-41090D01*
X12096Y-41001D01*
X11840Y-41011D01*
X11647Y-41090D01*
X11609Y-41195D01*
X11992Y-41578D01*
X12375Y-41195D01*
X12375Y-41337D01*
X12062Y-41649D01*
X12445Y-42032D01*
X12494Y-42014D01*
X12494Y-44284D01*
X12445Y-44266D01*
X12375Y-44337D01*
X12375Y-44195D01*
X12375Y-42103D01*
X11992Y-41720D01*
X11921Y-41791D01*
X11921Y-41649D01*
X11538Y-41266D01*
X11433Y-41305D01*
X11344Y-41545D01*
X11353Y-41801D01*
X11433Y-41993D01*
X11538Y-42032D01*
X11921Y-41649D01*
X11921Y-41791D01*
X11609Y-42103D01*
X11647Y-42208D01*
X11887Y-42297D01*
X12143Y-42288D01*
X12336Y-42208D01*
X12375Y-42103D01*
X12375Y-44195D01*
X12336Y-44090D01*
X12096Y-44001D01*
X11840Y-44011D01*
X11647Y-44090D01*
X11609Y-44195D01*
X11992Y-44578D01*
X12375Y-44195D01*
X12375Y-44337D01*
X12062Y-44649D01*
X12445Y-45032D01*
X12494Y-45014D01*
X12494Y-45527D01*
X12375Y-45477D01*
X12375Y-45103D01*
X11992Y-44720D01*
X11921Y-44791D01*
X11921Y-44649D01*
X11538Y-44266D01*
X11433Y-44305D01*
X11344Y-44545D01*
X11353Y-44801D01*
X11433Y-44993D01*
X11538Y-45032D01*
X11921Y-44649D01*
X11921Y-44791D01*
X11609Y-45103D01*
X11647Y-45208D01*
X11887Y-45297D01*
X12143Y-45288D01*
X12336Y-45208D01*
X12375Y-45103D01*
X12375Y-45477D01*
X12282Y-45439D01*
X12049Y-45438D01*
X11834Y-45527D01*
X11670Y-45692D01*
X11580Y-45906D01*
X11580Y-46139D01*
X11669Y-46354D01*
X11825Y-46510D01*
X11825Y-48425D01*
X11851Y-48555D01*
X11924Y-48665D01*
X15743Y-52484D01*
X15743Y-52484D01*
X15817Y-52533D01*
X15854Y-52558D01*
X15854Y-52558D01*
X15984Y-52584D01*
X21433Y-52584D01*
X21904Y-53054D01*
X21904Y-53289D01*
X21748Y-53444D01*
X21659Y-53659D01*
X21659Y-53891D01*
X21748Y-54106D01*
X21912Y-54271D01*
X22127Y-54360D01*
X22359Y-54360D01*
X22574Y-54271D01*
X22739Y-54107D01*
X22828Y-53892D01*
X22828Y-53660D01*
X22740Y-53445D01*
X22584Y-53288D01*
X22584Y-53054D01*
X23173Y-52465D01*
X28858Y-52465D01*
X32598Y-52465D01*
X32598Y-52465D01*
X32728Y-52440D01*
X32809Y-52385D01*
X32627Y-52824D01*
X32626Y-53471D01*
X32873Y-54068D01*
X33330Y-54526D01*
X33927Y-54774D01*
X34573Y-54774D01*
X35171Y-54527D01*
X35628Y-54071D01*
X35876Y-53474D01*
X35877Y-52827D01*
X35630Y-52230D01*
X35173Y-51772D01*
X34576Y-51525D01*
X33930Y-51524D01*
X33505Y-51700D01*
X34274Y-50930D01*
X35196Y-50930D01*
X35196Y-50930D01*
X35326Y-50904D01*
X35437Y-50830D01*
X35895Y-50372D01*
X35895Y-61486D01*
X35895Y-61486D01*
G37*
G54D31*
X35895Y-61486D02*
X35877Y-61486D01*
X35877Y-59520D01*
X35630Y-58923D01*
X35173Y-58465D01*
X34576Y-58217D01*
X33930Y-58217D01*
X33332Y-58464D01*
X32875Y-58920D01*
X32627Y-59517D01*
X32626Y-60164D01*
X32873Y-60761D01*
X33330Y-61219D01*
X33927Y-61467D01*
X34573Y-61467D01*
X35171Y-61220D01*
X35628Y-60764D01*
X35876Y-60167D01*
X35877Y-59520D01*
X35877Y-61486D01*
X22694Y-61486D01*
X22694Y-56434D01*
X22694Y-55434D01*
X22625Y-55269D01*
X22499Y-55142D01*
X22333Y-55073D01*
X22154Y-55073D01*
X21989Y-55141D01*
X21862Y-55268D01*
X21794Y-55433D01*
X21794Y-55612D01*
X21862Y-55778D01*
X21988Y-55904D01*
X22154Y-55973D01*
X22333Y-55973D01*
X22498Y-55905D01*
X22625Y-55778D01*
X22694Y-55613D01*
X22694Y-55434D01*
X22694Y-56434D01*
X22625Y-56269D01*
X22499Y-56142D01*
X22333Y-56073D01*
X22154Y-56073D01*
X21989Y-56141D01*
X21862Y-56268D01*
X21794Y-56433D01*
X21794Y-56612D01*
X21862Y-56778D01*
X21988Y-56904D01*
X22154Y-56973D01*
X22333Y-56973D01*
X22498Y-56905D01*
X22625Y-56778D01*
X22694Y-56613D01*
X22694Y-56434D01*
X22694Y-61486D01*
X21119Y-61486D01*
X21119Y-56434D01*
X21119Y-55434D01*
X21051Y-55269D01*
X20924Y-55142D01*
X20759Y-55073D01*
X20580Y-55073D01*
X20414Y-55141D01*
X20288Y-55268D01*
X20219Y-55433D01*
X20219Y-55612D01*
X20287Y-55778D01*
X20414Y-55904D01*
X20579Y-55973D01*
X20758Y-55973D01*
X20923Y-55905D01*
X21050Y-55778D01*
X21119Y-55613D01*
X21119Y-55434D01*
X21119Y-56434D01*
X21051Y-56269D01*
X20924Y-56142D01*
X20759Y-56073D01*
X20580Y-56073D01*
X20414Y-56141D01*
X20288Y-56268D01*
X20219Y-56433D01*
X20219Y-56612D01*
X20287Y-56778D01*
X20414Y-56904D01*
X20579Y-56973D01*
X20758Y-56973D01*
X20923Y-56905D01*
X21050Y-56778D01*
X21119Y-56613D01*
X21119Y-56434D01*
X21119Y-61486D01*
X14223Y-61486D01*
X14223Y-59520D01*
X14223Y-52827D01*
X13976Y-52230D01*
X13520Y-51772D01*
X12923Y-51525D01*
X12276Y-51524D01*
X11679Y-51771D01*
X11221Y-52228D01*
X10973Y-52824D01*
X10973Y-53471D01*
X11220Y-54068D01*
X11676Y-54526D01*
X12273Y-54774D01*
X12920Y-54774D01*
X13517Y-54527D01*
X13975Y-54071D01*
X14222Y-53474D01*
X14223Y-52827D01*
X14223Y-59520D01*
X13976Y-58923D01*
X13520Y-58465D01*
X12923Y-58217D01*
X12276Y-58217D01*
X11679Y-58464D01*
X11221Y-58920D01*
X10973Y-59517D01*
X10973Y-60164D01*
X11220Y-60761D01*
X11676Y-61219D01*
X12273Y-61467D01*
X12920Y-61467D01*
X13517Y-61220D01*
X13975Y-60764D01*
X14222Y-60167D01*
X14223Y-59520D01*
X14223Y-61486D01*
X10954Y-61486D01*
X10954Y-30551D01*
X11015Y-30698D01*
X11121Y-30737D01*
X11504Y-30354D01*
X11121Y-29971D01*
X11015Y-30010D01*
X10954Y-30174D01*
X10954Y-27629D01*
X11052Y-27726D01*
X11288Y-27824D01*
X11544Y-27824D01*
X11781Y-27727D01*
X11962Y-27546D01*
X12060Y-27309D01*
X12061Y-27053D01*
X11963Y-26816D01*
X11827Y-26681D01*
X11911Y-26597D01*
X11912Y-26597D01*
X12127Y-26686D01*
X12359Y-26687D01*
X12574Y-26598D01*
X12739Y-26433D01*
X12828Y-26219D01*
X12828Y-25986D01*
X12740Y-25771D01*
X12596Y-25627D01*
X12598Y-25625D01*
X12656Y-25683D01*
X12748Y-25721D01*
X12860Y-25721D01*
X12923Y-25659D01*
X12923Y-25246D01*
X12915Y-25246D01*
X12915Y-25146D01*
X12923Y-25146D01*
X12923Y-24734D01*
X12860Y-24671D01*
X12748Y-24671D01*
X12656Y-24709D01*
X12598Y-24768D01*
X12540Y-24710D01*
X12448Y-24671D01*
X12348Y-24671D01*
X12033Y-24671D01*
X12023Y-24645D01*
X11952Y-24575D01*
X11860Y-24537D01*
X11761Y-24537D01*
X10974Y-24537D01*
X10954Y-24545D01*
X10954Y-20403D01*
X11052Y-20639D01*
X11233Y-20820D01*
X11469Y-20919D01*
X11725Y-20919D01*
X11962Y-20821D01*
X12098Y-20685D01*
X12233Y-20820D01*
X12272Y-20837D01*
X12284Y-20898D01*
X12358Y-21008D01*
X12361Y-21012D01*
X12276Y-21012D01*
X11679Y-21259D01*
X11221Y-21716D01*
X10973Y-22313D01*
X10973Y-22959D01*
X11220Y-23556D01*
X11676Y-24014D01*
X12273Y-24262D01*
X12920Y-24262D01*
X13517Y-24016D01*
X13975Y-23559D01*
X14222Y-22962D01*
X14223Y-22316D01*
X14186Y-22226D01*
X14540Y-22579D01*
X14540Y-22579D01*
X14650Y-22653D01*
X14650Y-22653D01*
X14671Y-22657D01*
X14780Y-22679D01*
X15142Y-22679D01*
X15268Y-22805D01*
X15483Y-22894D01*
X15715Y-22894D01*
X15930Y-22805D01*
X16095Y-22641D01*
X16184Y-22426D01*
X16184Y-22194D01*
X16095Y-21979D01*
X15931Y-21814D01*
X15716Y-21725D01*
X15484Y-21725D01*
X15269Y-21814D01*
X15113Y-21970D01*
X15091Y-21970D01*
X15091Y-21071D01*
X15091Y-20959D01*
X15029Y-20897D01*
X14616Y-20897D01*
X14616Y-21209D01*
X14679Y-21272D01*
X14792Y-21272D01*
X14891Y-21272D01*
X14983Y-21234D01*
X15053Y-21163D01*
X15091Y-21071D01*
X15091Y-21970D01*
X14940Y-21970D01*
X14243Y-21272D01*
X14341Y-21272D01*
X14454Y-21272D01*
X14516Y-21209D01*
X14516Y-20897D01*
X14509Y-20897D01*
X14509Y-20797D01*
X14516Y-20797D01*
X14516Y-20789D01*
X14616Y-20789D01*
X14616Y-20797D01*
X15029Y-20797D01*
X15091Y-20734D01*
X15091Y-20622D01*
X15053Y-20531D01*
X14995Y-20472D01*
X15053Y-20414D01*
X15091Y-20322D01*
X15091Y-20222D01*
X15091Y-19872D01*
X15067Y-19813D01*
X15481Y-19813D01*
X15383Y-19910D01*
X15285Y-20146D01*
X15285Y-20403D01*
X15383Y-20639D01*
X15564Y-20820D01*
X15800Y-20919D01*
X16056Y-20919D01*
X16293Y-20821D01*
X16429Y-20685D01*
X16564Y-20820D01*
X16589Y-20831D01*
X16589Y-21245D01*
X16433Y-21400D01*
X16344Y-21615D01*
X16344Y-21848D01*
X16433Y-22063D01*
X16597Y-22227D01*
X16812Y-22316D01*
X17044Y-22317D01*
X17259Y-22228D01*
X17389Y-22098D01*
X17426Y-22187D01*
X17496Y-22257D01*
X17588Y-22296D01*
X17687Y-22296D01*
X17800Y-22296D01*
X17863Y-22233D01*
X17863Y-21921D01*
X17855Y-21921D01*
X17855Y-21821D01*
X17863Y-21821D01*
X17863Y-21813D01*
X17963Y-21813D01*
X17963Y-21821D01*
X18375Y-21821D01*
X18438Y-21758D01*
X18438Y-21646D01*
X18400Y-21554D01*
X18341Y-21496D01*
X18400Y-21437D01*
X18438Y-21346D01*
X18438Y-21246D01*
X18438Y-20896D01*
X18436Y-20892D01*
X18464Y-20881D01*
X18534Y-20811D01*
X18572Y-20719D01*
X18572Y-20619D01*
X18572Y-20448D01*
X18637Y-20606D01*
X18802Y-20770D01*
X19017Y-20860D01*
X19249Y-20860D01*
X19464Y-20771D01*
X19620Y-20615D01*
X19703Y-20615D01*
X19713Y-20639D01*
X19894Y-20820D01*
X20131Y-20919D01*
X20387Y-20919D01*
X20623Y-20821D01*
X20759Y-20685D01*
X20894Y-20820D01*
X21131Y-20919D01*
X21387Y-20919D01*
X21623Y-20821D01*
X21648Y-20797D01*
X21654Y-20810D01*
X21719Y-20875D01*
X21719Y-20956D01*
X21719Y-21306D01*
X21757Y-21398D01*
X21815Y-21456D01*
X21757Y-21515D01*
X21719Y-21607D01*
X21719Y-21719D01*
X21781Y-21781D01*
X22194Y-21781D01*
X22194Y-21773D01*
X22294Y-21773D01*
X22294Y-21781D01*
X22706Y-21781D01*
X22769Y-21719D01*
X22769Y-21607D01*
X22731Y-21515D01*
X22672Y-21456D01*
X22730Y-21398D01*
X22769Y-21306D01*
X22769Y-21207D01*
X22769Y-20892D01*
X22794Y-20881D01*
X22865Y-20811D01*
X22903Y-20719D01*
X22903Y-20619D01*
X22903Y-20544D01*
X22929Y-20606D01*
X23093Y-20770D01*
X23308Y-20860D01*
X23540Y-20860D01*
X23755Y-20771D01*
X23912Y-20615D01*
X24034Y-20615D01*
X24044Y-20639D01*
X24225Y-20820D01*
X24461Y-20919D01*
X24718Y-20919D01*
X24954Y-20821D01*
X25090Y-20685D01*
X25225Y-20820D01*
X25461Y-20919D01*
X25718Y-20919D01*
X25954Y-20821D01*
X25979Y-20797D01*
X25984Y-20810D01*
X26049Y-20875D01*
X26049Y-20956D01*
X26049Y-21306D01*
X26087Y-21398D01*
X26146Y-21456D01*
X26087Y-21515D01*
X26049Y-21607D01*
X26049Y-21719D01*
X26112Y-21781D01*
X26524Y-21781D01*
X26524Y-21773D01*
X26624Y-21773D01*
X26624Y-21781D01*
X27037Y-21781D01*
X27099Y-21719D01*
X27099Y-21607D01*
X27061Y-21515D01*
X27003Y-21456D01*
X27061Y-21398D01*
X27099Y-21306D01*
X27099Y-21207D01*
X27099Y-20892D01*
X27125Y-20881D01*
X27196Y-20811D01*
X27234Y-20719D01*
X27234Y-20620D01*
X27384Y-20770D01*
X27599Y-20860D01*
X27832Y-20860D01*
X28047Y-20771D01*
X28203Y-20615D01*
X28365Y-20615D01*
X28375Y-20639D01*
X28556Y-20820D01*
X28792Y-20919D01*
X29048Y-20919D01*
X29285Y-20821D01*
X29421Y-20685D01*
X29556Y-20820D01*
X29792Y-20919D01*
X30048Y-20919D01*
X30285Y-20821D01*
X30309Y-20797D01*
X30315Y-20810D01*
X30380Y-20875D01*
X30380Y-20956D01*
X30380Y-21306D01*
X30418Y-21398D01*
X30476Y-21456D01*
X30418Y-21515D01*
X30380Y-21607D01*
X30380Y-21719D01*
X30443Y-21781D01*
X30855Y-21781D01*
X30855Y-21773D01*
X30955Y-21773D01*
X30955Y-21781D01*
X31368Y-21781D01*
X31430Y-21719D01*
X31430Y-21607D01*
X31392Y-21515D01*
X31334Y-21456D01*
X31392Y-21398D01*
X31430Y-21306D01*
X31430Y-21207D01*
X31430Y-20892D01*
X31456Y-20881D01*
X31526Y-20811D01*
X31564Y-20719D01*
X31565Y-20619D01*
X31565Y-20488D01*
X31630Y-20645D01*
X31782Y-20798D01*
X31758Y-20857D01*
X31758Y-20969D01*
X31820Y-21031D01*
X32233Y-21031D01*
X32233Y-21023D01*
X32333Y-21023D01*
X32333Y-21031D01*
X32745Y-21031D01*
X32808Y-20969D01*
X32808Y-20857D01*
X32770Y-20765D01*
X32700Y-20694D01*
X32610Y-20657D01*
X32621Y-20646D01*
X32634Y-20615D01*
X32695Y-20615D01*
X32705Y-20639D01*
X32886Y-20820D01*
X33058Y-20892D01*
X32795Y-21156D01*
X32770Y-21156D01*
X32745Y-21131D01*
X32333Y-21131D01*
X32333Y-21139D01*
X32233Y-21139D01*
X32233Y-21131D01*
X31820Y-21131D01*
X31758Y-21194D01*
X31758Y-21306D01*
X31796Y-21398D01*
X31854Y-21456D01*
X31796Y-21514D01*
X31758Y-21606D01*
X31758Y-21706D01*
X31758Y-22056D01*
X31796Y-22148D01*
X31866Y-22218D01*
X31958Y-22256D01*
X32057Y-22256D01*
X32607Y-22256D01*
X32659Y-22235D01*
X32627Y-22313D01*
X32626Y-22959D01*
X32873Y-23556D01*
X33330Y-24014D01*
X33927Y-24262D01*
X34573Y-24262D01*
X35171Y-24016D01*
X35628Y-23559D01*
X35876Y-22962D01*
X35877Y-22316D01*
X35630Y-21718D01*
X35173Y-21261D01*
X35136Y-21245D01*
X35194Y-21234D01*
X35304Y-21160D01*
X35492Y-20972D01*
X35528Y-20919D01*
X35695Y-20919D01*
X35787Y-20881D01*
X35857Y-20811D01*
X35895Y-20719D01*
X35895Y-24594D01*
X35758Y-24537D01*
X35502Y-24537D01*
X35265Y-24635D01*
X35084Y-24815D01*
X34986Y-25052D01*
X34986Y-25308D01*
X35083Y-25545D01*
X35219Y-25681D01*
X35115Y-25784D01*
X34771Y-25440D01*
X34661Y-25366D01*
X34531Y-25341D01*
X34521Y-25341D01*
X34553Y-25181D01*
X34519Y-25010D01*
X34422Y-24865D01*
X34277Y-24768D01*
X34106Y-24734D01*
X33768Y-24734D01*
X33597Y-24768D01*
X33487Y-24841D01*
X31630Y-24841D01*
X31521Y-24768D01*
X31430Y-24750D01*
X31430Y-22056D01*
X31430Y-21944D01*
X31368Y-21881D01*
X30955Y-21881D01*
X30955Y-22194D01*
X31018Y-22256D01*
X31131Y-22256D01*
X31230Y-22256D01*
X31322Y-22218D01*
X31392Y-22148D01*
X31430Y-22056D01*
X31430Y-24750D01*
X31350Y-24734D01*
X31012Y-24734D01*
X30855Y-24765D01*
X30855Y-22194D01*
X30855Y-21881D01*
X30443Y-21881D01*
X30380Y-21944D01*
X30380Y-22056D01*
X30418Y-22148D01*
X30488Y-22218D01*
X30580Y-22256D01*
X30680Y-22256D01*
X30793Y-22256D01*
X30855Y-22194D01*
X30855Y-24765D01*
X30841Y-24768D01*
X30731Y-24841D01*
X28874Y-24841D01*
X28765Y-24768D01*
X28594Y-24734D01*
X28256Y-24734D01*
X28085Y-24768D01*
X27940Y-24865D01*
X27936Y-24871D01*
X27099Y-24871D01*
X27099Y-22056D01*
X27099Y-21944D01*
X27037Y-21881D01*
X26624Y-21881D01*
X26624Y-22194D01*
X26687Y-22256D01*
X26800Y-22256D01*
X26899Y-22256D01*
X26991Y-22218D01*
X27061Y-22148D01*
X27099Y-22056D01*
X27099Y-24871D01*
X26524Y-24871D01*
X26524Y-22194D01*
X26524Y-21881D01*
X26112Y-21881D01*
X26049Y-21944D01*
X26049Y-22056D01*
X26087Y-22148D01*
X26158Y-22218D01*
X26249Y-22256D01*
X26349Y-22256D01*
X26462Y-22256D01*
X26524Y-22194D01*
X26524Y-24871D01*
X26158Y-24871D01*
X26154Y-24865D01*
X26009Y-24768D01*
X25838Y-24734D01*
X25500Y-24734D01*
X25329Y-24768D01*
X25220Y-24841D01*
X23363Y-24841D01*
X23253Y-24768D01*
X23082Y-24734D01*
X22769Y-24734D01*
X22769Y-22056D01*
X22769Y-21944D01*
X22706Y-21881D01*
X22294Y-21881D01*
X22294Y-22194D01*
X22356Y-22256D01*
X22469Y-22256D01*
X22569Y-22256D01*
X22660Y-22218D01*
X22731Y-22148D01*
X22769Y-22056D01*
X22769Y-24734D01*
X22744Y-24734D01*
X22573Y-24768D01*
X22464Y-24841D01*
X22194Y-24841D01*
X22194Y-22194D01*
X22194Y-21881D01*
X21781Y-21881D01*
X21719Y-21944D01*
X21719Y-22056D01*
X21757Y-22148D01*
X21827Y-22218D01*
X21919Y-22256D01*
X22018Y-22256D01*
X22131Y-22256D01*
X22194Y-22194D01*
X22194Y-24841D01*
X20607Y-24841D01*
X20497Y-24768D01*
X20326Y-24734D01*
X19988Y-24734D01*
X19817Y-24768D01*
X19708Y-24841D01*
X18438Y-24841D01*
X18438Y-22095D01*
X18438Y-21983D01*
X18375Y-21921D01*
X17963Y-21921D01*
X17963Y-22233D01*
X18025Y-22296D01*
X18138Y-22296D01*
X18238Y-22296D01*
X18330Y-22257D01*
X18400Y-22187D01*
X18438Y-22095D01*
X18438Y-24841D01*
X17851Y-24841D01*
X17742Y-24768D01*
X17571Y-24734D01*
X17232Y-24734D01*
X17061Y-24768D01*
X16952Y-24841D01*
X15095Y-24841D01*
X14986Y-24768D01*
X14815Y-24734D01*
X14476Y-24734D01*
X14305Y-24768D01*
X14196Y-24841D01*
X14108Y-24841D01*
X14000Y-24862D01*
X13978Y-24866D01*
X13868Y-24940D01*
X13617Y-25191D01*
X13544Y-25301D01*
X13518Y-25431D01*
X13518Y-29798D01*
X13494Y-29808D01*
X13398Y-29903D01*
X13398Y-25422D01*
X13398Y-24971D01*
X13398Y-24871D01*
X13360Y-24780D01*
X13289Y-24709D01*
X13197Y-24671D01*
X13085Y-24671D01*
X13023Y-24734D01*
X13023Y-25146D01*
X13335Y-25146D01*
X13398Y-25084D01*
X13398Y-24971D01*
X13398Y-25422D01*
X13398Y-25309D01*
X13335Y-25246D01*
X13023Y-25246D01*
X13023Y-25659D01*
X13085Y-25721D01*
X13197Y-25721D01*
X13289Y-25683D01*
X13360Y-25613D01*
X13398Y-25521D01*
X13398Y-25422D01*
X13398Y-29903D01*
X13312Y-29989D01*
X13289Y-30044D01*
X13275Y-30010D01*
X13170Y-29971D01*
X13099Y-30042D01*
X13099Y-29900D01*
X13060Y-29795D01*
X12820Y-29706D01*
X12564Y-29715D01*
X12372Y-29795D01*
X12333Y-29900D01*
X12716Y-30283D01*
X13099Y-29900D01*
X13099Y-30042D01*
X12787Y-30354D01*
X13170Y-30737D01*
X13275Y-30698D01*
X13288Y-30662D01*
X13312Y-30718D01*
X13493Y-30899D01*
X13518Y-30910D01*
X13518Y-31050D01*
X13269Y-31300D01*
X13110Y-31300D01*
X13099Y-31302D01*
X13099Y-30808D01*
X12716Y-30425D01*
X12645Y-30495D01*
X12645Y-30354D01*
X12262Y-29971D01*
X12157Y-30010D01*
X12146Y-30040D01*
X12133Y-30010D01*
X12028Y-29971D01*
X11957Y-30042D01*
X11957Y-29900D01*
X11919Y-29795D01*
X11678Y-29706D01*
X11423Y-29715D01*
X11230Y-29795D01*
X11191Y-29900D01*
X11574Y-30283D01*
X11957Y-29900D01*
X11957Y-30042D01*
X11645Y-30354D01*
X12028Y-30737D01*
X12133Y-30698D01*
X12145Y-30667D01*
X12157Y-30698D01*
X12262Y-30737D01*
X12645Y-30354D01*
X12645Y-30495D01*
X12333Y-30808D01*
X12372Y-30913D01*
X12612Y-31002D01*
X12868Y-30992D01*
X13060Y-30913D01*
X13099Y-30808D01*
X13099Y-31302D01*
X12979Y-31325D01*
X12943Y-31350D01*
X12869Y-31399D01*
X12594Y-31674D01*
X12530Y-31770D01*
X12445Y-31739D01*
X12375Y-31809D01*
X12375Y-31668D01*
X12336Y-31563D01*
X12096Y-31474D01*
X11957Y-31479D01*
X11957Y-30808D01*
X11574Y-30425D01*
X11191Y-30808D01*
X11230Y-30913D01*
X11470Y-31002D01*
X11726Y-30992D01*
X11919Y-30913D01*
X11957Y-30808D01*
X11957Y-31479D01*
X11840Y-31483D01*
X11647Y-31563D01*
X11609Y-31668D01*
X11992Y-32051D01*
X12375Y-31668D01*
X12375Y-31809D01*
X12062Y-32122D01*
X12445Y-32505D01*
X12494Y-32487D01*
X12494Y-34757D01*
X12445Y-34739D01*
X12375Y-34809D01*
X12375Y-34668D01*
X12375Y-32575D01*
X11992Y-32192D01*
X11921Y-32263D01*
X11921Y-32122D01*
X11538Y-31739D01*
X11433Y-31777D01*
X11344Y-32017D01*
X11353Y-32273D01*
X11433Y-32466D01*
X11538Y-32505D01*
X11921Y-32122D01*
X11921Y-32263D01*
X11609Y-32575D01*
X11647Y-32680D01*
X11887Y-32770D01*
X12143Y-32760D01*
X12336Y-32680D01*
X12375Y-32575D01*
X12375Y-34668D01*
X12336Y-34563D01*
X12096Y-34474D01*
X11840Y-34483D01*
X11647Y-34563D01*
X11609Y-34668D01*
X11992Y-35051D01*
X12375Y-34668D01*
X12375Y-34809D01*
X12062Y-35122D01*
X12445Y-35505D01*
X12494Y-35487D01*
X12494Y-36520D01*
X12445Y-36502D01*
X12375Y-36573D01*
X12375Y-36432D01*
X12375Y-35575D01*
X11992Y-35192D01*
X11921Y-35263D01*
X11921Y-35122D01*
X11538Y-34739D01*
X11433Y-34777D01*
X11344Y-35017D01*
X11353Y-35273D01*
X11433Y-35466D01*
X11538Y-35505D01*
X11921Y-35122D01*
X11921Y-35263D01*
X11609Y-35575D01*
X11647Y-35680D01*
X11887Y-35770D01*
X12143Y-35760D01*
X12336Y-35680D01*
X12375Y-35575D01*
X12375Y-36432D01*
X12336Y-36327D01*
X12096Y-36237D01*
X11840Y-36247D01*
X11647Y-36327D01*
X11609Y-36432D01*
X11992Y-36815D01*
X12375Y-36432D01*
X12375Y-36573D01*
X12062Y-36885D01*
X12445Y-37268D01*
X12494Y-37250D01*
X12494Y-39520D01*
X12445Y-39502D01*
X12375Y-39573D01*
X12375Y-39432D01*
X12375Y-37339D01*
X11992Y-36956D01*
X11921Y-37027D01*
X11921Y-36885D01*
X11538Y-36502D01*
X11433Y-36541D01*
X11344Y-36781D01*
X11353Y-37037D01*
X11433Y-37230D01*
X11538Y-37268D01*
X11921Y-36885D01*
X11921Y-37027D01*
X11609Y-37339D01*
X11647Y-37444D01*
X11887Y-37533D01*
X12143Y-37524D01*
X12336Y-37444D01*
X12375Y-37339D01*
X12375Y-39432D01*
X12336Y-39327D01*
X12096Y-39237D01*
X11840Y-39247D01*
X11647Y-39327D01*
X11609Y-39432D01*
X11992Y-39815D01*
X12375Y-39432D01*
X12375Y-39573D01*
X12062Y-39885D01*
X12445Y-40268D01*
X12494Y-40250D01*
X12494Y-41284D01*
X12445Y-41266D01*
X12375Y-41337D01*
X12375Y-41195D01*
X12375Y-40339D01*
X11992Y-39956D01*
X11921Y-40027D01*
X11921Y-39885D01*
X11538Y-39502D01*
X11433Y-39541D01*
X11344Y-39781D01*
X11353Y-40037D01*
X11433Y-40230D01*
X11538Y-40268D01*
X11921Y-39885D01*
X11921Y-40027D01*
X11609Y-40339D01*
X11647Y-40444D01*
X11887Y-40533D01*
X12143Y-40524D01*
X12336Y-40444D01*
X12375Y-40339D01*
X12375Y-41195D01*
X12336Y-41090D01*
X12096Y-41001D01*
X11840Y-41011D01*
X11647Y-41090D01*
X11609Y-41195D01*
X11992Y-41578D01*
X12375Y-41195D01*
X12375Y-41337D01*
X12062Y-41649D01*
X12445Y-42032D01*
X12494Y-42014D01*
X12494Y-44284D01*
X12445Y-44266D01*
X12375Y-44337D01*
X12375Y-44195D01*
X12375Y-42103D01*
X11992Y-41720D01*
X11921Y-41791D01*
X11921Y-41649D01*
X11538Y-41266D01*
X11433Y-41305D01*
X11344Y-41545D01*
X11353Y-41801D01*
X11433Y-41993D01*
X11538Y-42032D01*
X11921Y-41649D01*
X11921Y-41791D01*
X11609Y-42103D01*
X11647Y-42208D01*
X11887Y-42297D01*
X12143Y-42288D01*
X12336Y-42208D01*
X12375Y-42103D01*
X12375Y-44195D01*
X12336Y-44090D01*
X12096Y-44001D01*
X11840Y-44011D01*
X11647Y-44090D01*
X11609Y-44195D01*
X11992Y-44578D01*
X12375Y-44195D01*
X12375Y-44337D01*
X12062Y-44649D01*
X12445Y-45032D01*
X12494Y-45014D01*
X12494Y-45527D01*
X12375Y-45477D01*
X12375Y-45103D01*
X11992Y-44720D01*
X11921Y-44791D01*
X11921Y-44649D01*
X11538Y-44266D01*
X11433Y-44305D01*
X11344Y-44545D01*
X11353Y-44801D01*
X11433Y-44993D01*
X11538Y-45032D01*
X11921Y-44649D01*
X11921Y-44791D01*
X11609Y-45103D01*
X11647Y-45208D01*
X11887Y-45297D01*
X12143Y-45288D01*
X12336Y-45208D01*
X12375Y-45103D01*
X12375Y-45477D01*
X12282Y-45439D01*
X12049Y-45438D01*
X11834Y-45527D01*
X11670Y-45692D01*
X11580Y-45906D01*
X11580Y-46139D01*
X11669Y-46354D01*
X11825Y-46510D01*
X11825Y-48425D01*
X11851Y-48555D01*
X11924Y-48665D01*
X15743Y-52484D01*
X15743Y-52484D01*
X15817Y-52533D01*
X15854Y-52558D01*
X15854Y-52558D01*
X15984Y-52584D01*
X21433Y-52584D01*
X21904Y-53054D01*
X21904Y-53289D01*
X21748Y-53444D01*
X21659Y-53659D01*
X21659Y-53891D01*
X21748Y-54106D01*
X21912Y-54271D01*
X22127Y-54360D01*
X22359Y-54360D01*
X22574Y-54271D01*
X22739Y-54107D01*
X22828Y-53892D01*
X22828Y-53660D01*
X22740Y-53445D01*
X22584Y-53288D01*
X22584Y-53054D01*
X23173Y-52465D01*
X28858Y-52465D01*
X32598Y-52465D01*
X32598Y-52465D01*
X32728Y-52440D01*
X32809Y-52385D01*
X32627Y-52824D01*
X32626Y-53471D01*
X32873Y-54068D01*
X33330Y-54526D01*
X33927Y-54774D01*
X34573Y-54774D01*
X35171Y-54527D01*
X35628Y-54071D01*
X35876Y-53474D01*
X35877Y-52827D01*
X35630Y-52230D01*
X35173Y-51772D01*
X34576Y-51525D01*
X33930Y-51524D01*
X33505Y-51700D01*
X34274Y-50930D01*
X35196Y-50930D01*
X35196Y-50930D01*
X35326Y-50904D01*
X35437Y-50830D01*
X35895Y-50372D01*
X35895Y-61486D01*
M02*
