G04 (created by PCBNEW (22-Jun-2014 BZR 4027)-stable) date lun 25 ago 2014 22:21:40 ART*
%MOIN*%
G04 Gerber Fmt 3.4, Leading zero omitted, Abs format*
%FSLAX34Y34*%
G01*
G70*
G90*
G04 APERTURE LIST*
%ADD10C,0.00590551*%
%ADD11C,0.012*%
%ADD12C,0.015*%
%ADD13C,0.0787402*%
%ADD14R,0.0708661X0.0394*%
%ADD15O,0.0708661X0.0394*%
%ADD16R,0.055X0.035*%
%ADD17R,0.0787402X0.0787402*%
%ADD18R,0.0472X0.0472*%
%ADD19C,0.0669291*%
%ADD20C,0.02*%
%ADD21C,0.018*%
%ADD22C,0.01*%
G04 APERTURE END LIST*
G54D10*
G54D11*
X10930Y-42749D02*
X10959Y-42711D01*
X11016Y-42673D01*
X11159Y-42673D01*
X11216Y-42711D01*
X11245Y-42749D01*
X11273Y-42825D01*
X11273Y-42901D01*
X11245Y-43016D01*
X10902Y-43473D01*
X11273Y-43473D01*
X11273Y-38709D02*
X10930Y-38709D01*
X11102Y-38709D02*
X11102Y-37909D01*
X11045Y-38023D01*
X10988Y-38100D01*
X10930Y-38138D01*
X13817Y-46177D02*
X14160Y-46177D01*
X13989Y-46977D02*
X13989Y-46177D01*
X14360Y-46977D02*
X14360Y-46177D01*
X14560Y-46177D02*
X14903Y-46177D01*
X14732Y-46977D02*
X14732Y-46177D01*
X15217Y-46177D02*
X15332Y-46177D01*
X15389Y-46215D01*
X15446Y-46291D01*
X15474Y-46444D01*
X15474Y-46710D01*
X15446Y-46863D01*
X15389Y-46939D01*
X15332Y-46977D01*
X15217Y-46977D01*
X15160Y-46939D01*
X15103Y-46863D01*
X15074Y-46710D01*
X15074Y-46444D01*
X15103Y-46291D01*
X15160Y-46215D01*
X15217Y-46177D01*
X15989Y-46444D02*
X15989Y-46977D01*
X15846Y-46139D02*
X15703Y-46710D01*
X16074Y-46710D01*
X29704Y-35074D02*
X30076Y-35074D01*
X29876Y-35379D01*
X29961Y-35379D01*
X30019Y-35417D01*
X30047Y-35455D01*
X30076Y-35532D01*
X30076Y-35722D01*
X30047Y-35798D01*
X30019Y-35836D01*
X29961Y-35874D01*
X29790Y-35874D01*
X29733Y-35836D01*
X29704Y-35798D01*
X30361Y-35836D02*
X30361Y-35874D01*
X30333Y-35951D01*
X30304Y-35989D01*
X30561Y-35074D02*
X30933Y-35074D01*
X30733Y-35379D01*
X30819Y-35379D01*
X30876Y-35417D01*
X30904Y-35455D01*
X30933Y-35532D01*
X30933Y-35722D01*
X30904Y-35798D01*
X30876Y-35836D01*
X30819Y-35874D01*
X30647Y-35874D01*
X30590Y-35836D01*
X30561Y-35798D01*
X31104Y-35074D02*
X31304Y-35874D01*
X31504Y-35074D01*
X31413Y-45570D02*
X31413Y-45199D01*
X31718Y-45399D01*
X31718Y-45313D01*
X31756Y-45256D01*
X31794Y-45227D01*
X31870Y-45199D01*
X32061Y-45199D01*
X32137Y-45227D01*
X32175Y-45256D01*
X32213Y-45313D01*
X32213Y-45485D01*
X32175Y-45542D01*
X32137Y-45570D01*
X32175Y-44913D02*
X32213Y-44913D01*
X32289Y-44942D01*
X32327Y-44970D01*
X31413Y-44713D02*
X31413Y-44313D01*
X32213Y-44570D01*
X31413Y-44170D02*
X32213Y-43970D01*
X31413Y-43770D01*
X31413Y-31594D02*
X31413Y-31194D01*
X32213Y-31451D01*
X32175Y-30937D02*
X32213Y-30937D01*
X32289Y-30965D01*
X32327Y-30994D01*
X31489Y-30708D02*
X31451Y-30680D01*
X31413Y-30622D01*
X31413Y-30480D01*
X31451Y-30422D01*
X31489Y-30394D01*
X31565Y-30365D01*
X31642Y-30365D01*
X31756Y-30394D01*
X32213Y-30737D01*
X32213Y-30365D01*
X31413Y-30194D02*
X32213Y-29994D01*
X31413Y-29794D01*
X11288Y-33945D02*
X11088Y-33564D01*
X10945Y-33945D02*
X10945Y-33145D01*
X11173Y-33145D01*
X11230Y-33183D01*
X11259Y-33222D01*
X11288Y-33298D01*
X11288Y-33412D01*
X11259Y-33488D01*
X11230Y-33526D01*
X11173Y-33564D01*
X10945Y-33564D01*
X14295Y-28578D02*
X14009Y-28578D01*
X13980Y-28959D01*
X14009Y-28921D01*
X14066Y-28883D01*
X14209Y-28883D01*
X14266Y-28921D01*
X14295Y-28959D01*
X14323Y-29036D01*
X14323Y-29226D01*
X14295Y-29302D01*
X14266Y-29340D01*
X14209Y-29378D01*
X14066Y-29378D01*
X14009Y-29340D01*
X13980Y-29302D01*
X14495Y-28578D02*
X14695Y-29378D01*
X14895Y-28578D01*
X11668Y-28617D02*
X11611Y-28578D01*
X11525Y-28578D01*
X11440Y-28617D01*
X11383Y-28693D01*
X11354Y-28769D01*
X11325Y-28921D01*
X11325Y-29036D01*
X11354Y-29188D01*
X11383Y-29264D01*
X11440Y-29340D01*
X11525Y-29378D01*
X11583Y-29378D01*
X11668Y-29340D01*
X11697Y-29302D01*
X11697Y-29036D01*
X11583Y-29036D01*
X11954Y-29378D02*
X11954Y-28578D01*
X12297Y-29378D01*
X12297Y-28578D01*
X12583Y-29378D02*
X12583Y-28578D01*
X12725Y-28578D01*
X12811Y-28617D01*
X12868Y-28693D01*
X12897Y-28769D01*
X12925Y-28921D01*
X12925Y-29036D01*
X12897Y-29188D01*
X12868Y-29264D01*
X12811Y-29340D01*
X12725Y-29378D01*
X12583Y-29378D01*
G54D12*
X36220Y-61811D02*
X10629Y-61811D01*
X36220Y-19488D02*
X36220Y-61811D01*
X10629Y-19488D02*
X36220Y-19488D01*
X10629Y-61811D02*
X10629Y-19488D01*
G54D13*
X23425Y-29724D03*
X12598Y-53149D03*
X12598Y-59842D03*
X34251Y-59842D03*
X34251Y-53149D03*
G54D14*
X14645Y-27181D03*
G54D15*
X14645Y-26681D03*
X14645Y-25681D03*
X14645Y-25181D03*
G54D14*
X22913Y-27181D03*
G54D15*
X22913Y-26681D03*
X22913Y-25681D03*
X22913Y-25181D03*
G54D14*
X17401Y-27181D03*
G54D15*
X17401Y-26681D03*
X17401Y-25681D03*
X17401Y-25181D03*
G54D14*
X25669Y-27181D03*
G54D15*
X25669Y-26681D03*
X25669Y-25681D03*
X25669Y-25181D03*
G54D14*
X28425Y-27181D03*
G54D15*
X28425Y-26681D03*
X28425Y-25681D03*
X28425Y-25181D03*
G54D14*
X20157Y-27181D03*
G54D15*
X20157Y-26681D03*
X20157Y-25681D03*
X20157Y-25181D03*
G54D16*
X20669Y-57892D03*
X20669Y-58642D03*
X22244Y-57892D03*
X22244Y-58642D03*
X23818Y-57892D03*
X23818Y-58642D03*
X25393Y-57892D03*
X25393Y-58642D03*
G54D17*
X22244Y-55523D03*
G54D13*
X22244Y-56523D03*
G54D17*
X20669Y-55523D03*
G54D13*
X20669Y-56523D03*
G54D18*
X20669Y-61200D03*
X20669Y-60374D03*
X22244Y-61200D03*
X22244Y-60374D03*
X23818Y-61200D03*
X23818Y-60374D03*
X25393Y-61200D03*
X25393Y-60374D03*
G54D14*
X33937Y-27181D03*
G54D15*
X33937Y-26681D03*
X33937Y-25681D03*
X33937Y-25181D03*
G54D14*
X31181Y-27181D03*
G54D15*
X31181Y-26681D03*
X31181Y-25681D03*
X31181Y-25181D03*
G54D13*
X12598Y-22637D03*
X34251Y-22637D03*
G54D19*
X25866Y-35629D03*
X32834Y-38070D03*
X20826Y-48188D03*
X18307Y-48228D03*
X21417Y-47440D03*
X19133Y-47401D03*
X25944Y-36811D03*
X28110Y-46889D03*
X25472Y-50944D03*
X25078Y-37362D03*
X22244Y-53775D03*
X12165Y-46023D03*
X18976Y-40393D03*
X18661Y-41338D03*
X26299Y-43818D03*
X28720Y-43670D03*
X32140Y-41390D03*
X22860Y-36210D03*
X19881Y-42637D03*
X21771Y-34448D03*
X30275Y-37874D03*
X17755Y-40826D03*
X33188Y-49881D03*
X35748Y-40039D03*
X23228Y-49803D03*
X16574Y-39055D03*
X12244Y-26102D03*
X16929Y-37204D03*
X15600Y-22310D03*
X17677Y-36653D03*
X16929Y-21732D03*
X18622Y-36299D03*
X19133Y-20275D03*
X18779Y-34803D03*
X23425Y-20275D03*
X19100Y-33680D03*
X27716Y-20275D03*
X20157Y-33661D03*
X32125Y-20314D03*
X21062Y-33661D03*
X27795Y-32362D03*
X26496Y-33543D03*
X11102Y-35629D03*
X14881Y-37440D03*
X14921Y-35472D03*
X30420Y-41180D03*
X31850Y-34645D03*
G54D20*
X23818Y-61200D02*
X25393Y-61200D01*
X22244Y-61200D02*
X23818Y-61200D01*
X20669Y-61200D02*
X22244Y-61200D01*
G54D21*
X32559Y-37795D02*
X32559Y-34059D01*
X27310Y-35629D02*
X25866Y-35629D01*
X27770Y-35170D02*
X27310Y-35629D01*
X27770Y-34170D02*
X27770Y-35170D01*
X28240Y-33700D02*
X27770Y-34170D01*
X32200Y-33700D02*
X28240Y-33700D01*
X32559Y-34059D02*
X32200Y-33700D01*
X32834Y-38070D02*
X32559Y-37795D01*
X32834Y-38070D02*
X32834Y-48575D01*
X32834Y-48575D02*
X32450Y-48960D01*
X32450Y-48960D02*
X28070Y-48960D01*
X28070Y-48960D02*
X27720Y-49310D01*
X27720Y-49310D02*
X27720Y-51810D01*
X27720Y-51810D02*
X26270Y-53260D01*
X26270Y-53260D02*
X26270Y-60880D01*
X26270Y-60880D02*
X25949Y-61200D01*
X25949Y-61200D02*
X25393Y-61200D01*
X18307Y-48637D02*
X18490Y-48820D01*
X18490Y-48820D02*
X20710Y-48820D01*
X20710Y-48820D02*
X20826Y-48703D01*
X20826Y-48703D02*
X20826Y-48188D01*
X18307Y-48228D02*
X18307Y-48637D01*
X21417Y-47440D02*
X19173Y-47440D01*
X19173Y-47440D02*
X19133Y-47401D01*
X26614Y-38830D02*
X26380Y-38830D01*
X26380Y-38830D02*
X25944Y-38394D01*
X25944Y-38394D02*
X25944Y-36811D01*
X27440Y-39020D02*
X27440Y-45236D01*
X27250Y-38830D02*
X27440Y-39020D01*
X26614Y-38830D02*
X27250Y-38830D01*
X28110Y-45905D02*
X27440Y-45236D01*
X28110Y-46889D02*
X28110Y-45905D01*
G54D20*
X25393Y-57892D02*
X25393Y-51023D01*
X25393Y-51023D02*
X25472Y-50944D01*
G54D11*
X25472Y-50944D02*
X25393Y-51023D01*
G54D21*
X25196Y-38956D02*
X25196Y-37480D01*
X25196Y-37480D02*
X25078Y-37362D01*
X23818Y-50651D02*
X24210Y-50260D01*
X23818Y-57892D02*
X23818Y-50651D01*
X25520Y-39280D02*
X25196Y-38956D01*
X26510Y-39280D02*
X25520Y-39280D01*
X26920Y-39690D02*
X26510Y-39280D01*
X26920Y-49750D02*
X26920Y-39690D01*
X26410Y-50260D02*
X26920Y-49750D01*
X24210Y-50260D02*
X26410Y-50260D01*
G54D20*
X22244Y-57892D02*
X22244Y-56523D01*
X20669Y-57892D02*
X20669Y-56523D01*
G54D21*
X22244Y-55523D02*
X22244Y-56523D01*
X22244Y-53775D02*
X22244Y-55523D01*
X12165Y-46023D02*
X12816Y-46023D01*
X18592Y-40010D02*
X18976Y-40393D01*
X16820Y-40010D02*
X18592Y-40010D01*
X16350Y-40480D02*
X16820Y-40010D01*
X13910Y-40480D02*
X16350Y-40480D01*
X13320Y-41070D02*
X13910Y-40480D01*
X13320Y-45520D02*
X13320Y-41070D01*
X12816Y-46023D02*
X13320Y-45520D01*
X18897Y-43818D02*
X26299Y-43818D01*
X18661Y-43582D02*
X18897Y-43818D01*
X18661Y-41338D02*
X18661Y-43582D01*
X28720Y-43670D02*
X29280Y-43110D01*
X29280Y-43110D02*
X29280Y-42040D01*
X29280Y-42040D02*
X29520Y-41800D01*
X29520Y-41800D02*
X31730Y-41800D01*
X31730Y-41800D02*
X32140Y-41390D01*
X23540Y-36570D02*
X23220Y-36570D01*
X23220Y-36570D02*
X22860Y-36210D01*
X23540Y-36570D02*
X23540Y-39900D01*
X23540Y-39900D02*
X22298Y-41141D01*
X21496Y-41141D02*
X20433Y-41141D01*
X19881Y-41692D02*
X19881Y-42637D01*
X20433Y-41141D02*
X19881Y-41692D01*
X21496Y-41141D02*
X22298Y-41141D01*
X22047Y-34645D02*
X21968Y-34645D01*
X21968Y-34645D02*
X21771Y-34448D01*
X23460Y-35400D02*
X23460Y-35940D01*
X23780Y-36260D02*
X28570Y-36260D01*
X23460Y-35940D02*
X23780Y-36260D01*
X22047Y-34645D02*
X23035Y-34645D01*
X23460Y-35070D02*
X23460Y-35400D01*
X23035Y-34645D02*
X23460Y-35070D01*
X28920Y-37540D02*
X29254Y-37874D01*
X28920Y-36610D02*
X28920Y-37540D01*
X28570Y-36260D02*
X28920Y-36610D01*
X29254Y-37874D02*
X30275Y-37874D01*
G54D11*
X22047Y-34645D02*
X22047Y-34645D01*
G54D21*
X17755Y-40826D02*
X17755Y-41259D01*
G54D20*
X20669Y-55523D02*
X20669Y-56523D01*
X20629Y-53750D02*
X20629Y-55484D01*
X20629Y-55484D02*
X20669Y-55523D01*
G54D21*
X20629Y-55484D02*
X20669Y-55523D01*
G54D11*
X20629Y-53670D02*
X20629Y-53750D01*
X20629Y-55484D02*
X20669Y-55523D01*
G54D21*
X33188Y-49881D02*
X35433Y-49881D01*
X35748Y-49566D02*
X35748Y-40039D01*
X35433Y-49881D02*
X35748Y-49566D01*
G54D20*
X20629Y-54173D02*
X20629Y-53670D01*
X20629Y-53670D02*
X20629Y-50748D01*
X20629Y-50748D02*
X20118Y-50236D01*
G54D21*
X23228Y-49803D02*
X20551Y-49803D01*
X20551Y-49803D02*
X20118Y-50236D01*
X20629Y-50748D02*
X20118Y-50236D01*
X20118Y-50236D02*
X18136Y-50236D01*
X17755Y-49855D02*
X17755Y-41259D01*
X18136Y-50236D02*
X17755Y-49855D01*
G54D11*
X20118Y-50236D02*
X20629Y-50748D01*
G54D21*
X16338Y-38818D02*
X16338Y-37480D01*
X16574Y-39055D02*
X16338Y-38818D01*
X15314Y-26350D02*
X15314Y-29504D01*
X15314Y-29504D02*
X15720Y-29910D01*
X15720Y-29910D02*
X15720Y-30990D01*
X15720Y-30990D02*
X16250Y-31520D01*
X16250Y-31520D02*
X16559Y-31520D01*
X16559Y-31520D02*
X16650Y-31610D01*
X16650Y-31610D02*
X16650Y-35751D01*
X16650Y-35751D02*
X16338Y-36062D01*
X16338Y-36062D02*
X16338Y-37480D01*
X14645Y-25681D02*
X15314Y-26350D01*
X12244Y-26102D02*
X14224Y-26102D01*
X14224Y-26102D02*
X14645Y-25681D01*
X17086Y-35944D02*
X16889Y-36141D01*
X16889Y-36141D02*
X16889Y-37165D01*
X16889Y-37165D02*
X16929Y-37204D01*
X16681Y-25681D02*
X17401Y-25681D01*
X16299Y-26062D02*
X16681Y-25681D01*
X16299Y-28228D02*
X16299Y-26062D01*
X17086Y-29015D02*
X16299Y-28228D01*
X17086Y-35944D02*
X17086Y-29015D01*
X16023Y-25078D02*
X16023Y-22733D01*
X16625Y-25681D02*
X16023Y-25078D01*
X17401Y-25681D02*
X16625Y-25681D01*
X16023Y-22733D02*
X15600Y-22310D01*
X17519Y-35905D02*
X17519Y-36496D01*
X19351Y-25681D02*
X19133Y-25898D01*
X19133Y-25898D02*
X19133Y-27716D01*
X19133Y-27716D02*
X18858Y-27992D01*
X18858Y-27992D02*
X17874Y-27992D01*
X17874Y-27992D02*
X17519Y-28346D01*
X17519Y-28346D02*
X17519Y-34448D01*
X17519Y-34448D02*
X17519Y-35905D01*
X17519Y-36496D02*
X17677Y-36653D01*
X20157Y-25681D02*
X19351Y-25681D01*
X16929Y-21732D02*
X16929Y-24069D01*
X19010Y-25340D02*
X19351Y-25681D01*
X19010Y-24730D02*
X19010Y-25340D01*
X18730Y-24450D02*
X19010Y-24730D01*
X17310Y-24450D02*
X18730Y-24450D01*
X16929Y-24069D02*
X17310Y-24450D01*
X18622Y-36299D02*
X18011Y-35688D01*
X18011Y-35688D02*
X17992Y-35669D01*
X18700Y-28503D02*
X17992Y-29212D01*
X17992Y-29212D02*
X17992Y-35669D01*
X22913Y-25681D02*
X22192Y-25681D01*
X22192Y-25681D02*
X21850Y-26023D01*
X21850Y-26023D02*
X21850Y-27362D01*
X21850Y-27362D02*
X20708Y-28503D01*
X20708Y-28503D02*
X18700Y-28503D01*
G54D20*
X17992Y-35669D02*
X18622Y-36299D01*
G54D21*
X19133Y-20275D02*
X19133Y-23573D01*
X22241Y-25681D02*
X22913Y-25681D01*
X21780Y-25220D02*
X22241Y-25681D01*
X21780Y-24550D02*
X21780Y-25220D01*
X21310Y-24080D02*
X21780Y-24550D01*
X19640Y-24080D02*
X21310Y-24080D01*
X19133Y-23573D02*
X19640Y-24080D01*
X18503Y-34291D02*
X18503Y-34527D01*
X18503Y-34527D02*
X18779Y-34803D01*
X18503Y-34291D02*
X18503Y-29976D01*
X24720Y-26132D02*
X25171Y-25681D01*
X24720Y-27420D02*
X24720Y-26132D01*
X24380Y-27760D02*
X24720Y-27420D01*
X22160Y-27760D02*
X24380Y-27760D01*
X21760Y-28160D02*
X22160Y-27760D01*
X21760Y-29020D02*
X21760Y-28160D01*
X21330Y-29450D02*
X21760Y-29020D01*
X19030Y-29450D02*
X21330Y-29450D01*
X18503Y-29976D02*
X19030Y-29450D01*
X25171Y-25681D02*
X25669Y-25681D01*
X23425Y-20275D02*
X23425Y-24195D01*
X23425Y-24195D02*
X23860Y-24630D01*
X23860Y-24630D02*
X24560Y-24630D01*
X24560Y-24630D02*
X24810Y-24880D01*
X24810Y-24880D02*
X24810Y-25320D01*
X24810Y-25320D02*
X25171Y-25681D01*
X25171Y-25681D02*
X25669Y-25681D01*
X19100Y-33680D02*
X19094Y-32035D01*
X19094Y-32035D02*
X19490Y-31640D01*
X19490Y-31640D02*
X25820Y-31640D01*
X25820Y-31640D02*
X26480Y-30980D01*
X26480Y-30980D02*
X26480Y-26230D01*
X26480Y-26230D02*
X27028Y-25681D01*
X27028Y-25681D02*
X28425Y-25681D01*
X28425Y-25681D02*
X27901Y-25681D01*
X27901Y-25681D02*
X27480Y-25260D01*
X27480Y-25260D02*
X27480Y-20511D01*
X27480Y-20511D02*
X27716Y-20275D01*
G54D11*
X27480Y-20511D02*
X27716Y-20275D01*
G54D21*
X19881Y-33385D02*
X19881Y-32637D01*
X20157Y-33661D02*
X19881Y-33385D01*
X19881Y-32637D02*
X19881Y-32218D01*
X19881Y-32218D02*
X20100Y-32000D01*
X20100Y-32000D02*
X26240Y-32000D01*
X26240Y-32000D02*
X27240Y-31000D01*
X27240Y-31000D02*
X27240Y-28390D01*
X27240Y-28390D02*
X27650Y-27980D01*
X27650Y-27980D02*
X29820Y-27980D01*
X29820Y-27980D02*
X30170Y-27630D01*
X30170Y-27630D02*
X30170Y-26070D01*
X30170Y-26070D02*
X30558Y-25681D01*
X30558Y-25681D02*
X31181Y-25681D01*
X31181Y-25681D02*
X31917Y-25681D01*
X31917Y-25681D02*
X32125Y-25472D01*
X32125Y-25472D02*
X32125Y-20314D01*
G54D11*
X31917Y-25681D02*
X32125Y-25472D01*
G54D21*
X21062Y-33661D02*
X21062Y-32887D01*
X33218Y-25681D02*
X33937Y-25681D01*
X32960Y-25940D02*
X33218Y-25681D01*
X32960Y-27950D02*
X32960Y-25940D01*
X32490Y-28420D02*
X32960Y-27950D01*
X28540Y-28420D02*
X32490Y-28420D01*
X28020Y-28940D02*
X28540Y-28420D01*
X28020Y-30900D02*
X28020Y-28940D01*
X26370Y-32550D02*
X28020Y-30900D01*
X21400Y-32550D02*
X26370Y-32550D01*
X21062Y-32887D02*
X21400Y-32550D01*
X27795Y-33244D02*
X27795Y-32362D01*
X27496Y-33543D02*
X27795Y-33244D01*
X26496Y-33543D02*
X27496Y-33543D01*
X12559Y-36210D02*
X13965Y-36210D01*
X14921Y-35472D02*
X14921Y-35551D01*
X14262Y-36210D02*
X13965Y-36210D01*
X14921Y-35551D02*
X14262Y-36210D01*
X11102Y-35629D02*
X11102Y-36052D01*
X11102Y-36052D02*
X11260Y-36210D01*
X11260Y-36210D02*
X12559Y-36210D01*
X14881Y-37440D02*
X14881Y-35511D01*
X14881Y-35511D02*
X14921Y-35472D01*
G54D20*
X22244Y-60374D02*
X22244Y-58642D01*
X20669Y-60374D02*
X20669Y-58642D01*
X25393Y-60374D02*
X25393Y-58642D01*
G54D11*
X25648Y-58642D02*
X25393Y-58642D01*
G54D20*
X23818Y-60374D02*
X23818Y-58642D01*
G54D21*
X30420Y-41180D02*
X30790Y-41180D01*
X30790Y-41180D02*
X32125Y-39844D01*
X32125Y-39844D02*
X32125Y-34921D01*
X32125Y-34921D02*
X31850Y-34645D01*
G54D11*
X31850Y-34645D02*
X32125Y-34921D01*
G54D10*
G36*
X18874Y-25685D02*
X18819Y-25768D01*
X18793Y-25898D01*
X18793Y-27575D01*
X18717Y-27652D01*
X18006Y-27652D01*
X18006Y-27328D01*
X18006Y-26934D01*
X17968Y-26843D01*
X17990Y-26799D01*
X17990Y-26562D01*
X17910Y-26400D01*
X17776Y-26287D01*
X17609Y-26234D01*
X17451Y-26234D01*
X17451Y-26631D01*
X17940Y-26631D01*
X17990Y-26562D01*
X17990Y-26799D01*
X17940Y-26731D01*
X17451Y-26731D01*
X17451Y-26734D01*
X17351Y-26734D01*
X17351Y-26731D01*
X17351Y-26631D01*
X17351Y-26234D01*
X17194Y-26234D01*
X17027Y-26287D01*
X16893Y-26400D01*
X16813Y-26562D01*
X16863Y-26631D01*
X17351Y-26631D01*
X17351Y-26731D01*
X16863Y-26731D01*
X16813Y-26799D01*
X16835Y-26843D01*
X16797Y-26934D01*
X16797Y-27033D01*
X16797Y-27427D01*
X16835Y-27519D01*
X16905Y-27589D01*
X16997Y-27628D01*
X17097Y-27628D01*
X17805Y-27628D01*
X17897Y-27590D01*
X17967Y-27519D01*
X18006Y-27428D01*
X18006Y-27328D01*
X18006Y-27652D01*
X17874Y-27652D01*
X17765Y-27673D01*
X17743Y-27678D01*
X17633Y-27751D01*
X17279Y-28106D01*
X17205Y-28216D01*
X17179Y-28346D01*
X17179Y-28627D01*
X16639Y-28087D01*
X16639Y-26203D01*
X16821Y-26021D01*
X16952Y-26021D01*
X17061Y-26094D01*
X17232Y-26128D01*
X17571Y-26128D01*
X17742Y-26094D01*
X17887Y-25997D01*
X17983Y-25852D01*
X18018Y-25681D01*
X17983Y-25510D01*
X17931Y-25431D01*
X17983Y-25352D01*
X18018Y-25181D01*
X17983Y-25010D01*
X17887Y-24865D01*
X17774Y-24790D01*
X18589Y-24790D01*
X18670Y-24870D01*
X18670Y-25340D01*
X18695Y-25470D01*
X18769Y-25580D01*
X18874Y-25685D01*
X18874Y-25685D01*
G37*
G54D22*
X18874Y-25685D02*
X18819Y-25768D01*
X18793Y-25898D01*
X18793Y-27575D01*
X18717Y-27652D01*
X18006Y-27652D01*
X18006Y-27328D01*
X18006Y-26934D01*
X17968Y-26843D01*
X17990Y-26799D01*
X17990Y-26562D01*
X17910Y-26400D01*
X17776Y-26287D01*
X17609Y-26234D01*
X17451Y-26234D01*
X17451Y-26631D01*
X17940Y-26631D01*
X17990Y-26562D01*
X17990Y-26799D01*
X17940Y-26731D01*
X17451Y-26731D01*
X17451Y-26734D01*
X17351Y-26734D01*
X17351Y-26731D01*
X17351Y-26631D01*
X17351Y-26234D01*
X17194Y-26234D01*
X17027Y-26287D01*
X16893Y-26400D01*
X16813Y-26562D01*
X16863Y-26631D01*
X17351Y-26631D01*
X17351Y-26731D01*
X16863Y-26731D01*
X16813Y-26799D01*
X16835Y-26843D01*
X16797Y-26934D01*
X16797Y-27033D01*
X16797Y-27427D01*
X16835Y-27519D01*
X16905Y-27589D01*
X16997Y-27628D01*
X17097Y-27628D01*
X17805Y-27628D01*
X17897Y-27590D01*
X17967Y-27519D01*
X18006Y-27428D01*
X18006Y-27328D01*
X18006Y-27652D01*
X17874Y-27652D01*
X17765Y-27673D01*
X17743Y-27678D01*
X17633Y-27751D01*
X17279Y-28106D01*
X17205Y-28216D01*
X17179Y-28346D01*
X17179Y-28627D01*
X16639Y-28087D01*
X16639Y-26203D01*
X16821Y-26021D01*
X16952Y-26021D01*
X17061Y-26094D01*
X17232Y-26128D01*
X17571Y-26128D01*
X17742Y-26094D01*
X17887Y-25997D01*
X17983Y-25852D01*
X18018Y-25681D01*
X17983Y-25510D01*
X17931Y-25431D01*
X17983Y-25352D01*
X18018Y-25181D01*
X17983Y-25010D01*
X17887Y-24865D01*
X17774Y-24790D01*
X18589Y-24790D01*
X18670Y-24870D01*
X18670Y-25340D01*
X18695Y-25470D01*
X18769Y-25580D01*
X18874Y-25685D01*
G54D10*
G36*
X24690Y-25681D02*
X24479Y-25891D01*
X24405Y-26002D01*
X24380Y-26132D01*
X24380Y-27279D01*
X24239Y-27420D01*
X23517Y-27420D01*
X23518Y-27328D01*
X23518Y-26934D01*
X23480Y-26843D01*
X23501Y-26799D01*
X23501Y-26562D01*
X23422Y-26400D01*
X23288Y-26287D01*
X23120Y-26234D01*
X22963Y-26234D01*
X22963Y-26631D01*
X23452Y-26631D01*
X23501Y-26562D01*
X23501Y-26799D01*
X23452Y-26731D01*
X22963Y-26731D01*
X22963Y-26734D01*
X22863Y-26734D01*
X22863Y-26731D01*
X22863Y-26631D01*
X22863Y-26234D01*
X22706Y-26234D01*
X22539Y-26287D01*
X22404Y-26400D01*
X22325Y-26562D01*
X22375Y-26631D01*
X22863Y-26631D01*
X22863Y-26731D01*
X22375Y-26731D01*
X22325Y-26799D01*
X22346Y-26843D01*
X22309Y-26934D01*
X22309Y-27033D01*
X22309Y-27420D01*
X22178Y-27420D01*
X22190Y-27362D01*
X22190Y-27362D01*
X22190Y-26164D01*
X22333Y-26021D01*
X22464Y-26021D01*
X22573Y-26094D01*
X22744Y-26128D01*
X23082Y-26128D01*
X23253Y-26094D01*
X23398Y-25997D01*
X23495Y-25852D01*
X23529Y-25681D01*
X23495Y-25510D01*
X23443Y-25431D01*
X23495Y-25352D01*
X23529Y-25181D01*
X23495Y-25010D01*
X23398Y-24865D01*
X23253Y-24768D01*
X23082Y-24734D01*
X22744Y-24734D01*
X22709Y-24740D01*
X22709Y-20186D01*
X22641Y-20021D01*
X22515Y-19894D01*
X22349Y-19825D01*
X22170Y-19825D01*
X22005Y-19893D01*
X21878Y-20020D01*
X21809Y-20185D01*
X21809Y-20364D01*
X21878Y-20530D01*
X22004Y-20656D01*
X22169Y-20725D01*
X22348Y-20725D01*
X22514Y-20657D01*
X22641Y-20530D01*
X22709Y-20365D01*
X22709Y-20186D01*
X22709Y-24740D01*
X22573Y-24768D01*
X22428Y-24865D01*
X22331Y-25010D01*
X22297Y-25181D01*
X22316Y-25275D01*
X22120Y-25079D01*
X22120Y-24550D01*
X22098Y-24441D01*
X22094Y-24419D01*
X22094Y-24419D01*
X22020Y-24309D01*
X22020Y-24309D01*
X21709Y-23999D01*
X21709Y-20186D01*
X21641Y-20021D01*
X21515Y-19894D01*
X21349Y-19825D01*
X21170Y-19825D01*
X21005Y-19893D01*
X20878Y-20020D01*
X20809Y-20185D01*
X20809Y-20364D01*
X20878Y-20530D01*
X21004Y-20656D01*
X21169Y-20725D01*
X21348Y-20725D01*
X21514Y-20657D01*
X21641Y-20530D01*
X21709Y-20365D01*
X21709Y-20186D01*
X21709Y-23999D01*
X21550Y-23839D01*
X21440Y-23765D01*
X21310Y-23740D01*
X20709Y-23740D01*
X20709Y-20186D01*
X20641Y-20021D01*
X20515Y-19894D01*
X20349Y-19825D01*
X20170Y-19825D01*
X20005Y-19893D01*
X19878Y-20020D01*
X19809Y-20185D01*
X19809Y-20364D01*
X19878Y-20530D01*
X20004Y-20656D01*
X20169Y-20725D01*
X20348Y-20725D01*
X20514Y-20657D01*
X20641Y-20530D01*
X20709Y-20365D01*
X20709Y-20186D01*
X20709Y-23740D01*
X19780Y-23740D01*
X19473Y-23433D01*
X19473Y-20762D01*
X19629Y-20607D01*
X19718Y-20392D01*
X19718Y-20159D01*
X19629Y-19944D01*
X19498Y-19813D01*
X23060Y-19813D01*
X22929Y-19943D01*
X22840Y-20158D01*
X22840Y-20391D01*
X22929Y-20606D01*
X23085Y-20762D01*
X23085Y-24195D01*
X23111Y-24325D01*
X23184Y-24435D01*
X23619Y-24870D01*
X23619Y-24870D01*
X23693Y-24919D01*
X23729Y-24944D01*
X23729Y-24944D01*
X23860Y-24970D01*
X24419Y-24970D01*
X24470Y-25020D01*
X24470Y-25320D01*
X24495Y-25450D01*
X24569Y-25560D01*
X24690Y-25681D01*
X24690Y-25681D01*
G37*
G54D22*
X24690Y-25681D02*
X24479Y-25891D01*
X24405Y-26002D01*
X24380Y-26132D01*
X24380Y-27279D01*
X24239Y-27420D01*
X23517Y-27420D01*
X23518Y-27328D01*
X23518Y-26934D01*
X23480Y-26843D01*
X23501Y-26799D01*
X23501Y-26562D01*
X23422Y-26400D01*
X23288Y-26287D01*
X23120Y-26234D01*
X22963Y-26234D01*
X22963Y-26631D01*
X23452Y-26631D01*
X23501Y-26562D01*
X23501Y-26799D01*
X23452Y-26731D01*
X22963Y-26731D01*
X22963Y-26734D01*
X22863Y-26734D01*
X22863Y-26731D01*
X22863Y-26631D01*
X22863Y-26234D01*
X22706Y-26234D01*
X22539Y-26287D01*
X22404Y-26400D01*
X22325Y-26562D01*
X22375Y-26631D01*
X22863Y-26631D01*
X22863Y-26731D01*
X22375Y-26731D01*
X22325Y-26799D01*
X22346Y-26843D01*
X22309Y-26934D01*
X22309Y-27033D01*
X22309Y-27420D01*
X22178Y-27420D01*
X22190Y-27362D01*
X22190Y-27362D01*
X22190Y-26164D01*
X22333Y-26021D01*
X22464Y-26021D01*
X22573Y-26094D01*
X22744Y-26128D01*
X23082Y-26128D01*
X23253Y-26094D01*
X23398Y-25997D01*
X23495Y-25852D01*
X23529Y-25681D01*
X23495Y-25510D01*
X23443Y-25431D01*
X23495Y-25352D01*
X23529Y-25181D01*
X23495Y-25010D01*
X23398Y-24865D01*
X23253Y-24768D01*
X23082Y-24734D01*
X22744Y-24734D01*
X22709Y-24740D01*
X22709Y-20186D01*
X22641Y-20021D01*
X22515Y-19894D01*
X22349Y-19825D01*
X22170Y-19825D01*
X22005Y-19893D01*
X21878Y-20020D01*
X21809Y-20185D01*
X21809Y-20364D01*
X21878Y-20530D01*
X22004Y-20656D01*
X22169Y-20725D01*
X22348Y-20725D01*
X22514Y-20657D01*
X22641Y-20530D01*
X22709Y-20365D01*
X22709Y-20186D01*
X22709Y-24740D01*
X22573Y-24768D01*
X22428Y-24865D01*
X22331Y-25010D01*
X22297Y-25181D01*
X22316Y-25275D01*
X22120Y-25079D01*
X22120Y-24550D01*
X22098Y-24441D01*
X22094Y-24419D01*
X22094Y-24419D01*
X22020Y-24309D01*
X22020Y-24309D01*
X21709Y-23999D01*
X21709Y-20186D01*
X21641Y-20021D01*
X21515Y-19894D01*
X21349Y-19825D01*
X21170Y-19825D01*
X21005Y-19893D01*
X20878Y-20020D01*
X20809Y-20185D01*
X20809Y-20364D01*
X20878Y-20530D01*
X21004Y-20656D01*
X21169Y-20725D01*
X21348Y-20725D01*
X21514Y-20657D01*
X21641Y-20530D01*
X21709Y-20365D01*
X21709Y-20186D01*
X21709Y-23999D01*
X21550Y-23839D01*
X21440Y-23765D01*
X21310Y-23740D01*
X20709Y-23740D01*
X20709Y-20186D01*
X20641Y-20021D01*
X20515Y-19894D01*
X20349Y-19825D01*
X20170Y-19825D01*
X20005Y-19893D01*
X19878Y-20020D01*
X19809Y-20185D01*
X19809Y-20364D01*
X19878Y-20530D01*
X20004Y-20656D01*
X20169Y-20725D01*
X20348Y-20725D01*
X20514Y-20657D01*
X20641Y-20530D01*
X20709Y-20365D01*
X20709Y-20186D01*
X20709Y-23740D01*
X19780Y-23740D01*
X19473Y-23433D01*
X19473Y-20762D01*
X19629Y-20607D01*
X19718Y-20392D01*
X19718Y-20159D01*
X19629Y-19944D01*
X19498Y-19813D01*
X23060Y-19813D01*
X22929Y-19943D01*
X22840Y-20158D01*
X22840Y-20391D01*
X22929Y-20606D01*
X23085Y-20762D01*
X23085Y-24195D01*
X23111Y-24325D01*
X23184Y-24435D01*
X23619Y-24870D01*
X23619Y-24870D01*
X23693Y-24919D01*
X23729Y-24944D01*
X23729Y-24944D01*
X23860Y-24970D01*
X24419Y-24970D01*
X24470Y-25020D01*
X24470Y-25320D01*
X24495Y-25450D01*
X24569Y-25560D01*
X24690Y-25681D01*
G54D10*
G36*
X26580Y-43302D02*
X26508Y-43272D01*
X26508Y-40655D01*
X26446Y-40504D01*
X26330Y-40388D01*
X26180Y-40326D01*
X26017Y-40326D01*
X25866Y-40388D01*
X25751Y-40503D01*
X25688Y-40654D01*
X25688Y-40817D01*
X25750Y-40968D01*
X25865Y-41083D01*
X26016Y-41146D01*
X26179Y-41146D01*
X26330Y-41084D01*
X26445Y-40968D01*
X26508Y-40818D01*
X26508Y-40655D01*
X26508Y-43272D01*
X26416Y-43234D01*
X26183Y-43234D01*
X25968Y-43322D01*
X25812Y-43478D01*
X25556Y-43478D01*
X25556Y-42745D01*
X25488Y-42580D01*
X25361Y-42453D01*
X25196Y-42384D01*
X25017Y-42384D01*
X24851Y-42452D01*
X24725Y-42579D01*
X24656Y-42744D01*
X24656Y-42923D01*
X24724Y-43089D01*
X24851Y-43215D01*
X25016Y-43284D01*
X25195Y-43284D01*
X25360Y-43216D01*
X25487Y-43089D01*
X25556Y-42924D01*
X25556Y-42745D01*
X25556Y-43478D01*
X24556Y-43478D01*
X24556Y-42745D01*
X24508Y-42629D01*
X24508Y-40655D01*
X24446Y-40504D01*
X24330Y-40388D01*
X24180Y-40326D01*
X24017Y-40326D01*
X23866Y-40388D01*
X23751Y-40503D01*
X23688Y-40654D01*
X23688Y-40817D01*
X23750Y-40968D01*
X23865Y-41083D01*
X24016Y-41146D01*
X24179Y-41146D01*
X24330Y-41084D01*
X24445Y-40968D01*
X24508Y-40818D01*
X24508Y-40655D01*
X24508Y-42629D01*
X24488Y-42580D01*
X24361Y-42453D01*
X24196Y-42384D01*
X24017Y-42384D01*
X23851Y-42452D01*
X23725Y-42579D01*
X23656Y-42744D01*
X23656Y-42923D01*
X23724Y-43089D01*
X23851Y-43215D01*
X24016Y-43284D01*
X24195Y-43284D01*
X24360Y-43216D01*
X24487Y-43089D01*
X24556Y-42924D01*
X24556Y-42745D01*
X24556Y-43478D01*
X23351Y-43478D01*
X23351Y-42745D01*
X23283Y-42580D01*
X23156Y-42453D01*
X22991Y-42384D01*
X22812Y-42384D01*
X22647Y-42452D01*
X22520Y-42579D01*
X22451Y-42744D01*
X22451Y-42923D01*
X22519Y-43089D01*
X22646Y-43215D01*
X22811Y-43284D01*
X22990Y-43284D01*
X23156Y-43216D01*
X23282Y-43089D01*
X23351Y-42924D01*
X23351Y-42745D01*
X23351Y-43478D01*
X22351Y-43478D01*
X22351Y-42745D01*
X22283Y-42580D01*
X22156Y-42453D01*
X21991Y-42384D01*
X21812Y-42384D01*
X21647Y-42452D01*
X21520Y-42579D01*
X21451Y-42744D01*
X21451Y-42923D01*
X21519Y-43089D01*
X21646Y-43215D01*
X21811Y-43284D01*
X21990Y-43284D01*
X22156Y-43216D01*
X22282Y-43089D01*
X22351Y-42924D01*
X22351Y-42745D01*
X22351Y-43478D01*
X19038Y-43478D01*
X19001Y-43441D01*
X19001Y-41825D01*
X19156Y-41670D01*
X19245Y-41455D01*
X19246Y-41222D01*
X19157Y-41007D01*
X19117Y-40967D01*
X19307Y-40889D01*
X19471Y-40725D01*
X19560Y-40510D01*
X19561Y-40277D01*
X19472Y-40062D01*
X19307Y-39898D01*
X19093Y-39809D01*
X18872Y-39808D01*
X18833Y-39769D01*
X18722Y-39695D01*
X18592Y-39670D01*
X16820Y-39670D01*
X16711Y-39691D01*
X16689Y-39695D01*
X16579Y-39769D01*
X16209Y-40140D01*
X14370Y-40140D01*
X14370Y-40139D01*
X14438Y-39975D01*
X14439Y-39797D01*
X14439Y-36797D01*
X14439Y-35033D01*
X14439Y-32033D01*
X14371Y-31869D01*
X14245Y-31743D01*
X14081Y-31675D01*
X13903Y-31675D01*
X13739Y-31743D01*
X13613Y-31868D01*
X13545Y-32032D01*
X13545Y-32210D01*
X13613Y-32374D01*
X13738Y-32500D01*
X13902Y-32568D01*
X14080Y-32568D01*
X14244Y-32501D01*
X14370Y-32375D01*
X14438Y-32211D01*
X14439Y-32033D01*
X14439Y-35033D01*
X14371Y-34869D01*
X14245Y-34743D01*
X14081Y-34675D01*
X13903Y-34675D01*
X13739Y-34743D01*
X13613Y-34868D01*
X13545Y-35032D01*
X13545Y-35210D01*
X13613Y-35374D01*
X13738Y-35500D01*
X13902Y-35568D01*
X14080Y-35568D01*
X14244Y-35501D01*
X14370Y-35375D01*
X14438Y-35211D01*
X14439Y-35033D01*
X14439Y-36797D01*
X14371Y-36633D01*
X14245Y-36507D01*
X14081Y-36439D01*
X13903Y-36438D01*
X13739Y-36506D01*
X13613Y-36632D01*
X13545Y-36796D01*
X13545Y-36974D01*
X13613Y-37138D01*
X13738Y-37264D01*
X13902Y-37332D01*
X14080Y-37332D01*
X14244Y-37264D01*
X14370Y-37139D01*
X14438Y-36975D01*
X14439Y-36797D01*
X14439Y-39797D01*
X14371Y-39633D01*
X14245Y-39507D01*
X14081Y-39439D01*
X13903Y-39438D01*
X13739Y-39506D01*
X13613Y-39632D01*
X13545Y-39796D01*
X13545Y-39974D01*
X13613Y-40138D01*
X13696Y-40221D01*
X13669Y-40239D01*
X13079Y-40829D01*
X13005Y-40939D01*
X12980Y-41070D01*
X12980Y-45379D01*
X12675Y-45683D01*
X12652Y-45683D01*
X12496Y-45528D01*
X12439Y-45504D01*
X12439Y-44561D01*
X12439Y-41561D01*
X12439Y-39797D01*
X12439Y-36797D01*
X12439Y-35033D01*
X12439Y-32033D01*
X12371Y-31869D01*
X12245Y-31743D01*
X12081Y-31675D01*
X11903Y-31675D01*
X11739Y-31743D01*
X11613Y-31868D01*
X11545Y-32032D01*
X11545Y-32210D01*
X11613Y-32374D01*
X11738Y-32500D01*
X11902Y-32568D01*
X12080Y-32568D01*
X12244Y-32501D01*
X12370Y-32375D01*
X12438Y-32211D01*
X12439Y-32033D01*
X12439Y-35033D01*
X12371Y-34869D01*
X12245Y-34743D01*
X12081Y-34675D01*
X11903Y-34675D01*
X11739Y-34743D01*
X11613Y-34868D01*
X11545Y-35032D01*
X11545Y-35210D01*
X11613Y-35374D01*
X11738Y-35500D01*
X11902Y-35568D01*
X12080Y-35568D01*
X12244Y-35501D01*
X12370Y-35375D01*
X12438Y-35211D01*
X12439Y-35033D01*
X12439Y-36797D01*
X12371Y-36633D01*
X12245Y-36507D01*
X12081Y-36439D01*
X11903Y-36438D01*
X11739Y-36506D01*
X11613Y-36632D01*
X11545Y-36796D01*
X11545Y-36974D01*
X11613Y-37138D01*
X11738Y-37264D01*
X11902Y-37332D01*
X12080Y-37332D01*
X12244Y-37264D01*
X12370Y-37139D01*
X12438Y-36975D01*
X12439Y-36797D01*
X12439Y-39797D01*
X12371Y-39633D01*
X12245Y-39507D01*
X12081Y-39439D01*
X11903Y-39438D01*
X11739Y-39506D01*
X11613Y-39632D01*
X11545Y-39796D01*
X11545Y-39974D01*
X11613Y-40138D01*
X11738Y-40264D01*
X11902Y-40332D01*
X12080Y-40332D01*
X12244Y-40264D01*
X12370Y-40139D01*
X12438Y-39975D01*
X12439Y-39797D01*
X12439Y-41561D01*
X12371Y-41396D01*
X12245Y-41271D01*
X12081Y-41202D01*
X11903Y-41202D01*
X11739Y-41270D01*
X11613Y-41396D01*
X11545Y-41560D01*
X11545Y-41738D01*
X11613Y-41902D01*
X11738Y-42028D01*
X11902Y-42096D01*
X12080Y-42096D01*
X12244Y-42028D01*
X12370Y-41903D01*
X12438Y-41738D01*
X12439Y-41561D01*
X12439Y-44561D01*
X12371Y-44396D01*
X12245Y-44271D01*
X12081Y-44202D01*
X11903Y-44202D01*
X11739Y-44270D01*
X11613Y-44396D01*
X11545Y-44560D01*
X11545Y-44738D01*
X11613Y-44902D01*
X11738Y-45028D01*
X11902Y-45096D01*
X12080Y-45096D01*
X12244Y-45028D01*
X12370Y-44903D01*
X12438Y-44738D01*
X12439Y-44561D01*
X12439Y-45504D01*
X12282Y-45439D01*
X12049Y-45438D01*
X11834Y-45527D01*
X11670Y-45692D01*
X11580Y-45906D01*
X11580Y-46139D01*
X11669Y-46354D01*
X11833Y-46518D01*
X12048Y-46608D01*
X12281Y-46608D01*
X12496Y-46519D01*
X12652Y-46363D01*
X12816Y-46363D01*
X12816Y-46363D01*
X12946Y-46337D01*
X13056Y-46264D01*
X13450Y-45870D01*
X13450Y-47523D01*
X16470Y-47523D01*
X16470Y-45663D01*
X13625Y-45663D01*
X13634Y-45650D01*
X13634Y-45650D01*
X13659Y-45520D01*
X13660Y-45520D01*
X13660Y-44949D01*
X13738Y-45028D01*
X13902Y-45096D01*
X14080Y-45096D01*
X14244Y-45028D01*
X14370Y-44903D01*
X14438Y-44738D01*
X14439Y-44561D01*
X14371Y-44396D01*
X14245Y-44271D01*
X14081Y-44202D01*
X13903Y-44202D01*
X13739Y-44270D01*
X13660Y-44349D01*
X13660Y-41949D01*
X13738Y-42028D01*
X13902Y-42096D01*
X14080Y-42096D01*
X14244Y-42028D01*
X14370Y-41903D01*
X14438Y-41738D01*
X14439Y-41561D01*
X14371Y-41396D01*
X14245Y-41271D01*
X14081Y-41202D01*
X13903Y-41202D01*
X13739Y-41270D01*
X13660Y-41349D01*
X13660Y-41210D01*
X14050Y-40820D01*
X16350Y-40820D01*
X16350Y-40819D01*
X16480Y-40794D01*
X16590Y-40720D01*
X16960Y-40350D01*
X17405Y-40350D01*
X17260Y-40495D01*
X17171Y-40709D01*
X17171Y-40942D01*
X17259Y-41157D01*
X17415Y-41313D01*
X17415Y-49855D01*
X17441Y-49986D01*
X17515Y-50096D01*
X17895Y-50476D01*
X17895Y-50476D01*
X18006Y-50550D01*
X18006Y-50550D01*
X18027Y-50554D01*
X18136Y-50576D01*
X19963Y-50576D01*
X20279Y-50893D01*
X20279Y-53670D01*
X20279Y-53750D01*
X20279Y-54173D01*
X20279Y-54879D01*
X20226Y-54879D01*
X20134Y-54917D01*
X20063Y-54988D01*
X20025Y-55079D01*
X20025Y-55179D01*
X20025Y-55966D01*
X20063Y-56058D01*
X20133Y-56129D01*
X20147Y-56134D01*
X20123Y-56158D01*
X20025Y-56395D01*
X20025Y-56651D01*
X20123Y-56887D01*
X20304Y-57069D01*
X20319Y-57075D01*
X20319Y-57478D01*
X20252Y-57505D01*
X20182Y-57575D01*
X20144Y-57667D01*
X20144Y-57767D01*
X20144Y-58117D01*
X20182Y-58209D01*
X20240Y-58267D01*
X20182Y-58325D01*
X20144Y-58417D01*
X20144Y-58517D01*
X20144Y-58867D01*
X20182Y-58959D01*
X20252Y-59029D01*
X20319Y-59057D01*
X20319Y-59915D01*
X20291Y-59926D01*
X20221Y-59996D01*
X20183Y-60088D01*
X20183Y-60187D01*
X20183Y-60659D01*
X20221Y-60751D01*
X20256Y-60787D01*
X20221Y-60822D01*
X20183Y-60914D01*
X20183Y-61013D01*
X20183Y-61485D01*
X20183Y-61486D01*
X19735Y-61486D01*
X19735Y-51131D01*
X10954Y-51131D01*
X10954Y-44019D01*
X11698Y-44019D01*
X11698Y-42159D01*
X10954Y-42159D01*
X10954Y-39255D01*
X11698Y-39255D01*
X11698Y-37395D01*
X10954Y-37395D01*
X10954Y-34492D01*
X11712Y-34492D01*
X11712Y-32632D01*
X10954Y-32632D01*
X10954Y-29925D01*
X11443Y-29925D01*
X11322Y-29975D01*
X11196Y-30100D01*
X11128Y-30265D01*
X11127Y-30442D01*
X11195Y-30607D01*
X11321Y-30732D01*
X11485Y-30801D01*
X11663Y-30801D01*
X11827Y-30733D01*
X11953Y-30607D01*
X12021Y-30443D01*
X12021Y-30265D01*
X11953Y-30101D01*
X11828Y-29975D01*
X11706Y-29925D01*
X12585Y-29925D01*
X12463Y-29975D01*
X12337Y-30100D01*
X12269Y-30265D01*
X12269Y-30442D01*
X12337Y-30607D01*
X12463Y-30732D01*
X12627Y-30801D01*
X12805Y-30801D01*
X12969Y-30733D01*
X13095Y-30607D01*
X13163Y-30443D01*
X13163Y-30265D01*
X13095Y-30101D01*
X12969Y-29975D01*
X12848Y-29925D01*
X13350Y-29925D01*
X13350Y-28065D01*
X11867Y-28065D01*
X11867Y-27091D01*
X11799Y-26926D01*
X11672Y-26799D01*
X11507Y-26731D01*
X11328Y-26731D01*
X11162Y-26799D01*
X11036Y-26925D01*
X10967Y-27091D01*
X10967Y-27270D01*
X11035Y-27435D01*
X11162Y-27562D01*
X11327Y-27631D01*
X11506Y-27631D01*
X11671Y-27562D01*
X11798Y-27436D01*
X11867Y-27271D01*
X11867Y-27091D01*
X11867Y-28065D01*
X10954Y-28065D01*
X10954Y-19813D01*
X18769Y-19813D01*
X18638Y-19943D01*
X18549Y-20158D01*
X18549Y-20391D01*
X18637Y-20606D01*
X18793Y-20762D01*
X18793Y-23573D01*
X18819Y-23703D01*
X18893Y-23814D01*
X19399Y-24320D01*
X19399Y-24320D01*
X19473Y-24369D01*
X19509Y-24394D01*
X19509Y-24394D01*
X19639Y-24419D01*
X19640Y-24420D01*
X21169Y-24420D01*
X21440Y-24690D01*
X21440Y-25220D01*
X21465Y-25350D01*
X21539Y-25460D01*
X21736Y-25657D01*
X21609Y-25783D01*
X21536Y-25893D01*
X21510Y-26023D01*
X21510Y-27221D01*
X20762Y-27969D01*
X20762Y-27328D01*
X20762Y-26934D01*
X20724Y-26843D01*
X20745Y-26799D01*
X20745Y-26562D01*
X20666Y-26400D01*
X20532Y-26287D01*
X20365Y-26234D01*
X20207Y-26234D01*
X20207Y-26631D01*
X20696Y-26631D01*
X20745Y-26562D01*
X20745Y-26799D01*
X20696Y-26731D01*
X20207Y-26731D01*
X20207Y-26734D01*
X20107Y-26734D01*
X20107Y-26731D01*
X20107Y-26631D01*
X20107Y-26234D01*
X19950Y-26234D01*
X19783Y-26287D01*
X19648Y-26400D01*
X19569Y-26562D01*
X19619Y-26631D01*
X20107Y-26631D01*
X20107Y-26731D01*
X19619Y-26731D01*
X19569Y-26799D01*
X19590Y-26843D01*
X19553Y-26934D01*
X19553Y-27033D01*
X19553Y-27427D01*
X19591Y-27519D01*
X19661Y-27589D01*
X19753Y-27628D01*
X19852Y-27628D01*
X20561Y-27628D01*
X20653Y-27590D01*
X20723Y-27519D01*
X20762Y-27428D01*
X20762Y-27328D01*
X20762Y-27969D01*
X20567Y-28163D01*
X19167Y-28163D01*
X19374Y-27956D01*
X19374Y-27956D01*
X19423Y-27883D01*
X19447Y-27846D01*
X19447Y-27846D01*
X19473Y-27716D01*
X19473Y-27716D01*
X19473Y-26039D01*
X19491Y-26021D01*
X19708Y-26021D01*
X19817Y-26094D01*
X19988Y-26128D01*
X20326Y-26128D01*
X20497Y-26094D01*
X20642Y-25997D01*
X20739Y-25852D01*
X20773Y-25681D01*
X20739Y-25510D01*
X20687Y-25431D01*
X20739Y-25352D01*
X20773Y-25181D01*
X20739Y-25010D01*
X20642Y-24865D01*
X20497Y-24768D01*
X20326Y-24734D01*
X19988Y-24734D01*
X19817Y-24768D01*
X19672Y-24865D01*
X19575Y-25010D01*
X19541Y-25181D01*
X19573Y-25341D01*
X19491Y-25341D01*
X19350Y-25199D01*
X19350Y-24730D01*
X19324Y-24599D01*
X19324Y-24599D01*
X19299Y-24563D01*
X19250Y-24489D01*
X19250Y-24489D01*
X18970Y-24209D01*
X18860Y-24135D01*
X18730Y-24110D01*
X18379Y-24110D01*
X18379Y-20186D01*
X18310Y-20021D01*
X18184Y-19894D01*
X18019Y-19825D01*
X17840Y-19825D01*
X17674Y-19893D01*
X17547Y-20020D01*
X17479Y-20185D01*
X17479Y-20364D01*
X17547Y-20530D01*
X17673Y-20656D01*
X17839Y-20725D01*
X18018Y-20725D01*
X18183Y-20657D01*
X18310Y-20530D01*
X18379Y-20365D01*
X18379Y-20186D01*
X18379Y-24110D01*
X17450Y-24110D01*
X17269Y-23928D01*
X17269Y-22218D01*
X17424Y-22063D01*
X17513Y-21849D01*
X17513Y-21616D01*
X17425Y-21401D01*
X17379Y-21355D01*
X17379Y-20186D01*
X17310Y-20021D01*
X17184Y-19894D01*
X17019Y-19825D01*
X16840Y-19825D01*
X16674Y-19893D01*
X16547Y-20020D01*
X16479Y-20185D01*
X16479Y-20364D01*
X16547Y-20530D01*
X16673Y-20656D01*
X16839Y-20725D01*
X17018Y-20725D01*
X17183Y-20657D01*
X17310Y-20530D01*
X17379Y-20365D01*
X17379Y-20186D01*
X17379Y-21355D01*
X17260Y-21236D01*
X17045Y-21147D01*
X16813Y-21147D01*
X16598Y-21236D01*
X16433Y-21400D01*
X16379Y-21532D01*
X16379Y-20186D01*
X16310Y-20021D01*
X16184Y-19894D01*
X16019Y-19825D01*
X15840Y-19825D01*
X15674Y-19893D01*
X15547Y-20020D01*
X15479Y-20185D01*
X15479Y-20364D01*
X15547Y-20530D01*
X15673Y-20656D01*
X15839Y-20725D01*
X16018Y-20725D01*
X16183Y-20657D01*
X16310Y-20530D01*
X16379Y-20365D01*
X16379Y-20186D01*
X16379Y-21532D01*
X16344Y-21615D01*
X16344Y-21848D01*
X16433Y-22063D01*
X16589Y-22219D01*
X16589Y-24069D01*
X16615Y-24199D01*
X16688Y-24309D01*
X17069Y-24690D01*
X17069Y-24690D01*
X17157Y-24749D01*
X17061Y-24768D01*
X16916Y-24865D01*
X16819Y-25010D01*
X16785Y-25181D01*
X16817Y-25341D01*
X16766Y-25341D01*
X16363Y-24937D01*
X16363Y-22733D01*
X16363Y-22733D01*
X16337Y-22603D01*
X16337Y-22603D01*
X16313Y-22566D01*
X16264Y-22493D01*
X16264Y-22493D01*
X16184Y-22413D01*
X16184Y-22194D01*
X16095Y-21979D01*
X15931Y-21814D01*
X15716Y-21725D01*
X15484Y-21725D01*
X15269Y-21814D01*
X15104Y-21978D01*
X15015Y-22193D01*
X15015Y-22425D01*
X15104Y-22640D01*
X15268Y-22805D01*
X15483Y-22894D01*
X15683Y-22894D01*
X15683Y-25078D01*
X15709Y-25208D01*
X15783Y-25319D01*
X16172Y-25708D01*
X16058Y-25822D01*
X15985Y-25932D01*
X15959Y-26062D01*
X15959Y-28228D01*
X15985Y-28358D01*
X16058Y-28468D01*
X16746Y-29156D01*
X16746Y-31244D01*
X16689Y-31205D01*
X16559Y-31180D01*
X16390Y-31180D01*
X16060Y-30849D01*
X16060Y-29910D01*
X16059Y-29909D01*
X16034Y-29779D01*
X16034Y-29779D01*
X16009Y-29743D01*
X15960Y-29669D01*
X15960Y-29669D01*
X15654Y-29364D01*
X15654Y-26350D01*
X15629Y-26220D01*
X15629Y-26220D01*
X15604Y-26183D01*
X15555Y-26109D01*
X15555Y-26109D01*
X15239Y-25793D01*
X15262Y-25681D01*
X15228Y-25510D01*
X15175Y-25431D01*
X15228Y-25352D01*
X15262Y-25181D01*
X15228Y-25010D01*
X15131Y-24865D01*
X14986Y-24768D01*
X14815Y-24734D01*
X14476Y-24734D01*
X14305Y-24768D01*
X14223Y-24823D01*
X14223Y-22316D01*
X14048Y-21892D01*
X14048Y-20186D01*
X13980Y-20021D01*
X13853Y-19894D01*
X13688Y-19825D01*
X13509Y-19825D01*
X13343Y-19893D01*
X13217Y-20020D01*
X13148Y-20185D01*
X13148Y-20364D01*
X13216Y-20530D01*
X13343Y-20656D01*
X13508Y-20725D01*
X13687Y-20725D01*
X13852Y-20657D01*
X13979Y-20530D01*
X14048Y-20365D01*
X14048Y-20186D01*
X14048Y-21892D01*
X13976Y-21718D01*
X13520Y-21261D01*
X13048Y-21065D01*
X13048Y-20186D01*
X12980Y-20021D01*
X12853Y-19894D01*
X12688Y-19825D01*
X12509Y-19825D01*
X12343Y-19893D01*
X12217Y-20020D01*
X12148Y-20185D01*
X12148Y-20364D01*
X12216Y-20530D01*
X12343Y-20656D01*
X12508Y-20725D01*
X12687Y-20725D01*
X12852Y-20657D01*
X12979Y-20530D01*
X13048Y-20365D01*
X13048Y-20186D01*
X13048Y-21065D01*
X12923Y-21013D01*
X12276Y-21012D01*
X12048Y-21106D01*
X12048Y-20186D01*
X11980Y-20021D01*
X11853Y-19894D01*
X11688Y-19825D01*
X11509Y-19825D01*
X11343Y-19893D01*
X11217Y-20020D01*
X11148Y-20185D01*
X11148Y-20364D01*
X11216Y-20530D01*
X11343Y-20656D01*
X11508Y-20725D01*
X11687Y-20725D01*
X11852Y-20657D01*
X11979Y-20530D01*
X12048Y-20365D01*
X12048Y-20186D01*
X12048Y-21106D01*
X11679Y-21259D01*
X11221Y-21716D01*
X10973Y-22313D01*
X10973Y-22959D01*
X11220Y-23556D01*
X11676Y-24014D01*
X12273Y-24262D01*
X12920Y-24262D01*
X13517Y-24016D01*
X13975Y-23559D01*
X14222Y-22962D01*
X14223Y-22316D01*
X14223Y-24823D01*
X14160Y-24865D01*
X14063Y-25010D01*
X14029Y-25181D01*
X14063Y-25352D01*
X14116Y-25431D01*
X14063Y-25510D01*
X14029Y-25681D01*
X14045Y-25762D01*
X12730Y-25762D01*
X12575Y-25607D01*
X12360Y-25517D01*
X12128Y-25517D01*
X11913Y-25606D01*
X11867Y-25652D01*
X11867Y-25091D01*
X11799Y-24926D01*
X11672Y-24799D01*
X11507Y-24731D01*
X11328Y-24731D01*
X11162Y-24799D01*
X11036Y-24925D01*
X10967Y-25091D01*
X10967Y-25270D01*
X11035Y-25435D01*
X11162Y-25562D01*
X11327Y-25631D01*
X11506Y-25631D01*
X11671Y-25562D01*
X11798Y-25436D01*
X11867Y-25271D01*
X11867Y-25091D01*
X11867Y-25652D01*
X11748Y-25770D01*
X11717Y-25845D01*
X11672Y-25799D01*
X11507Y-25731D01*
X11328Y-25731D01*
X11162Y-25799D01*
X11036Y-25925D01*
X10967Y-26091D01*
X10967Y-26270D01*
X11035Y-26435D01*
X11162Y-26562D01*
X11327Y-26631D01*
X11506Y-26631D01*
X11671Y-26562D01*
X11774Y-26459D01*
X11912Y-26597D01*
X12127Y-26686D01*
X12359Y-26687D01*
X12574Y-26598D01*
X12731Y-26442D01*
X14116Y-26442D01*
X14057Y-26562D01*
X14107Y-26631D01*
X14595Y-26631D01*
X14595Y-26234D01*
X14573Y-26234D01*
X14645Y-26161D01*
X14718Y-26234D01*
X14695Y-26234D01*
X14695Y-26631D01*
X14703Y-26631D01*
X14703Y-26731D01*
X14695Y-26731D01*
X14695Y-26734D01*
X14595Y-26734D01*
X14595Y-26731D01*
X14107Y-26731D01*
X14057Y-26799D01*
X14079Y-26843D01*
X14041Y-26934D01*
X14041Y-27033D01*
X14041Y-27427D01*
X14079Y-27519D01*
X14149Y-27589D01*
X14241Y-27628D01*
X14341Y-27628D01*
X14974Y-27628D01*
X14974Y-28065D01*
X13556Y-28065D01*
X13556Y-29925D01*
X13726Y-29925D01*
X13605Y-29975D01*
X13479Y-30100D01*
X13411Y-30265D01*
X13411Y-30442D01*
X13479Y-30607D01*
X13604Y-30732D01*
X13768Y-30801D01*
X13946Y-30801D01*
X14111Y-30733D01*
X14236Y-30607D01*
X14305Y-30443D01*
X14305Y-30265D01*
X14237Y-30101D01*
X14111Y-29975D01*
X13989Y-29925D01*
X14868Y-29925D01*
X14747Y-29975D01*
X14621Y-30100D01*
X14553Y-30265D01*
X14553Y-30442D01*
X14620Y-30607D01*
X14746Y-30732D01*
X14910Y-30801D01*
X15088Y-30801D01*
X15252Y-30733D01*
X15378Y-30607D01*
X15380Y-30604D01*
X15380Y-30990D01*
X15405Y-31120D01*
X15479Y-31230D01*
X15960Y-31711D01*
X15855Y-31711D01*
X15690Y-31779D01*
X15563Y-31906D01*
X15494Y-32071D01*
X15494Y-32250D01*
X15563Y-32415D01*
X15689Y-32542D01*
X15854Y-32611D01*
X16033Y-32611D01*
X16199Y-32543D01*
X16310Y-32432D01*
X16310Y-32890D01*
X16200Y-32780D01*
X16034Y-32711D01*
X15855Y-32711D01*
X15690Y-32779D01*
X15563Y-32906D01*
X15494Y-33071D01*
X15494Y-33250D01*
X15563Y-33415D01*
X15689Y-33542D01*
X15854Y-33611D01*
X16033Y-33611D01*
X16199Y-33543D01*
X16310Y-33432D01*
X16310Y-33890D01*
X16200Y-33780D01*
X16034Y-33711D01*
X15855Y-33711D01*
X15690Y-33779D01*
X15563Y-33906D01*
X15494Y-34071D01*
X15494Y-34250D01*
X15563Y-34415D01*
X15689Y-34542D01*
X15854Y-34611D01*
X16033Y-34611D01*
X16199Y-34543D01*
X16310Y-34432D01*
X16310Y-34890D01*
X16200Y-34780D01*
X16034Y-34711D01*
X15855Y-34711D01*
X15690Y-34779D01*
X15563Y-34906D01*
X15494Y-35071D01*
X15494Y-35250D01*
X15563Y-35415D01*
X15689Y-35542D01*
X15854Y-35611D01*
X16033Y-35611D01*
X16199Y-35543D01*
X16310Y-35432D01*
X16310Y-35610D01*
X16098Y-35822D01*
X16024Y-35932D01*
X15998Y-36062D01*
X15998Y-37480D01*
X15998Y-38818D01*
X16011Y-38886D01*
X15990Y-38938D01*
X15990Y-39170D01*
X16078Y-39385D01*
X16243Y-39550D01*
X16457Y-39639D01*
X16690Y-39639D01*
X16905Y-39551D01*
X17070Y-39386D01*
X17159Y-39171D01*
X17159Y-38939D01*
X17070Y-38724D01*
X16906Y-38559D01*
X16691Y-38470D01*
X16678Y-38470D01*
X16678Y-37733D01*
X16812Y-37789D01*
X17044Y-37789D01*
X17259Y-37700D01*
X17424Y-37536D01*
X17513Y-37321D01*
X17513Y-37218D01*
X17560Y-37238D01*
X17792Y-37238D01*
X18007Y-37149D01*
X18172Y-36985D01*
X18261Y-36770D01*
X18261Y-36765D01*
X18290Y-36794D01*
X18505Y-36883D01*
X18737Y-36883D01*
X18952Y-36795D01*
X19117Y-36630D01*
X19206Y-36416D01*
X19206Y-36183D01*
X19117Y-35968D01*
X18953Y-35803D01*
X18738Y-35714D01*
X18532Y-35714D01*
X18332Y-35514D01*
X18332Y-35182D01*
X18447Y-35298D01*
X18662Y-35387D01*
X18895Y-35387D01*
X19110Y-35299D01*
X19274Y-35134D01*
X19364Y-34919D01*
X19364Y-34687D01*
X19275Y-34472D01*
X19111Y-34307D01*
X19007Y-34264D01*
X19215Y-34264D01*
X19430Y-34175D01*
X19595Y-34011D01*
X19632Y-33921D01*
X19661Y-33992D01*
X19825Y-34156D01*
X20040Y-34245D01*
X20273Y-34246D01*
X20488Y-34157D01*
X20610Y-34035D01*
X20731Y-34156D01*
X20946Y-34245D01*
X21178Y-34246D01*
X21231Y-34224D01*
X21187Y-34332D01*
X21186Y-34564D01*
X21275Y-34779D01*
X21440Y-34944D01*
X21654Y-35033D01*
X21887Y-35033D01*
X22003Y-34985D01*
X22047Y-34985D01*
X22894Y-34985D01*
X23120Y-35210D01*
X23120Y-35400D01*
X23120Y-35684D01*
X22976Y-35625D01*
X22744Y-35625D01*
X22529Y-35714D01*
X22364Y-35878D01*
X22275Y-36093D01*
X22275Y-36325D01*
X22364Y-36540D01*
X22528Y-36705D01*
X22743Y-36794D01*
X22963Y-36794D01*
X22979Y-36810D01*
X22979Y-36810D01*
X23053Y-36859D01*
X23089Y-36884D01*
X23089Y-36884D01*
X23200Y-36906D01*
X23200Y-39759D01*
X22157Y-40801D01*
X21496Y-40801D01*
X20433Y-40801D01*
X20302Y-40827D01*
X20266Y-40852D01*
X20192Y-40901D01*
X19641Y-41452D01*
X19567Y-41562D01*
X19541Y-41692D01*
X19541Y-42151D01*
X19386Y-42306D01*
X19297Y-42520D01*
X19297Y-42753D01*
X19385Y-42968D01*
X19550Y-43133D01*
X19765Y-43222D01*
X19997Y-43222D01*
X20212Y-43133D01*
X20377Y-42969D01*
X20466Y-42754D01*
X20466Y-42522D01*
X20377Y-42307D01*
X20221Y-42150D01*
X20221Y-41833D01*
X20573Y-41481D01*
X21496Y-41481D01*
X22298Y-41481D01*
X22298Y-41481D01*
X22428Y-41455D01*
X22538Y-41382D01*
X23780Y-40140D01*
X23780Y-40140D01*
X23829Y-40066D01*
X23854Y-40030D01*
X23854Y-40030D01*
X23879Y-39900D01*
X23880Y-39900D01*
X23880Y-36600D01*
X25399Y-36600D01*
X25360Y-36694D01*
X25360Y-36846D01*
X25195Y-36777D01*
X24962Y-36777D01*
X24747Y-36866D01*
X24583Y-37030D01*
X24494Y-37245D01*
X24493Y-37477D01*
X24582Y-37692D01*
X24747Y-37857D01*
X24856Y-37903D01*
X24856Y-38956D01*
X24882Y-39086D01*
X24956Y-39197D01*
X25279Y-39520D01*
X25279Y-39520D01*
X25353Y-39569D01*
X25389Y-39594D01*
X25389Y-39594D01*
X25520Y-39620D01*
X26369Y-39620D01*
X26580Y-39830D01*
X26580Y-43302D01*
X26580Y-43302D01*
G37*
G54D22*
X26580Y-43302D02*
X26508Y-43272D01*
X26508Y-40655D01*
X26446Y-40504D01*
X26330Y-40388D01*
X26180Y-40326D01*
X26017Y-40326D01*
X25866Y-40388D01*
X25751Y-40503D01*
X25688Y-40654D01*
X25688Y-40817D01*
X25750Y-40968D01*
X25865Y-41083D01*
X26016Y-41146D01*
X26179Y-41146D01*
X26330Y-41084D01*
X26445Y-40968D01*
X26508Y-40818D01*
X26508Y-40655D01*
X26508Y-43272D01*
X26416Y-43234D01*
X26183Y-43234D01*
X25968Y-43322D01*
X25812Y-43478D01*
X25556Y-43478D01*
X25556Y-42745D01*
X25488Y-42580D01*
X25361Y-42453D01*
X25196Y-42384D01*
X25017Y-42384D01*
X24851Y-42452D01*
X24725Y-42579D01*
X24656Y-42744D01*
X24656Y-42923D01*
X24724Y-43089D01*
X24851Y-43215D01*
X25016Y-43284D01*
X25195Y-43284D01*
X25360Y-43216D01*
X25487Y-43089D01*
X25556Y-42924D01*
X25556Y-42745D01*
X25556Y-43478D01*
X24556Y-43478D01*
X24556Y-42745D01*
X24508Y-42629D01*
X24508Y-40655D01*
X24446Y-40504D01*
X24330Y-40388D01*
X24180Y-40326D01*
X24017Y-40326D01*
X23866Y-40388D01*
X23751Y-40503D01*
X23688Y-40654D01*
X23688Y-40817D01*
X23750Y-40968D01*
X23865Y-41083D01*
X24016Y-41146D01*
X24179Y-41146D01*
X24330Y-41084D01*
X24445Y-40968D01*
X24508Y-40818D01*
X24508Y-40655D01*
X24508Y-42629D01*
X24488Y-42580D01*
X24361Y-42453D01*
X24196Y-42384D01*
X24017Y-42384D01*
X23851Y-42452D01*
X23725Y-42579D01*
X23656Y-42744D01*
X23656Y-42923D01*
X23724Y-43089D01*
X23851Y-43215D01*
X24016Y-43284D01*
X24195Y-43284D01*
X24360Y-43216D01*
X24487Y-43089D01*
X24556Y-42924D01*
X24556Y-42745D01*
X24556Y-43478D01*
X23351Y-43478D01*
X23351Y-42745D01*
X23283Y-42580D01*
X23156Y-42453D01*
X22991Y-42384D01*
X22812Y-42384D01*
X22647Y-42452D01*
X22520Y-42579D01*
X22451Y-42744D01*
X22451Y-42923D01*
X22519Y-43089D01*
X22646Y-43215D01*
X22811Y-43284D01*
X22990Y-43284D01*
X23156Y-43216D01*
X23282Y-43089D01*
X23351Y-42924D01*
X23351Y-42745D01*
X23351Y-43478D01*
X22351Y-43478D01*
X22351Y-42745D01*
X22283Y-42580D01*
X22156Y-42453D01*
X21991Y-42384D01*
X21812Y-42384D01*
X21647Y-42452D01*
X21520Y-42579D01*
X21451Y-42744D01*
X21451Y-42923D01*
X21519Y-43089D01*
X21646Y-43215D01*
X21811Y-43284D01*
X21990Y-43284D01*
X22156Y-43216D01*
X22282Y-43089D01*
X22351Y-42924D01*
X22351Y-42745D01*
X22351Y-43478D01*
X19038Y-43478D01*
X19001Y-43441D01*
X19001Y-41825D01*
X19156Y-41670D01*
X19245Y-41455D01*
X19246Y-41222D01*
X19157Y-41007D01*
X19117Y-40967D01*
X19307Y-40889D01*
X19471Y-40725D01*
X19560Y-40510D01*
X19561Y-40277D01*
X19472Y-40062D01*
X19307Y-39898D01*
X19093Y-39809D01*
X18872Y-39808D01*
X18833Y-39769D01*
X18722Y-39695D01*
X18592Y-39670D01*
X16820Y-39670D01*
X16711Y-39691D01*
X16689Y-39695D01*
X16579Y-39769D01*
X16209Y-40140D01*
X14370Y-40140D01*
X14370Y-40139D01*
X14438Y-39975D01*
X14439Y-39797D01*
X14439Y-36797D01*
X14439Y-35033D01*
X14439Y-32033D01*
X14371Y-31869D01*
X14245Y-31743D01*
X14081Y-31675D01*
X13903Y-31675D01*
X13739Y-31743D01*
X13613Y-31868D01*
X13545Y-32032D01*
X13545Y-32210D01*
X13613Y-32374D01*
X13738Y-32500D01*
X13902Y-32568D01*
X14080Y-32568D01*
X14244Y-32501D01*
X14370Y-32375D01*
X14438Y-32211D01*
X14439Y-32033D01*
X14439Y-35033D01*
X14371Y-34869D01*
X14245Y-34743D01*
X14081Y-34675D01*
X13903Y-34675D01*
X13739Y-34743D01*
X13613Y-34868D01*
X13545Y-35032D01*
X13545Y-35210D01*
X13613Y-35374D01*
X13738Y-35500D01*
X13902Y-35568D01*
X14080Y-35568D01*
X14244Y-35501D01*
X14370Y-35375D01*
X14438Y-35211D01*
X14439Y-35033D01*
X14439Y-36797D01*
X14371Y-36633D01*
X14245Y-36507D01*
X14081Y-36439D01*
X13903Y-36438D01*
X13739Y-36506D01*
X13613Y-36632D01*
X13545Y-36796D01*
X13545Y-36974D01*
X13613Y-37138D01*
X13738Y-37264D01*
X13902Y-37332D01*
X14080Y-37332D01*
X14244Y-37264D01*
X14370Y-37139D01*
X14438Y-36975D01*
X14439Y-36797D01*
X14439Y-39797D01*
X14371Y-39633D01*
X14245Y-39507D01*
X14081Y-39439D01*
X13903Y-39438D01*
X13739Y-39506D01*
X13613Y-39632D01*
X13545Y-39796D01*
X13545Y-39974D01*
X13613Y-40138D01*
X13696Y-40221D01*
X13669Y-40239D01*
X13079Y-40829D01*
X13005Y-40939D01*
X12980Y-41070D01*
X12980Y-45379D01*
X12675Y-45683D01*
X12652Y-45683D01*
X12496Y-45528D01*
X12439Y-45504D01*
X12439Y-44561D01*
X12439Y-41561D01*
X12439Y-39797D01*
X12439Y-36797D01*
X12439Y-35033D01*
X12439Y-32033D01*
X12371Y-31869D01*
X12245Y-31743D01*
X12081Y-31675D01*
X11903Y-31675D01*
X11739Y-31743D01*
X11613Y-31868D01*
X11545Y-32032D01*
X11545Y-32210D01*
X11613Y-32374D01*
X11738Y-32500D01*
X11902Y-32568D01*
X12080Y-32568D01*
X12244Y-32501D01*
X12370Y-32375D01*
X12438Y-32211D01*
X12439Y-32033D01*
X12439Y-35033D01*
X12371Y-34869D01*
X12245Y-34743D01*
X12081Y-34675D01*
X11903Y-34675D01*
X11739Y-34743D01*
X11613Y-34868D01*
X11545Y-35032D01*
X11545Y-35210D01*
X11613Y-35374D01*
X11738Y-35500D01*
X11902Y-35568D01*
X12080Y-35568D01*
X12244Y-35501D01*
X12370Y-35375D01*
X12438Y-35211D01*
X12439Y-35033D01*
X12439Y-36797D01*
X12371Y-36633D01*
X12245Y-36507D01*
X12081Y-36439D01*
X11903Y-36438D01*
X11739Y-36506D01*
X11613Y-36632D01*
X11545Y-36796D01*
X11545Y-36974D01*
X11613Y-37138D01*
X11738Y-37264D01*
X11902Y-37332D01*
X12080Y-37332D01*
X12244Y-37264D01*
X12370Y-37139D01*
X12438Y-36975D01*
X12439Y-36797D01*
X12439Y-39797D01*
X12371Y-39633D01*
X12245Y-39507D01*
X12081Y-39439D01*
X11903Y-39438D01*
X11739Y-39506D01*
X11613Y-39632D01*
X11545Y-39796D01*
X11545Y-39974D01*
X11613Y-40138D01*
X11738Y-40264D01*
X11902Y-40332D01*
X12080Y-40332D01*
X12244Y-40264D01*
X12370Y-40139D01*
X12438Y-39975D01*
X12439Y-39797D01*
X12439Y-41561D01*
X12371Y-41396D01*
X12245Y-41271D01*
X12081Y-41202D01*
X11903Y-41202D01*
X11739Y-41270D01*
X11613Y-41396D01*
X11545Y-41560D01*
X11545Y-41738D01*
X11613Y-41902D01*
X11738Y-42028D01*
X11902Y-42096D01*
X12080Y-42096D01*
X12244Y-42028D01*
X12370Y-41903D01*
X12438Y-41738D01*
X12439Y-41561D01*
X12439Y-44561D01*
X12371Y-44396D01*
X12245Y-44271D01*
X12081Y-44202D01*
X11903Y-44202D01*
X11739Y-44270D01*
X11613Y-44396D01*
X11545Y-44560D01*
X11545Y-44738D01*
X11613Y-44902D01*
X11738Y-45028D01*
X11902Y-45096D01*
X12080Y-45096D01*
X12244Y-45028D01*
X12370Y-44903D01*
X12438Y-44738D01*
X12439Y-44561D01*
X12439Y-45504D01*
X12282Y-45439D01*
X12049Y-45438D01*
X11834Y-45527D01*
X11670Y-45692D01*
X11580Y-45906D01*
X11580Y-46139D01*
X11669Y-46354D01*
X11833Y-46518D01*
X12048Y-46608D01*
X12281Y-46608D01*
X12496Y-46519D01*
X12652Y-46363D01*
X12816Y-46363D01*
X12816Y-46363D01*
X12946Y-46337D01*
X13056Y-46264D01*
X13450Y-45870D01*
X13450Y-47523D01*
X16470Y-47523D01*
X16470Y-45663D01*
X13625Y-45663D01*
X13634Y-45650D01*
X13634Y-45650D01*
X13659Y-45520D01*
X13660Y-45520D01*
X13660Y-44949D01*
X13738Y-45028D01*
X13902Y-45096D01*
X14080Y-45096D01*
X14244Y-45028D01*
X14370Y-44903D01*
X14438Y-44738D01*
X14439Y-44561D01*
X14371Y-44396D01*
X14245Y-44271D01*
X14081Y-44202D01*
X13903Y-44202D01*
X13739Y-44270D01*
X13660Y-44349D01*
X13660Y-41949D01*
X13738Y-42028D01*
X13902Y-42096D01*
X14080Y-42096D01*
X14244Y-42028D01*
X14370Y-41903D01*
X14438Y-41738D01*
X14439Y-41561D01*
X14371Y-41396D01*
X14245Y-41271D01*
X14081Y-41202D01*
X13903Y-41202D01*
X13739Y-41270D01*
X13660Y-41349D01*
X13660Y-41210D01*
X14050Y-40820D01*
X16350Y-40820D01*
X16350Y-40819D01*
X16480Y-40794D01*
X16590Y-40720D01*
X16960Y-40350D01*
X17405Y-40350D01*
X17260Y-40495D01*
X17171Y-40709D01*
X17171Y-40942D01*
X17259Y-41157D01*
X17415Y-41313D01*
X17415Y-49855D01*
X17441Y-49986D01*
X17515Y-50096D01*
X17895Y-50476D01*
X17895Y-50476D01*
X18006Y-50550D01*
X18006Y-50550D01*
X18027Y-50554D01*
X18136Y-50576D01*
X19963Y-50576D01*
X20279Y-50893D01*
X20279Y-53670D01*
X20279Y-53750D01*
X20279Y-54173D01*
X20279Y-54879D01*
X20226Y-54879D01*
X20134Y-54917D01*
X20063Y-54988D01*
X20025Y-55079D01*
X20025Y-55179D01*
X20025Y-55966D01*
X20063Y-56058D01*
X20133Y-56129D01*
X20147Y-56134D01*
X20123Y-56158D01*
X20025Y-56395D01*
X20025Y-56651D01*
X20123Y-56887D01*
X20304Y-57069D01*
X20319Y-57075D01*
X20319Y-57478D01*
X20252Y-57505D01*
X20182Y-57575D01*
X20144Y-57667D01*
X20144Y-57767D01*
X20144Y-58117D01*
X20182Y-58209D01*
X20240Y-58267D01*
X20182Y-58325D01*
X20144Y-58417D01*
X20144Y-58517D01*
X20144Y-58867D01*
X20182Y-58959D01*
X20252Y-59029D01*
X20319Y-59057D01*
X20319Y-59915D01*
X20291Y-59926D01*
X20221Y-59996D01*
X20183Y-60088D01*
X20183Y-60187D01*
X20183Y-60659D01*
X20221Y-60751D01*
X20256Y-60787D01*
X20221Y-60822D01*
X20183Y-60914D01*
X20183Y-61013D01*
X20183Y-61485D01*
X20183Y-61486D01*
X19735Y-61486D01*
X19735Y-51131D01*
X10954Y-51131D01*
X10954Y-44019D01*
X11698Y-44019D01*
X11698Y-42159D01*
X10954Y-42159D01*
X10954Y-39255D01*
X11698Y-39255D01*
X11698Y-37395D01*
X10954Y-37395D01*
X10954Y-34492D01*
X11712Y-34492D01*
X11712Y-32632D01*
X10954Y-32632D01*
X10954Y-29925D01*
X11443Y-29925D01*
X11322Y-29975D01*
X11196Y-30100D01*
X11128Y-30265D01*
X11127Y-30442D01*
X11195Y-30607D01*
X11321Y-30732D01*
X11485Y-30801D01*
X11663Y-30801D01*
X11827Y-30733D01*
X11953Y-30607D01*
X12021Y-30443D01*
X12021Y-30265D01*
X11953Y-30101D01*
X11828Y-29975D01*
X11706Y-29925D01*
X12585Y-29925D01*
X12463Y-29975D01*
X12337Y-30100D01*
X12269Y-30265D01*
X12269Y-30442D01*
X12337Y-30607D01*
X12463Y-30732D01*
X12627Y-30801D01*
X12805Y-30801D01*
X12969Y-30733D01*
X13095Y-30607D01*
X13163Y-30443D01*
X13163Y-30265D01*
X13095Y-30101D01*
X12969Y-29975D01*
X12848Y-29925D01*
X13350Y-29925D01*
X13350Y-28065D01*
X11867Y-28065D01*
X11867Y-27091D01*
X11799Y-26926D01*
X11672Y-26799D01*
X11507Y-26731D01*
X11328Y-26731D01*
X11162Y-26799D01*
X11036Y-26925D01*
X10967Y-27091D01*
X10967Y-27270D01*
X11035Y-27435D01*
X11162Y-27562D01*
X11327Y-27631D01*
X11506Y-27631D01*
X11671Y-27562D01*
X11798Y-27436D01*
X11867Y-27271D01*
X11867Y-27091D01*
X11867Y-28065D01*
X10954Y-28065D01*
X10954Y-19813D01*
X18769Y-19813D01*
X18638Y-19943D01*
X18549Y-20158D01*
X18549Y-20391D01*
X18637Y-20606D01*
X18793Y-20762D01*
X18793Y-23573D01*
X18819Y-23703D01*
X18893Y-23814D01*
X19399Y-24320D01*
X19399Y-24320D01*
X19473Y-24369D01*
X19509Y-24394D01*
X19509Y-24394D01*
X19639Y-24419D01*
X19640Y-24420D01*
X21169Y-24420D01*
X21440Y-24690D01*
X21440Y-25220D01*
X21465Y-25350D01*
X21539Y-25460D01*
X21736Y-25657D01*
X21609Y-25783D01*
X21536Y-25893D01*
X21510Y-26023D01*
X21510Y-27221D01*
X20762Y-27969D01*
X20762Y-27328D01*
X20762Y-26934D01*
X20724Y-26843D01*
X20745Y-26799D01*
X20745Y-26562D01*
X20666Y-26400D01*
X20532Y-26287D01*
X20365Y-26234D01*
X20207Y-26234D01*
X20207Y-26631D01*
X20696Y-26631D01*
X20745Y-26562D01*
X20745Y-26799D01*
X20696Y-26731D01*
X20207Y-26731D01*
X20207Y-26734D01*
X20107Y-26734D01*
X20107Y-26731D01*
X20107Y-26631D01*
X20107Y-26234D01*
X19950Y-26234D01*
X19783Y-26287D01*
X19648Y-26400D01*
X19569Y-26562D01*
X19619Y-26631D01*
X20107Y-26631D01*
X20107Y-26731D01*
X19619Y-26731D01*
X19569Y-26799D01*
X19590Y-26843D01*
X19553Y-26934D01*
X19553Y-27033D01*
X19553Y-27427D01*
X19591Y-27519D01*
X19661Y-27589D01*
X19753Y-27628D01*
X19852Y-27628D01*
X20561Y-27628D01*
X20653Y-27590D01*
X20723Y-27519D01*
X20762Y-27428D01*
X20762Y-27328D01*
X20762Y-27969D01*
X20567Y-28163D01*
X19167Y-28163D01*
X19374Y-27956D01*
X19374Y-27956D01*
X19423Y-27883D01*
X19447Y-27846D01*
X19447Y-27846D01*
X19473Y-27716D01*
X19473Y-27716D01*
X19473Y-26039D01*
X19491Y-26021D01*
X19708Y-26021D01*
X19817Y-26094D01*
X19988Y-26128D01*
X20326Y-26128D01*
X20497Y-26094D01*
X20642Y-25997D01*
X20739Y-25852D01*
X20773Y-25681D01*
X20739Y-25510D01*
X20687Y-25431D01*
X20739Y-25352D01*
X20773Y-25181D01*
X20739Y-25010D01*
X20642Y-24865D01*
X20497Y-24768D01*
X20326Y-24734D01*
X19988Y-24734D01*
X19817Y-24768D01*
X19672Y-24865D01*
X19575Y-25010D01*
X19541Y-25181D01*
X19573Y-25341D01*
X19491Y-25341D01*
X19350Y-25199D01*
X19350Y-24730D01*
X19324Y-24599D01*
X19324Y-24599D01*
X19299Y-24563D01*
X19250Y-24489D01*
X19250Y-24489D01*
X18970Y-24209D01*
X18860Y-24135D01*
X18730Y-24110D01*
X18379Y-24110D01*
X18379Y-20186D01*
X18310Y-20021D01*
X18184Y-19894D01*
X18019Y-19825D01*
X17840Y-19825D01*
X17674Y-19893D01*
X17547Y-20020D01*
X17479Y-20185D01*
X17479Y-20364D01*
X17547Y-20530D01*
X17673Y-20656D01*
X17839Y-20725D01*
X18018Y-20725D01*
X18183Y-20657D01*
X18310Y-20530D01*
X18379Y-20365D01*
X18379Y-20186D01*
X18379Y-24110D01*
X17450Y-24110D01*
X17269Y-23928D01*
X17269Y-22218D01*
X17424Y-22063D01*
X17513Y-21849D01*
X17513Y-21616D01*
X17425Y-21401D01*
X17379Y-21355D01*
X17379Y-20186D01*
X17310Y-20021D01*
X17184Y-19894D01*
X17019Y-19825D01*
X16840Y-19825D01*
X16674Y-19893D01*
X16547Y-20020D01*
X16479Y-20185D01*
X16479Y-20364D01*
X16547Y-20530D01*
X16673Y-20656D01*
X16839Y-20725D01*
X17018Y-20725D01*
X17183Y-20657D01*
X17310Y-20530D01*
X17379Y-20365D01*
X17379Y-20186D01*
X17379Y-21355D01*
X17260Y-21236D01*
X17045Y-21147D01*
X16813Y-21147D01*
X16598Y-21236D01*
X16433Y-21400D01*
X16379Y-21532D01*
X16379Y-20186D01*
X16310Y-20021D01*
X16184Y-19894D01*
X16019Y-19825D01*
X15840Y-19825D01*
X15674Y-19893D01*
X15547Y-20020D01*
X15479Y-20185D01*
X15479Y-20364D01*
X15547Y-20530D01*
X15673Y-20656D01*
X15839Y-20725D01*
X16018Y-20725D01*
X16183Y-20657D01*
X16310Y-20530D01*
X16379Y-20365D01*
X16379Y-20186D01*
X16379Y-21532D01*
X16344Y-21615D01*
X16344Y-21848D01*
X16433Y-22063D01*
X16589Y-22219D01*
X16589Y-24069D01*
X16615Y-24199D01*
X16688Y-24309D01*
X17069Y-24690D01*
X17069Y-24690D01*
X17157Y-24749D01*
X17061Y-24768D01*
X16916Y-24865D01*
X16819Y-25010D01*
X16785Y-25181D01*
X16817Y-25341D01*
X16766Y-25341D01*
X16363Y-24937D01*
X16363Y-22733D01*
X16363Y-22733D01*
X16337Y-22603D01*
X16337Y-22603D01*
X16313Y-22566D01*
X16264Y-22493D01*
X16264Y-22493D01*
X16184Y-22413D01*
X16184Y-22194D01*
X16095Y-21979D01*
X15931Y-21814D01*
X15716Y-21725D01*
X15484Y-21725D01*
X15269Y-21814D01*
X15104Y-21978D01*
X15015Y-22193D01*
X15015Y-22425D01*
X15104Y-22640D01*
X15268Y-22805D01*
X15483Y-22894D01*
X15683Y-22894D01*
X15683Y-25078D01*
X15709Y-25208D01*
X15783Y-25319D01*
X16172Y-25708D01*
X16058Y-25822D01*
X15985Y-25932D01*
X15959Y-26062D01*
X15959Y-28228D01*
X15985Y-28358D01*
X16058Y-28468D01*
X16746Y-29156D01*
X16746Y-31244D01*
X16689Y-31205D01*
X16559Y-31180D01*
X16390Y-31180D01*
X16060Y-30849D01*
X16060Y-29910D01*
X16059Y-29909D01*
X16034Y-29779D01*
X16034Y-29779D01*
X16009Y-29743D01*
X15960Y-29669D01*
X15960Y-29669D01*
X15654Y-29364D01*
X15654Y-26350D01*
X15629Y-26220D01*
X15629Y-26220D01*
X15604Y-26183D01*
X15555Y-26109D01*
X15555Y-26109D01*
X15239Y-25793D01*
X15262Y-25681D01*
X15228Y-25510D01*
X15175Y-25431D01*
X15228Y-25352D01*
X15262Y-25181D01*
X15228Y-25010D01*
X15131Y-24865D01*
X14986Y-24768D01*
X14815Y-24734D01*
X14476Y-24734D01*
X14305Y-24768D01*
X14223Y-24823D01*
X14223Y-22316D01*
X14048Y-21892D01*
X14048Y-20186D01*
X13980Y-20021D01*
X13853Y-19894D01*
X13688Y-19825D01*
X13509Y-19825D01*
X13343Y-19893D01*
X13217Y-20020D01*
X13148Y-20185D01*
X13148Y-20364D01*
X13216Y-20530D01*
X13343Y-20656D01*
X13508Y-20725D01*
X13687Y-20725D01*
X13852Y-20657D01*
X13979Y-20530D01*
X14048Y-20365D01*
X14048Y-20186D01*
X14048Y-21892D01*
X13976Y-21718D01*
X13520Y-21261D01*
X13048Y-21065D01*
X13048Y-20186D01*
X12980Y-20021D01*
X12853Y-19894D01*
X12688Y-19825D01*
X12509Y-19825D01*
X12343Y-19893D01*
X12217Y-20020D01*
X12148Y-20185D01*
X12148Y-20364D01*
X12216Y-20530D01*
X12343Y-20656D01*
X12508Y-20725D01*
X12687Y-20725D01*
X12852Y-20657D01*
X12979Y-20530D01*
X13048Y-20365D01*
X13048Y-20186D01*
X13048Y-21065D01*
X12923Y-21013D01*
X12276Y-21012D01*
X12048Y-21106D01*
X12048Y-20186D01*
X11980Y-20021D01*
X11853Y-19894D01*
X11688Y-19825D01*
X11509Y-19825D01*
X11343Y-19893D01*
X11217Y-20020D01*
X11148Y-20185D01*
X11148Y-20364D01*
X11216Y-20530D01*
X11343Y-20656D01*
X11508Y-20725D01*
X11687Y-20725D01*
X11852Y-20657D01*
X11979Y-20530D01*
X12048Y-20365D01*
X12048Y-20186D01*
X12048Y-21106D01*
X11679Y-21259D01*
X11221Y-21716D01*
X10973Y-22313D01*
X10973Y-22959D01*
X11220Y-23556D01*
X11676Y-24014D01*
X12273Y-24262D01*
X12920Y-24262D01*
X13517Y-24016D01*
X13975Y-23559D01*
X14222Y-22962D01*
X14223Y-22316D01*
X14223Y-24823D01*
X14160Y-24865D01*
X14063Y-25010D01*
X14029Y-25181D01*
X14063Y-25352D01*
X14116Y-25431D01*
X14063Y-25510D01*
X14029Y-25681D01*
X14045Y-25762D01*
X12730Y-25762D01*
X12575Y-25607D01*
X12360Y-25517D01*
X12128Y-25517D01*
X11913Y-25606D01*
X11867Y-25652D01*
X11867Y-25091D01*
X11799Y-24926D01*
X11672Y-24799D01*
X11507Y-24731D01*
X11328Y-24731D01*
X11162Y-24799D01*
X11036Y-24925D01*
X10967Y-25091D01*
X10967Y-25270D01*
X11035Y-25435D01*
X11162Y-25562D01*
X11327Y-25631D01*
X11506Y-25631D01*
X11671Y-25562D01*
X11798Y-25436D01*
X11867Y-25271D01*
X11867Y-25091D01*
X11867Y-25652D01*
X11748Y-25770D01*
X11717Y-25845D01*
X11672Y-25799D01*
X11507Y-25731D01*
X11328Y-25731D01*
X11162Y-25799D01*
X11036Y-25925D01*
X10967Y-26091D01*
X10967Y-26270D01*
X11035Y-26435D01*
X11162Y-26562D01*
X11327Y-26631D01*
X11506Y-26631D01*
X11671Y-26562D01*
X11774Y-26459D01*
X11912Y-26597D01*
X12127Y-26686D01*
X12359Y-26687D01*
X12574Y-26598D01*
X12731Y-26442D01*
X14116Y-26442D01*
X14057Y-26562D01*
X14107Y-26631D01*
X14595Y-26631D01*
X14595Y-26234D01*
X14573Y-26234D01*
X14645Y-26161D01*
X14718Y-26234D01*
X14695Y-26234D01*
X14695Y-26631D01*
X14703Y-26631D01*
X14703Y-26731D01*
X14695Y-26731D01*
X14695Y-26734D01*
X14595Y-26734D01*
X14595Y-26731D01*
X14107Y-26731D01*
X14057Y-26799D01*
X14079Y-26843D01*
X14041Y-26934D01*
X14041Y-27033D01*
X14041Y-27427D01*
X14079Y-27519D01*
X14149Y-27589D01*
X14241Y-27628D01*
X14341Y-27628D01*
X14974Y-27628D01*
X14974Y-28065D01*
X13556Y-28065D01*
X13556Y-29925D01*
X13726Y-29925D01*
X13605Y-29975D01*
X13479Y-30100D01*
X13411Y-30265D01*
X13411Y-30442D01*
X13479Y-30607D01*
X13604Y-30732D01*
X13768Y-30801D01*
X13946Y-30801D01*
X14111Y-30733D01*
X14236Y-30607D01*
X14305Y-30443D01*
X14305Y-30265D01*
X14237Y-30101D01*
X14111Y-29975D01*
X13989Y-29925D01*
X14868Y-29925D01*
X14747Y-29975D01*
X14621Y-30100D01*
X14553Y-30265D01*
X14553Y-30442D01*
X14620Y-30607D01*
X14746Y-30732D01*
X14910Y-30801D01*
X15088Y-30801D01*
X15252Y-30733D01*
X15378Y-30607D01*
X15380Y-30604D01*
X15380Y-30990D01*
X15405Y-31120D01*
X15479Y-31230D01*
X15960Y-31711D01*
X15855Y-31711D01*
X15690Y-31779D01*
X15563Y-31906D01*
X15494Y-32071D01*
X15494Y-32250D01*
X15563Y-32415D01*
X15689Y-32542D01*
X15854Y-32611D01*
X16033Y-32611D01*
X16199Y-32543D01*
X16310Y-32432D01*
X16310Y-32890D01*
X16200Y-32780D01*
X16034Y-32711D01*
X15855Y-32711D01*
X15690Y-32779D01*
X15563Y-32906D01*
X15494Y-33071D01*
X15494Y-33250D01*
X15563Y-33415D01*
X15689Y-33542D01*
X15854Y-33611D01*
X16033Y-33611D01*
X16199Y-33543D01*
X16310Y-33432D01*
X16310Y-33890D01*
X16200Y-33780D01*
X16034Y-33711D01*
X15855Y-33711D01*
X15690Y-33779D01*
X15563Y-33906D01*
X15494Y-34071D01*
X15494Y-34250D01*
X15563Y-34415D01*
X15689Y-34542D01*
X15854Y-34611D01*
X16033Y-34611D01*
X16199Y-34543D01*
X16310Y-34432D01*
X16310Y-34890D01*
X16200Y-34780D01*
X16034Y-34711D01*
X15855Y-34711D01*
X15690Y-34779D01*
X15563Y-34906D01*
X15494Y-35071D01*
X15494Y-35250D01*
X15563Y-35415D01*
X15689Y-35542D01*
X15854Y-35611D01*
X16033Y-35611D01*
X16199Y-35543D01*
X16310Y-35432D01*
X16310Y-35610D01*
X16098Y-35822D01*
X16024Y-35932D01*
X15998Y-36062D01*
X15998Y-37480D01*
X15998Y-38818D01*
X16011Y-38886D01*
X15990Y-38938D01*
X15990Y-39170D01*
X16078Y-39385D01*
X16243Y-39550D01*
X16457Y-39639D01*
X16690Y-39639D01*
X16905Y-39551D01*
X17070Y-39386D01*
X17159Y-39171D01*
X17159Y-38939D01*
X17070Y-38724D01*
X16906Y-38559D01*
X16691Y-38470D01*
X16678Y-38470D01*
X16678Y-37733D01*
X16812Y-37789D01*
X17044Y-37789D01*
X17259Y-37700D01*
X17424Y-37536D01*
X17513Y-37321D01*
X17513Y-37218D01*
X17560Y-37238D01*
X17792Y-37238D01*
X18007Y-37149D01*
X18172Y-36985D01*
X18261Y-36770D01*
X18261Y-36765D01*
X18290Y-36794D01*
X18505Y-36883D01*
X18737Y-36883D01*
X18952Y-36795D01*
X19117Y-36630D01*
X19206Y-36416D01*
X19206Y-36183D01*
X19117Y-35968D01*
X18953Y-35803D01*
X18738Y-35714D01*
X18532Y-35714D01*
X18332Y-35514D01*
X18332Y-35182D01*
X18447Y-35298D01*
X18662Y-35387D01*
X18895Y-35387D01*
X19110Y-35299D01*
X19274Y-35134D01*
X19364Y-34919D01*
X19364Y-34687D01*
X19275Y-34472D01*
X19111Y-34307D01*
X19007Y-34264D01*
X19215Y-34264D01*
X19430Y-34175D01*
X19595Y-34011D01*
X19632Y-33921D01*
X19661Y-33992D01*
X19825Y-34156D01*
X20040Y-34245D01*
X20273Y-34246D01*
X20488Y-34157D01*
X20610Y-34035D01*
X20731Y-34156D01*
X20946Y-34245D01*
X21178Y-34246D01*
X21231Y-34224D01*
X21187Y-34332D01*
X21186Y-34564D01*
X21275Y-34779D01*
X21440Y-34944D01*
X21654Y-35033D01*
X21887Y-35033D01*
X22003Y-34985D01*
X22047Y-34985D01*
X22894Y-34985D01*
X23120Y-35210D01*
X23120Y-35400D01*
X23120Y-35684D01*
X22976Y-35625D01*
X22744Y-35625D01*
X22529Y-35714D01*
X22364Y-35878D01*
X22275Y-36093D01*
X22275Y-36325D01*
X22364Y-36540D01*
X22528Y-36705D01*
X22743Y-36794D01*
X22963Y-36794D01*
X22979Y-36810D01*
X22979Y-36810D01*
X23053Y-36859D01*
X23089Y-36884D01*
X23089Y-36884D01*
X23200Y-36906D01*
X23200Y-39759D01*
X22157Y-40801D01*
X21496Y-40801D01*
X20433Y-40801D01*
X20302Y-40827D01*
X20266Y-40852D01*
X20192Y-40901D01*
X19641Y-41452D01*
X19567Y-41562D01*
X19541Y-41692D01*
X19541Y-42151D01*
X19386Y-42306D01*
X19297Y-42520D01*
X19297Y-42753D01*
X19385Y-42968D01*
X19550Y-43133D01*
X19765Y-43222D01*
X19997Y-43222D01*
X20212Y-43133D01*
X20377Y-42969D01*
X20466Y-42754D01*
X20466Y-42522D01*
X20377Y-42307D01*
X20221Y-42150D01*
X20221Y-41833D01*
X20573Y-41481D01*
X21496Y-41481D01*
X22298Y-41481D01*
X22298Y-41481D01*
X22428Y-41455D01*
X22538Y-41382D01*
X23780Y-40140D01*
X23780Y-40140D01*
X23829Y-40066D01*
X23854Y-40030D01*
X23854Y-40030D01*
X23879Y-39900D01*
X23880Y-39900D01*
X23880Y-36600D01*
X25399Y-36600D01*
X25360Y-36694D01*
X25360Y-36846D01*
X25195Y-36777D01*
X24962Y-36777D01*
X24747Y-36866D01*
X24583Y-37030D01*
X24494Y-37245D01*
X24493Y-37477D01*
X24582Y-37692D01*
X24747Y-37857D01*
X24856Y-37903D01*
X24856Y-38956D01*
X24882Y-39086D01*
X24956Y-39197D01*
X25279Y-39520D01*
X25279Y-39520D01*
X25353Y-39569D01*
X25389Y-39594D01*
X25389Y-39594D01*
X25520Y-39620D01*
X26369Y-39620D01*
X26580Y-39830D01*
X26580Y-43302D01*
G54D10*
G36*
X27352Y-19813D02*
X27221Y-19943D01*
X27131Y-20158D01*
X27131Y-20391D01*
X27153Y-20444D01*
X27140Y-20511D01*
X27140Y-25260D01*
X27156Y-25341D01*
X27040Y-25341D01*
X27040Y-20186D01*
X26972Y-20021D01*
X26845Y-19894D01*
X26680Y-19825D01*
X26501Y-19825D01*
X26335Y-19893D01*
X26209Y-20020D01*
X26140Y-20185D01*
X26140Y-20364D01*
X26208Y-20530D01*
X26335Y-20656D01*
X26500Y-20725D01*
X26679Y-20725D01*
X26845Y-20657D01*
X26971Y-20530D01*
X27040Y-20365D01*
X27040Y-20186D01*
X27040Y-25341D01*
X27028Y-25341D01*
X26898Y-25366D01*
X26862Y-25391D01*
X26788Y-25440D01*
X26239Y-25989D01*
X26165Y-26099D01*
X26140Y-26230D01*
X26140Y-26368D01*
X26044Y-26287D01*
X25876Y-26234D01*
X25719Y-26234D01*
X25719Y-26631D01*
X25727Y-26631D01*
X25727Y-26731D01*
X25719Y-26731D01*
X25719Y-26734D01*
X25619Y-26734D01*
X25619Y-26731D01*
X25619Y-26631D01*
X25619Y-26234D01*
X25462Y-26234D01*
X25294Y-26287D01*
X25160Y-26400D01*
X25081Y-26562D01*
X25130Y-26631D01*
X25619Y-26631D01*
X25619Y-26731D01*
X25130Y-26731D01*
X25081Y-26799D01*
X25102Y-26843D01*
X25065Y-26934D01*
X25065Y-27033D01*
X25065Y-27427D01*
X25103Y-27519D01*
X25173Y-27589D01*
X25265Y-27628D01*
X25364Y-27628D01*
X26073Y-27628D01*
X26140Y-27600D01*
X26140Y-30839D01*
X25679Y-31300D01*
X23866Y-31300D01*
X24344Y-31102D01*
X24801Y-30645D01*
X25049Y-30049D01*
X25050Y-29402D01*
X24803Y-28805D01*
X24346Y-28347D01*
X23750Y-28100D01*
X24380Y-28100D01*
X24380Y-28099D01*
X24510Y-28074D01*
X24620Y-28000D01*
X24960Y-27660D01*
X24960Y-27660D01*
X25009Y-27586D01*
X25034Y-27550D01*
X25034Y-27550D01*
X25059Y-27420D01*
X25060Y-27420D01*
X25060Y-26273D01*
X25275Y-26057D01*
X25329Y-26094D01*
X25500Y-26128D01*
X25838Y-26128D01*
X26009Y-26094D01*
X26154Y-25997D01*
X26251Y-25852D01*
X26285Y-25681D01*
X26251Y-25510D01*
X26198Y-25431D01*
X26251Y-25352D01*
X26285Y-25181D01*
X26251Y-25010D01*
X26154Y-24865D01*
X26040Y-24788D01*
X26040Y-20186D01*
X25972Y-20021D01*
X25845Y-19894D01*
X25680Y-19825D01*
X25501Y-19825D01*
X25335Y-19893D01*
X25209Y-20020D01*
X25140Y-20185D01*
X25140Y-20364D01*
X25208Y-20530D01*
X25335Y-20656D01*
X25500Y-20725D01*
X25679Y-20725D01*
X25845Y-20657D01*
X25971Y-20530D01*
X26040Y-20365D01*
X26040Y-20186D01*
X26040Y-24788D01*
X26009Y-24768D01*
X25838Y-24734D01*
X25500Y-24734D01*
X25329Y-24768D01*
X25184Y-24865D01*
X25150Y-24916D01*
X25150Y-24880D01*
X25124Y-24749D01*
X25124Y-24749D01*
X25099Y-24713D01*
X25050Y-24639D01*
X25050Y-24639D01*
X25040Y-24629D01*
X25040Y-20186D01*
X24972Y-20021D01*
X24845Y-19894D01*
X24680Y-19825D01*
X24501Y-19825D01*
X24335Y-19893D01*
X24209Y-20020D01*
X24140Y-20185D01*
X24140Y-20364D01*
X24208Y-20530D01*
X24335Y-20656D01*
X24500Y-20725D01*
X24679Y-20725D01*
X24845Y-20657D01*
X24971Y-20530D01*
X25040Y-20365D01*
X25040Y-20186D01*
X25040Y-24629D01*
X24800Y-24389D01*
X24690Y-24315D01*
X24560Y-24290D01*
X24000Y-24290D01*
X23765Y-24054D01*
X23765Y-20762D01*
X23920Y-20607D01*
X24009Y-20392D01*
X24009Y-20159D01*
X23921Y-19944D01*
X23789Y-19813D01*
X27352Y-19813D01*
X27352Y-19813D01*
G37*
G54D22*
X27352Y-19813D02*
X27221Y-19943D01*
X27131Y-20158D01*
X27131Y-20391D01*
X27153Y-20444D01*
X27140Y-20511D01*
X27140Y-25260D01*
X27156Y-25341D01*
X27040Y-25341D01*
X27040Y-20186D01*
X26972Y-20021D01*
X26845Y-19894D01*
X26680Y-19825D01*
X26501Y-19825D01*
X26335Y-19893D01*
X26209Y-20020D01*
X26140Y-20185D01*
X26140Y-20364D01*
X26208Y-20530D01*
X26335Y-20656D01*
X26500Y-20725D01*
X26679Y-20725D01*
X26845Y-20657D01*
X26971Y-20530D01*
X27040Y-20365D01*
X27040Y-20186D01*
X27040Y-25341D01*
X27028Y-25341D01*
X26898Y-25366D01*
X26862Y-25391D01*
X26788Y-25440D01*
X26239Y-25989D01*
X26165Y-26099D01*
X26140Y-26230D01*
X26140Y-26368D01*
X26044Y-26287D01*
X25876Y-26234D01*
X25719Y-26234D01*
X25719Y-26631D01*
X25727Y-26631D01*
X25727Y-26731D01*
X25719Y-26731D01*
X25719Y-26734D01*
X25619Y-26734D01*
X25619Y-26731D01*
X25619Y-26631D01*
X25619Y-26234D01*
X25462Y-26234D01*
X25294Y-26287D01*
X25160Y-26400D01*
X25081Y-26562D01*
X25130Y-26631D01*
X25619Y-26631D01*
X25619Y-26731D01*
X25130Y-26731D01*
X25081Y-26799D01*
X25102Y-26843D01*
X25065Y-26934D01*
X25065Y-27033D01*
X25065Y-27427D01*
X25103Y-27519D01*
X25173Y-27589D01*
X25265Y-27628D01*
X25364Y-27628D01*
X26073Y-27628D01*
X26140Y-27600D01*
X26140Y-30839D01*
X25679Y-31300D01*
X23866Y-31300D01*
X24344Y-31102D01*
X24801Y-30645D01*
X25049Y-30049D01*
X25050Y-29402D01*
X24803Y-28805D01*
X24346Y-28347D01*
X23750Y-28100D01*
X24380Y-28100D01*
X24380Y-28099D01*
X24510Y-28074D01*
X24620Y-28000D01*
X24960Y-27660D01*
X24960Y-27660D01*
X25009Y-27586D01*
X25034Y-27550D01*
X25034Y-27550D01*
X25059Y-27420D01*
X25060Y-27420D01*
X25060Y-26273D01*
X25275Y-26057D01*
X25329Y-26094D01*
X25500Y-26128D01*
X25838Y-26128D01*
X26009Y-26094D01*
X26154Y-25997D01*
X26251Y-25852D01*
X26285Y-25681D01*
X26251Y-25510D01*
X26198Y-25431D01*
X26251Y-25352D01*
X26285Y-25181D01*
X26251Y-25010D01*
X26154Y-24865D01*
X26040Y-24788D01*
X26040Y-20186D01*
X25972Y-20021D01*
X25845Y-19894D01*
X25680Y-19825D01*
X25501Y-19825D01*
X25335Y-19893D01*
X25209Y-20020D01*
X25140Y-20185D01*
X25140Y-20364D01*
X25208Y-20530D01*
X25335Y-20656D01*
X25500Y-20725D01*
X25679Y-20725D01*
X25845Y-20657D01*
X25971Y-20530D01*
X26040Y-20365D01*
X26040Y-20186D01*
X26040Y-24788D01*
X26009Y-24768D01*
X25838Y-24734D01*
X25500Y-24734D01*
X25329Y-24768D01*
X25184Y-24865D01*
X25150Y-24916D01*
X25150Y-24880D01*
X25124Y-24749D01*
X25124Y-24749D01*
X25099Y-24713D01*
X25050Y-24639D01*
X25050Y-24639D01*
X25040Y-24629D01*
X25040Y-20186D01*
X24972Y-20021D01*
X24845Y-19894D01*
X24680Y-19825D01*
X24501Y-19825D01*
X24335Y-19893D01*
X24209Y-20020D01*
X24140Y-20185D01*
X24140Y-20364D01*
X24208Y-20530D01*
X24335Y-20656D01*
X24500Y-20725D01*
X24679Y-20725D01*
X24845Y-20657D01*
X24971Y-20530D01*
X25040Y-20365D01*
X25040Y-20186D01*
X25040Y-24629D01*
X24800Y-24389D01*
X24690Y-24315D01*
X24560Y-24290D01*
X24000Y-24290D01*
X23765Y-24054D01*
X23765Y-20762D01*
X23920Y-20607D01*
X24009Y-20392D01*
X24009Y-20159D01*
X23921Y-19944D01*
X23789Y-19813D01*
X27352Y-19813D01*
G54D10*
G36*
X31809Y-19813D02*
X31795Y-19819D01*
X31630Y-19983D01*
X31541Y-20198D01*
X31541Y-20430D01*
X31630Y-20645D01*
X31785Y-20801D01*
X31785Y-25123D01*
X31763Y-25010D01*
X31666Y-24865D01*
X31521Y-24768D01*
X31371Y-24738D01*
X31371Y-20186D01*
X31302Y-20021D01*
X31176Y-19894D01*
X31011Y-19825D01*
X30832Y-19825D01*
X30666Y-19893D01*
X30539Y-20020D01*
X30471Y-20185D01*
X30471Y-20364D01*
X30539Y-20530D01*
X30666Y-20656D01*
X30831Y-20725D01*
X31010Y-20725D01*
X31175Y-20657D01*
X31302Y-20530D01*
X31371Y-20365D01*
X31371Y-20186D01*
X31371Y-24738D01*
X31350Y-24734D01*
X31012Y-24734D01*
X30841Y-24768D01*
X30696Y-24865D01*
X30599Y-25010D01*
X30565Y-25181D01*
X30597Y-25341D01*
X30558Y-25341D01*
X30450Y-25362D01*
X30428Y-25366D01*
X30371Y-25405D01*
X30371Y-20186D01*
X30302Y-20021D01*
X30176Y-19894D01*
X30011Y-19825D01*
X29832Y-19825D01*
X29666Y-19893D01*
X29539Y-20020D01*
X29471Y-20185D01*
X29471Y-20364D01*
X29539Y-20530D01*
X29666Y-20656D01*
X29831Y-20725D01*
X30010Y-20725D01*
X30175Y-20657D01*
X30302Y-20530D01*
X30371Y-20365D01*
X30371Y-20186D01*
X30371Y-25405D01*
X30318Y-25440D01*
X29929Y-25829D01*
X29855Y-25939D01*
X29830Y-26070D01*
X29830Y-27489D01*
X29679Y-27640D01*
X29371Y-27640D01*
X29371Y-20186D01*
X29302Y-20021D01*
X29176Y-19894D01*
X29011Y-19825D01*
X28832Y-19825D01*
X28666Y-19893D01*
X28539Y-20020D01*
X28471Y-20185D01*
X28471Y-20364D01*
X28539Y-20530D01*
X28666Y-20656D01*
X28831Y-20725D01*
X29010Y-20725D01*
X29175Y-20657D01*
X29302Y-20530D01*
X29371Y-20365D01*
X29371Y-20186D01*
X29371Y-27640D01*
X29029Y-27640D01*
X29029Y-27328D01*
X29029Y-26934D01*
X28992Y-26843D01*
X29013Y-26799D01*
X29013Y-26562D01*
X28934Y-26400D01*
X28800Y-26287D01*
X28632Y-26234D01*
X28475Y-26234D01*
X28475Y-26631D01*
X28964Y-26631D01*
X29013Y-26562D01*
X29013Y-26799D01*
X28964Y-26731D01*
X28475Y-26731D01*
X28475Y-26734D01*
X28375Y-26734D01*
X28375Y-26731D01*
X28375Y-26631D01*
X28375Y-26234D01*
X28218Y-26234D01*
X28050Y-26287D01*
X27916Y-26400D01*
X27837Y-26562D01*
X27886Y-26631D01*
X28375Y-26631D01*
X28375Y-26731D01*
X27886Y-26731D01*
X27837Y-26799D01*
X27858Y-26843D01*
X27821Y-26934D01*
X27821Y-27033D01*
X27821Y-27427D01*
X27859Y-27519D01*
X27929Y-27589D01*
X28021Y-27628D01*
X28120Y-27628D01*
X28829Y-27628D01*
X28921Y-27590D01*
X28991Y-27519D01*
X29029Y-27428D01*
X29029Y-27328D01*
X29029Y-27640D01*
X27650Y-27640D01*
X27519Y-27665D01*
X27409Y-27739D01*
X26999Y-28149D01*
X26925Y-28259D01*
X26900Y-28390D01*
X26900Y-30859D01*
X26820Y-30939D01*
X26820Y-26370D01*
X27169Y-26021D01*
X27901Y-26021D01*
X27976Y-26021D01*
X28085Y-26094D01*
X28256Y-26128D01*
X28594Y-26128D01*
X28765Y-26094D01*
X28910Y-25997D01*
X29007Y-25852D01*
X29041Y-25681D01*
X29007Y-25510D01*
X28954Y-25431D01*
X29007Y-25352D01*
X29041Y-25181D01*
X29007Y-25010D01*
X28910Y-24865D01*
X28765Y-24768D01*
X28594Y-24734D01*
X28256Y-24734D01*
X28085Y-24768D01*
X27940Y-24865D01*
X27843Y-25010D01*
X27821Y-25120D01*
X27820Y-25119D01*
X27820Y-20860D01*
X27832Y-20860D01*
X28047Y-20771D01*
X28211Y-20607D01*
X28301Y-20392D01*
X28301Y-20159D01*
X28212Y-19944D01*
X28081Y-19813D01*
X31809Y-19813D01*
X31809Y-19813D01*
G37*
G54D22*
X31809Y-19813D02*
X31795Y-19819D01*
X31630Y-19983D01*
X31541Y-20198D01*
X31541Y-20430D01*
X31630Y-20645D01*
X31785Y-20801D01*
X31785Y-25123D01*
X31763Y-25010D01*
X31666Y-24865D01*
X31521Y-24768D01*
X31371Y-24738D01*
X31371Y-20186D01*
X31302Y-20021D01*
X31176Y-19894D01*
X31011Y-19825D01*
X30832Y-19825D01*
X30666Y-19893D01*
X30539Y-20020D01*
X30471Y-20185D01*
X30471Y-20364D01*
X30539Y-20530D01*
X30666Y-20656D01*
X30831Y-20725D01*
X31010Y-20725D01*
X31175Y-20657D01*
X31302Y-20530D01*
X31371Y-20365D01*
X31371Y-20186D01*
X31371Y-24738D01*
X31350Y-24734D01*
X31012Y-24734D01*
X30841Y-24768D01*
X30696Y-24865D01*
X30599Y-25010D01*
X30565Y-25181D01*
X30597Y-25341D01*
X30558Y-25341D01*
X30450Y-25362D01*
X30428Y-25366D01*
X30371Y-25405D01*
X30371Y-20186D01*
X30302Y-20021D01*
X30176Y-19894D01*
X30011Y-19825D01*
X29832Y-19825D01*
X29666Y-19893D01*
X29539Y-20020D01*
X29471Y-20185D01*
X29471Y-20364D01*
X29539Y-20530D01*
X29666Y-20656D01*
X29831Y-20725D01*
X30010Y-20725D01*
X30175Y-20657D01*
X30302Y-20530D01*
X30371Y-20365D01*
X30371Y-20186D01*
X30371Y-25405D01*
X30318Y-25440D01*
X29929Y-25829D01*
X29855Y-25939D01*
X29830Y-26070D01*
X29830Y-27489D01*
X29679Y-27640D01*
X29371Y-27640D01*
X29371Y-20186D01*
X29302Y-20021D01*
X29176Y-19894D01*
X29011Y-19825D01*
X28832Y-19825D01*
X28666Y-19893D01*
X28539Y-20020D01*
X28471Y-20185D01*
X28471Y-20364D01*
X28539Y-20530D01*
X28666Y-20656D01*
X28831Y-20725D01*
X29010Y-20725D01*
X29175Y-20657D01*
X29302Y-20530D01*
X29371Y-20365D01*
X29371Y-20186D01*
X29371Y-27640D01*
X29029Y-27640D01*
X29029Y-27328D01*
X29029Y-26934D01*
X28992Y-26843D01*
X29013Y-26799D01*
X29013Y-26562D01*
X28934Y-26400D01*
X28800Y-26287D01*
X28632Y-26234D01*
X28475Y-26234D01*
X28475Y-26631D01*
X28964Y-26631D01*
X29013Y-26562D01*
X29013Y-26799D01*
X28964Y-26731D01*
X28475Y-26731D01*
X28475Y-26734D01*
X28375Y-26734D01*
X28375Y-26731D01*
X28375Y-26631D01*
X28375Y-26234D01*
X28218Y-26234D01*
X28050Y-26287D01*
X27916Y-26400D01*
X27837Y-26562D01*
X27886Y-26631D01*
X28375Y-26631D01*
X28375Y-26731D01*
X27886Y-26731D01*
X27837Y-26799D01*
X27858Y-26843D01*
X27821Y-26934D01*
X27821Y-27033D01*
X27821Y-27427D01*
X27859Y-27519D01*
X27929Y-27589D01*
X28021Y-27628D01*
X28120Y-27628D01*
X28829Y-27628D01*
X28921Y-27590D01*
X28991Y-27519D01*
X29029Y-27428D01*
X29029Y-27328D01*
X29029Y-27640D01*
X27650Y-27640D01*
X27519Y-27665D01*
X27409Y-27739D01*
X26999Y-28149D01*
X26925Y-28259D01*
X26900Y-28390D01*
X26900Y-30859D01*
X26820Y-30939D01*
X26820Y-26370D01*
X27169Y-26021D01*
X27901Y-26021D01*
X27976Y-26021D01*
X28085Y-26094D01*
X28256Y-26128D01*
X28594Y-26128D01*
X28765Y-26094D01*
X28910Y-25997D01*
X29007Y-25852D01*
X29041Y-25681D01*
X29007Y-25510D01*
X28954Y-25431D01*
X29007Y-25352D01*
X29041Y-25181D01*
X29007Y-25010D01*
X28910Y-24865D01*
X28765Y-24768D01*
X28594Y-24734D01*
X28256Y-24734D01*
X28085Y-24768D01*
X27940Y-24865D01*
X27843Y-25010D01*
X27821Y-25120D01*
X27820Y-25119D01*
X27820Y-20860D01*
X27832Y-20860D01*
X28047Y-20771D01*
X28211Y-20607D01*
X28301Y-20392D01*
X28301Y-20159D01*
X28212Y-19944D01*
X28081Y-19813D01*
X31809Y-19813D01*
G54D10*
G36*
X35895Y-51131D02*
X28060Y-51131D01*
X28060Y-49450D01*
X28210Y-49300D01*
X32450Y-49300D01*
X32450Y-49299D01*
X32580Y-49274D01*
X32690Y-49200D01*
X33075Y-48815D01*
X33075Y-48815D01*
X33124Y-48742D01*
X33148Y-48705D01*
X33148Y-48705D01*
X33174Y-48575D01*
X33174Y-48575D01*
X33174Y-38557D01*
X33329Y-38402D01*
X33419Y-38187D01*
X33419Y-37955D01*
X33330Y-37740D01*
X33166Y-37575D01*
X32951Y-37486D01*
X32899Y-37486D01*
X32899Y-34059D01*
X32899Y-34059D01*
X32873Y-33928D01*
X32873Y-33928D01*
X32848Y-33892D01*
X32799Y-33818D01*
X32799Y-33818D01*
X32759Y-33778D01*
X32759Y-31990D01*
X32759Y-29427D01*
X30899Y-29427D01*
X30899Y-31990D01*
X32759Y-31990D01*
X32759Y-33778D01*
X32440Y-33459D01*
X32330Y-33385D01*
X32200Y-33360D01*
X28240Y-33360D01*
X28131Y-33381D01*
X28109Y-33385D01*
X27999Y-33459D01*
X27529Y-33929D01*
X27455Y-34039D01*
X27430Y-34170D01*
X27430Y-35029D01*
X27169Y-35289D01*
X26352Y-35289D01*
X26197Y-35134D01*
X25982Y-35045D01*
X25750Y-35045D01*
X25671Y-35077D01*
X25671Y-34529D01*
X25603Y-34365D01*
X25477Y-34239D01*
X25313Y-34171D01*
X25135Y-34171D01*
X24971Y-34239D01*
X24845Y-34364D01*
X24777Y-34528D01*
X24777Y-34706D01*
X24845Y-34870D01*
X24970Y-34996D01*
X25135Y-35064D01*
X25312Y-35065D01*
X25477Y-34997D01*
X25603Y-34871D01*
X25671Y-34707D01*
X25671Y-34529D01*
X25671Y-35077D01*
X25535Y-35133D01*
X25370Y-35298D01*
X25281Y-35513D01*
X25281Y-35745D01*
X25353Y-35920D01*
X24554Y-35920D01*
X24603Y-35871D01*
X24671Y-35707D01*
X24671Y-35529D01*
X24671Y-34529D01*
X24603Y-34365D01*
X24477Y-34239D01*
X24313Y-34171D01*
X24135Y-34171D01*
X23971Y-34239D01*
X23845Y-34364D01*
X23777Y-34528D01*
X23777Y-34706D01*
X23845Y-34870D01*
X23970Y-34996D01*
X24135Y-35064D01*
X24312Y-35065D01*
X24477Y-34997D01*
X24603Y-34871D01*
X24671Y-34707D01*
X24671Y-34529D01*
X24671Y-35529D01*
X24603Y-35365D01*
X24477Y-35239D01*
X24313Y-35171D01*
X24135Y-35171D01*
X23971Y-35239D01*
X23845Y-35364D01*
X23800Y-35474D01*
X23800Y-35400D01*
X23800Y-35070D01*
X23778Y-34961D01*
X23774Y-34939D01*
X23774Y-34939D01*
X23700Y-34829D01*
X23700Y-34829D01*
X23276Y-34405D01*
X23165Y-34331D01*
X23035Y-34305D01*
X22345Y-34305D01*
X22267Y-34118D01*
X22103Y-33953D01*
X21888Y-33864D01*
X21655Y-33864D01*
X21602Y-33886D01*
X21647Y-33778D01*
X21647Y-33545D01*
X21558Y-33330D01*
X21402Y-33174D01*
X21402Y-33027D01*
X21540Y-32890D01*
X26370Y-32890D01*
X26370Y-32889D01*
X26500Y-32864D01*
X26610Y-32790D01*
X28260Y-31140D01*
X28334Y-31030D01*
X28359Y-30900D01*
X28360Y-30900D01*
X28360Y-29080D01*
X28680Y-28760D01*
X32490Y-28760D01*
X32490Y-28759D01*
X32620Y-28734D01*
X32730Y-28660D01*
X33200Y-28190D01*
X33200Y-28190D01*
X33274Y-28080D01*
X33274Y-28080D01*
X33278Y-28058D01*
X33299Y-27950D01*
X33300Y-27950D01*
X33300Y-26080D01*
X33359Y-26021D01*
X33487Y-26021D01*
X33597Y-26094D01*
X33768Y-26128D01*
X34106Y-26128D01*
X34277Y-26094D01*
X34422Y-25997D01*
X34519Y-25852D01*
X34553Y-25681D01*
X34519Y-25510D01*
X34466Y-25431D01*
X34519Y-25352D01*
X34553Y-25181D01*
X34519Y-25010D01*
X34422Y-24865D01*
X34277Y-24768D01*
X34106Y-24734D01*
X33768Y-24734D01*
X33597Y-24768D01*
X33452Y-24865D01*
X33355Y-25010D01*
X33321Y-25181D01*
X33352Y-25341D01*
X33218Y-25341D01*
X33088Y-25366D01*
X33052Y-25391D01*
X32978Y-25440D01*
X32719Y-25699D01*
X32645Y-25809D01*
X32620Y-25940D01*
X32620Y-27809D01*
X32349Y-28080D01*
X31785Y-28080D01*
X31785Y-27328D01*
X31785Y-26934D01*
X31748Y-26843D01*
X31769Y-26799D01*
X31769Y-26562D01*
X31690Y-26400D01*
X31555Y-26287D01*
X31388Y-26234D01*
X31231Y-26234D01*
X31231Y-26631D01*
X31719Y-26631D01*
X31769Y-26562D01*
X31769Y-26799D01*
X31719Y-26731D01*
X31231Y-26731D01*
X31231Y-26734D01*
X31131Y-26734D01*
X31131Y-26731D01*
X31131Y-26631D01*
X31131Y-26234D01*
X30974Y-26234D01*
X30806Y-26287D01*
X30672Y-26400D01*
X30593Y-26562D01*
X30642Y-26631D01*
X31131Y-26631D01*
X31131Y-26731D01*
X30642Y-26731D01*
X30593Y-26799D01*
X30614Y-26843D01*
X30577Y-26934D01*
X30576Y-27033D01*
X30576Y-27427D01*
X30614Y-27519D01*
X30685Y-27589D01*
X30777Y-27628D01*
X30876Y-27628D01*
X31585Y-27628D01*
X31677Y-27590D01*
X31747Y-27519D01*
X31785Y-27428D01*
X31785Y-27328D01*
X31785Y-28080D01*
X30200Y-28080D01*
X30410Y-27870D01*
X30410Y-27870D01*
X30459Y-27796D01*
X30484Y-27760D01*
X30484Y-27760D01*
X30509Y-27630D01*
X30510Y-27630D01*
X30510Y-26210D01*
X30699Y-26021D01*
X30731Y-26021D01*
X30841Y-26094D01*
X31012Y-26128D01*
X31350Y-26128D01*
X31521Y-26094D01*
X31630Y-26021D01*
X31917Y-26021D01*
X31917Y-26021D01*
X32047Y-25995D01*
X32157Y-25921D01*
X32366Y-25712D01*
X32366Y-25712D01*
X32440Y-25602D01*
X32440Y-25602D01*
X32444Y-25580D01*
X32465Y-25472D01*
X32465Y-25472D01*
X32465Y-20801D01*
X32621Y-20646D01*
X32710Y-20431D01*
X32710Y-20199D01*
X32621Y-19984D01*
X32457Y-19819D01*
X32442Y-19813D01*
X35895Y-19813D01*
X35895Y-24810D01*
X35885Y-24799D01*
X35877Y-24796D01*
X35877Y-22316D01*
X35702Y-21892D01*
X35702Y-20186D01*
X35633Y-20021D01*
X35507Y-19894D01*
X35341Y-19825D01*
X35162Y-19825D01*
X34997Y-19893D01*
X34870Y-20020D01*
X34802Y-20185D01*
X34801Y-20364D01*
X34870Y-20530D01*
X34996Y-20656D01*
X35162Y-20725D01*
X35341Y-20725D01*
X35506Y-20657D01*
X35633Y-20530D01*
X35701Y-20365D01*
X35702Y-20186D01*
X35702Y-21892D01*
X35630Y-21718D01*
X35173Y-21261D01*
X34702Y-21065D01*
X34702Y-20186D01*
X34633Y-20021D01*
X34507Y-19894D01*
X34341Y-19825D01*
X34162Y-19825D01*
X33997Y-19893D01*
X33870Y-20020D01*
X33802Y-20185D01*
X33801Y-20364D01*
X33870Y-20530D01*
X33996Y-20656D01*
X34162Y-20725D01*
X34341Y-20725D01*
X34506Y-20657D01*
X34633Y-20530D01*
X34701Y-20365D01*
X34702Y-20186D01*
X34702Y-21065D01*
X34576Y-21013D01*
X33930Y-21012D01*
X33702Y-21106D01*
X33702Y-20186D01*
X33633Y-20021D01*
X33507Y-19894D01*
X33341Y-19825D01*
X33162Y-19825D01*
X32997Y-19893D01*
X32870Y-20020D01*
X32802Y-20185D01*
X32801Y-20364D01*
X32870Y-20530D01*
X32996Y-20656D01*
X33162Y-20725D01*
X33341Y-20725D01*
X33506Y-20657D01*
X33633Y-20530D01*
X33701Y-20365D01*
X33702Y-20186D01*
X33702Y-21106D01*
X33332Y-21259D01*
X32875Y-21716D01*
X32627Y-22313D01*
X32626Y-22959D01*
X32873Y-23556D01*
X33330Y-24014D01*
X33927Y-24262D01*
X34573Y-24262D01*
X35171Y-24016D01*
X35628Y-23559D01*
X35876Y-22962D01*
X35877Y-22316D01*
X35877Y-24796D01*
X35719Y-24731D01*
X35540Y-24731D01*
X35375Y-24799D01*
X35248Y-24925D01*
X35180Y-25091D01*
X35179Y-25270D01*
X35248Y-25435D01*
X35374Y-25562D01*
X35540Y-25631D01*
X35719Y-25631D01*
X35884Y-25562D01*
X35895Y-25551D01*
X35895Y-25810D01*
X35885Y-25799D01*
X35719Y-25731D01*
X35540Y-25731D01*
X35375Y-25799D01*
X35248Y-25925D01*
X35180Y-26091D01*
X35179Y-26270D01*
X35248Y-26435D01*
X35374Y-26562D01*
X35540Y-26631D01*
X35719Y-26631D01*
X35884Y-26562D01*
X35895Y-26551D01*
X35895Y-26810D01*
X35885Y-26799D01*
X35719Y-26731D01*
X35540Y-26731D01*
X35375Y-26799D01*
X35248Y-26925D01*
X35180Y-27091D01*
X35179Y-27270D01*
X35248Y-27435D01*
X35374Y-27562D01*
X35540Y-27631D01*
X35719Y-27631D01*
X35884Y-27562D01*
X35895Y-27551D01*
X35895Y-33791D01*
X35867Y-33723D01*
X35741Y-33597D01*
X35577Y-33529D01*
X35399Y-33529D01*
X35235Y-33597D01*
X35109Y-33722D01*
X35041Y-33887D01*
X35041Y-34064D01*
X35109Y-34229D01*
X35234Y-34354D01*
X35398Y-34423D01*
X35576Y-34423D01*
X35740Y-34355D01*
X35866Y-34229D01*
X35895Y-34160D01*
X35895Y-36429D01*
X35867Y-36361D01*
X35741Y-36235D01*
X35577Y-36167D01*
X35399Y-36167D01*
X35235Y-36235D01*
X35109Y-36360D01*
X35041Y-36524D01*
X35041Y-36702D01*
X35109Y-36866D01*
X35234Y-36992D01*
X35398Y-37060D01*
X35576Y-37061D01*
X35740Y-36993D01*
X35866Y-36867D01*
X35895Y-36798D01*
X35895Y-39467D01*
X35864Y-39454D01*
X35632Y-39454D01*
X35417Y-39543D01*
X35252Y-39707D01*
X35198Y-39837D01*
X35198Y-38872D01*
X35131Y-38707D01*
X35005Y-38582D01*
X34935Y-38552D01*
X34935Y-36525D01*
X34935Y-33887D01*
X34867Y-33723D01*
X34741Y-33597D01*
X34605Y-33541D01*
X34605Y-31599D01*
X34605Y-29599D01*
X34541Y-29445D01*
X34541Y-27328D01*
X34541Y-26934D01*
X34504Y-26843D01*
X34525Y-26799D01*
X34525Y-26562D01*
X34446Y-26400D01*
X34311Y-26287D01*
X34144Y-26234D01*
X33987Y-26234D01*
X33987Y-26631D01*
X34475Y-26631D01*
X34525Y-26562D01*
X34525Y-26799D01*
X34475Y-26731D01*
X33987Y-26731D01*
X33987Y-26734D01*
X33887Y-26734D01*
X33887Y-26731D01*
X33887Y-26631D01*
X33887Y-26234D01*
X33729Y-26234D01*
X33562Y-26287D01*
X33428Y-26400D01*
X33349Y-26562D01*
X33398Y-26631D01*
X33887Y-26631D01*
X33887Y-26731D01*
X33398Y-26731D01*
X33349Y-26799D01*
X33370Y-26843D01*
X33332Y-26934D01*
X33332Y-27033D01*
X33332Y-27427D01*
X33370Y-27519D01*
X33441Y-27589D01*
X33532Y-27628D01*
X33632Y-27628D01*
X34341Y-27628D01*
X34433Y-27590D01*
X34503Y-27519D01*
X34541Y-27428D01*
X34541Y-27328D01*
X34541Y-29445D01*
X34521Y-29397D01*
X34367Y-29242D01*
X34164Y-29158D01*
X33946Y-29158D01*
X33743Y-29242D01*
X33589Y-29396D01*
X33505Y-29598D01*
X33505Y-29817D01*
X33588Y-30019D01*
X33743Y-30174D01*
X33945Y-30258D01*
X34164Y-30258D01*
X34366Y-30175D01*
X34521Y-30020D01*
X34605Y-29818D01*
X34605Y-29599D01*
X34605Y-31599D01*
X34521Y-31397D01*
X34367Y-31242D01*
X34164Y-31158D01*
X33946Y-31158D01*
X33743Y-31242D01*
X33589Y-31396D01*
X33505Y-31598D01*
X33505Y-31817D01*
X33588Y-32019D01*
X33743Y-32174D01*
X33945Y-32258D01*
X34164Y-32258D01*
X34366Y-32175D01*
X34521Y-32020D01*
X34605Y-31818D01*
X34605Y-31599D01*
X34605Y-33541D01*
X34577Y-33529D01*
X34399Y-33529D01*
X34235Y-33597D01*
X34109Y-33722D01*
X34041Y-33887D01*
X34041Y-34064D01*
X34109Y-34229D01*
X34234Y-34354D01*
X34398Y-34423D01*
X34576Y-34423D01*
X34740Y-34355D01*
X34866Y-34229D01*
X34934Y-34065D01*
X34935Y-33887D01*
X34935Y-36525D01*
X34867Y-36361D01*
X34741Y-36235D01*
X34577Y-36167D01*
X34399Y-36167D01*
X34235Y-36235D01*
X34109Y-36360D01*
X34041Y-36524D01*
X34041Y-36702D01*
X34109Y-36866D01*
X34234Y-36992D01*
X34398Y-37060D01*
X34576Y-37061D01*
X34740Y-36993D01*
X34866Y-36867D01*
X34934Y-36703D01*
X34935Y-36525D01*
X34935Y-38552D01*
X34841Y-38513D01*
X34663Y-38513D01*
X34499Y-38581D01*
X34373Y-38707D01*
X34305Y-38871D01*
X34305Y-39049D01*
X34372Y-39213D01*
X34498Y-39339D01*
X34662Y-39407D01*
X34840Y-39407D01*
X35004Y-39339D01*
X35130Y-39214D01*
X35198Y-39049D01*
X35198Y-38872D01*
X35198Y-39837D01*
X35191Y-39854D01*
X35131Y-39707D01*
X35005Y-39582D01*
X34841Y-39513D01*
X34663Y-39513D01*
X34499Y-39581D01*
X34373Y-39707D01*
X34305Y-39871D01*
X34305Y-40049D01*
X34372Y-40213D01*
X34498Y-40339D01*
X34662Y-40407D01*
X34840Y-40407D01*
X35004Y-40339D01*
X35130Y-40214D01*
X35163Y-40135D01*
X35163Y-40155D01*
X35252Y-40370D01*
X35408Y-40526D01*
X35408Y-49426D01*
X35292Y-49541D01*
X35202Y-49541D01*
X35202Y-40871D01*
X35133Y-40706D01*
X35007Y-40579D01*
X34841Y-40510D01*
X34662Y-40510D01*
X34497Y-40578D01*
X34370Y-40705D01*
X34302Y-40870D01*
X34301Y-41049D01*
X34370Y-41215D01*
X34496Y-41341D01*
X34662Y-41410D01*
X34841Y-41410D01*
X35006Y-41342D01*
X35133Y-41215D01*
X35201Y-41050D01*
X35202Y-40871D01*
X35202Y-49541D01*
X34605Y-49541D01*
X34605Y-45576D01*
X34605Y-43576D01*
X34521Y-43373D01*
X34367Y-43219D01*
X34198Y-43149D01*
X34198Y-40872D01*
X34198Y-39872D01*
X34198Y-38872D01*
X34131Y-38707D01*
X34005Y-38582D01*
X33935Y-38552D01*
X33935Y-36525D01*
X33935Y-33887D01*
X33867Y-33723D01*
X33741Y-33597D01*
X33577Y-33529D01*
X33399Y-33529D01*
X33235Y-33597D01*
X33109Y-33722D01*
X33041Y-33887D01*
X33041Y-34064D01*
X33109Y-34229D01*
X33234Y-34354D01*
X33398Y-34423D01*
X33576Y-34423D01*
X33740Y-34355D01*
X33866Y-34229D01*
X33934Y-34065D01*
X33935Y-33887D01*
X33935Y-36525D01*
X33867Y-36361D01*
X33741Y-36235D01*
X33577Y-36167D01*
X33399Y-36167D01*
X33235Y-36235D01*
X33109Y-36360D01*
X33041Y-36524D01*
X33041Y-36702D01*
X33109Y-36866D01*
X33234Y-36992D01*
X33398Y-37060D01*
X33576Y-37061D01*
X33740Y-36993D01*
X33866Y-36867D01*
X33934Y-36703D01*
X33935Y-36525D01*
X33935Y-38552D01*
X33841Y-38513D01*
X33663Y-38513D01*
X33499Y-38581D01*
X33373Y-38707D01*
X33305Y-38871D01*
X33305Y-39049D01*
X33372Y-39213D01*
X33498Y-39339D01*
X33662Y-39407D01*
X33840Y-39407D01*
X34004Y-39339D01*
X34130Y-39214D01*
X34198Y-39049D01*
X34198Y-38872D01*
X34198Y-39872D01*
X34131Y-39707D01*
X34005Y-39582D01*
X33841Y-39513D01*
X33663Y-39513D01*
X33499Y-39581D01*
X33373Y-39707D01*
X33305Y-39871D01*
X33305Y-40049D01*
X33372Y-40213D01*
X33498Y-40339D01*
X33662Y-40407D01*
X33840Y-40407D01*
X34004Y-40339D01*
X34130Y-40214D01*
X34198Y-40049D01*
X34198Y-39872D01*
X34198Y-40872D01*
X34131Y-40707D01*
X34005Y-40582D01*
X33841Y-40513D01*
X33663Y-40513D01*
X33499Y-40581D01*
X33373Y-40707D01*
X33305Y-40871D01*
X33305Y-41049D01*
X33372Y-41213D01*
X33498Y-41339D01*
X33662Y-41407D01*
X33840Y-41407D01*
X34004Y-41339D01*
X34130Y-41214D01*
X34198Y-41049D01*
X34198Y-40872D01*
X34198Y-43149D01*
X34164Y-43135D01*
X33946Y-43134D01*
X33743Y-43218D01*
X33589Y-43373D01*
X33505Y-43575D01*
X33505Y-43793D01*
X33588Y-43996D01*
X33743Y-44151D01*
X33945Y-44234D01*
X34164Y-44235D01*
X34366Y-44151D01*
X34521Y-43996D01*
X34605Y-43794D01*
X34605Y-43576D01*
X34605Y-45576D01*
X34521Y-45373D01*
X34367Y-45219D01*
X34164Y-45135D01*
X33946Y-45134D01*
X33743Y-45218D01*
X33589Y-45373D01*
X33505Y-45575D01*
X33505Y-45793D01*
X33588Y-45996D01*
X33743Y-46151D01*
X33945Y-46234D01*
X34164Y-46235D01*
X34366Y-46151D01*
X34521Y-45996D01*
X34605Y-45794D01*
X34605Y-45576D01*
X34605Y-49541D01*
X33675Y-49541D01*
X33520Y-49386D01*
X33305Y-49297D01*
X33073Y-49297D01*
X32858Y-49385D01*
X32693Y-49550D01*
X32604Y-49765D01*
X32604Y-49997D01*
X32693Y-50212D01*
X32857Y-50377D01*
X33072Y-50466D01*
X33304Y-50466D01*
X33519Y-50377D01*
X33675Y-50221D01*
X35433Y-50221D01*
X35433Y-50221D01*
X35563Y-50196D01*
X35673Y-50122D01*
X35895Y-49900D01*
X35895Y-51131D01*
X35895Y-51131D01*
G37*
G54D22*
X35895Y-51131D02*
X28060Y-51131D01*
X28060Y-49450D01*
X28210Y-49300D01*
X32450Y-49300D01*
X32450Y-49299D01*
X32580Y-49274D01*
X32690Y-49200D01*
X33075Y-48815D01*
X33075Y-48815D01*
X33124Y-48742D01*
X33148Y-48705D01*
X33148Y-48705D01*
X33174Y-48575D01*
X33174Y-48575D01*
X33174Y-38557D01*
X33329Y-38402D01*
X33419Y-38187D01*
X33419Y-37955D01*
X33330Y-37740D01*
X33166Y-37575D01*
X32951Y-37486D01*
X32899Y-37486D01*
X32899Y-34059D01*
X32899Y-34059D01*
X32873Y-33928D01*
X32873Y-33928D01*
X32848Y-33892D01*
X32799Y-33818D01*
X32799Y-33818D01*
X32759Y-33778D01*
X32759Y-31990D01*
X32759Y-29427D01*
X30899Y-29427D01*
X30899Y-31990D01*
X32759Y-31990D01*
X32759Y-33778D01*
X32440Y-33459D01*
X32330Y-33385D01*
X32200Y-33360D01*
X28240Y-33360D01*
X28131Y-33381D01*
X28109Y-33385D01*
X27999Y-33459D01*
X27529Y-33929D01*
X27455Y-34039D01*
X27430Y-34170D01*
X27430Y-35029D01*
X27169Y-35289D01*
X26352Y-35289D01*
X26197Y-35134D01*
X25982Y-35045D01*
X25750Y-35045D01*
X25671Y-35077D01*
X25671Y-34529D01*
X25603Y-34365D01*
X25477Y-34239D01*
X25313Y-34171D01*
X25135Y-34171D01*
X24971Y-34239D01*
X24845Y-34364D01*
X24777Y-34528D01*
X24777Y-34706D01*
X24845Y-34870D01*
X24970Y-34996D01*
X25135Y-35064D01*
X25312Y-35065D01*
X25477Y-34997D01*
X25603Y-34871D01*
X25671Y-34707D01*
X25671Y-34529D01*
X25671Y-35077D01*
X25535Y-35133D01*
X25370Y-35298D01*
X25281Y-35513D01*
X25281Y-35745D01*
X25353Y-35920D01*
X24554Y-35920D01*
X24603Y-35871D01*
X24671Y-35707D01*
X24671Y-35529D01*
X24671Y-34529D01*
X24603Y-34365D01*
X24477Y-34239D01*
X24313Y-34171D01*
X24135Y-34171D01*
X23971Y-34239D01*
X23845Y-34364D01*
X23777Y-34528D01*
X23777Y-34706D01*
X23845Y-34870D01*
X23970Y-34996D01*
X24135Y-35064D01*
X24312Y-35065D01*
X24477Y-34997D01*
X24603Y-34871D01*
X24671Y-34707D01*
X24671Y-34529D01*
X24671Y-35529D01*
X24603Y-35365D01*
X24477Y-35239D01*
X24313Y-35171D01*
X24135Y-35171D01*
X23971Y-35239D01*
X23845Y-35364D01*
X23800Y-35474D01*
X23800Y-35400D01*
X23800Y-35070D01*
X23778Y-34961D01*
X23774Y-34939D01*
X23774Y-34939D01*
X23700Y-34829D01*
X23700Y-34829D01*
X23276Y-34405D01*
X23165Y-34331D01*
X23035Y-34305D01*
X22345Y-34305D01*
X22267Y-34118D01*
X22103Y-33953D01*
X21888Y-33864D01*
X21655Y-33864D01*
X21602Y-33886D01*
X21647Y-33778D01*
X21647Y-33545D01*
X21558Y-33330D01*
X21402Y-33174D01*
X21402Y-33027D01*
X21540Y-32890D01*
X26370Y-32890D01*
X26370Y-32889D01*
X26500Y-32864D01*
X26610Y-32790D01*
X28260Y-31140D01*
X28334Y-31030D01*
X28359Y-30900D01*
X28360Y-30900D01*
X28360Y-29080D01*
X28680Y-28760D01*
X32490Y-28760D01*
X32490Y-28759D01*
X32620Y-28734D01*
X32730Y-28660D01*
X33200Y-28190D01*
X33200Y-28190D01*
X33274Y-28080D01*
X33274Y-28080D01*
X33278Y-28058D01*
X33299Y-27950D01*
X33300Y-27950D01*
X33300Y-26080D01*
X33359Y-26021D01*
X33487Y-26021D01*
X33597Y-26094D01*
X33768Y-26128D01*
X34106Y-26128D01*
X34277Y-26094D01*
X34422Y-25997D01*
X34519Y-25852D01*
X34553Y-25681D01*
X34519Y-25510D01*
X34466Y-25431D01*
X34519Y-25352D01*
X34553Y-25181D01*
X34519Y-25010D01*
X34422Y-24865D01*
X34277Y-24768D01*
X34106Y-24734D01*
X33768Y-24734D01*
X33597Y-24768D01*
X33452Y-24865D01*
X33355Y-25010D01*
X33321Y-25181D01*
X33352Y-25341D01*
X33218Y-25341D01*
X33088Y-25366D01*
X33052Y-25391D01*
X32978Y-25440D01*
X32719Y-25699D01*
X32645Y-25809D01*
X32620Y-25940D01*
X32620Y-27809D01*
X32349Y-28080D01*
X31785Y-28080D01*
X31785Y-27328D01*
X31785Y-26934D01*
X31748Y-26843D01*
X31769Y-26799D01*
X31769Y-26562D01*
X31690Y-26400D01*
X31555Y-26287D01*
X31388Y-26234D01*
X31231Y-26234D01*
X31231Y-26631D01*
X31719Y-26631D01*
X31769Y-26562D01*
X31769Y-26799D01*
X31719Y-26731D01*
X31231Y-26731D01*
X31231Y-26734D01*
X31131Y-26734D01*
X31131Y-26731D01*
X31131Y-26631D01*
X31131Y-26234D01*
X30974Y-26234D01*
X30806Y-26287D01*
X30672Y-26400D01*
X30593Y-26562D01*
X30642Y-26631D01*
X31131Y-26631D01*
X31131Y-26731D01*
X30642Y-26731D01*
X30593Y-26799D01*
X30614Y-26843D01*
X30577Y-26934D01*
X30576Y-27033D01*
X30576Y-27427D01*
X30614Y-27519D01*
X30685Y-27589D01*
X30777Y-27628D01*
X30876Y-27628D01*
X31585Y-27628D01*
X31677Y-27590D01*
X31747Y-27519D01*
X31785Y-27428D01*
X31785Y-27328D01*
X31785Y-28080D01*
X30200Y-28080D01*
X30410Y-27870D01*
X30410Y-27870D01*
X30459Y-27796D01*
X30484Y-27760D01*
X30484Y-27760D01*
X30509Y-27630D01*
X30510Y-27630D01*
X30510Y-26210D01*
X30699Y-26021D01*
X30731Y-26021D01*
X30841Y-26094D01*
X31012Y-26128D01*
X31350Y-26128D01*
X31521Y-26094D01*
X31630Y-26021D01*
X31917Y-26021D01*
X31917Y-26021D01*
X32047Y-25995D01*
X32157Y-25921D01*
X32366Y-25712D01*
X32366Y-25712D01*
X32440Y-25602D01*
X32440Y-25602D01*
X32444Y-25580D01*
X32465Y-25472D01*
X32465Y-25472D01*
X32465Y-20801D01*
X32621Y-20646D01*
X32710Y-20431D01*
X32710Y-20199D01*
X32621Y-19984D01*
X32457Y-19819D01*
X32442Y-19813D01*
X35895Y-19813D01*
X35895Y-24810D01*
X35885Y-24799D01*
X35877Y-24796D01*
X35877Y-22316D01*
X35702Y-21892D01*
X35702Y-20186D01*
X35633Y-20021D01*
X35507Y-19894D01*
X35341Y-19825D01*
X35162Y-19825D01*
X34997Y-19893D01*
X34870Y-20020D01*
X34802Y-20185D01*
X34801Y-20364D01*
X34870Y-20530D01*
X34996Y-20656D01*
X35162Y-20725D01*
X35341Y-20725D01*
X35506Y-20657D01*
X35633Y-20530D01*
X35701Y-20365D01*
X35702Y-20186D01*
X35702Y-21892D01*
X35630Y-21718D01*
X35173Y-21261D01*
X34702Y-21065D01*
X34702Y-20186D01*
X34633Y-20021D01*
X34507Y-19894D01*
X34341Y-19825D01*
X34162Y-19825D01*
X33997Y-19893D01*
X33870Y-20020D01*
X33802Y-20185D01*
X33801Y-20364D01*
X33870Y-20530D01*
X33996Y-20656D01*
X34162Y-20725D01*
X34341Y-20725D01*
X34506Y-20657D01*
X34633Y-20530D01*
X34701Y-20365D01*
X34702Y-20186D01*
X34702Y-21065D01*
X34576Y-21013D01*
X33930Y-21012D01*
X33702Y-21106D01*
X33702Y-20186D01*
X33633Y-20021D01*
X33507Y-19894D01*
X33341Y-19825D01*
X33162Y-19825D01*
X32997Y-19893D01*
X32870Y-20020D01*
X32802Y-20185D01*
X32801Y-20364D01*
X32870Y-20530D01*
X32996Y-20656D01*
X33162Y-20725D01*
X33341Y-20725D01*
X33506Y-20657D01*
X33633Y-20530D01*
X33701Y-20365D01*
X33702Y-20186D01*
X33702Y-21106D01*
X33332Y-21259D01*
X32875Y-21716D01*
X32627Y-22313D01*
X32626Y-22959D01*
X32873Y-23556D01*
X33330Y-24014D01*
X33927Y-24262D01*
X34573Y-24262D01*
X35171Y-24016D01*
X35628Y-23559D01*
X35876Y-22962D01*
X35877Y-22316D01*
X35877Y-24796D01*
X35719Y-24731D01*
X35540Y-24731D01*
X35375Y-24799D01*
X35248Y-24925D01*
X35180Y-25091D01*
X35179Y-25270D01*
X35248Y-25435D01*
X35374Y-25562D01*
X35540Y-25631D01*
X35719Y-25631D01*
X35884Y-25562D01*
X35895Y-25551D01*
X35895Y-25810D01*
X35885Y-25799D01*
X35719Y-25731D01*
X35540Y-25731D01*
X35375Y-25799D01*
X35248Y-25925D01*
X35180Y-26091D01*
X35179Y-26270D01*
X35248Y-26435D01*
X35374Y-26562D01*
X35540Y-26631D01*
X35719Y-26631D01*
X35884Y-26562D01*
X35895Y-26551D01*
X35895Y-26810D01*
X35885Y-26799D01*
X35719Y-26731D01*
X35540Y-26731D01*
X35375Y-26799D01*
X35248Y-26925D01*
X35180Y-27091D01*
X35179Y-27270D01*
X35248Y-27435D01*
X35374Y-27562D01*
X35540Y-27631D01*
X35719Y-27631D01*
X35884Y-27562D01*
X35895Y-27551D01*
X35895Y-33791D01*
X35867Y-33723D01*
X35741Y-33597D01*
X35577Y-33529D01*
X35399Y-33529D01*
X35235Y-33597D01*
X35109Y-33722D01*
X35041Y-33887D01*
X35041Y-34064D01*
X35109Y-34229D01*
X35234Y-34354D01*
X35398Y-34423D01*
X35576Y-34423D01*
X35740Y-34355D01*
X35866Y-34229D01*
X35895Y-34160D01*
X35895Y-36429D01*
X35867Y-36361D01*
X35741Y-36235D01*
X35577Y-36167D01*
X35399Y-36167D01*
X35235Y-36235D01*
X35109Y-36360D01*
X35041Y-36524D01*
X35041Y-36702D01*
X35109Y-36866D01*
X35234Y-36992D01*
X35398Y-37060D01*
X35576Y-37061D01*
X35740Y-36993D01*
X35866Y-36867D01*
X35895Y-36798D01*
X35895Y-39467D01*
X35864Y-39454D01*
X35632Y-39454D01*
X35417Y-39543D01*
X35252Y-39707D01*
X35198Y-39837D01*
X35198Y-38872D01*
X35131Y-38707D01*
X35005Y-38582D01*
X34935Y-38552D01*
X34935Y-36525D01*
X34935Y-33887D01*
X34867Y-33723D01*
X34741Y-33597D01*
X34605Y-33541D01*
X34605Y-31599D01*
X34605Y-29599D01*
X34541Y-29445D01*
X34541Y-27328D01*
X34541Y-26934D01*
X34504Y-26843D01*
X34525Y-26799D01*
X34525Y-26562D01*
X34446Y-26400D01*
X34311Y-26287D01*
X34144Y-26234D01*
X33987Y-26234D01*
X33987Y-26631D01*
X34475Y-26631D01*
X34525Y-26562D01*
X34525Y-26799D01*
X34475Y-26731D01*
X33987Y-26731D01*
X33987Y-26734D01*
X33887Y-26734D01*
X33887Y-26731D01*
X33887Y-26631D01*
X33887Y-26234D01*
X33729Y-26234D01*
X33562Y-26287D01*
X33428Y-26400D01*
X33349Y-26562D01*
X33398Y-26631D01*
X33887Y-26631D01*
X33887Y-26731D01*
X33398Y-26731D01*
X33349Y-26799D01*
X33370Y-26843D01*
X33332Y-26934D01*
X33332Y-27033D01*
X33332Y-27427D01*
X33370Y-27519D01*
X33441Y-27589D01*
X33532Y-27628D01*
X33632Y-27628D01*
X34341Y-27628D01*
X34433Y-27590D01*
X34503Y-27519D01*
X34541Y-27428D01*
X34541Y-27328D01*
X34541Y-29445D01*
X34521Y-29397D01*
X34367Y-29242D01*
X34164Y-29158D01*
X33946Y-29158D01*
X33743Y-29242D01*
X33589Y-29396D01*
X33505Y-29598D01*
X33505Y-29817D01*
X33588Y-30019D01*
X33743Y-30174D01*
X33945Y-30258D01*
X34164Y-30258D01*
X34366Y-30175D01*
X34521Y-30020D01*
X34605Y-29818D01*
X34605Y-29599D01*
X34605Y-31599D01*
X34521Y-31397D01*
X34367Y-31242D01*
X34164Y-31158D01*
X33946Y-31158D01*
X33743Y-31242D01*
X33589Y-31396D01*
X33505Y-31598D01*
X33505Y-31817D01*
X33588Y-32019D01*
X33743Y-32174D01*
X33945Y-32258D01*
X34164Y-32258D01*
X34366Y-32175D01*
X34521Y-32020D01*
X34605Y-31818D01*
X34605Y-31599D01*
X34605Y-33541D01*
X34577Y-33529D01*
X34399Y-33529D01*
X34235Y-33597D01*
X34109Y-33722D01*
X34041Y-33887D01*
X34041Y-34064D01*
X34109Y-34229D01*
X34234Y-34354D01*
X34398Y-34423D01*
X34576Y-34423D01*
X34740Y-34355D01*
X34866Y-34229D01*
X34934Y-34065D01*
X34935Y-33887D01*
X34935Y-36525D01*
X34867Y-36361D01*
X34741Y-36235D01*
X34577Y-36167D01*
X34399Y-36167D01*
X34235Y-36235D01*
X34109Y-36360D01*
X34041Y-36524D01*
X34041Y-36702D01*
X34109Y-36866D01*
X34234Y-36992D01*
X34398Y-37060D01*
X34576Y-37061D01*
X34740Y-36993D01*
X34866Y-36867D01*
X34934Y-36703D01*
X34935Y-36525D01*
X34935Y-38552D01*
X34841Y-38513D01*
X34663Y-38513D01*
X34499Y-38581D01*
X34373Y-38707D01*
X34305Y-38871D01*
X34305Y-39049D01*
X34372Y-39213D01*
X34498Y-39339D01*
X34662Y-39407D01*
X34840Y-39407D01*
X35004Y-39339D01*
X35130Y-39214D01*
X35198Y-39049D01*
X35198Y-38872D01*
X35198Y-39837D01*
X35191Y-39854D01*
X35131Y-39707D01*
X35005Y-39582D01*
X34841Y-39513D01*
X34663Y-39513D01*
X34499Y-39581D01*
X34373Y-39707D01*
X34305Y-39871D01*
X34305Y-40049D01*
X34372Y-40213D01*
X34498Y-40339D01*
X34662Y-40407D01*
X34840Y-40407D01*
X35004Y-40339D01*
X35130Y-40214D01*
X35163Y-40135D01*
X35163Y-40155D01*
X35252Y-40370D01*
X35408Y-40526D01*
X35408Y-49426D01*
X35292Y-49541D01*
X35202Y-49541D01*
X35202Y-40871D01*
X35133Y-40706D01*
X35007Y-40579D01*
X34841Y-40510D01*
X34662Y-40510D01*
X34497Y-40578D01*
X34370Y-40705D01*
X34302Y-40870D01*
X34301Y-41049D01*
X34370Y-41215D01*
X34496Y-41341D01*
X34662Y-41410D01*
X34841Y-41410D01*
X35006Y-41342D01*
X35133Y-41215D01*
X35201Y-41050D01*
X35202Y-40871D01*
X35202Y-49541D01*
X34605Y-49541D01*
X34605Y-45576D01*
X34605Y-43576D01*
X34521Y-43373D01*
X34367Y-43219D01*
X34198Y-43149D01*
X34198Y-40872D01*
X34198Y-39872D01*
X34198Y-38872D01*
X34131Y-38707D01*
X34005Y-38582D01*
X33935Y-38552D01*
X33935Y-36525D01*
X33935Y-33887D01*
X33867Y-33723D01*
X33741Y-33597D01*
X33577Y-33529D01*
X33399Y-33529D01*
X33235Y-33597D01*
X33109Y-33722D01*
X33041Y-33887D01*
X33041Y-34064D01*
X33109Y-34229D01*
X33234Y-34354D01*
X33398Y-34423D01*
X33576Y-34423D01*
X33740Y-34355D01*
X33866Y-34229D01*
X33934Y-34065D01*
X33935Y-33887D01*
X33935Y-36525D01*
X33867Y-36361D01*
X33741Y-36235D01*
X33577Y-36167D01*
X33399Y-36167D01*
X33235Y-36235D01*
X33109Y-36360D01*
X33041Y-36524D01*
X33041Y-36702D01*
X33109Y-36866D01*
X33234Y-36992D01*
X33398Y-37060D01*
X33576Y-37061D01*
X33740Y-36993D01*
X33866Y-36867D01*
X33934Y-36703D01*
X33935Y-36525D01*
X33935Y-38552D01*
X33841Y-38513D01*
X33663Y-38513D01*
X33499Y-38581D01*
X33373Y-38707D01*
X33305Y-38871D01*
X33305Y-39049D01*
X33372Y-39213D01*
X33498Y-39339D01*
X33662Y-39407D01*
X33840Y-39407D01*
X34004Y-39339D01*
X34130Y-39214D01*
X34198Y-39049D01*
X34198Y-38872D01*
X34198Y-39872D01*
X34131Y-39707D01*
X34005Y-39582D01*
X33841Y-39513D01*
X33663Y-39513D01*
X33499Y-39581D01*
X33373Y-39707D01*
X33305Y-39871D01*
X33305Y-40049D01*
X33372Y-40213D01*
X33498Y-40339D01*
X33662Y-40407D01*
X33840Y-40407D01*
X34004Y-40339D01*
X34130Y-40214D01*
X34198Y-40049D01*
X34198Y-39872D01*
X34198Y-40872D01*
X34131Y-40707D01*
X34005Y-40582D01*
X33841Y-40513D01*
X33663Y-40513D01*
X33499Y-40581D01*
X33373Y-40707D01*
X33305Y-40871D01*
X33305Y-41049D01*
X33372Y-41213D01*
X33498Y-41339D01*
X33662Y-41407D01*
X33840Y-41407D01*
X34004Y-41339D01*
X34130Y-41214D01*
X34198Y-41049D01*
X34198Y-40872D01*
X34198Y-43149D01*
X34164Y-43135D01*
X33946Y-43134D01*
X33743Y-43218D01*
X33589Y-43373D01*
X33505Y-43575D01*
X33505Y-43793D01*
X33588Y-43996D01*
X33743Y-44151D01*
X33945Y-44234D01*
X34164Y-44235D01*
X34366Y-44151D01*
X34521Y-43996D01*
X34605Y-43794D01*
X34605Y-43576D01*
X34605Y-45576D01*
X34521Y-45373D01*
X34367Y-45219D01*
X34164Y-45135D01*
X33946Y-45134D01*
X33743Y-45218D01*
X33589Y-45373D01*
X33505Y-45575D01*
X33505Y-45793D01*
X33588Y-45996D01*
X33743Y-46151D01*
X33945Y-46234D01*
X34164Y-46235D01*
X34366Y-46151D01*
X34521Y-45996D01*
X34605Y-45794D01*
X34605Y-45576D01*
X34605Y-49541D01*
X33675Y-49541D01*
X33520Y-49386D01*
X33305Y-49297D01*
X33073Y-49297D01*
X32858Y-49385D01*
X32693Y-49550D01*
X32604Y-49765D01*
X32604Y-49997D01*
X32693Y-50212D01*
X32857Y-50377D01*
X33072Y-50466D01*
X33304Y-50466D01*
X33519Y-50377D01*
X33675Y-50221D01*
X35433Y-50221D01*
X35433Y-50221D01*
X35563Y-50196D01*
X35673Y-50122D01*
X35895Y-49900D01*
X35895Y-51131D01*
M02*
