G04 (created by PCBNEW (2013-mar-13)-testing) date vie 12 jul 2013 21:58:05 ART*
%MOIN*%
G04 Gerber Fmt 3.4, Leading zero omitted, Abs format*
%FSLAX34Y34*%
G01*
G70*
G90*
G04 APERTURE LIST*
%ADD10C,2.3622e-06*%
%ADD11C,0.012*%
%ADD12C,0.0246063*%
%ADD13C,0.015*%
%ADD14C,0.12*%
%ADD15C,0.0708661*%
%ADD16R,0.06X0.06*%
%ADD17R,0.0708661X0.0708661*%
%ADD18R,0.0472X0.0472*%
%ADD19R,0.0787X0.0787*%
%ADD20C,0.0787*%
%ADD21O,0.062X0.09*%
%ADD22R,0.062X0.09*%
%ADD23R,0.0669291X0.0708661*%
%ADD24R,0.0669291X0.0669291*%
%ADD25C,0.0669291*%
%ADD26R,0.11811X0.11811*%
%ADD27C,0.11811*%
%ADD28C,0.16*%
%ADD29C,0.0787402*%
%ADD30R,0.055X0.035*%
%ADD31R,0.0354331X0.0590551*%
%ADD32O,0.0354331X0.0590551*%
%ADD33C,0.055*%
%ADD34C,0.02*%
%ADD35C,0.01*%
G04 APERTURE END LIST*
G54D10*
G54D11*
X29497Y-50733D02*
X29611Y-50733D01*
X29668Y-50771D01*
X29725Y-50848D01*
X29754Y-51000D01*
X29754Y-51267D01*
X29725Y-51419D01*
X29668Y-51495D01*
X29611Y-51533D01*
X29497Y-51533D01*
X29440Y-51495D01*
X29382Y-51419D01*
X29354Y-51267D01*
X29354Y-51000D01*
X29382Y-50848D01*
X29440Y-50771D01*
X29497Y-50733D01*
X29925Y-51000D02*
X30154Y-51000D01*
X30011Y-51533D02*
X30011Y-50848D01*
X30040Y-50771D01*
X30097Y-50733D01*
X30154Y-50733D01*
X30268Y-51000D02*
X30497Y-51000D01*
X30354Y-51533D02*
X30354Y-50848D01*
X30382Y-50771D01*
X30440Y-50733D01*
X30497Y-50733D01*
X31725Y-50733D02*
X31840Y-50733D01*
X31897Y-50771D01*
X31954Y-50848D01*
X31982Y-51000D01*
X31982Y-51267D01*
X31954Y-51419D01*
X31897Y-51495D01*
X31840Y-51533D01*
X31725Y-51533D01*
X31668Y-51495D01*
X31611Y-51419D01*
X31582Y-51267D01*
X31582Y-51000D01*
X31611Y-50848D01*
X31668Y-50771D01*
X31725Y-50733D01*
X32240Y-51000D02*
X32240Y-51533D01*
X32240Y-51076D02*
X32268Y-51038D01*
X32325Y-51000D01*
X32411Y-51000D01*
X32468Y-51038D01*
X32497Y-51114D01*
X32497Y-51533D01*
X33603Y-34919D02*
X34060Y-34919D01*
X33832Y-35223D02*
X33832Y-34614D01*
X34632Y-34423D02*
X34346Y-34423D01*
X34317Y-34804D01*
X34346Y-34766D01*
X34403Y-34728D01*
X34546Y-34728D01*
X34603Y-34766D01*
X34632Y-34804D01*
X34660Y-34880D01*
X34660Y-35071D01*
X34632Y-35147D01*
X34603Y-35185D01*
X34546Y-35223D01*
X34403Y-35223D01*
X34346Y-35185D01*
X34317Y-35147D01*
X34832Y-34423D02*
X35032Y-35223D01*
X35232Y-34423D01*
X12298Y-49010D02*
X12241Y-48972D01*
X12155Y-48972D01*
X12070Y-49010D01*
X12013Y-49086D01*
X11984Y-49163D01*
X11955Y-49315D01*
X11955Y-49429D01*
X11984Y-49582D01*
X12013Y-49658D01*
X12070Y-49734D01*
X12155Y-49772D01*
X12213Y-49772D01*
X12298Y-49734D01*
X12327Y-49696D01*
X12327Y-49429D01*
X12213Y-49429D01*
X12584Y-49772D02*
X12584Y-48972D01*
X12927Y-49772D01*
X12927Y-48972D01*
X13213Y-49772D02*
X13213Y-48972D01*
X13355Y-48972D01*
X13441Y-49010D01*
X13498Y-49086D01*
X13527Y-49163D01*
X13555Y-49315D01*
X13555Y-49429D01*
X13527Y-49582D01*
X13498Y-49658D01*
X13441Y-49734D01*
X13355Y-49772D01*
X13213Y-49772D01*
X24773Y-41663D02*
X24830Y-41701D01*
X24945Y-41701D01*
X25002Y-41663D01*
X25030Y-41587D01*
X25030Y-41549D01*
X25002Y-41473D01*
X24945Y-41435D01*
X24859Y-41435D01*
X24802Y-41397D01*
X24773Y-41320D01*
X24773Y-41282D01*
X24802Y-41206D01*
X24859Y-41168D01*
X24945Y-41168D01*
X25002Y-41206D01*
X25230Y-41168D02*
X25345Y-41701D01*
X25459Y-41320D01*
X25573Y-41701D01*
X25687Y-41168D01*
G54D12*
X13560Y-59939D02*
X14291Y-59939D01*
X13897Y-60464D01*
X14066Y-60464D01*
X14179Y-60530D01*
X14235Y-60595D01*
X14291Y-60727D01*
X14291Y-61055D01*
X14235Y-61186D01*
X14179Y-61252D01*
X14066Y-61317D01*
X13729Y-61317D01*
X13616Y-61252D01*
X13560Y-61186D01*
X14797Y-61186D02*
X14854Y-61252D01*
X14797Y-61317D01*
X14741Y-61252D01*
X14797Y-61186D01*
X14797Y-61317D01*
X15978Y-61317D02*
X15303Y-61317D01*
X15641Y-61317D02*
X15641Y-59939D01*
X15528Y-60136D01*
X15416Y-60267D01*
X15303Y-60333D01*
X16991Y-60399D02*
X16991Y-61317D01*
X16710Y-59874D02*
X16428Y-60858D01*
X17160Y-60858D01*
X17441Y-59939D02*
X18116Y-59939D01*
X17778Y-61317D02*
X17778Y-59939D01*
X18509Y-61317D02*
X18509Y-59939D01*
X18903Y-59939D02*
X19578Y-59939D01*
X19240Y-61317D02*
X19240Y-59939D01*
X20197Y-59939D02*
X20422Y-59939D01*
X20534Y-60005D01*
X20647Y-60136D01*
X20703Y-60399D01*
X20703Y-60858D01*
X20647Y-61120D01*
X20534Y-61252D01*
X20422Y-61317D01*
X20197Y-61317D01*
X20084Y-61252D01*
X19972Y-61120D01*
X19915Y-60858D01*
X19915Y-60399D01*
X19972Y-60136D01*
X20084Y-60005D01*
X20197Y-59939D01*
G54D11*
X35775Y-25051D02*
X35807Y-24982D01*
X35807Y-24868D01*
X35775Y-24822D01*
X35742Y-24799D01*
X35677Y-24776D01*
X35612Y-24776D01*
X35547Y-24799D01*
X35515Y-24822D01*
X35482Y-24868D01*
X35450Y-24959D01*
X35417Y-25005D01*
X35385Y-25028D01*
X35320Y-25051D01*
X35255Y-25051D01*
X35190Y-25028D01*
X35158Y-25005D01*
X35125Y-24959D01*
X35125Y-24845D01*
X35158Y-24776D01*
X35450Y-24569D02*
X35450Y-24409D01*
X35807Y-24340D02*
X35807Y-24569D01*
X35125Y-24569D01*
X35125Y-24340D01*
X35807Y-23858D02*
X35482Y-24019D01*
X35807Y-24133D02*
X35125Y-24133D01*
X35125Y-23950D01*
X35158Y-23904D01*
X35190Y-23881D01*
X35255Y-23858D01*
X35352Y-23858D01*
X35417Y-23881D01*
X35450Y-23904D01*
X35482Y-23950D01*
X35482Y-24133D01*
X35125Y-23720D02*
X35807Y-23560D01*
X35125Y-23399D01*
X35125Y-23147D02*
X35125Y-23055D01*
X35158Y-23009D01*
X35223Y-22963D01*
X35352Y-22940D01*
X35580Y-22940D01*
X35710Y-22963D01*
X35775Y-23009D01*
X35807Y-23055D01*
X35807Y-23147D01*
X35775Y-23192D01*
X35710Y-23238D01*
X35580Y-23261D01*
X35352Y-23261D01*
X35223Y-23238D01*
X35158Y-23192D01*
X35125Y-23147D01*
X25970Y-52075D02*
X25684Y-52075D01*
X25684Y-51275D01*
X26170Y-51656D02*
X26370Y-51656D01*
X26455Y-52075D02*
X26170Y-52075D01*
X26170Y-51275D01*
X26455Y-51275D01*
X26712Y-52075D02*
X26712Y-51275D01*
X26855Y-51275D01*
X26941Y-51313D01*
X26998Y-51390D01*
X27027Y-51466D01*
X27055Y-51618D01*
X27055Y-51732D01*
X27027Y-51885D01*
X26998Y-51961D01*
X26941Y-52037D01*
X26855Y-52075D01*
X26712Y-52075D01*
X28027Y-51542D02*
X28027Y-52075D01*
X27884Y-51237D02*
X27741Y-51809D01*
X28112Y-51809D01*
G54D13*
X20393Y-22204D02*
X29606Y-22204D01*
X20393Y-27559D02*
X20393Y-22204D01*
X29606Y-27559D02*
X20393Y-27559D01*
X29606Y-22204D02*
X29606Y-27559D01*
X36220Y-61811D02*
X10629Y-61811D01*
X36220Y-21102D02*
X36220Y-61811D01*
X10629Y-21102D02*
X36220Y-21102D01*
X10629Y-61811D02*
X10629Y-21102D01*
G54D14*
X19488Y-24881D03*
X30508Y-24881D03*
G54D15*
X14976Y-47838D03*
X12976Y-47838D03*
X14976Y-44838D03*
X12976Y-44838D03*
X14976Y-43822D03*
X12976Y-43822D03*
X14976Y-40822D03*
X12976Y-40822D03*
X35555Y-41125D03*
X35555Y-43125D03*
X32555Y-41125D03*
X32555Y-43125D03*
X21775Y-50984D03*
X18775Y-50984D03*
X26181Y-43822D03*
X26181Y-40822D03*
X19216Y-41535D03*
X16216Y-41535D03*
G54D16*
X32767Y-45062D03*
G54D15*
X33767Y-45062D03*
X32767Y-46062D03*
X33767Y-46062D03*
X32767Y-47062D03*
X33767Y-47062D03*
G54D17*
X29984Y-50039D03*
G54D15*
X30984Y-50039D03*
X31984Y-50039D03*
G54D17*
X34750Y-22525D03*
G54D15*
X33750Y-22525D03*
X32750Y-22525D03*
G54D17*
X14074Y-28921D03*
G54D15*
X14074Y-29921D03*
X14074Y-30921D03*
G54D17*
X35452Y-26007D03*
G54D15*
X35452Y-27007D03*
X35452Y-28007D03*
G54D17*
X31889Y-29314D03*
G54D15*
X31889Y-30314D03*
X31889Y-31314D03*
G54D17*
X13750Y-24380D03*
G54D15*
X13750Y-25380D03*
X13750Y-26380D03*
G54D17*
X23925Y-51950D03*
G54D15*
X24925Y-51950D03*
G54D17*
X18307Y-37311D03*
G54D15*
X18307Y-36311D03*
G54D17*
X35433Y-30421D03*
G54D15*
X35433Y-29421D03*
G54D18*
X22736Y-60118D03*
X22736Y-60944D03*
X25098Y-60118D03*
X25098Y-60944D03*
X21555Y-60118D03*
X21555Y-60944D03*
X23917Y-60118D03*
X23917Y-60944D03*
G54D19*
X19925Y-37811D03*
G54D20*
X20425Y-35811D03*
X20925Y-37811D03*
X21425Y-35811D03*
X21925Y-37811D03*
X22425Y-35811D03*
X22925Y-37811D03*
X23425Y-35811D03*
X23925Y-37811D03*
X24425Y-35811D03*
X24925Y-37811D03*
X25425Y-35811D03*
X25925Y-37811D03*
X26425Y-35811D03*
X26925Y-37811D03*
G54D21*
X19106Y-47956D03*
X20106Y-47956D03*
X21106Y-47956D03*
X22106Y-47956D03*
X23106Y-47956D03*
X24106Y-47956D03*
X25106Y-47956D03*
X26106Y-47956D03*
X27106Y-47956D03*
X28106Y-47956D03*
X29106Y-47956D03*
X30106Y-47956D03*
X31106Y-47956D03*
G54D22*
X18106Y-47956D03*
G54D21*
X31106Y-44956D03*
X30106Y-44956D03*
X29106Y-44956D03*
X28106Y-44956D03*
X27106Y-44956D03*
X26106Y-44956D03*
X25106Y-44956D03*
X24106Y-44956D03*
X23106Y-44956D03*
X22106Y-44956D03*
X21106Y-44956D03*
X20106Y-44956D03*
X19106Y-44956D03*
X18106Y-44956D03*
G54D23*
X17125Y-33342D03*
G54D15*
X17125Y-36342D03*
G54D23*
X29724Y-33342D03*
G54D15*
X29724Y-36342D03*
G54D23*
X29724Y-37082D03*
G54D15*
X29724Y-40082D03*
G54D23*
X30708Y-37082D03*
G54D15*
X30708Y-40082D03*
G54D23*
X30708Y-33342D03*
G54D15*
X30708Y-36342D03*
G54D23*
X17125Y-37082D03*
G54D15*
X17125Y-40082D03*
G54D23*
X16141Y-37082D03*
G54D15*
X16141Y-40082D03*
G54D23*
X16141Y-33342D03*
G54D15*
X16141Y-36342D03*
G54D24*
X16650Y-22650D03*
G54D25*
X16650Y-26650D03*
G54D24*
X23590Y-39370D03*
G54D25*
X27590Y-39370D03*
G54D17*
X20244Y-33858D03*
G54D15*
X24244Y-33858D03*
G54D25*
X24106Y-49212D03*
X25106Y-49212D03*
X25106Y-43700D03*
X24106Y-43700D03*
X17283Y-51114D03*
X17283Y-52114D03*
X24106Y-42519D03*
X25106Y-42519D03*
G54D26*
X34260Y-38560D03*
G54D27*
X34251Y-36992D03*
G54D17*
X28543Y-36311D03*
G54D15*
X28543Y-37311D03*
G54D26*
X34580Y-50640D03*
G54D27*
X34566Y-49078D03*
G54D17*
X18578Y-52165D03*
G54D15*
X19578Y-52165D03*
X20578Y-52165D03*
X21578Y-52165D03*
G54D28*
X23425Y-24881D03*
G54D29*
X22244Y-49803D03*
X21062Y-49803D03*
X14960Y-39763D03*
X12598Y-53149D03*
X12598Y-59842D03*
X34251Y-59842D03*
X34251Y-53149D03*
G54D17*
X27165Y-43019D03*
G54D15*
X27165Y-42019D03*
X17725Y-26625D03*
X17725Y-23625D03*
X33070Y-28027D03*
X33070Y-31027D03*
X15650Y-27850D03*
X15650Y-24850D03*
X32475Y-23650D03*
X32475Y-26650D03*
X30800Y-29325D03*
X30800Y-32325D03*
X12893Y-31421D03*
X12893Y-28421D03*
X12510Y-24440D03*
X12510Y-27440D03*
X34025Y-23700D03*
X34025Y-26700D03*
G54D30*
X25098Y-57400D03*
X25098Y-58150D03*
X23917Y-57400D03*
X23917Y-58150D03*
X21555Y-57400D03*
X21555Y-58150D03*
X22736Y-57400D03*
X22736Y-58150D03*
G54D29*
X19291Y-43740D03*
X18110Y-43759D03*
X14625Y-48877D03*
X16220Y-49881D03*
X34015Y-32874D03*
X35000Y-33720D03*
G54D31*
X26000Y-29448D03*
G54D32*
X25500Y-29448D03*
X24500Y-29448D03*
X24000Y-29448D03*
G54D31*
X19700Y-29448D03*
G54D32*
X19200Y-29448D03*
X18200Y-29448D03*
X17700Y-29448D03*
G54D31*
X29149Y-29448D03*
G54D32*
X28649Y-29448D03*
X27649Y-29448D03*
X27149Y-29448D03*
G54D31*
X22850Y-29448D03*
G54D32*
X22350Y-29448D03*
X21350Y-29448D03*
X20850Y-29448D03*
G54D33*
X26456Y-56732D03*
X20433Y-58937D03*
X34020Y-25420D03*
X34250Y-31325D03*
X17775Y-40575D03*
X20375Y-53125D03*
X34960Y-45078D03*
X31929Y-43858D03*
X34675Y-28200D03*
X35314Y-47362D03*
X22150Y-33850D03*
X16300Y-32250D03*
X24405Y-36830D03*
X18425Y-33275D03*
X20675Y-39225D03*
X13925Y-53800D03*
X21400Y-40300D03*
X15350Y-54050D03*
X31614Y-40157D03*
X30984Y-42913D03*
X25450Y-36850D03*
X28700Y-42165D03*
X25157Y-56181D03*
X22900Y-50600D03*
X22716Y-56417D03*
X28425Y-46161D03*
X24925Y-50250D03*
X35325Y-32100D03*
X30625Y-45800D03*
X33779Y-44094D03*
X15475Y-31075D03*
X16775Y-30600D03*
X16775Y-29200D03*
X20275Y-43750D03*
X20075Y-41225D03*
X18075Y-39900D03*
X13850Y-31925D03*
X17500Y-27550D03*
X18550Y-39275D03*
X21175Y-41400D03*
X21100Y-43650D03*
X14775Y-26575D03*
X29975Y-30625D03*
X22100Y-43650D03*
X32225Y-27625D03*
X27930Y-31320D03*
X32825Y-31800D03*
X23100Y-43625D03*
X12940Y-32670D03*
X26811Y-58346D03*
X27700Y-33250D03*
X28900Y-31925D03*
X25100Y-31550D03*
X22725Y-31550D03*
X20075Y-31550D03*
X12200Y-40800D03*
X30255Y-41377D03*
X32047Y-48149D03*
X26225Y-31550D03*
X16875Y-28375D03*
X34251Y-40374D03*
X32480Y-49015D03*
X23937Y-53110D03*
G54D34*
X12630Y-41988D02*
X12288Y-41988D01*
X15650Y-23990D02*
X15650Y-24850D01*
X15000Y-23340D02*
X15650Y-23990D01*
X12370Y-23340D02*
X15000Y-23340D01*
X11550Y-24160D02*
X12370Y-23340D01*
X11550Y-41250D02*
X11550Y-24160D01*
X12288Y-41988D02*
X11550Y-41250D01*
X17020Y-30027D02*
X17737Y-30027D01*
X18190Y-31020D02*
X18200Y-31020D01*
X18190Y-30480D02*
X18190Y-31020D01*
X17737Y-30027D02*
X18190Y-30480D01*
X17700Y-29448D02*
X17700Y-29649D01*
X17700Y-29649D02*
X17322Y-30027D01*
X26500Y-32100D02*
X26580Y-32100D01*
X26910Y-29688D02*
X27149Y-29448D01*
X26910Y-31770D02*
X26910Y-29688D01*
X26580Y-32100D02*
X26910Y-31770D01*
X26520Y-56668D02*
X26520Y-53870D01*
X27650Y-52740D02*
X28598Y-52740D01*
X26520Y-53870D02*
X27650Y-52740D01*
X34921Y-52086D02*
X35177Y-52086D01*
X35177Y-52086D02*
X35452Y-51811D01*
X35452Y-51811D02*
X35452Y-48405D01*
X29251Y-52086D02*
X34921Y-52086D01*
X28598Y-52740D02*
X29251Y-52086D01*
X26456Y-56732D02*
X26520Y-56668D01*
X23385Y-32100D02*
X23766Y-32100D01*
X24000Y-31866D02*
X24000Y-29448D01*
X23766Y-32100D02*
X24000Y-31866D01*
X20354Y-32100D02*
X20655Y-32100D01*
X20850Y-31905D02*
X20850Y-29448D01*
X20655Y-32100D02*
X20850Y-31905D01*
X20393Y-58307D02*
X20393Y-56929D01*
X20393Y-56929D02*
X20393Y-54150D01*
X20433Y-58937D02*
X20393Y-58897D01*
X20393Y-58897D02*
X20393Y-58307D01*
X20393Y-54150D02*
X20393Y-53350D01*
X32790Y-26650D02*
X32475Y-26650D01*
X34020Y-25420D02*
X32790Y-26650D01*
X15650Y-24850D02*
X15650Y-24600D01*
X15650Y-24600D02*
X16625Y-23625D01*
X16625Y-23625D02*
X17725Y-23625D01*
X15650Y-24850D02*
X15650Y-26650D01*
X16125Y-29650D02*
X16502Y-30027D01*
X16502Y-30027D02*
X17020Y-30027D01*
X16125Y-28825D02*
X16125Y-29650D01*
X15650Y-26650D02*
X16325Y-27325D01*
X16325Y-27325D02*
X16325Y-28625D01*
X16325Y-28625D02*
X16125Y-28825D01*
X18200Y-31020D02*
X18200Y-31150D01*
X19550Y-32100D02*
X19125Y-31675D01*
X20354Y-32100D02*
X19550Y-32100D01*
X18725Y-31675D02*
X19125Y-31675D01*
X18200Y-31150D02*
X18725Y-31675D01*
X17020Y-30027D02*
X17322Y-30027D01*
X26500Y-32100D02*
X26350Y-32100D01*
X33952Y-31027D02*
X33070Y-31027D01*
X34250Y-31325D02*
X33952Y-31027D01*
X20925Y-32100D02*
X20354Y-32100D01*
X26350Y-32100D02*
X24149Y-32100D01*
X24149Y-32100D02*
X23385Y-32100D01*
X23385Y-32100D02*
X20925Y-32100D01*
X16225Y-40748D02*
X17601Y-40748D01*
X17601Y-40748D02*
X17775Y-40575D01*
X20393Y-53350D02*
X20393Y-53143D01*
X20393Y-53143D02*
X20375Y-53125D01*
X20393Y-53350D02*
X20393Y-53243D01*
X20400Y-53225D02*
X20393Y-53225D01*
X20400Y-53237D02*
X20400Y-53225D01*
X20393Y-53243D02*
X20400Y-53237D01*
X35314Y-48267D02*
X34960Y-48267D01*
X35452Y-48405D02*
X35452Y-51811D01*
X35314Y-48267D02*
X35452Y-48405D01*
X34960Y-48267D02*
X34729Y-48036D01*
X34729Y-48036D02*
X34729Y-45309D01*
X34729Y-45309D02*
X34960Y-45078D01*
X30708Y-44173D02*
X31535Y-44173D01*
X31850Y-43858D02*
X31929Y-43858D01*
X31535Y-44173D02*
X31850Y-43858D01*
X30669Y-44173D02*
X30708Y-44173D01*
X26181Y-43822D02*
X28586Y-43822D01*
X30669Y-44173D02*
X28937Y-44173D01*
X28586Y-43822D02*
X28937Y-44173D01*
X14665Y-41988D02*
X12630Y-41988D01*
X16225Y-40748D02*
X16023Y-40748D01*
X14783Y-41988D02*
X14665Y-41988D01*
X16023Y-40748D02*
X14783Y-41988D01*
X21775Y-50984D02*
X20472Y-50984D01*
X20472Y-50984D02*
X19350Y-49862D01*
X19350Y-49862D02*
X17362Y-49862D01*
X19035Y-41535D02*
X19216Y-41535D01*
X16279Y-44291D02*
X19035Y-41535D01*
X16279Y-48779D02*
X16279Y-44291D01*
X17362Y-49862D02*
X16279Y-48779D01*
G54D11*
X20472Y-50984D02*
X19350Y-49862D01*
G54D34*
X29400Y-21625D02*
X31425Y-21625D01*
X31740Y-24060D02*
X32205Y-24525D01*
X31740Y-21940D02*
X31740Y-24060D01*
X31425Y-21625D02*
X31740Y-21940D01*
X34675Y-24900D02*
X34675Y-28200D01*
X34300Y-24525D02*
X34675Y-24900D01*
X32205Y-24525D02*
X34300Y-24525D01*
X17450Y-21625D02*
X29400Y-21625D01*
X16650Y-22650D02*
X16650Y-22425D01*
X16650Y-22425D02*
X17450Y-21625D01*
X35787Y-44370D02*
X35787Y-44114D01*
X34685Y-30775D02*
X34685Y-28925D01*
X34921Y-31279D02*
X34685Y-31043D01*
X34685Y-31043D02*
X34685Y-30775D01*
X35708Y-31279D02*
X34921Y-31279D01*
X35866Y-31437D02*
X35708Y-31279D01*
X35866Y-39842D02*
X35866Y-31437D01*
X35314Y-47362D02*
X35787Y-46889D01*
X35610Y-40098D02*
X35866Y-39842D01*
X35236Y-40098D02*
X35610Y-40098D01*
X34940Y-40393D02*
X35236Y-40098D01*
X34940Y-43622D02*
X34940Y-40393D01*
X35137Y-43818D02*
X34940Y-43622D01*
X35492Y-43818D02*
X35137Y-43818D01*
X35787Y-46889D02*
X35787Y-44370D01*
X35787Y-44114D02*
X35492Y-43818D01*
X34685Y-28925D02*
X34685Y-28175D01*
X34685Y-28210D02*
X34675Y-28200D01*
X34685Y-28175D02*
X34685Y-28210D01*
X34685Y-28925D02*
X34685Y-28720D01*
X17400Y-32525D02*
X18725Y-32525D01*
X21375Y-33075D02*
X22150Y-33850D01*
X19275Y-33075D02*
X21375Y-33075D01*
X18725Y-32525D02*
X19275Y-33075D01*
X16300Y-32250D02*
X16575Y-32525D01*
X16575Y-32525D02*
X17400Y-32525D01*
X24405Y-36830D02*
X22225Y-36830D01*
X22225Y-36830D02*
X22225Y-36825D01*
X22225Y-36825D02*
X22225Y-36830D01*
X18464Y-34100D02*
X18464Y-33314D01*
X18464Y-33314D02*
X18425Y-33275D01*
X22225Y-36830D02*
X19862Y-36830D01*
X19862Y-36830D02*
X19055Y-36023D01*
X18464Y-34114D02*
X18464Y-34100D01*
X19055Y-34704D02*
X18464Y-34114D01*
X19055Y-36023D02*
X19055Y-34704D01*
X20050Y-39271D02*
X20628Y-39271D01*
X20628Y-39271D02*
X20675Y-39225D01*
X20628Y-39271D02*
X20675Y-39225D01*
X13937Y-53025D02*
X13937Y-52512D01*
X13937Y-53787D02*
X13937Y-53025D01*
X13925Y-53800D02*
X13937Y-53787D01*
X13937Y-52512D02*
X13937Y-42795D01*
X13937Y-42795D02*
X14153Y-42578D01*
X14153Y-42578D02*
X16555Y-42578D01*
X16555Y-42578D02*
X19862Y-39271D01*
X19862Y-39271D02*
X20050Y-39271D01*
G54D11*
X16555Y-42578D02*
X19862Y-39271D01*
G54D34*
X20850Y-40295D02*
X21395Y-40295D01*
X21395Y-40295D02*
X21400Y-40300D01*
X15354Y-53375D02*
X15354Y-52779D01*
X18484Y-41417D02*
X15787Y-44114D01*
X15787Y-44114D02*
X15787Y-48562D01*
X15787Y-48562D02*
X15354Y-48996D01*
X15354Y-48996D02*
X15354Y-52779D01*
X18484Y-41220D02*
X18484Y-41417D01*
X20850Y-40295D02*
X19409Y-40295D01*
X19409Y-40295D02*
X18484Y-41220D01*
X15350Y-54050D02*
X15354Y-54045D01*
X15354Y-54045D02*
X15354Y-53375D01*
X30994Y-40777D02*
X31614Y-40157D01*
X30994Y-42903D02*
X30994Y-40777D01*
X30984Y-42913D02*
X30994Y-42903D01*
X27105Y-36869D02*
X27696Y-37460D01*
X25469Y-36869D02*
X27105Y-36869D01*
X25450Y-36850D02*
X25469Y-36869D01*
X28661Y-38720D02*
X27696Y-37755D01*
X27696Y-37755D02*
X27696Y-37460D01*
X28661Y-38937D02*
X28661Y-38720D01*
X28700Y-42165D02*
X28661Y-42125D01*
X28661Y-42125D02*
X28661Y-38937D01*
X25098Y-56240D02*
X25098Y-57400D01*
X25157Y-56181D02*
X25098Y-56240D01*
X22937Y-50637D02*
X22937Y-55487D01*
X22900Y-50600D02*
X22937Y-50637D01*
X21555Y-56181D02*
X21555Y-57400D01*
X22066Y-55669D02*
X21555Y-56181D01*
X22755Y-55669D02*
X22066Y-55669D01*
X22937Y-55487D02*
X22755Y-55669D01*
X22716Y-56417D02*
X22736Y-56437D01*
X22736Y-56437D02*
X22736Y-57400D01*
X22736Y-57400D02*
X22736Y-56437D01*
X26775Y-46141D02*
X23966Y-46141D01*
X22775Y-48996D02*
X17165Y-48996D01*
X17165Y-48996D02*
X16771Y-48602D01*
X16771Y-48602D02*
X16771Y-47027D01*
X16771Y-47027D02*
X17657Y-46141D01*
X17657Y-46141D02*
X23464Y-46141D01*
X23464Y-46141D02*
X23966Y-46141D01*
X28405Y-46141D02*
X26775Y-46141D01*
X28425Y-46161D02*
X28405Y-46141D01*
X24225Y-50236D02*
X23523Y-50236D01*
X23523Y-50236D02*
X23110Y-49822D01*
X24911Y-50236D02*
X24225Y-50236D01*
X24925Y-50250D02*
X24911Y-50236D01*
X23523Y-50236D02*
X23110Y-49822D01*
X23110Y-49330D02*
X22775Y-48996D01*
X23110Y-49822D02*
X23110Y-49330D01*
G54D11*
X23129Y-49842D02*
X23523Y-50236D01*
X23129Y-49350D02*
X23129Y-49842D01*
X22775Y-48996D02*
X23129Y-49350D01*
G54D34*
X35114Y-31889D02*
X33543Y-31889D01*
X35325Y-32100D02*
X35114Y-31889D01*
X31929Y-45250D02*
X31929Y-45270D01*
X31400Y-45800D02*
X30625Y-45800D01*
X31929Y-45270D02*
X31400Y-45800D01*
X33149Y-43818D02*
X33503Y-43818D01*
X33503Y-43818D02*
X33779Y-44094D01*
X33602Y-43287D02*
X33602Y-40964D01*
X33602Y-40964D02*
X32559Y-39921D01*
X32559Y-39921D02*
X32559Y-32874D01*
X32559Y-32874D02*
X33543Y-31889D01*
X33149Y-43818D02*
X32775Y-43818D01*
X32775Y-43818D02*
X32736Y-43779D01*
X31929Y-45250D02*
X31929Y-44586D01*
X31929Y-44586D02*
X32736Y-43779D01*
X33110Y-43779D02*
X33602Y-43287D01*
X32736Y-43779D02*
X33110Y-43779D01*
X18200Y-29448D02*
X18200Y-29070D01*
X17095Y-28880D02*
X16775Y-29200D01*
X18010Y-28880D02*
X17095Y-28880D01*
X18200Y-29070D02*
X18010Y-28880D01*
X16300Y-31075D02*
X15475Y-31075D01*
X16775Y-30600D02*
X16300Y-31075D01*
X20075Y-41525D02*
X20075Y-41225D01*
X20275Y-41725D02*
X20075Y-41525D01*
X20275Y-43750D02*
X20275Y-41725D01*
X15000Y-38850D02*
X15000Y-38858D01*
X18075Y-39900D02*
X17033Y-38858D01*
X15575Y-38858D02*
X15008Y-38858D01*
X17033Y-38858D02*
X15575Y-38858D01*
X15008Y-38858D02*
X15000Y-38850D01*
X13850Y-33600D02*
X13858Y-33600D01*
X13858Y-33591D02*
X13850Y-33600D01*
X13858Y-31933D02*
X13858Y-33591D01*
X13850Y-31925D02*
X13858Y-31933D01*
X16948Y-38858D02*
X15000Y-38858D01*
X15000Y-38858D02*
X14527Y-38858D01*
X14527Y-38858D02*
X14125Y-38455D01*
X14125Y-38455D02*
X13858Y-38188D01*
X13858Y-38188D02*
X13858Y-33600D01*
X13858Y-33600D02*
X13858Y-32283D01*
G54D11*
X13858Y-38188D02*
X13858Y-32283D01*
X16948Y-38858D02*
X14527Y-38858D01*
X14527Y-38858D02*
X13858Y-38188D01*
G54D34*
X21350Y-29448D02*
X21350Y-29020D01*
X18790Y-27550D02*
X17500Y-27550D01*
X19930Y-28690D02*
X18790Y-27550D01*
X21020Y-28690D02*
X19930Y-28690D01*
X21350Y-29020D02*
X21020Y-28690D01*
X14775Y-26575D02*
X14775Y-37767D01*
X21122Y-42500D02*
X21122Y-41452D01*
X16450Y-38500D02*
X16450Y-38484D01*
X15492Y-38484D02*
X16450Y-38484D01*
X18550Y-39275D02*
X17759Y-38484D01*
X17759Y-38484D02*
X16465Y-38484D01*
X16465Y-38484D02*
X16450Y-38500D01*
X21122Y-41452D02*
X21175Y-41400D01*
X21122Y-43627D02*
X21122Y-42500D01*
X21100Y-43650D02*
X21122Y-43627D01*
X14775Y-37767D02*
X15492Y-38484D01*
X14875Y-26675D02*
X14875Y-31150D01*
X14775Y-26575D02*
X14875Y-26675D01*
X19560Y-32500D02*
X19730Y-32500D01*
X26920Y-32500D02*
X29575Y-32500D01*
X26790Y-32630D02*
X26920Y-32500D01*
X19860Y-32630D02*
X26790Y-32630D01*
X19730Y-32500D02*
X19860Y-32630D01*
X24500Y-29448D02*
X24500Y-28540D01*
X31720Y-28130D02*
X32225Y-27625D01*
X29500Y-28130D02*
X31720Y-28130D01*
X29350Y-28280D02*
X29500Y-28130D01*
X24760Y-28280D02*
X29350Y-28280D01*
X24500Y-28540D02*
X24760Y-28280D01*
X15850Y-31700D02*
X16475Y-31700D01*
X29625Y-32450D02*
X29575Y-32500D01*
X29625Y-32400D02*
X29625Y-32450D01*
X29975Y-30625D02*
X29950Y-30650D01*
X29950Y-30650D02*
X29950Y-32075D01*
X29950Y-32075D02*
X29625Y-32400D01*
X19560Y-32500D02*
X19275Y-32500D01*
X19275Y-32500D02*
X18875Y-32100D01*
X18875Y-32100D02*
X17175Y-32100D01*
X17175Y-32100D02*
X16800Y-31725D01*
X16800Y-31725D02*
X16500Y-31725D01*
X18149Y-38070D02*
X18799Y-38720D01*
X15807Y-38070D02*
X18149Y-38070D01*
X15295Y-37559D02*
X15807Y-38070D01*
X15295Y-32775D02*
X15295Y-37559D01*
X18799Y-38720D02*
X21259Y-38720D01*
X15295Y-32254D02*
X15850Y-31700D01*
X22598Y-40850D02*
X22598Y-40649D01*
X21259Y-38720D02*
X22598Y-40059D01*
X22598Y-40649D02*
X22598Y-40059D01*
X22100Y-43650D02*
X22100Y-42100D01*
X22100Y-42100D02*
X22600Y-41600D01*
X22600Y-41600D02*
X22600Y-40850D01*
X22600Y-40850D02*
X22598Y-40850D01*
X15295Y-32775D02*
X15295Y-32254D01*
X16475Y-31700D02*
X16500Y-31725D01*
X27649Y-31039D02*
X27649Y-29448D01*
X27930Y-31320D02*
X27649Y-31039D01*
X32125Y-32677D02*
X32125Y-32499D01*
X32125Y-32499D02*
X32825Y-31800D01*
X24575Y-40500D02*
X24575Y-40503D01*
X23101Y-41973D02*
X24575Y-40500D01*
X23101Y-43623D02*
X23101Y-41973D01*
X23100Y-43625D02*
X23101Y-43623D01*
X30511Y-43641D02*
X31200Y-43641D01*
X24575Y-40503D02*
X24842Y-40236D01*
X24842Y-40236D02*
X27578Y-40236D01*
X27578Y-40236D02*
X28149Y-40807D01*
X28149Y-40807D02*
X28149Y-42421D01*
X28149Y-42421D02*
X29370Y-43641D01*
X29370Y-43641D02*
X30511Y-43641D01*
X31653Y-41043D02*
X32125Y-40570D01*
X32125Y-40570D02*
X32125Y-32677D01*
X31200Y-43641D02*
X31653Y-43188D01*
X31653Y-43188D02*
X31653Y-41043D01*
X12200Y-40800D02*
X12200Y-36430D01*
X12940Y-35690D02*
X12940Y-32670D01*
X12200Y-36430D02*
X12940Y-35690D01*
X28900Y-31925D02*
X28900Y-30320D01*
X28649Y-30069D02*
X28649Y-29448D01*
X28900Y-30320D02*
X28649Y-30069D01*
X26141Y-60944D02*
X26299Y-60944D01*
X26850Y-58385D02*
X26811Y-58346D01*
X26850Y-60393D02*
X26850Y-58385D01*
X26299Y-60944D02*
X26850Y-60393D01*
X19200Y-29448D02*
X19200Y-30342D01*
X25500Y-30196D02*
X25500Y-29448D01*
X22350Y-30118D02*
X22350Y-29448D01*
X24244Y-33858D02*
X27091Y-33858D01*
X27091Y-33858D02*
X27700Y-33250D01*
X25500Y-30027D02*
X25500Y-30196D01*
X25500Y-30196D02*
X25500Y-31100D01*
X25100Y-31500D02*
X25100Y-31550D01*
X25500Y-31100D02*
X25100Y-31500D01*
X22350Y-30027D02*
X22350Y-30118D01*
X22350Y-30118D02*
X22350Y-31175D01*
X22350Y-31175D02*
X22725Y-31550D01*
X19200Y-30027D02*
X19200Y-30342D01*
X19200Y-30342D02*
X19200Y-30675D01*
X19200Y-30675D02*
X20075Y-31550D01*
X30314Y-40476D02*
X30708Y-40082D01*
X30314Y-41318D02*
X30314Y-40476D01*
X30255Y-41377D02*
X30314Y-41318D01*
X31259Y-48759D02*
X31437Y-48759D01*
X31437Y-48759D02*
X32047Y-48149D01*
X21555Y-60944D02*
X22736Y-60944D01*
X25559Y-48759D02*
X25106Y-49212D01*
X31259Y-48759D02*
X25559Y-48759D01*
X25098Y-60944D02*
X26141Y-60944D01*
X23917Y-60944D02*
X25098Y-60944D01*
X22736Y-60944D02*
X23917Y-60944D01*
X29149Y-29448D02*
X29191Y-29448D01*
X32548Y-28550D02*
X33070Y-28027D01*
X30090Y-28550D02*
X32548Y-28550D01*
X29191Y-29448D02*
X30090Y-28550D01*
X22850Y-29448D02*
X22850Y-29100D01*
X18625Y-26625D02*
X17725Y-26625D01*
X20230Y-28230D02*
X18625Y-26625D01*
X21980Y-28230D02*
X20230Y-28230D01*
X22850Y-29100D02*
X21980Y-28230D01*
X17750Y-26600D02*
X17725Y-26625D01*
X26225Y-31550D02*
X26225Y-29673D01*
X26225Y-29673D02*
X26000Y-29448D01*
X19700Y-29448D02*
X19700Y-29120D01*
X18955Y-28375D02*
X16875Y-28375D01*
X19700Y-29120D02*
X18955Y-28375D01*
X34409Y-40708D02*
X34409Y-40531D01*
X34409Y-40531D02*
X34251Y-40374D01*
X32480Y-49015D02*
X33031Y-49015D01*
X34409Y-40531D02*
X34251Y-40374D01*
X34409Y-47637D02*
X34409Y-40708D01*
X33031Y-49015D02*
X34409Y-47637D01*
X23917Y-53425D02*
X23917Y-53129D01*
X23917Y-53129D02*
X23937Y-53110D01*
X23917Y-57400D02*
X23917Y-53425D01*
X25098Y-60118D02*
X25098Y-58150D01*
X22736Y-58150D02*
X22736Y-60118D01*
X21555Y-60118D02*
X21555Y-58150D01*
X23917Y-58150D02*
X23917Y-60118D01*
G54D10*
G36*
X13301Y-23740D02*
X13225Y-23771D01*
X13141Y-23855D01*
X13095Y-23965D01*
X13095Y-24085D01*
X13095Y-24143D01*
X13065Y-24069D01*
X12881Y-23885D01*
X12640Y-23785D01*
X12490Y-23785D01*
X12535Y-23740D01*
X13301Y-23740D01*
X13301Y-23740D01*
G37*
G54D35*
X13301Y-23740D02*
X13225Y-23771D01*
X13141Y-23855D01*
X13095Y-23965D01*
X13095Y-24085D01*
X13095Y-24143D01*
X13065Y-24069D01*
X12881Y-23885D01*
X12640Y-23785D01*
X12490Y-23785D01*
X12535Y-23740D01*
X13301Y-23740D01*
G54D10*
G36*
X13537Y-44481D02*
X13531Y-44468D01*
X13393Y-44330D01*
X13530Y-44193D01*
X13537Y-44178D01*
X13537Y-44481D01*
X13537Y-44481D01*
G37*
G54D35*
X13537Y-44481D02*
X13531Y-44468D01*
X13393Y-44330D01*
X13530Y-44193D01*
X13537Y-44178D01*
X13537Y-44481D01*
G54D10*
G36*
X13537Y-48408D02*
X13309Y-48408D01*
X13346Y-48393D01*
X13530Y-48209D01*
X13537Y-48194D01*
X13537Y-48408D01*
X13537Y-48408D01*
G37*
G54D35*
X13537Y-48408D02*
X13309Y-48408D01*
X13346Y-48393D01*
X13530Y-48209D01*
X13537Y-48194D01*
X13537Y-48408D01*
G54D10*
G36*
X13624Y-31396D02*
X13548Y-31427D01*
X13548Y-31319D01*
X13624Y-31396D01*
X13624Y-31396D01*
G37*
G54D35*
X13624Y-31396D02*
X13548Y-31427D01*
X13548Y-31319D01*
X13624Y-31396D01*
G54D10*
G36*
X13649Y-30421D02*
X13520Y-30550D01*
X13420Y-30790D01*
X13420Y-31022D01*
X13264Y-30866D01*
X13024Y-30767D01*
X12764Y-30766D01*
X12523Y-30866D01*
X12339Y-31050D01*
X12239Y-31290D01*
X12239Y-31550D01*
X12338Y-31791D01*
X12522Y-31975D01*
X12762Y-32075D01*
X13023Y-32075D01*
X13263Y-31976D01*
X13274Y-31965D01*
X13274Y-32038D01*
X13362Y-32250D01*
X13458Y-32346D01*
X13458Y-32418D01*
X13427Y-32344D01*
X13266Y-32182D01*
X13054Y-32095D01*
X12826Y-32094D01*
X12614Y-32182D01*
X12452Y-32343D01*
X12365Y-32555D01*
X12364Y-32783D01*
X12452Y-32995D01*
X12540Y-33083D01*
X12540Y-35524D01*
X11950Y-36114D01*
X11950Y-27798D01*
X11954Y-27810D01*
X12138Y-27994D01*
X12329Y-28073D01*
X12239Y-28290D01*
X12239Y-28550D01*
X12338Y-28791D01*
X12522Y-28975D01*
X12762Y-29075D01*
X13023Y-29075D01*
X13263Y-28976D01*
X13420Y-28820D01*
X13420Y-29335D01*
X13465Y-29445D01*
X13545Y-29525D01*
X13520Y-29550D01*
X13420Y-29790D01*
X13420Y-30050D01*
X13519Y-30291D01*
X13649Y-30421D01*
X13649Y-30421D01*
G37*
G54D35*
X13649Y-30421D02*
X13520Y-30550D01*
X13420Y-30790D01*
X13420Y-31022D01*
X13264Y-30866D01*
X13024Y-30767D01*
X12764Y-30766D01*
X12523Y-30866D01*
X12339Y-31050D01*
X12239Y-31290D01*
X12239Y-31550D01*
X12338Y-31791D01*
X12522Y-31975D01*
X12762Y-32075D01*
X13023Y-32075D01*
X13263Y-31976D01*
X13274Y-31965D01*
X13274Y-32038D01*
X13362Y-32250D01*
X13458Y-32346D01*
X13458Y-32418D01*
X13427Y-32344D01*
X13266Y-32182D01*
X13054Y-32095D01*
X12826Y-32094D01*
X12614Y-32182D01*
X12452Y-32343D01*
X12365Y-32555D01*
X12364Y-32783D01*
X12452Y-32995D01*
X12540Y-33083D01*
X12540Y-35524D01*
X11950Y-36114D01*
X11950Y-27798D01*
X11954Y-27810D01*
X12138Y-27994D01*
X12329Y-28073D01*
X12239Y-28290D01*
X12239Y-28550D01*
X12338Y-28791D01*
X12522Y-28975D01*
X12762Y-29075D01*
X13023Y-29075D01*
X13263Y-28976D01*
X13420Y-28820D01*
X13420Y-29335D01*
X13465Y-29445D01*
X13545Y-29525D01*
X13520Y-29550D01*
X13420Y-29790D01*
X13420Y-30050D01*
X13519Y-30291D01*
X13649Y-30421D01*
G54D10*
G36*
X14375Y-28266D02*
X14369Y-28266D01*
X13661Y-28266D01*
X13550Y-28312D01*
X13548Y-28315D01*
X13548Y-28291D01*
X13448Y-28051D01*
X13264Y-27866D01*
X13074Y-27787D01*
X13164Y-27570D01*
X13164Y-27310D01*
X13065Y-27069D01*
X12881Y-26885D01*
X12640Y-26785D01*
X12380Y-26785D01*
X12139Y-26884D01*
X11955Y-27068D01*
X11950Y-27082D01*
X11950Y-24798D01*
X11954Y-24810D01*
X12138Y-24994D01*
X12379Y-25094D01*
X12639Y-25094D01*
X12880Y-24995D01*
X13064Y-24811D01*
X13095Y-24735D01*
X13095Y-24793D01*
X13141Y-24904D01*
X13220Y-24983D01*
X13195Y-25008D01*
X13095Y-25249D01*
X13095Y-25509D01*
X13194Y-25750D01*
X13324Y-25880D01*
X13195Y-26008D01*
X13095Y-26249D01*
X13095Y-26509D01*
X13194Y-26750D01*
X13378Y-26934D01*
X13619Y-27034D01*
X13879Y-27034D01*
X14120Y-26935D01*
X14248Y-26806D01*
X14287Y-26900D01*
X14375Y-26988D01*
X14375Y-28266D01*
X14375Y-28266D01*
G37*
G54D35*
X14375Y-28266D02*
X14369Y-28266D01*
X13661Y-28266D01*
X13550Y-28312D01*
X13548Y-28315D01*
X13548Y-28291D01*
X13448Y-28051D01*
X13264Y-27866D01*
X13074Y-27787D01*
X13164Y-27570D01*
X13164Y-27310D01*
X13065Y-27069D01*
X12881Y-26885D01*
X12640Y-26785D01*
X12380Y-26785D01*
X12139Y-26884D01*
X11955Y-27068D01*
X11950Y-27082D01*
X11950Y-24798D01*
X11954Y-24810D01*
X12138Y-24994D01*
X12379Y-25094D01*
X12639Y-25094D01*
X12880Y-24995D01*
X13064Y-24811D01*
X13095Y-24735D01*
X13095Y-24793D01*
X13141Y-24904D01*
X13220Y-24983D01*
X13195Y-25008D01*
X13095Y-25249D01*
X13095Y-25509D01*
X13194Y-25750D01*
X13324Y-25880D01*
X13195Y-26008D01*
X13095Y-26249D01*
X13095Y-26509D01*
X13194Y-26750D01*
X13378Y-26934D01*
X13619Y-27034D01*
X13879Y-27034D01*
X14120Y-26935D01*
X14248Y-26806D01*
X14287Y-26900D01*
X14375Y-26988D01*
X14375Y-28266D01*
G54D10*
G36*
X14375Y-31689D02*
X14337Y-31599D01*
X14281Y-31543D01*
X14375Y-31505D01*
X14375Y-31689D01*
X14375Y-31689D01*
G37*
G54D35*
X14375Y-31689D02*
X14337Y-31599D01*
X14281Y-31543D01*
X14375Y-31505D01*
X14375Y-31689D01*
G54D10*
G36*
X14423Y-48210D02*
X14337Y-48246D01*
X14337Y-48004D01*
X14421Y-48208D01*
X14423Y-48210D01*
X14423Y-48210D01*
G37*
G54D35*
X14423Y-48210D02*
X14337Y-48246D01*
X14337Y-48004D01*
X14421Y-48208D01*
X14423Y-48210D01*
G54D10*
G36*
X14558Y-44330D02*
X14421Y-44467D01*
X14337Y-44672D01*
X14337Y-43988D01*
X14421Y-44192D01*
X14558Y-44330D01*
X14558Y-44330D01*
G37*
G54D35*
X14558Y-44330D02*
X14421Y-44467D01*
X14337Y-44672D01*
X14337Y-43988D01*
X14421Y-44192D01*
X14558Y-44330D01*
G54D10*
G36*
X14763Y-41442D02*
X14617Y-41588D01*
X12630Y-41588D01*
X12453Y-41588D01*
X12240Y-41375D01*
X12313Y-41375D01*
X12518Y-41290D01*
X12605Y-41377D01*
X12845Y-41477D01*
X13105Y-41477D01*
X13346Y-41377D01*
X13530Y-41193D01*
X13630Y-40953D01*
X13630Y-40693D01*
X13531Y-40452D01*
X13347Y-40268D01*
X13107Y-40168D01*
X12846Y-40168D01*
X12606Y-40267D01*
X12600Y-40273D01*
X12600Y-36595D01*
X13222Y-35972D01*
X13222Y-35972D01*
X13280Y-35886D01*
X13309Y-35843D01*
X13309Y-35843D01*
X13339Y-35690D01*
X13340Y-35690D01*
X13340Y-33083D01*
X13427Y-32996D01*
X13458Y-32921D01*
X13458Y-33558D01*
X13450Y-33600D01*
X13458Y-33641D01*
X13458Y-38188D01*
X13483Y-38316D01*
X13488Y-38342D01*
X13575Y-38471D01*
X13842Y-38738D01*
X13842Y-38738D01*
X13842Y-38738D01*
X14244Y-39141D01*
X14244Y-39141D01*
X14331Y-39199D01*
X14374Y-39227D01*
X14374Y-39227D01*
X14492Y-39251D01*
X14372Y-39370D01*
X14267Y-39625D01*
X14266Y-39901D01*
X14372Y-40156D01*
X14544Y-40329D01*
X14421Y-40451D01*
X14322Y-40692D01*
X14321Y-40952D01*
X14421Y-41192D01*
X14605Y-41377D01*
X14763Y-41442D01*
X14763Y-41442D01*
G37*
G54D35*
X14763Y-41442D02*
X14617Y-41588D01*
X12630Y-41588D01*
X12453Y-41588D01*
X12240Y-41375D01*
X12313Y-41375D01*
X12518Y-41290D01*
X12605Y-41377D01*
X12845Y-41477D01*
X13105Y-41477D01*
X13346Y-41377D01*
X13530Y-41193D01*
X13630Y-40953D01*
X13630Y-40693D01*
X13531Y-40452D01*
X13347Y-40268D01*
X13107Y-40168D01*
X12846Y-40168D01*
X12606Y-40267D01*
X12600Y-40273D01*
X12600Y-36595D01*
X13222Y-35972D01*
X13222Y-35972D01*
X13280Y-35886D01*
X13309Y-35843D01*
X13309Y-35843D01*
X13339Y-35690D01*
X13340Y-35690D01*
X13340Y-33083D01*
X13427Y-32996D01*
X13458Y-32921D01*
X13458Y-33558D01*
X13450Y-33600D01*
X13458Y-33641D01*
X13458Y-38188D01*
X13483Y-38316D01*
X13488Y-38342D01*
X13575Y-38471D01*
X13842Y-38738D01*
X13842Y-38738D01*
X13842Y-38738D01*
X14244Y-39141D01*
X14244Y-39141D01*
X14331Y-39199D01*
X14374Y-39227D01*
X14374Y-39227D01*
X14492Y-39251D01*
X14372Y-39370D01*
X14267Y-39625D01*
X14266Y-39901D01*
X14372Y-40156D01*
X14544Y-40329D01*
X14421Y-40451D01*
X14322Y-40692D01*
X14321Y-40952D01*
X14421Y-41192D01*
X14605Y-41377D01*
X14763Y-41442D01*
G54D10*
G36*
X14900Y-38458D02*
X14693Y-38458D01*
X14407Y-38172D01*
X14407Y-38172D01*
X14407Y-38172D01*
X14258Y-38023D01*
X14258Y-33600D01*
X14258Y-33591D01*
X14258Y-32329D01*
X14337Y-32251D01*
X14375Y-32160D01*
X14375Y-37767D01*
X14400Y-37894D01*
X14405Y-37920D01*
X14492Y-38049D01*
X14900Y-38458D01*
X14900Y-38458D01*
G37*
G54D35*
X14900Y-38458D02*
X14693Y-38458D01*
X14407Y-38172D01*
X14407Y-38172D01*
X14407Y-38172D01*
X14258Y-38023D01*
X14258Y-33600D01*
X14258Y-33591D01*
X14258Y-32329D01*
X14337Y-32251D01*
X14375Y-32160D01*
X14375Y-37767D01*
X14400Y-37894D01*
X14405Y-37920D01*
X14492Y-38049D01*
X14900Y-38458D01*
G54D10*
G36*
X15250Y-26236D02*
X15101Y-26087D01*
X14889Y-26000D01*
X14661Y-25999D01*
X14449Y-26087D01*
X14369Y-26166D01*
X14305Y-26009D01*
X14175Y-25879D01*
X14304Y-25751D01*
X14404Y-25510D01*
X14404Y-25250D01*
X14305Y-25009D01*
X14279Y-24983D01*
X14358Y-24904D01*
X14404Y-24794D01*
X14404Y-24674D01*
X14404Y-23966D01*
X14358Y-23855D01*
X14274Y-23771D01*
X14198Y-23740D01*
X14834Y-23740D01*
X15250Y-24155D01*
X15250Y-24324D01*
X15095Y-24478D01*
X14995Y-24719D01*
X14995Y-24979D01*
X15094Y-25220D01*
X15250Y-25375D01*
X15250Y-26236D01*
X15250Y-26236D01*
G37*
G54D35*
X15250Y-26236D02*
X15101Y-26087D01*
X14889Y-26000D01*
X14661Y-25999D01*
X14449Y-26087D01*
X14369Y-26166D01*
X14305Y-26009D01*
X14175Y-25879D01*
X14304Y-25751D01*
X14404Y-25510D01*
X14404Y-25250D01*
X14305Y-25009D01*
X14279Y-24983D01*
X14358Y-24904D01*
X14404Y-24794D01*
X14404Y-24674D01*
X14404Y-23966D01*
X14358Y-23855D01*
X14274Y-23771D01*
X14198Y-23740D01*
X14834Y-23740D01*
X15250Y-24155D01*
X15250Y-24324D01*
X15095Y-24478D01*
X14995Y-24719D01*
X14995Y-24979D01*
X15094Y-25220D01*
X15250Y-25375D01*
X15250Y-26236D01*
G54D10*
G36*
X15341Y-31642D02*
X15175Y-31809D01*
X15175Y-31573D01*
X15341Y-31642D01*
X15341Y-31642D01*
G37*
G54D35*
X15341Y-31642D02*
X15175Y-31809D01*
X15175Y-31573D01*
X15341Y-31642D01*
G54D10*
G36*
X15387Y-47324D02*
X15347Y-47284D01*
X15107Y-47184D01*
X14846Y-47184D01*
X14606Y-47283D01*
X14421Y-47467D01*
X14337Y-47672D01*
X14337Y-45004D01*
X14421Y-45208D01*
X14605Y-45392D01*
X14845Y-45492D01*
X15105Y-45493D01*
X15346Y-45393D01*
X15387Y-45352D01*
X15387Y-47324D01*
X15387Y-47324D01*
G37*
G54D35*
X15387Y-47324D02*
X15347Y-47284D01*
X15107Y-47184D01*
X14846Y-47184D01*
X14606Y-47283D01*
X14421Y-47467D01*
X14337Y-47672D01*
X14337Y-45004D01*
X14421Y-45208D01*
X14605Y-45392D01*
X14845Y-45492D01*
X15105Y-45493D01*
X15346Y-45393D01*
X15387Y-45352D01*
X15387Y-47324D01*
G54D10*
G36*
X15387Y-48397D02*
X15239Y-48545D01*
X15214Y-48485D01*
X15188Y-48459D01*
X15346Y-48393D01*
X15387Y-48352D01*
X15387Y-48397D01*
X15387Y-48397D01*
G37*
G54D35*
X15387Y-48397D02*
X15239Y-48545D01*
X15214Y-48485D01*
X15188Y-48459D01*
X15346Y-48393D01*
X15387Y-48352D01*
X15387Y-48397D01*
G54D10*
G36*
X15629Y-27195D02*
X15520Y-27195D01*
X15279Y-27294D01*
X15275Y-27299D01*
X15275Y-26870D01*
X15294Y-26823D01*
X15367Y-26932D01*
X15629Y-27195D01*
X15629Y-27195D01*
G37*
G54D35*
X15629Y-27195D02*
X15520Y-27195D01*
X15279Y-27294D01*
X15275Y-27299D01*
X15275Y-26870D01*
X15294Y-26823D01*
X15367Y-26932D01*
X15629Y-27195D01*
G54D10*
G36*
X15669Y-40536D02*
X15596Y-40609D01*
X15531Y-40452D01*
X15392Y-40313D01*
X15489Y-40216D01*
X15586Y-40452D01*
X15669Y-40536D01*
X15669Y-40536D01*
G37*
G54D35*
X15669Y-40536D02*
X15596Y-40609D01*
X15531Y-40452D01*
X15392Y-40313D01*
X15489Y-40216D01*
X15586Y-40452D01*
X15669Y-40536D01*
G54D10*
G36*
X15924Y-32688D02*
X15747Y-32688D01*
X15695Y-32709D01*
X15695Y-32420D01*
X15732Y-32382D01*
X15812Y-32575D01*
X15924Y-32688D01*
X15924Y-32688D01*
G37*
G54D35*
X15924Y-32688D02*
X15747Y-32688D01*
X15695Y-32709D01*
X15695Y-32420D01*
X15732Y-32382D01*
X15812Y-32575D01*
X15924Y-32688D01*
G54D10*
G36*
X16059Y-42178D02*
X15158Y-42178D01*
X15594Y-41743D01*
X15661Y-41905D01*
X15845Y-42089D01*
X16059Y-42178D01*
X16059Y-42178D01*
G37*
G54D35*
X16059Y-42178D02*
X15158Y-42178D01*
X15594Y-41743D01*
X15661Y-41905D01*
X15845Y-42089D01*
X16059Y-42178D01*
G54D10*
G36*
X16122Y-49188D02*
X16083Y-49188D01*
X15828Y-49293D01*
X15754Y-49367D01*
X15754Y-49161D01*
X15939Y-48976D01*
X15996Y-49062D01*
X16122Y-49188D01*
X16122Y-49188D01*
G37*
G54D35*
X16122Y-49188D02*
X16083Y-49188D01*
X15828Y-49293D01*
X15754Y-49367D01*
X15754Y-49161D01*
X15939Y-48976D01*
X15996Y-49062D01*
X16122Y-49188D01*
G54D10*
G36*
X16261Y-30338D02*
X16200Y-30485D01*
X16199Y-30609D01*
X16134Y-30675D01*
X15888Y-30675D01*
X15801Y-30587D01*
X15589Y-30500D01*
X15361Y-30499D01*
X15275Y-30535D01*
X15275Y-28400D01*
X15278Y-28404D01*
X15519Y-28504D01*
X15779Y-28504D01*
X15925Y-28444D01*
X15925Y-28459D01*
X15842Y-28542D01*
X15755Y-28671D01*
X15750Y-28697D01*
X15725Y-28825D01*
X15725Y-29650D01*
X15750Y-29777D01*
X15755Y-29803D01*
X15842Y-29932D01*
X16219Y-30310D01*
X16219Y-30310D01*
X16261Y-30338D01*
X16261Y-30338D01*
X16261Y-30338D01*
G37*
G54D35*
X16261Y-30338D02*
X16200Y-30485D01*
X16199Y-30609D01*
X16134Y-30675D01*
X15888Y-30675D01*
X15801Y-30587D01*
X15589Y-30500D01*
X15361Y-30499D01*
X15275Y-30535D01*
X15275Y-28400D01*
X15278Y-28404D01*
X15519Y-28504D01*
X15779Y-28504D01*
X15925Y-28444D01*
X15925Y-28459D01*
X15842Y-28542D01*
X15755Y-28671D01*
X15750Y-28697D01*
X15725Y-28825D01*
X15725Y-29650D01*
X15750Y-29777D01*
X15755Y-29803D01*
X15842Y-29932D01*
X16219Y-30310D01*
X16219Y-30310D01*
X16261Y-30338D01*
X16261Y-30338D01*
G54D10*
G36*
X16357Y-42978D02*
X15630Y-43705D01*
X15630Y-43693D01*
X15531Y-43452D01*
X15347Y-43268D01*
X15107Y-43168D01*
X14846Y-43168D01*
X14606Y-43267D01*
X14421Y-43451D01*
X14337Y-43656D01*
X14337Y-42978D01*
X16357Y-42978D01*
X16357Y-42978D01*
G37*
G54D35*
X16357Y-42978D02*
X15630Y-43705D01*
X15630Y-43693D01*
X15531Y-43452D01*
X15347Y-43268D01*
X15107Y-43168D01*
X14846Y-43168D01*
X14606Y-43267D01*
X14421Y-43451D01*
X14337Y-43656D01*
X14337Y-42978D01*
X16357Y-42978D01*
G54D10*
G36*
X16400Y-42167D02*
X16389Y-42178D01*
X16373Y-42178D01*
X16400Y-42167D01*
X16400Y-42167D01*
G37*
G54D35*
X16400Y-42167D02*
X16389Y-42178D01*
X16373Y-42178D01*
X16400Y-42167D01*
G54D10*
G36*
X17037Y-39428D02*
X16996Y-39428D01*
X16755Y-39527D01*
X16633Y-39649D01*
X16512Y-39528D01*
X16272Y-39428D01*
X16012Y-39428D01*
X15771Y-39527D01*
X15654Y-39644D01*
X15654Y-39626D01*
X15549Y-39371D01*
X15436Y-39258D01*
X15575Y-39258D01*
X16867Y-39258D01*
X17037Y-39428D01*
X17037Y-39428D01*
G37*
G54D35*
X17037Y-39428D02*
X16996Y-39428D01*
X16755Y-39527D01*
X16633Y-39649D01*
X16512Y-39528D01*
X16272Y-39428D01*
X16012Y-39428D01*
X15771Y-39527D01*
X15654Y-39644D01*
X15654Y-39626D01*
X15549Y-39371D01*
X15436Y-39258D01*
X15575Y-39258D01*
X16867Y-39258D01*
X17037Y-39428D01*
G54D10*
G36*
X17218Y-27044D02*
X17174Y-27062D01*
X17012Y-27223D01*
X16925Y-27435D01*
X16924Y-27663D01*
X16981Y-27800D01*
X16761Y-27799D01*
X16725Y-27814D01*
X16725Y-27325D01*
X16716Y-27284D01*
X16775Y-27284D01*
X17009Y-27188D01*
X17186Y-27011D01*
X17218Y-27044D01*
X17218Y-27044D01*
G37*
G54D35*
X17218Y-27044D02*
X17174Y-27062D01*
X17012Y-27223D01*
X16925Y-27435D01*
X16924Y-27663D01*
X16981Y-27800D01*
X16761Y-27799D01*
X16725Y-27814D01*
X16725Y-27325D01*
X16716Y-27284D01*
X16775Y-27284D01*
X17009Y-27188D01*
X17186Y-27011D01*
X17218Y-27044D01*
G54D10*
G36*
X17420Y-41148D02*
X16848Y-41719D01*
X16870Y-41666D01*
X16870Y-41405D01*
X16771Y-41165D01*
X16754Y-41148D01*
X17420Y-41148D01*
X17420Y-41148D01*
G37*
G54D35*
X17420Y-41148D02*
X16848Y-41719D01*
X16870Y-41666D01*
X16870Y-41405D01*
X16771Y-41165D01*
X16754Y-41148D01*
X17420Y-41148D01*
G54D10*
G36*
X17652Y-37670D02*
X17650Y-37670D01*
X17652Y-37669D01*
X17652Y-37670D01*
X17652Y-37670D01*
G37*
G54D35*
X17652Y-37670D02*
X17650Y-37670D01*
X17652Y-37669D01*
X17652Y-37670D01*
G54D10*
G36*
X17778Y-36707D02*
X17760Y-36724D01*
X17760Y-36689D01*
X17778Y-36707D01*
X17778Y-36707D01*
G37*
G54D35*
X17778Y-36707D02*
X17760Y-36724D01*
X17760Y-36689D01*
X17778Y-36707D01*
G54D10*
G36*
X18184Y-31700D02*
X17340Y-31700D01*
X17082Y-31442D01*
X16953Y-31355D01*
X16927Y-31350D01*
X16800Y-31325D01*
X16615Y-31325D01*
X16765Y-31174D01*
X16888Y-31175D01*
X17100Y-31087D01*
X17262Y-30926D01*
X17349Y-30714D01*
X17350Y-30486D01*
X17325Y-30427D01*
X17571Y-30427D01*
X17790Y-30645D01*
X17790Y-31020D01*
X17800Y-31074D01*
X17800Y-31150D01*
X17826Y-31278D01*
X17831Y-31303D01*
X17917Y-31433D01*
X18184Y-31700D01*
X18184Y-31700D01*
G37*
G54D35*
X18184Y-31700D02*
X17340Y-31700D01*
X17082Y-31442D01*
X16953Y-31355D01*
X16927Y-31350D01*
X16800Y-31325D01*
X16615Y-31325D01*
X16765Y-31174D01*
X16888Y-31175D01*
X17100Y-31087D01*
X17262Y-30926D01*
X17349Y-30714D01*
X17350Y-30486D01*
X17325Y-30427D01*
X17571Y-30427D01*
X17790Y-30645D01*
X17790Y-31020D01*
X17800Y-31074D01*
X17800Y-31150D01*
X17826Y-31278D01*
X17831Y-31303D01*
X17917Y-31433D01*
X18184Y-31700D01*
G54D10*
G36*
X18584Y-27150D02*
X18125Y-27150D01*
X18250Y-27025D01*
X18459Y-27025D01*
X18584Y-27150D01*
X18584Y-27150D01*
G37*
G54D35*
X18584Y-27150D02*
X18125Y-27150D01*
X18250Y-27025D01*
X18459Y-27025D01*
X18584Y-27150D01*
G54D10*
G36*
X18649Y-27975D02*
X17888Y-27975D01*
X17913Y-27950D01*
X18624Y-27950D01*
X18649Y-27975D01*
X18649Y-27975D01*
G37*
G54D35*
X18649Y-27975D02*
X17888Y-27975D01*
X17913Y-27950D01*
X18624Y-27950D01*
X18649Y-27975D01*
G54D10*
G36*
X18655Y-35747D02*
X18437Y-35656D01*
X18177Y-35656D01*
X17936Y-35755D01*
X17752Y-35939D01*
X17710Y-36042D01*
X17681Y-35972D01*
X17497Y-35788D01*
X17256Y-35688D01*
X16996Y-35688D01*
X16755Y-35787D01*
X16633Y-35909D01*
X16512Y-35788D01*
X16272Y-35688D01*
X16012Y-35688D01*
X15771Y-35787D01*
X15695Y-35863D01*
X15695Y-33975D01*
X15747Y-33996D01*
X15866Y-33996D01*
X16535Y-33996D01*
X16633Y-33956D01*
X16731Y-33996D01*
X16850Y-33996D01*
X17520Y-33996D01*
X17630Y-33951D01*
X17714Y-33867D01*
X17760Y-33756D01*
X17760Y-33637D01*
X17760Y-32928D01*
X17759Y-32925D01*
X17961Y-32925D01*
X17937Y-32948D01*
X17850Y-33160D01*
X17849Y-33388D01*
X17937Y-33600D01*
X18064Y-33727D01*
X18064Y-34100D01*
X18064Y-34114D01*
X18089Y-34241D01*
X18095Y-34267D01*
X18181Y-34397D01*
X18655Y-34870D01*
X18655Y-35747D01*
X18655Y-35747D01*
G37*
G54D35*
X18655Y-35747D02*
X18437Y-35656D01*
X18177Y-35656D01*
X17936Y-35755D01*
X17752Y-35939D01*
X17710Y-36042D01*
X17681Y-35972D01*
X17497Y-35788D01*
X17256Y-35688D01*
X16996Y-35688D01*
X16755Y-35787D01*
X16633Y-35909D01*
X16512Y-35788D01*
X16272Y-35688D01*
X16012Y-35688D01*
X15771Y-35787D01*
X15695Y-35863D01*
X15695Y-33975D01*
X15747Y-33996D01*
X15866Y-33996D01*
X16535Y-33996D01*
X16633Y-33956D01*
X16731Y-33996D01*
X16850Y-33996D01*
X17520Y-33996D01*
X17630Y-33951D01*
X17714Y-33867D01*
X17760Y-33756D01*
X17760Y-33637D01*
X17760Y-32928D01*
X17759Y-32925D01*
X17961Y-32925D01*
X17937Y-32948D01*
X17850Y-33160D01*
X17849Y-33388D01*
X17937Y-33600D01*
X18064Y-33727D01*
X18064Y-34100D01*
X18064Y-34114D01*
X18089Y-34241D01*
X18095Y-34267D01*
X18181Y-34397D01*
X18655Y-34870D01*
X18655Y-35747D01*
G54D10*
G36*
X18754Y-48596D02*
X18651Y-48596D01*
X18670Y-48576D01*
X18682Y-48547D01*
X18754Y-48596D01*
X18754Y-48596D01*
G37*
G54D35*
X18754Y-48596D02*
X18651Y-48596D01*
X18670Y-48576D01*
X18682Y-48547D01*
X18754Y-48596D01*
G54D10*
G36*
X18756Y-39811D02*
X18649Y-39918D01*
X18650Y-39850D01*
X18663Y-39850D01*
X18756Y-39811D01*
X18756Y-39811D01*
G37*
G54D35*
X18756Y-39811D02*
X18649Y-39918D01*
X18650Y-39850D01*
X18663Y-39850D01*
X18756Y-39811D01*
G54D10*
G36*
X18834Y-44264D02*
X18674Y-44370D01*
X18606Y-44473D01*
X18537Y-44370D01*
X18503Y-44347D01*
X18697Y-44153D01*
X18705Y-44135D01*
X18834Y-44264D01*
X18834Y-44264D01*
G37*
G54D35*
X18834Y-44264D02*
X18674Y-44370D01*
X18606Y-44473D01*
X18537Y-44370D01*
X18503Y-44347D01*
X18697Y-44153D01*
X18705Y-44135D01*
X18834Y-44264D01*
G54D10*
G36*
X19261Y-31302D02*
X19252Y-31300D01*
X19125Y-31275D01*
X18890Y-31275D01*
X18592Y-30976D01*
X18590Y-30965D01*
X18590Y-30480D01*
X18559Y-30326D01*
X18559Y-30326D01*
X18530Y-30283D01*
X18472Y-30197D01*
X18472Y-30197D01*
X18309Y-30033D01*
X18383Y-30019D01*
X18538Y-29915D01*
X18641Y-29760D01*
X18677Y-29578D01*
X18677Y-29318D01*
X18641Y-29136D01*
X18600Y-29075D01*
X18600Y-29070D01*
X18600Y-29070D01*
X18570Y-28917D01*
X18570Y-28917D01*
X18483Y-28787D01*
X18483Y-28787D01*
X18470Y-28775D01*
X18789Y-28775D01*
X18942Y-28928D01*
X18863Y-28981D01*
X18759Y-29136D01*
X18723Y-29318D01*
X18723Y-29578D01*
X18759Y-29760D01*
X18800Y-29822D01*
X18800Y-30027D01*
X18800Y-30342D01*
X18800Y-30675D01*
X18826Y-30803D01*
X18831Y-30828D01*
X18917Y-30958D01*
X19261Y-31302D01*
X19261Y-31302D01*
G37*
G54D35*
X19261Y-31302D02*
X19252Y-31300D01*
X19125Y-31275D01*
X18890Y-31275D01*
X18592Y-30976D01*
X18590Y-30965D01*
X18590Y-30480D01*
X18559Y-30326D01*
X18559Y-30326D01*
X18530Y-30283D01*
X18472Y-30197D01*
X18472Y-30197D01*
X18309Y-30033D01*
X18383Y-30019D01*
X18538Y-29915D01*
X18641Y-29760D01*
X18677Y-29578D01*
X18677Y-29318D01*
X18641Y-29136D01*
X18600Y-29075D01*
X18600Y-29070D01*
X18600Y-29070D01*
X18570Y-28917D01*
X18570Y-28917D01*
X18483Y-28787D01*
X18483Y-28787D01*
X18470Y-28775D01*
X18789Y-28775D01*
X18942Y-28928D01*
X18863Y-28981D01*
X18759Y-29136D01*
X18723Y-29318D01*
X18723Y-29578D01*
X18759Y-29760D01*
X18800Y-29822D01*
X18800Y-30027D01*
X18800Y-30342D01*
X18800Y-30675D01*
X18826Y-30803D01*
X18831Y-30828D01*
X18917Y-30958D01*
X19261Y-31302D01*
G54D10*
G36*
X19447Y-39120D02*
X19086Y-39481D01*
X19124Y-39389D01*
X19125Y-39161D01*
X19108Y-39120D01*
X19447Y-39120D01*
X19447Y-39120D01*
G37*
G54D35*
X19447Y-39120D02*
X19086Y-39481D01*
X19124Y-39389D01*
X19125Y-39161D01*
X19108Y-39120D01*
X19447Y-39120D01*
G54D10*
G36*
X19585Y-37117D02*
X19472Y-37117D01*
X19361Y-37163D01*
X19277Y-37247D01*
X19231Y-37357D01*
X19231Y-37476D01*
X19231Y-38263D01*
X19255Y-38320D01*
X18964Y-38320D01*
X18609Y-37965D01*
X18720Y-37965D01*
X18831Y-37919D01*
X18915Y-37835D01*
X18961Y-37725D01*
X18961Y-37605D01*
X18961Y-36897D01*
X18915Y-36786D01*
X18836Y-36707D01*
X18861Y-36682D01*
X18945Y-36479D01*
X19579Y-37113D01*
X19579Y-37113D01*
X19585Y-37117D01*
X19585Y-37117D01*
G37*
G54D35*
X19585Y-37117D02*
X19472Y-37117D01*
X19361Y-37163D01*
X19277Y-37247D01*
X19231Y-37357D01*
X19231Y-37476D01*
X19231Y-38263D01*
X19255Y-38320D01*
X18964Y-38320D01*
X18609Y-37965D01*
X18720Y-37965D01*
X18831Y-37919D01*
X18915Y-37835D01*
X18961Y-37725D01*
X18961Y-37605D01*
X18961Y-36897D01*
X18915Y-36786D01*
X18836Y-36707D01*
X18861Y-36682D01*
X18945Y-36479D01*
X19579Y-37113D01*
X19579Y-37113D01*
X19585Y-37117D01*
G54D10*
G36*
X19754Y-48596D02*
X19457Y-48596D01*
X19537Y-48542D01*
X19606Y-48439D01*
X19674Y-48542D01*
X19754Y-48596D01*
X19754Y-48596D01*
G37*
G54D35*
X19754Y-48596D02*
X19457Y-48596D01*
X19537Y-48542D01*
X19606Y-48439D01*
X19674Y-48542D01*
X19754Y-48596D01*
G54D10*
G36*
X19851Y-40695D02*
X19749Y-40737D01*
X19587Y-40898D01*
X19558Y-40969D01*
X19376Y-40893D01*
X19575Y-40695D01*
X19851Y-40695D01*
X19851Y-40695D01*
G37*
G54D35*
X19851Y-40695D02*
X19749Y-40737D01*
X19587Y-40898D01*
X19558Y-40969D01*
X19376Y-40893D01*
X19575Y-40695D01*
X19851Y-40695D01*
G54D10*
G36*
X19875Y-43336D02*
X19871Y-43339D01*
X19684Y-43152D01*
X19429Y-43046D01*
X19153Y-43046D01*
X18898Y-43151D01*
X18703Y-43346D01*
X18696Y-43364D01*
X18503Y-43172D01*
X18248Y-43066D01*
X18070Y-43066D01*
X18987Y-42148D01*
X19085Y-42189D01*
X19346Y-42189D01*
X19586Y-42090D01*
X19770Y-41906D01*
X19806Y-41821D01*
X19875Y-41890D01*
X19875Y-43336D01*
X19875Y-43336D01*
G37*
G54D35*
X19875Y-43336D02*
X19871Y-43339D01*
X19684Y-43152D01*
X19429Y-43046D01*
X19153Y-43046D01*
X18898Y-43151D01*
X18703Y-43346D01*
X18696Y-43364D01*
X18503Y-43172D01*
X18248Y-43066D01*
X18070Y-43066D01*
X18987Y-42148D01*
X19085Y-42189D01*
X19346Y-42189D01*
X19586Y-42090D01*
X19770Y-41906D01*
X19806Y-41821D01*
X19875Y-41890D01*
X19875Y-43336D01*
G54D10*
G36*
X19937Y-44225D02*
X19872Y-44238D01*
X19674Y-44370D01*
X19606Y-44473D01*
X19547Y-44385D01*
X19683Y-44328D01*
X19862Y-44150D01*
X19937Y-44225D01*
X19937Y-44225D01*
G37*
G54D35*
X19937Y-44225D02*
X19872Y-44238D01*
X19674Y-44370D01*
X19606Y-44473D01*
X19547Y-44385D01*
X19683Y-44328D01*
X19862Y-44150D01*
X19937Y-44225D01*
G54D10*
G36*
X20071Y-22025D02*
X20047Y-22061D01*
X20018Y-22204D01*
X20018Y-24139D01*
X19998Y-24119D01*
X19667Y-23982D01*
X19309Y-23981D01*
X18979Y-24118D01*
X18725Y-24371D01*
X18588Y-24702D01*
X18588Y-25060D01*
X18724Y-25391D01*
X18977Y-25644D01*
X19308Y-25781D01*
X19666Y-25782D01*
X19997Y-25645D01*
X20018Y-25623D01*
X20018Y-27453D01*
X18907Y-26342D01*
X18778Y-26255D01*
X18752Y-26250D01*
X18625Y-26225D01*
X18250Y-26225D01*
X18096Y-26070D01*
X17855Y-25970D01*
X17595Y-25970D01*
X17354Y-26069D01*
X17170Y-26253D01*
X17164Y-26267D01*
X17009Y-26112D01*
X16776Y-26015D01*
X16524Y-26015D01*
X16290Y-26111D01*
X16112Y-26290D01*
X16050Y-26440D01*
X16050Y-25375D01*
X16204Y-25221D01*
X16304Y-24980D01*
X16304Y-24720D01*
X16243Y-24572D01*
X16790Y-24025D01*
X17199Y-24025D01*
X17353Y-24179D01*
X17594Y-24279D01*
X17854Y-24279D01*
X18095Y-24180D01*
X18279Y-23996D01*
X18379Y-23755D01*
X18379Y-23495D01*
X18280Y-23254D01*
X18096Y-23070D01*
X17855Y-22970D01*
X17595Y-22970D01*
X17354Y-23069D01*
X17199Y-23225D01*
X17168Y-23225D01*
X17238Y-23154D01*
X17284Y-23044D01*
X17284Y-22925D01*
X17284Y-22355D01*
X17615Y-22025D01*
X20071Y-22025D01*
X20071Y-22025D01*
G37*
G54D35*
X20071Y-22025D02*
X20047Y-22061D01*
X20018Y-22204D01*
X20018Y-24139D01*
X19998Y-24119D01*
X19667Y-23982D01*
X19309Y-23981D01*
X18979Y-24118D01*
X18725Y-24371D01*
X18588Y-24702D01*
X18588Y-25060D01*
X18724Y-25391D01*
X18977Y-25644D01*
X19308Y-25781D01*
X19666Y-25782D01*
X19997Y-25645D01*
X20018Y-25623D01*
X20018Y-27453D01*
X18907Y-26342D01*
X18778Y-26255D01*
X18752Y-26250D01*
X18625Y-26225D01*
X18250Y-26225D01*
X18096Y-26070D01*
X17855Y-25970D01*
X17595Y-25970D01*
X17354Y-26069D01*
X17170Y-26253D01*
X17164Y-26267D01*
X17009Y-26112D01*
X16776Y-26015D01*
X16524Y-26015D01*
X16290Y-26111D01*
X16112Y-26290D01*
X16050Y-26440D01*
X16050Y-25375D01*
X16204Y-25221D01*
X16304Y-24980D01*
X16304Y-24720D01*
X16243Y-24572D01*
X16790Y-24025D01*
X17199Y-24025D01*
X17353Y-24179D01*
X17594Y-24279D01*
X17854Y-24279D01*
X18095Y-24180D01*
X18279Y-23996D01*
X18379Y-23755D01*
X18379Y-23495D01*
X18280Y-23254D01*
X18096Y-23070D01*
X17855Y-22970D01*
X17595Y-22970D01*
X17354Y-23069D01*
X17199Y-23225D01*
X17168Y-23225D01*
X17238Y-23154D01*
X17284Y-23044D01*
X17284Y-22925D01*
X17284Y-22355D01*
X17615Y-22025D01*
X20071Y-22025D01*
G54D10*
G36*
X20450Y-31112D02*
X20401Y-31062D01*
X20189Y-30975D01*
X20065Y-30974D01*
X19600Y-30510D01*
X19600Y-30342D01*
X19600Y-30043D01*
X19937Y-30043D01*
X20047Y-29998D01*
X20132Y-29913D01*
X20177Y-29803D01*
X20178Y-29684D01*
X20178Y-29093D01*
X20176Y-29090D01*
X20440Y-29090D01*
X20409Y-29136D01*
X20373Y-29318D01*
X20373Y-29578D01*
X20409Y-29760D01*
X20450Y-29822D01*
X20450Y-31112D01*
X20450Y-31112D01*
G37*
G54D35*
X20450Y-31112D02*
X20401Y-31062D01*
X20189Y-30975D01*
X20065Y-30974D01*
X19600Y-30510D01*
X19600Y-30342D01*
X19600Y-30043D01*
X19937Y-30043D01*
X20047Y-29998D01*
X20132Y-29913D01*
X20177Y-29803D01*
X20178Y-29684D01*
X20178Y-29093D01*
X20176Y-29090D01*
X20440Y-29090D01*
X20409Y-29136D01*
X20373Y-29318D01*
X20373Y-29578D01*
X20409Y-29760D01*
X20450Y-29822D01*
X20450Y-31112D01*
G54D10*
G36*
X20599Y-41460D02*
X20599Y-41505D01*
X20588Y-41487D01*
X20599Y-41460D01*
X20599Y-41460D01*
G37*
G54D35*
X20599Y-41460D02*
X20599Y-41505D01*
X20588Y-41487D01*
X20599Y-41460D01*
G54D10*
G36*
X20722Y-43214D02*
X20675Y-43261D01*
X20675Y-41725D01*
X20663Y-41668D01*
X20687Y-41725D01*
X20722Y-41760D01*
X20722Y-42500D01*
X20722Y-43214D01*
X20722Y-43214D01*
G37*
G54D35*
X20722Y-43214D02*
X20675Y-43261D01*
X20675Y-41725D01*
X20663Y-41668D01*
X20687Y-41725D01*
X20722Y-41760D01*
X20722Y-42500D01*
X20722Y-43214D01*
G54D10*
G36*
X20754Y-48596D02*
X20457Y-48596D01*
X20537Y-48542D01*
X20606Y-48439D01*
X20674Y-48542D01*
X20754Y-48596D01*
X20754Y-48596D01*
G37*
G54D35*
X20754Y-48596D02*
X20457Y-48596D01*
X20537Y-48542D01*
X20606Y-48439D01*
X20674Y-48542D01*
X20754Y-48596D01*
G54D10*
G36*
X20970Y-44218D02*
X20872Y-44238D01*
X20674Y-44370D01*
X20606Y-44473D01*
X20537Y-44370D01*
X20438Y-44304D01*
X20600Y-44237D01*
X20737Y-44100D01*
X20773Y-44137D01*
X20970Y-44218D01*
X20970Y-44218D01*
G37*
G54D35*
X20970Y-44218D02*
X20872Y-44238D01*
X20674Y-44370D01*
X20606Y-44473D01*
X20537Y-44370D01*
X20438Y-44304D01*
X20600Y-44237D01*
X20737Y-44100D01*
X20773Y-44137D01*
X20970Y-44218D01*
G54D10*
G36*
X21109Y-36430D02*
X20741Y-36430D01*
X20817Y-36399D01*
X20925Y-36291D01*
X21031Y-36398D01*
X21109Y-36430D01*
X21109Y-36430D01*
G37*
G54D35*
X21109Y-36430D02*
X20741Y-36430D01*
X20817Y-36399D01*
X20925Y-36291D01*
X21031Y-36398D01*
X21109Y-36430D01*
G54D10*
G36*
X21164Y-40824D02*
X21061Y-40824D01*
X20849Y-40912D01*
X20687Y-41073D01*
X20650Y-41164D01*
X20650Y-41111D01*
X20562Y-40899D01*
X20401Y-40737D01*
X20298Y-40695D01*
X20850Y-40695D01*
X20982Y-40695D01*
X21073Y-40787D01*
X21164Y-40824D01*
X21164Y-40824D01*
G37*
G54D35*
X21164Y-40824D02*
X21061Y-40824D01*
X20849Y-40912D01*
X20687Y-41073D01*
X20650Y-41164D01*
X20650Y-41111D01*
X20562Y-40899D01*
X20401Y-40737D01*
X20298Y-40695D01*
X20850Y-40695D01*
X20982Y-40695D01*
X21073Y-40787D01*
X21164Y-40824D01*
G54D10*
G36*
X21397Y-51532D02*
X21208Y-51610D01*
X21078Y-51739D01*
X20949Y-51610D01*
X20709Y-51511D01*
X20449Y-51510D01*
X20208Y-51610D01*
X20078Y-51739D01*
X19949Y-51610D01*
X19709Y-51511D01*
X19449Y-51510D01*
X19208Y-51610D01*
X19182Y-51636D01*
X19103Y-51556D01*
X19145Y-51539D01*
X19329Y-51355D01*
X19429Y-51114D01*
X19430Y-50854D01*
X19330Y-50614D01*
X19146Y-50429D01*
X18906Y-50330D01*
X18646Y-50329D01*
X18405Y-50429D01*
X18221Y-50613D01*
X18121Y-50853D01*
X18121Y-51113D01*
X18220Y-51354D01*
X18376Y-51510D01*
X18164Y-51510D01*
X18054Y-51556D01*
X17970Y-51640D01*
X17924Y-51751D01*
X17924Y-51870D01*
X17924Y-52579D01*
X17969Y-52689D01*
X18054Y-52773D01*
X18164Y-52819D01*
X18283Y-52819D01*
X18992Y-52819D01*
X19102Y-52774D01*
X19182Y-52694D01*
X19207Y-52719D01*
X19448Y-52819D01*
X19708Y-52819D01*
X19948Y-52720D01*
X20078Y-52590D01*
X20103Y-52615D01*
X20049Y-52637D01*
X19887Y-52798D01*
X19800Y-53010D01*
X19799Y-53238D01*
X19887Y-53450D01*
X19993Y-53556D01*
X19993Y-54150D01*
X19993Y-56929D01*
X19993Y-58307D01*
X19993Y-58563D01*
X19945Y-58610D01*
X19858Y-58822D01*
X19857Y-59050D01*
X19889Y-59126D01*
X17918Y-59126D01*
X17918Y-51988D01*
X17821Y-51755D01*
X17680Y-51614D01*
X17821Y-51474D01*
X17917Y-51240D01*
X17918Y-50988D01*
X17821Y-50755D01*
X17643Y-50576D01*
X17410Y-50479D01*
X17157Y-50479D01*
X16924Y-50575D01*
X16745Y-50754D01*
X16648Y-50987D01*
X16648Y-51239D01*
X16745Y-51473D01*
X16885Y-51614D01*
X16745Y-51754D01*
X16648Y-51987D01*
X16648Y-52239D01*
X16745Y-52473D01*
X16923Y-52651D01*
X17156Y-52748D01*
X17409Y-52748D01*
X17642Y-52652D01*
X17821Y-52474D01*
X17917Y-52240D01*
X17918Y-51988D01*
X17918Y-59126D01*
X13292Y-59126D01*
X13292Y-53012D01*
X13186Y-52757D01*
X12991Y-52561D01*
X12737Y-52456D01*
X12461Y-52455D01*
X12205Y-52561D01*
X12010Y-52756D01*
X11904Y-53011D01*
X11904Y-53286D01*
X12009Y-53542D01*
X12204Y-53737D01*
X12459Y-53843D01*
X12735Y-53843D01*
X12990Y-53738D01*
X13186Y-53543D01*
X13292Y-53288D01*
X13292Y-53012D01*
X13292Y-59126D01*
X12968Y-59126D01*
X12968Y-59245D01*
X12737Y-59148D01*
X12461Y-59148D01*
X12205Y-59254D01*
X12010Y-59449D01*
X11904Y-59703D01*
X11904Y-59979D01*
X12009Y-60234D01*
X12204Y-60430D01*
X12459Y-60536D01*
X12735Y-60536D01*
X12968Y-60440D01*
X12968Y-61436D01*
X11004Y-61436D01*
X11004Y-21477D01*
X17031Y-21477D01*
X16494Y-22015D01*
X16255Y-22015D01*
X16145Y-22060D01*
X16061Y-22145D01*
X16015Y-22255D01*
X16015Y-22374D01*
X16015Y-23044D01*
X16060Y-23154D01*
X16145Y-23238D01*
X16255Y-23284D01*
X16374Y-23284D01*
X16428Y-23284D01*
X16342Y-23342D01*
X15950Y-23733D01*
X15932Y-23707D01*
X15932Y-23707D01*
X15282Y-23057D01*
X15153Y-22970D01*
X15127Y-22965D01*
X15000Y-22940D01*
X12370Y-22940D01*
X12242Y-22965D01*
X12216Y-22970D01*
X12087Y-23057D01*
X11267Y-23877D01*
X11180Y-24006D01*
X11175Y-24032D01*
X11150Y-24160D01*
X11150Y-41250D01*
X11175Y-41377D01*
X11180Y-41403D01*
X11267Y-41532D01*
X12005Y-42271D01*
X12005Y-42271D01*
X12092Y-42328D01*
X12135Y-42357D01*
X12135Y-42357D01*
X12288Y-42388D01*
X12630Y-42388D01*
X13778Y-42388D01*
X13654Y-42512D01*
X13567Y-42642D01*
X13562Y-42667D01*
X13537Y-42795D01*
X13537Y-43466D01*
X13531Y-43452D01*
X13347Y-43268D01*
X13107Y-43168D01*
X12846Y-43168D01*
X12606Y-43267D01*
X12421Y-43451D01*
X12322Y-43692D01*
X12321Y-43952D01*
X12421Y-44192D01*
X12558Y-44330D01*
X12421Y-44467D01*
X12322Y-44707D01*
X12321Y-44968D01*
X12421Y-45208D01*
X12605Y-45392D01*
X12845Y-45492D01*
X13105Y-45493D01*
X13346Y-45393D01*
X13530Y-45209D01*
X13537Y-45194D01*
X13537Y-47481D01*
X13531Y-47468D01*
X13347Y-47284D01*
X13107Y-47184D01*
X12846Y-47184D01*
X12606Y-47283D01*
X12421Y-47467D01*
X12322Y-47707D01*
X12321Y-47968D01*
X12421Y-48208D01*
X12605Y-48392D01*
X12643Y-48408D01*
X11481Y-48408D01*
X11481Y-50368D01*
X13537Y-50368D01*
X13537Y-52512D01*
X13537Y-53025D01*
X13537Y-53374D01*
X13437Y-53473D01*
X13350Y-53685D01*
X13349Y-53913D01*
X13437Y-54125D01*
X13598Y-54287D01*
X13810Y-54374D01*
X14038Y-54375D01*
X14250Y-54287D01*
X14412Y-54126D01*
X14499Y-53914D01*
X14500Y-53686D01*
X14412Y-53474D01*
X14337Y-53398D01*
X14337Y-53025D01*
X14337Y-52512D01*
X14337Y-49509D01*
X14487Y-49571D01*
X14763Y-49571D01*
X14954Y-49492D01*
X14954Y-52779D01*
X14954Y-53375D01*
X14954Y-53632D01*
X14862Y-53723D01*
X14775Y-53935D01*
X14774Y-54163D01*
X14862Y-54375D01*
X15023Y-54537D01*
X15235Y-54624D01*
X15463Y-54625D01*
X15675Y-54537D01*
X15837Y-54376D01*
X15924Y-54164D01*
X15925Y-53936D01*
X15837Y-53724D01*
X15754Y-53641D01*
X15754Y-53375D01*
X15754Y-52779D01*
X15754Y-50396D01*
X15827Y-50469D01*
X16081Y-50575D01*
X16357Y-50575D01*
X16612Y-50470D01*
X16808Y-50275D01*
X16914Y-50020D01*
X16914Y-49979D01*
X17079Y-50145D01*
X17079Y-50145D01*
X17166Y-50202D01*
X17209Y-50231D01*
X17209Y-50231D01*
X17362Y-50262D01*
X19184Y-50262D01*
X20189Y-51267D01*
X20189Y-51267D01*
X20276Y-51325D01*
X20319Y-51353D01*
X20319Y-51353D01*
X20472Y-51384D01*
X21250Y-51384D01*
X21397Y-51532D01*
X21397Y-51532D01*
G37*
G54D35*
X21397Y-51532D02*
X21208Y-51610D01*
X21078Y-51739D01*
X20949Y-51610D01*
X20709Y-51511D01*
X20449Y-51510D01*
X20208Y-51610D01*
X20078Y-51739D01*
X19949Y-51610D01*
X19709Y-51511D01*
X19449Y-51510D01*
X19208Y-51610D01*
X19182Y-51636D01*
X19103Y-51556D01*
X19145Y-51539D01*
X19329Y-51355D01*
X19429Y-51114D01*
X19430Y-50854D01*
X19330Y-50614D01*
X19146Y-50429D01*
X18906Y-50330D01*
X18646Y-50329D01*
X18405Y-50429D01*
X18221Y-50613D01*
X18121Y-50853D01*
X18121Y-51113D01*
X18220Y-51354D01*
X18376Y-51510D01*
X18164Y-51510D01*
X18054Y-51556D01*
X17970Y-51640D01*
X17924Y-51751D01*
X17924Y-51870D01*
X17924Y-52579D01*
X17969Y-52689D01*
X18054Y-52773D01*
X18164Y-52819D01*
X18283Y-52819D01*
X18992Y-52819D01*
X19102Y-52774D01*
X19182Y-52694D01*
X19207Y-52719D01*
X19448Y-52819D01*
X19708Y-52819D01*
X19948Y-52720D01*
X20078Y-52590D01*
X20103Y-52615D01*
X20049Y-52637D01*
X19887Y-52798D01*
X19800Y-53010D01*
X19799Y-53238D01*
X19887Y-53450D01*
X19993Y-53556D01*
X19993Y-54150D01*
X19993Y-56929D01*
X19993Y-58307D01*
X19993Y-58563D01*
X19945Y-58610D01*
X19858Y-58822D01*
X19857Y-59050D01*
X19889Y-59126D01*
X17918Y-59126D01*
X17918Y-51988D01*
X17821Y-51755D01*
X17680Y-51614D01*
X17821Y-51474D01*
X17917Y-51240D01*
X17918Y-50988D01*
X17821Y-50755D01*
X17643Y-50576D01*
X17410Y-50479D01*
X17157Y-50479D01*
X16924Y-50575D01*
X16745Y-50754D01*
X16648Y-50987D01*
X16648Y-51239D01*
X16745Y-51473D01*
X16885Y-51614D01*
X16745Y-51754D01*
X16648Y-51987D01*
X16648Y-52239D01*
X16745Y-52473D01*
X16923Y-52651D01*
X17156Y-52748D01*
X17409Y-52748D01*
X17642Y-52652D01*
X17821Y-52474D01*
X17917Y-52240D01*
X17918Y-51988D01*
X17918Y-59126D01*
X13292Y-59126D01*
X13292Y-53012D01*
X13186Y-52757D01*
X12991Y-52561D01*
X12737Y-52456D01*
X12461Y-52455D01*
X12205Y-52561D01*
X12010Y-52756D01*
X11904Y-53011D01*
X11904Y-53286D01*
X12009Y-53542D01*
X12204Y-53737D01*
X12459Y-53843D01*
X12735Y-53843D01*
X12990Y-53738D01*
X13186Y-53543D01*
X13292Y-53288D01*
X13292Y-53012D01*
X13292Y-59126D01*
X12968Y-59126D01*
X12968Y-59245D01*
X12737Y-59148D01*
X12461Y-59148D01*
X12205Y-59254D01*
X12010Y-59449D01*
X11904Y-59703D01*
X11904Y-59979D01*
X12009Y-60234D01*
X12204Y-60430D01*
X12459Y-60536D01*
X12735Y-60536D01*
X12968Y-60440D01*
X12968Y-61436D01*
X11004Y-61436D01*
X11004Y-21477D01*
X17031Y-21477D01*
X16494Y-22015D01*
X16255Y-22015D01*
X16145Y-22060D01*
X16061Y-22145D01*
X16015Y-22255D01*
X16015Y-22374D01*
X16015Y-23044D01*
X16060Y-23154D01*
X16145Y-23238D01*
X16255Y-23284D01*
X16374Y-23284D01*
X16428Y-23284D01*
X16342Y-23342D01*
X15950Y-23733D01*
X15932Y-23707D01*
X15932Y-23707D01*
X15282Y-23057D01*
X15153Y-22970D01*
X15127Y-22965D01*
X15000Y-22940D01*
X12370Y-22940D01*
X12242Y-22965D01*
X12216Y-22970D01*
X12087Y-23057D01*
X11267Y-23877D01*
X11180Y-24006D01*
X11175Y-24032D01*
X11150Y-24160D01*
X11150Y-41250D01*
X11175Y-41377D01*
X11180Y-41403D01*
X11267Y-41532D01*
X12005Y-42271D01*
X12005Y-42271D01*
X12092Y-42328D01*
X12135Y-42357D01*
X12135Y-42357D01*
X12288Y-42388D01*
X12630Y-42388D01*
X13778Y-42388D01*
X13654Y-42512D01*
X13567Y-42642D01*
X13562Y-42667D01*
X13537Y-42795D01*
X13537Y-43466D01*
X13531Y-43452D01*
X13347Y-43268D01*
X13107Y-43168D01*
X12846Y-43168D01*
X12606Y-43267D01*
X12421Y-43451D01*
X12322Y-43692D01*
X12321Y-43952D01*
X12421Y-44192D01*
X12558Y-44330D01*
X12421Y-44467D01*
X12322Y-44707D01*
X12321Y-44968D01*
X12421Y-45208D01*
X12605Y-45392D01*
X12845Y-45492D01*
X13105Y-45493D01*
X13346Y-45393D01*
X13530Y-45209D01*
X13537Y-45194D01*
X13537Y-47481D01*
X13531Y-47468D01*
X13347Y-47284D01*
X13107Y-47184D01*
X12846Y-47184D01*
X12606Y-47283D01*
X12421Y-47467D01*
X12322Y-47707D01*
X12321Y-47968D01*
X12421Y-48208D01*
X12605Y-48392D01*
X12643Y-48408D01*
X11481Y-48408D01*
X11481Y-50368D01*
X13537Y-50368D01*
X13537Y-52512D01*
X13537Y-53025D01*
X13537Y-53374D01*
X13437Y-53473D01*
X13350Y-53685D01*
X13349Y-53913D01*
X13437Y-54125D01*
X13598Y-54287D01*
X13810Y-54374D01*
X14038Y-54375D01*
X14250Y-54287D01*
X14412Y-54126D01*
X14499Y-53914D01*
X14500Y-53686D01*
X14412Y-53474D01*
X14337Y-53398D01*
X14337Y-53025D01*
X14337Y-52512D01*
X14337Y-49509D01*
X14487Y-49571D01*
X14763Y-49571D01*
X14954Y-49492D01*
X14954Y-52779D01*
X14954Y-53375D01*
X14954Y-53632D01*
X14862Y-53723D01*
X14775Y-53935D01*
X14774Y-54163D01*
X14862Y-54375D01*
X15023Y-54537D01*
X15235Y-54624D01*
X15463Y-54625D01*
X15675Y-54537D01*
X15837Y-54376D01*
X15924Y-54164D01*
X15925Y-53936D01*
X15837Y-53724D01*
X15754Y-53641D01*
X15754Y-53375D01*
X15754Y-52779D01*
X15754Y-50396D01*
X15827Y-50469D01*
X16081Y-50575D01*
X16357Y-50575D01*
X16612Y-50470D01*
X16808Y-50275D01*
X16914Y-50020D01*
X16914Y-49979D01*
X17079Y-50145D01*
X17079Y-50145D01*
X17166Y-50202D01*
X17209Y-50231D01*
X17209Y-50231D01*
X17362Y-50262D01*
X19184Y-50262D01*
X20189Y-51267D01*
X20189Y-51267D01*
X20276Y-51325D01*
X20319Y-51353D01*
X20319Y-51353D01*
X20472Y-51384D01*
X21250Y-51384D01*
X21397Y-51532D01*
G54D10*
G36*
X21524Y-37230D02*
X21425Y-37330D01*
X21325Y-37230D01*
X21524Y-37230D01*
X21524Y-37230D01*
G37*
G54D35*
X21524Y-37230D02*
X21425Y-37330D01*
X21325Y-37230D01*
X21524Y-37230D01*
G54D10*
G36*
X21669Y-49396D02*
X21656Y-49409D01*
X21653Y-49416D01*
X21651Y-49410D01*
X21636Y-49396D01*
X21669Y-49396D01*
X21669Y-49396D01*
G37*
G54D35*
X21669Y-49396D02*
X21656Y-49409D01*
X21653Y-49416D01*
X21651Y-49410D01*
X21636Y-49396D01*
X21669Y-49396D01*
G54D10*
G36*
X21754Y-48596D02*
X21457Y-48596D01*
X21537Y-48542D01*
X21606Y-48439D01*
X21674Y-48542D01*
X21754Y-48596D01*
X21754Y-48596D01*
G37*
G54D35*
X21754Y-48596D02*
X21457Y-48596D01*
X21537Y-48542D01*
X21606Y-48439D01*
X21674Y-48542D01*
X21754Y-48596D01*
G54D10*
G36*
X21789Y-50329D02*
X21646Y-50329D01*
X21405Y-50429D01*
X21250Y-50584D01*
X20638Y-50584D01*
X19633Y-49579D01*
X19503Y-49492D01*
X19478Y-49487D01*
X19350Y-49462D01*
X17527Y-49462D01*
X17461Y-49396D01*
X20488Y-49396D01*
X20475Y-49409D01*
X20369Y-49664D01*
X20369Y-49940D01*
X20474Y-50195D01*
X20669Y-50390D01*
X20924Y-50496D01*
X21200Y-50496D01*
X21455Y-50391D01*
X21650Y-50196D01*
X21653Y-50190D01*
X21655Y-50195D01*
X21789Y-50329D01*
X21789Y-50329D01*
G37*
G54D35*
X21789Y-50329D02*
X21646Y-50329D01*
X21405Y-50429D01*
X21250Y-50584D01*
X20638Y-50584D01*
X19633Y-49579D01*
X19503Y-49492D01*
X19478Y-49487D01*
X19350Y-49462D01*
X17527Y-49462D01*
X17461Y-49396D01*
X20488Y-49396D01*
X20475Y-49409D01*
X20369Y-49664D01*
X20369Y-49940D01*
X20474Y-50195D01*
X20669Y-50390D01*
X20924Y-50496D01*
X21200Y-50496D01*
X21455Y-50391D01*
X21650Y-50196D01*
X21653Y-50190D01*
X21655Y-50195D01*
X21789Y-50329D01*
G54D10*
G36*
X21970Y-44218D02*
X21872Y-44238D01*
X21674Y-44370D01*
X21606Y-44473D01*
X21537Y-44370D01*
X21339Y-44238D01*
X21232Y-44217D01*
X21425Y-44137D01*
X21587Y-43976D01*
X21599Y-43945D01*
X21612Y-43975D01*
X21773Y-44137D01*
X21970Y-44218D01*
X21970Y-44218D01*
G37*
G54D35*
X21970Y-44218D02*
X21872Y-44238D01*
X21674Y-44370D01*
X21606Y-44473D01*
X21537Y-44370D01*
X21339Y-44238D01*
X21232Y-44217D01*
X21425Y-44137D01*
X21587Y-43976D01*
X21599Y-43945D01*
X21612Y-43975D01*
X21773Y-44137D01*
X21970Y-44218D01*
G54D10*
G36*
X22109Y-36430D02*
X21741Y-36430D01*
X21817Y-36399D01*
X21925Y-36291D01*
X22031Y-36398D01*
X22109Y-36430D01*
X22109Y-36430D01*
G37*
G54D35*
X22109Y-36430D02*
X21741Y-36430D01*
X21817Y-36399D01*
X21925Y-36291D01*
X22031Y-36398D01*
X22109Y-36430D01*
G54D10*
G36*
X22164Y-31700D02*
X21250Y-31700D01*
X21250Y-30035D01*
X21350Y-30055D01*
X21532Y-30019D01*
X21687Y-29915D01*
X21791Y-29760D01*
X21827Y-29578D01*
X21827Y-29318D01*
X21791Y-29136D01*
X21750Y-29075D01*
X21750Y-29020D01*
X21724Y-28892D01*
X21719Y-28867D01*
X21719Y-28867D01*
X21633Y-28737D01*
X21633Y-28737D01*
X21525Y-28630D01*
X21814Y-28630D01*
X22104Y-28920D01*
X22012Y-28981D01*
X21909Y-29136D01*
X21873Y-29318D01*
X21873Y-29578D01*
X21909Y-29760D01*
X21950Y-29822D01*
X21950Y-30027D01*
X21950Y-30118D01*
X21950Y-31175D01*
X21975Y-31303D01*
X21980Y-31328D01*
X22067Y-31458D01*
X22150Y-31540D01*
X22149Y-31663D01*
X22164Y-31700D01*
X22164Y-31700D01*
G37*
G54D35*
X22164Y-31700D02*
X21250Y-31700D01*
X21250Y-30035D01*
X21350Y-30055D01*
X21532Y-30019D01*
X21687Y-29915D01*
X21791Y-29760D01*
X21827Y-29578D01*
X21827Y-29318D01*
X21791Y-29136D01*
X21750Y-29075D01*
X21750Y-29020D01*
X21724Y-28892D01*
X21719Y-28867D01*
X21719Y-28867D01*
X21633Y-28737D01*
X21633Y-28737D01*
X21525Y-28630D01*
X21814Y-28630D01*
X22104Y-28920D01*
X22012Y-28981D01*
X21909Y-29136D01*
X21873Y-29318D01*
X21873Y-29578D01*
X21909Y-29760D01*
X21950Y-29822D01*
X21950Y-30027D01*
X21950Y-30118D01*
X21950Y-31175D01*
X21975Y-31303D01*
X21980Y-31328D01*
X22067Y-31458D01*
X22150Y-31540D01*
X22149Y-31663D01*
X22164Y-31700D01*
G54D10*
G36*
X22200Y-41434D02*
X21817Y-41817D01*
X21730Y-41946D01*
X21725Y-41972D01*
X21700Y-42100D01*
X21700Y-43236D01*
X21612Y-43323D01*
X21600Y-43354D01*
X21587Y-43324D01*
X21522Y-43258D01*
X21522Y-42500D01*
X21522Y-41866D01*
X21662Y-41726D01*
X21749Y-41514D01*
X21750Y-41286D01*
X21662Y-41074D01*
X21501Y-40912D01*
X21410Y-40875D01*
X21513Y-40875D01*
X21725Y-40787D01*
X21887Y-40626D01*
X21974Y-40414D01*
X21975Y-40186D01*
X21887Y-39974D01*
X21726Y-39812D01*
X21514Y-39725D01*
X21286Y-39724D01*
X21074Y-39812D01*
X20991Y-39895D01*
X20850Y-39895D01*
X19804Y-39895D01*
X20027Y-39671D01*
X20050Y-39671D01*
X20308Y-39671D01*
X20348Y-39712D01*
X20560Y-39799D01*
X20788Y-39800D01*
X21000Y-39712D01*
X21162Y-39551D01*
X21249Y-39339D01*
X21249Y-39276D01*
X22198Y-40224D01*
X22198Y-40649D01*
X22198Y-40850D01*
X22200Y-40857D01*
X22200Y-41434D01*
X22200Y-41434D01*
G37*
G54D35*
X22200Y-41434D02*
X21817Y-41817D01*
X21730Y-41946D01*
X21725Y-41972D01*
X21700Y-42100D01*
X21700Y-43236D01*
X21612Y-43323D01*
X21600Y-43354D01*
X21587Y-43324D01*
X21522Y-43258D01*
X21522Y-42500D01*
X21522Y-41866D01*
X21662Y-41726D01*
X21749Y-41514D01*
X21750Y-41286D01*
X21662Y-41074D01*
X21501Y-40912D01*
X21410Y-40875D01*
X21513Y-40875D01*
X21725Y-40787D01*
X21887Y-40626D01*
X21974Y-40414D01*
X21975Y-40186D01*
X21887Y-39974D01*
X21726Y-39812D01*
X21514Y-39725D01*
X21286Y-39724D01*
X21074Y-39812D01*
X20991Y-39895D01*
X20850Y-39895D01*
X19804Y-39895D01*
X20027Y-39671D01*
X20050Y-39671D01*
X20308Y-39671D01*
X20348Y-39712D01*
X20560Y-39799D01*
X20788Y-39800D01*
X21000Y-39712D01*
X21162Y-39551D01*
X21249Y-39339D01*
X21249Y-39276D01*
X22198Y-40224D01*
X22198Y-40649D01*
X22198Y-40850D01*
X22200Y-40857D01*
X22200Y-41434D01*
G54D10*
G36*
X22325Y-50496D02*
X22324Y-50608D01*
X22213Y-50496D01*
X22325Y-50496D01*
X22325Y-50496D01*
G37*
G54D35*
X22325Y-50496D02*
X22324Y-50608D01*
X22213Y-50496D01*
X22325Y-50496D01*
G54D10*
G36*
X22333Y-61436D02*
X21958Y-61436D01*
X21960Y-61434D01*
X22045Y-61350D01*
X22047Y-61344D01*
X22243Y-61344D01*
X22245Y-61350D01*
X22330Y-61434D01*
X22333Y-61436D01*
X22333Y-61436D01*
G37*
G54D35*
X22333Y-61436D02*
X21958Y-61436D01*
X21960Y-61434D01*
X22045Y-61350D01*
X22047Y-61344D01*
X22243Y-61344D01*
X22245Y-61350D01*
X22330Y-61434D01*
X22333Y-61436D01*
G54D10*
G36*
X22336Y-59625D02*
X22330Y-59628D01*
X22246Y-59712D01*
X22200Y-59822D01*
X22200Y-59941D01*
X22200Y-60413D01*
X22245Y-60524D01*
X22252Y-60531D01*
X22246Y-60538D01*
X22243Y-60544D01*
X22047Y-60544D01*
X22045Y-60538D01*
X22038Y-60531D01*
X22045Y-60524D01*
X22091Y-60414D01*
X22091Y-60295D01*
X22091Y-59823D01*
X22045Y-59712D01*
X21961Y-59628D01*
X21955Y-59625D01*
X21955Y-58598D01*
X21999Y-58580D01*
X22084Y-58495D01*
X22130Y-58385D01*
X22130Y-58266D01*
X22130Y-57916D01*
X22084Y-57805D01*
X22054Y-57775D01*
X22084Y-57745D01*
X22130Y-57635D01*
X22130Y-57516D01*
X22130Y-57166D01*
X22084Y-57055D01*
X22000Y-56971D01*
X21955Y-56952D01*
X21955Y-56346D01*
X22232Y-56069D01*
X22251Y-56069D01*
X22229Y-56091D01*
X22141Y-56302D01*
X22141Y-56531D01*
X22228Y-56742D01*
X22336Y-56850D01*
X22336Y-56952D01*
X22291Y-56971D01*
X22207Y-57055D01*
X22161Y-57165D01*
X22161Y-57285D01*
X22161Y-57635D01*
X22206Y-57745D01*
X22236Y-57775D01*
X22207Y-57805D01*
X22161Y-57915D01*
X22161Y-58035D01*
X22161Y-58385D01*
X22206Y-58495D01*
X22291Y-58579D01*
X22336Y-58598D01*
X22336Y-59625D01*
X22336Y-59625D01*
G37*
G54D35*
X22336Y-59625D02*
X22330Y-59628D01*
X22246Y-59712D01*
X22200Y-59822D01*
X22200Y-59941D01*
X22200Y-60413D01*
X22245Y-60524D01*
X22252Y-60531D01*
X22246Y-60538D01*
X22243Y-60544D01*
X22047Y-60544D01*
X22045Y-60538D01*
X22038Y-60531D01*
X22045Y-60524D01*
X22091Y-60414D01*
X22091Y-60295D01*
X22091Y-59823D01*
X22045Y-59712D01*
X21961Y-59628D01*
X21955Y-59625D01*
X21955Y-58598D01*
X21999Y-58580D01*
X22084Y-58495D01*
X22130Y-58385D01*
X22130Y-58266D01*
X22130Y-57916D01*
X22084Y-57805D01*
X22054Y-57775D01*
X22084Y-57745D01*
X22130Y-57635D01*
X22130Y-57516D01*
X22130Y-57166D01*
X22084Y-57055D01*
X22000Y-56971D01*
X21955Y-56952D01*
X21955Y-56346D01*
X22232Y-56069D01*
X22251Y-56069D01*
X22229Y-56091D01*
X22141Y-56302D01*
X22141Y-56531D01*
X22228Y-56742D01*
X22336Y-56850D01*
X22336Y-56952D01*
X22291Y-56971D01*
X22207Y-57055D01*
X22161Y-57165D01*
X22161Y-57285D01*
X22161Y-57635D01*
X22206Y-57745D01*
X22236Y-57775D01*
X22207Y-57805D01*
X22161Y-57915D01*
X22161Y-58035D01*
X22161Y-58385D01*
X22206Y-58495D01*
X22291Y-58579D01*
X22336Y-58598D01*
X22336Y-59625D01*
G54D10*
G36*
X22524Y-37230D02*
X22425Y-37330D01*
X22325Y-37230D01*
X22524Y-37230D01*
X22524Y-37230D01*
G37*
G54D35*
X22524Y-37230D02*
X22425Y-37330D01*
X22325Y-37230D01*
X22524Y-37230D01*
G54D10*
G36*
X22537Y-55269D02*
X22066Y-55269D01*
X21913Y-55299D01*
X21870Y-55328D01*
X21784Y-55386D01*
X21272Y-55898D01*
X21185Y-56028D01*
X21180Y-56053D01*
X21155Y-56181D01*
X21155Y-56952D01*
X21110Y-56971D01*
X21025Y-57055D01*
X20980Y-57165D01*
X20980Y-57285D01*
X20980Y-57635D01*
X21025Y-57745D01*
X21055Y-57775D01*
X21025Y-57805D01*
X20980Y-57915D01*
X20980Y-58035D01*
X20980Y-58385D01*
X21025Y-58495D01*
X21109Y-58579D01*
X21155Y-58598D01*
X21155Y-59126D01*
X20977Y-59126D01*
X21007Y-59051D01*
X21008Y-58823D01*
X20920Y-58611D01*
X20793Y-58484D01*
X20793Y-58307D01*
X20793Y-56929D01*
X20793Y-54150D01*
X20793Y-53519D01*
X20862Y-53451D01*
X20949Y-53239D01*
X20950Y-53011D01*
X20862Y-52799D01*
X20831Y-52768D01*
X20948Y-52720D01*
X21078Y-52590D01*
X21207Y-52719D01*
X21448Y-52819D01*
X21708Y-52819D01*
X21948Y-52720D01*
X22133Y-52536D01*
X22232Y-52296D01*
X22233Y-52035D01*
X22133Y-51795D01*
X21956Y-51617D01*
X22145Y-51539D01*
X22329Y-51355D01*
X22429Y-51114D01*
X22429Y-50943D01*
X22537Y-51050D01*
X22537Y-55269D01*
X22537Y-55269D01*
G37*
G54D35*
X22537Y-55269D02*
X22066Y-55269D01*
X21913Y-55299D01*
X21870Y-55328D01*
X21784Y-55386D01*
X21272Y-55898D01*
X21185Y-56028D01*
X21180Y-56053D01*
X21155Y-56181D01*
X21155Y-56952D01*
X21110Y-56971D01*
X21025Y-57055D01*
X20980Y-57165D01*
X20980Y-57285D01*
X20980Y-57635D01*
X21025Y-57745D01*
X21055Y-57775D01*
X21025Y-57805D01*
X20980Y-57915D01*
X20980Y-58035D01*
X20980Y-58385D01*
X21025Y-58495D01*
X21109Y-58579D01*
X21155Y-58598D01*
X21155Y-59126D01*
X20977Y-59126D01*
X21007Y-59051D01*
X21008Y-58823D01*
X20920Y-58611D01*
X20793Y-58484D01*
X20793Y-58307D01*
X20793Y-56929D01*
X20793Y-54150D01*
X20793Y-53519D01*
X20862Y-53451D01*
X20949Y-53239D01*
X20950Y-53011D01*
X20862Y-52799D01*
X20831Y-52768D01*
X20948Y-52720D01*
X21078Y-52590D01*
X21207Y-52719D01*
X21448Y-52819D01*
X21708Y-52819D01*
X21948Y-52720D01*
X22133Y-52536D01*
X22232Y-52296D01*
X22233Y-52035D01*
X22133Y-51795D01*
X21956Y-51617D01*
X22145Y-51539D01*
X22329Y-51355D01*
X22429Y-51114D01*
X22429Y-50943D01*
X22537Y-51050D01*
X22537Y-55269D01*
G54D10*
G36*
X22701Y-43209D02*
X22612Y-43298D01*
X22594Y-43342D01*
X22587Y-43324D01*
X22500Y-43236D01*
X22500Y-42265D01*
X22701Y-42063D01*
X22701Y-43209D01*
X22701Y-43209D01*
G37*
G54D35*
X22701Y-43209D02*
X22612Y-43298D01*
X22594Y-43342D01*
X22587Y-43324D01*
X22500Y-43236D01*
X22500Y-42265D01*
X22701Y-42063D01*
X22701Y-43209D01*
G54D10*
G36*
X22754Y-48596D02*
X22457Y-48596D01*
X22537Y-48542D01*
X22606Y-48439D01*
X22674Y-48542D01*
X22754Y-48596D01*
X22754Y-48596D01*
G37*
G54D35*
X22754Y-48596D02*
X22457Y-48596D01*
X22537Y-48542D01*
X22606Y-48439D01*
X22674Y-48542D01*
X22754Y-48596D01*
G54D10*
G36*
X23066Y-44199D02*
X22872Y-44238D01*
X22674Y-44370D01*
X22606Y-44473D01*
X22537Y-44370D01*
X22339Y-44238D01*
X22232Y-44217D01*
X22425Y-44137D01*
X22587Y-43976D01*
X22605Y-43932D01*
X22612Y-43950D01*
X22773Y-44112D01*
X22985Y-44199D01*
X23066Y-44199D01*
X23066Y-44199D01*
G37*
G54D35*
X23066Y-44199D02*
X22872Y-44238D01*
X22674Y-44370D01*
X22606Y-44473D01*
X22537Y-44370D01*
X22339Y-44238D01*
X22232Y-44217D01*
X22425Y-44137D01*
X22587Y-43976D01*
X22605Y-43932D01*
X22612Y-43950D01*
X22773Y-44112D01*
X22985Y-44199D01*
X23066Y-44199D01*
G54D10*
G36*
X23109Y-36430D02*
X22741Y-36430D01*
X22817Y-36399D01*
X22925Y-36291D01*
X23031Y-36398D01*
X23109Y-36430D01*
X23109Y-36430D01*
G37*
G54D35*
X23109Y-36430D02*
X22741Y-36430D01*
X22817Y-36399D01*
X22925Y-36291D01*
X23031Y-36398D01*
X23109Y-36430D01*
G54D10*
G36*
X23514Y-61436D02*
X23139Y-61436D01*
X23141Y-61434D01*
X23226Y-61350D01*
X23228Y-61344D01*
X23424Y-61344D01*
X23426Y-61350D01*
X23511Y-61434D01*
X23514Y-61436D01*
X23514Y-61436D01*
G37*
G54D35*
X23514Y-61436D02*
X23139Y-61436D01*
X23141Y-61434D01*
X23226Y-61350D01*
X23228Y-61344D01*
X23424Y-61344D01*
X23426Y-61350D01*
X23511Y-61434D01*
X23514Y-61436D01*
G54D10*
G36*
X23524Y-37230D02*
X23425Y-37330D01*
X23325Y-37230D01*
X23524Y-37230D01*
X23524Y-37230D01*
G37*
G54D35*
X23524Y-37230D02*
X23425Y-37330D01*
X23325Y-37230D01*
X23524Y-37230D01*
G54D10*
G36*
X23655Y-52604D02*
X23611Y-52622D01*
X23449Y-52784D01*
X23362Y-52995D01*
X23361Y-53224D01*
X23449Y-53435D01*
X23517Y-53503D01*
X23517Y-56952D01*
X23472Y-56971D01*
X23388Y-57055D01*
X23342Y-57165D01*
X23342Y-57285D01*
X23342Y-57635D01*
X23387Y-57745D01*
X23418Y-57775D01*
X23388Y-57805D01*
X23342Y-57915D01*
X23342Y-58035D01*
X23342Y-58385D01*
X23387Y-58495D01*
X23472Y-58579D01*
X23517Y-58598D01*
X23517Y-59625D01*
X23511Y-59628D01*
X23427Y-59712D01*
X23381Y-59822D01*
X23381Y-59941D01*
X23381Y-60413D01*
X23426Y-60524D01*
X23434Y-60531D01*
X23427Y-60538D01*
X23424Y-60544D01*
X23229Y-60544D01*
X23226Y-60538D01*
X23219Y-60531D01*
X23226Y-60524D01*
X23272Y-60414D01*
X23272Y-60295D01*
X23272Y-59823D01*
X23226Y-59712D01*
X23142Y-59628D01*
X23136Y-59625D01*
X23136Y-58598D01*
X23180Y-58580D01*
X23265Y-58495D01*
X23311Y-58385D01*
X23311Y-58266D01*
X23311Y-57916D01*
X23265Y-57805D01*
X23235Y-57775D01*
X23265Y-57745D01*
X23311Y-57635D01*
X23311Y-57516D01*
X23311Y-57166D01*
X23265Y-57055D01*
X23181Y-56971D01*
X23136Y-56952D01*
X23136Y-56810D01*
X23203Y-56743D01*
X23291Y-56532D01*
X23291Y-56303D01*
X23204Y-56092D01*
X23051Y-55939D01*
X23220Y-55770D01*
X23220Y-55770D01*
X23278Y-55683D01*
X23307Y-55640D01*
X23307Y-55640D01*
X23337Y-55487D01*
X23337Y-55487D01*
X23337Y-52495D01*
X23400Y-52558D01*
X23510Y-52604D01*
X23630Y-52604D01*
X23655Y-52604D01*
X23655Y-52604D01*
G37*
G54D35*
X23655Y-52604D02*
X23611Y-52622D01*
X23449Y-52784D01*
X23362Y-52995D01*
X23361Y-53224D01*
X23449Y-53435D01*
X23517Y-53503D01*
X23517Y-56952D01*
X23472Y-56971D01*
X23388Y-57055D01*
X23342Y-57165D01*
X23342Y-57285D01*
X23342Y-57635D01*
X23387Y-57745D01*
X23418Y-57775D01*
X23388Y-57805D01*
X23342Y-57915D01*
X23342Y-58035D01*
X23342Y-58385D01*
X23387Y-58495D01*
X23472Y-58579D01*
X23517Y-58598D01*
X23517Y-59625D01*
X23511Y-59628D01*
X23427Y-59712D01*
X23381Y-59822D01*
X23381Y-59941D01*
X23381Y-60413D01*
X23426Y-60524D01*
X23434Y-60531D01*
X23427Y-60538D01*
X23424Y-60544D01*
X23229Y-60544D01*
X23226Y-60538D01*
X23219Y-60531D01*
X23226Y-60524D01*
X23272Y-60414D01*
X23272Y-60295D01*
X23272Y-59823D01*
X23226Y-59712D01*
X23142Y-59628D01*
X23136Y-59625D01*
X23136Y-58598D01*
X23180Y-58580D01*
X23265Y-58495D01*
X23311Y-58385D01*
X23311Y-58266D01*
X23311Y-57916D01*
X23265Y-57805D01*
X23235Y-57775D01*
X23265Y-57745D01*
X23311Y-57635D01*
X23311Y-57516D01*
X23311Y-57166D01*
X23265Y-57055D01*
X23181Y-56971D01*
X23136Y-56952D01*
X23136Y-56810D01*
X23203Y-56743D01*
X23291Y-56532D01*
X23291Y-56303D01*
X23204Y-56092D01*
X23051Y-55939D01*
X23220Y-55770D01*
X23220Y-55770D01*
X23278Y-55683D01*
X23307Y-55640D01*
X23307Y-55640D01*
X23337Y-55487D01*
X23337Y-55487D01*
X23337Y-52495D01*
X23400Y-52558D01*
X23510Y-52604D01*
X23630Y-52604D01*
X23655Y-52604D01*
G54D10*
G36*
X23824Y-48642D02*
X23747Y-48674D01*
X23568Y-48852D01*
X23471Y-49085D01*
X23471Y-49165D01*
X23451Y-49134D01*
X23393Y-49047D01*
X23393Y-49047D01*
X23058Y-48713D01*
X23055Y-48711D01*
X23106Y-48721D01*
X23339Y-48674D01*
X23537Y-48542D01*
X23606Y-48439D01*
X23674Y-48542D01*
X23824Y-48642D01*
X23824Y-48642D01*
G37*
G54D35*
X23824Y-48642D02*
X23747Y-48674D01*
X23568Y-48852D01*
X23471Y-49085D01*
X23471Y-49165D01*
X23451Y-49134D01*
X23393Y-49047D01*
X23393Y-49047D01*
X23058Y-48713D01*
X23055Y-48711D01*
X23106Y-48721D01*
X23339Y-48674D01*
X23537Y-48542D01*
X23606Y-48439D01*
X23674Y-48542D01*
X23824Y-48642D01*
G54D10*
G36*
X23824Y-44270D02*
X23674Y-44370D01*
X23606Y-44473D01*
X23537Y-44370D01*
X23339Y-44238D01*
X23146Y-44200D01*
X23213Y-44200D01*
X23425Y-44112D01*
X23541Y-43996D01*
X23567Y-44059D01*
X23746Y-44238D01*
X23824Y-44270D01*
X23824Y-44270D01*
G37*
G54D35*
X23824Y-44270D02*
X23674Y-44370D01*
X23606Y-44473D01*
X23537Y-44370D01*
X23339Y-44238D01*
X23146Y-44200D01*
X23213Y-44200D01*
X23425Y-44112D01*
X23541Y-43996D01*
X23567Y-44059D01*
X23746Y-44238D01*
X23824Y-44270D01*
G54D10*
G36*
X23873Y-43110D02*
X23747Y-43162D01*
X23594Y-43315D01*
X23587Y-43299D01*
X23501Y-43213D01*
X23501Y-42718D01*
X23567Y-42878D01*
X23746Y-43057D01*
X23873Y-43110D01*
X23873Y-43110D01*
G37*
G54D35*
X23873Y-43110D02*
X23747Y-43162D01*
X23594Y-43315D01*
X23587Y-43299D01*
X23501Y-43213D01*
X23501Y-42718D01*
X23567Y-42878D01*
X23746Y-43057D01*
X23873Y-43110D01*
G54D10*
G36*
X23953Y-49836D02*
X23689Y-49836D01*
X23510Y-49657D01*
X23510Y-49431D01*
X23567Y-49571D01*
X23746Y-49750D01*
X23953Y-49836D01*
X23953Y-49836D01*
G37*
G54D35*
X23953Y-49836D02*
X23689Y-49836D01*
X23510Y-49657D01*
X23510Y-49431D01*
X23567Y-49571D01*
X23746Y-49750D01*
X23953Y-49836D01*
G54D10*
G36*
X24028Y-36395D02*
X23992Y-36430D01*
X23741Y-36430D01*
X23817Y-36399D01*
X23925Y-36291D01*
X24028Y-36395D01*
X24028Y-36395D01*
G37*
G54D35*
X24028Y-36395D02*
X23992Y-36430D01*
X23741Y-36430D01*
X23817Y-36399D01*
X23925Y-36291D01*
X24028Y-36395D01*
G54D10*
G36*
X24299Y-41912D02*
X24233Y-41885D01*
X23980Y-41884D01*
X23747Y-41981D01*
X23568Y-42159D01*
X23501Y-42320D01*
X23501Y-42138D01*
X24299Y-41341D01*
X24299Y-41912D01*
X24299Y-41912D01*
G37*
G54D35*
X24299Y-41912D02*
X24233Y-41885D01*
X23980Y-41884D01*
X23747Y-41981D01*
X23568Y-42159D01*
X23501Y-42320D01*
X23501Y-42138D01*
X24299Y-41341D01*
X24299Y-41912D01*
G54D10*
G36*
X24571Y-27934D02*
X24563Y-27939D01*
X24477Y-27997D01*
X24217Y-28257D01*
X24130Y-28386D01*
X24125Y-28412D01*
X24100Y-28540D01*
X24100Y-28861D01*
X24000Y-28841D01*
X23817Y-28877D01*
X23662Y-28981D01*
X23559Y-29136D01*
X23522Y-29318D01*
X23522Y-29578D01*
X23559Y-29760D01*
X23600Y-29822D01*
X23600Y-31700D01*
X23385Y-31700D01*
X23285Y-31700D01*
X23299Y-31664D01*
X23300Y-31436D01*
X23212Y-31224D01*
X23051Y-31062D01*
X22839Y-30975D01*
X22750Y-30975D01*
X22750Y-30118D01*
X22750Y-30043D01*
X23086Y-30043D01*
X23197Y-29998D01*
X23281Y-29913D01*
X23327Y-29803D01*
X23327Y-29684D01*
X23327Y-29093D01*
X23282Y-28983D01*
X23197Y-28899D01*
X23183Y-28893D01*
X23183Y-28893D01*
X23133Y-28817D01*
X23133Y-28817D01*
X22262Y-27947D01*
X22243Y-27934D01*
X24571Y-27934D01*
X24571Y-27934D01*
G37*
G54D35*
X24571Y-27934D02*
X24563Y-27939D01*
X24477Y-27997D01*
X24217Y-28257D01*
X24130Y-28386D01*
X24125Y-28412D01*
X24100Y-28540D01*
X24100Y-28861D01*
X24000Y-28841D01*
X23817Y-28877D01*
X23662Y-28981D01*
X23559Y-29136D01*
X23522Y-29318D01*
X23522Y-29578D01*
X23559Y-29760D01*
X23600Y-29822D01*
X23600Y-31700D01*
X23385Y-31700D01*
X23285Y-31700D01*
X23299Y-31664D01*
X23300Y-31436D01*
X23212Y-31224D01*
X23051Y-31062D01*
X22839Y-30975D01*
X22750Y-30975D01*
X22750Y-30118D01*
X22750Y-30043D01*
X23086Y-30043D01*
X23197Y-29998D01*
X23281Y-29913D01*
X23327Y-29803D01*
X23327Y-29684D01*
X23327Y-29093D01*
X23282Y-28983D01*
X23197Y-28899D01*
X23183Y-28893D01*
X23183Y-28893D01*
X23133Y-28817D01*
X23133Y-28817D01*
X22262Y-27947D01*
X22243Y-27934D01*
X24571Y-27934D01*
G54D10*
G36*
X24695Y-61436D02*
X24320Y-61436D01*
X24323Y-61434D01*
X24407Y-61350D01*
X24410Y-61344D01*
X24605Y-61344D01*
X24607Y-61350D01*
X24692Y-61434D01*
X24695Y-61436D01*
X24695Y-61436D01*
G37*
G54D35*
X24695Y-61436D02*
X24320Y-61436D01*
X24323Y-61434D01*
X24407Y-61350D01*
X24410Y-61344D01*
X24605Y-61344D01*
X24607Y-61350D01*
X24692Y-61434D01*
X24695Y-61436D01*
G54D10*
G36*
X24711Y-49715D02*
X24599Y-49762D01*
X24525Y-49836D01*
X24258Y-49836D01*
X24465Y-49750D01*
X24606Y-49610D01*
X24711Y-49715D01*
X24711Y-49715D01*
G37*
G54D35*
X24711Y-49715D02*
X24599Y-49762D01*
X24525Y-49836D01*
X24258Y-49836D01*
X24465Y-49750D01*
X24606Y-49610D01*
X24711Y-49715D01*
G54D10*
G36*
X24824Y-48642D02*
X24747Y-48674D01*
X24606Y-48815D01*
X24466Y-48674D01*
X24388Y-48642D01*
X24537Y-48542D01*
X24606Y-48439D01*
X24674Y-48542D01*
X24824Y-48642D01*
X24824Y-48642D01*
G37*
G54D35*
X24824Y-48642D02*
X24747Y-48674D01*
X24606Y-48815D01*
X24466Y-48674D01*
X24388Y-48642D01*
X24537Y-48542D01*
X24606Y-48439D01*
X24674Y-48542D01*
X24824Y-48642D01*
G54D10*
G36*
X24824Y-44270D02*
X24674Y-44370D01*
X24606Y-44473D01*
X24537Y-44370D01*
X24388Y-44270D01*
X24465Y-44239D01*
X24606Y-44098D01*
X24746Y-44238D01*
X24824Y-44270D01*
X24824Y-44270D01*
G37*
G54D35*
X24824Y-44270D02*
X24674Y-44370D01*
X24606Y-44473D01*
X24537Y-44370D01*
X24388Y-44270D01*
X24465Y-44239D01*
X24606Y-44098D01*
X24746Y-44238D01*
X24824Y-44270D01*
G54D10*
G36*
X24873Y-43110D02*
X24747Y-43162D01*
X24606Y-43303D01*
X24466Y-43163D01*
X24338Y-43110D01*
X24465Y-43058D01*
X24606Y-42917D01*
X24746Y-43057D01*
X24873Y-43110D01*
X24873Y-43110D01*
G37*
G54D35*
X24873Y-43110D02*
X24747Y-43162D01*
X24606Y-43303D01*
X24466Y-43163D01*
X24338Y-43110D01*
X24465Y-43058D01*
X24606Y-42917D01*
X24746Y-43057D01*
X24873Y-43110D01*
G54D10*
G36*
X24938Y-37117D02*
X24909Y-37117D01*
X24923Y-37082D01*
X24938Y-37117D01*
X24938Y-37117D01*
G37*
G54D35*
X24938Y-37117D02*
X24909Y-37117D01*
X24923Y-37082D01*
X24938Y-37117D01*
G54D10*
G36*
X25071Y-36415D02*
X24962Y-36523D01*
X24931Y-36598D01*
X24893Y-36505D01*
X24796Y-36408D01*
X24817Y-36399D01*
X24925Y-36291D01*
X25031Y-36398D01*
X25071Y-36415D01*
X25071Y-36415D01*
G37*
G54D35*
X25071Y-36415D02*
X24962Y-36523D01*
X24931Y-36598D01*
X24893Y-36505D01*
X24796Y-36408D01*
X24817Y-36399D01*
X24925Y-36291D01*
X25031Y-36398D01*
X25071Y-36415D01*
G54D10*
G36*
X25181Y-51348D02*
X25055Y-51295D01*
X24795Y-51295D01*
X24554Y-51394D01*
X24528Y-51420D01*
X24449Y-51341D01*
X24339Y-51295D01*
X24219Y-51295D01*
X23511Y-51295D01*
X23400Y-51341D01*
X23337Y-51404D01*
X23337Y-50975D01*
X23387Y-50926D01*
X23474Y-50714D01*
X23474Y-50626D01*
X23523Y-50636D01*
X24225Y-50636D01*
X24498Y-50636D01*
X24598Y-50737D01*
X24810Y-50824D01*
X25038Y-50825D01*
X25181Y-50766D01*
X25181Y-51348D01*
X25181Y-51348D01*
G37*
G54D35*
X25181Y-51348D02*
X25055Y-51295D01*
X24795Y-51295D01*
X24554Y-51394D01*
X24528Y-51420D01*
X24449Y-51341D01*
X24339Y-51295D01*
X24219Y-51295D01*
X23511Y-51295D01*
X23400Y-51341D01*
X23337Y-51404D01*
X23337Y-50975D01*
X23387Y-50926D01*
X23474Y-50714D01*
X23474Y-50626D01*
X23523Y-50636D01*
X24225Y-50636D01*
X24498Y-50636D01*
X24598Y-50737D01*
X24810Y-50824D01*
X25038Y-50825D01*
X25181Y-50766D01*
X25181Y-51348D01*
G54D10*
G36*
X25664Y-31700D02*
X25660Y-31700D01*
X25662Y-31694D01*
X25664Y-31700D01*
X25664Y-31700D01*
G37*
G54D35*
X25664Y-31700D02*
X25660Y-31700D01*
X25662Y-31694D01*
X25664Y-31700D01*
G54D10*
G36*
X25752Y-44319D02*
X25674Y-44370D01*
X25606Y-44473D01*
X25537Y-44370D01*
X25388Y-44270D01*
X25465Y-44239D01*
X25592Y-44112D01*
X25626Y-44192D01*
X25752Y-44319D01*
X25752Y-44319D01*
G37*
G54D35*
X25752Y-44319D02*
X25674Y-44370D01*
X25606Y-44473D01*
X25537Y-44370D01*
X25388Y-44270D01*
X25465Y-44239D01*
X25592Y-44112D01*
X25626Y-44192D01*
X25752Y-44319D01*
G54D10*
G36*
X26202Y-36469D02*
X25882Y-36469D01*
X25813Y-36400D01*
X25817Y-36399D01*
X25925Y-36291D01*
X26031Y-36398D01*
X26202Y-36469D01*
X26202Y-36469D01*
G37*
G54D35*
X26202Y-36469D02*
X25882Y-36469D01*
X25813Y-36400D01*
X25817Y-36399D01*
X25925Y-36291D01*
X26031Y-36398D01*
X26202Y-36469D01*
G54D10*
G36*
X26486Y-37269D02*
X26425Y-37330D01*
X26364Y-37269D01*
X26486Y-37269D01*
X26486Y-37269D01*
G37*
G54D35*
X26486Y-37269D02*
X26425Y-37330D01*
X26364Y-37269D01*
X26486Y-37269D01*
G54D10*
G36*
X26951Y-44222D02*
X26872Y-44238D01*
X26674Y-44370D01*
X26606Y-44473D01*
X26544Y-44380D01*
X26551Y-44377D01*
X26706Y-44222D01*
X26951Y-44222D01*
X26951Y-44222D01*
G37*
G54D35*
X26951Y-44222D02*
X26872Y-44238D01*
X26674Y-44370D01*
X26606Y-44473D01*
X26544Y-44380D01*
X26551Y-44377D01*
X26706Y-44222D01*
X26951Y-44222D01*
G54D10*
G36*
X27749Y-41720D02*
X27720Y-41649D01*
X27536Y-41465D01*
X27296Y-41365D01*
X27035Y-41365D01*
X26795Y-41464D01*
X26610Y-41648D01*
X26511Y-41888D01*
X26510Y-42149D01*
X26610Y-42389D01*
X26636Y-42415D01*
X26556Y-42495D01*
X26511Y-42605D01*
X26510Y-42724D01*
X26510Y-43251D01*
X26311Y-43168D01*
X26051Y-43168D01*
X25810Y-43267D01*
X25671Y-43406D01*
X25644Y-43341D01*
X25466Y-43163D01*
X25338Y-43110D01*
X25465Y-43058D01*
X25644Y-42879D01*
X25740Y-42646D01*
X25741Y-42394D01*
X25701Y-42297D01*
X26133Y-42297D01*
X26133Y-41477D01*
X26310Y-41477D01*
X26551Y-41377D01*
X26735Y-41193D01*
X26835Y-40953D01*
X26835Y-40693D01*
X26811Y-40636D01*
X27413Y-40636D01*
X27749Y-40972D01*
X27749Y-41720D01*
X27749Y-41720D01*
G37*
G54D35*
X27749Y-41720D02*
X27720Y-41649D01*
X27536Y-41465D01*
X27296Y-41365D01*
X27035Y-41365D01*
X26795Y-41464D01*
X26610Y-41648D01*
X26511Y-41888D01*
X26510Y-42149D01*
X26610Y-42389D01*
X26636Y-42415D01*
X26556Y-42495D01*
X26511Y-42605D01*
X26510Y-42724D01*
X26510Y-43251D01*
X26311Y-43168D01*
X26051Y-43168D01*
X25810Y-43267D01*
X25671Y-43406D01*
X25644Y-43341D01*
X25466Y-43163D01*
X25338Y-43110D01*
X25465Y-43058D01*
X25644Y-42879D01*
X25740Y-42646D01*
X25741Y-42394D01*
X25701Y-42297D01*
X26133Y-42297D01*
X26133Y-41477D01*
X26310Y-41477D01*
X26551Y-41377D01*
X26735Y-41193D01*
X26835Y-40953D01*
X26835Y-40693D01*
X26811Y-40636D01*
X27413Y-40636D01*
X27749Y-40972D01*
X27749Y-41720D01*
G54D10*
G36*
X27761Y-42483D02*
X27694Y-42415D01*
X27719Y-42390D01*
X27749Y-42318D01*
X27749Y-42421D01*
X27761Y-42483D01*
X27761Y-42483D01*
G37*
G54D35*
X27761Y-42483D02*
X27694Y-42415D01*
X27719Y-42390D01*
X27749Y-42318D01*
X27749Y-42421D01*
X27761Y-42483D01*
G54D10*
G36*
X27951Y-44222D02*
X27872Y-44238D01*
X27674Y-44370D01*
X27606Y-44473D01*
X27537Y-44370D01*
X27339Y-44238D01*
X27261Y-44222D01*
X27951Y-44222D01*
X27951Y-44222D01*
G37*
G54D35*
X27951Y-44222D02*
X27872Y-44238D01*
X27674Y-44370D01*
X27606Y-44473D01*
X27537Y-44370D01*
X27339Y-44238D01*
X27261Y-44222D01*
X27951Y-44222D01*
G54D10*
G36*
X28061Y-45712D02*
X28031Y-45741D01*
X26775Y-45741D01*
X23966Y-45741D01*
X23464Y-45741D01*
X17657Y-45741D01*
X17504Y-45772D01*
X17461Y-45800D01*
X17374Y-45858D01*
X16679Y-46553D01*
X16679Y-44457D01*
X17416Y-43719D01*
X17416Y-43897D01*
X17521Y-44152D01*
X17713Y-44344D01*
X17674Y-44370D01*
X17542Y-44568D01*
X17496Y-44801D01*
X17496Y-45111D01*
X17542Y-45344D01*
X17674Y-45542D01*
X17872Y-45674D01*
X18106Y-45721D01*
X18339Y-45674D01*
X18537Y-45542D01*
X18606Y-45439D01*
X18674Y-45542D01*
X18872Y-45674D01*
X19106Y-45721D01*
X19339Y-45674D01*
X19537Y-45542D01*
X19606Y-45439D01*
X19674Y-45542D01*
X19872Y-45674D01*
X20106Y-45721D01*
X20339Y-45674D01*
X20537Y-45542D01*
X20606Y-45439D01*
X20674Y-45542D01*
X20872Y-45674D01*
X21106Y-45721D01*
X21339Y-45674D01*
X21537Y-45542D01*
X21606Y-45439D01*
X21674Y-45542D01*
X21872Y-45674D01*
X22106Y-45721D01*
X22339Y-45674D01*
X22537Y-45542D01*
X22606Y-45439D01*
X22674Y-45542D01*
X22872Y-45674D01*
X23106Y-45721D01*
X23339Y-45674D01*
X23537Y-45542D01*
X23606Y-45439D01*
X23674Y-45542D01*
X23872Y-45674D01*
X24106Y-45721D01*
X24339Y-45674D01*
X24537Y-45542D01*
X24606Y-45439D01*
X24674Y-45542D01*
X24872Y-45674D01*
X25106Y-45721D01*
X25339Y-45674D01*
X25537Y-45542D01*
X25606Y-45439D01*
X25674Y-45542D01*
X25872Y-45674D01*
X26106Y-45721D01*
X26339Y-45674D01*
X26537Y-45542D01*
X26606Y-45439D01*
X26674Y-45542D01*
X26872Y-45674D01*
X27106Y-45721D01*
X27339Y-45674D01*
X27537Y-45542D01*
X27606Y-45439D01*
X27674Y-45542D01*
X27872Y-45674D01*
X28061Y-45712D01*
X28061Y-45712D01*
G37*
G54D35*
X28061Y-45712D02*
X28031Y-45741D01*
X26775Y-45741D01*
X23966Y-45741D01*
X23464Y-45741D01*
X17657Y-45741D01*
X17504Y-45772D01*
X17461Y-45800D01*
X17374Y-45858D01*
X16679Y-46553D01*
X16679Y-44457D01*
X17416Y-43719D01*
X17416Y-43897D01*
X17521Y-44152D01*
X17713Y-44344D01*
X17674Y-44370D01*
X17542Y-44568D01*
X17496Y-44801D01*
X17496Y-45111D01*
X17542Y-45344D01*
X17674Y-45542D01*
X17872Y-45674D01*
X18106Y-45721D01*
X18339Y-45674D01*
X18537Y-45542D01*
X18606Y-45439D01*
X18674Y-45542D01*
X18872Y-45674D01*
X19106Y-45721D01*
X19339Y-45674D01*
X19537Y-45542D01*
X19606Y-45439D01*
X19674Y-45542D01*
X19872Y-45674D01*
X20106Y-45721D01*
X20339Y-45674D01*
X20537Y-45542D01*
X20606Y-45439D01*
X20674Y-45542D01*
X20872Y-45674D01*
X21106Y-45721D01*
X21339Y-45674D01*
X21537Y-45542D01*
X21606Y-45439D01*
X21674Y-45542D01*
X21872Y-45674D01*
X22106Y-45721D01*
X22339Y-45674D01*
X22537Y-45542D01*
X22606Y-45439D01*
X22674Y-45542D01*
X22872Y-45674D01*
X23106Y-45721D01*
X23339Y-45674D01*
X23537Y-45542D01*
X23606Y-45439D01*
X23674Y-45542D01*
X23872Y-45674D01*
X24106Y-45721D01*
X24339Y-45674D01*
X24537Y-45542D01*
X24606Y-45439D01*
X24674Y-45542D01*
X24872Y-45674D01*
X25106Y-45721D01*
X25339Y-45674D01*
X25537Y-45542D01*
X25606Y-45439D01*
X25674Y-45542D01*
X25872Y-45674D01*
X26106Y-45721D01*
X26339Y-45674D01*
X26537Y-45542D01*
X26606Y-45439D01*
X26674Y-45542D01*
X26872Y-45674D01*
X27106Y-45721D01*
X27339Y-45674D01*
X27537Y-45542D01*
X27606Y-45439D01*
X27674Y-45542D01*
X27872Y-45674D01*
X28061Y-45712D01*
G54D10*
G36*
X28261Y-40353D02*
X27861Y-39953D01*
X27853Y-39948D01*
X27949Y-39908D01*
X28128Y-39730D01*
X28225Y-39496D01*
X28225Y-39244D01*
X28128Y-39011D01*
X27950Y-38832D01*
X27717Y-38735D01*
X27464Y-38735D01*
X27231Y-38831D01*
X27052Y-39010D01*
X26956Y-39243D01*
X26955Y-39495D01*
X27052Y-39729D01*
X27159Y-39836D01*
X24842Y-39836D01*
X24714Y-39861D01*
X24689Y-39866D01*
X24559Y-39953D01*
X24303Y-40209D01*
X24303Y-40209D01*
X24292Y-40217D01*
X24225Y-40284D01*
X24225Y-39645D01*
X24225Y-38976D01*
X24179Y-38865D01*
X24095Y-38781D01*
X23985Y-38735D01*
X23865Y-38735D01*
X23196Y-38735D01*
X23086Y-38780D01*
X23001Y-38865D01*
X22955Y-38975D01*
X22955Y-39094D01*
X22955Y-39764D01*
X23001Y-39874D01*
X23085Y-39958D01*
X23195Y-40004D01*
X23315Y-40004D01*
X23984Y-40004D01*
X24094Y-39959D01*
X24179Y-39874D01*
X24225Y-39764D01*
X24225Y-39645D01*
X24225Y-40284D01*
X23000Y-41509D01*
X23000Y-40850D01*
X22998Y-40842D01*
X22998Y-40649D01*
X22998Y-40059D01*
X22973Y-39931D01*
X22967Y-39905D01*
X22967Y-39905D01*
X22881Y-39776D01*
X22881Y-39776D01*
X21542Y-38437D01*
X21412Y-38350D01*
X21387Y-38345D01*
X21373Y-38343D01*
X21425Y-38291D01*
X21531Y-38398D01*
X21786Y-38504D01*
X22062Y-38504D01*
X22317Y-38399D01*
X22425Y-38291D01*
X22531Y-38398D01*
X22786Y-38504D01*
X23062Y-38504D01*
X23317Y-38399D01*
X23425Y-38291D01*
X23531Y-38398D01*
X23786Y-38504D01*
X24062Y-38504D01*
X24317Y-38399D01*
X24425Y-38291D01*
X24531Y-38398D01*
X24786Y-38504D01*
X25062Y-38504D01*
X25317Y-38399D01*
X25425Y-38291D01*
X25531Y-38398D01*
X25786Y-38504D01*
X26062Y-38504D01*
X26317Y-38399D01*
X26425Y-38291D01*
X26531Y-38398D01*
X26786Y-38504D01*
X27062Y-38504D01*
X27317Y-38399D01*
X27512Y-38204D01*
X27532Y-38157D01*
X28261Y-38886D01*
X28261Y-38937D01*
X28261Y-40353D01*
X28261Y-40353D01*
G37*
G54D35*
X28261Y-40353D02*
X27861Y-39953D01*
X27853Y-39948D01*
X27949Y-39908D01*
X28128Y-39730D01*
X28225Y-39496D01*
X28225Y-39244D01*
X28128Y-39011D01*
X27950Y-38832D01*
X27717Y-38735D01*
X27464Y-38735D01*
X27231Y-38831D01*
X27052Y-39010D01*
X26956Y-39243D01*
X26955Y-39495D01*
X27052Y-39729D01*
X27159Y-39836D01*
X24842Y-39836D01*
X24714Y-39861D01*
X24689Y-39866D01*
X24559Y-39953D01*
X24303Y-40209D01*
X24303Y-40209D01*
X24292Y-40217D01*
X24225Y-40284D01*
X24225Y-39645D01*
X24225Y-38976D01*
X24179Y-38865D01*
X24095Y-38781D01*
X23985Y-38735D01*
X23865Y-38735D01*
X23196Y-38735D01*
X23086Y-38780D01*
X23001Y-38865D01*
X22955Y-38975D01*
X22955Y-39094D01*
X22955Y-39764D01*
X23001Y-39874D01*
X23085Y-39958D01*
X23195Y-40004D01*
X23315Y-40004D01*
X23984Y-40004D01*
X24094Y-39959D01*
X24179Y-39874D01*
X24225Y-39764D01*
X24225Y-39645D01*
X24225Y-40284D01*
X23000Y-41509D01*
X23000Y-40850D01*
X22998Y-40842D01*
X22998Y-40649D01*
X22998Y-40059D01*
X22973Y-39931D01*
X22967Y-39905D01*
X22967Y-39905D01*
X22881Y-39776D01*
X22881Y-39776D01*
X21542Y-38437D01*
X21412Y-38350D01*
X21387Y-38345D01*
X21373Y-38343D01*
X21425Y-38291D01*
X21531Y-38398D01*
X21786Y-38504D01*
X22062Y-38504D01*
X22317Y-38399D01*
X22425Y-38291D01*
X22531Y-38398D01*
X22786Y-38504D01*
X23062Y-38504D01*
X23317Y-38399D01*
X23425Y-38291D01*
X23531Y-38398D01*
X23786Y-38504D01*
X24062Y-38504D01*
X24317Y-38399D01*
X24425Y-38291D01*
X24531Y-38398D01*
X24786Y-38504D01*
X25062Y-38504D01*
X25317Y-38399D01*
X25425Y-38291D01*
X25531Y-38398D01*
X25786Y-38504D01*
X26062Y-38504D01*
X26317Y-38399D01*
X26425Y-38291D01*
X26531Y-38398D01*
X26786Y-38504D01*
X27062Y-38504D01*
X27317Y-38399D01*
X27512Y-38204D01*
X27532Y-38157D01*
X28261Y-38886D01*
X28261Y-38937D01*
X28261Y-40353D01*
G54D10*
G36*
X28376Y-31687D02*
X28325Y-31810D01*
X28324Y-32038D01*
X28350Y-32100D01*
X27145Y-32100D01*
X27192Y-32052D01*
X27192Y-32052D01*
X27250Y-31966D01*
X27279Y-31923D01*
X27279Y-31923D01*
X27309Y-31770D01*
X27310Y-31770D01*
X27310Y-31237D01*
X27355Y-31304D01*
X27355Y-31304D01*
X27354Y-31433D01*
X27442Y-31645D01*
X27603Y-31807D01*
X27815Y-31894D01*
X28043Y-31895D01*
X28255Y-31807D01*
X28376Y-31687D01*
X28376Y-31687D01*
G37*
G54D35*
X28376Y-31687D02*
X28325Y-31810D01*
X28324Y-32038D01*
X28350Y-32100D01*
X27145Y-32100D01*
X27192Y-32052D01*
X27192Y-32052D01*
X27250Y-31966D01*
X27279Y-31923D01*
X27279Y-31923D01*
X27309Y-31770D01*
X27310Y-31770D01*
X27310Y-31237D01*
X27355Y-31304D01*
X27355Y-31304D01*
X27354Y-31433D01*
X27442Y-31645D01*
X27603Y-31807D01*
X27815Y-31894D01*
X28043Y-31895D01*
X28255Y-31807D01*
X28376Y-31687D01*
G54D10*
G36*
X28500Y-31511D02*
X28453Y-31557D01*
X28500Y-31446D01*
X28500Y-31511D01*
X28500Y-31511D01*
G37*
G54D35*
X28500Y-31511D02*
X28453Y-31557D01*
X28500Y-31446D01*
X28500Y-31511D01*
G54D10*
G36*
X28585Y-43422D02*
X27819Y-43422D01*
X27819Y-43314D01*
X27819Y-42633D01*
X27866Y-42704D01*
X28585Y-43422D01*
X28585Y-43422D01*
G37*
G54D35*
X28585Y-43422D02*
X27819Y-43422D01*
X27819Y-43314D01*
X27819Y-42633D01*
X27866Y-42704D01*
X28585Y-43422D01*
G54D10*
G36*
X28632Y-44434D02*
X28606Y-44473D01*
X28537Y-44370D01*
X28339Y-44238D01*
X28261Y-44222D01*
X28420Y-44222D01*
X28632Y-44434D01*
X28632Y-44434D01*
G37*
G54D35*
X28632Y-44434D02*
X28606Y-44473D01*
X28537Y-44370D01*
X28339Y-44238D01*
X28261Y-44222D01*
X28420Y-44222D01*
X28632Y-44434D01*
G54D10*
G36*
X29089Y-36932D02*
X29072Y-36914D01*
X29089Y-36897D01*
X29089Y-36932D01*
X29089Y-36932D01*
G37*
G54D35*
X29089Y-36932D02*
X29072Y-36914D01*
X29089Y-36897D01*
X29089Y-36932D01*
G54D10*
G36*
X29231Y-27184D02*
X24525Y-27184D01*
X24525Y-24664D01*
X24358Y-24259D01*
X24049Y-23949D01*
X23644Y-23782D01*
X23207Y-23781D01*
X22802Y-23948D01*
X22493Y-24257D01*
X22325Y-24662D01*
X22325Y-25099D01*
X22492Y-25504D01*
X22801Y-25813D01*
X23205Y-25981D01*
X23643Y-25982D01*
X24047Y-25814D01*
X24357Y-25505D01*
X24525Y-25101D01*
X24525Y-24664D01*
X24525Y-27184D01*
X20768Y-27184D01*
X20768Y-22579D01*
X29231Y-22579D01*
X29231Y-27184D01*
X29231Y-27184D01*
G37*
G54D35*
X29231Y-27184D02*
X24525Y-27184D01*
X24525Y-24664D01*
X24358Y-24259D01*
X24049Y-23949D01*
X23644Y-23782D01*
X23207Y-23781D01*
X22802Y-23948D01*
X22493Y-24257D01*
X22325Y-24662D01*
X22325Y-25099D01*
X22492Y-25504D01*
X22801Y-25813D01*
X23205Y-25981D01*
X23643Y-25982D01*
X24047Y-25814D01*
X24357Y-25505D01*
X24525Y-25101D01*
X24525Y-24664D01*
X24525Y-27184D01*
X20768Y-27184D01*
X20768Y-22579D01*
X29231Y-22579D01*
X29231Y-27184D01*
G54D10*
G36*
X29405Y-28668D02*
X29221Y-28853D01*
X28913Y-28853D01*
X28840Y-28883D01*
X28832Y-28877D01*
X28649Y-28841D01*
X28467Y-28877D01*
X28312Y-28981D01*
X28208Y-29136D01*
X28172Y-29318D01*
X28172Y-29578D01*
X28208Y-29760D01*
X28249Y-29822D01*
X28249Y-30069D01*
X28275Y-30197D01*
X28280Y-30222D01*
X28366Y-30352D01*
X28500Y-30485D01*
X28500Y-31193D01*
X28417Y-30994D01*
X28256Y-30832D01*
X28049Y-30747D01*
X28049Y-29822D01*
X28090Y-29760D01*
X28126Y-29578D01*
X28126Y-29318D01*
X28090Y-29136D01*
X27987Y-28981D01*
X27832Y-28877D01*
X27649Y-28841D01*
X27467Y-28877D01*
X27399Y-28922D01*
X27332Y-28877D01*
X27149Y-28841D01*
X26967Y-28877D01*
X26812Y-28981D01*
X26708Y-29136D01*
X26672Y-29318D01*
X26672Y-29360D01*
X26627Y-29405D01*
X26572Y-29487D01*
X26507Y-29390D01*
X26507Y-29390D01*
X26477Y-29360D01*
X26477Y-29093D01*
X26431Y-28983D01*
X26347Y-28899D01*
X26237Y-28853D01*
X26117Y-28853D01*
X25763Y-28853D01*
X25690Y-28883D01*
X25682Y-28877D01*
X25500Y-28841D01*
X25317Y-28877D01*
X25162Y-28981D01*
X25059Y-29136D01*
X25022Y-29318D01*
X25022Y-29578D01*
X25059Y-29760D01*
X25100Y-29822D01*
X25100Y-30027D01*
X25100Y-30196D01*
X25100Y-30934D01*
X25059Y-30974D01*
X24986Y-30974D01*
X24774Y-31062D01*
X24612Y-31223D01*
X24525Y-31435D01*
X24524Y-31663D01*
X24539Y-31700D01*
X24400Y-31700D01*
X24400Y-30035D01*
X24500Y-30055D01*
X24682Y-30019D01*
X24837Y-29915D01*
X24940Y-29760D01*
X24977Y-29578D01*
X24977Y-29318D01*
X24940Y-29136D01*
X24900Y-29075D01*
X24900Y-28705D01*
X24925Y-28680D01*
X29350Y-28680D01*
X29350Y-28679D01*
X29405Y-28668D01*
X29405Y-28668D01*
G37*
G54D35*
X29405Y-28668D02*
X29221Y-28853D01*
X28913Y-28853D01*
X28840Y-28883D01*
X28832Y-28877D01*
X28649Y-28841D01*
X28467Y-28877D01*
X28312Y-28981D01*
X28208Y-29136D01*
X28172Y-29318D01*
X28172Y-29578D01*
X28208Y-29760D01*
X28249Y-29822D01*
X28249Y-30069D01*
X28275Y-30197D01*
X28280Y-30222D01*
X28366Y-30352D01*
X28500Y-30485D01*
X28500Y-31193D01*
X28417Y-30994D01*
X28256Y-30832D01*
X28049Y-30747D01*
X28049Y-29822D01*
X28090Y-29760D01*
X28126Y-29578D01*
X28126Y-29318D01*
X28090Y-29136D01*
X27987Y-28981D01*
X27832Y-28877D01*
X27649Y-28841D01*
X27467Y-28877D01*
X27399Y-28922D01*
X27332Y-28877D01*
X27149Y-28841D01*
X26967Y-28877D01*
X26812Y-28981D01*
X26708Y-29136D01*
X26672Y-29318D01*
X26672Y-29360D01*
X26627Y-29405D01*
X26572Y-29487D01*
X26507Y-29390D01*
X26507Y-29390D01*
X26477Y-29360D01*
X26477Y-29093D01*
X26431Y-28983D01*
X26347Y-28899D01*
X26237Y-28853D01*
X26117Y-28853D01*
X25763Y-28853D01*
X25690Y-28883D01*
X25682Y-28877D01*
X25500Y-28841D01*
X25317Y-28877D01*
X25162Y-28981D01*
X25059Y-29136D01*
X25022Y-29318D01*
X25022Y-29578D01*
X25059Y-29760D01*
X25100Y-29822D01*
X25100Y-30027D01*
X25100Y-30196D01*
X25100Y-30934D01*
X25059Y-30974D01*
X24986Y-30974D01*
X24774Y-31062D01*
X24612Y-31223D01*
X24525Y-31435D01*
X24524Y-31663D01*
X24539Y-31700D01*
X24400Y-31700D01*
X24400Y-30035D01*
X24500Y-30055D01*
X24682Y-30019D01*
X24837Y-29915D01*
X24940Y-29760D01*
X24977Y-29578D01*
X24977Y-29318D01*
X24940Y-29136D01*
X24900Y-29075D01*
X24900Y-28705D01*
X24925Y-28680D01*
X29350Y-28680D01*
X29350Y-28679D01*
X29405Y-28668D01*
G54D10*
G36*
X30260Y-32710D02*
X30216Y-32728D01*
X30118Y-32688D01*
X29999Y-32688D01*
X29937Y-32688D01*
X29994Y-32603D01*
X29994Y-32603D01*
X29996Y-32594D01*
X29996Y-32594D01*
X30145Y-32445D01*
X30145Y-32454D01*
X30244Y-32695D01*
X30260Y-32710D01*
X30260Y-32710D01*
G37*
G54D35*
X30260Y-32710D02*
X30216Y-32728D01*
X30118Y-32688D01*
X29999Y-32688D01*
X29937Y-32688D01*
X29994Y-32603D01*
X29994Y-32603D01*
X29996Y-32594D01*
X29996Y-32594D01*
X30145Y-32445D01*
X30145Y-32454D01*
X30244Y-32695D01*
X30260Y-32710D01*
G54D10*
G36*
X32036Y-49385D02*
X31854Y-49384D01*
X31614Y-49484D01*
X31484Y-49614D01*
X31355Y-49484D01*
X31114Y-49385D01*
X30854Y-49384D01*
X30614Y-49484D01*
X30588Y-49510D01*
X30508Y-49430D01*
X30398Y-49385D01*
X30279Y-49384D01*
X29570Y-49384D01*
X29460Y-49430D01*
X29375Y-49514D01*
X29329Y-49625D01*
X29329Y-49744D01*
X29329Y-50170D01*
X28880Y-50170D01*
X28880Y-51892D01*
X28558Y-52214D01*
X28558Y-50711D01*
X25276Y-50711D01*
X25412Y-50576D01*
X25499Y-50364D01*
X25500Y-50136D01*
X25412Y-49924D01*
X25305Y-49817D01*
X25465Y-49750D01*
X25644Y-49572D01*
X25740Y-49339D01*
X25740Y-49159D01*
X31259Y-49159D01*
X31437Y-49159D01*
X31437Y-49159D01*
X31564Y-49134D01*
X31590Y-49129D01*
X31590Y-49129D01*
X31719Y-49042D01*
X31936Y-48826D01*
X31905Y-48900D01*
X31905Y-49129D01*
X31992Y-49341D01*
X32036Y-49385D01*
X32036Y-49385D01*
G37*
G54D35*
X32036Y-49385D02*
X31854Y-49384D01*
X31614Y-49484D01*
X31484Y-49614D01*
X31355Y-49484D01*
X31114Y-49385D01*
X30854Y-49384D01*
X30614Y-49484D01*
X30588Y-49510D01*
X30508Y-49430D01*
X30398Y-49385D01*
X30279Y-49384D01*
X29570Y-49384D01*
X29460Y-49430D01*
X29375Y-49514D01*
X29329Y-49625D01*
X29329Y-49744D01*
X29329Y-50170D01*
X28880Y-50170D01*
X28880Y-51892D01*
X28558Y-52214D01*
X28558Y-50711D01*
X25276Y-50711D01*
X25412Y-50576D01*
X25499Y-50364D01*
X25500Y-50136D01*
X25412Y-49924D01*
X25305Y-49817D01*
X25465Y-49750D01*
X25644Y-49572D01*
X25740Y-49339D01*
X25740Y-49159D01*
X31259Y-49159D01*
X31437Y-49159D01*
X31437Y-49159D01*
X31564Y-49134D01*
X31590Y-49129D01*
X31590Y-49129D01*
X31719Y-49042D01*
X31936Y-48826D01*
X31905Y-48900D01*
X31905Y-49129D01*
X31992Y-49341D01*
X32036Y-49385D01*
G54D10*
G36*
X32139Y-31919D02*
X31843Y-32216D01*
X31756Y-32345D01*
X31751Y-32371D01*
X31725Y-32499D01*
X31725Y-32677D01*
X31725Y-39582D01*
X31500Y-39582D01*
X31288Y-39669D01*
X31254Y-39703D01*
X31079Y-39528D01*
X30839Y-39428D01*
X30579Y-39428D01*
X30338Y-39527D01*
X30216Y-39649D01*
X30095Y-39528D01*
X29855Y-39428D01*
X29594Y-39428D01*
X29354Y-39527D01*
X29170Y-39711D01*
X29070Y-39951D01*
X29069Y-40212D01*
X29169Y-40452D01*
X29353Y-40637D01*
X29593Y-40736D01*
X29853Y-40737D01*
X29914Y-40711D01*
X29914Y-40905D01*
X29768Y-41051D01*
X29681Y-41263D01*
X29680Y-41491D01*
X29768Y-41703D01*
X29929Y-41865D01*
X30141Y-41952D01*
X30369Y-41953D01*
X30581Y-41865D01*
X30594Y-41852D01*
X30594Y-42490D01*
X30497Y-42587D01*
X30409Y-42798D01*
X30409Y-43027D01*
X30496Y-43238D01*
X30499Y-43241D01*
X29535Y-43241D01*
X28970Y-42676D01*
X29026Y-42653D01*
X29187Y-42491D01*
X29275Y-42280D01*
X29275Y-42051D01*
X29188Y-41840D01*
X29061Y-41712D01*
X29061Y-38937D01*
X29061Y-38720D01*
X29030Y-38567D01*
X29030Y-38567D01*
X29002Y-38524D01*
X28944Y-38437D01*
X28944Y-38437D01*
X28471Y-37965D01*
X28672Y-37965D01*
X28913Y-37866D01*
X29097Y-37682D01*
X29132Y-37599D01*
X29135Y-37606D01*
X29219Y-37691D01*
X29329Y-37736D01*
X29449Y-37737D01*
X30118Y-37737D01*
X30216Y-37696D01*
X30314Y-37736D01*
X30433Y-37737D01*
X31102Y-37737D01*
X31213Y-37691D01*
X31297Y-37607D01*
X31343Y-37496D01*
X31343Y-37377D01*
X31343Y-36668D01*
X31312Y-36594D01*
X31362Y-36473D01*
X31363Y-36212D01*
X31263Y-35972D01*
X31079Y-35788D01*
X30839Y-35688D01*
X30579Y-35688D01*
X30338Y-35787D01*
X30216Y-35909D01*
X30095Y-35788D01*
X29855Y-35688D01*
X29594Y-35688D01*
X29354Y-35787D01*
X29197Y-35943D01*
X29197Y-35897D01*
X29152Y-35786D01*
X29067Y-35702D01*
X28957Y-35656D01*
X28838Y-35656D01*
X28129Y-35656D01*
X28019Y-35702D01*
X27934Y-35786D01*
X27889Y-35896D01*
X27888Y-36016D01*
X27888Y-36724D01*
X27934Y-36835D01*
X28014Y-36914D01*
X27988Y-36939D01*
X27916Y-37114D01*
X27388Y-36586D01*
X27258Y-36499D01*
X27233Y-36494D01*
X27105Y-36469D01*
X26647Y-36469D01*
X26817Y-36399D01*
X27012Y-36204D01*
X27118Y-35949D01*
X27118Y-35673D01*
X27013Y-35418D01*
X26818Y-35223D01*
X26563Y-35117D01*
X26287Y-35117D01*
X26032Y-35222D01*
X25925Y-35330D01*
X25818Y-35223D01*
X25563Y-35117D01*
X25287Y-35117D01*
X25032Y-35222D01*
X24925Y-35330D01*
X24818Y-35223D01*
X24563Y-35117D01*
X24287Y-35117D01*
X24032Y-35222D01*
X23925Y-35330D01*
X23818Y-35223D01*
X23563Y-35117D01*
X23287Y-35117D01*
X23032Y-35222D01*
X22925Y-35330D01*
X22818Y-35223D01*
X22563Y-35117D01*
X22287Y-35117D01*
X22032Y-35222D01*
X21925Y-35330D01*
X21818Y-35223D01*
X21563Y-35117D01*
X21287Y-35117D01*
X21032Y-35222D01*
X20925Y-35330D01*
X20818Y-35223D01*
X20563Y-35117D01*
X20287Y-35117D01*
X20032Y-35222D01*
X19837Y-35417D01*
X19731Y-35672D01*
X19731Y-35948D01*
X19836Y-36203D01*
X20031Y-36398D01*
X20109Y-36430D01*
X20027Y-36430D01*
X19455Y-35857D01*
X19455Y-34704D01*
X19424Y-34551D01*
X19424Y-34551D01*
X19395Y-34508D01*
X19337Y-34421D01*
X19337Y-34421D01*
X18864Y-33948D01*
X18864Y-33648D01*
X18912Y-33601D01*
X18999Y-33389D01*
X18999Y-33363D01*
X19078Y-33415D01*
X19121Y-33444D01*
X19121Y-33444D01*
X19275Y-33475D01*
X19589Y-33475D01*
X19589Y-33563D01*
X19589Y-34272D01*
X19635Y-34382D01*
X19719Y-34466D01*
X19829Y-34512D01*
X19949Y-34512D01*
X20657Y-34512D01*
X20768Y-34467D01*
X20852Y-34382D01*
X20898Y-34272D01*
X20898Y-34153D01*
X20898Y-33475D01*
X21209Y-33475D01*
X21575Y-33840D01*
X21574Y-33963D01*
X21662Y-34175D01*
X21823Y-34337D01*
X22035Y-34424D01*
X22263Y-34425D01*
X22475Y-34337D01*
X22637Y-34176D01*
X22724Y-33964D01*
X22725Y-33736D01*
X22637Y-33524D01*
X22476Y-33362D01*
X22264Y-33275D01*
X22140Y-33274D01*
X21895Y-33030D01*
X26790Y-33030D01*
X26790Y-33029D01*
X26917Y-33004D01*
X26943Y-32999D01*
X26943Y-32999D01*
X27072Y-32912D01*
X27085Y-32900D01*
X27236Y-32900D01*
X27212Y-32923D01*
X27125Y-33135D01*
X27124Y-33259D01*
X26926Y-33458D01*
X24769Y-33458D01*
X24615Y-33303D01*
X24374Y-33204D01*
X24114Y-33203D01*
X23873Y-33303D01*
X23689Y-33487D01*
X23589Y-33727D01*
X23589Y-33987D01*
X23689Y-34228D01*
X23872Y-34412D01*
X24113Y-34512D01*
X24373Y-34512D01*
X24614Y-34413D01*
X24769Y-34258D01*
X27091Y-34258D01*
X27091Y-34258D01*
X27219Y-34232D01*
X27244Y-34227D01*
X27244Y-34227D01*
X27374Y-34141D01*
X27690Y-33824D01*
X27813Y-33825D01*
X28025Y-33737D01*
X28187Y-33576D01*
X28274Y-33364D01*
X28275Y-33136D01*
X28187Y-32924D01*
X28163Y-32900D01*
X29101Y-32900D01*
X29089Y-32928D01*
X29089Y-33047D01*
X29089Y-33756D01*
X29135Y-33866D01*
X29219Y-33951D01*
X29329Y-33996D01*
X29449Y-33996D01*
X30118Y-33996D01*
X30216Y-33956D01*
X30314Y-33996D01*
X30433Y-33996D01*
X31102Y-33996D01*
X31213Y-33951D01*
X31297Y-33867D01*
X31343Y-33756D01*
X31343Y-33637D01*
X31343Y-32928D01*
X31297Y-32818D01*
X31264Y-32785D01*
X31354Y-32696D01*
X31454Y-32455D01*
X31454Y-32195D01*
X31355Y-31954D01*
X31171Y-31770D01*
X30930Y-31670D01*
X30670Y-31670D01*
X30429Y-31769D01*
X30350Y-31849D01*
X30350Y-31063D01*
X30462Y-30951D01*
X30549Y-30739D01*
X30550Y-30511D01*
X30462Y-30299D01*
X30301Y-30137D01*
X30089Y-30050D01*
X29861Y-30049D01*
X29649Y-30137D01*
X29487Y-30298D01*
X29400Y-30510D01*
X29399Y-30738D01*
X29487Y-30950D01*
X29550Y-31013D01*
X29550Y-31909D01*
X29474Y-31984D01*
X29475Y-31811D01*
X29387Y-31599D01*
X29300Y-31511D01*
X29300Y-30320D01*
X29299Y-30319D01*
X29269Y-30166D01*
X29269Y-30166D01*
X29240Y-30123D01*
X29187Y-30043D01*
X29386Y-30043D01*
X29496Y-29998D01*
X29580Y-29913D01*
X29626Y-29803D01*
X29626Y-29684D01*
X29626Y-29578D01*
X30241Y-28964D01*
X30145Y-29194D01*
X30145Y-29454D01*
X30244Y-29695D01*
X30428Y-29879D01*
X30669Y-29979D01*
X30929Y-29979D01*
X31170Y-29880D01*
X31260Y-29789D01*
X31280Y-29839D01*
X31360Y-29918D01*
X31335Y-29943D01*
X31235Y-30184D01*
X31235Y-30444D01*
X31334Y-30685D01*
X31464Y-30815D01*
X31335Y-30943D01*
X31235Y-31184D01*
X31235Y-31444D01*
X31334Y-31685D01*
X31518Y-31869D01*
X31759Y-31969D01*
X32019Y-31969D01*
X32139Y-31919D01*
X32139Y-31919D01*
G37*
G54D35*
X32139Y-31919D02*
X31843Y-32216D01*
X31756Y-32345D01*
X31751Y-32371D01*
X31725Y-32499D01*
X31725Y-32677D01*
X31725Y-39582D01*
X31500Y-39582D01*
X31288Y-39669D01*
X31254Y-39703D01*
X31079Y-39528D01*
X30839Y-39428D01*
X30579Y-39428D01*
X30338Y-39527D01*
X30216Y-39649D01*
X30095Y-39528D01*
X29855Y-39428D01*
X29594Y-39428D01*
X29354Y-39527D01*
X29170Y-39711D01*
X29070Y-39951D01*
X29069Y-40212D01*
X29169Y-40452D01*
X29353Y-40637D01*
X29593Y-40736D01*
X29853Y-40737D01*
X29914Y-40711D01*
X29914Y-40905D01*
X29768Y-41051D01*
X29681Y-41263D01*
X29680Y-41491D01*
X29768Y-41703D01*
X29929Y-41865D01*
X30141Y-41952D01*
X30369Y-41953D01*
X30581Y-41865D01*
X30594Y-41852D01*
X30594Y-42490D01*
X30497Y-42587D01*
X30409Y-42798D01*
X30409Y-43027D01*
X30496Y-43238D01*
X30499Y-43241D01*
X29535Y-43241D01*
X28970Y-42676D01*
X29026Y-42653D01*
X29187Y-42491D01*
X29275Y-42280D01*
X29275Y-42051D01*
X29188Y-41840D01*
X29061Y-41712D01*
X29061Y-38937D01*
X29061Y-38720D01*
X29030Y-38567D01*
X29030Y-38567D01*
X29002Y-38524D01*
X28944Y-38437D01*
X28944Y-38437D01*
X28471Y-37965D01*
X28672Y-37965D01*
X28913Y-37866D01*
X29097Y-37682D01*
X29132Y-37599D01*
X29135Y-37606D01*
X29219Y-37691D01*
X29329Y-37736D01*
X29449Y-37737D01*
X30118Y-37737D01*
X30216Y-37696D01*
X30314Y-37736D01*
X30433Y-37737D01*
X31102Y-37737D01*
X31213Y-37691D01*
X31297Y-37607D01*
X31343Y-37496D01*
X31343Y-37377D01*
X31343Y-36668D01*
X31312Y-36594D01*
X31362Y-36473D01*
X31363Y-36212D01*
X31263Y-35972D01*
X31079Y-35788D01*
X30839Y-35688D01*
X30579Y-35688D01*
X30338Y-35787D01*
X30216Y-35909D01*
X30095Y-35788D01*
X29855Y-35688D01*
X29594Y-35688D01*
X29354Y-35787D01*
X29197Y-35943D01*
X29197Y-35897D01*
X29152Y-35786D01*
X29067Y-35702D01*
X28957Y-35656D01*
X28838Y-35656D01*
X28129Y-35656D01*
X28019Y-35702D01*
X27934Y-35786D01*
X27889Y-35896D01*
X27888Y-36016D01*
X27888Y-36724D01*
X27934Y-36835D01*
X28014Y-36914D01*
X27988Y-36939D01*
X27916Y-37114D01*
X27388Y-36586D01*
X27258Y-36499D01*
X27233Y-36494D01*
X27105Y-36469D01*
X26647Y-36469D01*
X26817Y-36399D01*
X27012Y-36204D01*
X27118Y-35949D01*
X27118Y-35673D01*
X27013Y-35418D01*
X26818Y-35223D01*
X26563Y-35117D01*
X26287Y-35117D01*
X26032Y-35222D01*
X25925Y-35330D01*
X25818Y-35223D01*
X25563Y-35117D01*
X25287Y-35117D01*
X25032Y-35222D01*
X24925Y-35330D01*
X24818Y-35223D01*
X24563Y-35117D01*
X24287Y-35117D01*
X24032Y-35222D01*
X23925Y-35330D01*
X23818Y-35223D01*
X23563Y-35117D01*
X23287Y-35117D01*
X23032Y-35222D01*
X22925Y-35330D01*
X22818Y-35223D01*
X22563Y-35117D01*
X22287Y-35117D01*
X22032Y-35222D01*
X21925Y-35330D01*
X21818Y-35223D01*
X21563Y-35117D01*
X21287Y-35117D01*
X21032Y-35222D01*
X20925Y-35330D01*
X20818Y-35223D01*
X20563Y-35117D01*
X20287Y-35117D01*
X20032Y-35222D01*
X19837Y-35417D01*
X19731Y-35672D01*
X19731Y-35948D01*
X19836Y-36203D01*
X20031Y-36398D01*
X20109Y-36430D01*
X20027Y-36430D01*
X19455Y-35857D01*
X19455Y-34704D01*
X19424Y-34551D01*
X19424Y-34551D01*
X19395Y-34508D01*
X19337Y-34421D01*
X19337Y-34421D01*
X18864Y-33948D01*
X18864Y-33648D01*
X18912Y-33601D01*
X18999Y-33389D01*
X18999Y-33363D01*
X19078Y-33415D01*
X19121Y-33444D01*
X19121Y-33444D01*
X19275Y-33475D01*
X19589Y-33475D01*
X19589Y-33563D01*
X19589Y-34272D01*
X19635Y-34382D01*
X19719Y-34466D01*
X19829Y-34512D01*
X19949Y-34512D01*
X20657Y-34512D01*
X20768Y-34467D01*
X20852Y-34382D01*
X20898Y-34272D01*
X20898Y-34153D01*
X20898Y-33475D01*
X21209Y-33475D01*
X21575Y-33840D01*
X21574Y-33963D01*
X21662Y-34175D01*
X21823Y-34337D01*
X22035Y-34424D01*
X22263Y-34425D01*
X22475Y-34337D01*
X22637Y-34176D01*
X22724Y-33964D01*
X22725Y-33736D01*
X22637Y-33524D01*
X22476Y-33362D01*
X22264Y-33275D01*
X22140Y-33274D01*
X21895Y-33030D01*
X26790Y-33030D01*
X26790Y-33029D01*
X26917Y-33004D01*
X26943Y-32999D01*
X26943Y-32999D01*
X27072Y-32912D01*
X27085Y-32900D01*
X27236Y-32900D01*
X27212Y-32923D01*
X27125Y-33135D01*
X27124Y-33259D01*
X26926Y-33458D01*
X24769Y-33458D01*
X24615Y-33303D01*
X24374Y-33204D01*
X24114Y-33203D01*
X23873Y-33303D01*
X23689Y-33487D01*
X23589Y-33727D01*
X23589Y-33987D01*
X23689Y-34228D01*
X23872Y-34412D01*
X24113Y-34512D01*
X24373Y-34512D01*
X24614Y-34413D01*
X24769Y-34258D01*
X27091Y-34258D01*
X27091Y-34258D01*
X27219Y-34232D01*
X27244Y-34227D01*
X27244Y-34227D01*
X27374Y-34141D01*
X27690Y-33824D01*
X27813Y-33825D01*
X28025Y-33737D01*
X28187Y-33576D01*
X28274Y-33364D01*
X28275Y-33136D01*
X28187Y-32924D01*
X28163Y-32900D01*
X29101Y-32900D01*
X29089Y-32928D01*
X29089Y-33047D01*
X29089Y-33756D01*
X29135Y-33866D01*
X29219Y-33951D01*
X29329Y-33996D01*
X29449Y-33996D01*
X30118Y-33996D01*
X30216Y-33956D01*
X30314Y-33996D01*
X30433Y-33996D01*
X31102Y-33996D01*
X31213Y-33951D01*
X31297Y-33867D01*
X31343Y-33756D01*
X31343Y-33637D01*
X31343Y-32928D01*
X31297Y-32818D01*
X31264Y-32785D01*
X31354Y-32696D01*
X31454Y-32455D01*
X31454Y-32195D01*
X31355Y-31954D01*
X31171Y-31770D01*
X30930Y-31670D01*
X30670Y-31670D01*
X30429Y-31769D01*
X30350Y-31849D01*
X30350Y-31063D01*
X30462Y-30951D01*
X30549Y-30739D01*
X30550Y-30511D01*
X30462Y-30299D01*
X30301Y-30137D01*
X30089Y-30050D01*
X29861Y-30049D01*
X29649Y-30137D01*
X29487Y-30298D01*
X29400Y-30510D01*
X29399Y-30738D01*
X29487Y-30950D01*
X29550Y-31013D01*
X29550Y-31909D01*
X29474Y-31984D01*
X29475Y-31811D01*
X29387Y-31599D01*
X29300Y-31511D01*
X29300Y-30320D01*
X29299Y-30319D01*
X29269Y-30166D01*
X29269Y-30166D01*
X29240Y-30123D01*
X29187Y-30043D01*
X29386Y-30043D01*
X29496Y-29998D01*
X29580Y-29913D01*
X29626Y-29803D01*
X29626Y-29684D01*
X29626Y-29578D01*
X30241Y-28964D01*
X30145Y-29194D01*
X30145Y-29454D01*
X30244Y-29695D01*
X30428Y-29879D01*
X30669Y-29979D01*
X30929Y-29979D01*
X31170Y-29880D01*
X31260Y-29789D01*
X31280Y-29839D01*
X31360Y-29918D01*
X31335Y-29943D01*
X31235Y-30184D01*
X31235Y-30444D01*
X31334Y-30685D01*
X31464Y-30815D01*
X31335Y-30943D01*
X31235Y-31184D01*
X31235Y-31444D01*
X31334Y-31685D01*
X31518Y-31869D01*
X31759Y-31969D01*
X32019Y-31969D01*
X32139Y-31919D01*
G54D10*
G36*
X32309Y-23010D02*
X32140Y-23080D01*
X32140Y-22762D01*
X32194Y-22895D01*
X32309Y-23010D01*
X32309Y-23010D01*
G37*
G54D35*
X32309Y-23010D02*
X32140Y-23080D01*
X32140Y-22762D01*
X32194Y-22895D01*
X32309Y-23010D01*
G54D10*
G36*
X32543Y-40471D02*
X32525Y-40471D01*
X32525Y-40453D01*
X32543Y-40471D01*
X32543Y-40471D01*
G37*
G54D35*
X32543Y-40471D02*
X32525Y-40471D01*
X32525Y-40453D01*
X32543Y-40471D01*
G54D10*
G36*
X33202Y-42978D02*
X33110Y-42755D01*
X32926Y-42571D01*
X32685Y-42471D01*
X32425Y-42471D01*
X32184Y-42570D01*
X32053Y-42702D01*
X32053Y-41549D01*
X32183Y-41680D01*
X32424Y-41780D01*
X32684Y-41780D01*
X32925Y-41681D01*
X33109Y-41497D01*
X33202Y-41273D01*
X33202Y-42978D01*
X33202Y-42978D01*
G37*
G54D35*
X33202Y-42978D02*
X33110Y-42755D01*
X32926Y-42571D01*
X32685Y-42471D01*
X32425Y-42471D01*
X32184Y-42570D01*
X32053Y-42702D01*
X32053Y-41549D01*
X32183Y-41680D01*
X32424Y-41780D01*
X32684Y-41780D01*
X32925Y-41681D01*
X33109Y-41497D01*
X33202Y-41273D01*
X33202Y-42978D01*
G54D10*
G36*
X33342Y-45563D02*
X33267Y-45637D01*
X33242Y-45612D01*
X33317Y-45537D01*
X33342Y-45563D01*
X33342Y-45563D01*
G37*
G54D35*
X33342Y-45563D02*
X33267Y-45637D01*
X33242Y-45612D01*
X33317Y-45537D01*
X33342Y-45563D01*
G54D10*
G36*
X33342Y-46563D02*
X33267Y-46637D01*
X33193Y-46562D01*
X33267Y-46488D01*
X33342Y-46563D01*
X33342Y-46563D01*
G37*
G54D35*
X33342Y-46563D02*
X33267Y-46637D01*
X33193Y-46562D01*
X33267Y-46488D01*
X33342Y-46563D01*
G54D10*
G36*
X33388Y-44516D02*
X33317Y-44588D01*
X33237Y-44508D01*
X33127Y-44463D01*
X33008Y-44462D01*
X32618Y-44462D01*
X32862Y-44218D01*
X33149Y-44218D01*
X33208Y-44218D01*
X33291Y-44419D01*
X33388Y-44516D01*
X33388Y-44516D01*
G37*
G54D35*
X33388Y-44516D02*
X33317Y-44588D01*
X33237Y-44508D01*
X33127Y-44463D01*
X33008Y-44462D01*
X32618Y-44462D01*
X32862Y-44218D01*
X33149Y-44218D01*
X33208Y-44218D01*
X33291Y-44419D01*
X33388Y-44516D01*
G54D10*
G36*
X33620Y-23179D02*
X33470Y-23328D01*
X33370Y-23569D01*
X33370Y-23829D01*
X33469Y-24070D01*
X33524Y-24125D01*
X32925Y-24125D01*
X33029Y-24021D01*
X33129Y-23780D01*
X33129Y-23520D01*
X33030Y-23279D01*
X32915Y-23164D01*
X33120Y-23080D01*
X33250Y-22950D01*
X33378Y-23079D01*
X33619Y-23179D01*
X33620Y-23179D01*
X33620Y-23179D01*
G37*
G54D35*
X33620Y-23179D02*
X33470Y-23328D01*
X33370Y-23569D01*
X33370Y-23829D01*
X33469Y-24070D01*
X33524Y-24125D01*
X32925Y-24125D01*
X33029Y-24021D01*
X33129Y-23780D01*
X33129Y-23520D01*
X33030Y-23279D01*
X32915Y-23164D01*
X33120Y-23080D01*
X33250Y-22950D01*
X33378Y-23079D01*
X33619Y-23179D01*
X33620Y-23179D01*
G54D10*
G36*
X33695Y-31489D02*
X33543Y-31489D01*
X33531Y-31492D01*
X33596Y-31427D01*
X33674Y-31427D01*
X33674Y-31438D01*
X33695Y-31489D01*
X33695Y-31489D01*
G37*
G54D35*
X33695Y-31489D02*
X33543Y-31489D01*
X33531Y-31492D01*
X33596Y-31427D01*
X33674Y-31427D01*
X33674Y-31438D01*
X33695Y-31489D01*
G54D10*
G36*
X33712Y-24925D02*
X33694Y-24932D01*
X33532Y-25093D01*
X33445Y-25305D01*
X33444Y-25429D01*
X32798Y-26075D01*
X32605Y-25995D01*
X32345Y-25995D01*
X32104Y-26094D01*
X31920Y-26278D01*
X31820Y-26519D01*
X31820Y-26779D01*
X31919Y-27020D01*
X31996Y-27097D01*
X31899Y-27137D01*
X31737Y-27298D01*
X31650Y-27510D01*
X31649Y-27634D01*
X31554Y-27730D01*
X29934Y-27730D01*
X29952Y-27702D01*
X29981Y-27559D01*
X29981Y-25628D01*
X29997Y-25644D01*
X30328Y-25781D01*
X30686Y-25782D01*
X31017Y-25645D01*
X31270Y-25392D01*
X31407Y-25061D01*
X31408Y-24703D01*
X31271Y-24372D01*
X31018Y-24119D01*
X30687Y-23982D01*
X30329Y-23981D01*
X29998Y-24118D01*
X29981Y-24136D01*
X29981Y-22204D01*
X29952Y-22061D01*
X29928Y-22025D01*
X31259Y-22025D01*
X31340Y-22105D01*
X31340Y-24060D01*
X31365Y-24187D01*
X31370Y-24213D01*
X31457Y-24342D01*
X31922Y-24807D01*
X31922Y-24807D01*
X32008Y-24865D01*
X32051Y-24894D01*
X32051Y-24894D01*
X32205Y-24925D01*
X33712Y-24925D01*
X33712Y-24925D01*
G37*
G54D35*
X33712Y-24925D02*
X33694Y-24932D01*
X33532Y-25093D01*
X33445Y-25305D01*
X33444Y-25429D01*
X32798Y-26075D01*
X32605Y-25995D01*
X32345Y-25995D01*
X32104Y-26094D01*
X31920Y-26278D01*
X31820Y-26519D01*
X31820Y-26779D01*
X31919Y-27020D01*
X31996Y-27097D01*
X31899Y-27137D01*
X31737Y-27298D01*
X31650Y-27510D01*
X31649Y-27634D01*
X31554Y-27730D01*
X29934Y-27730D01*
X29952Y-27702D01*
X29981Y-27559D01*
X29981Y-25628D01*
X29997Y-25644D01*
X30328Y-25781D01*
X30686Y-25782D01*
X31017Y-25645D01*
X31270Y-25392D01*
X31407Y-25061D01*
X31408Y-24703D01*
X31271Y-24372D01*
X31018Y-24119D01*
X30687Y-23982D01*
X30329Y-23981D01*
X29998Y-24118D01*
X29981Y-24136D01*
X29981Y-22204D01*
X29952Y-22061D01*
X29928Y-22025D01*
X31259Y-22025D01*
X31340Y-22105D01*
X31340Y-24060D01*
X31365Y-24187D01*
X31370Y-24213D01*
X31457Y-24342D01*
X31922Y-24807D01*
X31922Y-24807D01*
X32008Y-24865D01*
X32051Y-24894D01*
X32051Y-24894D01*
X32205Y-24925D01*
X33712Y-24925D01*
G54D10*
G36*
X33764Y-47717D02*
X32879Y-48601D01*
X32806Y-48528D01*
X32595Y-48440D01*
X32548Y-48440D01*
X32622Y-48264D01*
X32622Y-48035D01*
X32534Y-47824D01*
X32373Y-47662D01*
X32162Y-47574D01*
X31933Y-47574D01*
X31721Y-47661D01*
X31693Y-47689D01*
X31669Y-47568D01*
X31537Y-47370D01*
X31339Y-47238D01*
X31106Y-47191D01*
X30872Y-47238D01*
X30674Y-47370D01*
X30606Y-47473D01*
X30537Y-47370D01*
X30339Y-47238D01*
X30106Y-47191D01*
X29872Y-47238D01*
X29674Y-47370D01*
X29606Y-47473D01*
X29537Y-47370D01*
X29339Y-47238D01*
X29106Y-47191D01*
X28872Y-47238D01*
X28674Y-47370D01*
X28606Y-47473D01*
X28537Y-47370D01*
X28339Y-47238D01*
X28106Y-47191D01*
X27872Y-47238D01*
X27674Y-47370D01*
X27606Y-47473D01*
X27537Y-47370D01*
X27339Y-47238D01*
X27106Y-47191D01*
X26872Y-47238D01*
X26674Y-47370D01*
X26606Y-47473D01*
X26537Y-47370D01*
X26339Y-47238D01*
X26106Y-47191D01*
X25872Y-47238D01*
X25674Y-47370D01*
X25606Y-47473D01*
X25537Y-47370D01*
X25339Y-47238D01*
X25106Y-47191D01*
X24872Y-47238D01*
X24674Y-47370D01*
X24606Y-47473D01*
X24537Y-47370D01*
X24339Y-47238D01*
X24106Y-47191D01*
X23872Y-47238D01*
X23674Y-47370D01*
X23606Y-47473D01*
X23537Y-47370D01*
X23339Y-47238D01*
X23106Y-47191D01*
X22872Y-47238D01*
X22674Y-47370D01*
X22606Y-47473D01*
X22537Y-47370D01*
X22339Y-47238D01*
X22106Y-47191D01*
X21872Y-47238D01*
X21674Y-47370D01*
X21606Y-47473D01*
X21537Y-47370D01*
X21339Y-47238D01*
X21106Y-47191D01*
X20872Y-47238D01*
X20674Y-47370D01*
X20606Y-47473D01*
X20537Y-47370D01*
X20339Y-47238D01*
X20106Y-47191D01*
X19872Y-47238D01*
X19674Y-47370D01*
X19606Y-47473D01*
X19537Y-47370D01*
X19339Y-47238D01*
X19106Y-47191D01*
X18872Y-47238D01*
X18682Y-47365D01*
X18670Y-47336D01*
X18586Y-47252D01*
X18476Y-47206D01*
X18356Y-47206D01*
X17736Y-47206D01*
X17626Y-47252D01*
X17542Y-47336D01*
X17496Y-47446D01*
X17496Y-47566D01*
X17496Y-48466D01*
X17541Y-48576D01*
X17561Y-48596D01*
X17331Y-48596D01*
X17171Y-48436D01*
X17171Y-47193D01*
X17823Y-46541D01*
X23464Y-46541D01*
X23966Y-46541D01*
X26775Y-46541D01*
X27992Y-46541D01*
X28099Y-46648D01*
X28310Y-46736D01*
X28539Y-46736D01*
X28750Y-46649D01*
X28912Y-46487D01*
X29000Y-46276D01*
X29000Y-46047D01*
X28912Y-45836D01*
X28751Y-45674D01*
X28540Y-45586D01*
X28472Y-45586D01*
X28537Y-45542D01*
X28606Y-45439D01*
X28674Y-45542D01*
X28872Y-45674D01*
X29106Y-45721D01*
X29339Y-45674D01*
X29537Y-45542D01*
X29606Y-45439D01*
X29674Y-45542D01*
X29872Y-45674D01*
X30050Y-45710D01*
X30049Y-45913D01*
X30137Y-46125D01*
X30298Y-46287D01*
X30510Y-46374D01*
X30738Y-46375D01*
X30950Y-46287D01*
X31038Y-46200D01*
X31400Y-46200D01*
X31400Y-46199D01*
X31527Y-46174D01*
X31553Y-46169D01*
X31553Y-46169D01*
X31682Y-46082D01*
X32211Y-45553D01*
X32211Y-45553D01*
X32220Y-45540D01*
X32292Y-45612D01*
X32213Y-45691D01*
X32113Y-45932D01*
X32113Y-46192D01*
X32212Y-46433D01*
X32342Y-46563D01*
X32213Y-46691D01*
X32113Y-46932D01*
X32113Y-47192D01*
X32212Y-47433D01*
X32396Y-47617D01*
X32636Y-47717D01*
X32897Y-47717D01*
X33137Y-47618D01*
X33267Y-47488D01*
X33396Y-47617D01*
X33636Y-47717D01*
X33764Y-47717D01*
X33764Y-47717D01*
G37*
G54D35*
X33764Y-47717D02*
X32879Y-48601D01*
X32806Y-48528D01*
X32595Y-48440D01*
X32548Y-48440D01*
X32622Y-48264D01*
X32622Y-48035D01*
X32534Y-47824D01*
X32373Y-47662D01*
X32162Y-47574D01*
X31933Y-47574D01*
X31721Y-47661D01*
X31693Y-47689D01*
X31669Y-47568D01*
X31537Y-47370D01*
X31339Y-47238D01*
X31106Y-47191D01*
X30872Y-47238D01*
X30674Y-47370D01*
X30606Y-47473D01*
X30537Y-47370D01*
X30339Y-47238D01*
X30106Y-47191D01*
X29872Y-47238D01*
X29674Y-47370D01*
X29606Y-47473D01*
X29537Y-47370D01*
X29339Y-47238D01*
X29106Y-47191D01*
X28872Y-47238D01*
X28674Y-47370D01*
X28606Y-47473D01*
X28537Y-47370D01*
X28339Y-47238D01*
X28106Y-47191D01*
X27872Y-47238D01*
X27674Y-47370D01*
X27606Y-47473D01*
X27537Y-47370D01*
X27339Y-47238D01*
X27106Y-47191D01*
X26872Y-47238D01*
X26674Y-47370D01*
X26606Y-47473D01*
X26537Y-47370D01*
X26339Y-47238D01*
X26106Y-47191D01*
X25872Y-47238D01*
X25674Y-47370D01*
X25606Y-47473D01*
X25537Y-47370D01*
X25339Y-47238D01*
X25106Y-47191D01*
X24872Y-47238D01*
X24674Y-47370D01*
X24606Y-47473D01*
X24537Y-47370D01*
X24339Y-47238D01*
X24106Y-47191D01*
X23872Y-47238D01*
X23674Y-47370D01*
X23606Y-47473D01*
X23537Y-47370D01*
X23339Y-47238D01*
X23106Y-47191D01*
X22872Y-47238D01*
X22674Y-47370D01*
X22606Y-47473D01*
X22537Y-47370D01*
X22339Y-47238D01*
X22106Y-47191D01*
X21872Y-47238D01*
X21674Y-47370D01*
X21606Y-47473D01*
X21537Y-47370D01*
X21339Y-47238D01*
X21106Y-47191D01*
X20872Y-47238D01*
X20674Y-47370D01*
X20606Y-47473D01*
X20537Y-47370D01*
X20339Y-47238D01*
X20106Y-47191D01*
X19872Y-47238D01*
X19674Y-47370D01*
X19606Y-47473D01*
X19537Y-47370D01*
X19339Y-47238D01*
X19106Y-47191D01*
X18872Y-47238D01*
X18682Y-47365D01*
X18670Y-47336D01*
X18586Y-47252D01*
X18476Y-47206D01*
X18356Y-47206D01*
X17736Y-47206D01*
X17626Y-47252D01*
X17542Y-47336D01*
X17496Y-47446D01*
X17496Y-47566D01*
X17496Y-48466D01*
X17541Y-48576D01*
X17561Y-48596D01*
X17331Y-48596D01*
X17171Y-48436D01*
X17171Y-47193D01*
X17823Y-46541D01*
X23464Y-46541D01*
X23966Y-46541D01*
X26775Y-46541D01*
X27992Y-46541D01*
X28099Y-46648D01*
X28310Y-46736D01*
X28539Y-46736D01*
X28750Y-46649D01*
X28912Y-46487D01*
X29000Y-46276D01*
X29000Y-46047D01*
X28912Y-45836D01*
X28751Y-45674D01*
X28540Y-45586D01*
X28472Y-45586D01*
X28537Y-45542D01*
X28606Y-45439D01*
X28674Y-45542D01*
X28872Y-45674D01*
X29106Y-45721D01*
X29339Y-45674D01*
X29537Y-45542D01*
X29606Y-45439D01*
X29674Y-45542D01*
X29872Y-45674D01*
X30050Y-45710D01*
X30049Y-45913D01*
X30137Y-46125D01*
X30298Y-46287D01*
X30510Y-46374D01*
X30738Y-46375D01*
X30950Y-46287D01*
X31038Y-46200D01*
X31400Y-46200D01*
X31400Y-46199D01*
X31527Y-46174D01*
X31553Y-46169D01*
X31553Y-46169D01*
X31682Y-46082D01*
X32211Y-45553D01*
X32211Y-45553D01*
X32220Y-45540D01*
X32292Y-45612D01*
X32213Y-45691D01*
X32113Y-45932D01*
X32113Y-46192D01*
X32212Y-46433D01*
X32342Y-46563D01*
X32213Y-46691D01*
X32113Y-46932D01*
X32113Y-47192D01*
X32212Y-47433D01*
X32396Y-47617D01*
X32636Y-47717D01*
X32897Y-47717D01*
X33137Y-47618D01*
X33267Y-47488D01*
X33396Y-47617D01*
X33636Y-47717D01*
X33764Y-47717D01*
G54D10*
G36*
X34009Y-43567D02*
X33913Y-43527D01*
X33971Y-43440D01*
X33971Y-43440D01*
X33971Y-43440D01*
X34002Y-43287D01*
X34002Y-43287D01*
X34002Y-40964D01*
X34002Y-40964D01*
X33986Y-40886D01*
X34009Y-40895D01*
X34009Y-43567D01*
X34009Y-43567D01*
G37*
G54D35*
X34009Y-43567D02*
X33913Y-43527D01*
X33971Y-43440D01*
X33971Y-43440D01*
X33971Y-43440D01*
X34002Y-43287D01*
X34002Y-43287D01*
X34002Y-40964D01*
X34002Y-40964D01*
X33986Y-40886D01*
X34009Y-40895D01*
X34009Y-43567D01*
G54D10*
G36*
X34275Y-26095D02*
X34155Y-26045D01*
X33960Y-26045D01*
X34010Y-25994D01*
X34133Y-25995D01*
X34275Y-25936D01*
X34275Y-26095D01*
X34275Y-26095D01*
G37*
G54D35*
X34275Y-26095D02*
X34155Y-26045D01*
X33960Y-26045D01*
X34010Y-25994D01*
X34133Y-25995D01*
X34275Y-25936D01*
X34275Y-26095D01*
G54D10*
G36*
X34285Y-30750D02*
X34240Y-30749D01*
X34235Y-30744D01*
X34105Y-30658D01*
X34080Y-30652D01*
X33952Y-30627D01*
X33596Y-30627D01*
X33441Y-30473D01*
X33201Y-30373D01*
X32941Y-30373D01*
X32700Y-30472D01*
X32516Y-30656D01*
X32416Y-30896D01*
X32416Y-30916D01*
X32315Y-30814D01*
X32444Y-30686D01*
X32543Y-30445D01*
X32544Y-30185D01*
X32444Y-29944D01*
X32418Y-29918D01*
X32498Y-29839D01*
X32544Y-29729D01*
X32544Y-29609D01*
X32544Y-28950D01*
X32548Y-28950D01*
X32548Y-28949D01*
X32676Y-28924D01*
X32701Y-28919D01*
X32701Y-28919D01*
X32831Y-28832D01*
X32982Y-28681D01*
X33200Y-28682D01*
X33441Y-28582D01*
X33625Y-28398D01*
X33725Y-28158D01*
X33725Y-27897D01*
X33625Y-27657D01*
X33441Y-27473D01*
X33201Y-27373D01*
X32941Y-27373D01*
X32771Y-27443D01*
X32712Y-27299D01*
X32684Y-27271D01*
X32845Y-27205D01*
X33029Y-27021D01*
X33063Y-26939D01*
X33063Y-26939D01*
X33072Y-26932D01*
X33370Y-26634D01*
X33370Y-26829D01*
X33469Y-27070D01*
X33653Y-27254D01*
X33894Y-27354D01*
X34154Y-27354D01*
X34275Y-27304D01*
X34275Y-27786D01*
X34187Y-27873D01*
X34100Y-28085D01*
X34099Y-28313D01*
X34187Y-28525D01*
X34285Y-28623D01*
X34285Y-28720D01*
X34285Y-28925D01*
X34285Y-30750D01*
X34285Y-30750D01*
G37*
G54D35*
X34285Y-30750D02*
X34240Y-30749D01*
X34235Y-30744D01*
X34105Y-30658D01*
X34080Y-30652D01*
X33952Y-30627D01*
X33596Y-30627D01*
X33441Y-30473D01*
X33201Y-30373D01*
X32941Y-30373D01*
X32700Y-30472D01*
X32516Y-30656D01*
X32416Y-30896D01*
X32416Y-30916D01*
X32315Y-30814D01*
X32444Y-30686D01*
X32543Y-30445D01*
X32544Y-30185D01*
X32444Y-29944D01*
X32418Y-29918D01*
X32498Y-29839D01*
X32544Y-29729D01*
X32544Y-29609D01*
X32544Y-28950D01*
X32548Y-28950D01*
X32548Y-28949D01*
X32676Y-28924D01*
X32701Y-28919D01*
X32701Y-28919D01*
X32831Y-28832D01*
X32982Y-28681D01*
X33200Y-28682D01*
X33441Y-28582D01*
X33625Y-28398D01*
X33725Y-28158D01*
X33725Y-27897D01*
X33625Y-27657D01*
X33441Y-27473D01*
X33201Y-27373D01*
X32941Y-27373D01*
X32771Y-27443D01*
X32712Y-27299D01*
X32684Y-27271D01*
X32845Y-27205D01*
X33029Y-27021D01*
X33063Y-26939D01*
X33063Y-26939D01*
X33072Y-26932D01*
X33370Y-26634D01*
X33370Y-26829D01*
X33469Y-27070D01*
X33653Y-27254D01*
X33894Y-27354D01*
X34154Y-27354D01*
X34275Y-27304D01*
X34275Y-27786D01*
X34187Y-27873D01*
X34100Y-28085D01*
X34099Y-28313D01*
X34187Y-28525D01*
X34285Y-28623D01*
X34285Y-28720D01*
X34285Y-28925D01*
X34285Y-30750D01*
G54D10*
G36*
X34574Y-23323D02*
X34429Y-23179D01*
X34455Y-23179D01*
X34574Y-23179D01*
X34574Y-23323D01*
X34574Y-23323D01*
G37*
G54D35*
X34574Y-23323D02*
X34429Y-23179D01*
X34455Y-23179D01*
X34574Y-23179D01*
X34574Y-23323D01*
G54D10*
G36*
X34574Y-24236D02*
X34478Y-24172D01*
X34574Y-24076D01*
X34574Y-24236D01*
X34574Y-24236D01*
G37*
G54D35*
X34574Y-24236D02*
X34478Y-24172D01*
X34574Y-24076D01*
X34574Y-24236D01*
G54D10*
G36*
X35052Y-51645D02*
X35011Y-51686D01*
X34921Y-51686D01*
X33000Y-51686D01*
X33000Y-50170D01*
X32638Y-50170D01*
X32638Y-49909D01*
X32539Y-49669D01*
X32460Y-49590D01*
X32594Y-49590D01*
X32805Y-49503D01*
X32893Y-49415D01*
X33031Y-49415D01*
X33031Y-49415D01*
X33159Y-49390D01*
X33184Y-49385D01*
X33184Y-49385D01*
X33314Y-49298D01*
X33676Y-48936D01*
X33676Y-49255D01*
X33811Y-49582D01*
X33978Y-49749D01*
X33930Y-49749D01*
X33819Y-49794D01*
X33735Y-49879D01*
X33689Y-49989D01*
X33689Y-50108D01*
X33689Y-51289D01*
X33734Y-51400D01*
X33819Y-51484D01*
X33929Y-51530D01*
X34048Y-51530D01*
X35052Y-51530D01*
X35052Y-51645D01*
X35052Y-51645D01*
G37*
G54D35*
X35052Y-51645D02*
X35011Y-51686D01*
X34921Y-51686D01*
X33000Y-51686D01*
X33000Y-50170D01*
X32638Y-50170D01*
X32638Y-49909D01*
X32539Y-49669D01*
X32460Y-49590D01*
X32594Y-49590D01*
X32805Y-49503D01*
X32893Y-49415D01*
X33031Y-49415D01*
X33031Y-49415D01*
X33159Y-49390D01*
X33184Y-49385D01*
X33184Y-49385D01*
X33314Y-49298D01*
X33676Y-48936D01*
X33676Y-49255D01*
X33811Y-49582D01*
X33978Y-49749D01*
X33930Y-49749D01*
X33819Y-49794D01*
X33735Y-49879D01*
X33689Y-49989D01*
X33689Y-50108D01*
X33689Y-51289D01*
X33734Y-51400D01*
X33819Y-51484D01*
X33929Y-51530D01*
X34048Y-51530D01*
X35052Y-51530D01*
X35052Y-51645D01*
G54D10*
G36*
X35387Y-44692D02*
X35286Y-44591D01*
X35075Y-44503D01*
X34846Y-44503D01*
X34809Y-44519D01*
X34809Y-44056D01*
X34854Y-44101D01*
X34854Y-44101D01*
X34941Y-44159D01*
X34984Y-44188D01*
X34984Y-44188D01*
X35137Y-44218D01*
X35137Y-44218D01*
X35326Y-44218D01*
X35387Y-44279D01*
X35387Y-44370D01*
X35387Y-44692D01*
X35387Y-44692D01*
G37*
G54D35*
X35387Y-44692D02*
X35286Y-44591D01*
X35075Y-44503D01*
X34846Y-44503D01*
X34809Y-44519D01*
X34809Y-44056D01*
X34854Y-44101D01*
X34854Y-44101D01*
X34941Y-44159D01*
X34984Y-44188D01*
X34984Y-44188D01*
X35137Y-44218D01*
X35137Y-44218D01*
X35326Y-44218D01*
X35387Y-44279D01*
X35387Y-44370D01*
X35387Y-44692D01*
G54D10*
G36*
X35387Y-46724D02*
X35324Y-46787D01*
X35201Y-46787D01*
X35129Y-46816D01*
X35129Y-45631D01*
X35285Y-45566D01*
X35387Y-45465D01*
X35387Y-46724D01*
X35387Y-46724D01*
G37*
G54D35*
X35387Y-46724D02*
X35324Y-46787D01*
X35201Y-46787D01*
X35129Y-46816D01*
X35129Y-45631D01*
X35285Y-45566D01*
X35387Y-45465D01*
X35387Y-46724D01*
G54D10*
G36*
X35466Y-33205D02*
X35393Y-33132D01*
X35138Y-33026D01*
X34862Y-33026D01*
X34670Y-33106D01*
X34709Y-33012D01*
X34709Y-32736D01*
X34604Y-32481D01*
X34412Y-32289D01*
X34781Y-32289D01*
X34837Y-32425D01*
X34998Y-32587D01*
X35210Y-32674D01*
X35438Y-32675D01*
X35466Y-32663D01*
X35466Y-33205D01*
X35466Y-33205D01*
G37*
G54D35*
X35466Y-33205D02*
X35393Y-33132D01*
X35138Y-33026D01*
X34862Y-33026D01*
X34670Y-33106D01*
X34709Y-33012D01*
X34709Y-32736D01*
X34604Y-32481D01*
X34412Y-32289D01*
X34781Y-32289D01*
X34837Y-32425D01*
X34998Y-32587D01*
X35210Y-32674D01*
X35438Y-32675D01*
X35466Y-32663D01*
X35466Y-33205D01*
G54D10*
G36*
X35466Y-39676D02*
X35444Y-39698D01*
X35236Y-39698D01*
X35150Y-39715D01*
X35150Y-39091D01*
X35150Y-37910D01*
X35105Y-37799D01*
X35020Y-37715D01*
X34910Y-37669D01*
X34834Y-37669D01*
X35006Y-37497D01*
X35142Y-37170D01*
X35142Y-36815D01*
X35007Y-36488D01*
X34757Y-36237D01*
X34429Y-36101D01*
X34075Y-36101D01*
X33748Y-36236D01*
X33497Y-36487D01*
X33361Y-36814D01*
X33361Y-37168D01*
X33496Y-37495D01*
X33669Y-37669D01*
X33610Y-37669D01*
X33499Y-37714D01*
X33415Y-37799D01*
X33369Y-37909D01*
X33369Y-38028D01*
X33369Y-39209D01*
X33414Y-39320D01*
X33499Y-39404D01*
X33609Y-39450D01*
X33728Y-39450D01*
X34909Y-39450D01*
X35020Y-39405D01*
X35104Y-39320D01*
X35150Y-39210D01*
X35150Y-39091D01*
X35150Y-39715D01*
X35108Y-39723D01*
X35083Y-39728D01*
X34953Y-39815D01*
X34729Y-40038D01*
X34578Y-39886D01*
X34366Y-39799D01*
X34138Y-39798D01*
X33926Y-39886D01*
X33764Y-40047D01*
X33677Y-40259D01*
X33676Y-40473D01*
X32959Y-39755D01*
X32959Y-33039D01*
X33363Y-32634D01*
X33322Y-32735D01*
X33321Y-33011D01*
X33427Y-33266D01*
X33622Y-33461D01*
X33877Y-33567D01*
X34153Y-33567D01*
X34345Y-33488D01*
X34306Y-33581D01*
X34306Y-33857D01*
X34307Y-33860D01*
X33100Y-33860D01*
X33100Y-35820D01*
X35466Y-35820D01*
X35466Y-39676D01*
X35466Y-39676D01*
G37*
G54D35*
X35466Y-39676D02*
X35444Y-39698D01*
X35236Y-39698D01*
X35150Y-39715D01*
X35150Y-39091D01*
X35150Y-37910D01*
X35105Y-37799D01*
X35020Y-37715D01*
X34910Y-37669D01*
X34834Y-37669D01*
X35006Y-37497D01*
X35142Y-37170D01*
X35142Y-36815D01*
X35007Y-36488D01*
X34757Y-36237D01*
X34429Y-36101D01*
X34075Y-36101D01*
X33748Y-36236D01*
X33497Y-36487D01*
X33361Y-36814D01*
X33361Y-37168D01*
X33496Y-37495D01*
X33669Y-37669D01*
X33610Y-37669D01*
X33499Y-37714D01*
X33415Y-37799D01*
X33369Y-37909D01*
X33369Y-38028D01*
X33369Y-39209D01*
X33414Y-39320D01*
X33499Y-39404D01*
X33609Y-39450D01*
X33728Y-39450D01*
X34909Y-39450D01*
X35020Y-39405D01*
X35104Y-39320D01*
X35150Y-39210D01*
X35150Y-39091D01*
X35150Y-39715D01*
X35108Y-39723D01*
X35083Y-39728D01*
X34953Y-39815D01*
X34729Y-40038D01*
X34578Y-39886D01*
X34366Y-39799D01*
X34138Y-39798D01*
X33926Y-39886D01*
X33764Y-40047D01*
X33677Y-40259D01*
X33676Y-40473D01*
X32959Y-39755D01*
X32959Y-33039D01*
X33363Y-32634D01*
X33322Y-32735D01*
X33321Y-33011D01*
X33427Y-33266D01*
X33622Y-33461D01*
X33877Y-33567D01*
X34153Y-33567D01*
X34345Y-33488D01*
X34306Y-33581D01*
X34306Y-33857D01*
X34307Y-33860D01*
X33100Y-33860D01*
X33100Y-35820D01*
X35466Y-35820D01*
X35466Y-39676D01*
G54D10*
G36*
X35845Y-22488D02*
X35404Y-22488D01*
X35404Y-22111D01*
X35358Y-22000D01*
X35274Y-21916D01*
X35164Y-21870D01*
X35044Y-21870D01*
X34336Y-21870D01*
X34225Y-21916D01*
X34146Y-21995D01*
X34121Y-21970D01*
X33880Y-21870D01*
X33620Y-21870D01*
X33379Y-21969D01*
X33249Y-22099D01*
X33121Y-21970D01*
X32880Y-21870D01*
X32620Y-21870D01*
X32379Y-21969D01*
X32195Y-22153D01*
X32140Y-22287D01*
X32140Y-21940D01*
X32109Y-21786D01*
X32109Y-21786D01*
X32080Y-21743D01*
X32022Y-21657D01*
X32022Y-21657D01*
X31843Y-21477D01*
X35845Y-21477D01*
X35845Y-22488D01*
X35845Y-22488D01*
G37*
G54D35*
X35845Y-22488D02*
X35404Y-22488D01*
X35404Y-22111D01*
X35358Y-22000D01*
X35274Y-21916D01*
X35164Y-21870D01*
X35044Y-21870D01*
X34336Y-21870D01*
X34225Y-21916D01*
X34146Y-21995D01*
X34121Y-21970D01*
X33880Y-21870D01*
X33620Y-21870D01*
X33379Y-21969D01*
X33249Y-22099D01*
X33121Y-21970D01*
X32880Y-21870D01*
X32620Y-21870D01*
X32379Y-21969D01*
X32195Y-22153D01*
X32140Y-22287D01*
X32140Y-21940D01*
X32109Y-21786D01*
X32109Y-21786D01*
X32080Y-21743D01*
X32022Y-21657D01*
X32022Y-21657D01*
X31843Y-21477D01*
X35845Y-21477D01*
X35845Y-22488D01*
G54D10*
G36*
X35845Y-28908D02*
X35804Y-28866D01*
X35563Y-28767D01*
X35303Y-28766D01*
X35085Y-28857D01*
X35085Y-28720D01*
X35085Y-28603D01*
X35112Y-28575D01*
X35322Y-28662D01*
X35582Y-28662D01*
X35822Y-28562D01*
X35845Y-28540D01*
X35845Y-28908D01*
X35845Y-28908D01*
G37*
G54D35*
X35845Y-28908D02*
X35804Y-28866D01*
X35563Y-28767D01*
X35303Y-28766D01*
X35085Y-28857D01*
X35085Y-28720D01*
X35085Y-28603D01*
X35112Y-28575D01*
X35322Y-28662D01*
X35582Y-28662D01*
X35822Y-28562D01*
X35845Y-28540D01*
X35845Y-28908D01*
G54D10*
G36*
X35845Y-40538D02*
X35704Y-40479D01*
X35737Y-40473D01*
X35763Y-40467D01*
X35763Y-40467D01*
X35845Y-40413D01*
X35845Y-40538D01*
X35845Y-40538D01*
G37*
G54D35*
X35845Y-40538D02*
X35704Y-40479D01*
X35737Y-40473D01*
X35763Y-40467D01*
X35763Y-40467D01*
X35845Y-40413D01*
X35845Y-40538D01*
G54D10*
G36*
X35845Y-42538D02*
X35685Y-42471D01*
X35425Y-42471D01*
X35340Y-42506D01*
X35340Y-41745D01*
X35424Y-41780D01*
X35684Y-41780D01*
X35845Y-41713D01*
X35845Y-42538D01*
X35845Y-42538D01*
G37*
G54D35*
X35845Y-42538D02*
X35685Y-42471D01*
X35425Y-42471D01*
X35340Y-42506D01*
X35340Y-41745D01*
X35424Y-41780D01*
X35684Y-41780D01*
X35845Y-41713D01*
X35845Y-42538D01*
G54D10*
G36*
X35845Y-48368D02*
X35822Y-48252D01*
X35822Y-48252D01*
X35793Y-48209D01*
X35735Y-48122D01*
X35735Y-48122D01*
X35597Y-47984D01*
X35489Y-47912D01*
X35640Y-47849D01*
X35802Y-47688D01*
X35845Y-47583D01*
X35845Y-48368D01*
X35845Y-48368D01*
G37*
G54D35*
X35845Y-48368D02*
X35822Y-48252D01*
X35822Y-48252D01*
X35793Y-48209D01*
X35735Y-48122D01*
X35735Y-48122D01*
X35597Y-47984D01*
X35489Y-47912D01*
X35640Y-47849D01*
X35802Y-47688D01*
X35845Y-47583D01*
X35845Y-48368D01*
G54D10*
G36*
X35845Y-61436D02*
X34945Y-61436D01*
X34945Y-59705D01*
X34840Y-59450D01*
X34645Y-59254D01*
X34390Y-59148D01*
X34114Y-59148D01*
X33859Y-59254D01*
X33664Y-59449D01*
X33558Y-59703D01*
X33558Y-59979D01*
X33663Y-60234D01*
X33858Y-60430D01*
X34113Y-60536D01*
X34389Y-60536D01*
X34644Y-60430D01*
X34839Y-60235D01*
X34945Y-59981D01*
X34945Y-59705D01*
X34945Y-61436D01*
X25501Y-61436D01*
X25504Y-61434D01*
X25588Y-61350D01*
X25591Y-61344D01*
X26141Y-61344D01*
X26299Y-61344D01*
X26299Y-61344D01*
X26427Y-61319D01*
X26452Y-61314D01*
X26452Y-61314D01*
X26582Y-61227D01*
X27133Y-60676D01*
X27133Y-60676D01*
X27219Y-60546D01*
X27219Y-60546D01*
X27224Y-60521D01*
X27250Y-60393D01*
X27250Y-60393D01*
X27250Y-58720D01*
X27298Y-58672D01*
X27385Y-58461D01*
X27386Y-58232D01*
X27298Y-58021D01*
X27137Y-57859D01*
X26925Y-57771D01*
X26697Y-57771D01*
X26485Y-57858D01*
X26323Y-58020D01*
X26236Y-58231D01*
X26235Y-58460D01*
X26323Y-58671D01*
X26450Y-58799D01*
X26450Y-60228D01*
X26133Y-60544D01*
X25591Y-60544D01*
X25588Y-60538D01*
X25581Y-60531D01*
X25588Y-60524D01*
X25634Y-60414D01*
X25634Y-60295D01*
X25634Y-59823D01*
X25588Y-59712D01*
X25504Y-59628D01*
X25498Y-59625D01*
X25498Y-58598D01*
X25543Y-58580D01*
X25627Y-58495D01*
X25673Y-58385D01*
X25673Y-58266D01*
X25673Y-57916D01*
X25627Y-57805D01*
X25597Y-57775D01*
X25627Y-57745D01*
X25673Y-57635D01*
X25673Y-57516D01*
X25673Y-57166D01*
X25627Y-57055D01*
X25543Y-56971D01*
X25498Y-56952D01*
X25498Y-56653D01*
X25644Y-56507D01*
X25732Y-56295D01*
X25732Y-56067D01*
X25645Y-55855D01*
X25483Y-55693D01*
X25272Y-55606D01*
X25043Y-55606D01*
X24832Y-55693D01*
X24670Y-55854D01*
X24582Y-56066D01*
X24582Y-56294D01*
X24669Y-56506D01*
X24698Y-56535D01*
X24698Y-56952D01*
X24653Y-56971D01*
X24569Y-57055D01*
X24523Y-57165D01*
X24523Y-57285D01*
X24523Y-57635D01*
X24568Y-57745D01*
X24599Y-57775D01*
X24569Y-57805D01*
X24523Y-57915D01*
X24523Y-58035D01*
X24523Y-58385D01*
X24568Y-58495D01*
X24653Y-58579D01*
X24698Y-58598D01*
X24698Y-59625D01*
X24692Y-59628D01*
X24608Y-59712D01*
X24562Y-59822D01*
X24562Y-59941D01*
X24562Y-60413D01*
X24607Y-60524D01*
X24615Y-60531D01*
X24608Y-60538D01*
X24605Y-60544D01*
X24410Y-60544D01*
X24407Y-60538D01*
X24400Y-60531D01*
X24407Y-60524D01*
X24453Y-60414D01*
X24453Y-60295D01*
X24453Y-59823D01*
X24407Y-59712D01*
X24323Y-59628D01*
X24317Y-59625D01*
X24317Y-58598D01*
X24362Y-58580D01*
X24446Y-58495D01*
X24492Y-58385D01*
X24492Y-58266D01*
X24492Y-57916D01*
X24446Y-57805D01*
X24416Y-57775D01*
X24446Y-57745D01*
X24492Y-57635D01*
X24492Y-57516D01*
X24492Y-57166D01*
X24446Y-57055D01*
X24362Y-56971D01*
X24317Y-56952D01*
X24317Y-53543D01*
X24424Y-53436D01*
X24511Y-53225D01*
X24512Y-52996D01*
X24424Y-52784D01*
X24263Y-52623D01*
X24218Y-52604D01*
X24338Y-52604D01*
X24449Y-52558D01*
X24528Y-52479D01*
X24553Y-52504D01*
X24794Y-52604D01*
X25054Y-52604D01*
X25181Y-52551D01*
X25181Y-52671D01*
X27152Y-52671D01*
X26237Y-53587D01*
X26150Y-53716D01*
X26145Y-53742D01*
X26120Y-53870D01*
X26120Y-56255D01*
X25969Y-56406D01*
X25881Y-56617D01*
X25881Y-56846D01*
X25968Y-57057D01*
X26130Y-57219D01*
X26341Y-57307D01*
X26570Y-57307D01*
X26781Y-57220D01*
X26943Y-57058D01*
X27031Y-56847D01*
X27031Y-56618D01*
X26944Y-56406D01*
X26920Y-56382D01*
X26920Y-54035D01*
X27815Y-53140D01*
X28598Y-53140D01*
X28598Y-53139D01*
X28726Y-53114D01*
X28751Y-53109D01*
X28751Y-53109D01*
X28881Y-53022D01*
X29417Y-52486D01*
X34039Y-52486D01*
X33859Y-52561D01*
X33664Y-52756D01*
X33558Y-53011D01*
X33558Y-53286D01*
X33663Y-53542D01*
X33858Y-53737D01*
X34113Y-53843D01*
X34389Y-53843D01*
X34644Y-53738D01*
X34839Y-53543D01*
X34945Y-53288D01*
X34945Y-53012D01*
X34840Y-52757D01*
X34645Y-52561D01*
X34464Y-52486D01*
X34921Y-52486D01*
X35177Y-52486D01*
X35177Y-52486D01*
X35304Y-52461D01*
X35330Y-52456D01*
X35330Y-52456D01*
X35460Y-52369D01*
X35735Y-52093D01*
X35735Y-52093D01*
X35793Y-52007D01*
X35822Y-51964D01*
X35822Y-51964D01*
X35845Y-51847D01*
X35845Y-61436D01*
X35845Y-61436D01*
G37*
G54D35*
X35845Y-61436D02*
X34945Y-61436D01*
X34945Y-59705D01*
X34840Y-59450D01*
X34645Y-59254D01*
X34390Y-59148D01*
X34114Y-59148D01*
X33859Y-59254D01*
X33664Y-59449D01*
X33558Y-59703D01*
X33558Y-59979D01*
X33663Y-60234D01*
X33858Y-60430D01*
X34113Y-60536D01*
X34389Y-60536D01*
X34644Y-60430D01*
X34839Y-60235D01*
X34945Y-59981D01*
X34945Y-59705D01*
X34945Y-61436D01*
X25501Y-61436D01*
X25504Y-61434D01*
X25588Y-61350D01*
X25591Y-61344D01*
X26141Y-61344D01*
X26299Y-61344D01*
X26299Y-61344D01*
X26427Y-61319D01*
X26452Y-61314D01*
X26452Y-61314D01*
X26582Y-61227D01*
X27133Y-60676D01*
X27133Y-60676D01*
X27219Y-60546D01*
X27219Y-60546D01*
X27224Y-60521D01*
X27250Y-60393D01*
X27250Y-60393D01*
X27250Y-58720D01*
X27298Y-58672D01*
X27385Y-58461D01*
X27386Y-58232D01*
X27298Y-58021D01*
X27137Y-57859D01*
X26925Y-57771D01*
X26697Y-57771D01*
X26485Y-57858D01*
X26323Y-58020D01*
X26236Y-58231D01*
X26235Y-58460D01*
X26323Y-58671D01*
X26450Y-58799D01*
X26450Y-60228D01*
X26133Y-60544D01*
X25591Y-60544D01*
X25588Y-60538D01*
X25581Y-60531D01*
X25588Y-60524D01*
X25634Y-60414D01*
X25634Y-60295D01*
X25634Y-59823D01*
X25588Y-59712D01*
X25504Y-59628D01*
X25498Y-59625D01*
X25498Y-58598D01*
X25543Y-58580D01*
X25627Y-58495D01*
X25673Y-58385D01*
X25673Y-58266D01*
X25673Y-57916D01*
X25627Y-57805D01*
X25597Y-57775D01*
X25627Y-57745D01*
X25673Y-57635D01*
X25673Y-57516D01*
X25673Y-57166D01*
X25627Y-57055D01*
X25543Y-56971D01*
X25498Y-56952D01*
X25498Y-56653D01*
X25644Y-56507D01*
X25732Y-56295D01*
X25732Y-56067D01*
X25645Y-55855D01*
X25483Y-55693D01*
X25272Y-55606D01*
X25043Y-55606D01*
X24832Y-55693D01*
X24670Y-55854D01*
X24582Y-56066D01*
X24582Y-56294D01*
X24669Y-56506D01*
X24698Y-56535D01*
X24698Y-56952D01*
X24653Y-56971D01*
X24569Y-57055D01*
X24523Y-57165D01*
X24523Y-57285D01*
X24523Y-57635D01*
X24568Y-57745D01*
X24599Y-57775D01*
X24569Y-57805D01*
X24523Y-57915D01*
X24523Y-58035D01*
X24523Y-58385D01*
X24568Y-58495D01*
X24653Y-58579D01*
X24698Y-58598D01*
X24698Y-59625D01*
X24692Y-59628D01*
X24608Y-59712D01*
X24562Y-59822D01*
X24562Y-59941D01*
X24562Y-60413D01*
X24607Y-60524D01*
X24615Y-60531D01*
X24608Y-60538D01*
X24605Y-60544D01*
X24410Y-60544D01*
X24407Y-60538D01*
X24400Y-60531D01*
X24407Y-60524D01*
X24453Y-60414D01*
X24453Y-60295D01*
X24453Y-59823D01*
X24407Y-59712D01*
X24323Y-59628D01*
X24317Y-59625D01*
X24317Y-58598D01*
X24362Y-58580D01*
X24446Y-58495D01*
X24492Y-58385D01*
X24492Y-58266D01*
X24492Y-57916D01*
X24446Y-57805D01*
X24416Y-57775D01*
X24446Y-57745D01*
X24492Y-57635D01*
X24492Y-57516D01*
X24492Y-57166D01*
X24446Y-57055D01*
X24362Y-56971D01*
X24317Y-56952D01*
X24317Y-53543D01*
X24424Y-53436D01*
X24511Y-53225D01*
X24512Y-52996D01*
X24424Y-52784D01*
X24263Y-52623D01*
X24218Y-52604D01*
X24338Y-52604D01*
X24449Y-52558D01*
X24528Y-52479D01*
X24553Y-52504D01*
X24794Y-52604D01*
X25054Y-52604D01*
X25181Y-52551D01*
X25181Y-52671D01*
X27152Y-52671D01*
X26237Y-53587D01*
X26150Y-53716D01*
X26145Y-53742D01*
X26120Y-53870D01*
X26120Y-56255D01*
X25969Y-56406D01*
X25881Y-56617D01*
X25881Y-56846D01*
X25968Y-57057D01*
X26130Y-57219D01*
X26341Y-57307D01*
X26570Y-57307D01*
X26781Y-57220D01*
X26943Y-57058D01*
X27031Y-56847D01*
X27031Y-56618D01*
X26944Y-56406D01*
X26920Y-56382D01*
X26920Y-54035D01*
X27815Y-53140D01*
X28598Y-53140D01*
X28598Y-53139D01*
X28726Y-53114D01*
X28751Y-53109D01*
X28751Y-53109D01*
X28881Y-53022D01*
X29417Y-52486D01*
X34039Y-52486D01*
X33859Y-52561D01*
X33664Y-52756D01*
X33558Y-53011D01*
X33558Y-53286D01*
X33663Y-53542D01*
X33858Y-53737D01*
X34113Y-53843D01*
X34389Y-53843D01*
X34644Y-53738D01*
X34839Y-53543D01*
X34945Y-53288D01*
X34945Y-53012D01*
X34840Y-52757D01*
X34645Y-52561D01*
X34464Y-52486D01*
X34921Y-52486D01*
X35177Y-52486D01*
X35177Y-52486D01*
X35304Y-52461D01*
X35330Y-52456D01*
X35330Y-52456D01*
X35460Y-52369D01*
X35735Y-52093D01*
X35735Y-52093D01*
X35793Y-52007D01*
X35822Y-51964D01*
X35822Y-51964D01*
X35845Y-51847D01*
X35845Y-61436D01*
M02*
