M48
;DRILL file {Pcbnew (22-Jun-2014 BZR 4027)-stable} date lun 25 ago 2014 22:20:11 ART
;FORMAT={-:-/ absolute / metric / decimal}
FMAT,2
METRIC,TZ
T1C0.599
T2C0.700
T3C0.813
T4C1.000
T5C1.016
T6C1.700
T7C2.000
%
G90
G05
M71
T1
X37.201Y-63.96
X37.201Y-65.23
X37.201Y-67.77
X37.201Y-69.04
X44.201Y-63.96
X44.201Y-65.23
X44.201Y-67.77
X44.201Y-69.04
X51.201Y-63.96
X51.201Y-65.23
X51.201Y-67.77
X51.201Y-69.04
X58.201Y-63.96
X58.201Y-65.23
X58.201Y-67.77
X58.201Y-69.04
X65.201Y-63.96
X65.201Y-65.23
X65.201Y-67.77
X65.201Y-69.04
X72.201Y-63.96
X72.201Y-65.23
X72.201Y-67.77
X72.201Y-69.04
X79.201Y-63.96
X79.201Y-65.23
X79.201Y-67.77
X79.201Y-69.04
X86.201Y-63.96
X86.201Y-65.23
X86.201Y-67.77
X86.201Y-69.04
T2
X28.2Y-90.5
X30.9Y-116.9
X31.1Y-66.3
X37.8Y-95.1
X37.9Y-90.1
X39.624Y-56.667
X42.1Y-99.2
X43.Y-55.2
X43.Y-94.5
X44.9Y-93.1
X45.1Y-103.7
X46.5Y-122.5
X47.3Y-92.2
X47.4Y-105.
X47.7Y-88.4
X48.2Y-102.6
X48.514Y-85.547
X48.6Y-51.5
X48.6Y-120.4
X50.5Y-108.3
X51.2Y-85.5
X52.9Y-122.4
X53.5Y-85.5
X54.4Y-120.5
X55.3Y-87.5
X56.5Y-136.591
X58.064Y-91.973
X59.Y-126.5
X59.5Y-51.5
X63.7Y-94.9
X64.7Y-129.4
X65.7Y-90.5
X65.9Y-93.5
X66.8Y-111.3
X67.3Y-85.2
X70.4Y-51.5
X70.6Y-82.2
X71.4Y-119.1
X72.949Y-110.922
X76.9Y-96.2
X77.267Y-104.597
X80.9Y-88.
X81.6Y-51.6
X81.636Y-105.131
X83.4Y-96.7
X84.3Y-126.7
X90.8Y-101.7
T3
X61.21Y-103.47
X66.29Y-103.47
T4
X29.4Y-77.1
X30.46Y-81.59
X30.46Y-89.21
X30.46Y-93.69
X30.46Y-101.31
X30.46Y-105.79
X30.46Y-113.41
X32.3Y-77.1
X35.2Y-77.1
X35.54Y-81.59
X35.54Y-89.21
X35.54Y-93.69
X35.54Y-101.31
X35.54Y-105.79
X35.54Y-113.41
X38.1Y-77.1
X52.705Y-114.554
X55.245Y-114.554
X57.15Y-120.65
X59.69Y-120.65
X61.53Y-87.93
X61.53Y-90.47
X64.07Y-87.93
X76.1Y-93.6
X78.03Y-108.6
X79.1Y-93.6
X79.502Y-97.282
X79.502Y-99.822
X80.57Y-108.6
X85.06Y-86.3
X85.06Y-93.
X85.73Y-98.96
X85.73Y-101.5
X85.73Y-104.04
X87.6Y-86.3
X87.6Y-93.
X88.27Y-98.96
X88.27Y-101.5
X90.14Y-86.3
X90.14Y-93.
T5
X29.Y-63.96
X29.Y-66.5
X29.Y-69.04
X29.46Y-51.5
X32.Y-51.5
X34.54Y-51.5
X40.46Y-51.5
X40.5Y-81.69
X40.5Y-84.23
X40.5Y-86.77
X40.5Y-89.31
X43.Y-51.5
X45.54Y-51.5
X51.46Y-51.5
X52.5Y-141.03
X52.5Y-143.57
X54.Y-51.5
X55.63Y-108.8
X56.5Y-141.03
X56.5Y-143.57
X56.54Y-51.5
X58.17Y-108.8
X61.23Y-108.8
X62.46Y-51.5
X63.77Y-108.8
X64.77Y-114.3
X64.77Y-116.84
X65.Y-51.5
X67.54Y-51.5
X73.46Y-51.5
X76.Y-51.5
X78.54Y-51.5
X84.46Y-51.5
X87.Y-51.5
X88.27Y-104.04
X89.54Y-51.5
X90.5Y-63.96
X90.5Y-66.5
X90.5Y-69.04
T6
X86.5Y-75.66
X86.5Y-80.24
X86.5Y-111.16
X86.5Y-115.84
T7
X32.Y-57.5
X32.Y-135.
X32.Y-152.
X59.5Y-75.5
X87.Y-57.5
X87.Y-135.
X87.Y-152.
T0
M30
