G04 (created by PCBNEW (2013-mar-13)-testing) date vie 12 jul 2013 21:58:05 ART*
%MOIN*%
G04 Gerber Fmt 3.4, Leading zero omitted, Abs format*
%FSLAX34Y34*%
G01*
G70*
G90*
G04 APERTURE LIST*
%ADD10C,2.3622e-06*%
%ADD11C,0.0246063*%
%ADD12C,0.015*%
%ADD13C,0.12*%
%ADD14C,0.0708661*%
%ADD15R,0.0236X0.0512*%
%ADD16R,0.122X0.0472*%
%ADD17R,0.06X0.06*%
%ADD18R,0.0708661X0.0708661*%
%ADD19R,0.0787X0.0787*%
%ADD20C,0.0787*%
%ADD21O,0.062X0.09*%
%ADD22R,0.062X0.09*%
%ADD23R,0.0669291X0.0708661*%
%ADD24R,0.0669291X0.0669291*%
%ADD25C,0.0669291*%
%ADD26R,0.11811X0.11811*%
%ADD27C,0.11811*%
%ADD28C,0.16*%
%ADD29C,0.0787402*%
%ADD30R,0.035X0.055*%
%ADD31R,0.0354331X0.0590551*%
%ADD32O,0.0354331X0.0590551*%
%ADD33C,0.055*%
%ADD34C,0.02*%
%ADD35C,0.012*%
%ADD36C,0.016*%
%ADD37C,0.01*%
G04 APERTURE END LIST*
G54D10*
G54D11*
X20649Y-59919D02*
X19918Y-59919D01*
X20312Y-60444D01*
X20143Y-60444D01*
X20030Y-60510D01*
X19974Y-60575D01*
X19918Y-60707D01*
X19918Y-61035D01*
X19974Y-61166D01*
X20030Y-61232D01*
X20143Y-61297D01*
X20480Y-61297D01*
X20593Y-61232D01*
X20649Y-61166D01*
X19412Y-61166D02*
X19355Y-61232D01*
X19412Y-61297D01*
X19468Y-61232D01*
X19412Y-61166D01*
X19412Y-61297D01*
X18231Y-61297D02*
X18906Y-61297D01*
X18568Y-61297D02*
X18568Y-59919D01*
X18681Y-60116D01*
X18793Y-60247D01*
X18906Y-60313D01*
X17218Y-60379D02*
X17218Y-61297D01*
X17499Y-59854D02*
X17781Y-60838D01*
X17050Y-60838D01*
X16768Y-59919D02*
X16093Y-59919D01*
X16431Y-61297D02*
X16431Y-59919D01*
X15700Y-61297D02*
X15700Y-59919D01*
X15306Y-59919D02*
X14631Y-59919D01*
X14969Y-61297D02*
X14969Y-59919D01*
X14012Y-59919D02*
X13787Y-59919D01*
X13675Y-59985D01*
X13562Y-60116D01*
X13506Y-60379D01*
X13506Y-60838D01*
X13562Y-61100D01*
X13675Y-61232D01*
X13787Y-61297D01*
X14012Y-61297D01*
X14125Y-61232D01*
X14237Y-61100D01*
X14294Y-60838D01*
X14294Y-60379D01*
X14237Y-60116D01*
X14125Y-59985D01*
X14012Y-59919D01*
G54D12*
X20393Y-22204D02*
X29606Y-22204D01*
X20393Y-27559D02*
X20393Y-22204D01*
X29606Y-27559D02*
X20393Y-27559D01*
X29606Y-22204D02*
X29606Y-27559D01*
X36220Y-61811D02*
X10629Y-61811D01*
X36220Y-21102D02*
X36220Y-61811D01*
X10629Y-21102D02*
X36220Y-21102D01*
X10629Y-61811D02*
X10629Y-21102D01*
G54D13*
X19488Y-24881D03*
X30508Y-24881D03*
G54D14*
X14976Y-47838D03*
X12976Y-47838D03*
X14976Y-44838D03*
X12976Y-44838D03*
X14976Y-43822D03*
X12976Y-43822D03*
X14976Y-40822D03*
X12976Y-40822D03*
X35555Y-41125D03*
X35555Y-43125D03*
X32555Y-41125D03*
X32555Y-43125D03*
G54D15*
X30562Y-52396D03*
X30062Y-52396D03*
X32062Y-52396D03*
X31562Y-52396D03*
X31062Y-52396D03*
G54D16*
X31062Y-54546D03*
G54D14*
X21775Y-50984D03*
X18775Y-50984D03*
X26181Y-43822D03*
X26181Y-40822D03*
X19216Y-41535D03*
X16216Y-41535D03*
G54D17*
X32767Y-45062D03*
G54D14*
X33767Y-45062D03*
X32767Y-46062D03*
X33767Y-46062D03*
X32767Y-47062D03*
X33767Y-47062D03*
G54D18*
X29984Y-50039D03*
G54D14*
X30984Y-50039D03*
X31984Y-50039D03*
G54D18*
X34750Y-22525D03*
G54D14*
X33750Y-22525D03*
X32750Y-22525D03*
G54D18*
X14074Y-28921D03*
G54D14*
X14074Y-29921D03*
X14074Y-30921D03*
G54D18*
X35452Y-26007D03*
G54D14*
X35452Y-27007D03*
X35452Y-28007D03*
G54D18*
X31889Y-29314D03*
G54D14*
X31889Y-30314D03*
X31889Y-31314D03*
G54D18*
X13750Y-24380D03*
G54D14*
X13750Y-25380D03*
X13750Y-26380D03*
G54D18*
X23925Y-51950D03*
G54D14*
X24925Y-51950D03*
G54D18*
X18307Y-37311D03*
G54D14*
X18307Y-36311D03*
G54D18*
X35433Y-30421D03*
G54D14*
X35433Y-29421D03*
G54D19*
X19925Y-37811D03*
G54D20*
X20425Y-35811D03*
X20925Y-37811D03*
X21425Y-35811D03*
X21925Y-37811D03*
X22425Y-35811D03*
X22925Y-37811D03*
X23425Y-35811D03*
X23925Y-37811D03*
X24425Y-35811D03*
X24925Y-37811D03*
X25425Y-35811D03*
X25925Y-37811D03*
X26425Y-35811D03*
X26925Y-37811D03*
G54D21*
X19106Y-47956D03*
X20106Y-47956D03*
X21106Y-47956D03*
X22106Y-47956D03*
X23106Y-47956D03*
X24106Y-47956D03*
X25106Y-47956D03*
X26106Y-47956D03*
X27106Y-47956D03*
X28106Y-47956D03*
X29106Y-47956D03*
X30106Y-47956D03*
X31106Y-47956D03*
G54D22*
X18106Y-47956D03*
G54D21*
X31106Y-44956D03*
X30106Y-44956D03*
X29106Y-44956D03*
X28106Y-44956D03*
X27106Y-44956D03*
X26106Y-44956D03*
X25106Y-44956D03*
X24106Y-44956D03*
X23106Y-44956D03*
X22106Y-44956D03*
X21106Y-44956D03*
X20106Y-44956D03*
X19106Y-44956D03*
X18106Y-44956D03*
G54D23*
X17125Y-33342D03*
G54D14*
X17125Y-36342D03*
G54D23*
X29724Y-33342D03*
G54D14*
X29724Y-36342D03*
G54D23*
X29724Y-37082D03*
G54D14*
X29724Y-40082D03*
G54D23*
X30708Y-37082D03*
G54D14*
X30708Y-40082D03*
G54D23*
X30708Y-33342D03*
G54D14*
X30708Y-36342D03*
G54D23*
X17125Y-37082D03*
G54D14*
X17125Y-40082D03*
G54D23*
X16141Y-37082D03*
G54D14*
X16141Y-40082D03*
G54D23*
X16141Y-33342D03*
G54D14*
X16141Y-36342D03*
G54D24*
X16650Y-22650D03*
G54D25*
X16650Y-26650D03*
G54D24*
X23590Y-39370D03*
G54D25*
X27590Y-39370D03*
G54D18*
X20244Y-33858D03*
G54D14*
X24244Y-33858D03*
G54D25*
X24106Y-49212D03*
X25106Y-49212D03*
X25106Y-43700D03*
X24106Y-43700D03*
X17283Y-51114D03*
X17283Y-52114D03*
X24106Y-42519D03*
X25106Y-42519D03*
G54D26*
X34260Y-38560D03*
G54D27*
X34251Y-36992D03*
G54D18*
X28543Y-36311D03*
G54D14*
X28543Y-37311D03*
G54D26*
X34580Y-50640D03*
G54D27*
X34566Y-49078D03*
G54D18*
X18578Y-52165D03*
G54D14*
X19578Y-52165D03*
X20578Y-52165D03*
X21578Y-52165D03*
G54D28*
X23425Y-24881D03*
G54D29*
X22244Y-49803D03*
X21062Y-49803D03*
X14960Y-39763D03*
X12598Y-53149D03*
X12598Y-59842D03*
X34251Y-59842D03*
X34251Y-53149D03*
G54D18*
X27165Y-43019D03*
G54D14*
X27165Y-42019D03*
G54D30*
X31634Y-51377D03*
X30884Y-51377D03*
G54D14*
X17725Y-26625D03*
X17725Y-23625D03*
X33070Y-28027D03*
X33070Y-31027D03*
X15650Y-27850D03*
X15650Y-24850D03*
X32475Y-23650D03*
X32475Y-26650D03*
X30800Y-29325D03*
X30800Y-32325D03*
X12893Y-31421D03*
X12893Y-28421D03*
X12510Y-24440D03*
X12510Y-27440D03*
X34025Y-23700D03*
X34025Y-26700D03*
G54D29*
X19291Y-43740D03*
X18110Y-43759D03*
X14625Y-48877D03*
X16220Y-49881D03*
X34015Y-32874D03*
X35000Y-33720D03*
G54D31*
X26000Y-29448D03*
G54D32*
X25500Y-29448D03*
X24500Y-29448D03*
X24000Y-29448D03*
G54D31*
X19700Y-29448D03*
G54D32*
X19200Y-29448D03*
X18200Y-29448D03*
X17700Y-29448D03*
G54D31*
X29149Y-29448D03*
G54D32*
X28649Y-29448D03*
X27649Y-29448D03*
X27149Y-29448D03*
G54D31*
X22850Y-29448D03*
G54D32*
X22350Y-29448D03*
X21350Y-29448D03*
X20850Y-29448D03*
G54D33*
X26456Y-56732D03*
X20433Y-58937D03*
X34020Y-25420D03*
X34250Y-31325D03*
X17775Y-40575D03*
X20375Y-53125D03*
X34960Y-45078D03*
X31929Y-43858D03*
X34675Y-28200D03*
X35314Y-47362D03*
X22150Y-33850D03*
X16300Y-32250D03*
X24405Y-36830D03*
X18425Y-33275D03*
X20675Y-39225D03*
X13925Y-53800D03*
X21400Y-40300D03*
X15350Y-54050D03*
X31614Y-40157D03*
X30984Y-42913D03*
X25450Y-36850D03*
X28700Y-42165D03*
X25157Y-56181D03*
X22900Y-50600D03*
X22716Y-56417D03*
X28425Y-46161D03*
X24925Y-50250D03*
X35325Y-32100D03*
X30625Y-45800D03*
X33779Y-44094D03*
X15475Y-31075D03*
X16775Y-30600D03*
X16775Y-29200D03*
X20275Y-43750D03*
X20075Y-41225D03*
X18075Y-39900D03*
X13850Y-31925D03*
X17500Y-27550D03*
X18550Y-39275D03*
X21175Y-41400D03*
X21100Y-43650D03*
X14775Y-26575D03*
X29975Y-30625D03*
X22100Y-43650D03*
X32225Y-27625D03*
X27930Y-31320D03*
X32825Y-31800D03*
X23100Y-43625D03*
X12940Y-32670D03*
X26811Y-58346D03*
X27700Y-33250D03*
X28900Y-31925D03*
X25100Y-31550D03*
X22725Y-31550D03*
X20075Y-31550D03*
X12200Y-40800D03*
X30255Y-41377D03*
X32047Y-48149D03*
X26225Y-31550D03*
X16875Y-28375D03*
X34251Y-40374D03*
X32480Y-49015D03*
X23937Y-53110D03*
G54D34*
X26240Y-56988D02*
X26240Y-56948D01*
X26240Y-56948D02*
X26456Y-56732D01*
X30562Y-52396D02*
X30562Y-52822D01*
X20708Y-59212D02*
X20433Y-58937D01*
X25551Y-59212D02*
X20708Y-59212D01*
X26102Y-58661D02*
X25551Y-59212D01*
X26102Y-57125D02*
X26102Y-58661D01*
X29724Y-53503D02*
X26240Y-56988D01*
X26240Y-56988D02*
X26102Y-57125D01*
X29881Y-53503D02*
X29724Y-53503D01*
X30562Y-52822D02*
X29881Y-53503D01*
X17725Y-23625D02*
X17725Y-22215D01*
X35500Y-23940D02*
X34020Y-25420D01*
X35500Y-21760D02*
X35500Y-23940D01*
X35340Y-21600D02*
X35500Y-21760D01*
X18340Y-21600D02*
X35340Y-21600D01*
X17725Y-22215D02*
X18340Y-21600D01*
X31687Y-27425D02*
X31687Y-27087D01*
X31687Y-27087D02*
X32125Y-26650D01*
X32125Y-26650D02*
X32475Y-26650D01*
X31687Y-27887D02*
X31687Y-27425D01*
X31687Y-27425D02*
X31687Y-27112D01*
X32150Y-26650D02*
X32475Y-26650D01*
X31687Y-27112D02*
X32150Y-26650D01*
X33070Y-29270D02*
X31687Y-27887D01*
X33070Y-31027D02*
X33070Y-29270D01*
X34015Y-32874D02*
X34015Y-32359D01*
X34250Y-32125D02*
X34250Y-31325D01*
X34015Y-32359D02*
X34250Y-32125D01*
X19216Y-41166D02*
X19216Y-41535D01*
X18650Y-40600D02*
X19216Y-41166D01*
X17800Y-40600D02*
X18650Y-40600D01*
X17775Y-40575D02*
X17800Y-40600D01*
X19216Y-41535D02*
X19216Y-41866D01*
X19216Y-41866D02*
X19375Y-42025D01*
X19375Y-42025D02*
X23250Y-42025D01*
X23250Y-42025D02*
X23590Y-41684D01*
X23590Y-41684D02*
X23590Y-39370D01*
X21775Y-50984D02*
X21775Y-51025D01*
X24106Y-50943D02*
X24106Y-49212D01*
X23800Y-51250D02*
X24106Y-50943D01*
X22000Y-51250D02*
X23800Y-51250D01*
X21775Y-51025D02*
X22000Y-51250D01*
X20399Y-53149D02*
X21240Y-53149D01*
X20375Y-53125D02*
X20399Y-53149D01*
X31938Y-43848D02*
X32854Y-43848D01*
X31929Y-43858D02*
X31938Y-43848D01*
X33767Y-45062D02*
X33767Y-44909D01*
X33188Y-44055D02*
X32982Y-43848D01*
X33188Y-44330D02*
X33188Y-44055D01*
X33767Y-44909D02*
X33188Y-44330D01*
X33767Y-45062D02*
X34944Y-45062D01*
X34944Y-45062D02*
X34960Y-45078D01*
X34960Y-45078D02*
X34944Y-45062D01*
X20649Y-59153D02*
X20433Y-58937D01*
X34015Y-32874D02*
X34153Y-32874D01*
X34153Y-32874D02*
X35000Y-33720D01*
X32982Y-43848D02*
X32854Y-43848D01*
X24106Y-49212D02*
X24106Y-47956D01*
X24106Y-50618D02*
X24106Y-49212D01*
X21578Y-52165D02*
X21578Y-51181D01*
X21578Y-51181D02*
X21775Y-50984D01*
X21578Y-52811D02*
X21578Y-52165D01*
X21240Y-53149D02*
X21578Y-52811D01*
X20433Y-53149D02*
X21240Y-53149D01*
X20393Y-53110D02*
X20433Y-53149D01*
X23590Y-39370D02*
X23590Y-38145D01*
X23590Y-38145D02*
X23925Y-37811D01*
X26181Y-43822D02*
X26181Y-42795D01*
X25905Y-42519D02*
X25106Y-42519D01*
X26181Y-42795D02*
X25905Y-42519D01*
X26106Y-44956D02*
X26106Y-43897D01*
X26106Y-43897D02*
X26181Y-43822D01*
G54D35*
X23590Y-38145D02*
X23925Y-37811D01*
X24106Y-50618D02*
X24106Y-49212D01*
G54D34*
X31984Y-50039D02*
X32910Y-50039D01*
X33871Y-49078D02*
X34566Y-49078D01*
X32910Y-50039D02*
X33871Y-49078D01*
X34867Y-28007D02*
X35452Y-28007D01*
X34675Y-28200D02*
X34867Y-28007D01*
X34566Y-48110D02*
X35314Y-47362D01*
X34566Y-49078D02*
X34566Y-48110D01*
X29724Y-33342D02*
X28757Y-33342D01*
X28757Y-33342D02*
X28250Y-33850D01*
X28250Y-33850D02*
X25500Y-33850D01*
X25500Y-33850D02*
X24900Y-33250D01*
X24900Y-33250D02*
X20575Y-33250D01*
X20575Y-33250D02*
X20244Y-33580D01*
X20244Y-33580D02*
X20244Y-33858D01*
X17125Y-33342D02*
X17125Y-33625D01*
X17125Y-33625D02*
X17358Y-33858D01*
X17358Y-33858D02*
X20244Y-33858D01*
X21425Y-35811D02*
X21425Y-35039D01*
X21425Y-35039D02*
X20244Y-33858D01*
X30708Y-33342D02*
X29724Y-33342D01*
X34251Y-36992D02*
X34251Y-34409D01*
X33185Y-33342D02*
X30708Y-33342D01*
X34251Y-34409D02*
X33185Y-33342D01*
G54D36*
X17125Y-33342D02*
X16141Y-33342D01*
G54D34*
X22425Y-34125D02*
X22425Y-35811D01*
X22150Y-33850D02*
X22425Y-34125D01*
X15293Y-32718D02*
X15306Y-32718D01*
X15306Y-32718D02*
X15775Y-32250D01*
X15775Y-32250D02*
X16300Y-32250D01*
X26106Y-52539D02*
X26106Y-52653D01*
X25000Y-53759D02*
X17559Y-53759D01*
X26106Y-52653D02*
X25000Y-53759D01*
X26106Y-47956D02*
X26106Y-52539D01*
X11614Y-36397D02*
X15293Y-32718D01*
X11614Y-47814D02*
X11614Y-36397D01*
X17559Y-53759D02*
X11614Y-47814D01*
X24925Y-37811D02*
X24925Y-37350D01*
X24925Y-37350D02*
X24405Y-36830D01*
X16750Y-31692D02*
X15757Y-31692D01*
X16842Y-31692D02*
X16750Y-31692D01*
X18425Y-33275D02*
X16842Y-31692D01*
X27106Y-47956D02*
X27106Y-48562D01*
X26692Y-52913D02*
X25984Y-53622D01*
X26692Y-48976D02*
X26692Y-52913D01*
X27106Y-48562D02*
X26692Y-48976D01*
X25413Y-54192D02*
X17165Y-54192D01*
X25984Y-53622D02*
X25413Y-54192D01*
X17165Y-54192D02*
X11122Y-48149D01*
X11122Y-48149D02*
X11122Y-36003D01*
X11122Y-36003D02*
X15433Y-31692D01*
X15433Y-31692D02*
X15757Y-31692D01*
X20675Y-39225D02*
X21725Y-39225D01*
X21725Y-39225D02*
X21925Y-39024D01*
X21925Y-39024D02*
X21925Y-37811D01*
X21925Y-39024D02*
X21925Y-37811D01*
X16200Y-54960D02*
X15085Y-54960D01*
X15085Y-54960D02*
X13925Y-53800D01*
X27362Y-53897D02*
X26456Y-54803D01*
X26299Y-54960D02*
X16200Y-54960D01*
X26456Y-54803D02*
X26299Y-54960D01*
X29106Y-47956D02*
X29106Y-48334D01*
X27992Y-49133D02*
X27992Y-53267D01*
X28188Y-48937D02*
X27992Y-49133D01*
X28503Y-48937D02*
X28188Y-48937D01*
X29106Y-48334D02*
X28503Y-48937D01*
X27992Y-53267D02*
X27362Y-53897D01*
X22691Y-40241D02*
X22925Y-40007D01*
X21458Y-40241D02*
X22691Y-40241D01*
X21400Y-40300D02*
X21458Y-40241D01*
X22925Y-40007D02*
X22925Y-37811D01*
X26299Y-54173D02*
X26811Y-53661D01*
X22925Y-37811D02*
X22925Y-40007D01*
X28106Y-48311D02*
X27401Y-49015D01*
X27401Y-49015D02*
X27401Y-53070D01*
X27401Y-53070D02*
X26811Y-53661D01*
X28106Y-47956D02*
X28106Y-48311D01*
X25866Y-54606D02*
X16500Y-54606D01*
X26299Y-54173D02*
X25866Y-54606D01*
X15906Y-54606D02*
X15350Y-54050D01*
X16500Y-54606D02*
X15906Y-54606D01*
X31692Y-39280D02*
X31692Y-38732D01*
X31106Y-44291D02*
X31106Y-43035D01*
X31692Y-40078D02*
X31692Y-39280D01*
X31692Y-39280D02*
X31692Y-39015D01*
X31614Y-40157D02*
X31692Y-40078D01*
X31106Y-43035D02*
X30984Y-42913D01*
X31106Y-44956D02*
X31106Y-44291D01*
X31692Y-35728D02*
X31692Y-35216D01*
X31692Y-38732D02*
X31692Y-35728D01*
X31692Y-35216D02*
X31220Y-34744D01*
X31220Y-34744D02*
X25216Y-34744D01*
X25216Y-34744D02*
X24425Y-35535D01*
X24425Y-35535D02*
X24425Y-35811D01*
X31692Y-38976D02*
X31692Y-38732D01*
X25425Y-35811D02*
X25425Y-36825D01*
X25425Y-36825D02*
X25450Y-36850D01*
X30106Y-43976D02*
X30106Y-43728D01*
X30106Y-44956D02*
X30106Y-43976D01*
X30106Y-43728D02*
X28700Y-42322D01*
X28700Y-42322D02*
X28700Y-42165D01*
X25425Y-35811D02*
X25425Y-36685D01*
X25425Y-36685D02*
X25492Y-36751D01*
G54D35*
X25425Y-36685D02*
X25492Y-36751D01*
G54D34*
X28976Y-51929D02*
X28976Y-53582D01*
X25472Y-55866D02*
X25157Y-56181D01*
X26692Y-55866D02*
X25472Y-55866D01*
X28976Y-53582D02*
X26692Y-55866D01*
X29921Y-49173D02*
X29645Y-49173D01*
X28976Y-49842D02*
X28976Y-51929D01*
X29645Y-49173D02*
X28976Y-49842D01*
X31106Y-48814D02*
X30748Y-49173D01*
X30748Y-49173D02*
X29921Y-49173D01*
X31106Y-48814D02*
X31106Y-47956D01*
X23106Y-49875D02*
X23106Y-50393D01*
X23106Y-50393D02*
X22900Y-50600D01*
X23106Y-47956D02*
X23106Y-49875D01*
X28543Y-53346D02*
X28543Y-53385D01*
X22716Y-55590D02*
X22716Y-56417D01*
X22952Y-55354D02*
X22716Y-55590D01*
X26574Y-55354D02*
X22952Y-55354D01*
X28543Y-53385D02*
X26574Y-55354D01*
X28543Y-52716D02*
X28543Y-53346D01*
X28976Y-49330D02*
X28661Y-49330D01*
X28543Y-49448D02*
X28543Y-52716D01*
X28661Y-49330D02*
X28543Y-49448D01*
X30106Y-48200D02*
X30106Y-47956D01*
X28976Y-49330D02*
X30106Y-48200D01*
X32452Y-45377D02*
X32767Y-45062D01*
X28425Y-46161D02*
X28425Y-45925D01*
X28106Y-45606D02*
X28106Y-44956D01*
X28425Y-45925D02*
X28106Y-45606D01*
X32452Y-45377D02*
X31455Y-46375D01*
X31455Y-46375D02*
X28638Y-46375D01*
X28638Y-46375D02*
X28425Y-46161D01*
X24925Y-51950D02*
X24925Y-50250D01*
X35433Y-30421D02*
X35433Y-31991D01*
X35433Y-31991D02*
X35325Y-32100D01*
X29106Y-45581D02*
X29106Y-44956D01*
X29350Y-45825D02*
X29106Y-45581D01*
X30600Y-45825D02*
X29350Y-45825D01*
X30625Y-45800D02*
X30600Y-45825D01*
X35403Y-44124D02*
X35506Y-44227D01*
X33809Y-44124D02*
X35403Y-44124D01*
X33779Y-44094D02*
X33809Y-44124D01*
X33767Y-46062D02*
X35275Y-46062D01*
X35506Y-45831D02*
X35506Y-44227D01*
X35275Y-46062D02*
X35506Y-45831D01*
X17125Y-36342D02*
X17125Y-37082D01*
X18307Y-36311D02*
X17157Y-36311D01*
X17157Y-36311D02*
X17125Y-36342D01*
X20425Y-35811D02*
X18807Y-35811D01*
X18807Y-35811D02*
X18307Y-36311D01*
X16141Y-37082D02*
X16141Y-37480D01*
X16574Y-37913D02*
X17704Y-37913D01*
X16141Y-37480D02*
X16574Y-37913D01*
X17704Y-37913D02*
X18307Y-37311D01*
X18307Y-37311D02*
X18791Y-37311D01*
X18791Y-37311D02*
X19271Y-36830D01*
X20925Y-37106D02*
X20925Y-37811D01*
X20649Y-36830D02*
X20925Y-37106D01*
X19271Y-36830D02*
X20649Y-36830D01*
X17704Y-37913D02*
X18307Y-37311D01*
X16141Y-36342D02*
X16141Y-37082D01*
X29724Y-37082D02*
X29724Y-36342D01*
X28543Y-37311D02*
X29496Y-37311D01*
X29496Y-37311D02*
X29724Y-37082D01*
X25925Y-37811D02*
X25925Y-37322D01*
X28161Y-36929D02*
X28543Y-37311D01*
X26318Y-36929D02*
X28161Y-36929D01*
X25925Y-37322D02*
X26318Y-36929D01*
X28543Y-36311D02*
X26925Y-36311D01*
X26925Y-36311D02*
X26425Y-35811D01*
X30708Y-36342D02*
X30708Y-35964D01*
X29185Y-35669D02*
X28543Y-36311D01*
X30413Y-35669D02*
X29185Y-35669D01*
X30708Y-35964D02*
X30413Y-35669D01*
X30708Y-37082D02*
X30708Y-36342D01*
G54D35*
X26925Y-36311D02*
X26425Y-35811D01*
G54D34*
X18106Y-47956D02*
X18106Y-47493D01*
X32705Y-47125D02*
X32767Y-47062D01*
X18475Y-47125D02*
X32705Y-47125D01*
X18106Y-47493D02*
X18475Y-47125D01*
X14976Y-47838D02*
X14976Y-44838D01*
X18106Y-47956D02*
X15094Y-47956D01*
X15094Y-47956D02*
X14976Y-47838D01*
X17283Y-51114D02*
X18645Y-51114D01*
X18645Y-51114D02*
X18775Y-50984D01*
X18775Y-50984D02*
X18775Y-49996D01*
X18106Y-49326D02*
X18106Y-47956D01*
X18775Y-49996D02*
X18106Y-49326D01*
G54D35*
X18645Y-51114D02*
X18775Y-50984D01*
G54D34*
X19106Y-47956D02*
X19106Y-49657D01*
X19106Y-49657D02*
X19578Y-50129D01*
X19578Y-50129D02*
X19578Y-52165D01*
G54D35*
X19578Y-50129D02*
X19578Y-52165D01*
X19106Y-49657D02*
X19578Y-50129D01*
G54D34*
X32767Y-46062D02*
X32480Y-46062D01*
X32480Y-46062D02*
X31793Y-46750D01*
X27106Y-46581D02*
X27106Y-44956D01*
X27275Y-46750D02*
X27106Y-46581D01*
X31793Y-46750D02*
X27275Y-46750D01*
X32480Y-46062D02*
X31889Y-46653D01*
X27106Y-46397D02*
X27106Y-44956D01*
X27106Y-44956D02*
X27106Y-43078D01*
X27106Y-43078D02*
X27165Y-43019D01*
G54D35*
X27106Y-46397D02*
X27106Y-44956D01*
X32480Y-46062D02*
X31889Y-46653D01*
G54D34*
X15321Y-30921D02*
X14074Y-30921D01*
X15475Y-31075D02*
X15321Y-30921D01*
X16775Y-29200D02*
X16775Y-30600D01*
X20106Y-44956D02*
X20106Y-43918D01*
X20106Y-43918D02*
X20275Y-43750D01*
X20075Y-41225D02*
X18750Y-39900D01*
X18750Y-39900D02*
X18075Y-39900D01*
X14074Y-30921D02*
X14074Y-31700D01*
X14074Y-31700D02*
X13850Y-31925D01*
X14074Y-30921D02*
X14074Y-29921D01*
X13750Y-26380D02*
X13750Y-25380D01*
X14775Y-26575D02*
X13945Y-26575D01*
X13945Y-26575D02*
X13750Y-26380D01*
X18425Y-27325D02*
X18425Y-26350D01*
X17500Y-27550D02*
X17550Y-27600D01*
X17550Y-27600D02*
X18150Y-27600D01*
X18150Y-27600D02*
X18425Y-27325D01*
X18425Y-26350D02*
X18025Y-25950D01*
X18025Y-25950D02*
X15400Y-25950D01*
X15400Y-25950D02*
X14775Y-26575D01*
X18025Y-25950D02*
X15400Y-25950D01*
X18425Y-26350D02*
X18025Y-25950D01*
X15400Y-25950D02*
X14775Y-26575D01*
X15400Y-25950D02*
X14775Y-26575D01*
X19325Y-39275D02*
X18550Y-39275D01*
X20375Y-40325D02*
X19325Y-39275D01*
X20375Y-40600D02*
X20375Y-40325D01*
X21106Y-44956D02*
X21106Y-43656D01*
X21106Y-43656D02*
X21100Y-43650D01*
X21175Y-41400D02*
X20375Y-40600D01*
X30340Y-28460D02*
X30580Y-28460D01*
X32640Y-25880D02*
X33250Y-25270D01*
X31960Y-25880D02*
X32640Y-25880D01*
X31240Y-26600D02*
X31960Y-25880D01*
X31240Y-27800D02*
X31240Y-26600D01*
X30580Y-28460D02*
X31240Y-27800D01*
X30340Y-28460D02*
X29975Y-28825D01*
X29975Y-28825D02*
X29975Y-30625D01*
X29975Y-28825D02*
X29975Y-30625D01*
X22106Y-43656D02*
X22100Y-43650D01*
X22106Y-43656D02*
X22106Y-44956D01*
X32750Y-22525D02*
X33750Y-22525D01*
X32225Y-27625D02*
X32575Y-27625D01*
X33250Y-26950D02*
X33250Y-25270D01*
X32575Y-27625D02*
X33250Y-26950D01*
X33250Y-23025D02*
X33750Y-22525D01*
X33250Y-25270D02*
X33250Y-24850D01*
X33250Y-24850D02*
X33250Y-24425D01*
X33250Y-24425D02*
X33250Y-23025D01*
X28790Y-31314D02*
X27935Y-31314D01*
X27935Y-31314D02*
X27930Y-31320D01*
X29500Y-31314D02*
X28790Y-31314D01*
X29500Y-31314D02*
X31889Y-31314D01*
X32339Y-31314D02*
X31889Y-31314D01*
X32825Y-31800D02*
X32339Y-31314D01*
X23106Y-44956D02*
X23106Y-43631D01*
X23106Y-43631D02*
X23100Y-43625D01*
X31889Y-31314D02*
X31889Y-30314D01*
X19106Y-44956D02*
X19106Y-43925D01*
X19106Y-43925D02*
X19291Y-43740D01*
G54D35*
X19106Y-43925D02*
X19291Y-43740D01*
G54D34*
X18106Y-44956D02*
X18106Y-43763D01*
X18106Y-43763D02*
X18110Y-43759D01*
G54D35*
X18106Y-43763D02*
X18110Y-43759D01*
G54D34*
X35452Y-27007D02*
X34625Y-27007D01*
X34480Y-29421D02*
X35433Y-29421D01*
X34153Y-29094D02*
X34480Y-29421D01*
X34153Y-27480D02*
X34153Y-29094D01*
X34625Y-27007D02*
X34153Y-27480D01*
X20106Y-47956D02*
X20106Y-50874D01*
X20578Y-51346D02*
X20578Y-52165D01*
X20106Y-50874D02*
X20578Y-51346D01*
X12050Y-29264D02*
X12893Y-28421D01*
X12050Y-31780D02*
X12050Y-29264D01*
X12940Y-32670D02*
X12050Y-31780D01*
X12510Y-27440D02*
X12510Y-28037D01*
X12510Y-28037D02*
X12893Y-28421D01*
X34580Y-50640D02*
X35530Y-50640D01*
X35530Y-50640D02*
X35826Y-50343D01*
X33248Y-51710D02*
X33248Y-50991D01*
X33600Y-50640D02*
X34580Y-50640D01*
X33248Y-50991D02*
X33600Y-50640D01*
X29626Y-54546D02*
X31062Y-54546D01*
X26929Y-57244D02*
X29626Y-54546D01*
X26929Y-58228D02*
X26929Y-57244D01*
X26811Y-58346D02*
X26929Y-58228D01*
X34025Y-26700D02*
X34025Y-26450D01*
X34467Y-26007D02*
X35452Y-26007D01*
X34025Y-26450D02*
X34467Y-26007D01*
X33700Y-27400D02*
X33700Y-27024D01*
X33700Y-27024D02*
X34025Y-26700D01*
X12893Y-28421D02*
X13264Y-28050D01*
X13264Y-28050D02*
X14600Y-28050D01*
X14600Y-28050D02*
X15150Y-28600D01*
X14600Y-28050D02*
X15150Y-28600D01*
X15150Y-28600D02*
X15150Y-29850D01*
X15150Y-29850D02*
X16450Y-31150D01*
X16450Y-31150D02*
X19675Y-31150D01*
X19675Y-31150D02*
X20075Y-31550D01*
X16650Y-26650D02*
X16100Y-26650D01*
X14125Y-28050D02*
X13264Y-28050D01*
X15125Y-27050D02*
X14125Y-28050D01*
X15700Y-27050D02*
X15125Y-27050D01*
X16100Y-26650D02*
X15700Y-27050D01*
X27725Y-32869D02*
X28075Y-32519D01*
X27725Y-33225D02*
X27725Y-32869D01*
X27700Y-33250D02*
X27725Y-33225D01*
X28075Y-32519D02*
X30605Y-32519D01*
X30425Y-32525D02*
X30425Y-32519D01*
X29075Y-32525D02*
X30425Y-32525D01*
X28900Y-32350D02*
X29075Y-32525D01*
X28900Y-31925D02*
X28900Y-32350D01*
X25125Y-32200D02*
X25444Y-32519D01*
X25125Y-31575D02*
X25125Y-32200D01*
X25100Y-31550D02*
X25125Y-31575D01*
X30800Y-32325D02*
X33245Y-32325D01*
X33700Y-31300D02*
X33700Y-27992D01*
X33700Y-27992D02*
X33700Y-27400D01*
X33245Y-32325D02*
X33700Y-31870D01*
X33700Y-31870D02*
X33700Y-31300D01*
X33700Y-31300D02*
X33700Y-31300D01*
X29025Y-32519D02*
X30425Y-32519D01*
X29025Y-32519D02*
X28075Y-32519D01*
X28075Y-32519D02*
X27555Y-32519D01*
X26889Y-32519D02*
X25444Y-32519D01*
X27555Y-32519D02*
X26889Y-32519D01*
X30425Y-32519D02*
X30605Y-32519D01*
X30605Y-32519D02*
X30800Y-32325D01*
X20075Y-31550D02*
X20075Y-32325D01*
X24575Y-32519D02*
X22225Y-32519D01*
X25194Y-32519D02*
X24575Y-32519D01*
X21900Y-32519D02*
X22219Y-32519D01*
X22219Y-32519D02*
X22225Y-32525D01*
X22225Y-32525D02*
X22225Y-32519D01*
X20075Y-32325D02*
X20275Y-32525D01*
X20275Y-32525D02*
X21900Y-32525D01*
X21900Y-32525D02*
X21900Y-32519D01*
X22725Y-31550D02*
X22725Y-32150D01*
X24025Y-32525D02*
X24025Y-32519D01*
X23100Y-32525D02*
X24025Y-32525D01*
X22725Y-32150D02*
X23100Y-32525D01*
X24150Y-32519D02*
X25194Y-32519D01*
X24025Y-32519D02*
X24150Y-32519D01*
X12976Y-40822D02*
X12222Y-40822D01*
X12222Y-40822D02*
X12200Y-40800D01*
X32555Y-43125D02*
X32555Y-42437D01*
X31496Y-41377D02*
X30255Y-41377D01*
X32555Y-42437D02*
X31496Y-41377D01*
X33767Y-47649D02*
X33767Y-47062D01*
X33385Y-48031D02*
X33767Y-47649D01*
X32165Y-48031D02*
X33385Y-48031D01*
X32047Y-48149D02*
X32165Y-48031D01*
X33248Y-51710D02*
X33248Y-51476D01*
X35826Y-50343D02*
X35826Y-46299D01*
X33248Y-51929D02*
X33248Y-51710D01*
X31062Y-54546D02*
X33051Y-54546D01*
X33248Y-54350D02*
X33248Y-51929D01*
X33051Y-54546D02*
X33248Y-54350D01*
X14625Y-48877D02*
X14625Y-49862D01*
X16220Y-49881D02*
X16220Y-51456D01*
X25444Y-32519D02*
X25194Y-32519D01*
X23425Y-35811D02*
X23425Y-34677D01*
X23425Y-34677D02*
X24244Y-33858D01*
X32555Y-43125D02*
X35555Y-43125D01*
X16141Y-40082D02*
X17125Y-40082D01*
X12976Y-40822D02*
X12976Y-39720D01*
X13720Y-38976D02*
X15669Y-38976D01*
X12976Y-39720D02*
X13720Y-38976D01*
X15669Y-38976D02*
X16141Y-39448D01*
X16141Y-39448D02*
X16141Y-40082D01*
X12976Y-47838D02*
X12976Y-44838D01*
X12976Y-44838D02*
X12976Y-43822D01*
X12976Y-43822D02*
X12976Y-40822D01*
X17125Y-40082D02*
X17125Y-38917D01*
X17125Y-38917D02*
X17637Y-38405D01*
X17637Y-38405D02*
X18622Y-38405D01*
X18622Y-38405D02*
X19216Y-37811D01*
X19216Y-37811D02*
X19925Y-37811D01*
X24106Y-42519D02*
X18405Y-42519D01*
X18405Y-42519D02*
X17125Y-41240D01*
X17125Y-41240D02*
X17125Y-40082D01*
X24106Y-43700D02*
X24106Y-42519D01*
X24106Y-44956D02*
X24106Y-43700D01*
X33767Y-47062D02*
X34649Y-47062D01*
X35216Y-46496D02*
X35826Y-46496D01*
X34649Y-47062D02*
X35216Y-46496D01*
X35826Y-46299D02*
X35826Y-46496D01*
X18578Y-52165D02*
X17334Y-52165D01*
X17334Y-52165D02*
X17283Y-52114D01*
X17283Y-52114D02*
X16877Y-52114D01*
X16877Y-52114D02*
X16181Y-51417D01*
X16181Y-51417D02*
X14625Y-49862D01*
X14625Y-49862D02*
X12976Y-48212D01*
X12976Y-48212D02*
X12976Y-47838D01*
X35555Y-43125D02*
X35555Y-43744D01*
X35555Y-43744D02*
X35826Y-44015D01*
X35826Y-44015D02*
X35826Y-46299D01*
X25106Y-47956D02*
X25106Y-49212D01*
X27590Y-39370D02*
X27590Y-37984D01*
X27417Y-37811D02*
X26925Y-37811D01*
X27590Y-37984D02*
X27417Y-37811D01*
X29724Y-40082D02*
X30708Y-40082D01*
X27145Y-40098D02*
X27287Y-40098D01*
X27287Y-40098D02*
X27590Y-39795D01*
X27590Y-39795D02*
X27590Y-39370D01*
X24106Y-42519D02*
X24106Y-40480D01*
X24106Y-40480D02*
X24488Y-40098D01*
X24488Y-40098D02*
X27145Y-40098D01*
X29708Y-40098D02*
X29724Y-40082D01*
X27145Y-40098D02*
X29708Y-40098D01*
X30884Y-51377D02*
X30884Y-51632D01*
X30884Y-51632D02*
X31062Y-51811D01*
X31062Y-51811D02*
X31062Y-52396D01*
X31062Y-54546D02*
X31062Y-52396D01*
G54D35*
X19216Y-37811D02*
X19925Y-37811D01*
X18622Y-38405D02*
X19216Y-37811D01*
X17637Y-38405D02*
X18622Y-38405D01*
X17125Y-38917D02*
X17637Y-38405D01*
X27590Y-39370D02*
X27590Y-39795D01*
X17125Y-40082D02*
X17125Y-41240D01*
X17125Y-41240D02*
X18405Y-42519D01*
X15669Y-38976D02*
X16141Y-39448D01*
X16141Y-39448D02*
X16141Y-40082D01*
X12976Y-40822D02*
X12976Y-43822D01*
X12976Y-44838D02*
X12976Y-43822D01*
X31062Y-52396D02*
X31062Y-51811D01*
X31062Y-51811D02*
X30884Y-51632D01*
X17334Y-52165D02*
X17283Y-52114D01*
G54D34*
X35555Y-41125D02*
X32555Y-41125D01*
X26181Y-40822D02*
X32251Y-40822D01*
X32251Y-40822D02*
X32555Y-41125D01*
X27165Y-42019D02*
X27165Y-41807D01*
X27165Y-41807D02*
X26181Y-40822D01*
G54D35*
X32251Y-40822D02*
X32555Y-41125D01*
X27165Y-41807D02*
X26181Y-40822D01*
G54D34*
X34750Y-22525D02*
X34750Y-22975D01*
X34750Y-22975D02*
X34025Y-23700D01*
X12893Y-31421D02*
X12893Y-29783D01*
X13755Y-28921D02*
X14074Y-28921D01*
X12893Y-29783D02*
X13755Y-28921D01*
X31634Y-51377D02*
X31634Y-52324D01*
X31634Y-52324D02*
X31562Y-52396D01*
X26575Y-28850D02*
X26590Y-28850D01*
X31260Y-26000D02*
X32475Y-24785D01*
X31020Y-26000D02*
X31260Y-26000D01*
X30740Y-26280D02*
X31020Y-26000D01*
X30740Y-26600D02*
X30740Y-26280D01*
X30740Y-27360D02*
X30740Y-26600D01*
X29890Y-28210D02*
X30740Y-27360D01*
X27230Y-28210D02*
X29890Y-28210D01*
X26590Y-28850D02*
X27230Y-28210D01*
X32475Y-24785D02*
X32475Y-23650D01*
X32475Y-24785D02*
X32475Y-23650D01*
X26575Y-31200D02*
X26575Y-28850D01*
X26225Y-31550D02*
X26575Y-31200D01*
X16350Y-27850D02*
X15650Y-27850D01*
X16875Y-28375D02*
X16350Y-27850D01*
X30800Y-29325D02*
X31879Y-29325D01*
X31879Y-29325D02*
X31889Y-29314D01*
X34251Y-39600D02*
X34251Y-38568D01*
X34251Y-38568D02*
X34260Y-38560D01*
X34251Y-40374D02*
X34251Y-39600D01*
X34251Y-39600D02*
X34251Y-38992D01*
X30984Y-50039D02*
X30984Y-49685D01*
X31653Y-49015D02*
X32480Y-49015D01*
X30984Y-49685D02*
X31653Y-49015D01*
X29984Y-50039D02*
X30984Y-50039D01*
X30062Y-51023D02*
X30062Y-50118D01*
X30062Y-50118D02*
X29984Y-50039D01*
X34251Y-38992D02*
X34251Y-40374D01*
X30062Y-51023D02*
X30062Y-50940D01*
X32062Y-50842D02*
X32062Y-52396D01*
X31988Y-50767D02*
X32062Y-50842D01*
X30236Y-50767D02*
X31988Y-50767D01*
X30062Y-50940D02*
X30236Y-50767D01*
X30062Y-52396D02*
X30062Y-51023D01*
G54D35*
X30062Y-51417D02*
X30062Y-52396D01*
G54D34*
X16216Y-41535D02*
X15688Y-41535D01*
X15688Y-41535D02*
X14976Y-40822D01*
X14976Y-43822D02*
X14976Y-40822D01*
G54D35*
X14976Y-40822D02*
X14976Y-39779D01*
X14976Y-39779D02*
X14960Y-39763D01*
X14976Y-40822D02*
X14976Y-41275D01*
X14976Y-41275D02*
X14976Y-43822D01*
G54D34*
X22106Y-47956D02*
X22106Y-49665D01*
X22106Y-49665D02*
X22244Y-49803D01*
G54D35*
X22106Y-49665D02*
X22244Y-49803D01*
G54D34*
X21106Y-47956D02*
X21106Y-49759D01*
X21106Y-49759D02*
X21062Y-49803D01*
G54D35*
X21106Y-49759D02*
X21062Y-49803D01*
G54D34*
X23925Y-53098D02*
X23925Y-51950D01*
X23937Y-53110D02*
X23925Y-53098D01*
X13750Y-24380D02*
X12570Y-24380D01*
X12570Y-24380D02*
X12510Y-24440D01*
X25106Y-44956D02*
X25106Y-43700D01*
G54D10*
G36*
X12576Y-47313D02*
X12421Y-47467D01*
X12322Y-47707D01*
X12321Y-47957D01*
X12014Y-47649D01*
X12014Y-41345D01*
X12085Y-41374D01*
X12313Y-41375D01*
X12518Y-41290D01*
X12576Y-41348D01*
X12576Y-43297D01*
X12421Y-43451D01*
X12322Y-43692D01*
X12321Y-43952D01*
X12421Y-44192D01*
X12558Y-44330D01*
X12421Y-44467D01*
X12322Y-44707D01*
X12321Y-44968D01*
X12421Y-45208D01*
X12576Y-45364D01*
X12576Y-47313D01*
X12576Y-47313D01*
G37*
G54D37*
X12576Y-47313D02*
X12421Y-47467D01*
X12322Y-47707D01*
X12321Y-47957D01*
X12014Y-47649D01*
X12014Y-41345D01*
X12085Y-41374D01*
X12313Y-41375D01*
X12518Y-41290D01*
X12576Y-41348D01*
X12576Y-43297D01*
X12421Y-43451D01*
X12322Y-43692D01*
X12321Y-43952D01*
X12421Y-44192D01*
X12558Y-44330D01*
X12421Y-44467D01*
X12322Y-44707D01*
X12321Y-44968D01*
X12421Y-45208D01*
X12576Y-45364D01*
X12576Y-47313D01*
G54D10*
G36*
X13044Y-29066D02*
X12610Y-29500D01*
X12524Y-29630D01*
X12519Y-29655D01*
X12493Y-29783D01*
X12493Y-30896D01*
X12450Y-30939D01*
X12450Y-29430D01*
X12805Y-29075D01*
X13023Y-29075D01*
X13044Y-29066D01*
X13044Y-29066D01*
G37*
G54D37*
X13044Y-29066D02*
X12610Y-29500D01*
X12524Y-29630D01*
X12519Y-29655D01*
X12493Y-29783D01*
X12493Y-30896D01*
X12450Y-30939D01*
X12450Y-29430D01*
X12805Y-29075D01*
X13023Y-29075D01*
X13044Y-29066D01*
G54D10*
G36*
X13624Y-31396D02*
X13548Y-31427D01*
X13548Y-31319D01*
X13624Y-31396D01*
X13624Y-31396D01*
G37*
G54D37*
X13624Y-31396D02*
X13548Y-31427D01*
X13548Y-31319D01*
X13624Y-31396D01*
G54D10*
G36*
X13649Y-30421D02*
X13520Y-30550D01*
X13420Y-30790D01*
X13420Y-31022D01*
X13293Y-30895D01*
X13293Y-29949D01*
X13420Y-29822D01*
X13420Y-30050D01*
X13519Y-30291D01*
X13649Y-30421D01*
X13649Y-30421D01*
G37*
G54D37*
X13649Y-30421D02*
X13520Y-30550D01*
X13420Y-30790D01*
X13420Y-31022D01*
X13293Y-30895D01*
X13293Y-29949D01*
X13420Y-29822D01*
X13420Y-30050D01*
X13519Y-30291D01*
X13649Y-30421D01*
G54D10*
G36*
X14576Y-47313D02*
X14421Y-47467D01*
X14322Y-47707D01*
X14321Y-47968D01*
X14421Y-48208D01*
X14423Y-48210D01*
X14233Y-48289D01*
X14038Y-48484D01*
X13972Y-48642D01*
X13533Y-48203D01*
X13630Y-47969D01*
X13630Y-47708D01*
X13531Y-47468D01*
X13376Y-47313D01*
X13376Y-45363D01*
X13530Y-45209D01*
X13630Y-44969D01*
X13630Y-44708D01*
X13531Y-44468D01*
X13393Y-44330D01*
X13530Y-44193D01*
X13630Y-43953D01*
X13630Y-43693D01*
X13531Y-43452D01*
X13376Y-43297D01*
X13376Y-41348D01*
X13530Y-41193D01*
X13630Y-40953D01*
X13630Y-40693D01*
X13531Y-40452D01*
X13376Y-40297D01*
X13376Y-39886D01*
X13886Y-39376D01*
X14370Y-39376D01*
X14267Y-39625D01*
X14266Y-39901D01*
X14372Y-40156D01*
X14544Y-40329D01*
X14421Y-40451D01*
X14322Y-40692D01*
X14321Y-40952D01*
X14421Y-41192D01*
X14576Y-41348D01*
X14576Y-43297D01*
X14421Y-43451D01*
X14322Y-43692D01*
X14321Y-43952D01*
X14421Y-44192D01*
X14558Y-44330D01*
X14421Y-44467D01*
X14322Y-44707D01*
X14321Y-44968D01*
X14421Y-45208D01*
X14576Y-45364D01*
X14576Y-47313D01*
X14576Y-47313D01*
G37*
G54D37*
X14576Y-47313D02*
X14421Y-47467D01*
X14322Y-47707D01*
X14321Y-47968D01*
X14421Y-48208D01*
X14423Y-48210D01*
X14233Y-48289D01*
X14038Y-48484D01*
X13972Y-48642D01*
X13533Y-48203D01*
X13630Y-47969D01*
X13630Y-47708D01*
X13531Y-47468D01*
X13376Y-47313D01*
X13376Y-45363D01*
X13530Y-45209D01*
X13630Y-44969D01*
X13630Y-44708D01*
X13531Y-44468D01*
X13393Y-44330D01*
X13530Y-44193D01*
X13630Y-43953D01*
X13630Y-43693D01*
X13531Y-43452D01*
X13376Y-43297D01*
X13376Y-41348D01*
X13530Y-41193D01*
X13630Y-40953D01*
X13630Y-40693D01*
X13531Y-40452D01*
X13376Y-40297D01*
X13376Y-39886D01*
X13886Y-39376D01*
X14370Y-39376D01*
X14267Y-39625D01*
X14266Y-39901D01*
X14372Y-40156D01*
X14544Y-40329D01*
X14421Y-40451D01*
X14322Y-40692D01*
X14321Y-40952D01*
X14421Y-41192D01*
X14576Y-41348D01*
X14576Y-43297D01*
X14421Y-43451D01*
X14322Y-43692D01*
X14321Y-43952D01*
X14421Y-44192D01*
X14558Y-44330D01*
X14421Y-44467D01*
X14322Y-44707D01*
X14321Y-44968D01*
X14421Y-45208D01*
X14576Y-45364D01*
X14576Y-47313D01*
G54D10*
G36*
X14995Y-27744D02*
X14995Y-27879D01*
X14928Y-27812D01*
X14995Y-27744D01*
X14995Y-27744D01*
G37*
G54D37*
X14995Y-27744D02*
X14995Y-27879D01*
X14928Y-27812D01*
X14995Y-27744D01*
G54D10*
G36*
X15073Y-31486D02*
X14357Y-32203D01*
X14424Y-32039D01*
X14425Y-31882D01*
X14425Y-31882D01*
X14444Y-31853D01*
X14444Y-31853D01*
X14444Y-31853D01*
X14474Y-31700D01*
X14474Y-31700D01*
X14474Y-31446D01*
X14600Y-31321D01*
X14954Y-31321D01*
X14987Y-31400D01*
X15073Y-31486D01*
X15073Y-31486D01*
G37*
G54D37*
X15073Y-31486D02*
X14357Y-32203D01*
X14424Y-32039D01*
X14425Y-31882D01*
X14425Y-31882D01*
X14444Y-31853D01*
X14444Y-31853D01*
X14444Y-31853D01*
X14474Y-31700D01*
X14474Y-31700D01*
X14474Y-31446D01*
X14600Y-31321D01*
X14954Y-31321D01*
X14987Y-31400D01*
X15073Y-31486D01*
G54D10*
G36*
X15255Y-30521D02*
X14600Y-30521D01*
X14500Y-30421D01*
X14629Y-30292D01*
X14729Y-30051D01*
X14729Y-29791D01*
X14629Y-29551D01*
X14603Y-29525D01*
X14683Y-29445D01*
X14729Y-29335D01*
X14729Y-29216D01*
X14729Y-28744D01*
X14750Y-28765D01*
X14750Y-29850D01*
X14775Y-29977D01*
X14780Y-30003D01*
X14867Y-30132D01*
X15255Y-30521D01*
X15255Y-30521D01*
G37*
G54D37*
X15255Y-30521D02*
X14600Y-30521D01*
X14500Y-30421D01*
X14629Y-30292D01*
X14729Y-30051D01*
X14729Y-29791D01*
X14629Y-29551D01*
X14603Y-29525D01*
X14683Y-29445D01*
X14729Y-29335D01*
X14729Y-29216D01*
X14729Y-28744D01*
X14750Y-28765D01*
X14750Y-29850D01*
X14775Y-29977D01*
X14780Y-30003D01*
X14867Y-30132D01*
X15255Y-30521D01*
G54D10*
G36*
X15713Y-39585D02*
X15654Y-39644D01*
X15654Y-39626D01*
X15584Y-39457D01*
X15713Y-39585D01*
X15713Y-39585D01*
G37*
G54D37*
X15713Y-39585D02*
X15654Y-39644D01*
X15654Y-39626D01*
X15584Y-39457D01*
X15713Y-39585D01*
G54D10*
G36*
X15842Y-26350D02*
X15817Y-26367D01*
X15534Y-26650D01*
X15349Y-26650D01*
X15350Y-26565D01*
X15565Y-26350D01*
X15842Y-26350D01*
X15842Y-26350D01*
G37*
G54D37*
X15842Y-26350D02*
X15817Y-26367D01*
X15534Y-26650D01*
X15349Y-26650D01*
X15350Y-26565D01*
X15565Y-26350D01*
X15842Y-26350D01*
G54D10*
G36*
X15924Y-32688D02*
X15902Y-32688D01*
X15913Y-32676D01*
X15924Y-32688D01*
X15924Y-32688D01*
G37*
G54D37*
X15924Y-32688D02*
X15902Y-32688D01*
X15913Y-32676D01*
X15924Y-32688D01*
G54D10*
G36*
X16027Y-31292D02*
X16007Y-31292D01*
X16013Y-31278D01*
X16027Y-31292D01*
X16027Y-31292D01*
G37*
G54D37*
X16027Y-31292D02*
X16007Y-31292D01*
X16013Y-31278D01*
X16027Y-31292D01*
G54D10*
G36*
X16424Y-28737D02*
X16287Y-28873D01*
X16200Y-29085D01*
X16199Y-29313D01*
X16287Y-29525D01*
X16375Y-29613D01*
X16375Y-30186D01*
X16287Y-30273D01*
X16244Y-30378D01*
X15550Y-29684D01*
X15550Y-28600D01*
X15530Y-28504D01*
X15779Y-28504D01*
X16020Y-28405D01*
X16175Y-28250D01*
X16184Y-28250D01*
X16300Y-28365D01*
X16299Y-28488D01*
X16387Y-28700D01*
X16424Y-28737D01*
X16424Y-28737D01*
G37*
G54D37*
X16424Y-28737D02*
X16287Y-28873D01*
X16200Y-29085D01*
X16199Y-29313D01*
X16287Y-29525D01*
X16375Y-29613D01*
X16375Y-30186D01*
X16287Y-30273D01*
X16244Y-30378D01*
X15550Y-29684D01*
X15550Y-28600D01*
X15530Y-28504D01*
X15779Y-28504D01*
X16020Y-28405D01*
X16175Y-28250D01*
X16184Y-28250D01*
X16300Y-28365D01*
X16299Y-28488D01*
X16387Y-28700D01*
X16424Y-28737D01*
G54D10*
G36*
X16725Y-41119D02*
X16587Y-40981D01*
X16347Y-40881D01*
X16086Y-40880D01*
X15846Y-40980D01*
X15772Y-41053D01*
X15630Y-40911D01*
X15630Y-40693D01*
X15531Y-40452D01*
X15392Y-40313D01*
X15489Y-40216D01*
X15586Y-40452D01*
X15770Y-40637D01*
X16011Y-40736D01*
X16271Y-40737D01*
X16511Y-40637D01*
X16633Y-40515D01*
X16725Y-40608D01*
X16725Y-41119D01*
X16725Y-41119D01*
G37*
G54D37*
X16725Y-41119D02*
X16587Y-40981D01*
X16347Y-40881D01*
X16086Y-40880D01*
X15846Y-40980D01*
X15772Y-41053D01*
X15630Y-40911D01*
X15630Y-40693D01*
X15531Y-40452D01*
X15392Y-40313D01*
X15489Y-40216D01*
X15586Y-40452D01*
X15770Y-40637D01*
X16011Y-40736D01*
X16271Y-40737D01*
X16511Y-40637D01*
X16633Y-40515D01*
X16725Y-40608D01*
X16725Y-41119D01*
G54D10*
G36*
X17218Y-27044D02*
X17174Y-27062D01*
X17012Y-27223D01*
X16925Y-27435D01*
X16924Y-27663D01*
X16981Y-27800D01*
X16865Y-27799D01*
X16632Y-27567D01*
X16503Y-27480D01*
X16477Y-27475D01*
X16350Y-27450D01*
X16175Y-27450D01*
X16021Y-27295D01*
X16020Y-27295D01*
X16209Y-27106D01*
X16290Y-27187D01*
X16523Y-27284D01*
X16775Y-27284D01*
X17009Y-27188D01*
X17186Y-27011D01*
X17218Y-27044D01*
X17218Y-27044D01*
G37*
G54D37*
X17218Y-27044D02*
X17174Y-27062D01*
X17012Y-27223D01*
X16925Y-27435D01*
X16924Y-27663D01*
X16981Y-27800D01*
X16865Y-27799D01*
X16632Y-27567D01*
X16503Y-27480D01*
X16477Y-27475D01*
X16350Y-27450D01*
X16175Y-27450D01*
X16021Y-27295D01*
X16020Y-27295D01*
X16209Y-27106D01*
X16290Y-27187D01*
X16523Y-27284D01*
X16775Y-27284D01*
X17009Y-27188D01*
X17186Y-27011D01*
X17218Y-27044D01*
G54D10*
G36*
X17272Y-32688D02*
X16731Y-32688D01*
X16634Y-32728D01*
X16787Y-32576D01*
X16874Y-32364D01*
X16874Y-32290D01*
X17272Y-32688D01*
X17272Y-32688D01*
G37*
G54D37*
X17272Y-32688D02*
X16731Y-32688D01*
X16634Y-32728D01*
X16787Y-32576D01*
X16874Y-32364D01*
X16874Y-32290D01*
X17272Y-32688D01*
G54D10*
G36*
X17774Y-36711D02*
X17760Y-36724D01*
X17760Y-36711D01*
X17774Y-36711D01*
X17774Y-36711D01*
G37*
G54D37*
X17774Y-36711D02*
X17760Y-36724D01*
X17760Y-36711D01*
X17774Y-36711D01*
G54D10*
G36*
X17878Y-33458D02*
X17760Y-33458D01*
X17760Y-33176D01*
X17850Y-33265D01*
X17849Y-33388D01*
X17878Y-33458D01*
X17878Y-33458D01*
G37*
G54D37*
X17878Y-33458D02*
X17760Y-33458D01*
X17760Y-33176D01*
X17850Y-33265D01*
X17849Y-33388D01*
X17878Y-33458D01*
G54D10*
G36*
X18157Y-51514D02*
X18054Y-51556D01*
X17970Y-51640D01*
X17924Y-51751D01*
X17924Y-51765D01*
X17826Y-51765D01*
X17821Y-51755D01*
X17680Y-51614D01*
X17781Y-51514D01*
X18157Y-51514D01*
X18157Y-51514D01*
G37*
G54D37*
X18157Y-51514D02*
X18054Y-51556D01*
X17970Y-51640D01*
X17924Y-51751D01*
X17924Y-51765D01*
X17826Y-51765D01*
X17821Y-51755D01*
X17680Y-51614D01*
X17781Y-51514D01*
X18157Y-51514D01*
G54D10*
G36*
X18206Y-38805D02*
X18062Y-38948D01*
X17975Y-39160D01*
X17974Y-39324D01*
X17961Y-39324D01*
X17749Y-39412D01*
X17587Y-39573D01*
X17574Y-39605D01*
X17525Y-39557D01*
X17525Y-39083D01*
X17803Y-38805D01*
X18206Y-38805D01*
X18206Y-38805D01*
G37*
G54D37*
X18206Y-38805D02*
X18062Y-38948D01*
X17975Y-39160D01*
X17974Y-39324D01*
X17961Y-39324D01*
X17749Y-39412D01*
X17587Y-39573D01*
X17574Y-39605D01*
X17525Y-39557D01*
X17525Y-39083D01*
X17803Y-38805D01*
X18206Y-38805D01*
G54D10*
G36*
X18375Y-50458D02*
X18221Y-50613D01*
X18179Y-50714D01*
X17780Y-50714D01*
X17643Y-50576D01*
X17410Y-50479D01*
X17157Y-50479D01*
X16924Y-50575D01*
X16745Y-50754D01*
X16648Y-50987D01*
X16648Y-51239D01*
X16704Y-51375D01*
X16620Y-51291D01*
X16620Y-50462D01*
X16808Y-50275D01*
X16914Y-50020D01*
X16914Y-49744D01*
X16808Y-49489D01*
X16613Y-49294D01*
X16359Y-49188D01*
X16083Y-49188D01*
X15828Y-49293D01*
X15632Y-49488D01*
X15526Y-49743D01*
X15526Y-50019D01*
X15632Y-50274D01*
X15820Y-50463D01*
X15820Y-50491D01*
X15025Y-49696D01*
X15025Y-49458D01*
X15213Y-49271D01*
X15319Y-49016D01*
X15319Y-48740D01*
X15214Y-48485D01*
X15188Y-48459D01*
X15346Y-48393D01*
X15383Y-48356D01*
X17496Y-48356D01*
X17496Y-48466D01*
X17541Y-48576D01*
X17626Y-48660D01*
X17706Y-48694D01*
X17706Y-49326D01*
X17731Y-49454D01*
X17736Y-49479D01*
X17823Y-49609D01*
X18375Y-50161D01*
X18375Y-50458D01*
X18375Y-50458D01*
G37*
G54D37*
X18375Y-50458D02*
X18221Y-50613D01*
X18179Y-50714D01*
X17780Y-50714D01*
X17643Y-50576D01*
X17410Y-50479D01*
X17157Y-50479D01*
X16924Y-50575D01*
X16745Y-50754D01*
X16648Y-50987D01*
X16648Y-51239D01*
X16704Y-51375D01*
X16620Y-51291D01*
X16620Y-50462D01*
X16808Y-50275D01*
X16914Y-50020D01*
X16914Y-49744D01*
X16808Y-49489D01*
X16613Y-49294D01*
X16359Y-49188D01*
X16083Y-49188D01*
X15828Y-49293D01*
X15632Y-49488D01*
X15526Y-49743D01*
X15526Y-50019D01*
X15632Y-50274D01*
X15820Y-50463D01*
X15820Y-50491D01*
X15025Y-49696D01*
X15025Y-49458D01*
X15213Y-49271D01*
X15319Y-49016D01*
X15319Y-48740D01*
X15214Y-48485D01*
X15188Y-48459D01*
X15346Y-48393D01*
X15383Y-48356D01*
X17496Y-48356D01*
X17496Y-48466D01*
X17541Y-48576D01*
X17626Y-48660D01*
X17706Y-48694D01*
X17706Y-49326D01*
X17731Y-49454D01*
X17736Y-49479D01*
X17823Y-49609D01*
X18375Y-50161D01*
X18375Y-50458D01*
G54D10*
G36*
X18496Y-37965D02*
X18456Y-38005D01*
X18178Y-38005D01*
X18218Y-37965D01*
X18496Y-37965D01*
X18496Y-37965D01*
G37*
G54D37*
X18496Y-37965D02*
X18456Y-38005D01*
X18178Y-38005D01*
X18218Y-37965D01*
X18496Y-37965D01*
G54D10*
G36*
X18706Y-44349D02*
X18674Y-44370D01*
X18606Y-44473D01*
X18537Y-44370D01*
X18506Y-44349D01*
X18506Y-44344D01*
X18697Y-44153D01*
X18705Y-44135D01*
X18706Y-44135D01*
X18706Y-44349D01*
X18706Y-44349D01*
G37*
G54D37*
X18706Y-44349D02*
X18674Y-44370D01*
X18606Y-44473D01*
X18537Y-44370D01*
X18506Y-44349D01*
X18506Y-44344D01*
X18697Y-44153D01*
X18705Y-44135D01*
X18706Y-44135D01*
X18706Y-44349D01*
G54D10*
G36*
X18706Y-49361D02*
X18506Y-49161D01*
X18506Y-48694D01*
X18586Y-48661D01*
X18670Y-48576D01*
X18682Y-48547D01*
X18706Y-48563D01*
X18706Y-49361D01*
X18706Y-49361D01*
G37*
G54D37*
X18706Y-49361D02*
X18506Y-49161D01*
X18506Y-48694D01*
X18586Y-48661D01*
X18670Y-48576D01*
X18682Y-48547D01*
X18706Y-48563D01*
X18706Y-49361D01*
G54D10*
G36*
X18913Y-42119D02*
X18571Y-42119D01*
X17559Y-41108D01*
X17660Y-41149D01*
X17888Y-41150D01*
X18100Y-41062D01*
X18163Y-41000D01*
X18484Y-41000D01*
X18658Y-41173D01*
X18562Y-41404D01*
X18562Y-41665D01*
X18661Y-41905D01*
X18845Y-42089D01*
X18912Y-42117D01*
X18913Y-42119D01*
X18913Y-42119D01*
G37*
G54D37*
X18913Y-42119D02*
X18571Y-42119D01*
X17559Y-41108D01*
X17660Y-41149D01*
X17888Y-41150D01*
X18100Y-41062D01*
X18163Y-41000D01*
X18484Y-41000D01*
X18658Y-41173D01*
X18562Y-41404D01*
X18562Y-41665D01*
X18661Y-41905D01*
X18845Y-42089D01*
X18912Y-42117D01*
X18913Y-42119D01*
G54D10*
G36*
X19178Y-50461D02*
X19175Y-50458D01*
X19175Y-50292D01*
X19178Y-50295D01*
X19178Y-50461D01*
X19178Y-50461D01*
G37*
G54D37*
X19178Y-50461D02*
X19175Y-50458D01*
X19175Y-50292D01*
X19178Y-50295D01*
X19178Y-50461D01*
G54D10*
G36*
X19178Y-51632D02*
X19103Y-51556D01*
X19145Y-51539D01*
X19178Y-51506D01*
X19178Y-51632D01*
X19178Y-51632D01*
G37*
G54D37*
X19178Y-51632D02*
X19103Y-51556D01*
X19145Y-51539D01*
X19178Y-51506D01*
X19178Y-51632D01*
G54D10*
G36*
X19706Y-44349D02*
X19674Y-44370D01*
X19606Y-44473D01*
X19547Y-44385D01*
X19683Y-44328D01*
X19706Y-44306D01*
X19706Y-44349D01*
X19706Y-44349D01*
G37*
G54D37*
X19706Y-44349D02*
X19674Y-44370D01*
X19606Y-44473D01*
X19547Y-44385D01*
X19683Y-44328D01*
X19706Y-44306D01*
X19706Y-44349D01*
G54D10*
G36*
X19706Y-49691D02*
X19506Y-49491D01*
X19506Y-48563D01*
X19537Y-48542D01*
X19606Y-48439D01*
X19674Y-48542D01*
X19706Y-48563D01*
X19706Y-49691D01*
X19706Y-49691D01*
G37*
G54D37*
X19706Y-49691D02*
X19506Y-49491D01*
X19506Y-48563D01*
X19537Y-48542D01*
X19606Y-48439D01*
X19674Y-48542D01*
X19706Y-48563D01*
X19706Y-49691D01*
G54D10*
G36*
X19975Y-40559D02*
X19090Y-39675D01*
X19159Y-39675D01*
X19975Y-40490D01*
X19975Y-40559D01*
X19975Y-40559D01*
G37*
G54D37*
X19975Y-40559D02*
X19090Y-39675D01*
X19159Y-39675D01*
X19975Y-40490D01*
X19975Y-40559D01*
G54D10*
G36*
X20103Y-52615D02*
X20049Y-52637D01*
X19887Y-52798D01*
X19800Y-53010D01*
X19799Y-53238D01*
X19849Y-53359D01*
X17724Y-53359D01*
X17083Y-52718D01*
X17156Y-52748D01*
X17409Y-52748D01*
X17642Y-52652D01*
X17729Y-52565D01*
X17924Y-52565D01*
X17924Y-52579D01*
X17969Y-52689D01*
X18054Y-52773D01*
X18164Y-52819D01*
X18283Y-52819D01*
X18992Y-52819D01*
X19102Y-52774D01*
X19182Y-52694D01*
X19207Y-52719D01*
X19448Y-52819D01*
X19708Y-52819D01*
X19948Y-52720D01*
X20078Y-52590D01*
X20103Y-52615D01*
X20103Y-52615D01*
G37*
G54D37*
X20103Y-52615D02*
X20049Y-52637D01*
X19887Y-52798D01*
X19800Y-53010D01*
X19799Y-53238D01*
X19849Y-53359D01*
X17724Y-53359D01*
X17083Y-52718D01*
X17156Y-52748D01*
X17409Y-52748D01*
X17642Y-52652D01*
X17729Y-52565D01*
X17924Y-52565D01*
X17924Y-52579D01*
X17969Y-52689D01*
X18054Y-52773D01*
X18164Y-52819D01*
X18283Y-52819D01*
X18992Y-52819D01*
X19102Y-52774D01*
X19182Y-52694D01*
X19207Y-52719D01*
X19448Y-52819D01*
X19708Y-52819D01*
X19948Y-52720D01*
X20078Y-52590D01*
X20103Y-52615D01*
G54D10*
G36*
X20109Y-36430D02*
X19271Y-36430D01*
X19118Y-36461D01*
X19075Y-36489D01*
X18988Y-36547D01*
X18866Y-36670D01*
X18961Y-36441D01*
X18961Y-36222D01*
X18972Y-36211D01*
X19844Y-36211D01*
X20031Y-36398D01*
X20109Y-36430D01*
X20109Y-36430D01*
G37*
G54D37*
X20109Y-36430D02*
X19271Y-36430D01*
X19118Y-36461D01*
X19075Y-36489D01*
X18988Y-36547D01*
X18866Y-36670D01*
X18961Y-36441D01*
X18961Y-36222D01*
X18972Y-36211D01*
X19844Y-36211D01*
X20031Y-36398D01*
X20109Y-36430D01*
G54D10*
G36*
X20178Y-51640D02*
X20078Y-51739D01*
X19978Y-51639D01*
X19978Y-51312D01*
X20178Y-51512D01*
X20178Y-51640D01*
X20178Y-51640D01*
G37*
G54D37*
X20178Y-51640D02*
X20078Y-51739D01*
X19978Y-51639D01*
X19978Y-51312D01*
X20178Y-51512D01*
X20178Y-51640D01*
G54D10*
G36*
X20355Y-32925D02*
X20292Y-32967D01*
X20055Y-33203D01*
X19830Y-33203D01*
X19720Y-33249D01*
X19635Y-33333D01*
X19589Y-33444D01*
X19589Y-33458D01*
X18971Y-33458D01*
X18999Y-33389D01*
X19000Y-33161D01*
X18912Y-32949D01*
X18751Y-32787D01*
X18539Y-32700D01*
X18415Y-32699D01*
X17265Y-31550D01*
X19499Y-31550D01*
X19499Y-31663D01*
X19587Y-31875D01*
X19675Y-31963D01*
X19675Y-32325D01*
X19700Y-32452D01*
X19705Y-32478D01*
X19792Y-32607D01*
X19992Y-32807D01*
X19992Y-32807D01*
X20078Y-32865D01*
X20121Y-32894D01*
X20121Y-32894D01*
X20275Y-32925D01*
X20355Y-32925D01*
X20355Y-32925D01*
G37*
G54D37*
X20355Y-32925D02*
X20292Y-32967D01*
X20055Y-33203D01*
X19830Y-33203D01*
X19720Y-33249D01*
X19635Y-33333D01*
X19589Y-33444D01*
X19589Y-33458D01*
X18971Y-33458D01*
X18999Y-33389D01*
X19000Y-33161D01*
X18912Y-32949D01*
X18751Y-32787D01*
X18539Y-32700D01*
X18415Y-32699D01*
X17265Y-31550D01*
X19499Y-31550D01*
X19499Y-31663D01*
X19587Y-31875D01*
X19675Y-31963D01*
X19675Y-32325D01*
X19700Y-32452D01*
X19705Y-32478D01*
X19792Y-32607D01*
X19992Y-32807D01*
X19992Y-32807D01*
X20078Y-32865D01*
X20121Y-32894D01*
X20121Y-32894D01*
X20275Y-32925D01*
X20355Y-32925D01*
G54D10*
G36*
X20645Y-41625D02*
X20488Y-41625D01*
X20562Y-41551D01*
X20599Y-41460D01*
X20599Y-41513D01*
X20645Y-41625D01*
X20645Y-41625D01*
G37*
G54D37*
X20645Y-41625D02*
X20488Y-41625D01*
X20562Y-41551D01*
X20599Y-41460D01*
X20599Y-41513D01*
X20645Y-41625D01*
G54D10*
G36*
X20706Y-44349D02*
X20674Y-44370D01*
X20606Y-44473D01*
X20537Y-44370D01*
X20506Y-44349D01*
X20506Y-44276D01*
X20600Y-44237D01*
X20706Y-44131D01*
X20706Y-44349D01*
X20706Y-44349D01*
G37*
G54D37*
X20706Y-44349D02*
X20674Y-44370D01*
X20606Y-44473D01*
X20537Y-44370D01*
X20506Y-44349D01*
X20506Y-44276D01*
X20600Y-44237D01*
X20706Y-44131D01*
X20706Y-44349D01*
G54D10*
G36*
X20706Y-49199D02*
X20670Y-49214D01*
X20506Y-49378D01*
X20506Y-48563D01*
X20537Y-48542D01*
X20606Y-48439D01*
X20674Y-48542D01*
X20706Y-48563D01*
X20706Y-49199D01*
X20706Y-49199D01*
G37*
G54D37*
X20706Y-49199D02*
X20670Y-49214D01*
X20506Y-49378D01*
X20506Y-48563D01*
X20537Y-48542D01*
X20606Y-48439D01*
X20674Y-48542D01*
X20706Y-48563D01*
X20706Y-49199D01*
G54D10*
G36*
X21025Y-35230D02*
X20925Y-35330D01*
X20818Y-35223D01*
X20563Y-35117D01*
X20287Y-35117D01*
X20032Y-35222D01*
X19844Y-35411D01*
X18807Y-35411D01*
X18654Y-35441D01*
X18610Y-35470D01*
X18524Y-35528D01*
X18395Y-35656D01*
X18177Y-35656D01*
X17936Y-35755D01*
X17781Y-35911D01*
X17619Y-35911D01*
X17497Y-35788D01*
X17256Y-35688D01*
X16996Y-35688D01*
X16755Y-35787D01*
X16633Y-35909D01*
X16512Y-35788D01*
X16272Y-35688D01*
X16012Y-35688D01*
X15771Y-35787D01*
X15587Y-35971D01*
X15487Y-36211D01*
X15487Y-36472D01*
X15537Y-36594D01*
X15507Y-36668D01*
X15507Y-36787D01*
X15507Y-37496D01*
X15552Y-37606D01*
X15636Y-37691D01*
X15747Y-37736D01*
X15841Y-37737D01*
X15858Y-37763D01*
X16291Y-38196D01*
X16291Y-38196D01*
X16421Y-38282D01*
X16421Y-38282D01*
X16574Y-38313D01*
X16574Y-38313D01*
X17164Y-38313D01*
X16843Y-38634D01*
X16756Y-38764D01*
X16751Y-38789D01*
X16725Y-38917D01*
X16725Y-39557D01*
X16633Y-39649D01*
X16541Y-39557D01*
X16541Y-39448D01*
X16511Y-39295D01*
X16511Y-39295D01*
X16482Y-39252D01*
X16424Y-39165D01*
X16424Y-39165D01*
X15952Y-38693D01*
X15822Y-38606D01*
X15796Y-38601D01*
X15669Y-38576D01*
X13720Y-38576D01*
X13567Y-38606D01*
X13524Y-38635D01*
X13437Y-38693D01*
X12693Y-39437D01*
X12606Y-39567D01*
X12601Y-39592D01*
X12576Y-39720D01*
X12576Y-40297D01*
X12543Y-40330D01*
X12526Y-40312D01*
X12314Y-40225D01*
X12086Y-40224D01*
X12014Y-40254D01*
X12014Y-36563D01*
X15507Y-33070D01*
X15507Y-33756D01*
X15552Y-33866D01*
X15636Y-33951D01*
X15747Y-33996D01*
X15866Y-33996D01*
X16535Y-33996D01*
X16633Y-33956D01*
X16731Y-33996D01*
X16850Y-33996D01*
X16931Y-33996D01*
X17075Y-34141D01*
X17205Y-34227D01*
X17205Y-34227D01*
X17230Y-34232D01*
X17358Y-34258D01*
X19589Y-34258D01*
X19589Y-34272D01*
X19635Y-34382D01*
X19719Y-34466D01*
X19829Y-34512D01*
X19949Y-34512D01*
X20332Y-34512D01*
X21025Y-35205D01*
X21025Y-35230D01*
X21025Y-35230D01*
G37*
G54D37*
X21025Y-35230D02*
X20925Y-35330D01*
X20818Y-35223D01*
X20563Y-35117D01*
X20287Y-35117D01*
X20032Y-35222D01*
X19844Y-35411D01*
X18807Y-35411D01*
X18654Y-35441D01*
X18610Y-35470D01*
X18524Y-35528D01*
X18395Y-35656D01*
X18177Y-35656D01*
X17936Y-35755D01*
X17781Y-35911D01*
X17619Y-35911D01*
X17497Y-35788D01*
X17256Y-35688D01*
X16996Y-35688D01*
X16755Y-35787D01*
X16633Y-35909D01*
X16512Y-35788D01*
X16272Y-35688D01*
X16012Y-35688D01*
X15771Y-35787D01*
X15587Y-35971D01*
X15487Y-36211D01*
X15487Y-36472D01*
X15537Y-36594D01*
X15507Y-36668D01*
X15507Y-36787D01*
X15507Y-37496D01*
X15552Y-37606D01*
X15636Y-37691D01*
X15747Y-37736D01*
X15841Y-37737D01*
X15858Y-37763D01*
X16291Y-38196D01*
X16291Y-38196D01*
X16421Y-38282D01*
X16421Y-38282D01*
X16574Y-38313D01*
X16574Y-38313D01*
X17164Y-38313D01*
X16843Y-38634D01*
X16756Y-38764D01*
X16751Y-38789D01*
X16725Y-38917D01*
X16725Y-39557D01*
X16633Y-39649D01*
X16541Y-39557D01*
X16541Y-39448D01*
X16511Y-39295D01*
X16511Y-39295D01*
X16482Y-39252D01*
X16424Y-39165D01*
X16424Y-39165D01*
X15952Y-38693D01*
X15822Y-38606D01*
X15796Y-38601D01*
X15669Y-38576D01*
X13720Y-38576D01*
X13567Y-38606D01*
X13524Y-38635D01*
X13437Y-38693D01*
X12693Y-39437D01*
X12606Y-39567D01*
X12601Y-39592D01*
X12576Y-39720D01*
X12576Y-40297D01*
X12543Y-40330D01*
X12526Y-40312D01*
X12314Y-40225D01*
X12086Y-40224D01*
X12014Y-40254D01*
X12014Y-36563D01*
X15507Y-33070D01*
X15507Y-33756D01*
X15552Y-33866D01*
X15636Y-33951D01*
X15747Y-33996D01*
X15866Y-33996D01*
X16535Y-33996D01*
X16633Y-33956D01*
X16731Y-33996D01*
X16850Y-33996D01*
X16931Y-33996D01*
X17075Y-34141D01*
X17205Y-34227D01*
X17205Y-34227D01*
X17230Y-34232D01*
X17358Y-34258D01*
X19589Y-34258D01*
X19589Y-34272D01*
X19635Y-34382D01*
X19719Y-34466D01*
X19829Y-34512D01*
X19949Y-34512D01*
X20332Y-34512D01*
X21025Y-35205D01*
X21025Y-35230D01*
G54D10*
G36*
X21156Y-52668D02*
X21074Y-52749D01*
X20878Y-52749D01*
X20948Y-52720D01*
X21078Y-52590D01*
X21156Y-52668D01*
X21156Y-52668D01*
G37*
G54D37*
X21156Y-52668D02*
X21074Y-52749D01*
X20878Y-52749D01*
X20948Y-52720D01*
X21078Y-52590D01*
X21156Y-52668D01*
G54D10*
G36*
X21706Y-44349D02*
X21674Y-44370D01*
X21606Y-44473D01*
X21537Y-44370D01*
X21506Y-44349D01*
X21506Y-44056D01*
X21587Y-43976D01*
X21599Y-43945D01*
X21612Y-43975D01*
X21706Y-44069D01*
X21706Y-44349D01*
X21706Y-44349D01*
G37*
G54D37*
X21706Y-44349D02*
X21674Y-44370D01*
X21606Y-44473D01*
X21537Y-44370D01*
X21506Y-44349D01*
X21506Y-44056D01*
X21587Y-43976D01*
X21599Y-43945D01*
X21612Y-43975D01*
X21706Y-44069D01*
X21706Y-44349D01*
G54D10*
G36*
X21706Y-49359D02*
X21656Y-49409D01*
X21653Y-49416D01*
X21651Y-49410D01*
X21506Y-49265D01*
X21506Y-48563D01*
X21537Y-48542D01*
X21606Y-48439D01*
X21674Y-48542D01*
X21706Y-48563D01*
X21706Y-49359D01*
X21706Y-49359D01*
G37*
G54D37*
X21706Y-49359D02*
X21656Y-49409D01*
X21653Y-49416D01*
X21651Y-49410D01*
X21506Y-49265D01*
X21506Y-48563D01*
X21537Y-48542D01*
X21606Y-48439D01*
X21674Y-48542D01*
X21706Y-48563D01*
X21706Y-49359D01*
G54D10*
G36*
X21789Y-50329D02*
X21646Y-50329D01*
X21405Y-50429D01*
X21221Y-50613D01*
X21121Y-50853D01*
X21121Y-51113D01*
X21178Y-51253D01*
X21178Y-51640D01*
X21078Y-51739D01*
X20978Y-51639D01*
X20978Y-51346D01*
X20948Y-51193D01*
X20948Y-51193D01*
X20919Y-51150D01*
X20861Y-51063D01*
X20861Y-51063D01*
X20506Y-50708D01*
X20506Y-50227D01*
X20669Y-50390D01*
X20924Y-50496D01*
X21200Y-50496D01*
X21455Y-50391D01*
X21650Y-50196D01*
X21653Y-50190D01*
X21655Y-50195D01*
X21789Y-50329D01*
X21789Y-50329D01*
G37*
G54D37*
X21789Y-50329D02*
X21646Y-50329D01*
X21405Y-50429D01*
X21221Y-50613D01*
X21121Y-50853D01*
X21121Y-51113D01*
X21178Y-51253D01*
X21178Y-51640D01*
X21078Y-51739D01*
X20978Y-51639D01*
X20978Y-51346D01*
X20948Y-51193D01*
X20948Y-51193D01*
X20919Y-51150D01*
X20861Y-51063D01*
X20861Y-51063D01*
X20506Y-50708D01*
X20506Y-50227D01*
X20669Y-50390D01*
X20924Y-50496D01*
X21200Y-50496D01*
X21455Y-50391D01*
X21650Y-50196D01*
X21653Y-50190D01*
X21655Y-50195D01*
X21789Y-50329D01*
G54D10*
G36*
X22025Y-35230D02*
X21925Y-35330D01*
X21825Y-35230D01*
X21825Y-35039D01*
X21794Y-34886D01*
X21794Y-34886D01*
X21765Y-34843D01*
X21708Y-34756D01*
X21708Y-34756D01*
X20898Y-33946D01*
X20898Y-33650D01*
X21610Y-33650D01*
X21575Y-33735D01*
X21574Y-33963D01*
X21662Y-34175D01*
X21823Y-34337D01*
X22025Y-34420D01*
X22025Y-35230D01*
X22025Y-35230D01*
G37*
G54D37*
X22025Y-35230D02*
X21925Y-35330D01*
X21825Y-35230D01*
X21825Y-35039D01*
X21794Y-34886D01*
X21794Y-34886D01*
X21765Y-34843D01*
X21708Y-34756D01*
X21708Y-34756D01*
X20898Y-33946D01*
X20898Y-33650D01*
X21610Y-33650D01*
X21575Y-33735D01*
X21574Y-33963D01*
X21662Y-34175D01*
X21823Y-34337D01*
X22025Y-34420D01*
X22025Y-35230D01*
G54D10*
G36*
X22325Y-50496D02*
X22324Y-50608D01*
X22213Y-50496D01*
X22325Y-50496D01*
X22325Y-50496D01*
G37*
G54D37*
X22325Y-50496D02*
X22324Y-50608D01*
X22213Y-50496D01*
X22325Y-50496D01*
G54D10*
G36*
X22525Y-39841D02*
X21754Y-39841D01*
X21726Y-39812D01*
X21514Y-39725D01*
X21286Y-39724D01*
X21074Y-39812D01*
X20912Y-39973D01*
X20825Y-40185D01*
X20824Y-40413D01*
X20874Y-40533D01*
X20775Y-40434D01*
X20775Y-40325D01*
X20744Y-40171D01*
X20744Y-40171D01*
X20715Y-40128D01*
X20657Y-40042D01*
X20657Y-40042D01*
X19607Y-38992D01*
X19478Y-38905D01*
X19452Y-38900D01*
X19325Y-38875D01*
X18963Y-38875D01*
X18876Y-38787D01*
X18802Y-38757D01*
X18904Y-38688D01*
X19260Y-38333D01*
X19277Y-38374D01*
X19361Y-38458D01*
X19471Y-38504D01*
X19591Y-38504D01*
X20378Y-38504D01*
X20488Y-38458D01*
X20543Y-38403D01*
X20786Y-38504D01*
X21062Y-38504D01*
X21317Y-38399D01*
X21425Y-38291D01*
X21525Y-38391D01*
X21525Y-38825D01*
X21088Y-38825D01*
X21001Y-38737D01*
X20789Y-38650D01*
X20561Y-38649D01*
X20349Y-38737D01*
X20187Y-38898D01*
X20100Y-39110D01*
X20099Y-39338D01*
X20187Y-39550D01*
X20348Y-39712D01*
X20560Y-39799D01*
X20788Y-39800D01*
X21000Y-39712D01*
X21088Y-39625D01*
X21725Y-39625D01*
X21725Y-39624D01*
X21852Y-39599D01*
X21878Y-39594D01*
X21878Y-39594D01*
X22007Y-39507D01*
X22208Y-39307D01*
X22208Y-39307D01*
X22265Y-39220D01*
X22294Y-39177D01*
X22294Y-39177D01*
X22325Y-39024D01*
X22325Y-39024D01*
X22325Y-38391D01*
X22425Y-38291D01*
X22525Y-38391D01*
X22525Y-39841D01*
X22525Y-39841D01*
G37*
G54D37*
X22525Y-39841D02*
X21754Y-39841D01*
X21726Y-39812D01*
X21514Y-39725D01*
X21286Y-39724D01*
X21074Y-39812D01*
X20912Y-39973D01*
X20825Y-40185D01*
X20824Y-40413D01*
X20874Y-40533D01*
X20775Y-40434D01*
X20775Y-40325D01*
X20744Y-40171D01*
X20744Y-40171D01*
X20715Y-40128D01*
X20657Y-40042D01*
X20657Y-40042D01*
X19607Y-38992D01*
X19478Y-38905D01*
X19452Y-38900D01*
X19325Y-38875D01*
X18963Y-38875D01*
X18876Y-38787D01*
X18802Y-38757D01*
X18904Y-38688D01*
X19260Y-38333D01*
X19277Y-38374D01*
X19361Y-38458D01*
X19471Y-38504D01*
X19591Y-38504D01*
X20378Y-38504D01*
X20488Y-38458D01*
X20543Y-38403D01*
X20786Y-38504D01*
X21062Y-38504D01*
X21317Y-38399D01*
X21425Y-38291D01*
X21525Y-38391D01*
X21525Y-38825D01*
X21088Y-38825D01*
X21001Y-38737D01*
X20789Y-38650D01*
X20561Y-38649D01*
X20349Y-38737D01*
X20187Y-38898D01*
X20100Y-39110D01*
X20099Y-39338D01*
X20187Y-39550D01*
X20348Y-39712D01*
X20560Y-39799D01*
X20788Y-39800D01*
X21000Y-39712D01*
X21088Y-39625D01*
X21725Y-39625D01*
X21725Y-39624D01*
X21852Y-39599D01*
X21878Y-39594D01*
X21878Y-39594D01*
X22007Y-39507D01*
X22208Y-39307D01*
X22208Y-39307D01*
X22265Y-39220D01*
X22294Y-39177D01*
X22294Y-39177D01*
X22325Y-39024D01*
X22325Y-39024D01*
X22325Y-38391D01*
X22425Y-38291D01*
X22525Y-38391D01*
X22525Y-39841D01*
G54D10*
G36*
X22706Y-44349D02*
X22674Y-44370D01*
X22606Y-44473D01*
X22537Y-44370D01*
X22506Y-44349D01*
X22506Y-44056D01*
X22587Y-43976D01*
X22605Y-43932D01*
X22612Y-43950D01*
X22706Y-44044D01*
X22706Y-44349D01*
X22706Y-44349D01*
G37*
G54D37*
X22706Y-44349D02*
X22674Y-44370D01*
X22606Y-44473D01*
X22537Y-44370D01*
X22506Y-44349D01*
X22506Y-44056D01*
X22587Y-43976D01*
X22605Y-43932D01*
X22612Y-43950D01*
X22706Y-44044D01*
X22706Y-44349D01*
G54D10*
G36*
X22706Y-49284D02*
X22637Y-49215D01*
X22506Y-49160D01*
X22506Y-48563D01*
X22537Y-48542D01*
X22606Y-48439D01*
X22674Y-48542D01*
X22706Y-48563D01*
X22706Y-49284D01*
X22706Y-49284D01*
G37*
G54D37*
X22706Y-49284D02*
X22637Y-49215D01*
X22506Y-49160D01*
X22506Y-48563D01*
X22537Y-48542D01*
X22606Y-48439D01*
X22674Y-48542D01*
X22706Y-48563D01*
X22706Y-49284D01*
G54D10*
G36*
X23190Y-41518D02*
X23084Y-41625D01*
X21704Y-41625D01*
X21749Y-41514D01*
X21750Y-41286D01*
X21662Y-41074D01*
X21501Y-40912D01*
X21410Y-40875D01*
X21513Y-40875D01*
X21725Y-40787D01*
X21871Y-40641D01*
X22691Y-40641D01*
X22691Y-40641D01*
X22819Y-40616D01*
X22844Y-40611D01*
X22844Y-40611D01*
X22974Y-40524D01*
X23190Y-40308D01*
X23190Y-41518D01*
X23190Y-41518D01*
G37*
G54D37*
X23190Y-41518D02*
X23084Y-41625D01*
X21704Y-41625D01*
X21749Y-41514D01*
X21750Y-41286D01*
X21662Y-41074D01*
X21501Y-40912D01*
X21410Y-40875D01*
X21513Y-40875D01*
X21725Y-40787D01*
X21871Y-40641D01*
X22691Y-40641D01*
X22691Y-40641D01*
X22819Y-40616D01*
X22844Y-40611D01*
X22844Y-40611D01*
X22974Y-40524D01*
X23190Y-40308D01*
X23190Y-41518D01*
G54D10*
G36*
X23525Y-52709D02*
X23449Y-52784D01*
X23362Y-52995D01*
X23361Y-53224D01*
X23417Y-53359D01*
X21595Y-53359D01*
X21861Y-53093D01*
X21861Y-53093D01*
X21919Y-53007D01*
X21948Y-52964D01*
X21948Y-52964D01*
X21978Y-52811D01*
X21978Y-52811D01*
X21978Y-52690D01*
X22133Y-52536D01*
X22232Y-52296D01*
X22233Y-52035D01*
X22133Y-51795D01*
X21986Y-51647D01*
X21999Y-51649D01*
X22000Y-51650D01*
X23270Y-51650D01*
X23270Y-51655D01*
X23270Y-52363D01*
X23316Y-52474D01*
X23400Y-52558D01*
X23510Y-52604D01*
X23525Y-52604D01*
X23525Y-52709D01*
X23525Y-52709D01*
G37*
G54D37*
X23525Y-52709D02*
X23449Y-52784D01*
X23362Y-52995D01*
X23361Y-53224D01*
X23417Y-53359D01*
X21595Y-53359D01*
X21861Y-53093D01*
X21861Y-53093D01*
X21919Y-53007D01*
X21948Y-52964D01*
X21948Y-52964D01*
X21978Y-52811D01*
X21978Y-52811D01*
X21978Y-52690D01*
X22133Y-52536D01*
X22232Y-52296D01*
X22233Y-52035D01*
X22133Y-51795D01*
X21986Y-51647D01*
X21999Y-51649D01*
X22000Y-51650D01*
X23270Y-51650D01*
X23270Y-51655D01*
X23270Y-52363D01*
X23316Y-52474D01*
X23400Y-52558D01*
X23510Y-52604D01*
X23525Y-52604D01*
X23525Y-52709D01*
G54D10*
G36*
X23622Y-33650D02*
X23589Y-33727D01*
X23589Y-33946D01*
X23142Y-34394D01*
X23055Y-34524D01*
X23050Y-34549D01*
X23025Y-34677D01*
X23025Y-35230D01*
X22925Y-35330D01*
X22825Y-35230D01*
X22825Y-34125D01*
X22794Y-33972D01*
X22794Y-33972D01*
X22765Y-33929D01*
X22724Y-33867D01*
X22724Y-33867D01*
X22725Y-33736D01*
X22689Y-33650D01*
X23622Y-33650D01*
X23622Y-33650D01*
G37*
G54D37*
X23622Y-33650D02*
X23589Y-33727D01*
X23589Y-33946D01*
X23142Y-34394D01*
X23055Y-34524D01*
X23050Y-34549D01*
X23025Y-34677D01*
X23025Y-35230D01*
X22925Y-35330D01*
X22825Y-35230D01*
X22825Y-34125D01*
X22794Y-33972D01*
X22794Y-33972D01*
X22765Y-33929D01*
X22724Y-33867D01*
X22724Y-33867D01*
X22725Y-33736D01*
X22689Y-33650D01*
X23622Y-33650D01*
G54D10*
G36*
X23706Y-44349D02*
X23674Y-44370D01*
X23606Y-44473D01*
X23537Y-44370D01*
X23506Y-44349D01*
X23506Y-44031D01*
X23541Y-43996D01*
X23567Y-44059D01*
X23706Y-44198D01*
X23706Y-44349D01*
X23706Y-44349D01*
G37*
G54D37*
X23706Y-44349D02*
X23674Y-44370D01*
X23606Y-44473D01*
X23537Y-44370D01*
X23506Y-44349D01*
X23506Y-44031D01*
X23541Y-43996D01*
X23567Y-44059D01*
X23706Y-44198D01*
X23706Y-44349D01*
G54D10*
G36*
X23706Y-48715D02*
X23568Y-48852D01*
X23506Y-49002D01*
X23506Y-48563D01*
X23537Y-48542D01*
X23606Y-48439D01*
X23674Y-48542D01*
X23706Y-48563D01*
X23706Y-48715D01*
X23706Y-48715D01*
G37*
G54D37*
X23706Y-48715D02*
X23568Y-48852D01*
X23506Y-49002D01*
X23506Y-48563D01*
X23537Y-48542D01*
X23606Y-48439D01*
X23674Y-48542D01*
X23706Y-48563D01*
X23706Y-48715D01*
G54D10*
G36*
X23706Y-50778D02*
X23634Y-50850D01*
X23418Y-50850D01*
X23474Y-50714D01*
X23475Y-50547D01*
X23475Y-50546D01*
X23475Y-50546D01*
X23475Y-50546D01*
X23506Y-50393D01*
X23506Y-50393D01*
X23506Y-49875D01*
X23506Y-49422D01*
X23567Y-49571D01*
X23706Y-49710D01*
X23706Y-50618D01*
X23706Y-50778D01*
X23706Y-50778D01*
G37*
G54D37*
X23706Y-50778D02*
X23634Y-50850D01*
X23418Y-50850D01*
X23474Y-50714D01*
X23475Y-50547D01*
X23475Y-50546D01*
X23475Y-50546D01*
X23475Y-50546D01*
X23506Y-50393D01*
X23506Y-50393D01*
X23506Y-49875D01*
X23506Y-49422D01*
X23567Y-49571D01*
X23706Y-49710D01*
X23706Y-50618D01*
X23706Y-50778D01*
G54D10*
G36*
X24028Y-36395D02*
X23918Y-36504D01*
X23830Y-36715D01*
X23830Y-36944D01*
X23902Y-37117D01*
X23787Y-37117D01*
X23532Y-37222D01*
X23425Y-37330D01*
X23318Y-37223D01*
X23063Y-37117D01*
X22787Y-37117D01*
X22532Y-37222D01*
X22425Y-37330D01*
X22318Y-37223D01*
X22063Y-37117D01*
X21787Y-37117D01*
X21532Y-37222D01*
X21425Y-37330D01*
X21325Y-37230D01*
X21325Y-37106D01*
X21294Y-36953D01*
X21294Y-36953D01*
X21265Y-36910D01*
X21208Y-36823D01*
X21208Y-36823D01*
X20932Y-36547D01*
X20802Y-36461D01*
X20777Y-36456D01*
X20711Y-36443D01*
X20817Y-36399D01*
X20925Y-36291D01*
X21031Y-36398D01*
X21286Y-36504D01*
X21562Y-36504D01*
X21817Y-36399D01*
X21925Y-36291D01*
X22031Y-36398D01*
X22286Y-36504D01*
X22562Y-36504D01*
X22817Y-36399D01*
X22925Y-36291D01*
X23031Y-36398D01*
X23286Y-36504D01*
X23562Y-36504D01*
X23817Y-36399D01*
X23925Y-36291D01*
X24028Y-36395D01*
X24028Y-36395D01*
G37*
G54D37*
X24028Y-36395D02*
X23918Y-36504D01*
X23830Y-36715D01*
X23830Y-36944D01*
X23902Y-37117D01*
X23787Y-37117D01*
X23532Y-37222D01*
X23425Y-37330D01*
X23318Y-37223D01*
X23063Y-37117D01*
X22787Y-37117D01*
X22532Y-37222D01*
X22425Y-37330D01*
X22318Y-37223D01*
X22063Y-37117D01*
X21787Y-37117D01*
X21532Y-37222D01*
X21425Y-37330D01*
X21325Y-37230D01*
X21325Y-37106D01*
X21294Y-36953D01*
X21294Y-36953D01*
X21265Y-36910D01*
X21208Y-36823D01*
X21208Y-36823D01*
X20932Y-36547D01*
X20802Y-36461D01*
X20777Y-36456D01*
X20711Y-36443D01*
X20817Y-36399D01*
X20925Y-36291D01*
X21031Y-36398D01*
X21286Y-36504D01*
X21562Y-36504D01*
X21817Y-36399D01*
X21925Y-36291D01*
X22031Y-36398D01*
X22286Y-36504D01*
X22562Y-36504D01*
X22817Y-36399D01*
X22925Y-36291D01*
X23031Y-36398D01*
X23286Y-36504D01*
X23562Y-36504D01*
X23817Y-36399D01*
X23925Y-36291D01*
X24028Y-36395D01*
G54D10*
G36*
X24038Y-39982D02*
X23990Y-40030D01*
X23990Y-40002D01*
X24038Y-39982D01*
X24038Y-39982D01*
G37*
G54D37*
X24038Y-39982D02*
X23990Y-40030D01*
X23990Y-40002D01*
X24038Y-39982D01*
G54D10*
G36*
X24525Y-51417D02*
X24449Y-51341D01*
X24339Y-51295D01*
X24319Y-51295D01*
X24389Y-51226D01*
X24389Y-51226D01*
X24475Y-51096D01*
X24475Y-51096D01*
X24480Y-51071D01*
X24506Y-50943D01*
X24506Y-50943D01*
X24506Y-50644D01*
X24525Y-50663D01*
X24525Y-51417D01*
X24525Y-51417D01*
G37*
G54D37*
X24525Y-51417D02*
X24449Y-51341D01*
X24339Y-51295D01*
X24319Y-51295D01*
X24389Y-51226D01*
X24389Y-51226D01*
X24475Y-51096D01*
X24475Y-51096D01*
X24480Y-51071D01*
X24506Y-50943D01*
X24506Y-50943D01*
X24506Y-50644D01*
X24525Y-50663D01*
X24525Y-51417D01*
G54D10*
G36*
X24706Y-44349D02*
X24674Y-44370D01*
X24606Y-44473D01*
X24537Y-44370D01*
X24506Y-44349D01*
X24506Y-44198D01*
X24606Y-44098D01*
X24706Y-44198D01*
X24706Y-44349D01*
X24706Y-44349D01*
G37*
G54D37*
X24706Y-44349D02*
X24674Y-44370D01*
X24606Y-44473D01*
X24537Y-44370D01*
X24506Y-44349D01*
X24506Y-44198D01*
X24606Y-44098D01*
X24706Y-44198D01*
X24706Y-44349D01*
G54D10*
G36*
X24706Y-48715D02*
X24606Y-48815D01*
X24506Y-48714D01*
X24506Y-48563D01*
X24537Y-48542D01*
X24606Y-48439D01*
X24674Y-48542D01*
X24706Y-48563D01*
X24706Y-48715D01*
X24706Y-48715D01*
G37*
G54D37*
X24706Y-48715D02*
X24606Y-48815D01*
X24506Y-48714D01*
X24506Y-48563D01*
X24537Y-48542D01*
X24606Y-48439D01*
X24674Y-48542D01*
X24706Y-48563D01*
X24706Y-48715D01*
G54D10*
G36*
X24711Y-49715D02*
X24599Y-49762D01*
X24506Y-49855D01*
X24506Y-49710D01*
X24606Y-49610D01*
X24711Y-49715D01*
X24711Y-49715D01*
G37*
G54D37*
X24711Y-49715D02*
X24599Y-49762D01*
X24506Y-49855D01*
X24506Y-49710D01*
X24606Y-49610D01*
X24711Y-49715D01*
G54D10*
G36*
X24873Y-43110D02*
X24747Y-43162D01*
X24606Y-43303D01*
X24506Y-43203D01*
X24506Y-43017D01*
X24606Y-42917D01*
X24746Y-43057D01*
X24873Y-43110D01*
X24873Y-43110D01*
G37*
G54D37*
X24873Y-43110D02*
X24747Y-43162D01*
X24606Y-43303D01*
X24506Y-43203D01*
X24506Y-43017D01*
X24606Y-42917D01*
X24746Y-43057D01*
X24873Y-43110D01*
G54D10*
G36*
X25025Y-36461D02*
X24962Y-36523D01*
X24931Y-36598D01*
X24893Y-36505D01*
X24796Y-36408D01*
X24817Y-36399D01*
X24925Y-36291D01*
X25025Y-36391D01*
X25025Y-36461D01*
X25025Y-36461D01*
G37*
G54D37*
X25025Y-36461D02*
X24962Y-36523D01*
X24931Y-36598D01*
X24893Y-36505D01*
X24796Y-36408D01*
X24817Y-36399D01*
X24925Y-36291D01*
X25025Y-36391D01*
X25025Y-36461D01*
G54D10*
G36*
X25706Y-44349D02*
X25674Y-44370D01*
X25606Y-44473D01*
X25537Y-44370D01*
X25506Y-44349D01*
X25506Y-44198D01*
X25592Y-44112D01*
X25626Y-44192D01*
X25706Y-44273D01*
X25706Y-44349D01*
X25706Y-44349D01*
G37*
G54D37*
X25706Y-44349D02*
X25674Y-44370D01*
X25606Y-44473D01*
X25537Y-44370D01*
X25506Y-44349D01*
X25506Y-44198D01*
X25592Y-44112D01*
X25626Y-44192D01*
X25706Y-44273D01*
X25706Y-44349D01*
G54D10*
G36*
X25706Y-49002D02*
X25644Y-48853D01*
X25506Y-48714D01*
X25506Y-48563D01*
X25537Y-48542D01*
X25606Y-48439D01*
X25674Y-48542D01*
X25706Y-48563D01*
X25706Y-49002D01*
X25706Y-49002D01*
G37*
G54D37*
X25706Y-49002D02*
X25644Y-48853D01*
X25506Y-48714D01*
X25506Y-48563D01*
X25537Y-48542D01*
X25606Y-48439D01*
X25674Y-48542D01*
X25706Y-48563D01*
X25706Y-49002D01*
G54D10*
G36*
X25706Y-52487D02*
X24834Y-53359D01*
X24455Y-53359D01*
X24511Y-53225D01*
X24512Y-52996D01*
X24424Y-52784D01*
X24325Y-52685D01*
X24325Y-52604D01*
X24338Y-52604D01*
X24449Y-52558D01*
X24528Y-52479D01*
X24553Y-52504D01*
X24794Y-52604D01*
X25054Y-52604D01*
X25295Y-52505D01*
X25479Y-52321D01*
X25579Y-52080D01*
X25579Y-51820D01*
X25480Y-51579D01*
X25325Y-51424D01*
X25325Y-50663D01*
X25412Y-50576D01*
X25499Y-50364D01*
X25500Y-50136D01*
X25412Y-49924D01*
X25305Y-49817D01*
X25465Y-49750D01*
X25644Y-49572D01*
X25706Y-49422D01*
X25706Y-52487D01*
X25706Y-52487D01*
G37*
G54D37*
X25706Y-52487D02*
X24834Y-53359D01*
X24455Y-53359D01*
X24511Y-53225D01*
X24512Y-52996D01*
X24424Y-52784D01*
X24325Y-52685D01*
X24325Y-52604D01*
X24338Y-52604D01*
X24449Y-52558D01*
X24528Y-52479D01*
X24553Y-52504D01*
X24794Y-52604D01*
X25054Y-52604D01*
X25295Y-52505D01*
X25479Y-52321D01*
X25579Y-52080D01*
X25579Y-51820D01*
X25480Y-51579D01*
X25325Y-51424D01*
X25325Y-50663D01*
X25412Y-50576D01*
X25499Y-50364D01*
X25500Y-50136D01*
X25412Y-49924D01*
X25305Y-49817D01*
X25465Y-49750D01*
X25644Y-49572D01*
X25706Y-49422D01*
X25706Y-52487D01*
G54D10*
G36*
X25781Y-43297D02*
X25671Y-43406D01*
X25644Y-43341D01*
X25466Y-43163D01*
X25338Y-43110D01*
X25465Y-43058D01*
X25603Y-42919D01*
X25739Y-42919D01*
X25781Y-42960D01*
X25781Y-43297D01*
X25781Y-43297D01*
G37*
G54D37*
X25781Y-43297D02*
X25671Y-43406D01*
X25644Y-43341D01*
X25466Y-43163D01*
X25338Y-43110D01*
X25465Y-43058D01*
X25603Y-42919D01*
X25739Y-42919D01*
X25781Y-42960D01*
X25781Y-43297D01*
G54D10*
G36*
X26097Y-32119D02*
X25610Y-32119D01*
X25525Y-32034D01*
X25525Y-31938D01*
X25587Y-31876D01*
X25662Y-31694D01*
X25737Y-31875D01*
X25898Y-32037D01*
X26097Y-32119D01*
X26097Y-32119D01*
G37*
G54D37*
X26097Y-32119D02*
X25610Y-32119D01*
X25525Y-32034D01*
X25525Y-31938D01*
X25587Y-31876D01*
X25662Y-31694D01*
X25737Y-31875D01*
X25898Y-32037D01*
X26097Y-32119D01*
G54D10*
G36*
X26109Y-56266D02*
X25969Y-56406D01*
X25881Y-56617D01*
X25881Y-56779D01*
X25881Y-56779D01*
X25878Y-56784D01*
X25819Y-56843D01*
X25732Y-56972D01*
X25727Y-56998D01*
X25702Y-57125D01*
X25702Y-58495D01*
X25385Y-58812D01*
X21003Y-58812D01*
X20920Y-58611D01*
X20759Y-58449D01*
X20547Y-58362D01*
X20319Y-58361D01*
X20107Y-58449D01*
X19945Y-58610D01*
X19858Y-58822D01*
X19857Y-59050D01*
X19880Y-59106D01*
X13292Y-59106D01*
X13292Y-53012D01*
X13186Y-52757D01*
X12991Y-52561D01*
X12737Y-52456D01*
X12461Y-52455D01*
X12205Y-52561D01*
X12010Y-52756D01*
X11904Y-53011D01*
X11904Y-53286D01*
X12009Y-53542D01*
X12204Y-53737D01*
X12459Y-53843D01*
X12735Y-53843D01*
X12990Y-53738D01*
X13186Y-53543D01*
X13292Y-53288D01*
X13292Y-53012D01*
X13292Y-59106D01*
X12858Y-59106D01*
X12858Y-59199D01*
X12737Y-59148D01*
X12461Y-59148D01*
X12205Y-59254D01*
X12010Y-59449D01*
X11904Y-59703D01*
X11904Y-59979D01*
X12009Y-60234D01*
X12204Y-60430D01*
X12459Y-60536D01*
X12735Y-60536D01*
X12858Y-60485D01*
X12858Y-61436D01*
X11004Y-61436D01*
X11004Y-48598D01*
X16613Y-54206D01*
X16500Y-54206D01*
X16071Y-54206D01*
X15924Y-54059D01*
X15925Y-53936D01*
X15837Y-53724D01*
X15676Y-53562D01*
X15464Y-53475D01*
X15236Y-53474D01*
X15024Y-53562D01*
X14862Y-53723D01*
X14775Y-53935D01*
X14774Y-54084D01*
X14499Y-53809D01*
X14500Y-53686D01*
X14412Y-53474D01*
X14251Y-53312D01*
X14039Y-53225D01*
X13811Y-53224D01*
X13599Y-53312D01*
X13437Y-53473D01*
X13350Y-53685D01*
X13349Y-53913D01*
X13437Y-54125D01*
X13598Y-54287D01*
X13810Y-54374D01*
X13934Y-54375D01*
X14802Y-55243D01*
X14802Y-55243D01*
X14889Y-55301D01*
X14932Y-55330D01*
X14932Y-55330D01*
X15085Y-55360D01*
X16200Y-55360D01*
X22398Y-55360D01*
X22346Y-55437D01*
X22341Y-55462D01*
X22316Y-55590D01*
X22316Y-56004D01*
X22229Y-56091D01*
X22141Y-56302D01*
X22141Y-56531D01*
X22228Y-56742D01*
X22390Y-56904D01*
X22601Y-56992D01*
X22830Y-56992D01*
X23041Y-56905D01*
X23203Y-56743D01*
X23291Y-56532D01*
X23291Y-56303D01*
X23204Y-56092D01*
X23116Y-56004D01*
X23116Y-55756D01*
X23118Y-55754D01*
X24771Y-55754D01*
X24670Y-55854D01*
X24582Y-56066D01*
X24582Y-56294D01*
X24669Y-56506D01*
X24831Y-56668D01*
X25042Y-56756D01*
X25271Y-56756D01*
X25482Y-56668D01*
X25644Y-56507D01*
X25732Y-56295D01*
X25732Y-56266D01*
X26109Y-56266D01*
X26109Y-56266D01*
G37*
G54D37*
X26109Y-56266D02*
X25969Y-56406D01*
X25881Y-56617D01*
X25881Y-56779D01*
X25881Y-56779D01*
X25878Y-56784D01*
X25819Y-56843D01*
X25732Y-56972D01*
X25727Y-56998D01*
X25702Y-57125D01*
X25702Y-58495D01*
X25385Y-58812D01*
X21003Y-58812D01*
X20920Y-58611D01*
X20759Y-58449D01*
X20547Y-58362D01*
X20319Y-58361D01*
X20107Y-58449D01*
X19945Y-58610D01*
X19858Y-58822D01*
X19857Y-59050D01*
X19880Y-59106D01*
X13292Y-59106D01*
X13292Y-53012D01*
X13186Y-52757D01*
X12991Y-52561D01*
X12737Y-52456D01*
X12461Y-52455D01*
X12205Y-52561D01*
X12010Y-52756D01*
X11904Y-53011D01*
X11904Y-53286D01*
X12009Y-53542D01*
X12204Y-53737D01*
X12459Y-53843D01*
X12735Y-53843D01*
X12990Y-53738D01*
X13186Y-53543D01*
X13292Y-53288D01*
X13292Y-53012D01*
X13292Y-59106D01*
X12858Y-59106D01*
X12858Y-59199D01*
X12737Y-59148D01*
X12461Y-59148D01*
X12205Y-59254D01*
X12010Y-59449D01*
X11904Y-59703D01*
X11904Y-59979D01*
X12009Y-60234D01*
X12204Y-60430D01*
X12459Y-60536D01*
X12735Y-60536D01*
X12858Y-60485D01*
X12858Y-61436D01*
X11004Y-61436D01*
X11004Y-48598D01*
X16613Y-54206D01*
X16500Y-54206D01*
X16071Y-54206D01*
X15924Y-54059D01*
X15925Y-53936D01*
X15837Y-53724D01*
X15676Y-53562D01*
X15464Y-53475D01*
X15236Y-53474D01*
X15024Y-53562D01*
X14862Y-53723D01*
X14775Y-53935D01*
X14774Y-54084D01*
X14499Y-53809D01*
X14500Y-53686D01*
X14412Y-53474D01*
X14251Y-53312D01*
X14039Y-53225D01*
X13811Y-53224D01*
X13599Y-53312D01*
X13437Y-53473D01*
X13350Y-53685D01*
X13349Y-53913D01*
X13437Y-54125D01*
X13598Y-54287D01*
X13810Y-54374D01*
X13934Y-54375D01*
X14802Y-55243D01*
X14802Y-55243D01*
X14889Y-55301D01*
X14932Y-55330D01*
X14932Y-55330D01*
X15085Y-55360D01*
X16200Y-55360D01*
X22398Y-55360D01*
X22346Y-55437D01*
X22341Y-55462D01*
X22316Y-55590D01*
X22316Y-56004D01*
X22229Y-56091D01*
X22141Y-56302D01*
X22141Y-56531D01*
X22228Y-56742D01*
X22390Y-56904D01*
X22601Y-56992D01*
X22830Y-56992D01*
X23041Y-56905D01*
X23203Y-56743D01*
X23291Y-56532D01*
X23291Y-56303D01*
X23204Y-56092D01*
X23116Y-56004D01*
X23116Y-55756D01*
X23118Y-55754D01*
X24771Y-55754D01*
X24670Y-55854D01*
X24582Y-56066D01*
X24582Y-56294D01*
X24669Y-56506D01*
X24831Y-56668D01*
X25042Y-56756D01*
X25271Y-56756D01*
X25482Y-56668D01*
X25644Y-56507D01*
X25732Y-56295D01*
X25732Y-56266D01*
X26109Y-56266D01*
G54D10*
G36*
X26223Y-35144D02*
X26032Y-35222D01*
X25925Y-35330D01*
X25818Y-35223D01*
X25627Y-35144D01*
X26223Y-35144D01*
X26223Y-35144D01*
G37*
G54D37*
X26223Y-35144D02*
X26032Y-35222D01*
X25925Y-35330D01*
X25818Y-35223D01*
X25627Y-35144D01*
X26223Y-35144D01*
G54D10*
G36*
X26529Y-57840D02*
X26502Y-57851D01*
X26502Y-57307D01*
X26529Y-57307D01*
X26529Y-57840D01*
X26529Y-57840D01*
G37*
G54D37*
X26529Y-57840D02*
X26502Y-57851D01*
X26502Y-57307D01*
X26529Y-57307D01*
X26529Y-57840D01*
G54D10*
G36*
X26577Y-36529D02*
X26318Y-36529D01*
X26165Y-36559D01*
X26122Y-36588D01*
X26036Y-36646D01*
X26002Y-36680D01*
X25937Y-36524D01*
X25825Y-36411D01*
X25825Y-36391D01*
X25925Y-36291D01*
X26031Y-36398D01*
X26286Y-36504D01*
X26553Y-36504D01*
X26577Y-36529D01*
X26577Y-36529D01*
G37*
G54D37*
X26577Y-36529D02*
X26318Y-36529D01*
X26165Y-36559D01*
X26122Y-36588D01*
X26036Y-36646D01*
X26002Y-36680D01*
X25937Y-36524D01*
X25825Y-36411D01*
X25825Y-36391D01*
X25925Y-36291D01*
X26031Y-36398D01*
X26286Y-36504D01*
X26553Y-36504D01*
X26577Y-36529D01*
G54D10*
G36*
X26629Y-48474D02*
X26506Y-48597D01*
X26506Y-48563D01*
X26537Y-48542D01*
X26606Y-48439D01*
X26629Y-48474D01*
X26629Y-48474D01*
G37*
G54D37*
X26629Y-48474D02*
X26506Y-48597D01*
X26506Y-48563D01*
X26537Y-48542D01*
X26606Y-48439D01*
X26629Y-48474D01*
G54D10*
G36*
X26636Y-42415D02*
X26556Y-42495D01*
X26516Y-42591D01*
X26463Y-42512D01*
X26463Y-42512D01*
X26188Y-42236D01*
X26058Y-42150D01*
X26033Y-42145D01*
X25905Y-42119D01*
X25603Y-42119D01*
X25466Y-41981D01*
X25233Y-41885D01*
X24980Y-41884D01*
X24747Y-41981D01*
X24606Y-42122D01*
X24506Y-42022D01*
X24506Y-40646D01*
X24653Y-40498D01*
X25607Y-40498D01*
X25526Y-40692D01*
X25526Y-40952D01*
X25626Y-41192D01*
X25809Y-41377D01*
X26050Y-41477D01*
X26269Y-41477D01*
X26561Y-41768D01*
X26511Y-41888D01*
X26510Y-42149D01*
X26610Y-42389D01*
X26636Y-42415D01*
X26636Y-42415D01*
G37*
G54D37*
X26636Y-42415D02*
X26556Y-42495D01*
X26516Y-42591D01*
X26463Y-42512D01*
X26463Y-42512D01*
X26188Y-42236D01*
X26058Y-42150D01*
X26033Y-42145D01*
X25905Y-42119D01*
X25603Y-42119D01*
X25466Y-41981D01*
X25233Y-41885D01*
X24980Y-41884D01*
X24747Y-41981D01*
X24606Y-42122D01*
X24506Y-42022D01*
X24506Y-40646D01*
X24653Y-40498D01*
X25607Y-40498D01*
X25526Y-40692D01*
X25526Y-40952D01*
X25626Y-41192D01*
X25809Y-41377D01*
X26050Y-41477D01*
X26269Y-41477D01*
X26561Y-41768D01*
X26511Y-41888D01*
X26510Y-42149D01*
X26610Y-42389D01*
X26636Y-42415D01*
G54D10*
G36*
X26706Y-44349D02*
X26674Y-44370D01*
X26606Y-44473D01*
X26544Y-44380D01*
X26551Y-44377D01*
X26706Y-44223D01*
X26706Y-44349D01*
X26706Y-44349D01*
G37*
G54D37*
X26706Y-44349D02*
X26674Y-44370D01*
X26606Y-44473D01*
X26544Y-44380D01*
X26551Y-44377D01*
X26706Y-44223D01*
X26706Y-44349D01*
G54D10*
G36*
X26734Y-46725D02*
X18475Y-46725D01*
X18347Y-46750D01*
X18321Y-46755D01*
X18192Y-46842D01*
X17827Y-47206D01*
X17736Y-47206D01*
X17626Y-47252D01*
X17542Y-47336D01*
X17496Y-47446D01*
X17496Y-47556D01*
X15567Y-47556D01*
X15531Y-47468D01*
X15376Y-47313D01*
X15376Y-45363D01*
X15530Y-45209D01*
X15630Y-44969D01*
X15630Y-44708D01*
X15531Y-44468D01*
X15393Y-44330D01*
X15530Y-44193D01*
X15630Y-43953D01*
X15630Y-43693D01*
X15531Y-43452D01*
X15376Y-43297D01*
X15376Y-41788D01*
X15406Y-41818D01*
X15406Y-41818D01*
X15492Y-41876D01*
X15535Y-41904D01*
X15535Y-41904D01*
X15688Y-41935D01*
X15691Y-41935D01*
X15845Y-42089D01*
X16085Y-42189D01*
X16346Y-42189D01*
X16586Y-42090D01*
X16770Y-41906D01*
X16870Y-41666D01*
X16870Y-41550D01*
X18122Y-42802D01*
X18122Y-42802D01*
X18252Y-42889D01*
X18252Y-42889D01*
X18277Y-42894D01*
X18405Y-42919D01*
X23608Y-42919D01*
X23706Y-43017D01*
X23706Y-43203D01*
X23594Y-43315D01*
X23587Y-43299D01*
X23426Y-43137D01*
X23214Y-43050D01*
X22986Y-43049D01*
X22774Y-43137D01*
X22612Y-43298D01*
X22594Y-43342D01*
X22587Y-43324D01*
X22426Y-43162D01*
X22214Y-43075D01*
X21986Y-43074D01*
X21774Y-43162D01*
X21612Y-43323D01*
X21600Y-43354D01*
X21587Y-43324D01*
X21426Y-43162D01*
X21214Y-43075D01*
X20986Y-43074D01*
X20774Y-43162D01*
X20637Y-43299D01*
X20601Y-43262D01*
X20389Y-43175D01*
X20161Y-43174D01*
X19949Y-43262D01*
X19871Y-43339D01*
X19684Y-43152D01*
X19429Y-43046D01*
X19153Y-43046D01*
X18898Y-43151D01*
X18703Y-43346D01*
X18696Y-43364D01*
X18503Y-43172D01*
X18248Y-43066D01*
X17972Y-43066D01*
X17717Y-43171D01*
X17522Y-43366D01*
X17416Y-43621D01*
X17416Y-43897D01*
X17521Y-44152D01*
X17706Y-44337D01*
X17706Y-44349D01*
X17674Y-44370D01*
X17542Y-44568D01*
X17496Y-44801D01*
X17496Y-45111D01*
X17542Y-45344D01*
X17674Y-45542D01*
X17872Y-45674D01*
X18106Y-45721D01*
X18339Y-45674D01*
X18537Y-45542D01*
X18606Y-45439D01*
X18674Y-45542D01*
X18872Y-45674D01*
X19106Y-45721D01*
X19339Y-45674D01*
X19537Y-45542D01*
X19606Y-45439D01*
X19674Y-45542D01*
X19872Y-45674D01*
X20106Y-45721D01*
X20339Y-45674D01*
X20537Y-45542D01*
X20606Y-45439D01*
X20674Y-45542D01*
X20872Y-45674D01*
X21106Y-45721D01*
X21339Y-45674D01*
X21537Y-45542D01*
X21606Y-45439D01*
X21674Y-45542D01*
X21872Y-45674D01*
X22106Y-45721D01*
X22339Y-45674D01*
X22537Y-45542D01*
X22606Y-45439D01*
X22674Y-45542D01*
X22872Y-45674D01*
X23106Y-45721D01*
X23339Y-45674D01*
X23537Y-45542D01*
X23606Y-45439D01*
X23674Y-45542D01*
X23872Y-45674D01*
X24106Y-45721D01*
X24339Y-45674D01*
X24537Y-45542D01*
X24606Y-45439D01*
X24674Y-45542D01*
X24872Y-45674D01*
X25106Y-45721D01*
X25339Y-45674D01*
X25537Y-45542D01*
X25606Y-45439D01*
X25674Y-45542D01*
X25872Y-45674D01*
X26106Y-45721D01*
X26339Y-45674D01*
X26537Y-45542D01*
X26606Y-45439D01*
X26674Y-45542D01*
X26706Y-45563D01*
X26706Y-46397D01*
X26706Y-46581D01*
X26731Y-46708D01*
X26734Y-46725D01*
X26734Y-46725D01*
G37*
G54D37*
X26734Y-46725D02*
X18475Y-46725D01*
X18347Y-46750D01*
X18321Y-46755D01*
X18192Y-46842D01*
X17827Y-47206D01*
X17736Y-47206D01*
X17626Y-47252D01*
X17542Y-47336D01*
X17496Y-47446D01*
X17496Y-47556D01*
X15567Y-47556D01*
X15531Y-47468D01*
X15376Y-47313D01*
X15376Y-45363D01*
X15530Y-45209D01*
X15630Y-44969D01*
X15630Y-44708D01*
X15531Y-44468D01*
X15393Y-44330D01*
X15530Y-44193D01*
X15630Y-43953D01*
X15630Y-43693D01*
X15531Y-43452D01*
X15376Y-43297D01*
X15376Y-41788D01*
X15406Y-41818D01*
X15406Y-41818D01*
X15492Y-41876D01*
X15535Y-41904D01*
X15535Y-41904D01*
X15688Y-41935D01*
X15691Y-41935D01*
X15845Y-42089D01*
X16085Y-42189D01*
X16346Y-42189D01*
X16586Y-42090D01*
X16770Y-41906D01*
X16870Y-41666D01*
X16870Y-41550D01*
X18122Y-42802D01*
X18122Y-42802D01*
X18252Y-42889D01*
X18252Y-42889D01*
X18277Y-42894D01*
X18405Y-42919D01*
X23608Y-42919D01*
X23706Y-43017D01*
X23706Y-43203D01*
X23594Y-43315D01*
X23587Y-43299D01*
X23426Y-43137D01*
X23214Y-43050D01*
X22986Y-43049D01*
X22774Y-43137D01*
X22612Y-43298D01*
X22594Y-43342D01*
X22587Y-43324D01*
X22426Y-43162D01*
X22214Y-43075D01*
X21986Y-43074D01*
X21774Y-43162D01*
X21612Y-43323D01*
X21600Y-43354D01*
X21587Y-43324D01*
X21426Y-43162D01*
X21214Y-43075D01*
X20986Y-43074D01*
X20774Y-43162D01*
X20637Y-43299D01*
X20601Y-43262D01*
X20389Y-43175D01*
X20161Y-43174D01*
X19949Y-43262D01*
X19871Y-43339D01*
X19684Y-43152D01*
X19429Y-43046D01*
X19153Y-43046D01*
X18898Y-43151D01*
X18703Y-43346D01*
X18696Y-43364D01*
X18503Y-43172D01*
X18248Y-43066D01*
X17972Y-43066D01*
X17717Y-43171D01*
X17522Y-43366D01*
X17416Y-43621D01*
X17416Y-43897D01*
X17521Y-44152D01*
X17706Y-44337D01*
X17706Y-44349D01*
X17674Y-44370D01*
X17542Y-44568D01*
X17496Y-44801D01*
X17496Y-45111D01*
X17542Y-45344D01*
X17674Y-45542D01*
X17872Y-45674D01*
X18106Y-45721D01*
X18339Y-45674D01*
X18537Y-45542D01*
X18606Y-45439D01*
X18674Y-45542D01*
X18872Y-45674D01*
X19106Y-45721D01*
X19339Y-45674D01*
X19537Y-45542D01*
X19606Y-45439D01*
X19674Y-45542D01*
X19872Y-45674D01*
X20106Y-45721D01*
X20339Y-45674D01*
X20537Y-45542D01*
X20606Y-45439D01*
X20674Y-45542D01*
X20872Y-45674D01*
X21106Y-45721D01*
X21339Y-45674D01*
X21537Y-45542D01*
X21606Y-45439D01*
X21674Y-45542D01*
X21872Y-45674D01*
X22106Y-45721D01*
X22339Y-45674D01*
X22537Y-45542D01*
X22606Y-45439D01*
X22674Y-45542D01*
X22872Y-45674D01*
X23106Y-45721D01*
X23339Y-45674D01*
X23537Y-45542D01*
X23606Y-45439D01*
X23674Y-45542D01*
X23872Y-45674D01*
X24106Y-45721D01*
X24339Y-45674D01*
X24537Y-45542D01*
X24606Y-45439D01*
X24674Y-45542D01*
X24872Y-45674D01*
X25106Y-45721D01*
X25339Y-45674D01*
X25537Y-45542D01*
X25606Y-45439D01*
X25674Y-45542D01*
X25872Y-45674D01*
X26106Y-45721D01*
X26339Y-45674D01*
X26537Y-45542D01*
X26606Y-45439D01*
X26674Y-45542D01*
X26706Y-45563D01*
X26706Y-46397D01*
X26706Y-46581D01*
X26731Y-46708D01*
X26734Y-46725D01*
G54D10*
G36*
X26940Y-27934D02*
X26337Y-28536D01*
X26292Y-28567D01*
X26205Y-28696D01*
X26175Y-28850D01*
X26175Y-28853D01*
X26117Y-28853D01*
X25763Y-28853D01*
X25690Y-28883D01*
X25682Y-28877D01*
X25500Y-28841D01*
X25317Y-28877D01*
X25162Y-28981D01*
X25059Y-29136D01*
X25022Y-29318D01*
X25022Y-29578D01*
X25059Y-29760D01*
X25162Y-29915D01*
X25317Y-30019D01*
X25500Y-30055D01*
X25682Y-30019D01*
X25690Y-30013D01*
X25762Y-30043D01*
X25882Y-30043D01*
X26175Y-30043D01*
X26175Y-30974D01*
X26111Y-30974D01*
X25899Y-31062D01*
X25737Y-31223D01*
X25662Y-31405D01*
X25587Y-31224D01*
X25426Y-31062D01*
X25214Y-30975D01*
X24986Y-30974D01*
X24977Y-30978D01*
X24977Y-29578D01*
X24977Y-29318D01*
X24940Y-29136D01*
X24837Y-28981D01*
X24682Y-28877D01*
X24500Y-28841D01*
X24317Y-28877D01*
X24250Y-28922D01*
X24182Y-28877D01*
X24000Y-28841D01*
X23817Y-28877D01*
X23662Y-28981D01*
X23559Y-29136D01*
X23522Y-29318D01*
X23522Y-29578D01*
X23559Y-29760D01*
X23662Y-29915D01*
X23817Y-30019D01*
X24000Y-30055D01*
X24182Y-30019D01*
X24250Y-29974D01*
X24317Y-30019D01*
X24500Y-30055D01*
X24682Y-30019D01*
X24837Y-29915D01*
X24940Y-29760D01*
X24977Y-29578D01*
X24977Y-30978D01*
X24774Y-31062D01*
X24612Y-31223D01*
X24525Y-31435D01*
X24524Y-31663D01*
X24612Y-31875D01*
X24725Y-31988D01*
X24725Y-32119D01*
X24575Y-32119D01*
X24150Y-32119D01*
X24025Y-32119D01*
X23327Y-32119D01*
X23327Y-29684D01*
X23327Y-29093D01*
X23282Y-28983D01*
X23197Y-28899D01*
X23087Y-28853D01*
X22968Y-28853D01*
X22613Y-28853D01*
X22541Y-28883D01*
X22532Y-28877D01*
X22350Y-28841D01*
X22167Y-28877D01*
X22012Y-28981D01*
X21909Y-29136D01*
X21873Y-29318D01*
X21873Y-29578D01*
X21909Y-29760D01*
X22012Y-29915D01*
X22167Y-30019D01*
X22350Y-30055D01*
X22532Y-30019D01*
X22541Y-30013D01*
X22613Y-30043D01*
X22732Y-30043D01*
X23086Y-30043D01*
X23197Y-29998D01*
X23281Y-29913D01*
X23327Y-29803D01*
X23327Y-29684D01*
X23327Y-32119D01*
X23260Y-32119D01*
X23125Y-31984D01*
X23125Y-31963D01*
X23212Y-31876D01*
X23299Y-31664D01*
X23300Y-31436D01*
X23212Y-31224D01*
X23051Y-31062D01*
X22839Y-30975D01*
X22611Y-30974D01*
X22399Y-31062D01*
X22237Y-31223D01*
X22150Y-31435D01*
X22149Y-31663D01*
X22237Y-31875D01*
X22325Y-31963D01*
X22325Y-32119D01*
X22225Y-32119D01*
X22222Y-32120D01*
X22219Y-32119D01*
X21900Y-32119D01*
X21873Y-32125D01*
X21827Y-32125D01*
X21827Y-29578D01*
X21827Y-29318D01*
X21791Y-29136D01*
X21687Y-28981D01*
X21532Y-28877D01*
X21350Y-28841D01*
X21167Y-28877D01*
X21100Y-28922D01*
X21032Y-28877D01*
X20850Y-28841D01*
X20667Y-28877D01*
X20512Y-28981D01*
X20409Y-29136D01*
X20373Y-29318D01*
X20373Y-29578D01*
X20409Y-29760D01*
X20512Y-29915D01*
X20667Y-30019D01*
X20850Y-30055D01*
X21032Y-30019D01*
X21100Y-29974D01*
X21167Y-30019D01*
X21350Y-30055D01*
X21532Y-30019D01*
X21687Y-29915D01*
X21791Y-29760D01*
X21827Y-29578D01*
X21827Y-32125D01*
X20475Y-32125D01*
X20475Y-31963D01*
X20562Y-31876D01*
X20649Y-31664D01*
X20650Y-31436D01*
X20562Y-31224D01*
X20401Y-31062D01*
X20189Y-30975D01*
X20178Y-30975D01*
X20178Y-29684D01*
X20178Y-29093D01*
X20132Y-28983D01*
X20048Y-28899D01*
X19937Y-28853D01*
X19818Y-28853D01*
X19464Y-28853D01*
X19391Y-28883D01*
X19383Y-28877D01*
X19200Y-28841D01*
X19018Y-28877D01*
X18863Y-28981D01*
X18759Y-29136D01*
X18723Y-29318D01*
X18723Y-29578D01*
X18759Y-29760D01*
X18863Y-29915D01*
X19018Y-30019D01*
X19200Y-30055D01*
X19383Y-30019D01*
X19391Y-30013D01*
X19463Y-30043D01*
X19583Y-30043D01*
X19937Y-30043D01*
X20047Y-29998D01*
X20132Y-29913D01*
X20177Y-29803D01*
X20178Y-29684D01*
X20178Y-30975D01*
X20065Y-30974D01*
X19957Y-30867D01*
X19828Y-30780D01*
X19802Y-30775D01*
X19675Y-30750D01*
X17335Y-30750D01*
X17349Y-30714D01*
X17350Y-30486D01*
X17262Y-30274D01*
X17175Y-30186D01*
X17175Y-29613D01*
X17223Y-29564D01*
X17223Y-29578D01*
X17259Y-29760D01*
X17363Y-29915D01*
X17518Y-30019D01*
X17700Y-30055D01*
X17883Y-30019D01*
X17950Y-29974D01*
X18018Y-30019D01*
X18200Y-30055D01*
X18383Y-30019D01*
X18538Y-29915D01*
X18641Y-29760D01*
X18677Y-29578D01*
X18677Y-29318D01*
X18641Y-29136D01*
X18538Y-28981D01*
X18383Y-28877D01*
X18200Y-28841D01*
X18018Y-28877D01*
X17950Y-28922D01*
X17883Y-28877D01*
X17700Y-28841D01*
X17518Y-28877D01*
X17363Y-28981D01*
X17328Y-29033D01*
X17262Y-28874D01*
X17225Y-28837D01*
X17362Y-28701D01*
X17449Y-28489D01*
X17450Y-28261D01*
X17393Y-28124D01*
X17613Y-28125D01*
X17825Y-28037D01*
X17863Y-28000D01*
X18150Y-28000D01*
X18150Y-27999D01*
X18277Y-27974D01*
X18303Y-27969D01*
X18303Y-27969D01*
X18432Y-27882D01*
X18707Y-27607D01*
X18707Y-27607D01*
X18794Y-27478D01*
X18794Y-27478D01*
X18799Y-27452D01*
X18824Y-27325D01*
X18825Y-27325D01*
X18825Y-26350D01*
X18824Y-26349D01*
X18794Y-26196D01*
X18794Y-26196D01*
X18707Y-26067D01*
X18707Y-26067D01*
X18307Y-25667D01*
X18178Y-25580D01*
X18152Y-25575D01*
X18025Y-25550D01*
X16304Y-25550D01*
X16304Y-24720D01*
X16205Y-24479D01*
X16021Y-24295D01*
X15780Y-24195D01*
X15520Y-24195D01*
X15279Y-24294D01*
X15095Y-24478D01*
X14995Y-24719D01*
X14995Y-24979D01*
X15094Y-25220D01*
X15278Y-25404D01*
X15519Y-25504D01*
X15779Y-25504D01*
X16020Y-25405D01*
X16204Y-25221D01*
X16304Y-24980D01*
X16304Y-24720D01*
X16304Y-25550D01*
X15400Y-25550D01*
X15272Y-25575D01*
X15246Y-25580D01*
X15117Y-25667D01*
X14784Y-26000D01*
X14661Y-25999D01*
X14449Y-26087D01*
X14369Y-26166D01*
X14305Y-26009D01*
X14175Y-25879D01*
X14304Y-25751D01*
X14404Y-25510D01*
X14404Y-25250D01*
X14305Y-25009D01*
X14279Y-24983D01*
X14358Y-24904D01*
X14404Y-24794D01*
X14404Y-24674D01*
X14404Y-23966D01*
X14358Y-23855D01*
X14274Y-23771D01*
X14164Y-23725D01*
X14044Y-23725D01*
X13336Y-23725D01*
X13225Y-23771D01*
X13141Y-23855D01*
X13095Y-23965D01*
X13095Y-23980D01*
X12975Y-23980D01*
X12881Y-23885D01*
X12640Y-23785D01*
X12380Y-23785D01*
X12139Y-23884D01*
X11955Y-24068D01*
X11855Y-24309D01*
X11855Y-24569D01*
X11954Y-24810D01*
X12138Y-24994D01*
X12379Y-25094D01*
X12639Y-25094D01*
X12880Y-24995D01*
X13064Y-24811D01*
X13077Y-24780D01*
X13095Y-24780D01*
X13095Y-24793D01*
X13141Y-24904D01*
X13220Y-24983D01*
X13195Y-25008D01*
X13095Y-25249D01*
X13095Y-25509D01*
X13194Y-25750D01*
X13324Y-25880D01*
X13195Y-26008D01*
X13095Y-26249D01*
X13095Y-26509D01*
X13194Y-26750D01*
X13378Y-26934D01*
X13619Y-27034D01*
X13879Y-27034D01*
X14023Y-26975D01*
X14361Y-26975D01*
X14448Y-27062D01*
X14518Y-27091D01*
X13959Y-27650D01*
X13264Y-27650D01*
X13119Y-27678D01*
X13164Y-27570D01*
X13164Y-27310D01*
X13065Y-27069D01*
X12881Y-26885D01*
X12640Y-26785D01*
X12380Y-26785D01*
X12139Y-26884D01*
X11955Y-27068D01*
X11855Y-27309D01*
X11855Y-27569D01*
X11954Y-27810D01*
X12110Y-27965D01*
X12110Y-28037D01*
X12135Y-28165D01*
X12140Y-28190D01*
X12227Y-28320D01*
X12239Y-28332D01*
X12239Y-28509D01*
X11767Y-28982D01*
X11680Y-29111D01*
X11675Y-29137D01*
X11650Y-29264D01*
X11650Y-31780D01*
X11675Y-31907D01*
X11680Y-31933D01*
X11767Y-32062D01*
X12365Y-32660D01*
X12364Y-32783D01*
X12452Y-32995D01*
X12613Y-33157D01*
X12825Y-33244D01*
X13053Y-33245D01*
X13265Y-33157D01*
X13427Y-32996D01*
X13514Y-32784D01*
X13515Y-32556D01*
X13427Y-32344D01*
X13266Y-32182D01*
X13054Y-32095D01*
X12930Y-32094D01*
X12911Y-32075D01*
X13023Y-32075D01*
X13263Y-31976D01*
X13274Y-31965D01*
X13274Y-32038D01*
X13362Y-32250D01*
X13523Y-32412D01*
X13735Y-32499D01*
X13963Y-32500D01*
X14128Y-32432D01*
X11004Y-35555D01*
X11004Y-21477D01*
X17896Y-21477D01*
X17442Y-21932D01*
X17355Y-22061D01*
X17350Y-22087D01*
X17325Y-22215D01*
X17325Y-23099D01*
X17284Y-23139D01*
X17284Y-22925D01*
X17284Y-22255D01*
X17239Y-22145D01*
X17154Y-22061D01*
X17044Y-22015D01*
X16925Y-22015D01*
X16255Y-22015D01*
X16145Y-22060D01*
X16061Y-22145D01*
X16015Y-22255D01*
X16015Y-22374D01*
X16015Y-23044D01*
X16060Y-23154D01*
X16145Y-23238D01*
X16255Y-23284D01*
X16374Y-23284D01*
X17044Y-23284D01*
X17154Y-23239D01*
X17238Y-23154D01*
X17284Y-23044D01*
X17284Y-22925D01*
X17284Y-23139D01*
X17170Y-23253D01*
X17070Y-23494D01*
X17070Y-23754D01*
X17169Y-23995D01*
X17353Y-24179D01*
X17594Y-24279D01*
X17854Y-24279D01*
X18095Y-24180D01*
X18279Y-23996D01*
X18379Y-23755D01*
X18379Y-23495D01*
X18280Y-23254D01*
X18125Y-23099D01*
X18125Y-22380D01*
X18505Y-22000D01*
X20088Y-22000D01*
X20047Y-22061D01*
X20018Y-22204D01*
X20018Y-24139D01*
X19998Y-24119D01*
X19667Y-23982D01*
X19309Y-23981D01*
X18979Y-24118D01*
X18725Y-24371D01*
X18588Y-24702D01*
X18588Y-25060D01*
X18724Y-25391D01*
X18977Y-25644D01*
X19308Y-25781D01*
X19666Y-25782D01*
X19997Y-25645D01*
X20018Y-25623D01*
X20018Y-27559D01*
X20047Y-27702D01*
X20128Y-27824D01*
X20250Y-27905D01*
X20393Y-27934D01*
X26940Y-27934D01*
X26940Y-27934D01*
G37*
G54D37*
X26940Y-27934D02*
X26337Y-28536D01*
X26292Y-28567D01*
X26205Y-28696D01*
X26175Y-28850D01*
X26175Y-28853D01*
X26117Y-28853D01*
X25763Y-28853D01*
X25690Y-28883D01*
X25682Y-28877D01*
X25500Y-28841D01*
X25317Y-28877D01*
X25162Y-28981D01*
X25059Y-29136D01*
X25022Y-29318D01*
X25022Y-29578D01*
X25059Y-29760D01*
X25162Y-29915D01*
X25317Y-30019D01*
X25500Y-30055D01*
X25682Y-30019D01*
X25690Y-30013D01*
X25762Y-30043D01*
X25882Y-30043D01*
X26175Y-30043D01*
X26175Y-30974D01*
X26111Y-30974D01*
X25899Y-31062D01*
X25737Y-31223D01*
X25662Y-31405D01*
X25587Y-31224D01*
X25426Y-31062D01*
X25214Y-30975D01*
X24986Y-30974D01*
X24977Y-30978D01*
X24977Y-29578D01*
X24977Y-29318D01*
X24940Y-29136D01*
X24837Y-28981D01*
X24682Y-28877D01*
X24500Y-28841D01*
X24317Y-28877D01*
X24250Y-28922D01*
X24182Y-28877D01*
X24000Y-28841D01*
X23817Y-28877D01*
X23662Y-28981D01*
X23559Y-29136D01*
X23522Y-29318D01*
X23522Y-29578D01*
X23559Y-29760D01*
X23662Y-29915D01*
X23817Y-30019D01*
X24000Y-30055D01*
X24182Y-30019D01*
X24250Y-29974D01*
X24317Y-30019D01*
X24500Y-30055D01*
X24682Y-30019D01*
X24837Y-29915D01*
X24940Y-29760D01*
X24977Y-29578D01*
X24977Y-30978D01*
X24774Y-31062D01*
X24612Y-31223D01*
X24525Y-31435D01*
X24524Y-31663D01*
X24612Y-31875D01*
X24725Y-31988D01*
X24725Y-32119D01*
X24575Y-32119D01*
X24150Y-32119D01*
X24025Y-32119D01*
X23327Y-32119D01*
X23327Y-29684D01*
X23327Y-29093D01*
X23282Y-28983D01*
X23197Y-28899D01*
X23087Y-28853D01*
X22968Y-28853D01*
X22613Y-28853D01*
X22541Y-28883D01*
X22532Y-28877D01*
X22350Y-28841D01*
X22167Y-28877D01*
X22012Y-28981D01*
X21909Y-29136D01*
X21873Y-29318D01*
X21873Y-29578D01*
X21909Y-29760D01*
X22012Y-29915D01*
X22167Y-30019D01*
X22350Y-30055D01*
X22532Y-30019D01*
X22541Y-30013D01*
X22613Y-30043D01*
X22732Y-30043D01*
X23086Y-30043D01*
X23197Y-29998D01*
X23281Y-29913D01*
X23327Y-29803D01*
X23327Y-29684D01*
X23327Y-32119D01*
X23260Y-32119D01*
X23125Y-31984D01*
X23125Y-31963D01*
X23212Y-31876D01*
X23299Y-31664D01*
X23300Y-31436D01*
X23212Y-31224D01*
X23051Y-31062D01*
X22839Y-30975D01*
X22611Y-30974D01*
X22399Y-31062D01*
X22237Y-31223D01*
X22150Y-31435D01*
X22149Y-31663D01*
X22237Y-31875D01*
X22325Y-31963D01*
X22325Y-32119D01*
X22225Y-32119D01*
X22222Y-32120D01*
X22219Y-32119D01*
X21900Y-32119D01*
X21873Y-32125D01*
X21827Y-32125D01*
X21827Y-29578D01*
X21827Y-29318D01*
X21791Y-29136D01*
X21687Y-28981D01*
X21532Y-28877D01*
X21350Y-28841D01*
X21167Y-28877D01*
X21100Y-28922D01*
X21032Y-28877D01*
X20850Y-28841D01*
X20667Y-28877D01*
X20512Y-28981D01*
X20409Y-29136D01*
X20373Y-29318D01*
X20373Y-29578D01*
X20409Y-29760D01*
X20512Y-29915D01*
X20667Y-30019D01*
X20850Y-30055D01*
X21032Y-30019D01*
X21100Y-29974D01*
X21167Y-30019D01*
X21350Y-30055D01*
X21532Y-30019D01*
X21687Y-29915D01*
X21791Y-29760D01*
X21827Y-29578D01*
X21827Y-32125D01*
X20475Y-32125D01*
X20475Y-31963D01*
X20562Y-31876D01*
X20649Y-31664D01*
X20650Y-31436D01*
X20562Y-31224D01*
X20401Y-31062D01*
X20189Y-30975D01*
X20178Y-30975D01*
X20178Y-29684D01*
X20178Y-29093D01*
X20132Y-28983D01*
X20048Y-28899D01*
X19937Y-28853D01*
X19818Y-28853D01*
X19464Y-28853D01*
X19391Y-28883D01*
X19383Y-28877D01*
X19200Y-28841D01*
X19018Y-28877D01*
X18863Y-28981D01*
X18759Y-29136D01*
X18723Y-29318D01*
X18723Y-29578D01*
X18759Y-29760D01*
X18863Y-29915D01*
X19018Y-30019D01*
X19200Y-30055D01*
X19383Y-30019D01*
X19391Y-30013D01*
X19463Y-30043D01*
X19583Y-30043D01*
X19937Y-30043D01*
X20047Y-29998D01*
X20132Y-29913D01*
X20177Y-29803D01*
X20178Y-29684D01*
X20178Y-30975D01*
X20065Y-30974D01*
X19957Y-30867D01*
X19828Y-30780D01*
X19802Y-30775D01*
X19675Y-30750D01*
X17335Y-30750D01*
X17349Y-30714D01*
X17350Y-30486D01*
X17262Y-30274D01*
X17175Y-30186D01*
X17175Y-29613D01*
X17223Y-29564D01*
X17223Y-29578D01*
X17259Y-29760D01*
X17363Y-29915D01*
X17518Y-30019D01*
X17700Y-30055D01*
X17883Y-30019D01*
X17950Y-29974D01*
X18018Y-30019D01*
X18200Y-30055D01*
X18383Y-30019D01*
X18538Y-29915D01*
X18641Y-29760D01*
X18677Y-29578D01*
X18677Y-29318D01*
X18641Y-29136D01*
X18538Y-28981D01*
X18383Y-28877D01*
X18200Y-28841D01*
X18018Y-28877D01*
X17950Y-28922D01*
X17883Y-28877D01*
X17700Y-28841D01*
X17518Y-28877D01*
X17363Y-28981D01*
X17328Y-29033D01*
X17262Y-28874D01*
X17225Y-28837D01*
X17362Y-28701D01*
X17449Y-28489D01*
X17450Y-28261D01*
X17393Y-28124D01*
X17613Y-28125D01*
X17825Y-28037D01*
X17863Y-28000D01*
X18150Y-28000D01*
X18150Y-27999D01*
X18277Y-27974D01*
X18303Y-27969D01*
X18303Y-27969D01*
X18432Y-27882D01*
X18707Y-27607D01*
X18707Y-27607D01*
X18794Y-27478D01*
X18794Y-27478D01*
X18799Y-27452D01*
X18824Y-27325D01*
X18825Y-27325D01*
X18825Y-26350D01*
X18824Y-26349D01*
X18794Y-26196D01*
X18794Y-26196D01*
X18707Y-26067D01*
X18707Y-26067D01*
X18307Y-25667D01*
X18178Y-25580D01*
X18152Y-25575D01*
X18025Y-25550D01*
X16304Y-25550D01*
X16304Y-24720D01*
X16205Y-24479D01*
X16021Y-24295D01*
X15780Y-24195D01*
X15520Y-24195D01*
X15279Y-24294D01*
X15095Y-24478D01*
X14995Y-24719D01*
X14995Y-24979D01*
X15094Y-25220D01*
X15278Y-25404D01*
X15519Y-25504D01*
X15779Y-25504D01*
X16020Y-25405D01*
X16204Y-25221D01*
X16304Y-24980D01*
X16304Y-24720D01*
X16304Y-25550D01*
X15400Y-25550D01*
X15272Y-25575D01*
X15246Y-25580D01*
X15117Y-25667D01*
X14784Y-26000D01*
X14661Y-25999D01*
X14449Y-26087D01*
X14369Y-26166D01*
X14305Y-26009D01*
X14175Y-25879D01*
X14304Y-25751D01*
X14404Y-25510D01*
X14404Y-25250D01*
X14305Y-25009D01*
X14279Y-24983D01*
X14358Y-24904D01*
X14404Y-24794D01*
X14404Y-24674D01*
X14404Y-23966D01*
X14358Y-23855D01*
X14274Y-23771D01*
X14164Y-23725D01*
X14044Y-23725D01*
X13336Y-23725D01*
X13225Y-23771D01*
X13141Y-23855D01*
X13095Y-23965D01*
X13095Y-23980D01*
X12975Y-23980D01*
X12881Y-23885D01*
X12640Y-23785D01*
X12380Y-23785D01*
X12139Y-23884D01*
X11955Y-24068D01*
X11855Y-24309D01*
X11855Y-24569D01*
X11954Y-24810D01*
X12138Y-24994D01*
X12379Y-25094D01*
X12639Y-25094D01*
X12880Y-24995D01*
X13064Y-24811D01*
X13077Y-24780D01*
X13095Y-24780D01*
X13095Y-24793D01*
X13141Y-24904D01*
X13220Y-24983D01*
X13195Y-25008D01*
X13095Y-25249D01*
X13095Y-25509D01*
X13194Y-25750D01*
X13324Y-25880D01*
X13195Y-26008D01*
X13095Y-26249D01*
X13095Y-26509D01*
X13194Y-26750D01*
X13378Y-26934D01*
X13619Y-27034D01*
X13879Y-27034D01*
X14023Y-26975D01*
X14361Y-26975D01*
X14448Y-27062D01*
X14518Y-27091D01*
X13959Y-27650D01*
X13264Y-27650D01*
X13119Y-27678D01*
X13164Y-27570D01*
X13164Y-27310D01*
X13065Y-27069D01*
X12881Y-26885D01*
X12640Y-26785D01*
X12380Y-26785D01*
X12139Y-26884D01*
X11955Y-27068D01*
X11855Y-27309D01*
X11855Y-27569D01*
X11954Y-27810D01*
X12110Y-27965D01*
X12110Y-28037D01*
X12135Y-28165D01*
X12140Y-28190D01*
X12227Y-28320D01*
X12239Y-28332D01*
X12239Y-28509D01*
X11767Y-28982D01*
X11680Y-29111D01*
X11675Y-29137D01*
X11650Y-29264D01*
X11650Y-31780D01*
X11675Y-31907D01*
X11680Y-31933D01*
X11767Y-32062D01*
X12365Y-32660D01*
X12364Y-32783D01*
X12452Y-32995D01*
X12613Y-33157D01*
X12825Y-33244D01*
X13053Y-33245D01*
X13265Y-33157D01*
X13427Y-32996D01*
X13514Y-32784D01*
X13515Y-32556D01*
X13427Y-32344D01*
X13266Y-32182D01*
X13054Y-32095D01*
X12930Y-32094D01*
X12911Y-32075D01*
X13023Y-32075D01*
X13263Y-31976D01*
X13274Y-31965D01*
X13274Y-32038D01*
X13362Y-32250D01*
X13523Y-32412D01*
X13735Y-32499D01*
X13963Y-32500D01*
X14128Y-32432D01*
X11004Y-35555D01*
X11004Y-21477D01*
X17896Y-21477D01*
X17442Y-21932D01*
X17355Y-22061D01*
X17350Y-22087D01*
X17325Y-22215D01*
X17325Y-23099D01*
X17284Y-23139D01*
X17284Y-22925D01*
X17284Y-22255D01*
X17239Y-22145D01*
X17154Y-22061D01*
X17044Y-22015D01*
X16925Y-22015D01*
X16255Y-22015D01*
X16145Y-22060D01*
X16061Y-22145D01*
X16015Y-22255D01*
X16015Y-22374D01*
X16015Y-23044D01*
X16060Y-23154D01*
X16145Y-23238D01*
X16255Y-23284D01*
X16374Y-23284D01*
X17044Y-23284D01*
X17154Y-23239D01*
X17238Y-23154D01*
X17284Y-23044D01*
X17284Y-22925D01*
X17284Y-23139D01*
X17170Y-23253D01*
X17070Y-23494D01*
X17070Y-23754D01*
X17169Y-23995D01*
X17353Y-24179D01*
X17594Y-24279D01*
X17854Y-24279D01*
X18095Y-24180D01*
X18279Y-23996D01*
X18379Y-23755D01*
X18379Y-23495D01*
X18280Y-23254D01*
X18125Y-23099D01*
X18125Y-22380D01*
X18505Y-22000D01*
X20088Y-22000D01*
X20047Y-22061D01*
X20018Y-22204D01*
X20018Y-24139D01*
X19998Y-24119D01*
X19667Y-23982D01*
X19309Y-23981D01*
X18979Y-24118D01*
X18725Y-24371D01*
X18588Y-24702D01*
X18588Y-25060D01*
X18724Y-25391D01*
X18977Y-25644D01*
X19308Y-25781D01*
X19666Y-25782D01*
X19997Y-25645D01*
X20018Y-25623D01*
X20018Y-27559D01*
X20047Y-27702D01*
X20128Y-27824D01*
X20250Y-27905D01*
X20393Y-27934D01*
X26940Y-27934D01*
G54D10*
G36*
X27190Y-38872D02*
X27052Y-39010D01*
X26956Y-39243D01*
X26955Y-39495D01*
X27039Y-39698D01*
X24488Y-39698D01*
X24360Y-39723D01*
X24335Y-39728D01*
X24205Y-39815D01*
X24203Y-39817D01*
X24225Y-39764D01*
X24225Y-39645D01*
X24225Y-38976D01*
X24179Y-38865D01*
X24095Y-38781D01*
X23990Y-38737D01*
X23990Y-38504D01*
X24062Y-38504D01*
X24317Y-38399D01*
X24425Y-38291D01*
X24531Y-38398D01*
X24786Y-38504D01*
X25062Y-38504D01*
X25317Y-38399D01*
X25425Y-38291D01*
X25531Y-38398D01*
X25786Y-38504D01*
X26062Y-38504D01*
X26317Y-38399D01*
X26425Y-38291D01*
X26531Y-38398D01*
X26786Y-38504D01*
X27062Y-38504D01*
X27190Y-38451D01*
X27190Y-38872D01*
X27190Y-38872D01*
G37*
G54D37*
X27190Y-38872D02*
X27052Y-39010D01*
X26956Y-39243D01*
X26955Y-39495D01*
X27039Y-39698D01*
X24488Y-39698D01*
X24360Y-39723D01*
X24335Y-39728D01*
X24205Y-39815D01*
X24203Y-39817D01*
X24225Y-39764D01*
X24225Y-39645D01*
X24225Y-38976D01*
X24179Y-38865D01*
X24095Y-38781D01*
X23990Y-38737D01*
X23990Y-38504D01*
X24062Y-38504D01*
X24317Y-38399D01*
X24425Y-38291D01*
X24531Y-38398D01*
X24786Y-38504D01*
X25062Y-38504D01*
X25317Y-38399D01*
X25425Y-38291D01*
X25531Y-38398D01*
X25786Y-38504D01*
X26062Y-38504D01*
X26317Y-38399D01*
X26425Y-38291D01*
X26531Y-38398D01*
X26786Y-38504D01*
X27062Y-38504D01*
X27190Y-38451D01*
X27190Y-38872D01*
G54D10*
G36*
X27217Y-32919D02*
X27212Y-32923D01*
X27125Y-33135D01*
X27124Y-33363D01*
X27160Y-33450D01*
X25665Y-33450D01*
X25182Y-32967D01*
X25111Y-32919D01*
X25194Y-32919D01*
X25444Y-32919D01*
X26889Y-32919D01*
X27217Y-32919D01*
X27217Y-32919D01*
G37*
G54D37*
X27217Y-32919D02*
X27212Y-32923D01*
X27125Y-33135D01*
X27124Y-33363D01*
X27160Y-33450D01*
X25665Y-33450D01*
X25182Y-32967D01*
X25111Y-32919D01*
X25194Y-32919D01*
X25444Y-32919D01*
X26889Y-32919D01*
X27217Y-32919D01*
G54D10*
G36*
X27888Y-45954D02*
X27850Y-46046D01*
X27850Y-46275D01*
X27880Y-46350D01*
X27506Y-46350D01*
X27506Y-45563D01*
X27537Y-45542D01*
X27606Y-45439D01*
X27674Y-45542D01*
X27706Y-45563D01*
X27706Y-45606D01*
X27731Y-45733D01*
X27736Y-45759D01*
X27823Y-45889D01*
X27888Y-45954D01*
X27888Y-45954D01*
G37*
G54D37*
X27888Y-45954D02*
X27850Y-46046D01*
X27850Y-46275D01*
X27880Y-46350D01*
X27506Y-46350D01*
X27506Y-45563D01*
X27537Y-45542D01*
X27606Y-45439D01*
X27674Y-45542D01*
X27706Y-45563D01*
X27706Y-45606D01*
X27731Y-45733D01*
X27736Y-45759D01*
X27823Y-45889D01*
X27888Y-45954D01*
G54D10*
G36*
X28722Y-45662D02*
X28720Y-45661D01*
X28708Y-45642D01*
X28708Y-45642D01*
X28565Y-45500D01*
X28606Y-45439D01*
X28674Y-45542D01*
X28706Y-45563D01*
X28706Y-45581D01*
X28722Y-45662D01*
X28722Y-45662D01*
G37*
G54D37*
X28722Y-45662D02*
X28720Y-45661D01*
X28708Y-45642D01*
X28708Y-45642D01*
X28565Y-45500D01*
X28606Y-45439D01*
X28674Y-45542D01*
X28706Y-45563D01*
X28706Y-45581D01*
X28722Y-45662D01*
G54D10*
G36*
X29089Y-36911D02*
X29076Y-36911D01*
X29089Y-36897D01*
X29089Y-36911D01*
X29089Y-36911D01*
G37*
G54D37*
X29089Y-36911D02*
X29076Y-36911D01*
X29089Y-36897D01*
X29089Y-36911D01*
G54D10*
G36*
X29091Y-32925D02*
X29089Y-32928D01*
X29089Y-32942D01*
X28757Y-32942D01*
X28604Y-32972D01*
X28561Y-33001D01*
X28474Y-33059D01*
X28274Y-33259D01*
X28275Y-33136D01*
X28201Y-32958D01*
X28240Y-32919D01*
X29025Y-32919D01*
X29048Y-32919D01*
X29048Y-32919D01*
X29074Y-32924D01*
X29075Y-32925D01*
X29091Y-32925D01*
X29091Y-32925D01*
G37*
G54D37*
X29091Y-32925D02*
X29089Y-32928D01*
X29089Y-32942D01*
X28757Y-32942D01*
X28604Y-32972D01*
X28561Y-33001D01*
X28474Y-33059D01*
X28274Y-33259D01*
X28275Y-33136D01*
X28201Y-32958D01*
X28240Y-32919D01*
X29025Y-32919D01*
X29048Y-32919D01*
X29048Y-32919D01*
X29074Y-32924D01*
X29075Y-32925D01*
X29091Y-32925D01*
G54D10*
G36*
X29231Y-27184D02*
X24525Y-27184D01*
X24525Y-24664D01*
X24358Y-24259D01*
X24049Y-23949D01*
X23644Y-23782D01*
X23207Y-23781D01*
X22802Y-23948D01*
X22493Y-24257D01*
X22325Y-24662D01*
X22325Y-25099D01*
X22492Y-25504D01*
X22801Y-25813D01*
X23205Y-25981D01*
X23643Y-25982D01*
X24047Y-25814D01*
X24357Y-25505D01*
X24525Y-25101D01*
X24525Y-24664D01*
X24525Y-27184D01*
X20768Y-27184D01*
X20768Y-22579D01*
X29231Y-22579D01*
X29231Y-27184D01*
X29231Y-27184D01*
G37*
G54D37*
X29231Y-27184D02*
X24525Y-27184D01*
X24525Y-24664D01*
X24358Y-24259D01*
X24049Y-23949D01*
X23644Y-23782D01*
X23207Y-23781D01*
X22802Y-23948D01*
X22493Y-24257D01*
X22325Y-24662D01*
X22325Y-25099D01*
X22492Y-25504D01*
X22801Y-25813D01*
X23205Y-25981D01*
X23643Y-25982D01*
X24047Y-25814D01*
X24357Y-25505D01*
X24525Y-25101D01*
X24525Y-24664D01*
X24525Y-27184D01*
X20768Y-27184D01*
X20768Y-22579D01*
X29231Y-22579D01*
X29231Y-27184D01*
G54D10*
G36*
X29646Y-28610D02*
X29605Y-28671D01*
X29600Y-28697D01*
X29575Y-28825D01*
X29575Y-28977D01*
X29496Y-28899D01*
X29386Y-28853D01*
X29267Y-28853D01*
X28913Y-28853D01*
X28840Y-28883D01*
X28832Y-28877D01*
X28649Y-28841D01*
X28467Y-28877D01*
X28312Y-28981D01*
X28208Y-29136D01*
X28172Y-29318D01*
X28172Y-29578D01*
X28208Y-29760D01*
X28312Y-29915D01*
X28467Y-30019D01*
X28649Y-30055D01*
X28832Y-30019D01*
X28840Y-30013D01*
X28912Y-30043D01*
X29031Y-30043D01*
X29386Y-30043D01*
X29496Y-29998D01*
X29575Y-29919D01*
X29575Y-30211D01*
X29487Y-30298D01*
X29400Y-30510D01*
X29399Y-30738D01*
X29472Y-30914D01*
X28790Y-30914D01*
X28338Y-30914D01*
X28256Y-30832D01*
X28044Y-30745D01*
X27816Y-30744D01*
X27604Y-30832D01*
X27442Y-30993D01*
X27355Y-31205D01*
X27354Y-31433D01*
X27442Y-31645D01*
X27603Y-31807D01*
X27815Y-31894D01*
X28043Y-31895D01*
X28255Y-31807D01*
X28348Y-31714D01*
X28364Y-31714D01*
X28325Y-31810D01*
X28324Y-32038D01*
X28358Y-32119D01*
X28075Y-32119D01*
X27555Y-32119D01*
X26889Y-32119D01*
X26351Y-32119D01*
X26550Y-32037D01*
X26712Y-31876D01*
X26799Y-31664D01*
X26800Y-31540D01*
X26857Y-31482D01*
X26857Y-31482D01*
X26944Y-31353D01*
X26944Y-31353D01*
X26944Y-31353D01*
X26974Y-31200D01*
X26975Y-31200D01*
X26975Y-30020D01*
X27149Y-30055D01*
X27332Y-30019D01*
X27399Y-29974D01*
X27467Y-30019D01*
X27649Y-30055D01*
X27832Y-30019D01*
X27987Y-29915D01*
X28090Y-29760D01*
X28126Y-29578D01*
X28126Y-29318D01*
X28090Y-29136D01*
X27987Y-28981D01*
X27832Y-28877D01*
X27649Y-28841D01*
X27467Y-28877D01*
X27399Y-28922D01*
X27332Y-28877D01*
X27161Y-28844D01*
X27395Y-28610D01*
X29646Y-28610D01*
X29646Y-28610D01*
G37*
G54D37*
X29646Y-28610D02*
X29605Y-28671D01*
X29600Y-28697D01*
X29575Y-28825D01*
X29575Y-28977D01*
X29496Y-28899D01*
X29386Y-28853D01*
X29267Y-28853D01*
X28913Y-28853D01*
X28840Y-28883D01*
X28832Y-28877D01*
X28649Y-28841D01*
X28467Y-28877D01*
X28312Y-28981D01*
X28208Y-29136D01*
X28172Y-29318D01*
X28172Y-29578D01*
X28208Y-29760D01*
X28312Y-29915D01*
X28467Y-30019D01*
X28649Y-30055D01*
X28832Y-30019D01*
X28840Y-30013D01*
X28912Y-30043D01*
X29031Y-30043D01*
X29386Y-30043D01*
X29496Y-29998D01*
X29575Y-29919D01*
X29575Y-30211D01*
X29487Y-30298D01*
X29400Y-30510D01*
X29399Y-30738D01*
X29472Y-30914D01*
X28790Y-30914D01*
X28338Y-30914D01*
X28256Y-30832D01*
X28044Y-30745D01*
X27816Y-30744D01*
X27604Y-30832D01*
X27442Y-30993D01*
X27355Y-31205D01*
X27354Y-31433D01*
X27442Y-31645D01*
X27603Y-31807D01*
X27815Y-31894D01*
X28043Y-31895D01*
X28255Y-31807D01*
X28348Y-31714D01*
X28364Y-31714D01*
X28325Y-31810D01*
X28324Y-32038D01*
X28358Y-32119D01*
X28075Y-32119D01*
X27555Y-32119D01*
X26889Y-32119D01*
X26351Y-32119D01*
X26550Y-32037D01*
X26712Y-31876D01*
X26799Y-31664D01*
X26800Y-31540D01*
X26857Y-31482D01*
X26857Y-31482D01*
X26944Y-31353D01*
X26944Y-31353D01*
X26944Y-31353D01*
X26974Y-31200D01*
X26975Y-31200D01*
X26975Y-30020D01*
X27149Y-30055D01*
X27332Y-30019D01*
X27399Y-29974D01*
X27467Y-30019D01*
X27649Y-30055D01*
X27832Y-30019D01*
X27987Y-29915D01*
X28090Y-29760D01*
X28126Y-29578D01*
X28126Y-29318D01*
X28090Y-29136D01*
X27987Y-28981D01*
X27832Y-28877D01*
X27649Y-28841D01*
X27467Y-28877D01*
X27399Y-28922D01*
X27332Y-28877D01*
X27161Y-28844D01*
X27395Y-28610D01*
X29646Y-28610D01*
G54D10*
G36*
X29872Y-52947D02*
X29714Y-53105D01*
X29596Y-53129D01*
X29571Y-53134D01*
X29441Y-53221D01*
X29376Y-53286D01*
X29376Y-51929D01*
X29376Y-50564D01*
X29459Y-50647D01*
X29569Y-50693D01*
X29662Y-50693D01*
X29662Y-50940D01*
X29662Y-51023D01*
X29662Y-52037D01*
X29645Y-52080D01*
X29644Y-52199D01*
X29644Y-52711D01*
X29690Y-52822D01*
X29774Y-52906D01*
X29872Y-52947D01*
X29872Y-52947D01*
G37*
G54D37*
X29872Y-52947D02*
X29714Y-53105D01*
X29596Y-53129D01*
X29571Y-53134D01*
X29441Y-53221D01*
X29376Y-53286D01*
X29376Y-51929D01*
X29376Y-50564D01*
X29459Y-50647D01*
X29569Y-50693D01*
X29662Y-50693D01*
X29662Y-50940D01*
X29662Y-51023D01*
X29662Y-52037D01*
X29645Y-52080D01*
X29644Y-52199D01*
X29644Y-52711D01*
X29690Y-52822D01*
X29774Y-52906D01*
X29872Y-52947D01*
G54D10*
G36*
X30473Y-51840D02*
X30462Y-51840D01*
X30462Y-51830D01*
X30473Y-51840D01*
X30473Y-51840D01*
G37*
G54D37*
X30473Y-51840D02*
X30462Y-51840D01*
X30462Y-51830D01*
X30473Y-51840D01*
G54D10*
G36*
X30562Y-31714D02*
X30429Y-31769D01*
X30245Y-31953D01*
X30176Y-32119D01*
X29441Y-32119D01*
X29474Y-32039D01*
X29475Y-31811D01*
X29435Y-31714D01*
X29500Y-31714D01*
X30562Y-31714D01*
X30562Y-31714D01*
G37*
G54D37*
X30562Y-31714D02*
X30429Y-31769D01*
X30245Y-31953D01*
X30176Y-32119D01*
X29441Y-32119D01*
X29474Y-32039D01*
X29475Y-31811D01*
X29435Y-31714D01*
X29500Y-31714D01*
X30562Y-31714D01*
G54D10*
G36*
X30662Y-54010D02*
X30393Y-54010D01*
X30283Y-54055D01*
X30198Y-54140D01*
X30196Y-54146D01*
X29647Y-54146D01*
X29892Y-53901D01*
X29892Y-53901D01*
X30009Y-53878D01*
X30034Y-53873D01*
X30034Y-53873D01*
X30164Y-53786D01*
X30662Y-53288D01*
X30662Y-54010D01*
X30662Y-54010D01*
G37*
G54D37*
X30662Y-54010D02*
X30393Y-54010D01*
X30283Y-54055D01*
X30198Y-54140D01*
X30196Y-54146D01*
X29647Y-54146D01*
X29892Y-53901D01*
X29892Y-53901D01*
X30009Y-53878D01*
X30034Y-53873D01*
X30034Y-53873D01*
X30164Y-53786D01*
X30662Y-53288D01*
X30662Y-54010D01*
G54D10*
G36*
X30672Y-25782D02*
X30457Y-25997D01*
X30370Y-26126D01*
X30365Y-26152D01*
X30340Y-26280D01*
X30340Y-26600D01*
X30340Y-27194D01*
X29981Y-27553D01*
X29981Y-25628D01*
X29997Y-25644D01*
X30328Y-25781D01*
X30672Y-25782D01*
X30672Y-25782D01*
G37*
G54D37*
X30672Y-25782D02*
X30457Y-25997D01*
X30370Y-26126D01*
X30365Y-26152D01*
X30340Y-26280D01*
X30340Y-26600D01*
X30340Y-27194D01*
X29981Y-27553D01*
X29981Y-25628D01*
X29997Y-25644D01*
X30328Y-25781D01*
X30672Y-25782D01*
G54D10*
G36*
X30706Y-48649D02*
X30582Y-48773D01*
X30099Y-48773D01*
X30162Y-48710D01*
X30339Y-48674D01*
X30537Y-48542D01*
X30606Y-48439D01*
X30674Y-48542D01*
X30706Y-48563D01*
X30706Y-48649D01*
X30706Y-48649D01*
G37*
G54D37*
X30706Y-48649D02*
X30582Y-48773D01*
X30099Y-48773D01*
X30162Y-48710D01*
X30339Y-48674D01*
X30537Y-48542D01*
X30606Y-48439D01*
X30674Y-48542D01*
X30706Y-48563D01*
X30706Y-48649D01*
G54D10*
G36*
X31292Y-36043D02*
X31263Y-35972D01*
X31079Y-35788D01*
X31055Y-35778D01*
X30991Y-35681D01*
X30991Y-35681D01*
X30696Y-35386D01*
X30566Y-35299D01*
X30541Y-35294D01*
X30413Y-35269D01*
X29185Y-35269D01*
X29057Y-35294D01*
X29031Y-35299D01*
X28902Y-35386D01*
X28632Y-35656D01*
X28129Y-35656D01*
X28019Y-35702D01*
X27934Y-35786D01*
X27889Y-35896D01*
X27889Y-35911D01*
X27118Y-35911D01*
X27118Y-35673D01*
X27013Y-35418D01*
X26818Y-35223D01*
X26627Y-35144D01*
X31054Y-35144D01*
X31292Y-35382D01*
X31292Y-35728D01*
X31292Y-36043D01*
X31292Y-36043D01*
G37*
G54D37*
X31292Y-36043D02*
X31263Y-35972D01*
X31079Y-35788D01*
X31055Y-35778D01*
X30991Y-35681D01*
X30991Y-35681D01*
X30696Y-35386D01*
X30566Y-35299D01*
X30541Y-35294D01*
X30413Y-35269D01*
X29185Y-35269D01*
X29057Y-35294D01*
X29031Y-35299D01*
X28902Y-35386D01*
X28632Y-35656D01*
X28129Y-35656D01*
X28019Y-35702D01*
X27934Y-35786D01*
X27889Y-35896D01*
X27889Y-35911D01*
X27118Y-35911D01*
X27118Y-35673D01*
X27013Y-35418D01*
X26818Y-35223D01*
X26627Y-35144D01*
X31054Y-35144D01*
X31292Y-35382D01*
X31292Y-35728D01*
X31292Y-36043D01*
G54D10*
G36*
X31292Y-39668D02*
X31288Y-39669D01*
X31254Y-39703D01*
X31079Y-39528D01*
X30839Y-39428D01*
X30579Y-39428D01*
X30338Y-39527D01*
X30216Y-39649D01*
X30095Y-39528D01*
X29855Y-39428D01*
X29594Y-39428D01*
X29354Y-39527D01*
X29183Y-39698D01*
X28141Y-39698D01*
X28225Y-39496D01*
X28225Y-39244D01*
X28128Y-39011D01*
X27990Y-38872D01*
X27990Y-37984D01*
X27990Y-37984D01*
X27960Y-37831D01*
X27960Y-37831D01*
X27873Y-37701D01*
X27873Y-37701D01*
X27700Y-37528D01*
X27570Y-37441D01*
X27544Y-37436D01*
X27518Y-37431D01*
X27518Y-37431D01*
X27513Y-37418D01*
X27424Y-37329D01*
X27888Y-37329D01*
X27888Y-37440D01*
X27988Y-37681D01*
X28172Y-37865D01*
X28412Y-37965D01*
X28672Y-37965D01*
X28913Y-37866D01*
X29068Y-37711D01*
X29267Y-37711D01*
X29329Y-37736D01*
X29449Y-37737D01*
X30118Y-37737D01*
X30216Y-37696D01*
X30314Y-37736D01*
X30433Y-37737D01*
X31102Y-37737D01*
X31213Y-37691D01*
X31292Y-37611D01*
X31292Y-38732D01*
X31292Y-38976D01*
X31292Y-39015D01*
X31292Y-39280D01*
X31292Y-39668D01*
X31292Y-39668D01*
G37*
G54D37*
X31292Y-39668D02*
X31288Y-39669D01*
X31254Y-39703D01*
X31079Y-39528D01*
X30839Y-39428D01*
X30579Y-39428D01*
X30338Y-39527D01*
X30216Y-39649D01*
X30095Y-39528D01*
X29855Y-39428D01*
X29594Y-39428D01*
X29354Y-39527D01*
X29183Y-39698D01*
X28141Y-39698D01*
X28225Y-39496D01*
X28225Y-39244D01*
X28128Y-39011D01*
X27990Y-38872D01*
X27990Y-37984D01*
X27990Y-37984D01*
X27960Y-37831D01*
X27960Y-37831D01*
X27873Y-37701D01*
X27873Y-37701D01*
X27700Y-37528D01*
X27570Y-37441D01*
X27544Y-37436D01*
X27518Y-37431D01*
X27518Y-37431D01*
X27513Y-37418D01*
X27424Y-37329D01*
X27888Y-37329D01*
X27888Y-37440D01*
X27988Y-37681D01*
X28172Y-37865D01*
X28412Y-37965D01*
X28672Y-37965D01*
X28913Y-37866D01*
X29068Y-37711D01*
X29267Y-37711D01*
X29329Y-37736D01*
X29449Y-37737D01*
X30118Y-37737D01*
X30216Y-37696D01*
X30314Y-37736D01*
X30433Y-37737D01*
X31102Y-37737D01*
X31213Y-37691D01*
X31292Y-37611D01*
X31292Y-38732D01*
X31292Y-38976D01*
X31292Y-39015D01*
X31292Y-39280D01*
X31292Y-39668D01*
G54D10*
G36*
X31464Y-30815D02*
X31364Y-30914D01*
X30477Y-30914D01*
X30549Y-30739D01*
X30550Y-30511D01*
X30462Y-30299D01*
X30375Y-30211D01*
X30375Y-29825D01*
X30428Y-29879D01*
X30669Y-29979D01*
X30929Y-29979D01*
X31170Y-29880D01*
X31260Y-29789D01*
X31280Y-29839D01*
X31360Y-29918D01*
X31335Y-29943D01*
X31235Y-30184D01*
X31235Y-30444D01*
X31334Y-30685D01*
X31464Y-30815D01*
X31464Y-30815D01*
G37*
G54D37*
X31464Y-30815D02*
X31364Y-30914D01*
X30477Y-30914D01*
X30549Y-30739D01*
X30550Y-30511D01*
X30462Y-30299D01*
X30375Y-30211D01*
X30375Y-29825D01*
X30428Y-29879D01*
X30669Y-29979D01*
X30929Y-29979D01*
X31170Y-29880D01*
X31260Y-29789D01*
X31280Y-29839D01*
X31360Y-29918D01*
X31335Y-29943D01*
X31235Y-30184D01*
X31235Y-30444D01*
X31334Y-30685D01*
X31464Y-30815D01*
G54D10*
G36*
X31652Y-31925D02*
X31325Y-31925D01*
X31171Y-31770D01*
X31037Y-31714D01*
X31364Y-31714D01*
X31518Y-31869D01*
X31652Y-31925D01*
X31652Y-31925D01*
G37*
G54D37*
X31652Y-31925D02*
X31325Y-31925D01*
X31171Y-31770D01*
X31037Y-31714D01*
X31364Y-31714D01*
X31518Y-31869D01*
X31652Y-31925D01*
G54D10*
G36*
X31700Y-48615D02*
X31653Y-48615D01*
X31525Y-48641D01*
X31506Y-48645D01*
X31506Y-48563D01*
X31537Y-48542D01*
X31573Y-48488D01*
X31700Y-48615D01*
X31700Y-48615D01*
G37*
G54D37*
X31700Y-48615D02*
X31653Y-48615D01*
X31525Y-48641D01*
X31506Y-48645D01*
X31506Y-48563D01*
X31537Y-48542D01*
X31573Y-48488D01*
X31700Y-48615D01*
G54D10*
G36*
X31894Y-28660D02*
X31476Y-28660D01*
X31365Y-28706D01*
X31281Y-28790D01*
X31254Y-28854D01*
X31171Y-28770D01*
X30933Y-28672D01*
X31420Y-28185D01*
X31894Y-28660D01*
X31894Y-28660D01*
G37*
G54D37*
X31894Y-28660D02*
X31476Y-28660D01*
X31365Y-28706D01*
X31281Y-28790D01*
X31254Y-28854D01*
X31171Y-28770D01*
X30933Y-28672D01*
X31420Y-28185D01*
X31894Y-28660D01*
G54D10*
G36*
X32154Y-42601D02*
X32000Y-42754D01*
X31900Y-42995D01*
X31900Y-43255D01*
X31912Y-43283D01*
X31815Y-43283D01*
X31603Y-43370D01*
X31506Y-43467D01*
X31506Y-43155D01*
X31559Y-43028D01*
X31559Y-42799D01*
X31471Y-42588D01*
X31310Y-42426D01*
X31099Y-42338D01*
X30870Y-42338D01*
X30658Y-42425D01*
X30497Y-42587D01*
X30409Y-42798D01*
X30409Y-43027D01*
X30496Y-43238D01*
X30658Y-43400D01*
X30706Y-43420D01*
X30706Y-44291D01*
X30706Y-44349D01*
X30674Y-44370D01*
X30606Y-44473D01*
X30537Y-44370D01*
X30506Y-44349D01*
X30506Y-43976D01*
X30506Y-43728D01*
X30475Y-43575D01*
X30475Y-43575D01*
X30447Y-43532D01*
X30389Y-43445D01*
X30389Y-43445D01*
X29260Y-42316D01*
X29275Y-42280D01*
X29275Y-42051D01*
X29188Y-41840D01*
X29026Y-41678D01*
X28815Y-41590D01*
X28586Y-41590D01*
X28375Y-41677D01*
X28213Y-41839D01*
X28125Y-42050D01*
X28125Y-42279D01*
X28213Y-42490D01*
X28374Y-42652D01*
X28528Y-42716D01*
X29706Y-43894D01*
X29706Y-43976D01*
X29706Y-44349D01*
X29674Y-44370D01*
X29606Y-44473D01*
X29537Y-44370D01*
X29339Y-44238D01*
X29106Y-44191D01*
X28872Y-44238D01*
X28674Y-44370D01*
X28606Y-44473D01*
X28537Y-44370D01*
X28339Y-44238D01*
X28106Y-44191D01*
X27872Y-44238D01*
X27674Y-44370D01*
X27606Y-44473D01*
X27537Y-44370D01*
X27506Y-44349D01*
X27506Y-43674D01*
X27579Y-43674D01*
X27689Y-43628D01*
X27773Y-43544D01*
X27819Y-43433D01*
X27819Y-43314D01*
X27819Y-42605D01*
X27774Y-42495D01*
X27694Y-42415D01*
X27719Y-42390D01*
X27819Y-42150D01*
X27819Y-41890D01*
X27720Y-41649D01*
X27536Y-41465D01*
X27296Y-41365D01*
X27289Y-41365D01*
X27146Y-41222D01*
X29697Y-41222D01*
X29681Y-41263D01*
X29680Y-41491D01*
X29768Y-41703D01*
X29929Y-41865D01*
X30141Y-41952D01*
X30369Y-41953D01*
X30581Y-41865D01*
X30669Y-41777D01*
X31330Y-41777D01*
X32154Y-42601D01*
X32154Y-42601D01*
G37*
G54D37*
X32154Y-42601D02*
X32000Y-42754D01*
X31900Y-42995D01*
X31900Y-43255D01*
X31912Y-43283D01*
X31815Y-43283D01*
X31603Y-43370D01*
X31506Y-43467D01*
X31506Y-43155D01*
X31559Y-43028D01*
X31559Y-42799D01*
X31471Y-42588D01*
X31310Y-42426D01*
X31099Y-42338D01*
X30870Y-42338D01*
X30658Y-42425D01*
X30497Y-42587D01*
X30409Y-42798D01*
X30409Y-43027D01*
X30496Y-43238D01*
X30658Y-43400D01*
X30706Y-43420D01*
X30706Y-44291D01*
X30706Y-44349D01*
X30674Y-44370D01*
X30606Y-44473D01*
X30537Y-44370D01*
X30506Y-44349D01*
X30506Y-43976D01*
X30506Y-43728D01*
X30475Y-43575D01*
X30475Y-43575D01*
X30447Y-43532D01*
X30389Y-43445D01*
X30389Y-43445D01*
X29260Y-42316D01*
X29275Y-42280D01*
X29275Y-42051D01*
X29188Y-41840D01*
X29026Y-41678D01*
X28815Y-41590D01*
X28586Y-41590D01*
X28375Y-41677D01*
X28213Y-41839D01*
X28125Y-42050D01*
X28125Y-42279D01*
X28213Y-42490D01*
X28374Y-42652D01*
X28528Y-42716D01*
X29706Y-43894D01*
X29706Y-43976D01*
X29706Y-44349D01*
X29674Y-44370D01*
X29606Y-44473D01*
X29537Y-44370D01*
X29339Y-44238D01*
X29106Y-44191D01*
X28872Y-44238D01*
X28674Y-44370D01*
X28606Y-44473D01*
X28537Y-44370D01*
X28339Y-44238D01*
X28106Y-44191D01*
X27872Y-44238D01*
X27674Y-44370D01*
X27606Y-44473D01*
X27537Y-44370D01*
X27506Y-44349D01*
X27506Y-43674D01*
X27579Y-43674D01*
X27689Y-43628D01*
X27773Y-43544D01*
X27819Y-43433D01*
X27819Y-43314D01*
X27819Y-42605D01*
X27774Y-42495D01*
X27694Y-42415D01*
X27719Y-42390D01*
X27819Y-42150D01*
X27819Y-41890D01*
X27720Y-41649D01*
X27536Y-41465D01*
X27296Y-41365D01*
X27289Y-41365D01*
X27146Y-41222D01*
X29697Y-41222D01*
X29681Y-41263D01*
X29680Y-41491D01*
X29768Y-41703D01*
X29929Y-41865D01*
X30141Y-41952D01*
X30369Y-41953D01*
X30581Y-41865D01*
X30669Y-41777D01*
X31330Y-41777D01*
X32154Y-42601D01*
G54D10*
G36*
X32254Y-31925D02*
X32126Y-31925D01*
X32249Y-31874D01*
X32249Y-31913D01*
X32254Y-31925D01*
X32254Y-31925D01*
G37*
G54D37*
X32254Y-31925D02*
X32126Y-31925D01*
X32249Y-31874D01*
X32249Y-31913D01*
X32254Y-31925D01*
G54D10*
G36*
X32349Y-22000D02*
X32195Y-22153D01*
X32095Y-22394D01*
X32095Y-22654D01*
X32194Y-22895D01*
X32309Y-23010D01*
X32104Y-23094D01*
X31920Y-23278D01*
X31820Y-23519D01*
X31820Y-23779D01*
X31919Y-24020D01*
X32075Y-24175D01*
X32075Y-24619D01*
X31094Y-25600D01*
X31062Y-25600D01*
X31270Y-25392D01*
X31407Y-25061D01*
X31408Y-24703D01*
X31271Y-24372D01*
X31018Y-24119D01*
X30687Y-23982D01*
X30329Y-23981D01*
X29998Y-24118D01*
X29981Y-24136D01*
X29981Y-22204D01*
X29952Y-22061D01*
X29911Y-22000D01*
X32349Y-22000D01*
X32349Y-22000D01*
G37*
G54D37*
X32349Y-22000D02*
X32195Y-22153D01*
X32095Y-22394D01*
X32095Y-22654D01*
X32194Y-22895D01*
X32309Y-23010D01*
X32104Y-23094D01*
X31920Y-23278D01*
X31820Y-23519D01*
X31820Y-23779D01*
X31919Y-24020D01*
X32075Y-24175D01*
X32075Y-24619D01*
X31094Y-25600D01*
X31062Y-25600D01*
X31270Y-25392D01*
X31407Y-25061D01*
X31408Y-24703D01*
X31271Y-24372D01*
X31018Y-24119D01*
X30687Y-23982D01*
X30329Y-23981D01*
X29998Y-24118D01*
X29981Y-24136D01*
X29981Y-22204D01*
X29952Y-22061D01*
X29911Y-22000D01*
X32349Y-22000D01*
G54D10*
G36*
X32430Y-47631D02*
X32298Y-47631D01*
X32162Y-47574D01*
X31933Y-47574D01*
X31721Y-47661D01*
X31693Y-47689D01*
X31669Y-47568D01*
X31640Y-47525D01*
X32304Y-47525D01*
X32396Y-47617D01*
X32430Y-47631D01*
X32430Y-47631D01*
G37*
G54D37*
X32430Y-47631D02*
X32298Y-47631D01*
X32162Y-47574D01*
X31933Y-47574D01*
X31721Y-47661D01*
X31693Y-47689D01*
X31669Y-47568D01*
X31640Y-47525D01*
X32304Y-47525D01*
X32396Y-47617D01*
X32430Y-47631D01*
G54D10*
G36*
X32670Y-30502D02*
X32516Y-30656D01*
X32416Y-30896D01*
X32416Y-30916D01*
X32315Y-30814D01*
X32444Y-30686D01*
X32543Y-30445D01*
X32544Y-30185D01*
X32444Y-29944D01*
X32418Y-29918D01*
X32498Y-29839D01*
X32544Y-29729D01*
X32544Y-29609D01*
X32544Y-29309D01*
X32670Y-29436D01*
X32670Y-30502D01*
X32670Y-30502D01*
G37*
G54D37*
X32670Y-30502D02*
X32516Y-30656D01*
X32416Y-30896D01*
X32416Y-30916D01*
X32315Y-30814D01*
X32444Y-30686D01*
X32543Y-30445D01*
X32544Y-30185D01*
X32444Y-29944D01*
X32418Y-29918D01*
X32498Y-29839D01*
X32544Y-29729D01*
X32544Y-29609D01*
X32544Y-29309D01*
X32670Y-29436D01*
X32670Y-30502D01*
G54D10*
G36*
X32815Y-44462D02*
X32408Y-44462D01*
X32298Y-44508D01*
X32213Y-44592D01*
X32167Y-44703D01*
X32167Y-44822D01*
X32167Y-45097D01*
X31290Y-45975D01*
X31174Y-45975D01*
X31199Y-45914D01*
X31200Y-45702D01*
X31339Y-45674D01*
X31537Y-45542D01*
X31669Y-45344D01*
X31716Y-45111D01*
X31716Y-44801D01*
X31669Y-44568D01*
X31537Y-44370D01*
X31506Y-44349D01*
X31506Y-44291D01*
X31506Y-44248D01*
X31602Y-44345D01*
X31814Y-44433D01*
X32043Y-44433D01*
X32254Y-44346D01*
X32352Y-44248D01*
X32788Y-44248D01*
X32788Y-44330D01*
X32814Y-44458D01*
X32815Y-44462D01*
X32815Y-44462D01*
G37*
G54D37*
X32815Y-44462D02*
X32408Y-44462D01*
X32298Y-44508D01*
X32213Y-44592D01*
X32167Y-44703D01*
X32167Y-44822D01*
X32167Y-45097D01*
X31290Y-45975D01*
X31174Y-45975D01*
X31199Y-45914D01*
X31200Y-45702D01*
X31339Y-45674D01*
X31537Y-45542D01*
X31669Y-45344D01*
X31716Y-45111D01*
X31716Y-44801D01*
X31669Y-44568D01*
X31537Y-44370D01*
X31506Y-44349D01*
X31506Y-44291D01*
X31506Y-44248D01*
X31602Y-44345D01*
X31814Y-44433D01*
X32043Y-44433D01*
X32254Y-44346D01*
X32352Y-44248D01*
X32788Y-44248D01*
X32788Y-44330D01*
X32814Y-44458D01*
X32815Y-44462D01*
G54D10*
G36*
X32850Y-25104D02*
X32474Y-25480D01*
X32345Y-25480D01*
X32757Y-25067D01*
X32757Y-25067D01*
X32815Y-24981D01*
X32844Y-24938D01*
X32844Y-24938D01*
X32850Y-24910D01*
X32850Y-25104D01*
X32850Y-25104D01*
G37*
G54D37*
X32850Y-25104D02*
X32474Y-25480D01*
X32345Y-25480D01*
X32757Y-25067D01*
X32757Y-25067D01*
X32815Y-24981D01*
X32844Y-24938D01*
X32844Y-24938D01*
X32850Y-24910D01*
X32850Y-25104D01*
G54D10*
G36*
X33300Y-28935D02*
X33047Y-28681D01*
X33200Y-28682D01*
X33300Y-28640D01*
X33300Y-28935D01*
X33300Y-28935D01*
G37*
G54D37*
X33300Y-28935D02*
X33047Y-28681D01*
X33200Y-28682D01*
X33300Y-28640D01*
X33300Y-28935D01*
G54D10*
G36*
X33315Y-47536D02*
X33220Y-47631D01*
X33105Y-47631D01*
X33137Y-47618D01*
X33267Y-47488D01*
X33315Y-47536D01*
X33315Y-47536D01*
G37*
G54D37*
X33315Y-47536D02*
X33220Y-47631D01*
X33105Y-47631D01*
X33137Y-47618D01*
X33267Y-47488D01*
X33315Y-47536D01*
G54D10*
G36*
X33333Y-32707D02*
X33322Y-32735D01*
X33321Y-32969D01*
X33312Y-32967D01*
X33185Y-32942D01*
X31343Y-32942D01*
X31343Y-32928D01*
X31297Y-32818D01*
X31264Y-32785D01*
X31325Y-32725D01*
X33245Y-32725D01*
X33245Y-32724D01*
X33333Y-32707D01*
X33333Y-32707D01*
G37*
G54D37*
X33333Y-32707D02*
X33322Y-32735D01*
X33321Y-32969D01*
X33312Y-32967D01*
X33185Y-32942D01*
X31343Y-32942D01*
X31343Y-32928D01*
X31297Y-32818D01*
X31264Y-32785D01*
X31325Y-32725D01*
X33245Y-32725D01*
X33245Y-32724D01*
X33333Y-32707D01*
G54D10*
G36*
X33342Y-45563D02*
X33267Y-45637D01*
X33242Y-45612D01*
X33317Y-45537D01*
X33342Y-45563D01*
X33342Y-45563D01*
G37*
G54D37*
X33342Y-45563D02*
X33267Y-45637D01*
X33242Y-45612D01*
X33317Y-45537D01*
X33342Y-45563D01*
G54D10*
G36*
X33342Y-46563D02*
X33267Y-46637D01*
X33193Y-46562D01*
X33267Y-46488D01*
X33342Y-46563D01*
X33342Y-46563D01*
G37*
G54D37*
X33342Y-46563D02*
X33267Y-46637D01*
X33193Y-46562D01*
X33267Y-46488D01*
X33342Y-46563D01*
G54D10*
G36*
X33349Y-22000D02*
X33249Y-22099D01*
X33150Y-22000D01*
X33349Y-22000D01*
X33349Y-22000D01*
G37*
G54D37*
X33349Y-22000D02*
X33249Y-22099D01*
X33150Y-22000D01*
X33349Y-22000D01*
G54D10*
G36*
X33649Y-43525D02*
X33454Y-43606D01*
X33380Y-43680D01*
X33265Y-43565D01*
X33205Y-43525D01*
X33649Y-43525D01*
X33649Y-43525D01*
G37*
G54D37*
X33649Y-43525D02*
X33454Y-43606D01*
X33380Y-43680D01*
X33265Y-43565D01*
X33205Y-43525D01*
X33649Y-43525D01*
G54D10*
G36*
X33851Y-39960D02*
X33764Y-40047D01*
X33677Y-40259D01*
X33676Y-40487D01*
X33764Y-40699D01*
X33790Y-40725D01*
X33080Y-40725D01*
X32926Y-40571D01*
X32685Y-40471D01*
X32432Y-40471D01*
X32405Y-40453D01*
X32379Y-40448D01*
X32251Y-40422D01*
X32126Y-40422D01*
X32189Y-40272D01*
X32189Y-40043D01*
X32101Y-39832D01*
X32092Y-39823D01*
X32092Y-39280D01*
X32092Y-39015D01*
X32092Y-38976D01*
X32092Y-38732D01*
X32092Y-35728D01*
X32092Y-35216D01*
X32062Y-35063D01*
X32062Y-35063D01*
X32033Y-35020D01*
X31975Y-34933D01*
X31975Y-34933D01*
X31503Y-34461D01*
X31373Y-34374D01*
X31348Y-34369D01*
X31220Y-34344D01*
X25216Y-34344D01*
X25063Y-34374D01*
X25020Y-34403D01*
X24933Y-34461D01*
X24270Y-35124D01*
X24032Y-35222D01*
X23925Y-35330D01*
X23825Y-35230D01*
X23825Y-34842D01*
X24155Y-34512D01*
X24373Y-34512D01*
X24614Y-34413D01*
X24798Y-34229D01*
X24898Y-33988D01*
X24898Y-33814D01*
X25217Y-34132D01*
X25217Y-34132D01*
X25303Y-34190D01*
X25346Y-34219D01*
X25346Y-34219D01*
X25500Y-34250D01*
X28250Y-34250D01*
X28250Y-34249D01*
X28377Y-34224D01*
X28403Y-34219D01*
X28403Y-34219D01*
X28532Y-34132D01*
X28923Y-33742D01*
X29089Y-33742D01*
X29089Y-33756D01*
X29135Y-33866D01*
X29219Y-33951D01*
X29329Y-33996D01*
X29449Y-33996D01*
X30118Y-33996D01*
X30216Y-33956D01*
X30314Y-33996D01*
X30433Y-33996D01*
X31102Y-33996D01*
X31213Y-33951D01*
X31297Y-33867D01*
X31343Y-33756D01*
X31343Y-33742D01*
X33019Y-33742D01*
X33851Y-34575D01*
X33851Y-36193D01*
X33748Y-36236D01*
X33497Y-36487D01*
X33361Y-36814D01*
X33361Y-37168D01*
X33496Y-37495D01*
X33669Y-37669D01*
X33610Y-37669D01*
X33499Y-37714D01*
X33415Y-37799D01*
X33369Y-37909D01*
X33369Y-38028D01*
X33369Y-39209D01*
X33414Y-39320D01*
X33499Y-39404D01*
X33609Y-39450D01*
X33728Y-39450D01*
X33851Y-39450D01*
X33851Y-39600D01*
X33851Y-39960D01*
X33851Y-39960D01*
G37*
G54D37*
X33851Y-39960D02*
X33764Y-40047D01*
X33677Y-40259D01*
X33676Y-40487D01*
X33764Y-40699D01*
X33790Y-40725D01*
X33080Y-40725D01*
X32926Y-40571D01*
X32685Y-40471D01*
X32432Y-40471D01*
X32405Y-40453D01*
X32379Y-40448D01*
X32251Y-40422D01*
X32126Y-40422D01*
X32189Y-40272D01*
X32189Y-40043D01*
X32101Y-39832D01*
X32092Y-39823D01*
X32092Y-39280D01*
X32092Y-39015D01*
X32092Y-38976D01*
X32092Y-38732D01*
X32092Y-35728D01*
X32092Y-35216D01*
X32062Y-35063D01*
X32062Y-35063D01*
X32033Y-35020D01*
X31975Y-34933D01*
X31975Y-34933D01*
X31503Y-34461D01*
X31373Y-34374D01*
X31348Y-34369D01*
X31220Y-34344D01*
X25216Y-34344D01*
X25063Y-34374D01*
X25020Y-34403D01*
X24933Y-34461D01*
X24270Y-35124D01*
X24032Y-35222D01*
X23925Y-35330D01*
X23825Y-35230D01*
X23825Y-34842D01*
X24155Y-34512D01*
X24373Y-34512D01*
X24614Y-34413D01*
X24798Y-34229D01*
X24898Y-33988D01*
X24898Y-33814D01*
X25217Y-34132D01*
X25217Y-34132D01*
X25303Y-34190D01*
X25346Y-34219D01*
X25346Y-34219D01*
X25500Y-34250D01*
X28250Y-34250D01*
X28250Y-34249D01*
X28377Y-34224D01*
X28403Y-34219D01*
X28403Y-34219D01*
X28532Y-34132D01*
X28923Y-33742D01*
X29089Y-33742D01*
X29089Y-33756D01*
X29135Y-33866D01*
X29219Y-33951D01*
X29329Y-33996D01*
X29449Y-33996D01*
X30118Y-33996D01*
X30216Y-33956D01*
X30314Y-33996D01*
X30433Y-33996D01*
X31102Y-33996D01*
X31213Y-33951D01*
X31297Y-33867D01*
X31343Y-33756D01*
X31343Y-33742D01*
X33019Y-33742D01*
X33851Y-34575D01*
X33851Y-36193D01*
X33748Y-36236D01*
X33497Y-36487D01*
X33361Y-36814D01*
X33361Y-37168D01*
X33496Y-37495D01*
X33669Y-37669D01*
X33610Y-37669D01*
X33499Y-37714D01*
X33415Y-37799D01*
X33369Y-37909D01*
X33369Y-38028D01*
X33369Y-39209D01*
X33414Y-39320D01*
X33499Y-39404D01*
X33609Y-39450D01*
X33728Y-39450D01*
X33851Y-39450D01*
X33851Y-39600D01*
X33851Y-39960D01*
G54D10*
G36*
X33914Y-25994D02*
X33841Y-26067D01*
X33654Y-26144D01*
X33650Y-26149D01*
X33650Y-25863D01*
X33693Y-25907D01*
X33905Y-25994D01*
X33914Y-25994D01*
X33914Y-25994D01*
G37*
G54D37*
X33914Y-25994D02*
X33841Y-26067D01*
X33654Y-26144D01*
X33650Y-26149D01*
X33650Y-25863D01*
X33693Y-25907D01*
X33905Y-25994D01*
X33914Y-25994D01*
G54D10*
G36*
X33978Y-49749D02*
X33930Y-49749D01*
X33819Y-49794D01*
X33735Y-49879D01*
X33689Y-49989D01*
X33689Y-50108D01*
X33689Y-50240D01*
X33600Y-50240D01*
X33446Y-50270D01*
X33446Y-50270D01*
X33446Y-50270D01*
X33317Y-50357D01*
X32965Y-50709D01*
X32878Y-50838D01*
X32873Y-50864D01*
X32848Y-50991D01*
X32848Y-51476D01*
X32848Y-51710D01*
X32848Y-51929D01*
X32848Y-54146D01*
X31929Y-54146D01*
X31927Y-54140D01*
X31843Y-54056D01*
X31732Y-54010D01*
X31613Y-54010D01*
X31462Y-54010D01*
X31462Y-52952D01*
X31504Y-52952D01*
X31740Y-52952D01*
X31813Y-52922D01*
X31885Y-52952D01*
X32004Y-52952D01*
X32240Y-52952D01*
X32350Y-52906D01*
X32435Y-52822D01*
X32480Y-52712D01*
X32481Y-52593D01*
X32481Y-52081D01*
X32462Y-52037D01*
X32462Y-50842D01*
X32432Y-50689D01*
X32432Y-50689D01*
X32403Y-50646D01*
X32363Y-50585D01*
X32509Y-50439D01*
X32910Y-50439D01*
X32910Y-50439D01*
X33038Y-50413D01*
X33063Y-50408D01*
X33063Y-50408D01*
X33193Y-50322D01*
X33872Y-49643D01*
X33978Y-49749D01*
X33978Y-49749D01*
G37*
G54D37*
X33978Y-49749D02*
X33930Y-49749D01*
X33819Y-49794D01*
X33735Y-49879D01*
X33689Y-49989D01*
X33689Y-50108D01*
X33689Y-50240D01*
X33600Y-50240D01*
X33446Y-50270D01*
X33446Y-50270D01*
X33446Y-50270D01*
X33317Y-50357D01*
X32965Y-50709D01*
X32878Y-50838D01*
X32873Y-50864D01*
X32848Y-50991D01*
X32848Y-51476D01*
X32848Y-51710D01*
X32848Y-51929D01*
X32848Y-54146D01*
X31929Y-54146D01*
X31927Y-54140D01*
X31843Y-54056D01*
X31732Y-54010D01*
X31613Y-54010D01*
X31462Y-54010D01*
X31462Y-52952D01*
X31504Y-52952D01*
X31740Y-52952D01*
X31813Y-52922D01*
X31885Y-52952D01*
X32004Y-52952D01*
X32240Y-52952D01*
X32350Y-52906D01*
X32435Y-52822D01*
X32480Y-52712D01*
X32481Y-52593D01*
X32481Y-52081D01*
X32462Y-52037D01*
X32462Y-50842D01*
X32432Y-50689D01*
X32432Y-50689D01*
X32403Y-50646D01*
X32363Y-50585D01*
X32509Y-50439D01*
X32910Y-50439D01*
X32910Y-50439D01*
X33038Y-50413D01*
X33063Y-50408D01*
X33063Y-50408D01*
X33193Y-50322D01*
X33872Y-49643D01*
X33978Y-49749D01*
G54D10*
G36*
X34334Y-33926D02*
X33975Y-33567D01*
X34153Y-33567D01*
X34244Y-33530D01*
X34306Y-33592D01*
X34306Y-33857D01*
X34334Y-33926D01*
X34334Y-33926D01*
G37*
G54D37*
X34334Y-33926D02*
X33975Y-33567D01*
X34153Y-33567D01*
X34244Y-33530D01*
X34306Y-33592D01*
X34306Y-33857D01*
X34334Y-33926D01*
G54D10*
G36*
X34648Y-47462D02*
X34284Y-47827D01*
X34197Y-47957D01*
X34192Y-47982D01*
X34166Y-48110D01*
X34166Y-48280D01*
X34063Y-48323D01*
X33812Y-48573D01*
X33759Y-48700D01*
X33759Y-48700D01*
X33743Y-48704D01*
X33718Y-48709D01*
X33588Y-48795D01*
X32744Y-49639D01*
X32509Y-49639D01*
X32460Y-49590D01*
X32594Y-49590D01*
X32805Y-49503D01*
X32967Y-49341D01*
X33055Y-49130D01*
X33055Y-48901D01*
X32968Y-48690D01*
X32806Y-48528D01*
X32595Y-48440D01*
X32548Y-48440D01*
X32552Y-48431D01*
X33385Y-48431D01*
X33385Y-48431D01*
X33513Y-48406D01*
X33538Y-48401D01*
X33538Y-48401D01*
X33668Y-48314D01*
X34050Y-47932D01*
X34050Y-47932D01*
X34137Y-47802D01*
X34137Y-47802D01*
X34142Y-47777D01*
X34167Y-47649D01*
X34167Y-47649D01*
X34167Y-47588D01*
X34293Y-47462D01*
X34648Y-47462D01*
X34648Y-47462D01*
G37*
G54D37*
X34648Y-47462D02*
X34284Y-47827D01*
X34197Y-47957D01*
X34192Y-47982D01*
X34166Y-48110D01*
X34166Y-48280D01*
X34063Y-48323D01*
X33812Y-48573D01*
X33759Y-48700D01*
X33759Y-48700D01*
X33743Y-48704D01*
X33718Y-48709D01*
X33588Y-48795D01*
X32744Y-49639D01*
X32509Y-49639D01*
X32460Y-49590D01*
X32594Y-49590D01*
X32805Y-49503D01*
X32967Y-49341D01*
X33055Y-49130D01*
X33055Y-48901D01*
X32968Y-48690D01*
X32806Y-48528D01*
X32595Y-48440D01*
X32548Y-48440D01*
X32552Y-48431D01*
X33385Y-48431D01*
X33385Y-48431D01*
X33513Y-48406D01*
X33538Y-48401D01*
X33538Y-48401D01*
X33668Y-48314D01*
X34050Y-47932D01*
X34050Y-47932D01*
X34137Y-47802D01*
X34137Y-47802D01*
X34142Y-47777D01*
X34167Y-47649D01*
X34167Y-47649D01*
X34167Y-47588D01*
X34293Y-47462D01*
X34648Y-47462D01*
G54D10*
G36*
X34683Y-46462D02*
X34483Y-46662D01*
X34292Y-46662D01*
X34193Y-46562D01*
X34293Y-46462D01*
X34683Y-46462D01*
X34683Y-46462D01*
G37*
G54D37*
X34683Y-46462D02*
X34483Y-46662D01*
X34292Y-46662D01*
X34193Y-46562D01*
X34293Y-46462D01*
X34683Y-46462D01*
G54D10*
G36*
X34797Y-44524D02*
X34635Y-44590D01*
X34563Y-44662D01*
X34292Y-44662D01*
X34158Y-44528D01*
X34163Y-44524D01*
X34797Y-44524D01*
X34797Y-44524D01*
G37*
G54D37*
X34797Y-44524D02*
X34635Y-44590D01*
X34563Y-44662D01*
X34292Y-44662D01*
X34158Y-44528D01*
X34163Y-44524D01*
X34797Y-44524D01*
G54D10*
G36*
X34919Y-26607D02*
X34679Y-26607D01*
X34679Y-26570D01*
X34618Y-26422D01*
X34632Y-26407D01*
X34798Y-26407D01*
X34798Y-26421D01*
X34843Y-26531D01*
X34919Y-26607D01*
X34919Y-26607D01*
G37*
G54D37*
X34919Y-26607D02*
X34679Y-26607D01*
X34679Y-26570D01*
X34618Y-26422D01*
X34632Y-26407D01*
X34798Y-26407D01*
X34798Y-26421D01*
X34843Y-26531D01*
X34919Y-26607D01*
G54D10*
G36*
X35027Y-27507D02*
X34927Y-27607D01*
X34867Y-27607D01*
X34780Y-27625D01*
X34574Y-27624D01*
X34791Y-27407D01*
X34927Y-27407D01*
X35027Y-27507D01*
X35027Y-27507D01*
G37*
G54D37*
X35027Y-27507D02*
X34927Y-27607D01*
X34867Y-27607D01*
X34780Y-27625D01*
X34574Y-27624D01*
X34791Y-27407D01*
X34927Y-27407D01*
X35027Y-27507D01*
G54D10*
G36*
X35100Y-23774D02*
X34029Y-24845D01*
X33906Y-24844D01*
X33694Y-24932D01*
X33650Y-24976D01*
X33650Y-24850D01*
X33650Y-24425D01*
X33650Y-24250D01*
X33653Y-24254D01*
X33894Y-24354D01*
X34154Y-24354D01*
X34395Y-24255D01*
X34579Y-24071D01*
X34679Y-23830D01*
X34679Y-23611D01*
X35032Y-23257D01*
X35032Y-23257D01*
X35085Y-23179D01*
X35100Y-23179D01*
X35100Y-23774D01*
X35100Y-23774D01*
G37*
G54D37*
X35100Y-23774D02*
X34029Y-24845D01*
X33906Y-24844D01*
X33694Y-24932D01*
X33650Y-24976D01*
X33650Y-24850D01*
X33650Y-24425D01*
X33650Y-24250D01*
X33653Y-24254D01*
X33894Y-24354D01*
X34154Y-24354D01*
X34395Y-24255D01*
X34579Y-24071D01*
X34679Y-23830D01*
X34679Y-23611D01*
X35032Y-23257D01*
X35032Y-23257D01*
X35085Y-23179D01*
X35100Y-23179D01*
X35100Y-23774D01*
G54D10*
G36*
X35106Y-45662D02*
X34292Y-45662D01*
X34193Y-45562D01*
X34293Y-45462D01*
X34531Y-45462D01*
X34634Y-45565D01*
X34845Y-45653D01*
X35074Y-45653D01*
X35106Y-45640D01*
X35106Y-45662D01*
X35106Y-45662D01*
G37*
G54D37*
X35106Y-45662D02*
X34292Y-45662D01*
X34193Y-45562D01*
X34293Y-45462D01*
X34531Y-45462D01*
X34634Y-45565D01*
X34845Y-45653D01*
X35074Y-45653D01*
X35106Y-45640D01*
X35106Y-45662D01*
G54D10*
G36*
X35155Y-43724D02*
X34222Y-43724D01*
X34105Y-43607D01*
X33909Y-43525D01*
X35029Y-43525D01*
X35155Y-43651D01*
X35155Y-43724D01*
X35155Y-43724D01*
G37*
G54D37*
X35155Y-43724D02*
X34222Y-43724D01*
X34105Y-43607D01*
X33909Y-43525D01*
X35029Y-43525D01*
X35155Y-43651D01*
X35155Y-43724D01*
G54D10*
G36*
X35426Y-48827D02*
X35322Y-48574D01*
X35072Y-48324D01*
X34966Y-48280D01*
X34966Y-48275D01*
X35305Y-47937D01*
X35426Y-47937D01*
X35426Y-48827D01*
X35426Y-48827D01*
G37*
G54D37*
X35426Y-48827D02*
X35322Y-48574D01*
X35072Y-48324D01*
X34966Y-48280D01*
X34966Y-48275D01*
X35305Y-47937D01*
X35426Y-47937D01*
X35426Y-48827D01*
G54D10*
G36*
X35426Y-49883D02*
X35425Y-49879D01*
X35340Y-49795D01*
X35230Y-49749D01*
X35155Y-49749D01*
X35321Y-49583D01*
X35426Y-49330D01*
X35426Y-49883D01*
X35426Y-49883D01*
G37*
G54D37*
X35426Y-49883D02*
X35425Y-49879D01*
X35340Y-49795D01*
X35230Y-49749D01*
X35155Y-49749D01*
X35321Y-49583D01*
X35426Y-49330D01*
X35426Y-49883D01*
G54D10*
G36*
X35845Y-21570D02*
X35840Y-21563D01*
X35782Y-21477D01*
X35845Y-21477D01*
X35845Y-21570D01*
X35845Y-21570D01*
G37*
G54D37*
X35845Y-21570D02*
X35840Y-21563D01*
X35782Y-21477D01*
X35845Y-21477D01*
X35845Y-21570D01*
G54D10*
G36*
X35845Y-25353D02*
X35747Y-25353D01*
X35039Y-25353D01*
X34928Y-25399D01*
X34844Y-25483D01*
X34798Y-25593D01*
X34798Y-25607D01*
X34564Y-25607D01*
X34594Y-25534D01*
X34595Y-25410D01*
X35782Y-24222D01*
X35782Y-24222D01*
X35840Y-24136D01*
X35845Y-24129D01*
X35845Y-25353D01*
X35845Y-25353D01*
G37*
G54D37*
X35845Y-25353D02*
X35747Y-25353D01*
X35039Y-25353D01*
X34928Y-25399D01*
X34844Y-25483D01*
X34798Y-25593D01*
X34798Y-25607D01*
X34564Y-25607D01*
X34594Y-25534D01*
X34595Y-25410D01*
X35782Y-24222D01*
X35782Y-24222D01*
X35840Y-24136D01*
X35845Y-24129D01*
X35845Y-25353D01*
G54D10*
G36*
X35845Y-28908D02*
X35804Y-28866D01*
X35563Y-28767D01*
X35303Y-28766D01*
X35062Y-28866D01*
X34907Y-29021D01*
X34646Y-29021D01*
X34553Y-28928D01*
X34553Y-28772D01*
X34560Y-28774D01*
X34788Y-28775D01*
X35000Y-28687D01*
X35112Y-28575D01*
X35322Y-28662D01*
X35582Y-28662D01*
X35822Y-28562D01*
X35845Y-28540D01*
X35845Y-28908D01*
X35845Y-28908D01*
G37*
G54D37*
X35845Y-28908D02*
X35804Y-28866D01*
X35563Y-28767D01*
X35303Y-28766D01*
X35062Y-28866D01*
X34907Y-29021D01*
X34646Y-29021D01*
X34553Y-28928D01*
X34553Y-28772D01*
X34560Y-28774D01*
X34788Y-28775D01*
X35000Y-28687D01*
X35112Y-28575D01*
X35322Y-28662D01*
X35582Y-28662D01*
X35822Y-28562D01*
X35845Y-28540D01*
X35845Y-28908D01*
G54D10*
G36*
X35845Y-31853D02*
X35833Y-31823D01*
X35833Y-31075D01*
X35845Y-31075D01*
X35845Y-31853D01*
X35845Y-31853D01*
G37*
G54D37*
X35845Y-31853D02*
X35833Y-31823D01*
X35833Y-31075D01*
X35845Y-31075D01*
X35845Y-31853D01*
G54D10*
G36*
X35845Y-40538D02*
X35685Y-40471D01*
X35425Y-40471D01*
X35184Y-40570D01*
X35029Y-40725D01*
X34713Y-40725D01*
X34739Y-40700D01*
X34826Y-40488D01*
X34827Y-40260D01*
X34739Y-40048D01*
X34651Y-39960D01*
X34651Y-39600D01*
X34651Y-39450D01*
X34909Y-39450D01*
X35020Y-39405D01*
X35104Y-39320D01*
X35150Y-39210D01*
X35150Y-39091D01*
X35150Y-37910D01*
X35105Y-37799D01*
X35020Y-37715D01*
X34910Y-37669D01*
X34834Y-37669D01*
X35006Y-37497D01*
X35142Y-37170D01*
X35142Y-36815D01*
X35007Y-36488D01*
X34757Y-36237D01*
X34651Y-36193D01*
X34651Y-34409D01*
X34651Y-34409D01*
X34634Y-34319D01*
X34861Y-34414D01*
X35137Y-34414D01*
X35392Y-34308D01*
X35587Y-34113D01*
X35693Y-33859D01*
X35693Y-33583D01*
X35588Y-33328D01*
X35393Y-33132D01*
X35138Y-33026D01*
X34871Y-33026D01*
X34709Y-32864D01*
X34709Y-32736D01*
X34604Y-32481D01*
X34531Y-32408D01*
X34532Y-32407D01*
X34532Y-32407D01*
X34619Y-32278D01*
X34619Y-32278D01*
X34624Y-32252D01*
X34649Y-32125D01*
X34650Y-32125D01*
X34650Y-31738D01*
X34737Y-31651D01*
X34824Y-31439D01*
X34825Y-31211D01*
X34737Y-30999D01*
X34576Y-30837D01*
X34364Y-30750D01*
X34136Y-30749D01*
X34100Y-30764D01*
X34100Y-29607D01*
X34197Y-29704D01*
X34197Y-29704D01*
X34284Y-29762D01*
X34327Y-29790D01*
X34327Y-29790D01*
X34480Y-29821D01*
X34900Y-29821D01*
X34824Y-29896D01*
X34778Y-30006D01*
X34778Y-30126D01*
X34778Y-30835D01*
X34824Y-30945D01*
X34908Y-31029D01*
X35018Y-31075D01*
X35033Y-31075D01*
X35033Y-31598D01*
X34999Y-31612D01*
X34837Y-31773D01*
X34750Y-31985D01*
X34749Y-32213D01*
X34837Y-32425D01*
X34998Y-32587D01*
X35210Y-32674D01*
X35438Y-32675D01*
X35650Y-32587D01*
X35812Y-32426D01*
X35845Y-32345D01*
X35845Y-40538D01*
X35845Y-40538D01*
G37*
G54D37*
X35845Y-40538D02*
X35685Y-40471D01*
X35425Y-40471D01*
X35184Y-40570D01*
X35029Y-40725D01*
X34713Y-40725D01*
X34739Y-40700D01*
X34826Y-40488D01*
X34827Y-40260D01*
X34739Y-40048D01*
X34651Y-39960D01*
X34651Y-39600D01*
X34651Y-39450D01*
X34909Y-39450D01*
X35020Y-39405D01*
X35104Y-39320D01*
X35150Y-39210D01*
X35150Y-39091D01*
X35150Y-37910D01*
X35105Y-37799D01*
X35020Y-37715D01*
X34910Y-37669D01*
X34834Y-37669D01*
X35006Y-37497D01*
X35142Y-37170D01*
X35142Y-36815D01*
X35007Y-36488D01*
X34757Y-36237D01*
X34651Y-36193D01*
X34651Y-34409D01*
X34651Y-34409D01*
X34634Y-34319D01*
X34861Y-34414D01*
X35137Y-34414D01*
X35392Y-34308D01*
X35587Y-34113D01*
X35693Y-33859D01*
X35693Y-33583D01*
X35588Y-33328D01*
X35393Y-33132D01*
X35138Y-33026D01*
X34871Y-33026D01*
X34709Y-32864D01*
X34709Y-32736D01*
X34604Y-32481D01*
X34531Y-32408D01*
X34532Y-32407D01*
X34532Y-32407D01*
X34619Y-32278D01*
X34619Y-32278D01*
X34624Y-32252D01*
X34649Y-32125D01*
X34650Y-32125D01*
X34650Y-31738D01*
X34737Y-31651D01*
X34824Y-31439D01*
X34825Y-31211D01*
X34737Y-30999D01*
X34576Y-30837D01*
X34364Y-30750D01*
X34136Y-30749D01*
X34100Y-30764D01*
X34100Y-29607D01*
X34197Y-29704D01*
X34197Y-29704D01*
X34284Y-29762D01*
X34327Y-29790D01*
X34327Y-29790D01*
X34480Y-29821D01*
X34900Y-29821D01*
X34824Y-29896D01*
X34778Y-30006D01*
X34778Y-30126D01*
X34778Y-30835D01*
X34824Y-30945D01*
X34908Y-31029D01*
X35018Y-31075D01*
X35033Y-31075D01*
X35033Y-31598D01*
X34999Y-31612D01*
X34837Y-31773D01*
X34750Y-31985D01*
X34749Y-32213D01*
X34837Y-32425D01*
X34998Y-32587D01*
X35210Y-32674D01*
X35438Y-32675D01*
X35650Y-32587D01*
X35812Y-32426D01*
X35845Y-32345D01*
X35845Y-40538D01*
G54D10*
G36*
X35845Y-42538D02*
X35685Y-42471D01*
X35425Y-42471D01*
X35184Y-42570D01*
X35029Y-42725D01*
X33080Y-42725D01*
X32955Y-42600D01*
X32955Y-42437D01*
X32924Y-42283D01*
X32924Y-42283D01*
X32895Y-42240D01*
X32837Y-42154D01*
X32837Y-42154D01*
X32464Y-41780D01*
X32684Y-41780D01*
X32925Y-41681D01*
X33080Y-41525D01*
X35029Y-41525D01*
X35183Y-41680D01*
X35424Y-41780D01*
X35684Y-41780D01*
X35845Y-41713D01*
X35845Y-42538D01*
X35845Y-42538D01*
G37*
G54D37*
X35845Y-42538D02*
X35685Y-42471D01*
X35425Y-42471D01*
X35184Y-42570D01*
X35029Y-42725D01*
X33080Y-42725D01*
X32955Y-42600D01*
X32955Y-42437D01*
X32924Y-42283D01*
X32924Y-42283D01*
X32895Y-42240D01*
X32837Y-42154D01*
X32837Y-42154D01*
X32464Y-41780D01*
X32684Y-41780D01*
X32925Y-41681D01*
X33080Y-41525D01*
X35029Y-41525D01*
X35183Y-41680D01*
X35424Y-41780D01*
X35684Y-41780D01*
X35845Y-41713D01*
X35845Y-42538D01*
G54D10*
G36*
X35845Y-61436D02*
X34945Y-61436D01*
X34945Y-59705D01*
X34840Y-59450D01*
X34645Y-59254D01*
X34390Y-59148D01*
X34114Y-59148D01*
X33859Y-59254D01*
X33664Y-59449D01*
X33558Y-59703D01*
X33558Y-59979D01*
X33663Y-60234D01*
X33858Y-60430D01*
X34113Y-60536D01*
X34389Y-60536D01*
X34644Y-60430D01*
X34839Y-60235D01*
X34945Y-59981D01*
X34945Y-59705D01*
X34945Y-61436D01*
X21241Y-61436D01*
X21241Y-59612D01*
X25551Y-59612D01*
X25551Y-59612D01*
X25678Y-59587D01*
X25704Y-59582D01*
X25704Y-59582D01*
X25834Y-59495D01*
X26385Y-58944D01*
X26385Y-58944D01*
X26469Y-58818D01*
X26484Y-58833D01*
X26696Y-58921D01*
X26924Y-58921D01*
X27136Y-58834D01*
X27298Y-58672D01*
X27385Y-58461D01*
X27386Y-58232D01*
X27329Y-58094D01*
X27329Y-57409D01*
X29792Y-54946D01*
X30196Y-54946D01*
X30198Y-54952D01*
X30282Y-55036D01*
X30393Y-55082D01*
X30512Y-55082D01*
X31732Y-55082D01*
X31842Y-55036D01*
X31927Y-54952D01*
X31929Y-54946D01*
X33051Y-54946D01*
X33051Y-54946D01*
X33179Y-54921D01*
X33205Y-54916D01*
X33205Y-54916D01*
X33334Y-54829D01*
X33530Y-54633D01*
X33530Y-54633D01*
X33588Y-54546D01*
X33617Y-54503D01*
X33617Y-54503D01*
X33648Y-54350D01*
X33648Y-54350D01*
X33648Y-53504D01*
X33663Y-53542D01*
X33858Y-53737D01*
X34113Y-53843D01*
X34389Y-53843D01*
X34644Y-53738D01*
X34839Y-53543D01*
X34945Y-53288D01*
X34945Y-53012D01*
X34840Y-52757D01*
X34645Y-52561D01*
X34390Y-52456D01*
X34114Y-52455D01*
X33859Y-52561D01*
X33664Y-52756D01*
X33648Y-52795D01*
X33648Y-51929D01*
X33648Y-51710D01*
X33648Y-51476D01*
X33648Y-51157D01*
X33689Y-51116D01*
X33689Y-51289D01*
X33734Y-51400D01*
X33819Y-51484D01*
X33929Y-51530D01*
X34048Y-51530D01*
X35229Y-51530D01*
X35340Y-51485D01*
X35424Y-51400D01*
X35470Y-51290D01*
X35470Y-51171D01*
X35470Y-51040D01*
X35530Y-51040D01*
X35530Y-51039D01*
X35657Y-51014D01*
X35683Y-51009D01*
X35683Y-51009D01*
X35812Y-50922D01*
X35845Y-50890D01*
X35845Y-61436D01*
X35845Y-61436D01*
G37*
G54D37*
X35845Y-61436D02*
X34945Y-61436D01*
X34945Y-59705D01*
X34840Y-59450D01*
X34645Y-59254D01*
X34390Y-59148D01*
X34114Y-59148D01*
X33859Y-59254D01*
X33664Y-59449D01*
X33558Y-59703D01*
X33558Y-59979D01*
X33663Y-60234D01*
X33858Y-60430D01*
X34113Y-60536D01*
X34389Y-60536D01*
X34644Y-60430D01*
X34839Y-60235D01*
X34945Y-59981D01*
X34945Y-59705D01*
X34945Y-61436D01*
X21241Y-61436D01*
X21241Y-59612D01*
X25551Y-59612D01*
X25551Y-59612D01*
X25678Y-59587D01*
X25704Y-59582D01*
X25704Y-59582D01*
X25834Y-59495D01*
X26385Y-58944D01*
X26385Y-58944D01*
X26469Y-58818D01*
X26484Y-58833D01*
X26696Y-58921D01*
X26924Y-58921D01*
X27136Y-58834D01*
X27298Y-58672D01*
X27385Y-58461D01*
X27386Y-58232D01*
X27329Y-58094D01*
X27329Y-57409D01*
X29792Y-54946D01*
X30196Y-54946D01*
X30198Y-54952D01*
X30282Y-55036D01*
X30393Y-55082D01*
X30512Y-55082D01*
X31732Y-55082D01*
X31842Y-55036D01*
X31927Y-54952D01*
X31929Y-54946D01*
X33051Y-54946D01*
X33051Y-54946D01*
X33179Y-54921D01*
X33205Y-54916D01*
X33205Y-54916D01*
X33334Y-54829D01*
X33530Y-54633D01*
X33530Y-54633D01*
X33588Y-54546D01*
X33617Y-54503D01*
X33617Y-54503D01*
X33648Y-54350D01*
X33648Y-54350D01*
X33648Y-53504D01*
X33663Y-53542D01*
X33858Y-53737D01*
X34113Y-53843D01*
X34389Y-53843D01*
X34644Y-53738D01*
X34839Y-53543D01*
X34945Y-53288D01*
X34945Y-53012D01*
X34840Y-52757D01*
X34645Y-52561D01*
X34390Y-52456D01*
X34114Y-52455D01*
X33859Y-52561D01*
X33664Y-52756D01*
X33648Y-52795D01*
X33648Y-51929D01*
X33648Y-51710D01*
X33648Y-51476D01*
X33648Y-51157D01*
X33689Y-51116D01*
X33689Y-51289D01*
X33734Y-51400D01*
X33819Y-51484D01*
X33929Y-51530D01*
X34048Y-51530D01*
X35229Y-51530D01*
X35340Y-51485D01*
X35424Y-51400D01*
X35470Y-51290D01*
X35470Y-51171D01*
X35470Y-51040D01*
X35530Y-51040D01*
X35530Y-51039D01*
X35657Y-51014D01*
X35683Y-51009D01*
X35683Y-51009D01*
X35812Y-50922D01*
X35845Y-50890D01*
X35845Y-61436D01*
M02*
