G04 (created by PCBNEW (2013-mar-13)-testing) date vie 26 abr 2013 21:57:32 ART*
%MOIN*%
G04 Gerber Fmt 3.4, Leading zero omitted, Abs format*
%FSLAX34Y34*%
G01*
G70*
G90*
G04 APERTURE LIST*
%ADD10C,2.3622e-06*%
%ADD11C,0.0246063*%
%ADD12C,0.0669291*%
%ADD13R,0.0236X0.0512*%
%ADD14R,0.122X0.0472*%
%ADD15R,0.06X0.06*%
%ADD16C,0.0708661*%
%ADD17R,0.0708661X0.0708661*%
%ADD18R,0.0787X0.0787*%
%ADD19C,0.0787*%
%ADD20O,0.062X0.09*%
%ADD21R,0.062X0.09*%
%ADD22R,0.0669291X0.0669291*%
%ADD23C,0.0629921*%
%ADD24R,0.11811X0.11811*%
%ADD25C,0.11811*%
%ADD26C,0.16*%
%ADD27C,0.0787402*%
%ADD28R,0.035X0.055*%
%ADD29C,0.055*%
%ADD30C,0.035*%
%ADD31C,0.02*%
%ADD32C,0.012*%
%ADD33C,0.016*%
%ADD34C,0.01*%
G04 APERTURE END LIST*
G54D10*
G54D11*
X19249Y-56345D02*
X18517Y-56345D01*
X18911Y-56870D01*
X18742Y-56870D01*
X18630Y-56935D01*
X18574Y-57001D01*
X18517Y-57132D01*
X18517Y-57460D01*
X18574Y-57591D01*
X18630Y-57657D01*
X18742Y-57723D01*
X19080Y-57723D01*
X19192Y-57657D01*
X19249Y-57591D01*
X18011Y-57591D02*
X17955Y-57657D01*
X18011Y-57723D01*
X18068Y-57657D01*
X18011Y-57591D01*
X18011Y-57723D01*
X16830Y-57723D02*
X17505Y-57723D01*
X17168Y-57723D02*
X17168Y-56345D01*
X17280Y-56541D01*
X17393Y-56673D01*
X17505Y-56738D01*
X15818Y-56804D02*
X15818Y-57723D01*
X16099Y-56279D02*
X16380Y-57263D01*
X15649Y-57263D01*
X15368Y-56345D02*
X14693Y-56345D01*
X15030Y-57723D02*
X15030Y-56345D01*
X14299Y-57723D02*
X14299Y-56345D01*
X13906Y-56345D02*
X13231Y-56345D01*
X13568Y-57723D02*
X13568Y-56345D01*
X12612Y-56345D02*
X12387Y-56345D01*
X12275Y-56410D01*
X12162Y-56541D01*
X12106Y-56804D01*
X12106Y-57263D01*
X12162Y-57526D01*
X12275Y-57657D01*
X12387Y-57723D01*
X12612Y-57723D01*
X12724Y-57657D01*
X12837Y-57526D01*
X12893Y-57263D01*
X12893Y-56804D01*
X12837Y-56541D01*
X12724Y-56410D01*
X12612Y-56345D01*
G54D12*
X14976Y-47838D03*
X12976Y-47838D03*
X14976Y-44838D03*
X12976Y-44838D03*
X14976Y-43822D03*
X12976Y-43822D03*
X14976Y-40822D03*
X12976Y-40822D03*
X35555Y-41125D03*
X35555Y-43125D03*
X32555Y-41125D03*
X32555Y-43125D03*
G54D13*
X30562Y-52396D03*
X30062Y-52396D03*
X32062Y-52396D03*
X31562Y-52396D03*
X31062Y-52396D03*
G54D14*
X31062Y-54546D03*
G54D12*
X21775Y-50984D03*
X18775Y-50984D03*
X26181Y-43822D03*
X26181Y-40822D03*
X19216Y-41535D03*
X16216Y-41535D03*
G54D15*
X32767Y-45062D03*
G54D16*
X33767Y-45062D03*
X32767Y-46062D03*
X33767Y-46062D03*
X32767Y-47062D03*
X33767Y-47062D03*
G54D17*
X106047Y-36850D03*
G54D16*
X107047Y-36850D03*
X108047Y-36850D03*
G54D17*
X30299Y-50000D03*
G54D16*
X31299Y-50000D03*
X32299Y-50000D03*
G54D17*
X31692Y-24629D03*
G54D16*
X31692Y-25629D03*
X31692Y-26629D03*
G54D17*
X14074Y-28921D03*
G54D16*
X14074Y-29921D03*
X14074Y-30921D03*
G54D17*
X35452Y-26007D03*
G54D16*
X35452Y-27007D03*
X35452Y-28007D03*
G54D17*
X31889Y-29314D03*
G54D16*
X31889Y-30314D03*
X31889Y-31314D03*
G54D17*
X14074Y-24295D03*
G54D16*
X14074Y-25295D03*
X14074Y-26295D03*
G54D17*
X100141Y-36850D03*
G54D16*
X101141Y-36850D03*
X102141Y-36850D03*
G54D17*
X23909Y-51712D03*
G54D16*
X24909Y-51712D03*
G54D17*
X18307Y-37311D03*
G54D16*
X18307Y-36311D03*
G54D17*
X35433Y-30421D03*
G54D16*
X35433Y-29421D03*
G54D18*
X19925Y-37811D03*
G54D19*
X20425Y-35811D03*
X20925Y-37811D03*
X21425Y-35811D03*
X21925Y-37811D03*
X22425Y-35811D03*
X22925Y-37811D03*
X23425Y-35811D03*
X23925Y-37811D03*
X24425Y-35811D03*
X24925Y-37811D03*
X25425Y-35811D03*
X25925Y-37811D03*
X26425Y-35811D03*
X26925Y-37811D03*
G54D20*
X19106Y-47956D03*
X20106Y-47956D03*
X21106Y-47956D03*
X22106Y-47956D03*
X23106Y-47956D03*
X24106Y-47956D03*
X25106Y-47956D03*
X26106Y-47956D03*
X27106Y-47956D03*
X28106Y-47956D03*
X29106Y-47956D03*
X30106Y-47956D03*
X31106Y-47956D03*
G54D21*
X18106Y-47956D03*
G54D20*
X31106Y-44956D03*
X30106Y-44956D03*
X29106Y-44956D03*
X28106Y-44956D03*
X27106Y-44956D03*
X26106Y-44956D03*
X25106Y-44956D03*
X24106Y-44956D03*
X23106Y-44956D03*
X22106Y-44956D03*
X21106Y-44956D03*
X20106Y-44956D03*
X19106Y-44956D03*
X18106Y-44956D03*
G54D22*
X17125Y-33342D03*
G54D12*
X17125Y-36342D03*
G54D22*
X29724Y-33342D03*
G54D12*
X29724Y-36342D03*
G54D22*
X29724Y-37082D03*
G54D12*
X29724Y-40082D03*
G54D22*
X30708Y-37082D03*
G54D12*
X30708Y-40082D03*
G54D22*
X30708Y-33342D03*
G54D12*
X30708Y-36342D03*
G54D22*
X17125Y-37082D03*
G54D12*
X17125Y-40082D03*
G54D22*
X16141Y-37082D03*
G54D12*
X16141Y-40082D03*
G54D22*
X16141Y-33342D03*
G54D12*
X16141Y-36342D03*
G54D22*
X18110Y-23196D03*
G54D12*
X18110Y-27196D03*
G54D22*
X23590Y-39370D03*
G54D12*
X27590Y-39370D03*
G54D22*
X20244Y-33858D03*
G54D12*
X24244Y-33858D03*
G54D23*
X24500Y-29027D03*
X25500Y-30027D03*
X25500Y-29027D03*
X24500Y-30027D03*
X18200Y-29027D03*
X19200Y-30027D03*
X19200Y-29027D03*
X18200Y-30027D03*
X27649Y-29027D03*
X28649Y-30027D03*
X28649Y-29027D03*
X27649Y-30027D03*
X21350Y-29027D03*
X22350Y-30027D03*
X22350Y-29027D03*
X21350Y-30027D03*
G54D12*
X24106Y-49212D03*
X25106Y-49212D03*
X25106Y-43700D03*
X24106Y-43700D03*
X17283Y-51114D03*
X17283Y-52114D03*
X24106Y-42519D03*
X25106Y-42519D03*
G54D24*
X34251Y-38992D03*
G54D25*
X34251Y-36992D03*
G54D17*
X28543Y-36311D03*
G54D16*
X28543Y-37311D03*
G54D24*
X34448Y-51000D03*
G54D25*
X34448Y-49000D03*
G54D17*
X18578Y-52165D03*
G54D16*
X19578Y-52165D03*
X20578Y-52165D03*
X21578Y-52165D03*
G54D26*
X23425Y-25590D03*
G54D23*
X106547Y-33594D03*
X107547Y-34594D03*
X107547Y-33594D03*
X106547Y-34594D03*
X100641Y-33594D03*
X101641Y-34594D03*
X101641Y-33594D03*
X100641Y-34594D03*
G54D12*
X100641Y-38031D03*
X101641Y-38031D03*
X106547Y-38031D03*
X107547Y-38031D03*
G54D27*
X22244Y-49803D03*
X21062Y-49803D03*
X14960Y-39763D03*
X12598Y-53149D03*
X12598Y-59842D03*
X34251Y-59842D03*
X34251Y-53149D03*
X23425Y-25590D03*
G54D17*
X27165Y-43019D03*
G54D16*
X27165Y-42019D03*
G54D28*
X31634Y-51377D03*
X30884Y-51377D03*
G54D29*
X19133Y-26578D03*
X19133Y-23578D03*
X33070Y-28027D03*
X33070Y-31027D03*
X16141Y-27917D03*
X16141Y-24917D03*
X30511Y-24051D03*
X30511Y-27051D03*
X105940Y-30157D03*
X108940Y-30157D03*
X99641Y-30157D03*
X102641Y-30157D03*
X30216Y-29051D03*
X30216Y-32051D03*
X12893Y-31421D03*
X12893Y-28421D03*
X12893Y-23795D03*
X12893Y-26795D03*
X33346Y-24011D03*
X33346Y-27011D03*
G54D27*
X19291Y-43740D03*
X18110Y-43759D03*
X14625Y-48877D03*
X16220Y-49881D03*
X34015Y-32874D03*
X35000Y-33720D03*
G54D30*
X34173Y-31003D03*
X31948Y-43858D03*
X35098Y-45059D03*
X20393Y-53110D03*
X20433Y-58484D03*
X17677Y-40748D03*
X32362Y-56299D03*
X22204Y-31535D03*
X25236Y-31496D03*
X19881Y-31496D03*
X28188Y-31496D03*
X20137Y-22992D03*
X35413Y-47578D03*
X34685Y-28720D03*
X22421Y-33956D03*
X15826Y-32185D03*
X23248Y-36830D03*
X18464Y-32736D03*
X14074Y-54960D03*
X21062Y-39271D03*
X21692Y-40255D03*
X15354Y-54763D03*
X30669Y-42716D03*
X31692Y-40354D03*
X28661Y-41751D03*
X25492Y-36751D03*
X29350Y-54192D03*
X23149Y-50570D03*
X27657Y-54409D03*
X27952Y-46181D03*
X24547Y-50255D03*
X33956Y-43818D03*
X29547Y-45688D03*
X35433Y-31889D03*
X20019Y-40807D03*
X18149Y-40059D03*
X13818Y-32244D03*
X20078Y-42972D03*
X15157Y-25413D03*
X18484Y-39488D03*
X21102Y-42992D03*
X21122Y-40944D03*
X22125Y-43110D03*
X26535Y-28976D03*
X30511Y-26062D03*
X31082Y-30314D03*
X23031Y-43070D03*
X11909Y-34192D03*
X12027Y-40452D03*
X32303Y-48838D03*
X28562Y-32834D03*
X30137Y-41259D03*
X31082Y-55295D03*
X23956Y-56830D03*
X23917Y-55807D03*
X23937Y-53287D03*
X34251Y-40374D03*
X31673Y-49251D03*
G54D31*
X34015Y-32874D02*
X34153Y-32874D01*
X34153Y-32874D02*
X35000Y-33720D01*
X34763Y-32125D02*
X34015Y-32874D01*
X34763Y-31594D02*
X34763Y-32125D01*
X34173Y-31003D02*
X34763Y-31594D01*
X33257Y-43848D02*
X32854Y-43848D01*
X31958Y-43848D02*
X31948Y-43858D01*
X32854Y-43848D02*
X31958Y-43848D01*
X16141Y-24917D02*
X18783Y-24917D01*
X18783Y-24917D02*
X19133Y-24566D01*
X19133Y-24566D02*
X19133Y-23578D01*
X22350Y-30027D02*
X22350Y-31389D01*
X22350Y-31389D02*
X22204Y-31535D01*
X25500Y-30027D02*
X25500Y-31232D01*
X25500Y-31232D02*
X25236Y-31496D01*
X28649Y-30027D02*
X28649Y-31035D01*
X28649Y-31035D02*
X28188Y-31496D01*
X33070Y-31027D02*
X33070Y-31751D01*
X32775Y-32047D02*
X31240Y-32047D01*
X33070Y-31751D02*
X32775Y-32047D01*
X31240Y-32047D02*
X29921Y-30728D01*
X29350Y-30728D02*
X28649Y-30027D01*
X29921Y-30728D02*
X29350Y-30728D01*
X19881Y-31496D02*
X19881Y-30708D01*
X19881Y-30708D02*
X19200Y-30027D01*
X33767Y-45062D02*
X33767Y-44358D01*
X33767Y-44358D02*
X33257Y-43848D01*
X33257Y-43848D02*
X33248Y-43838D01*
X32362Y-56299D02*
X30374Y-56299D01*
X30374Y-56299D02*
X29921Y-56751D01*
X33767Y-45062D02*
X35094Y-45062D01*
X35094Y-45062D02*
X35098Y-45059D01*
X24106Y-49212D02*
X24106Y-47956D01*
X21775Y-50984D02*
X23740Y-50984D01*
X23740Y-50984D02*
X24106Y-50618D01*
X24106Y-50618D02*
X24106Y-49212D01*
X21578Y-52165D02*
X21578Y-51181D01*
X21578Y-51181D02*
X21775Y-50984D01*
X30562Y-52396D02*
X30562Y-53374D01*
X30562Y-53374D02*
X29921Y-54015D01*
X29921Y-54015D02*
X29921Y-56751D01*
X29389Y-59153D02*
X21102Y-59153D01*
X21578Y-52811D02*
X21578Y-52165D01*
X21240Y-53149D02*
X21578Y-52811D01*
X20433Y-53149D02*
X21240Y-53149D01*
X20393Y-53110D02*
X20433Y-53149D01*
X21102Y-59153D02*
X20433Y-58484D01*
X29921Y-56751D02*
X29921Y-58622D01*
X29921Y-58622D02*
X29389Y-59153D01*
X17677Y-40748D02*
X18464Y-41535D01*
X18464Y-41535D02*
X19216Y-41535D01*
X23590Y-39370D02*
X23590Y-41330D01*
X23385Y-41535D02*
X19216Y-41535D01*
X23590Y-41330D02*
X23385Y-41535D01*
X23590Y-39370D02*
X23590Y-38145D01*
X23590Y-38145D02*
X23925Y-37811D01*
X26181Y-43822D02*
X26181Y-42795D01*
X25905Y-42519D02*
X25106Y-42519D01*
X26181Y-42795D02*
X25905Y-42519D01*
X26106Y-44956D02*
X26106Y-43897D01*
X26106Y-43897D02*
X26181Y-43822D01*
G54D32*
X18464Y-41535D02*
X19216Y-41535D01*
X33767Y-44358D02*
X33248Y-43838D01*
X23590Y-38145D02*
X23925Y-37811D01*
X29370Y-30748D02*
X28649Y-30027D01*
X31240Y-32047D02*
X29940Y-30748D01*
X29940Y-30748D02*
X29370Y-30748D01*
X22204Y-31535D02*
X22350Y-31389D01*
X25236Y-31496D02*
X25500Y-31232D01*
X28188Y-31496D02*
X28649Y-31035D01*
X19133Y-24566D02*
X19133Y-23578D01*
X18783Y-24917D02*
X19133Y-24566D01*
X23740Y-50984D02*
X24106Y-50618D01*
X24106Y-50618D02*
X24106Y-49212D01*
G54D31*
X20137Y-22992D02*
X18314Y-22992D01*
X18314Y-22992D02*
X18110Y-23196D01*
X35452Y-28007D02*
X35397Y-28007D01*
X35397Y-28007D02*
X34685Y-28720D01*
X32299Y-50000D02*
X33464Y-50000D01*
X34448Y-49015D02*
X34448Y-49000D01*
X33464Y-50000D02*
X34448Y-49015D01*
X34448Y-47814D02*
X34685Y-47578D01*
X34685Y-47578D02*
X35413Y-47578D01*
X34448Y-49000D02*
X34448Y-47814D01*
G54D32*
X35397Y-28007D02*
X34685Y-28720D01*
G54D31*
X21425Y-35811D02*
X21425Y-35039D01*
X21425Y-35039D02*
X20244Y-33858D01*
X30708Y-33342D02*
X29724Y-33342D01*
X34251Y-36992D02*
X34251Y-34409D01*
X33185Y-33342D02*
X30708Y-33342D01*
X34251Y-34409D02*
X33185Y-33342D01*
G54D33*
X17125Y-33342D02*
X16141Y-33342D01*
X20244Y-33858D02*
X20244Y-33472D01*
X20244Y-33472D02*
X20114Y-33342D01*
X20114Y-33342D02*
X17125Y-33342D01*
X20244Y-33858D02*
X20244Y-33397D01*
X29629Y-33248D02*
X29724Y-33342D01*
X20393Y-33248D02*
X29629Y-33248D01*
X20244Y-33397D02*
X20393Y-33248D01*
G54D31*
X26106Y-52539D02*
X26106Y-52653D01*
X25000Y-53759D02*
X17559Y-53759D01*
X26106Y-52653D02*
X25000Y-53759D01*
X22425Y-35811D02*
X22425Y-33960D01*
X22425Y-33960D02*
X22421Y-33956D01*
X26106Y-47956D02*
X26106Y-52539D01*
X11614Y-36397D02*
X15826Y-32185D01*
X11614Y-47814D02*
X11614Y-36397D01*
X17559Y-53759D02*
X11614Y-47814D01*
G54D32*
X22421Y-33956D02*
X22425Y-33960D01*
G54D31*
X27106Y-52224D02*
X27106Y-52500D01*
X25413Y-54192D02*
X17165Y-54192D01*
X27106Y-52500D02*
X25413Y-54192D01*
X24925Y-37811D02*
X24925Y-37110D01*
X24645Y-36830D02*
X23248Y-36830D01*
X24925Y-37110D02*
X24645Y-36830D01*
X27106Y-47956D02*
X27106Y-52224D01*
X17165Y-54192D02*
X11122Y-48149D01*
X11122Y-48149D02*
X11122Y-36003D01*
X11122Y-36003D02*
X15433Y-31692D01*
X15433Y-31692D02*
X17421Y-31692D01*
X17421Y-31692D02*
X18464Y-32736D01*
X21062Y-39271D02*
X21062Y-39212D01*
X21925Y-38350D02*
X21925Y-37811D01*
X21062Y-39212D02*
X21925Y-38350D01*
X14645Y-55275D02*
X14389Y-55275D01*
X14389Y-55275D02*
X14074Y-54960D01*
X26742Y-54517D02*
X25984Y-55275D01*
X14389Y-55275D02*
X14074Y-54960D01*
X25984Y-55275D02*
X14645Y-55275D01*
X29106Y-47956D02*
X29106Y-48216D01*
X29106Y-48216D02*
X28307Y-49015D01*
X28307Y-49015D02*
X28307Y-52952D01*
X28307Y-52952D02*
X26742Y-54517D01*
X26742Y-54517D02*
X26102Y-55157D01*
G54D32*
X28307Y-52952D02*
X26102Y-55157D01*
X28307Y-49015D02*
X28307Y-52952D01*
X29106Y-48216D02*
X28307Y-49015D01*
G54D31*
X22925Y-37811D02*
X22925Y-40007D01*
X22677Y-40255D02*
X21692Y-40255D01*
X22925Y-40007D02*
X22677Y-40255D01*
X15433Y-54685D02*
X25787Y-54685D01*
X15354Y-54763D02*
X15433Y-54685D01*
X25787Y-54685D02*
X27716Y-52755D01*
X27716Y-52755D02*
X27716Y-48346D01*
X27716Y-48346D02*
X28106Y-47956D01*
G54D32*
X27716Y-52755D02*
X25787Y-54685D01*
G54D31*
X31692Y-35728D02*
X31692Y-35216D01*
X24425Y-35535D02*
X24425Y-35811D01*
X25216Y-34744D02*
X24425Y-35535D01*
X31220Y-34744D02*
X25216Y-34744D01*
X31692Y-35216D02*
X31220Y-34744D01*
X31692Y-40354D02*
X31692Y-35728D01*
X31106Y-44956D02*
X31106Y-43153D01*
X31106Y-43153D02*
X30669Y-42716D01*
X25425Y-35811D02*
X25425Y-36685D01*
X25425Y-36685D02*
X25492Y-36751D01*
X30106Y-44956D02*
X30106Y-43196D01*
X30106Y-43196D02*
X28661Y-41751D01*
G54D32*
X25425Y-36685D02*
X25492Y-36751D01*
G54D31*
X31106Y-48814D02*
X30748Y-49173D01*
X30748Y-49173D02*
X29921Y-49173D01*
X29921Y-49173D02*
X29350Y-49744D01*
X29350Y-49744D02*
X29350Y-54192D01*
X31106Y-48814D02*
X31106Y-47956D01*
X23106Y-47956D02*
X23106Y-50527D01*
X23106Y-50527D02*
X23149Y-50570D01*
X27657Y-54409D02*
X27657Y-54311D01*
X30106Y-48200D02*
X30106Y-47956D01*
X28858Y-49448D02*
X30106Y-48200D01*
X28858Y-53110D02*
X28858Y-49448D01*
X27657Y-54311D02*
X28858Y-53110D01*
X28425Y-46161D02*
X27972Y-46161D01*
X28937Y-46161D02*
X28425Y-46161D01*
X27972Y-46161D02*
X27952Y-46181D01*
X24909Y-50846D02*
X24909Y-50618D01*
X24909Y-50618D02*
X24547Y-50255D01*
X28106Y-44956D02*
X28106Y-45783D01*
X31669Y-46161D02*
X32767Y-45062D01*
X28484Y-46161D02*
X28937Y-46161D01*
X28937Y-46161D02*
X31669Y-46161D01*
X28106Y-45783D02*
X28484Y-46161D01*
X24909Y-51712D02*
X24909Y-50846D01*
X29106Y-44956D02*
X29106Y-45248D01*
X29106Y-45248D02*
X29547Y-45688D01*
X35433Y-31889D02*
X35433Y-30421D01*
X33767Y-46062D02*
X35275Y-46062D01*
X35098Y-43818D02*
X33956Y-43818D01*
X35506Y-44227D02*
X35098Y-43818D01*
X35506Y-45831D02*
X35506Y-44227D01*
X35275Y-46062D02*
X35506Y-45831D01*
X17125Y-36342D02*
X17125Y-37082D01*
X18307Y-36311D02*
X17157Y-36311D01*
X17157Y-36311D02*
X17125Y-36342D01*
X20425Y-35811D02*
X18807Y-35811D01*
X18807Y-35811D02*
X18307Y-36311D01*
X16141Y-37082D02*
X16141Y-37480D01*
X16574Y-37913D02*
X17704Y-37913D01*
X16141Y-37480D02*
X16574Y-37913D01*
X17704Y-37913D02*
X18307Y-37311D01*
X18307Y-37311D02*
X18791Y-37311D01*
X18791Y-37311D02*
X19271Y-36830D01*
X20925Y-37106D02*
X20925Y-37811D01*
X20649Y-36830D02*
X20925Y-37106D01*
X19271Y-36830D02*
X20649Y-36830D01*
X17704Y-37913D02*
X18307Y-37311D01*
X16141Y-36342D02*
X16141Y-37082D01*
X29724Y-37082D02*
X29724Y-36342D01*
X28543Y-37311D02*
X29496Y-37311D01*
X29496Y-37311D02*
X29724Y-37082D01*
X25925Y-37811D02*
X25925Y-37322D01*
X28161Y-36929D02*
X28543Y-37311D01*
X26318Y-36929D02*
X28161Y-36929D01*
X25925Y-37322D02*
X26318Y-36929D01*
X28543Y-36311D02*
X26925Y-36311D01*
X26925Y-36311D02*
X26425Y-35811D01*
X30708Y-36342D02*
X30708Y-35964D01*
X29185Y-35669D02*
X28543Y-36311D01*
X30413Y-35669D02*
X29185Y-35669D01*
X30708Y-35964D02*
X30413Y-35669D01*
X30708Y-37082D02*
X30708Y-36342D01*
G54D32*
X26925Y-36311D02*
X26425Y-35811D01*
G54D31*
X14976Y-47838D02*
X14976Y-44838D01*
X18106Y-47956D02*
X15094Y-47956D01*
X15094Y-47956D02*
X14976Y-47838D01*
X18106Y-47956D02*
X18106Y-47366D01*
X18409Y-47062D02*
X32767Y-47062D01*
X18106Y-47366D02*
X18409Y-47062D01*
X17283Y-51114D02*
X18645Y-51114D01*
X18645Y-51114D02*
X18775Y-50984D01*
X18775Y-50984D02*
X18775Y-49996D01*
X18106Y-49326D02*
X18106Y-47956D01*
X18775Y-49996D02*
X18106Y-49326D01*
G54D32*
X18645Y-51114D02*
X18775Y-50984D01*
G54D31*
X19106Y-47956D02*
X19106Y-49657D01*
X19106Y-49657D02*
X19578Y-50129D01*
X19578Y-50129D02*
X19578Y-52165D01*
G54D32*
X19578Y-50129D02*
X19578Y-52165D01*
X19106Y-49657D02*
X19578Y-50129D01*
G54D31*
X32767Y-46062D02*
X32480Y-46062D01*
X32480Y-46062D02*
X31889Y-46653D01*
X31889Y-46653D02*
X27362Y-46653D01*
X27362Y-46653D02*
X27106Y-46397D01*
X27106Y-46397D02*
X27106Y-44956D01*
X27106Y-44956D02*
X27106Y-43078D01*
X27106Y-43078D02*
X27165Y-43019D01*
G54D32*
X27106Y-46397D02*
X27106Y-44956D01*
X27362Y-46653D02*
X27106Y-46397D01*
X31889Y-46653D02*
X27362Y-46653D01*
X32480Y-46062D02*
X31889Y-46653D01*
G54D31*
X18897Y-40807D02*
X18149Y-40059D01*
X20019Y-40807D02*
X18897Y-40807D01*
X14074Y-29921D02*
X14606Y-29921D01*
X15078Y-27637D02*
X15433Y-27283D01*
X15078Y-29448D02*
X15078Y-27637D01*
X14606Y-29921D02*
X15078Y-29448D01*
X19200Y-28846D02*
X19200Y-29027D01*
X15433Y-27283D02*
X16673Y-27283D01*
X16673Y-27283D02*
X17480Y-28090D01*
X17480Y-28090D02*
X18444Y-28090D01*
X18444Y-28090D02*
X19200Y-28846D01*
X14074Y-30921D02*
X14074Y-29921D01*
X14074Y-30921D02*
X14074Y-31988D01*
X14074Y-31988D02*
X13818Y-32244D01*
X20106Y-44956D02*
X20106Y-43000D01*
X20106Y-43000D02*
X20078Y-42972D01*
G54D32*
X13818Y-32244D02*
X14074Y-31988D01*
X20106Y-43000D02*
X20078Y-42972D01*
G54D31*
X14074Y-26295D02*
X14074Y-25295D01*
X14074Y-25295D02*
X15039Y-25295D01*
X15039Y-25295D02*
X15157Y-25413D01*
X22350Y-29027D02*
X22350Y-28492D01*
X22350Y-28492D02*
X22086Y-28228D01*
X22086Y-28228D02*
X20905Y-28228D01*
X20905Y-28228D02*
X20196Y-27519D01*
X20196Y-27519D02*
X20196Y-26358D01*
X20196Y-26358D02*
X19625Y-25787D01*
X19625Y-25787D02*
X18543Y-25787D01*
X18543Y-25787D02*
X18035Y-26295D01*
X18035Y-26295D02*
X14074Y-26295D01*
X21106Y-44956D02*
X21106Y-42996D01*
G54D32*
X15157Y-25413D02*
X15039Y-25295D01*
G54D31*
X21106Y-42996D02*
X21102Y-42992D01*
X21122Y-40944D02*
X21102Y-40925D01*
X21102Y-40925D02*
X21102Y-40039D01*
X21102Y-40039D02*
X20551Y-39488D01*
X20551Y-39488D02*
X18484Y-39488D01*
G54D32*
X22086Y-28228D02*
X21181Y-28228D01*
X22350Y-28492D02*
X22086Y-28228D01*
X14074Y-26295D02*
X18035Y-26295D01*
X18035Y-26295D02*
X18543Y-25787D01*
X20196Y-27519D02*
X20905Y-28228D01*
X20905Y-28228D02*
X21181Y-28228D01*
G54D31*
X31692Y-25629D02*
X30944Y-25629D01*
X30944Y-25629D02*
X30511Y-26062D01*
X31692Y-26629D02*
X31692Y-25629D01*
X25500Y-29027D02*
X26484Y-29027D01*
X26484Y-29027D02*
X26535Y-28976D01*
X22106Y-44956D02*
X22106Y-43129D01*
X22106Y-43129D02*
X22125Y-43110D01*
G54D32*
X26484Y-29027D02*
X26535Y-28976D01*
X30511Y-26062D02*
X30944Y-25629D01*
G54D31*
X30236Y-30314D02*
X29685Y-29763D01*
X31082Y-30314D02*
X30236Y-30314D01*
X29685Y-29763D02*
X29685Y-29488D01*
X29685Y-29488D02*
X29224Y-29027D01*
X29224Y-29027D02*
X28649Y-29027D01*
X31889Y-30314D02*
X31082Y-30314D01*
X31889Y-31314D02*
X31889Y-30314D01*
X23106Y-44956D02*
X23106Y-43145D01*
X23106Y-43145D02*
X23031Y-43070D01*
G54D32*
X23031Y-43070D02*
X23106Y-43145D01*
X29685Y-29763D02*
X30236Y-30314D01*
X31082Y-30314D02*
X31889Y-30314D01*
G54D31*
X19106Y-44956D02*
X19106Y-43925D01*
X19106Y-43925D02*
X19291Y-43740D01*
G54D32*
X19106Y-43925D02*
X19291Y-43740D01*
G54D31*
X18106Y-44956D02*
X18106Y-43763D01*
X18106Y-43763D02*
X18110Y-43759D01*
G54D32*
X18106Y-43763D02*
X18110Y-43759D01*
G54D31*
X35452Y-27007D02*
X34625Y-27007D01*
X34480Y-29421D02*
X35433Y-29421D01*
X34153Y-29094D02*
X34480Y-29421D01*
X34153Y-27480D02*
X34153Y-29094D01*
X34625Y-27007D02*
X34153Y-27480D01*
X20106Y-47956D02*
X20106Y-50874D01*
X20578Y-51346D02*
X20578Y-52165D01*
X20106Y-50874D02*
X20578Y-51346D01*
X14625Y-48877D02*
X14625Y-49862D01*
X16220Y-49881D02*
X16220Y-51456D01*
X18110Y-27196D02*
X17629Y-27196D01*
X15196Y-26732D02*
X14566Y-27362D01*
X17165Y-26732D02*
X15196Y-26732D01*
X17629Y-27196D02*
X17165Y-26732D01*
X12893Y-26795D02*
X12893Y-28421D01*
X15078Y-26850D02*
X14566Y-27362D01*
X14566Y-27362D02*
X13346Y-27362D01*
X13346Y-27362D02*
X12893Y-27814D01*
X21350Y-30027D02*
X21326Y-30027D01*
X18496Y-27196D02*
X18110Y-27196D01*
X21326Y-30027D02*
X18496Y-27196D01*
X24500Y-30027D02*
X24500Y-31425D01*
X24500Y-31425D02*
X23405Y-32519D01*
X27649Y-30027D02*
X27649Y-31759D01*
X27649Y-31759D02*
X26889Y-32519D01*
X33346Y-27011D02*
X33346Y-26889D01*
X34228Y-26007D02*
X35452Y-26007D01*
X33346Y-26889D02*
X34228Y-26007D01*
X30216Y-32051D02*
X30417Y-32051D01*
X33700Y-27366D02*
X33346Y-27011D01*
X33700Y-31870D02*
X33700Y-27366D01*
X32952Y-32618D02*
X33700Y-31870D01*
X30984Y-32618D02*
X32952Y-32618D01*
X30417Y-32051D02*
X30984Y-32618D01*
X30216Y-32051D02*
X29877Y-32051D01*
X29409Y-32519D02*
X26889Y-32519D01*
X29877Y-32051D02*
X29409Y-32519D01*
X26889Y-32519D02*
X20196Y-32519D01*
X18200Y-30027D02*
X18200Y-31271D01*
X18200Y-31271D02*
X19448Y-32519D01*
X19448Y-32519D02*
X20196Y-32519D01*
X20196Y-32519D02*
X20629Y-32519D01*
X20629Y-32519D02*
X21350Y-31799D01*
X21350Y-31799D02*
X21350Y-30027D01*
X12893Y-28421D02*
X12307Y-28421D01*
X12307Y-28421D02*
X11909Y-28818D01*
X11909Y-28818D02*
X11909Y-34192D01*
X23425Y-35811D02*
X23425Y-34677D01*
X23425Y-34677D02*
X24244Y-33858D01*
X32555Y-43125D02*
X32003Y-43125D01*
X32003Y-43125D02*
X30137Y-41259D01*
X32555Y-43125D02*
X35555Y-43125D01*
X16141Y-40082D02*
X17125Y-40082D01*
X12976Y-40822D02*
X12976Y-39720D01*
X13720Y-38976D02*
X15669Y-38976D01*
X12976Y-39720D02*
X13720Y-38976D01*
X15669Y-38976D02*
X16141Y-39448D01*
X16141Y-39448D02*
X16141Y-40082D01*
X12976Y-40822D02*
X12397Y-40822D01*
X12397Y-40822D02*
X12027Y-40452D01*
X12976Y-47838D02*
X12976Y-44838D01*
X12976Y-44838D02*
X12976Y-43822D01*
X12976Y-43822D02*
X12976Y-40822D01*
X17125Y-40082D02*
X17125Y-38917D01*
X17125Y-38917D02*
X17637Y-38405D01*
X17637Y-38405D02*
X18622Y-38405D01*
X18622Y-38405D02*
X19216Y-37811D01*
X19216Y-37811D02*
X19925Y-37811D01*
X24106Y-42519D02*
X18405Y-42519D01*
X18405Y-42519D02*
X17125Y-41240D01*
X17125Y-41240D02*
X17125Y-40082D01*
X24106Y-43700D02*
X24106Y-42519D01*
X24106Y-44956D02*
X24106Y-43700D01*
X33767Y-47062D02*
X34649Y-47062D01*
X35216Y-46496D02*
X35826Y-46496D01*
X34649Y-47062D02*
X35216Y-46496D01*
X18578Y-52165D02*
X17334Y-52165D01*
X17334Y-52165D02*
X17283Y-52114D01*
X17283Y-52114D02*
X16877Y-52114D01*
X16877Y-52114D02*
X16181Y-51417D01*
X16181Y-51417D02*
X14625Y-49862D01*
X14625Y-49862D02*
X12976Y-48212D01*
X12976Y-48212D02*
X12976Y-47838D01*
X33767Y-47062D02*
X33767Y-48200D01*
X33129Y-48838D02*
X32303Y-48838D01*
X33767Y-48200D02*
X33129Y-48838D01*
X31082Y-55295D02*
X31082Y-54566D01*
X31082Y-54566D02*
X31062Y-54546D01*
X35555Y-43125D02*
X35555Y-43744D01*
X35826Y-44015D02*
X35826Y-46496D01*
X35555Y-43744D02*
X35826Y-44015D01*
X35535Y-51000D02*
X34448Y-51000D01*
X35826Y-46496D02*
X35826Y-50708D01*
X35826Y-50708D02*
X35535Y-51000D01*
X25106Y-47956D02*
X25106Y-49212D01*
X27590Y-39370D02*
X27590Y-37984D01*
X27417Y-37811D02*
X26925Y-37811D01*
X27590Y-37984D02*
X27417Y-37811D01*
X29724Y-40082D02*
X30708Y-40082D01*
X27145Y-40098D02*
X27287Y-40098D01*
X27287Y-40098D02*
X27590Y-39795D01*
X27590Y-39795D02*
X27590Y-39370D01*
X24106Y-42519D02*
X24106Y-40480D01*
X24106Y-40480D02*
X24488Y-40098D01*
X24488Y-40098D02*
X27145Y-40098D01*
X29708Y-40098D02*
X29724Y-40082D01*
X27145Y-40098D02*
X29708Y-40098D01*
X31062Y-54546D02*
X33051Y-54546D01*
X33409Y-51000D02*
X34448Y-51000D01*
X33248Y-51161D02*
X33409Y-51000D01*
X33248Y-54350D02*
X33248Y-51161D01*
X33051Y-54546D02*
X33248Y-54350D01*
X30884Y-51377D02*
X30884Y-51632D01*
X30884Y-51632D02*
X31062Y-51811D01*
X31062Y-51811D02*
X31062Y-52396D01*
X31062Y-54546D02*
X31062Y-52396D01*
G54D32*
X12027Y-40452D02*
X12397Y-40822D01*
X28818Y-32519D02*
X28818Y-32578D01*
X28818Y-32578D02*
X28562Y-32834D01*
X20452Y-32519D02*
X20629Y-32519D01*
X20629Y-32519D02*
X21350Y-31799D01*
X21350Y-31799D02*
X21350Y-30027D01*
X23169Y-32519D02*
X23405Y-32519D01*
X23405Y-32519D02*
X24500Y-31425D01*
X25846Y-32519D02*
X26870Y-32519D01*
X27649Y-31740D02*
X27649Y-30027D01*
X26870Y-32519D02*
X27649Y-31740D01*
X19448Y-32519D02*
X18200Y-31271D01*
X28818Y-32519D02*
X25846Y-32519D01*
X25846Y-32519D02*
X23169Y-32519D01*
X23169Y-32519D02*
X20452Y-32519D01*
X20452Y-32519D02*
X19448Y-32519D01*
X19216Y-37811D02*
X19925Y-37811D01*
X18622Y-38405D02*
X19216Y-37811D01*
X17637Y-38405D02*
X18622Y-38405D01*
X17125Y-38917D02*
X17637Y-38405D01*
X18200Y-30027D02*
X18200Y-31271D01*
X21350Y-31799D02*
X21350Y-30027D01*
X12893Y-28421D02*
X12893Y-27814D01*
X12893Y-27814D02*
X13346Y-27362D01*
X13346Y-27362D02*
X14566Y-27362D01*
X14566Y-27362D02*
X15078Y-26850D01*
X27590Y-39370D02*
X27590Y-39795D01*
X17125Y-40082D02*
X17125Y-41240D01*
X17125Y-41240D02*
X18405Y-42519D01*
X15669Y-38976D02*
X16141Y-39448D01*
X16141Y-39448D02*
X16141Y-40082D01*
X12976Y-40822D02*
X12976Y-43822D01*
X12976Y-44838D02*
X12976Y-43822D01*
X31062Y-52396D02*
X31062Y-51811D01*
X31062Y-51811D02*
X30884Y-51632D01*
X17334Y-52165D02*
X17283Y-52114D01*
G54D31*
X25106Y-44956D02*
X25106Y-43700D01*
X22106Y-47956D02*
X22106Y-49665D01*
X22106Y-49665D02*
X22244Y-49803D01*
G54D32*
X22106Y-49665D02*
X22244Y-49803D01*
G54D31*
X21106Y-47956D02*
X21106Y-49759D01*
X21106Y-49759D02*
X21062Y-49803D01*
G54D32*
X21106Y-49759D02*
X21062Y-49803D01*
G54D31*
X16216Y-41535D02*
X15688Y-41535D01*
X15688Y-41535D02*
X14976Y-40822D01*
X14976Y-43822D02*
X14976Y-40822D01*
G54D32*
X14976Y-40822D02*
X14976Y-39779D01*
X14976Y-39779D02*
X14960Y-39763D01*
X14976Y-40822D02*
X14976Y-41275D01*
X14976Y-41275D02*
X14976Y-43822D01*
G54D31*
X23917Y-56791D02*
X23917Y-55807D01*
X23956Y-56830D02*
X23917Y-56791D01*
X23909Y-51712D02*
X23909Y-53259D01*
X23909Y-53259D02*
X23937Y-53287D01*
X31889Y-29314D02*
X30480Y-29314D01*
X30480Y-29314D02*
X30216Y-29051D01*
X14074Y-24295D02*
X13393Y-24295D01*
X13393Y-24295D02*
X12893Y-23795D01*
G54D32*
X13393Y-24295D02*
X12893Y-23795D01*
G54D31*
X31634Y-51377D02*
X31634Y-52324D01*
X31634Y-52324D02*
X31562Y-52396D01*
X35555Y-41125D02*
X32555Y-41125D01*
X26181Y-40822D02*
X32251Y-40822D01*
X32251Y-40822D02*
X32555Y-41125D01*
X27165Y-42019D02*
X27165Y-41807D01*
X27165Y-41807D02*
X26181Y-40822D01*
G54D32*
X32251Y-40822D02*
X32555Y-41125D01*
X27165Y-41807D02*
X26181Y-40822D01*
G54D31*
X12893Y-31421D02*
X12893Y-29783D01*
X13755Y-28921D02*
X14074Y-28921D01*
X12893Y-29783D02*
X13755Y-28921D01*
X33346Y-24011D02*
X32311Y-24011D01*
X32311Y-24011D02*
X31692Y-24629D01*
X27649Y-29027D02*
X27649Y-28688D01*
X28031Y-28307D02*
X32791Y-28307D01*
X27649Y-28688D02*
X28031Y-28307D01*
X32791Y-28307D02*
X33070Y-28027D01*
G54D32*
X32791Y-28307D02*
X33070Y-28027D01*
G54D31*
X21350Y-29027D02*
X20996Y-29027D01*
X19133Y-27165D02*
X19133Y-26578D01*
X20996Y-29027D02*
X19133Y-27165D01*
X34251Y-38992D02*
X34251Y-40374D01*
X31299Y-50000D02*
X31299Y-49625D01*
X31299Y-49625D02*
X31673Y-49251D01*
X30299Y-50000D02*
X31299Y-50000D01*
X30062Y-51023D02*
X30062Y-50940D01*
X32062Y-50842D02*
X32062Y-52396D01*
X31988Y-50767D02*
X32062Y-50842D01*
X30236Y-50767D02*
X31988Y-50767D01*
X30062Y-50940D02*
X30236Y-50767D01*
X30062Y-52396D02*
X30062Y-51023D01*
X30062Y-51023D02*
X30062Y-50236D01*
X30062Y-50236D02*
X30299Y-50000D01*
G54D32*
X30062Y-51417D02*
X30062Y-50236D01*
X30062Y-50236D02*
X30299Y-50000D01*
X30062Y-51417D02*
X30062Y-52396D01*
G54D31*
X24500Y-29027D02*
X24500Y-28570D01*
X24500Y-28570D02*
X25157Y-27913D01*
X25157Y-27913D02*
X29488Y-27913D01*
X29488Y-27913D02*
X29763Y-27637D01*
X29763Y-27637D02*
X29763Y-24799D01*
X29763Y-24799D02*
X30511Y-24051D01*
G54D32*
X29763Y-24799D02*
X30511Y-24051D01*
X29763Y-27637D02*
X29763Y-24799D01*
X29488Y-27913D02*
X29763Y-27637D01*
X25157Y-27913D02*
X29488Y-27913D01*
X24500Y-28570D02*
X25157Y-27913D01*
G54D31*
X18200Y-29027D02*
X17251Y-29027D01*
X17251Y-29027D02*
X16141Y-27917D01*
G54D10*
G36*
X12677Y-48383D02*
X11964Y-47669D01*
X11964Y-40884D01*
X12150Y-41070D01*
X12150Y-41070D01*
X12263Y-41146D01*
X12397Y-41172D01*
X12397Y-41172D01*
X12397Y-41172D01*
X12499Y-41172D01*
X12626Y-41299D01*
X12626Y-43346D01*
X12481Y-43491D01*
X12391Y-43706D01*
X12391Y-43938D01*
X12480Y-44153D01*
X12626Y-44299D01*
X12626Y-44361D01*
X12481Y-44506D01*
X12391Y-44721D01*
X12391Y-44954D01*
X12480Y-45169D01*
X12626Y-45315D01*
X12626Y-47361D01*
X12481Y-47506D01*
X12391Y-47721D01*
X12391Y-47954D01*
X12480Y-48169D01*
X12644Y-48333D01*
X12651Y-48336D01*
X12653Y-48346D01*
X12677Y-48383D01*
X12677Y-48383D01*
G37*
G54D34*
X12677Y-48383D02*
X11964Y-47669D01*
X11964Y-40884D01*
X12150Y-41070D01*
X12150Y-41070D01*
X12263Y-41146D01*
X12397Y-41172D01*
X12397Y-41172D01*
X12397Y-41172D01*
X12499Y-41172D01*
X12626Y-41299D01*
X12626Y-43346D01*
X12481Y-43491D01*
X12391Y-43706D01*
X12391Y-43938D01*
X12480Y-44153D01*
X12626Y-44299D01*
X12626Y-44361D01*
X12481Y-44506D01*
X12391Y-44721D01*
X12391Y-44954D01*
X12480Y-45169D01*
X12626Y-45315D01*
X12626Y-47361D01*
X12481Y-47506D01*
X12391Y-47721D01*
X12391Y-47954D01*
X12480Y-48169D01*
X12644Y-48333D01*
X12651Y-48336D01*
X12653Y-48346D01*
X12677Y-48383D01*
G54D10*
G36*
X14526Y-29505D02*
X14520Y-29512D01*
X14517Y-29509D01*
X14526Y-29505D01*
X14526Y-29505D01*
G37*
G54D34*
X14526Y-29505D02*
X14520Y-29512D01*
X14517Y-29509D01*
X14526Y-29505D01*
G54D10*
G36*
X14674Y-44330D02*
X14645Y-44342D01*
X14481Y-44506D01*
X14391Y-44721D01*
X14391Y-44954D01*
X14480Y-45169D01*
X14626Y-45315D01*
X14626Y-47361D01*
X14481Y-47506D01*
X14391Y-47721D01*
X14391Y-47954D01*
X14480Y-48169D01*
X14545Y-48234D01*
X14498Y-48234D01*
X14261Y-48331D01*
X14080Y-48512D01*
X13989Y-48731D01*
X13450Y-48191D01*
X13471Y-48170D01*
X13560Y-47955D01*
X13561Y-47722D01*
X13472Y-47507D01*
X13326Y-47361D01*
X13326Y-45315D01*
X13471Y-45170D01*
X13560Y-44955D01*
X13561Y-44722D01*
X13472Y-44507D01*
X13326Y-44361D01*
X13326Y-44299D01*
X13471Y-44154D01*
X13560Y-43939D01*
X13561Y-43707D01*
X13472Y-43492D01*
X13326Y-43345D01*
X13326Y-41299D01*
X13471Y-41154D01*
X13560Y-40939D01*
X13561Y-40707D01*
X13472Y-40492D01*
X13326Y-40345D01*
X13326Y-39865D01*
X13865Y-39326D01*
X14487Y-39326D01*
X14415Y-39398D01*
X14317Y-39635D01*
X14316Y-39891D01*
X14414Y-40127D01*
X14595Y-40309D01*
X14643Y-40329D01*
X14481Y-40491D01*
X14391Y-40706D01*
X14391Y-40938D01*
X14480Y-41153D01*
X14626Y-41299D01*
X14626Y-43346D01*
X14481Y-43491D01*
X14391Y-43706D01*
X14391Y-43938D01*
X14480Y-44153D01*
X14644Y-44318D01*
X14674Y-44330D01*
X14674Y-44330D01*
G37*
G54D34*
X14674Y-44330D02*
X14645Y-44342D01*
X14481Y-44506D01*
X14391Y-44721D01*
X14391Y-44954D01*
X14480Y-45169D01*
X14626Y-45315D01*
X14626Y-47361D01*
X14481Y-47506D01*
X14391Y-47721D01*
X14391Y-47954D01*
X14480Y-48169D01*
X14545Y-48234D01*
X14498Y-48234D01*
X14261Y-48331D01*
X14080Y-48512D01*
X13989Y-48731D01*
X13450Y-48191D01*
X13471Y-48170D01*
X13560Y-47955D01*
X13561Y-47722D01*
X13472Y-47507D01*
X13326Y-47361D01*
X13326Y-45315D01*
X13471Y-45170D01*
X13560Y-44955D01*
X13561Y-44722D01*
X13472Y-44507D01*
X13326Y-44361D01*
X13326Y-44299D01*
X13471Y-44154D01*
X13560Y-43939D01*
X13561Y-43707D01*
X13472Y-43492D01*
X13326Y-43345D01*
X13326Y-41299D01*
X13471Y-41154D01*
X13560Y-40939D01*
X13561Y-40707D01*
X13472Y-40492D01*
X13326Y-40345D01*
X13326Y-39865D01*
X13865Y-39326D01*
X14487Y-39326D01*
X14415Y-39398D01*
X14317Y-39635D01*
X14316Y-39891D01*
X14414Y-40127D01*
X14595Y-40309D01*
X14643Y-40329D01*
X14481Y-40491D01*
X14391Y-40706D01*
X14391Y-40938D01*
X14480Y-41153D01*
X14626Y-41299D01*
X14626Y-43346D01*
X14481Y-43491D01*
X14391Y-43706D01*
X14391Y-43938D01*
X14480Y-44153D01*
X14644Y-44318D01*
X14674Y-44330D01*
G54D10*
G36*
X14728Y-29303D02*
X14659Y-29373D01*
X14679Y-29325D01*
X14679Y-29226D01*
X14679Y-28517D01*
X14641Y-28425D01*
X14570Y-28355D01*
X14479Y-28316D01*
X14379Y-28316D01*
X13670Y-28316D01*
X13579Y-28354D01*
X13508Y-28425D01*
X13470Y-28516D01*
X13470Y-28616D01*
X13470Y-28711D01*
X12646Y-29535D01*
X12570Y-29649D01*
X12543Y-29783D01*
X12543Y-31028D01*
X12448Y-31123D01*
X12368Y-31316D01*
X12368Y-31525D01*
X12448Y-31718D01*
X12595Y-31866D01*
X12788Y-31946D01*
X12997Y-31946D01*
X13190Y-31866D01*
X13338Y-31719D01*
X13418Y-31526D01*
X13418Y-31317D01*
X13339Y-31124D01*
X13243Y-31028D01*
X13243Y-29928D01*
X13540Y-29631D01*
X13470Y-29800D01*
X13470Y-30040D01*
X13562Y-30263D01*
X13720Y-30421D01*
X13562Y-30578D01*
X13470Y-30800D01*
X13470Y-31040D01*
X13562Y-31263D01*
X13724Y-31426D01*
X13724Y-31823D01*
X13578Y-31883D01*
X13458Y-32003D01*
X13393Y-32159D01*
X13393Y-32328D01*
X13458Y-32484D01*
X13577Y-32604D01*
X13733Y-32669D01*
X13903Y-32669D01*
X14003Y-32627D01*
X12321Y-34309D01*
X12334Y-34277D01*
X12334Y-34108D01*
X12269Y-33952D01*
X12259Y-33941D01*
X12259Y-28963D01*
X12452Y-28771D01*
X12501Y-28771D01*
X12595Y-28866D01*
X12788Y-28946D01*
X12997Y-28946D01*
X13190Y-28866D01*
X13338Y-28719D01*
X13418Y-28526D01*
X13418Y-28317D01*
X13339Y-28124D01*
X13243Y-28028D01*
X13243Y-27959D01*
X13491Y-27712D01*
X14566Y-27712D01*
X14700Y-27685D01*
X14700Y-27685D01*
X14728Y-27666D01*
X14728Y-29303D01*
X14728Y-29303D01*
G37*
G54D34*
X14728Y-29303D02*
X14659Y-29373D01*
X14679Y-29325D01*
X14679Y-29226D01*
X14679Y-28517D01*
X14641Y-28425D01*
X14570Y-28355D01*
X14479Y-28316D01*
X14379Y-28316D01*
X13670Y-28316D01*
X13579Y-28354D01*
X13508Y-28425D01*
X13470Y-28516D01*
X13470Y-28616D01*
X13470Y-28711D01*
X12646Y-29535D01*
X12570Y-29649D01*
X12543Y-29783D01*
X12543Y-31028D01*
X12448Y-31123D01*
X12368Y-31316D01*
X12368Y-31525D01*
X12448Y-31718D01*
X12595Y-31866D01*
X12788Y-31946D01*
X12997Y-31946D01*
X13190Y-31866D01*
X13338Y-31719D01*
X13418Y-31526D01*
X13418Y-31317D01*
X13339Y-31124D01*
X13243Y-31028D01*
X13243Y-29928D01*
X13540Y-29631D01*
X13470Y-29800D01*
X13470Y-30040D01*
X13562Y-30263D01*
X13720Y-30421D01*
X13562Y-30578D01*
X13470Y-30800D01*
X13470Y-31040D01*
X13562Y-31263D01*
X13724Y-31426D01*
X13724Y-31823D01*
X13578Y-31883D01*
X13458Y-32003D01*
X13393Y-32159D01*
X13393Y-32328D01*
X13458Y-32484D01*
X13577Y-32604D01*
X13733Y-32669D01*
X13903Y-32669D01*
X14003Y-32627D01*
X12321Y-34309D01*
X12334Y-34277D01*
X12334Y-34108D01*
X12269Y-33952D01*
X12259Y-33941D01*
X12259Y-28963D01*
X12452Y-28771D01*
X12501Y-28771D01*
X12595Y-28866D01*
X12788Y-28946D01*
X12997Y-28946D01*
X13190Y-28866D01*
X13338Y-28719D01*
X13418Y-28526D01*
X13418Y-28317D01*
X13339Y-28124D01*
X13243Y-28028D01*
X13243Y-27959D01*
X13491Y-27712D01*
X14566Y-27712D01*
X14700Y-27685D01*
X14700Y-27685D01*
X14728Y-27666D01*
X14728Y-29303D01*
G54D10*
G36*
X15791Y-39605D02*
X15646Y-39751D01*
X15604Y-39852D01*
X15604Y-39636D01*
X15506Y-39399D01*
X15433Y-39326D01*
X15524Y-39326D01*
X15791Y-39593D01*
X15791Y-39605D01*
X15791Y-39605D01*
G37*
G54D34*
X15791Y-39605D02*
X15646Y-39751D01*
X15604Y-39852D01*
X15604Y-39636D01*
X15506Y-39399D01*
X15433Y-39326D01*
X15524Y-39326D01*
X15791Y-39593D01*
X15791Y-39605D01*
G54D10*
G36*
X17864Y-36722D02*
X17811Y-36744D01*
X17740Y-36814D01*
X17710Y-36887D01*
X17710Y-36698D01*
X17695Y-36661D01*
X17802Y-36661D01*
X17864Y-36722D01*
X17864Y-36722D01*
G37*
G54D34*
X17864Y-36722D02*
X17811Y-36744D01*
X17740Y-36814D01*
X17710Y-36887D01*
X17710Y-36698D01*
X17695Y-36661D01*
X17802Y-36661D01*
X17864Y-36722D01*
G54D10*
G36*
X17895Y-27740D02*
X17625Y-27740D01*
X16967Y-27082D01*
X17020Y-27082D01*
X17382Y-27444D01*
X17495Y-27520D01*
X17495Y-27520D01*
X17629Y-27546D01*
X17633Y-27546D01*
X17778Y-27692D01*
X17895Y-27740D01*
X17895Y-27740D01*
G37*
G54D34*
X17895Y-27740D02*
X17625Y-27740D01*
X16967Y-27082D01*
X17020Y-27082D01*
X17382Y-27444D01*
X17495Y-27520D01*
X17495Y-27520D01*
X17629Y-27546D01*
X17633Y-27546D01*
X17778Y-27692D01*
X17895Y-27740D01*
G54D10*
G36*
X17914Y-26645D02*
X17779Y-26700D01*
X17704Y-26776D01*
X17573Y-26645D01*
X17914Y-26645D01*
X17914Y-26645D01*
G37*
G54D34*
X17914Y-26645D02*
X17779Y-26700D01*
X17704Y-26776D01*
X17573Y-26645D01*
X17914Y-26645D01*
G54D10*
G36*
X18139Y-33012D02*
X17710Y-33012D01*
X17710Y-32958D01*
X17672Y-32866D01*
X17602Y-32796D01*
X17510Y-32757D01*
X17411Y-32757D01*
X16741Y-32757D01*
X16649Y-32795D01*
X16633Y-32811D01*
X16618Y-32796D01*
X16526Y-32757D01*
X16426Y-32757D01*
X15757Y-32757D01*
X15742Y-32763D01*
X15896Y-32610D01*
X15910Y-32610D01*
X16067Y-32545D01*
X16186Y-32426D01*
X16251Y-32269D01*
X16251Y-32100D01*
X16227Y-32042D01*
X17276Y-32042D01*
X18039Y-32806D01*
X18039Y-32820D01*
X18104Y-32976D01*
X18139Y-33012D01*
X18139Y-33012D01*
G37*
G54D34*
X18139Y-33012D02*
X17710Y-33012D01*
X17710Y-32958D01*
X17672Y-32866D01*
X17602Y-32796D01*
X17510Y-32757D01*
X17411Y-32757D01*
X16741Y-32757D01*
X16649Y-32795D01*
X16633Y-32811D01*
X16618Y-32796D01*
X16526Y-32757D01*
X16426Y-32757D01*
X15757Y-32757D01*
X15742Y-32763D01*
X15896Y-32610D01*
X15910Y-32610D01*
X16067Y-32545D01*
X16186Y-32426D01*
X16251Y-32269D01*
X16251Y-32100D01*
X16227Y-32042D01*
X17276Y-32042D01*
X18039Y-32806D01*
X18039Y-32820D01*
X18104Y-32976D01*
X18139Y-33012D01*
G54D10*
G36*
X18328Y-28468D02*
X18313Y-28462D01*
X18088Y-28462D01*
X17881Y-28548D01*
X17751Y-28677D01*
X17396Y-28677D01*
X16666Y-27947D01*
X16666Y-27813D01*
X16637Y-27742D01*
X17232Y-28338D01*
X17232Y-28338D01*
X17346Y-28413D01*
X17480Y-28440D01*
X17480Y-28440D01*
X17480Y-28440D01*
X18299Y-28440D01*
X18328Y-28468D01*
X18328Y-28468D01*
G37*
G54D34*
X18328Y-28468D02*
X18313Y-28462D01*
X18088Y-28462D01*
X17881Y-28548D01*
X17751Y-28677D01*
X17396Y-28677D01*
X16666Y-27947D01*
X16666Y-27813D01*
X16637Y-27742D01*
X17232Y-28338D01*
X17232Y-28338D01*
X17346Y-28413D01*
X17480Y-28440D01*
X17480Y-28440D01*
X17480Y-28440D01*
X18299Y-28440D01*
X18328Y-28468D01*
G54D10*
G36*
X18425Y-50507D02*
X18280Y-50652D01*
X18233Y-50764D01*
X17760Y-50764D01*
X17615Y-50618D01*
X17400Y-50529D01*
X17167Y-50529D01*
X16952Y-50618D01*
X16788Y-50782D01*
X16698Y-50997D01*
X16698Y-51229D01*
X16787Y-51444D01*
X16951Y-51609D01*
X16962Y-51614D01*
X16952Y-51618D01*
X16914Y-51656D01*
X16570Y-51311D01*
X16570Y-50433D01*
X16584Y-50427D01*
X16765Y-50246D01*
X16864Y-50010D01*
X16864Y-49754D01*
X16766Y-49517D01*
X16585Y-49336D01*
X16349Y-49238D01*
X16092Y-49238D01*
X15856Y-49335D01*
X15675Y-49516D01*
X15576Y-49753D01*
X15576Y-50009D01*
X15674Y-50246D01*
X15855Y-50427D01*
X15870Y-50433D01*
X15870Y-50611D01*
X14975Y-49717D01*
X14975Y-49429D01*
X14990Y-49423D01*
X15171Y-49243D01*
X15269Y-49006D01*
X15269Y-48750D01*
X15172Y-48513D01*
X15081Y-48423D01*
X15092Y-48423D01*
X15307Y-48334D01*
X15334Y-48306D01*
X17546Y-48306D01*
X17546Y-48456D01*
X17584Y-48548D01*
X17654Y-48618D01*
X17746Y-48656D01*
X17756Y-48656D01*
X17756Y-49326D01*
X17782Y-49460D01*
X17858Y-49574D01*
X18425Y-50141D01*
X18425Y-50507D01*
X18425Y-50507D01*
G37*
G54D34*
X18425Y-50507D02*
X18280Y-50652D01*
X18233Y-50764D01*
X17760Y-50764D01*
X17615Y-50618D01*
X17400Y-50529D01*
X17167Y-50529D01*
X16952Y-50618D01*
X16788Y-50782D01*
X16698Y-50997D01*
X16698Y-51229D01*
X16787Y-51444D01*
X16951Y-51609D01*
X16962Y-51614D01*
X16952Y-51618D01*
X16914Y-51656D01*
X16570Y-51311D01*
X16570Y-50433D01*
X16584Y-50427D01*
X16765Y-50246D01*
X16864Y-50010D01*
X16864Y-49754D01*
X16766Y-49517D01*
X16585Y-49336D01*
X16349Y-49238D01*
X16092Y-49238D01*
X15856Y-49335D01*
X15675Y-49516D01*
X15576Y-49753D01*
X15576Y-50009D01*
X15674Y-50246D01*
X15855Y-50427D01*
X15870Y-50433D01*
X15870Y-50611D01*
X14975Y-49717D01*
X14975Y-49429D01*
X14990Y-49423D01*
X15171Y-49243D01*
X15269Y-49006D01*
X15269Y-48750D01*
X15172Y-48513D01*
X15081Y-48423D01*
X15092Y-48423D01*
X15307Y-48334D01*
X15334Y-48306D01*
X17546Y-48306D01*
X17546Y-48456D01*
X17584Y-48548D01*
X17654Y-48618D01*
X17746Y-48656D01*
X17756Y-48656D01*
X17756Y-49326D01*
X17782Y-49460D01*
X17858Y-49574D01*
X18425Y-50141D01*
X18425Y-50507D01*
G54D10*
G36*
X18569Y-27765D02*
X18444Y-27740D01*
X18325Y-27740D01*
X18440Y-27692D01*
X18469Y-27664D01*
X18569Y-27765D01*
X18569Y-27765D01*
G37*
G54D34*
X18569Y-27765D02*
X18444Y-27740D01*
X18325Y-27740D01*
X18440Y-27692D01*
X18469Y-27664D01*
X18569Y-27765D01*
G54D10*
G36*
X18617Y-37915D02*
X18477Y-38055D01*
X18057Y-38055D01*
X18197Y-37915D01*
X18617Y-37915D01*
X18617Y-37915D01*
G37*
G54D34*
X18617Y-37915D02*
X18477Y-38055D01*
X18057Y-38055D01*
X18197Y-37915D01*
X18617Y-37915D01*
G54D10*
G36*
X18639Y-51560D02*
X18174Y-51560D01*
X18082Y-51598D01*
X18012Y-51669D01*
X17974Y-51761D01*
X17974Y-51815D01*
X17792Y-51815D01*
X17779Y-51783D01*
X17615Y-51618D01*
X17604Y-51614D01*
X17614Y-51610D01*
X17760Y-51464D01*
X18428Y-51464D01*
X18443Y-51479D01*
X18639Y-51560D01*
X18639Y-51560D01*
G37*
G54D34*
X18639Y-51560D02*
X18174Y-51560D01*
X18082Y-51598D01*
X18012Y-51669D01*
X17974Y-51761D01*
X17974Y-51815D01*
X17792Y-51815D01*
X17779Y-51783D01*
X17615Y-51618D01*
X17604Y-51614D01*
X17614Y-51610D01*
X17760Y-51464D01*
X18428Y-51464D01*
X18443Y-51479D01*
X18639Y-51560D01*
G54D10*
G36*
X18706Y-47412D02*
X18666Y-47472D01*
X18666Y-47457D01*
X18648Y-47412D01*
X18706Y-47412D01*
X18706Y-47412D01*
G37*
G54D34*
X18706Y-47412D02*
X18666Y-47472D01*
X18666Y-47457D01*
X18648Y-47412D01*
X18706Y-47412D01*
G54D10*
G36*
X18756Y-44376D02*
X18710Y-44406D01*
X18606Y-44562D01*
X18502Y-44406D01*
X18456Y-44376D01*
X18456Y-44313D01*
X18474Y-44305D01*
X18655Y-44124D01*
X18704Y-44006D01*
X18745Y-44104D01*
X18756Y-44115D01*
X18756Y-44376D01*
X18756Y-44376D01*
G37*
G54D34*
X18756Y-44376D02*
X18710Y-44406D01*
X18606Y-44562D01*
X18502Y-44406D01*
X18456Y-44376D01*
X18456Y-44313D01*
X18474Y-44305D01*
X18655Y-44124D01*
X18704Y-44006D01*
X18745Y-44104D01*
X18756Y-44115D01*
X18756Y-44376D01*
G54D10*
G36*
X18756Y-49481D02*
X18456Y-49181D01*
X18456Y-48656D01*
X18465Y-48656D01*
X18557Y-48618D01*
X18628Y-48548D01*
X18666Y-48456D01*
X18666Y-48440D01*
X18710Y-48506D01*
X18756Y-48537D01*
X18756Y-49481D01*
X18756Y-49481D01*
G37*
G54D34*
X18756Y-49481D02*
X18456Y-49181D01*
X18456Y-48656D01*
X18465Y-48656D01*
X18557Y-48618D01*
X18628Y-48548D01*
X18666Y-48456D01*
X18666Y-48440D01*
X18710Y-48506D01*
X18756Y-48537D01*
X18756Y-49481D01*
G54D10*
G36*
X18789Y-41135D02*
X18739Y-41185D01*
X18609Y-41185D01*
X18102Y-40678D01*
X18102Y-40663D01*
X18037Y-40507D01*
X17978Y-40448D01*
X18064Y-40483D01*
X18079Y-40483D01*
X18650Y-41054D01*
X18650Y-41054D01*
X18763Y-41130D01*
X18789Y-41135D01*
X18789Y-41135D01*
G37*
G54D34*
X18789Y-41135D02*
X18739Y-41185D01*
X18609Y-41185D01*
X18102Y-40678D01*
X18102Y-40663D01*
X18037Y-40507D01*
X17978Y-40448D01*
X18064Y-40483D01*
X18079Y-40483D01*
X18650Y-41054D01*
X18650Y-41054D01*
X18763Y-41130D01*
X18789Y-41135D01*
G54D10*
G36*
X18832Y-26137D02*
X18689Y-26280D01*
X18608Y-26473D01*
X18608Y-26682D01*
X18688Y-26875D01*
X18783Y-26971D01*
X18783Y-26989D01*
X18743Y-26949D01*
X18630Y-26873D01*
X18607Y-26868D01*
X18607Y-26868D01*
X18606Y-26866D01*
X18441Y-26701D01*
X18227Y-26612D01*
X18178Y-26612D01*
X18282Y-26542D01*
X18688Y-26137D01*
X18832Y-26137D01*
X18832Y-26137D01*
G37*
G54D34*
X18832Y-26137D02*
X18689Y-26280D01*
X18608Y-26473D01*
X18608Y-26682D01*
X18688Y-26875D01*
X18783Y-26971D01*
X18783Y-26989D01*
X18743Y-26949D01*
X18630Y-26873D01*
X18607Y-26868D01*
X18607Y-26868D01*
X18606Y-26866D01*
X18441Y-26701D01*
X18227Y-26612D01*
X18178Y-26612D01*
X18282Y-26542D01*
X18688Y-26137D01*
X18832Y-26137D01*
G54D10*
G36*
X18931Y-29527D02*
X18881Y-29548D01*
X18722Y-29707D01*
X18700Y-29758D01*
X18680Y-29707D01*
X18521Y-29548D01*
X18469Y-29527D01*
X18520Y-29506D01*
X18679Y-29348D01*
X18700Y-29296D01*
X18721Y-29347D01*
X18880Y-29506D01*
X18931Y-29527D01*
X18931Y-29527D01*
G37*
G54D34*
X18931Y-29527D02*
X18881Y-29548D01*
X18722Y-29707D01*
X18700Y-29758D01*
X18680Y-29707D01*
X18521Y-29548D01*
X18469Y-29527D01*
X18520Y-29506D01*
X18679Y-29348D01*
X18700Y-29296D01*
X18721Y-29347D01*
X18880Y-29506D01*
X18931Y-29527D01*
G54D10*
G36*
X19228Y-50610D02*
X19125Y-50507D01*
X19125Y-50171D01*
X19228Y-50274D01*
X19228Y-50610D01*
X19228Y-50610D01*
G37*
G54D34*
X19228Y-50610D02*
X19125Y-50507D01*
X19125Y-50171D01*
X19228Y-50274D01*
X19228Y-50610D01*
G54D10*
G36*
X19228Y-51660D02*
X19166Y-51722D01*
X19145Y-51669D01*
X19074Y-51599D01*
X18983Y-51561D01*
X18910Y-51561D01*
X19106Y-51480D01*
X19228Y-51357D01*
X19228Y-51660D01*
X19228Y-51660D01*
G37*
G54D34*
X19228Y-51660D02*
X19166Y-51722D01*
X19145Y-51669D01*
X19074Y-51599D01*
X18983Y-51561D01*
X18910Y-51561D01*
X19106Y-51480D01*
X19228Y-51357D01*
X19228Y-51660D01*
G54D10*
G36*
X19318Y-37278D02*
X19281Y-37367D01*
X19281Y-37461D01*
X19216Y-37461D01*
X19116Y-37480D01*
X19318Y-37278D01*
X19318Y-37278D01*
G37*
G54D34*
X19318Y-37278D02*
X19281Y-37367D01*
X19281Y-37461D01*
X19216Y-37461D01*
X19116Y-37480D01*
X19318Y-37278D01*
G54D10*
G36*
X19450Y-37180D02*
X19393Y-37204D01*
X19416Y-37180D01*
X19450Y-37180D01*
X19450Y-37180D01*
G37*
G54D34*
X19450Y-37180D02*
X19393Y-37204D01*
X19416Y-37180D01*
X19450Y-37180D01*
G54D10*
G36*
X19706Y-47412D02*
X19606Y-47562D01*
X19506Y-47412D01*
X19706Y-47412D01*
X19706Y-47412D01*
G37*
G54D34*
X19706Y-47412D02*
X19606Y-47562D01*
X19506Y-47412D01*
X19706Y-47412D01*
G54D10*
G36*
X19756Y-44376D02*
X19710Y-44406D01*
X19606Y-44562D01*
X19502Y-44406D01*
X19456Y-44376D01*
X19456Y-44368D01*
X19655Y-44286D01*
X19756Y-44185D01*
X19756Y-44376D01*
X19756Y-44376D01*
G37*
G54D34*
X19756Y-44376D02*
X19710Y-44406D01*
X19606Y-44562D01*
X19502Y-44406D01*
X19456Y-44376D01*
X19456Y-44368D01*
X19655Y-44286D01*
X19756Y-44185D01*
X19756Y-44376D01*
G54D10*
G36*
X19756Y-49812D02*
X19456Y-49512D01*
X19456Y-48537D01*
X19502Y-48506D01*
X19606Y-48350D01*
X19710Y-48506D01*
X19756Y-48537D01*
X19756Y-49812D01*
X19756Y-49812D01*
G37*
G54D34*
X19756Y-49812D02*
X19456Y-49512D01*
X19456Y-48537D01*
X19502Y-48506D01*
X19606Y-48350D01*
X19710Y-48506D01*
X19756Y-48537D01*
X19756Y-49812D01*
G54D10*
G36*
X19822Y-41185D02*
X19693Y-41185D01*
X19664Y-41157D01*
X19768Y-41157D01*
X19778Y-41167D01*
X19822Y-41185D01*
X19822Y-41185D01*
G37*
G54D34*
X19822Y-41185D02*
X19693Y-41185D01*
X19664Y-41157D01*
X19768Y-41157D01*
X19778Y-41167D01*
X19822Y-41185D01*
G54D10*
G36*
X19846Y-27383D02*
X19483Y-27020D01*
X19483Y-26971D01*
X19578Y-26876D01*
X19658Y-26683D01*
X19658Y-26474D01*
X19579Y-26281D01*
X19435Y-26137D01*
X19481Y-26137D01*
X19846Y-26503D01*
X19846Y-27383D01*
X19846Y-27383D01*
G37*
G54D34*
X19846Y-27383D02*
X19483Y-27020D01*
X19483Y-26971D01*
X19578Y-26876D01*
X19658Y-26683D01*
X19658Y-26474D01*
X19579Y-26281D01*
X19435Y-26137D01*
X19481Y-26137D01*
X19846Y-26503D01*
X19846Y-27383D01*
G54D10*
G36*
X20228Y-51660D02*
X20078Y-51810D01*
X19928Y-51660D01*
X19928Y-51191D01*
X20228Y-51491D01*
X20228Y-51660D01*
X20228Y-51660D01*
G37*
G54D34*
X20228Y-51660D02*
X20078Y-51810D01*
X19928Y-51660D01*
X19928Y-51191D01*
X20228Y-51491D01*
X20228Y-51660D01*
G54D10*
G36*
X20282Y-52696D02*
X20153Y-52749D01*
X20033Y-52869D01*
X19968Y-53025D01*
X19968Y-53194D01*
X20033Y-53350D01*
X20092Y-53409D01*
X17704Y-53409D01*
X16706Y-52412D01*
X16744Y-52437D01*
X16744Y-52437D01*
X16789Y-52446D01*
X16951Y-52609D01*
X17166Y-52698D01*
X17399Y-52698D01*
X17614Y-52610D01*
X17709Y-52515D01*
X17974Y-52515D01*
X17974Y-52569D01*
X18012Y-52661D01*
X18082Y-52731D01*
X18174Y-52769D01*
X18273Y-52769D01*
X18982Y-52769D01*
X19074Y-52731D01*
X19144Y-52661D01*
X19166Y-52608D01*
X19235Y-52677D01*
X19458Y-52769D01*
X19698Y-52769D01*
X19920Y-52677D01*
X20078Y-52520D01*
X20235Y-52677D01*
X20282Y-52696D01*
X20282Y-52696D01*
G37*
G54D34*
X20282Y-52696D02*
X20153Y-52749D01*
X20033Y-52869D01*
X19968Y-53025D01*
X19968Y-53194D01*
X20033Y-53350D01*
X20092Y-53409D01*
X17704Y-53409D01*
X16706Y-52412D01*
X16744Y-52437D01*
X16744Y-52437D01*
X16789Y-52446D01*
X16951Y-52609D01*
X17166Y-52698D01*
X17399Y-52698D01*
X17614Y-52610D01*
X17709Y-52515D01*
X17974Y-52515D01*
X17974Y-52569D01*
X18012Y-52661D01*
X18082Y-52731D01*
X18174Y-52769D01*
X18273Y-52769D01*
X18982Y-52769D01*
X19074Y-52731D01*
X19144Y-52661D01*
X19166Y-52608D01*
X19235Y-52677D01*
X19458Y-52769D01*
X19698Y-52769D01*
X19920Y-52677D01*
X20078Y-52520D01*
X20235Y-52677D01*
X20282Y-52696D01*
G54D10*
G36*
X20575Y-37259D02*
X20561Y-37265D01*
X20536Y-37289D01*
X20530Y-37276D01*
X20460Y-37205D01*
X20400Y-37180D01*
X20504Y-37180D01*
X20575Y-37251D01*
X20575Y-37259D01*
X20575Y-37259D01*
G37*
G54D34*
X20575Y-37259D02*
X20561Y-37265D01*
X20536Y-37289D01*
X20530Y-37276D01*
X20460Y-37205D01*
X20400Y-37180D01*
X20504Y-37180D01*
X20575Y-37251D01*
X20575Y-37259D01*
G54D10*
G36*
X20706Y-47412D02*
X20606Y-47562D01*
X20506Y-47412D01*
X20706Y-47412D01*
X20706Y-47412D01*
G37*
G54D34*
X20706Y-47412D02*
X20606Y-47562D01*
X20506Y-47412D01*
X20706Y-47412D01*
G54D10*
G36*
X20756Y-44376D02*
X20710Y-44406D01*
X20606Y-44562D01*
X20502Y-44406D01*
X20456Y-44376D01*
X20456Y-43171D01*
X20503Y-43057D01*
X20503Y-42888D01*
X20496Y-42869D01*
X20693Y-42869D01*
X20677Y-42907D01*
X20677Y-43076D01*
X20741Y-43232D01*
X20756Y-43247D01*
X20756Y-44376D01*
X20756Y-44376D01*
G37*
G54D34*
X20756Y-44376D02*
X20710Y-44406D01*
X20606Y-44562D01*
X20502Y-44406D01*
X20456Y-44376D01*
X20456Y-43171D01*
X20503Y-43057D01*
X20503Y-42888D01*
X20496Y-42869D01*
X20693Y-42869D01*
X20677Y-42907D01*
X20677Y-43076D01*
X20741Y-43232D01*
X20756Y-43247D01*
X20756Y-44376D01*
G54D10*
G36*
X20756Y-49233D02*
X20698Y-49257D01*
X20517Y-49438D01*
X20456Y-49585D01*
X20456Y-48537D01*
X20502Y-48506D01*
X20606Y-48350D01*
X20710Y-48506D01*
X20756Y-48537D01*
X20756Y-49233D01*
X20756Y-49233D01*
G37*
G54D34*
X20756Y-49233D02*
X20698Y-49257D01*
X20517Y-49438D01*
X20456Y-49585D01*
X20456Y-48537D01*
X20502Y-48506D01*
X20606Y-48350D01*
X20710Y-48506D01*
X20756Y-48537D01*
X20756Y-49233D01*
G54D10*
G36*
X20761Y-41185D02*
X20216Y-41185D01*
X20260Y-41167D01*
X20379Y-41048D01*
X20444Y-40891D01*
X20444Y-40722D01*
X20380Y-40566D01*
X20260Y-40446D01*
X20104Y-40382D01*
X19935Y-40382D01*
X19779Y-40446D01*
X19768Y-40457D01*
X19042Y-40457D01*
X18574Y-39989D01*
X18574Y-39974D01*
X18549Y-39913D01*
X18568Y-39913D01*
X18724Y-39848D01*
X18735Y-39838D01*
X20406Y-39838D01*
X20752Y-40184D01*
X20752Y-40726D01*
X20697Y-40859D01*
X20696Y-41029D01*
X20761Y-41185D01*
X20761Y-41185D01*
X20761Y-41185D01*
G37*
G54D34*
X20761Y-41185D02*
X20216Y-41185D01*
X20260Y-41167D01*
X20379Y-41048D01*
X20444Y-40891D01*
X20444Y-40722D01*
X20380Y-40566D01*
X20260Y-40446D01*
X20104Y-40382D01*
X19935Y-40382D01*
X19779Y-40446D01*
X19768Y-40457D01*
X19042Y-40457D01*
X18574Y-39989D01*
X18574Y-39974D01*
X18549Y-39913D01*
X18568Y-39913D01*
X18724Y-39848D01*
X18735Y-39838D01*
X20406Y-39838D01*
X20752Y-40184D01*
X20752Y-40726D01*
X20697Y-40859D01*
X20696Y-41029D01*
X20761Y-41185D01*
X20761Y-41185D01*
G54D10*
G36*
X21000Y-31654D02*
X20484Y-32169D01*
X20484Y-32169D01*
X20196Y-32169D01*
X19593Y-32169D01*
X18550Y-31126D01*
X18550Y-30476D01*
X18679Y-30348D01*
X18700Y-30296D01*
X18721Y-30347D01*
X18880Y-30506D01*
X19087Y-30592D01*
X19270Y-30592D01*
X19531Y-30853D01*
X19531Y-31244D01*
X19521Y-31255D01*
X19456Y-31411D01*
X19456Y-31580D01*
X19521Y-31736D01*
X19640Y-31856D01*
X19796Y-31920D01*
X19966Y-31921D01*
X20122Y-31856D01*
X20241Y-31737D01*
X20306Y-31580D01*
X20306Y-31411D01*
X20242Y-31255D01*
X20231Y-31245D01*
X20231Y-30708D01*
X20205Y-30574D01*
X20129Y-30461D01*
X19765Y-30097D01*
X19765Y-29915D01*
X19680Y-29707D01*
X19521Y-29548D01*
X19469Y-29527D01*
X19520Y-29506D01*
X19679Y-29348D01*
X19765Y-29140D01*
X19765Y-28961D01*
X20785Y-29981D01*
X20785Y-30139D01*
X20871Y-30347D01*
X21000Y-30476D01*
X21000Y-31654D01*
X21000Y-31654D01*
G37*
G54D34*
X21000Y-31654D02*
X20484Y-32169D01*
X20484Y-32169D01*
X20196Y-32169D01*
X19593Y-32169D01*
X18550Y-31126D01*
X18550Y-30476D01*
X18679Y-30348D01*
X18700Y-30296D01*
X18721Y-30347D01*
X18880Y-30506D01*
X19087Y-30592D01*
X19270Y-30592D01*
X19531Y-30853D01*
X19531Y-31244D01*
X19521Y-31255D01*
X19456Y-31411D01*
X19456Y-31580D01*
X19521Y-31736D01*
X19640Y-31856D01*
X19796Y-31920D01*
X19966Y-31921D01*
X20122Y-31856D01*
X20241Y-31737D01*
X20306Y-31580D01*
X20306Y-31411D01*
X20242Y-31255D01*
X20231Y-31245D01*
X20231Y-30708D01*
X20205Y-30574D01*
X20129Y-30461D01*
X19765Y-30097D01*
X19765Y-29915D01*
X19680Y-29707D01*
X19521Y-29548D01*
X19469Y-29527D01*
X19520Y-29506D01*
X19679Y-29348D01*
X19765Y-29140D01*
X19765Y-28961D01*
X20785Y-29981D01*
X20785Y-30139D01*
X20871Y-30347D01*
X21000Y-30476D01*
X21000Y-31654D01*
G54D10*
G36*
X21075Y-35259D02*
X21061Y-35265D01*
X20925Y-35400D01*
X20790Y-35265D01*
X20553Y-35167D01*
X20297Y-35167D01*
X20061Y-35265D01*
X19879Y-35446D01*
X19873Y-35461D01*
X18807Y-35461D01*
X18673Y-35487D01*
X18559Y-35563D01*
X18416Y-35706D01*
X18187Y-35706D01*
X17965Y-35798D01*
X17802Y-35961D01*
X17571Y-35961D01*
X17457Y-35847D01*
X17242Y-35757D01*
X17010Y-35757D01*
X16795Y-35846D01*
X16633Y-36007D01*
X16473Y-35847D01*
X16258Y-35757D01*
X16025Y-35757D01*
X15810Y-35846D01*
X15646Y-36010D01*
X15557Y-36225D01*
X15556Y-36458D01*
X15611Y-36590D01*
X15595Y-36606D01*
X15557Y-36698D01*
X15557Y-36797D01*
X15557Y-37466D01*
X15595Y-37558D01*
X15665Y-37629D01*
X15757Y-37667D01*
X15853Y-37667D01*
X15894Y-37727D01*
X16327Y-38160D01*
X16327Y-38160D01*
X16440Y-38236D01*
X16574Y-38263D01*
X16574Y-38263D01*
X17284Y-38263D01*
X16878Y-38669D01*
X16802Y-38783D01*
X16775Y-38917D01*
X16775Y-39605D01*
X16649Y-39732D01*
X16618Y-39732D01*
X16491Y-39605D01*
X16491Y-39448D01*
X16465Y-39314D01*
X16389Y-39201D01*
X15916Y-38728D01*
X15803Y-38653D01*
X15669Y-38626D01*
X13720Y-38626D01*
X13586Y-38653D01*
X13472Y-38728D01*
X13472Y-38728D01*
X12728Y-39472D01*
X12653Y-39586D01*
X12626Y-39720D01*
X12626Y-40346D01*
X12521Y-40451D01*
X12452Y-40382D01*
X12452Y-40368D01*
X12388Y-40212D01*
X12268Y-40092D01*
X12112Y-40027D01*
X11964Y-40027D01*
X11964Y-36542D01*
X15563Y-32943D01*
X15557Y-32957D01*
X15557Y-33057D01*
X15557Y-33726D01*
X15595Y-33818D01*
X15665Y-33888D01*
X15757Y-33927D01*
X15856Y-33927D01*
X16525Y-33927D01*
X16617Y-33889D01*
X16633Y-33873D01*
X16649Y-33888D01*
X16741Y-33927D01*
X16840Y-33927D01*
X17510Y-33927D01*
X17602Y-33889D01*
X17672Y-33818D01*
X17710Y-33727D01*
X17710Y-33672D01*
X19659Y-33672D01*
X19659Y-34242D01*
X19697Y-34334D01*
X19767Y-34404D01*
X19859Y-34442D01*
X19958Y-34442D01*
X20333Y-34442D01*
X21075Y-35184D01*
X21075Y-35259D01*
X21075Y-35259D01*
G37*
G54D34*
X21075Y-35259D02*
X21061Y-35265D01*
X20925Y-35400D01*
X20790Y-35265D01*
X20553Y-35167D01*
X20297Y-35167D01*
X20061Y-35265D01*
X19879Y-35446D01*
X19873Y-35461D01*
X18807Y-35461D01*
X18673Y-35487D01*
X18559Y-35563D01*
X18416Y-35706D01*
X18187Y-35706D01*
X17965Y-35798D01*
X17802Y-35961D01*
X17571Y-35961D01*
X17457Y-35847D01*
X17242Y-35757D01*
X17010Y-35757D01*
X16795Y-35846D01*
X16633Y-36007D01*
X16473Y-35847D01*
X16258Y-35757D01*
X16025Y-35757D01*
X15810Y-35846D01*
X15646Y-36010D01*
X15557Y-36225D01*
X15556Y-36458D01*
X15611Y-36590D01*
X15595Y-36606D01*
X15557Y-36698D01*
X15557Y-36797D01*
X15557Y-37466D01*
X15595Y-37558D01*
X15665Y-37629D01*
X15757Y-37667D01*
X15853Y-37667D01*
X15894Y-37727D01*
X16327Y-38160D01*
X16327Y-38160D01*
X16440Y-38236D01*
X16574Y-38263D01*
X16574Y-38263D01*
X17284Y-38263D01*
X16878Y-38669D01*
X16802Y-38783D01*
X16775Y-38917D01*
X16775Y-39605D01*
X16649Y-39732D01*
X16618Y-39732D01*
X16491Y-39605D01*
X16491Y-39448D01*
X16465Y-39314D01*
X16389Y-39201D01*
X15916Y-38728D01*
X15803Y-38653D01*
X15669Y-38626D01*
X13720Y-38626D01*
X13586Y-38653D01*
X13472Y-38728D01*
X13472Y-38728D01*
X12728Y-39472D01*
X12653Y-39586D01*
X12626Y-39720D01*
X12626Y-40346D01*
X12521Y-40451D01*
X12452Y-40382D01*
X12452Y-40368D01*
X12388Y-40212D01*
X12268Y-40092D01*
X12112Y-40027D01*
X11964Y-40027D01*
X11964Y-36542D01*
X15563Y-32943D01*
X15557Y-32957D01*
X15557Y-33057D01*
X15557Y-33726D01*
X15595Y-33818D01*
X15665Y-33888D01*
X15757Y-33927D01*
X15856Y-33927D01*
X16525Y-33927D01*
X16617Y-33889D01*
X16633Y-33873D01*
X16649Y-33888D01*
X16741Y-33927D01*
X16840Y-33927D01*
X17510Y-33927D01*
X17602Y-33889D01*
X17672Y-33818D01*
X17710Y-33727D01*
X17710Y-33672D01*
X19659Y-33672D01*
X19659Y-34242D01*
X19697Y-34334D01*
X19767Y-34404D01*
X19859Y-34442D01*
X19958Y-34442D01*
X20333Y-34442D01*
X21075Y-35184D01*
X21075Y-35259D01*
G54D10*
G36*
X21226Y-52668D02*
X21095Y-52799D01*
X20684Y-52799D01*
X20654Y-52769D01*
X20698Y-52769D01*
X20920Y-52677D01*
X21078Y-52520D01*
X21226Y-52668D01*
X21226Y-52668D01*
G37*
G54D34*
X21226Y-52668D02*
X21095Y-52799D01*
X20684Y-52799D01*
X20654Y-52769D01*
X20698Y-52769D01*
X20920Y-52677D01*
X21078Y-52520D01*
X21226Y-52668D01*
G54D10*
G36*
X21492Y-38288D02*
X20902Y-38878D01*
X20822Y-38911D01*
X20702Y-39030D01*
X20650Y-39157D01*
X20551Y-39138D01*
X18735Y-39138D01*
X18725Y-39128D01*
X18569Y-39063D01*
X18400Y-39063D01*
X18243Y-39127D01*
X18124Y-39247D01*
X18059Y-39403D01*
X18059Y-39572D01*
X18084Y-39633D01*
X18065Y-39633D01*
X17909Y-39698D01*
X17789Y-39817D01*
X17724Y-39974D01*
X17724Y-40143D01*
X17789Y-40299D01*
X17848Y-40358D01*
X17762Y-40323D01*
X17659Y-40323D01*
X17710Y-40199D01*
X17710Y-39966D01*
X17621Y-39751D01*
X17475Y-39605D01*
X17475Y-39062D01*
X17782Y-38755D01*
X18622Y-38755D01*
X18755Y-38728D01*
X18755Y-38728D01*
X18869Y-38652D01*
X19281Y-38240D01*
X19281Y-38254D01*
X19319Y-38345D01*
X19389Y-38416D01*
X19481Y-38454D01*
X19581Y-38454D01*
X20368Y-38454D01*
X20460Y-38416D01*
X20530Y-38346D01*
X20536Y-38332D01*
X20560Y-38356D01*
X20796Y-38454D01*
X21052Y-38454D01*
X21289Y-38356D01*
X21425Y-38221D01*
X21492Y-38288D01*
X21492Y-38288D01*
G37*
G54D34*
X21492Y-38288D02*
X20902Y-38878D01*
X20822Y-38911D01*
X20702Y-39030D01*
X20650Y-39157D01*
X20551Y-39138D01*
X18735Y-39138D01*
X18725Y-39128D01*
X18569Y-39063D01*
X18400Y-39063D01*
X18243Y-39127D01*
X18124Y-39247D01*
X18059Y-39403D01*
X18059Y-39572D01*
X18084Y-39633D01*
X18065Y-39633D01*
X17909Y-39698D01*
X17789Y-39817D01*
X17724Y-39974D01*
X17724Y-40143D01*
X17789Y-40299D01*
X17848Y-40358D01*
X17762Y-40323D01*
X17659Y-40323D01*
X17710Y-40199D01*
X17710Y-39966D01*
X17621Y-39751D01*
X17475Y-39605D01*
X17475Y-39062D01*
X17782Y-38755D01*
X18622Y-38755D01*
X18755Y-38728D01*
X18755Y-38728D01*
X18869Y-38652D01*
X19281Y-38240D01*
X19281Y-38254D01*
X19319Y-38345D01*
X19389Y-38416D01*
X19481Y-38454D01*
X19581Y-38454D01*
X20368Y-38454D01*
X20460Y-38416D01*
X20530Y-38346D01*
X20536Y-38332D01*
X20560Y-38356D01*
X20796Y-38454D01*
X21052Y-38454D01*
X21289Y-38356D01*
X21425Y-38221D01*
X21492Y-38288D01*
G54D10*
G36*
X21706Y-47412D02*
X21606Y-47562D01*
X21506Y-47412D01*
X21706Y-47412D01*
X21706Y-47412D01*
G37*
G54D34*
X21706Y-47412D02*
X21606Y-47562D01*
X21506Y-47412D01*
X21706Y-47412D01*
G54D10*
G36*
X21756Y-49380D02*
X21698Y-49438D01*
X21653Y-49546D01*
X21609Y-49438D01*
X21456Y-49286D01*
X21456Y-48537D01*
X21502Y-48506D01*
X21606Y-48350D01*
X21710Y-48506D01*
X21756Y-48537D01*
X21756Y-49380D01*
X21756Y-49380D01*
G37*
G54D34*
X21756Y-49380D02*
X21698Y-49438D01*
X21653Y-49546D01*
X21609Y-49438D01*
X21456Y-49286D01*
X21456Y-48537D01*
X21502Y-48506D01*
X21606Y-48350D01*
X21710Y-48506D01*
X21756Y-48537D01*
X21756Y-49380D01*
G54D10*
G36*
X21765Y-42869D02*
X21701Y-43025D01*
X21700Y-43194D01*
X21756Y-43328D01*
X21756Y-44376D01*
X21710Y-44406D01*
X21606Y-44562D01*
X21502Y-44406D01*
X21456Y-44376D01*
X21456Y-43239D01*
X21462Y-43233D01*
X21527Y-43077D01*
X21527Y-42907D01*
X21511Y-42869D01*
X21765Y-42869D01*
X21765Y-42869D01*
G37*
G54D34*
X21765Y-42869D02*
X21701Y-43025D01*
X21700Y-43194D01*
X21756Y-43328D01*
X21756Y-44376D01*
X21710Y-44406D01*
X21606Y-44562D01*
X21502Y-44406D01*
X21456Y-44376D01*
X21456Y-43239D01*
X21462Y-43233D01*
X21527Y-43077D01*
X21527Y-42907D01*
X21511Y-42869D01*
X21765Y-42869D01*
G54D10*
G36*
X21971Y-28607D02*
X21871Y-28707D01*
X21850Y-28758D01*
X21829Y-28707D01*
X21700Y-28578D01*
X21941Y-28578D01*
X21971Y-28607D01*
X21971Y-28607D01*
G37*
G54D34*
X21971Y-28607D02*
X21871Y-28707D01*
X21850Y-28758D01*
X21829Y-28707D01*
X21700Y-28578D01*
X21941Y-28578D01*
X21971Y-28607D01*
G54D10*
G36*
X22081Y-29527D02*
X22030Y-29548D01*
X21871Y-29707D01*
X21850Y-29758D01*
X21829Y-29707D01*
X21670Y-29548D01*
X21619Y-29527D01*
X21670Y-29506D01*
X21829Y-29348D01*
X21850Y-29296D01*
X21871Y-29347D01*
X22029Y-29506D01*
X22081Y-29527D01*
X22081Y-29527D01*
G37*
G54D34*
X22081Y-29527D02*
X22030Y-29548D01*
X21871Y-29707D01*
X21850Y-29758D01*
X21829Y-29707D01*
X21670Y-29548D01*
X21619Y-29527D01*
X21670Y-29506D01*
X21829Y-29348D01*
X21850Y-29296D01*
X21871Y-29347D01*
X22029Y-29506D01*
X22081Y-29527D01*
G54D10*
G36*
X22224Y-33578D02*
X22180Y-33596D01*
X22061Y-33715D01*
X21996Y-33871D01*
X21996Y-34040D01*
X22060Y-34197D01*
X22075Y-34211D01*
X22075Y-35259D01*
X22061Y-35265D01*
X21925Y-35400D01*
X21790Y-35265D01*
X21775Y-35259D01*
X21775Y-35039D01*
X21748Y-34905D01*
X21672Y-34791D01*
X21672Y-34791D01*
X20828Y-33947D01*
X20828Y-33578D01*
X22224Y-33578D01*
X22224Y-33578D01*
G37*
G54D34*
X22224Y-33578D02*
X22180Y-33596D01*
X22061Y-33715D01*
X21996Y-33871D01*
X21996Y-34040D01*
X22060Y-34197D01*
X22075Y-34211D01*
X22075Y-35259D01*
X22061Y-35265D01*
X21925Y-35400D01*
X21790Y-35265D01*
X21775Y-35259D01*
X21775Y-35039D01*
X21748Y-34905D01*
X21672Y-34791D01*
X21672Y-34791D01*
X20828Y-33947D01*
X20828Y-33578D01*
X22224Y-33578D01*
G54D10*
G36*
X22575Y-39862D02*
X22532Y-39905D01*
X21944Y-39905D01*
X21933Y-39895D01*
X21777Y-39830D01*
X21608Y-39830D01*
X21452Y-39895D01*
X21428Y-39919D01*
X21425Y-39905D01*
X21349Y-39791D01*
X21349Y-39791D01*
X21223Y-39665D01*
X21303Y-39632D01*
X21423Y-39512D01*
X21487Y-39356D01*
X21487Y-39282D01*
X22172Y-38597D01*
X22172Y-38597D01*
X22172Y-38597D01*
X22248Y-38484D01*
X22272Y-38363D01*
X22289Y-38356D01*
X22425Y-38221D01*
X22560Y-38356D01*
X22575Y-38362D01*
X22575Y-39862D01*
X22575Y-39862D01*
G37*
G54D34*
X22575Y-39862D02*
X22532Y-39905D01*
X21944Y-39905D01*
X21933Y-39895D01*
X21777Y-39830D01*
X21608Y-39830D01*
X21452Y-39895D01*
X21428Y-39919D01*
X21425Y-39905D01*
X21349Y-39791D01*
X21349Y-39791D01*
X21223Y-39665D01*
X21303Y-39632D01*
X21423Y-39512D01*
X21487Y-39356D01*
X21487Y-39282D01*
X22172Y-38597D01*
X22172Y-38597D01*
X22172Y-38597D01*
X22248Y-38484D01*
X22272Y-38363D01*
X22289Y-38356D01*
X22425Y-38221D01*
X22560Y-38356D01*
X22575Y-38362D01*
X22575Y-39862D01*
G54D10*
G36*
X22706Y-47412D02*
X22606Y-47562D01*
X22506Y-47412D01*
X22706Y-47412D01*
X22706Y-47412D01*
G37*
G54D34*
X22706Y-47412D02*
X22606Y-47562D01*
X22506Y-47412D01*
X22706Y-47412D01*
G54D10*
G36*
X22756Y-44376D02*
X22710Y-44406D01*
X22606Y-44562D01*
X22502Y-44406D01*
X22456Y-44376D01*
X22456Y-43381D01*
X22486Y-43351D01*
X22550Y-43195D01*
X22551Y-43026D01*
X22486Y-42869D01*
X22486Y-42869D01*
X22654Y-42869D01*
X22606Y-42985D01*
X22606Y-43155D01*
X22670Y-43311D01*
X22756Y-43396D01*
X22756Y-44376D01*
X22756Y-44376D01*
G37*
G54D34*
X22756Y-44376D02*
X22710Y-44406D01*
X22606Y-44562D01*
X22502Y-44406D01*
X22456Y-44376D01*
X22456Y-43381D01*
X22486Y-43351D01*
X22550Y-43195D01*
X22551Y-43026D01*
X22486Y-42869D01*
X22486Y-42869D01*
X22654Y-42869D01*
X22606Y-42985D01*
X22606Y-43155D01*
X22670Y-43311D01*
X22756Y-43396D01*
X22756Y-44376D01*
G54D10*
G36*
X22756Y-49405D02*
X22609Y-49257D01*
X22456Y-49194D01*
X22456Y-48537D01*
X22502Y-48506D01*
X22606Y-48350D01*
X22710Y-48506D01*
X22756Y-48537D01*
X22756Y-49405D01*
X22756Y-49405D01*
G37*
G54D34*
X22756Y-49405D02*
X22609Y-49257D01*
X22456Y-49194D01*
X22456Y-48537D01*
X22502Y-48506D01*
X22606Y-48350D01*
X22710Y-48506D01*
X22756Y-48537D01*
X22756Y-49405D01*
G54D10*
G36*
X22756Y-50409D02*
X22724Y-50485D01*
X22724Y-50634D01*
X22252Y-50634D01*
X22107Y-50488D01*
X21892Y-50399D01*
X21659Y-50399D01*
X21444Y-50488D01*
X21280Y-50652D01*
X21191Y-50867D01*
X21190Y-51100D01*
X21228Y-51191D01*
X21228Y-51660D01*
X21078Y-51810D01*
X20928Y-51660D01*
X20928Y-51346D01*
X20902Y-51212D01*
X20826Y-51098D01*
X20456Y-50729D01*
X20456Y-50020D01*
X20516Y-50167D01*
X20697Y-50348D01*
X20934Y-50446D01*
X21190Y-50446D01*
X21427Y-50349D01*
X21608Y-50168D01*
X21653Y-50059D01*
X21698Y-50167D01*
X21878Y-50348D01*
X22115Y-50446D01*
X22371Y-50446D01*
X22608Y-50349D01*
X22756Y-50201D01*
X22756Y-50409D01*
X22756Y-50409D01*
G37*
G54D34*
X22756Y-50409D02*
X22724Y-50485D01*
X22724Y-50634D01*
X22252Y-50634D01*
X22107Y-50488D01*
X21892Y-50399D01*
X21659Y-50399D01*
X21444Y-50488D01*
X21280Y-50652D01*
X21191Y-50867D01*
X21190Y-51100D01*
X21228Y-51191D01*
X21228Y-51660D01*
X21078Y-51810D01*
X20928Y-51660D01*
X20928Y-51346D01*
X20902Y-51212D01*
X20826Y-51098D01*
X20456Y-50729D01*
X20456Y-50020D01*
X20516Y-50167D01*
X20697Y-50348D01*
X20934Y-50446D01*
X21190Y-50446D01*
X21427Y-50349D01*
X21608Y-50168D01*
X21653Y-50059D01*
X21698Y-50167D01*
X21878Y-50348D01*
X22115Y-50446D01*
X22371Y-50446D01*
X22608Y-50349D01*
X22756Y-50201D01*
X22756Y-50409D01*
G54D10*
G36*
X23179Y-36405D02*
X23163Y-36405D01*
X23007Y-36470D01*
X22887Y-36589D01*
X22823Y-36745D01*
X22822Y-36914D01*
X22887Y-37071D01*
X22983Y-37167D01*
X22797Y-37167D01*
X22561Y-37265D01*
X22425Y-37400D01*
X22290Y-37265D01*
X22053Y-37167D01*
X21797Y-37167D01*
X21561Y-37265D01*
X21425Y-37400D01*
X21290Y-37265D01*
X21275Y-37259D01*
X21275Y-37106D01*
X21248Y-36972D01*
X21172Y-36858D01*
X20897Y-36583D01*
X20783Y-36507D01*
X20649Y-36480D01*
X19271Y-36480D01*
X19137Y-36507D01*
X19024Y-36583D01*
X18832Y-36774D01*
X18803Y-36744D01*
X18750Y-36722D01*
X18819Y-36653D01*
X18911Y-36431D01*
X18911Y-36201D01*
X18952Y-36161D01*
X19873Y-36161D01*
X19879Y-36175D01*
X20060Y-36356D01*
X20296Y-36454D01*
X20552Y-36454D01*
X20789Y-36356D01*
X20925Y-36221D01*
X21060Y-36356D01*
X21296Y-36454D01*
X21552Y-36454D01*
X21789Y-36356D01*
X21925Y-36221D01*
X22060Y-36356D01*
X22296Y-36454D01*
X22552Y-36454D01*
X22789Y-36356D01*
X22925Y-36221D01*
X23060Y-36356D01*
X23179Y-36405D01*
X23179Y-36405D01*
G37*
G54D34*
X23179Y-36405D02*
X23163Y-36405D01*
X23007Y-36470D01*
X22887Y-36589D01*
X22823Y-36745D01*
X22822Y-36914D01*
X22887Y-37071D01*
X22983Y-37167D01*
X22797Y-37167D01*
X22561Y-37265D01*
X22425Y-37400D01*
X22290Y-37265D01*
X22053Y-37167D01*
X21797Y-37167D01*
X21561Y-37265D01*
X21425Y-37400D01*
X21290Y-37265D01*
X21275Y-37259D01*
X21275Y-37106D01*
X21248Y-36972D01*
X21172Y-36858D01*
X20897Y-36583D01*
X20783Y-36507D01*
X20649Y-36480D01*
X19271Y-36480D01*
X19137Y-36507D01*
X19024Y-36583D01*
X18832Y-36774D01*
X18803Y-36744D01*
X18750Y-36722D01*
X18819Y-36653D01*
X18911Y-36431D01*
X18911Y-36201D01*
X18952Y-36161D01*
X19873Y-36161D01*
X19879Y-36175D01*
X20060Y-36356D01*
X20296Y-36454D01*
X20552Y-36454D01*
X20789Y-36356D01*
X20925Y-36221D01*
X21060Y-36356D01*
X21296Y-36454D01*
X21552Y-36454D01*
X21789Y-36356D01*
X21925Y-36221D01*
X22060Y-36356D01*
X22296Y-36454D01*
X22552Y-36454D01*
X22789Y-36356D01*
X22925Y-36221D01*
X23060Y-36356D01*
X23179Y-36405D01*
G54D10*
G36*
X23240Y-41185D02*
X21482Y-41185D01*
X21546Y-41029D01*
X21547Y-40860D01*
X21482Y-40704D01*
X21452Y-40674D01*
X21452Y-40616D01*
X21608Y-40680D01*
X21777Y-40680D01*
X21933Y-40616D01*
X21943Y-40605D01*
X22677Y-40605D01*
X22811Y-40579D01*
X22811Y-40579D01*
X22924Y-40503D01*
X23172Y-40255D01*
X23240Y-40153D01*
X23240Y-41185D01*
X23240Y-41185D01*
G37*
G54D34*
X23240Y-41185D02*
X21482Y-41185D01*
X21546Y-41029D01*
X21547Y-40860D01*
X21482Y-40704D01*
X21452Y-40674D01*
X21452Y-40616D01*
X21608Y-40680D01*
X21777Y-40680D01*
X21933Y-40616D01*
X21943Y-40605D01*
X22677Y-40605D01*
X22811Y-40579D01*
X22811Y-40579D01*
X22924Y-40503D01*
X23172Y-40255D01*
X23240Y-40153D01*
X23240Y-41185D01*
G54D10*
G36*
X23559Y-53088D02*
X23512Y-53202D01*
X23511Y-53371D01*
X23527Y-53409D01*
X21468Y-53409D01*
X21487Y-53397D01*
X21826Y-53058D01*
X21826Y-53058D01*
X21826Y-53058D01*
X21902Y-52944D01*
X21928Y-52811D01*
X21928Y-52669D01*
X22090Y-52508D01*
X22182Y-52286D01*
X22183Y-52045D01*
X22091Y-51823D01*
X21928Y-51660D01*
X21928Y-51553D01*
X22106Y-51480D01*
X22252Y-51334D01*
X23305Y-51334D01*
X23305Y-51407D01*
X23305Y-52116D01*
X23343Y-52208D01*
X23413Y-52278D01*
X23505Y-52316D01*
X23559Y-52316D01*
X23559Y-53088D01*
X23559Y-53088D01*
G37*
G54D34*
X23559Y-53088D02*
X23512Y-53202D01*
X23511Y-53371D01*
X23527Y-53409D01*
X21468Y-53409D01*
X21487Y-53397D01*
X21826Y-53058D01*
X21826Y-53058D01*
X21826Y-53058D01*
X21902Y-52944D01*
X21928Y-52811D01*
X21928Y-52669D01*
X22090Y-52508D01*
X22182Y-52286D01*
X22183Y-52045D01*
X22091Y-51823D01*
X21928Y-51660D01*
X21928Y-51553D01*
X22106Y-51480D01*
X22252Y-51334D01*
X23305Y-51334D01*
X23305Y-51407D01*
X23305Y-52116D01*
X23343Y-52208D01*
X23413Y-52278D01*
X23505Y-52316D01*
X23559Y-52316D01*
X23559Y-53088D01*
G54D10*
G36*
X23706Y-47412D02*
X23606Y-47562D01*
X23506Y-47412D01*
X23706Y-47412D01*
X23706Y-47412D01*
G37*
G54D34*
X23706Y-47412D02*
X23606Y-47562D01*
X23506Y-47412D01*
X23706Y-47412D01*
G54D10*
G36*
X23727Y-33578D02*
X23659Y-33741D01*
X23659Y-33948D01*
X23177Y-34429D01*
X23101Y-34543D01*
X23075Y-34677D01*
X23075Y-35259D01*
X23061Y-35265D01*
X22925Y-35400D01*
X22790Y-35265D01*
X22775Y-35259D01*
X22775Y-34203D01*
X22781Y-34197D01*
X22846Y-34041D01*
X22846Y-33872D01*
X22781Y-33716D01*
X22662Y-33596D01*
X22617Y-33578D01*
X23727Y-33578D01*
X23727Y-33578D01*
G37*
G54D34*
X23727Y-33578D02*
X23659Y-33741D01*
X23659Y-33948D01*
X23177Y-34429D01*
X23101Y-34543D01*
X23075Y-34677D01*
X23075Y-35259D01*
X23061Y-35265D01*
X22925Y-35400D01*
X22790Y-35265D01*
X22775Y-35259D01*
X22775Y-34203D01*
X22781Y-34197D01*
X22846Y-34041D01*
X22846Y-33872D01*
X22781Y-33716D01*
X22662Y-33596D01*
X22617Y-33578D01*
X23727Y-33578D01*
G54D10*
G36*
X23756Y-42042D02*
X23629Y-42169D01*
X18550Y-42169D01*
X17526Y-41145D01*
X17592Y-41172D01*
X17607Y-41172D01*
X18217Y-41782D01*
X18330Y-41858D01*
X18330Y-41858D01*
X18464Y-41885D01*
X18739Y-41885D01*
X18884Y-42030D01*
X19099Y-42119D01*
X19332Y-42120D01*
X19547Y-42031D01*
X19693Y-41885D01*
X23385Y-41885D01*
X23519Y-41858D01*
X23519Y-41858D01*
X23633Y-41782D01*
X23756Y-41659D01*
X23756Y-42042D01*
X23756Y-42042D01*
G37*
G54D34*
X23756Y-42042D02*
X23629Y-42169D01*
X18550Y-42169D01*
X17526Y-41145D01*
X17592Y-41172D01*
X17607Y-41172D01*
X18217Y-41782D01*
X18330Y-41858D01*
X18330Y-41858D01*
X18464Y-41885D01*
X18739Y-41885D01*
X18884Y-42030D01*
X19099Y-42119D01*
X19332Y-42120D01*
X19547Y-42031D01*
X19693Y-41885D01*
X23385Y-41885D01*
X23519Y-41858D01*
X23519Y-41858D01*
X23633Y-41782D01*
X23756Y-41659D01*
X23756Y-42042D01*
G54D10*
G36*
X23756Y-44376D02*
X23710Y-44406D01*
X23606Y-44562D01*
X23502Y-44406D01*
X23456Y-44376D01*
X23456Y-43156D01*
X23456Y-43155D01*
X23456Y-42986D01*
X23408Y-42869D01*
X23629Y-42869D01*
X23756Y-42996D01*
X23756Y-43224D01*
X23610Y-43369D01*
X23521Y-43583D01*
X23521Y-43816D01*
X23610Y-44031D01*
X23756Y-44177D01*
X23756Y-44376D01*
X23756Y-44376D01*
G37*
G54D34*
X23756Y-44376D02*
X23710Y-44406D01*
X23606Y-44562D01*
X23502Y-44406D01*
X23456Y-44376D01*
X23456Y-43156D01*
X23456Y-43155D01*
X23456Y-42986D01*
X23408Y-42869D01*
X23629Y-42869D01*
X23756Y-42996D01*
X23756Y-43224D01*
X23610Y-43369D01*
X23521Y-43583D01*
X23521Y-43816D01*
X23610Y-44031D01*
X23756Y-44177D01*
X23756Y-44376D01*
G54D10*
G36*
X23756Y-50473D02*
X23595Y-50634D01*
X23574Y-50634D01*
X23574Y-50486D01*
X23510Y-50330D01*
X23456Y-50276D01*
X23456Y-48537D01*
X23502Y-48506D01*
X23606Y-48350D01*
X23710Y-48506D01*
X23756Y-48537D01*
X23756Y-48735D01*
X23610Y-48880D01*
X23521Y-49095D01*
X23521Y-49328D01*
X23610Y-49543D01*
X23756Y-49689D01*
X23756Y-50473D01*
X23756Y-50473D01*
G37*
G54D34*
X23756Y-50473D02*
X23595Y-50634D01*
X23574Y-50634D01*
X23574Y-50486D01*
X23510Y-50330D01*
X23456Y-50276D01*
X23456Y-48537D01*
X23502Y-48506D01*
X23606Y-48350D01*
X23710Y-48506D01*
X23756Y-48537D01*
X23756Y-48735D01*
X23610Y-48880D01*
X23521Y-49095D01*
X23521Y-49328D01*
X23610Y-49543D01*
X23756Y-49689D01*
X23756Y-50473D01*
G54D10*
G36*
X23765Y-37180D02*
X23561Y-37265D01*
X23425Y-37400D01*
X23290Y-37265D01*
X23265Y-37255D01*
X23332Y-37255D01*
X23488Y-37191D01*
X23498Y-37180D01*
X23765Y-37180D01*
X23765Y-37180D01*
G37*
G54D34*
X23765Y-37180D02*
X23561Y-37265D01*
X23425Y-37400D01*
X23290Y-37265D01*
X23265Y-37255D01*
X23332Y-37255D01*
X23488Y-37191D01*
X23498Y-37180D01*
X23765Y-37180D01*
G54D10*
G36*
X24559Y-51208D02*
X24497Y-51269D01*
X24475Y-51216D01*
X24405Y-51146D01*
X24313Y-51108D01*
X24214Y-51108D01*
X24111Y-51108D01*
X24353Y-50865D01*
X24353Y-50865D01*
X24353Y-50865D01*
X24429Y-50752D01*
X24445Y-50673D01*
X24462Y-50680D01*
X24477Y-50680D01*
X24559Y-50763D01*
X24559Y-50846D01*
X24559Y-51208D01*
X24559Y-51208D01*
G37*
G54D34*
X24559Y-51208D02*
X24497Y-51269D01*
X24475Y-51216D01*
X24405Y-51146D01*
X24313Y-51108D01*
X24214Y-51108D01*
X24111Y-51108D01*
X24353Y-50865D01*
X24353Y-50865D01*
X24353Y-50865D01*
X24429Y-50752D01*
X24445Y-50673D01*
X24462Y-50680D01*
X24477Y-50680D01*
X24559Y-50763D01*
X24559Y-50846D01*
X24559Y-51208D01*
G54D10*
G36*
X24575Y-37259D02*
X24561Y-37265D01*
X24425Y-37400D01*
X24290Y-37265D01*
X24085Y-37180D01*
X24500Y-37180D01*
X24575Y-37255D01*
X24575Y-37259D01*
X24575Y-37259D01*
G37*
G54D34*
X24575Y-37259D02*
X24561Y-37265D01*
X24425Y-37400D01*
X24290Y-37265D01*
X24085Y-37180D01*
X24500Y-37180D01*
X24575Y-37255D01*
X24575Y-37259D01*
G54D10*
G36*
X24691Y-27884D02*
X24252Y-28323D01*
X24176Y-28436D01*
X24150Y-28570D01*
X24150Y-28578D01*
X24021Y-28707D01*
X23935Y-28914D01*
X23934Y-29139D01*
X24020Y-29347D01*
X24179Y-29506D01*
X24230Y-29527D01*
X24180Y-29548D01*
X24021Y-29707D01*
X23935Y-29914D01*
X23934Y-30139D01*
X24020Y-30347D01*
X24150Y-30476D01*
X24150Y-31280D01*
X23260Y-32169D01*
X21474Y-32169D01*
X21597Y-32046D01*
X21597Y-32046D01*
X21597Y-32046D01*
X21673Y-31933D01*
X21700Y-31799D01*
X21700Y-31799D01*
X21700Y-31799D01*
X21700Y-30476D01*
X21829Y-30348D01*
X21850Y-30296D01*
X21871Y-30347D01*
X22000Y-30476D01*
X22000Y-31160D01*
X21964Y-31174D01*
X21844Y-31294D01*
X21779Y-31450D01*
X21779Y-31619D01*
X21844Y-31775D01*
X21963Y-31895D01*
X22119Y-31960D01*
X22288Y-31960D01*
X22445Y-31895D01*
X22564Y-31776D01*
X22629Y-31620D01*
X22629Y-31589D01*
X22629Y-31589D01*
X22673Y-31523D01*
X22673Y-31523D01*
X22700Y-31389D01*
X22700Y-30476D01*
X22829Y-30348D01*
X22915Y-30140D01*
X22915Y-29915D01*
X22829Y-29707D01*
X22670Y-29548D01*
X22619Y-29527D01*
X22670Y-29506D01*
X22829Y-29348D01*
X22915Y-29140D01*
X22915Y-28915D01*
X22829Y-28707D01*
X22700Y-28578D01*
X22700Y-28492D01*
X22673Y-28358D01*
X22673Y-28358D01*
X22597Y-28244D01*
X22334Y-27980D01*
X22220Y-27904D01*
X22115Y-27884D01*
X24691Y-27884D01*
X24691Y-27884D01*
G37*
G54D34*
X24691Y-27884D02*
X24252Y-28323D01*
X24176Y-28436D01*
X24150Y-28570D01*
X24150Y-28578D01*
X24021Y-28707D01*
X23935Y-28914D01*
X23934Y-29139D01*
X24020Y-29347D01*
X24179Y-29506D01*
X24230Y-29527D01*
X24180Y-29548D01*
X24021Y-29707D01*
X23935Y-29914D01*
X23934Y-30139D01*
X24020Y-30347D01*
X24150Y-30476D01*
X24150Y-31280D01*
X23260Y-32169D01*
X21474Y-32169D01*
X21597Y-32046D01*
X21597Y-32046D01*
X21597Y-32046D01*
X21673Y-31933D01*
X21700Y-31799D01*
X21700Y-31799D01*
X21700Y-31799D01*
X21700Y-30476D01*
X21829Y-30348D01*
X21850Y-30296D01*
X21871Y-30347D01*
X22000Y-30476D01*
X22000Y-31160D01*
X21964Y-31174D01*
X21844Y-31294D01*
X21779Y-31450D01*
X21779Y-31619D01*
X21844Y-31775D01*
X21963Y-31895D01*
X22119Y-31960D01*
X22288Y-31960D01*
X22445Y-31895D01*
X22564Y-31776D01*
X22629Y-31620D01*
X22629Y-31589D01*
X22629Y-31589D01*
X22673Y-31523D01*
X22673Y-31523D01*
X22700Y-31389D01*
X22700Y-30476D01*
X22829Y-30348D01*
X22915Y-30140D01*
X22915Y-29915D01*
X22829Y-29707D01*
X22670Y-29548D01*
X22619Y-29527D01*
X22670Y-29506D01*
X22829Y-29348D01*
X22915Y-29140D01*
X22915Y-28915D01*
X22829Y-28707D01*
X22700Y-28578D01*
X22700Y-28492D01*
X22673Y-28358D01*
X22673Y-28358D01*
X22597Y-28244D01*
X22334Y-27980D01*
X22220Y-27904D01*
X22115Y-27884D01*
X24691Y-27884D01*
G54D10*
G36*
X24706Y-47412D02*
X24606Y-47562D01*
X24506Y-47412D01*
X24706Y-47412D01*
X24706Y-47412D01*
G37*
G54D34*
X24706Y-47412D02*
X24606Y-47562D01*
X24506Y-47412D01*
X24706Y-47412D01*
G54D10*
G36*
X24756Y-44376D02*
X24710Y-44406D01*
X24606Y-44562D01*
X24502Y-44406D01*
X24456Y-44376D01*
X24456Y-44177D01*
X24601Y-44032D01*
X24606Y-44021D01*
X24610Y-44031D01*
X24756Y-44177D01*
X24756Y-44376D01*
X24756Y-44376D01*
G37*
G54D34*
X24756Y-44376D02*
X24710Y-44406D01*
X24606Y-44562D01*
X24502Y-44406D01*
X24456Y-44376D01*
X24456Y-44177D01*
X24601Y-44032D01*
X24606Y-44021D01*
X24610Y-44031D01*
X24756Y-44177D01*
X24756Y-44376D01*
G54D10*
G36*
X24756Y-48735D02*
X24610Y-48880D01*
X24606Y-48891D01*
X24602Y-48881D01*
X24456Y-48735D01*
X24456Y-48537D01*
X24502Y-48506D01*
X24606Y-48350D01*
X24710Y-48506D01*
X24756Y-48537D01*
X24756Y-48735D01*
X24756Y-48735D01*
G37*
G54D34*
X24756Y-48735D02*
X24610Y-48880D01*
X24606Y-48891D01*
X24602Y-48881D01*
X24456Y-48735D01*
X24456Y-48537D01*
X24502Y-48506D01*
X24606Y-48350D01*
X24710Y-48506D01*
X24756Y-48537D01*
X24756Y-48735D01*
G54D10*
G36*
X25075Y-36647D02*
X25067Y-36667D01*
X25067Y-36757D01*
X24893Y-36583D01*
X24779Y-36507D01*
X24645Y-36480D01*
X23499Y-36480D01*
X23489Y-36470D01*
X23450Y-36454D01*
X23552Y-36454D01*
X23789Y-36356D01*
X23925Y-36221D01*
X24060Y-36356D01*
X24296Y-36454D01*
X24552Y-36454D01*
X24789Y-36356D01*
X24925Y-36221D01*
X25060Y-36356D01*
X25075Y-36362D01*
X25075Y-36647D01*
X25075Y-36647D01*
G37*
G54D34*
X25075Y-36647D02*
X25067Y-36667D01*
X25067Y-36757D01*
X24893Y-36583D01*
X24779Y-36507D01*
X24645Y-36480D01*
X23499Y-36480D01*
X23489Y-36470D01*
X23450Y-36454D01*
X23552Y-36454D01*
X23789Y-36356D01*
X23925Y-36221D01*
X24060Y-36356D01*
X24296Y-36454D01*
X24552Y-36454D01*
X24789Y-36356D01*
X24925Y-36221D01*
X25060Y-36356D01*
X25075Y-36362D01*
X25075Y-36647D01*
G54D10*
G36*
X25150Y-31071D02*
X24995Y-31135D01*
X24876Y-31255D01*
X24850Y-31317D01*
X24850Y-30476D01*
X24978Y-30348D01*
X24999Y-30296D01*
X25020Y-30347D01*
X25150Y-30476D01*
X25150Y-31071D01*
X25150Y-31071D01*
G37*
G54D34*
X25150Y-31071D02*
X24995Y-31135D01*
X24876Y-31255D01*
X24850Y-31317D01*
X24850Y-30476D01*
X24978Y-30348D01*
X24999Y-30296D01*
X25020Y-30347D01*
X25150Y-30476D01*
X25150Y-31071D01*
G54D10*
G36*
X25230Y-29527D02*
X25180Y-29548D01*
X25021Y-29707D01*
X25000Y-29758D01*
X24979Y-29707D01*
X24820Y-29548D01*
X24769Y-29527D01*
X24819Y-29506D01*
X24978Y-29348D01*
X24999Y-29296D01*
X25020Y-29347D01*
X25179Y-29506D01*
X25230Y-29527D01*
X25230Y-29527D01*
G37*
G54D34*
X25230Y-29527D02*
X25180Y-29548D01*
X25021Y-29707D01*
X25000Y-29758D01*
X24979Y-29707D01*
X24820Y-29548D01*
X24769Y-29527D01*
X24819Y-29506D01*
X24978Y-29348D01*
X24999Y-29296D01*
X25020Y-29347D01*
X25179Y-29506D01*
X25230Y-29527D01*
G54D10*
G36*
X25622Y-37157D02*
X25601Y-37188D01*
X25588Y-37253D01*
X25561Y-37265D01*
X25425Y-37400D01*
X25290Y-37265D01*
X25275Y-37259D01*
X25275Y-37122D01*
X25407Y-37176D01*
X25576Y-37177D01*
X25622Y-37157D01*
X25622Y-37157D01*
G37*
G54D34*
X25622Y-37157D02*
X25601Y-37188D01*
X25588Y-37253D01*
X25561Y-37265D01*
X25425Y-37400D01*
X25290Y-37265D01*
X25275Y-37259D01*
X25275Y-37122D01*
X25407Y-37176D01*
X25576Y-37177D01*
X25622Y-37157D01*
G54D10*
G36*
X25706Y-47412D02*
X25606Y-47562D01*
X25506Y-47412D01*
X25706Y-47412D01*
X25706Y-47412D01*
G37*
G54D34*
X25706Y-47412D02*
X25606Y-47562D01*
X25506Y-47412D01*
X25706Y-47412D01*
G54D10*
G36*
X25756Y-44376D02*
X25710Y-44406D01*
X25606Y-44562D01*
X25502Y-44406D01*
X25456Y-44376D01*
X25456Y-44177D01*
X25601Y-44032D01*
X25618Y-43992D01*
X25685Y-44153D01*
X25756Y-44224D01*
X25756Y-44376D01*
X25756Y-44376D01*
G37*
G54D34*
X25756Y-44376D02*
X25710Y-44406D01*
X25606Y-44562D01*
X25502Y-44406D01*
X25456Y-44376D01*
X25456Y-44177D01*
X25601Y-44032D01*
X25618Y-43992D01*
X25685Y-44153D01*
X25756Y-44224D01*
X25756Y-44376D01*
G54D10*
G36*
X25756Y-52508D02*
X24855Y-53409D01*
X24346Y-53409D01*
X24361Y-53372D01*
X24362Y-53203D01*
X24297Y-53046D01*
X24259Y-53008D01*
X24259Y-52316D01*
X24313Y-52316D01*
X24405Y-52278D01*
X24475Y-52208D01*
X24497Y-52155D01*
X24566Y-52224D01*
X24788Y-52316D01*
X25029Y-52317D01*
X25251Y-52225D01*
X25421Y-52055D01*
X25513Y-51833D01*
X25513Y-51592D01*
X25422Y-51370D01*
X25259Y-51207D01*
X25259Y-50846D01*
X25259Y-50618D01*
X25232Y-50484D01*
X25156Y-50370D01*
X24972Y-50185D01*
X24972Y-50171D01*
X24907Y-50015D01*
X24788Y-49895D01*
X24632Y-49830D01*
X24463Y-49830D01*
X24456Y-49833D01*
X24456Y-49689D01*
X24601Y-49544D01*
X24606Y-49533D01*
X24610Y-49543D01*
X24774Y-49707D01*
X24989Y-49797D01*
X25222Y-49797D01*
X25437Y-49708D01*
X25601Y-49544D01*
X25690Y-49329D01*
X25691Y-49096D01*
X25602Y-48881D01*
X25456Y-48735D01*
X25456Y-48537D01*
X25502Y-48506D01*
X25606Y-48350D01*
X25710Y-48506D01*
X25756Y-48537D01*
X25756Y-52508D01*
X25756Y-52508D01*
G37*
G54D34*
X25756Y-52508D02*
X24855Y-53409D01*
X24346Y-53409D01*
X24361Y-53372D01*
X24362Y-53203D01*
X24297Y-53046D01*
X24259Y-53008D01*
X24259Y-52316D01*
X24313Y-52316D01*
X24405Y-52278D01*
X24475Y-52208D01*
X24497Y-52155D01*
X24566Y-52224D01*
X24788Y-52316D01*
X25029Y-52317D01*
X25251Y-52225D01*
X25421Y-52055D01*
X25513Y-51833D01*
X25513Y-51592D01*
X25422Y-51370D01*
X25259Y-51207D01*
X25259Y-50846D01*
X25259Y-50618D01*
X25232Y-50484D01*
X25156Y-50370D01*
X24972Y-50185D01*
X24972Y-50171D01*
X24907Y-50015D01*
X24788Y-49895D01*
X24632Y-49830D01*
X24463Y-49830D01*
X24456Y-49833D01*
X24456Y-49689D01*
X24601Y-49544D01*
X24606Y-49533D01*
X24610Y-49543D01*
X24774Y-49707D01*
X24989Y-49797D01*
X25222Y-49797D01*
X25437Y-49708D01*
X25601Y-49544D01*
X25690Y-49329D01*
X25691Y-49096D01*
X25602Y-48881D01*
X25456Y-48735D01*
X25456Y-48537D01*
X25502Y-48506D01*
X25606Y-48350D01*
X25710Y-48506D01*
X25756Y-48537D01*
X25756Y-52508D01*
G54D10*
G36*
X25831Y-43346D02*
X25685Y-43491D01*
X25668Y-43531D01*
X25602Y-43370D01*
X25437Y-43205D01*
X25223Y-43116D01*
X24990Y-43116D01*
X24775Y-43204D01*
X24610Y-43369D01*
X24606Y-43380D01*
X24602Y-43370D01*
X24456Y-43223D01*
X24456Y-42996D01*
X24601Y-42851D01*
X24606Y-42840D01*
X24610Y-42850D01*
X24774Y-43015D01*
X24989Y-43104D01*
X25222Y-43104D01*
X25437Y-43015D01*
X25583Y-42869D01*
X25760Y-42869D01*
X25831Y-42940D01*
X25831Y-43346D01*
X25831Y-43346D01*
G37*
G54D34*
X25831Y-43346D02*
X25685Y-43491D01*
X25668Y-43531D01*
X25602Y-43370D01*
X25437Y-43205D01*
X25223Y-43116D01*
X24990Y-43116D01*
X24775Y-43204D01*
X24610Y-43369D01*
X24606Y-43380D01*
X24602Y-43370D01*
X24456Y-43223D01*
X24456Y-42996D01*
X24601Y-42851D01*
X24606Y-42840D01*
X24610Y-42850D01*
X24774Y-43015D01*
X24989Y-43104D01*
X25222Y-43104D01*
X25437Y-43015D01*
X25583Y-42869D01*
X25760Y-42869D01*
X25831Y-42940D01*
X25831Y-43346D01*
G54D10*
G36*
X26547Y-37279D02*
X26425Y-37400D01*
X26383Y-37359D01*
X26463Y-37279D01*
X26547Y-37279D01*
X26547Y-37279D01*
G37*
G54D34*
X26547Y-37279D02*
X26425Y-37400D01*
X26383Y-37359D01*
X26463Y-37279D01*
X26547Y-37279D01*
G54D10*
G36*
X26706Y-47412D02*
X26606Y-47562D01*
X26506Y-47412D01*
X26706Y-47412D01*
X26706Y-47412D01*
G37*
G54D34*
X26706Y-47412D02*
X26606Y-47562D01*
X26506Y-47412D01*
X26706Y-47412D01*
G54D10*
G36*
X26708Y-36579D02*
X26318Y-36579D01*
X26184Y-36605D01*
X26071Y-36681D01*
X25917Y-36836D01*
X25917Y-36667D01*
X25852Y-36511D01*
X25775Y-36433D01*
X25775Y-36362D01*
X25789Y-36356D01*
X25925Y-36221D01*
X26060Y-36356D01*
X26296Y-36454D01*
X26552Y-36454D01*
X26567Y-36448D01*
X26677Y-36558D01*
X26708Y-36579D01*
X26708Y-36579D01*
G37*
G54D34*
X26708Y-36579D02*
X26318Y-36579D01*
X26184Y-36605D01*
X26071Y-36681D01*
X25917Y-36836D01*
X25917Y-36667D01*
X25852Y-36511D01*
X25775Y-36433D01*
X25775Y-36362D01*
X25789Y-36356D01*
X25925Y-36221D01*
X26060Y-36356D01*
X26296Y-36454D01*
X26552Y-36454D01*
X26567Y-36448D01*
X26677Y-36558D01*
X26708Y-36579D01*
G54D10*
G36*
X26722Y-42431D02*
X26669Y-42453D01*
X26599Y-42523D01*
X26561Y-42615D01*
X26560Y-42714D01*
X26560Y-43375D01*
X26531Y-43345D01*
X26531Y-42795D01*
X26504Y-42661D01*
X26428Y-42547D01*
X26152Y-42272D01*
X26039Y-42196D01*
X25905Y-42169D01*
X25583Y-42169D01*
X25437Y-42024D01*
X25223Y-41935D01*
X24990Y-41934D01*
X24775Y-42023D01*
X24610Y-42188D01*
X24606Y-42199D01*
X24602Y-42188D01*
X24456Y-42042D01*
X24456Y-40625D01*
X24633Y-40448D01*
X25728Y-40448D01*
X25685Y-40491D01*
X25596Y-40706D01*
X25596Y-40938D01*
X25685Y-41153D01*
X25849Y-41318D01*
X26064Y-41407D01*
X26270Y-41407D01*
X26620Y-41756D01*
X26561Y-41898D01*
X26560Y-42139D01*
X26652Y-42361D01*
X26722Y-42431D01*
X26722Y-42431D01*
G37*
G54D34*
X26722Y-42431D02*
X26669Y-42453D01*
X26599Y-42523D01*
X26561Y-42615D01*
X26560Y-42714D01*
X26560Y-43375D01*
X26531Y-43345D01*
X26531Y-42795D01*
X26504Y-42661D01*
X26428Y-42547D01*
X26152Y-42272D01*
X26039Y-42196D01*
X25905Y-42169D01*
X25583Y-42169D01*
X25437Y-42024D01*
X25223Y-41935D01*
X24990Y-41934D01*
X24775Y-42023D01*
X24610Y-42188D01*
X24606Y-42199D01*
X24602Y-42188D01*
X24456Y-42042D01*
X24456Y-40625D01*
X24633Y-40448D01*
X25728Y-40448D01*
X25685Y-40491D01*
X25596Y-40706D01*
X25596Y-40938D01*
X25685Y-41153D01*
X25849Y-41318D01*
X26064Y-41407D01*
X26270Y-41407D01*
X26620Y-41756D01*
X26561Y-41898D01*
X26560Y-42139D01*
X26652Y-42361D01*
X26722Y-42431D01*
G54D10*
G36*
X26756Y-43683D02*
X26725Y-43609D01*
X26756Y-43621D01*
X26756Y-43683D01*
X26756Y-43683D01*
G37*
G54D34*
X26756Y-43683D02*
X26725Y-43609D01*
X26756Y-43621D01*
X26756Y-43683D01*
G54D10*
G36*
X26756Y-44376D02*
X26710Y-44406D01*
X26606Y-44562D01*
X26502Y-44406D01*
X26456Y-44376D01*
X26456Y-44341D01*
X26511Y-44318D01*
X26676Y-44154D01*
X26756Y-43962D01*
X26756Y-44376D01*
X26756Y-44376D01*
G37*
G54D34*
X26756Y-44376D02*
X26710Y-44406D01*
X26606Y-44562D01*
X26502Y-44406D01*
X26456Y-44376D01*
X26456Y-44341D01*
X26511Y-44318D01*
X26676Y-44154D01*
X26756Y-43962D01*
X26756Y-44376D01*
G54D10*
G36*
X26756Y-52355D02*
X26455Y-52655D01*
X26456Y-52653D01*
X26456Y-52539D01*
X26456Y-48537D01*
X26502Y-48506D01*
X26606Y-48350D01*
X26710Y-48506D01*
X26756Y-48537D01*
X26756Y-52224D01*
X26756Y-52355D01*
X26756Y-52355D01*
G37*
G54D34*
X26756Y-52355D02*
X26455Y-52655D01*
X26456Y-52653D01*
X26456Y-52539D01*
X26456Y-48537D01*
X26502Y-48506D01*
X26606Y-48350D01*
X26710Y-48506D01*
X26756Y-48537D01*
X26756Y-52224D01*
X26756Y-52355D01*
G54D10*
G36*
X26926Y-46712D02*
X18409Y-46712D01*
X18275Y-46739D01*
X18161Y-46815D01*
X17858Y-47118D01*
X17782Y-47232D01*
X17778Y-47256D01*
X17746Y-47256D01*
X17654Y-47294D01*
X17584Y-47364D01*
X17546Y-47456D01*
X17546Y-47556D01*
X17546Y-47606D01*
X15513Y-47606D01*
X15472Y-47507D01*
X15326Y-47361D01*
X15326Y-45315D01*
X15471Y-45170D01*
X15560Y-44955D01*
X15561Y-44722D01*
X15472Y-44507D01*
X15307Y-44343D01*
X15278Y-44330D01*
X15307Y-44318D01*
X15471Y-44154D01*
X15560Y-43939D01*
X15561Y-43707D01*
X15472Y-43492D01*
X15326Y-43345D01*
X15326Y-41667D01*
X15441Y-41782D01*
X15555Y-41858D01*
X15688Y-41885D01*
X15739Y-41885D01*
X15884Y-42030D01*
X16099Y-42119D01*
X16332Y-42120D01*
X16547Y-42031D01*
X16711Y-41867D01*
X16801Y-41652D01*
X16801Y-41419D01*
X16712Y-41204D01*
X16548Y-41040D01*
X16333Y-40950D01*
X16100Y-40950D01*
X15885Y-41039D01*
X15786Y-41138D01*
X15560Y-40912D01*
X15561Y-40707D01*
X15472Y-40492D01*
X15307Y-40327D01*
X15295Y-40322D01*
X15324Y-40309D01*
X15506Y-40128D01*
X15557Y-40005D01*
X15556Y-40198D01*
X15645Y-40413D01*
X15810Y-40578D01*
X16024Y-40667D01*
X16257Y-40667D01*
X16472Y-40578D01*
X16618Y-40432D01*
X16649Y-40432D01*
X16775Y-40559D01*
X16775Y-41240D01*
X16802Y-41374D01*
X16878Y-41487D01*
X18158Y-42767D01*
X18271Y-42843D01*
X18271Y-42843D01*
X18405Y-42869D01*
X19661Y-42869D01*
X19653Y-42887D01*
X19653Y-43056D01*
X19718Y-43212D01*
X19756Y-43251D01*
X19756Y-43294D01*
X19656Y-43194D01*
X19419Y-43096D01*
X19163Y-43096D01*
X18927Y-43194D01*
X18745Y-43375D01*
X18696Y-43493D01*
X18656Y-43395D01*
X18475Y-43214D01*
X18238Y-43116D01*
X17982Y-43116D01*
X17746Y-43213D01*
X17564Y-43394D01*
X17466Y-43631D01*
X17466Y-43887D01*
X17564Y-44123D01*
X17745Y-44305D01*
X17756Y-44309D01*
X17756Y-44376D01*
X17710Y-44406D01*
X17588Y-44588D01*
X17546Y-44802D01*
X17546Y-45110D01*
X17588Y-45324D01*
X17710Y-45506D01*
X17891Y-45627D01*
X18106Y-45670D01*
X18320Y-45627D01*
X18502Y-45506D01*
X18606Y-45350D01*
X18710Y-45506D01*
X18891Y-45627D01*
X19106Y-45670D01*
X19320Y-45627D01*
X19502Y-45506D01*
X19606Y-45350D01*
X19710Y-45506D01*
X19891Y-45627D01*
X20106Y-45670D01*
X20320Y-45627D01*
X20502Y-45506D01*
X20606Y-45350D01*
X20710Y-45506D01*
X20891Y-45627D01*
X21106Y-45670D01*
X21320Y-45627D01*
X21502Y-45506D01*
X21606Y-45350D01*
X21710Y-45506D01*
X21891Y-45627D01*
X22106Y-45670D01*
X22320Y-45627D01*
X22502Y-45506D01*
X22606Y-45350D01*
X22710Y-45506D01*
X22891Y-45627D01*
X23106Y-45670D01*
X23320Y-45627D01*
X23502Y-45506D01*
X23606Y-45350D01*
X23710Y-45506D01*
X23891Y-45627D01*
X24106Y-45670D01*
X24320Y-45627D01*
X24502Y-45506D01*
X24606Y-45350D01*
X24710Y-45506D01*
X24891Y-45627D01*
X25106Y-45670D01*
X25320Y-45627D01*
X25502Y-45506D01*
X25606Y-45350D01*
X25710Y-45506D01*
X25891Y-45627D01*
X26106Y-45670D01*
X26320Y-45627D01*
X26502Y-45506D01*
X26606Y-45350D01*
X26710Y-45506D01*
X26756Y-45537D01*
X26756Y-46397D01*
X26782Y-46531D01*
X26858Y-46645D01*
X26926Y-46712D01*
X26926Y-46712D01*
G37*
G54D34*
X26926Y-46712D02*
X18409Y-46712D01*
X18275Y-46739D01*
X18161Y-46815D01*
X17858Y-47118D01*
X17782Y-47232D01*
X17778Y-47256D01*
X17746Y-47256D01*
X17654Y-47294D01*
X17584Y-47364D01*
X17546Y-47456D01*
X17546Y-47556D01*
X17546Y-47606D01*
X15513Y-47606D01*
X15472Y-47507D01*
X15326Y-47361D01*
X15326Y-45315D01*
X15471Y-45170D01*
X15560Y-44955D01*
X15561Y-44722D01*
X15472Y-44507D01*
X15307Y-44343D01*
X15278Y-44330D01*
X15307Y-44318D01*
X15471Y-44154D01*
X15560Y-43939D01*
X15561Y-43707D01*
X15472Y-43492D01*
X15326Y-43345D01*
X15326Y-41667D01*
X15441Y-41782D01*
X15555Y-41858D01*
X15688Y-41885D01*
X15739Y-41885D01*
X15884Y-42030D01*
X16099Y-42119D01*
X16332Y-42120D01*
X16547Y-42031D01*
X16711Y-41867D01*
X16801Y-41652D01*
X16801Y-41419D01*
X16712Y-41204D01*
X16548Y-41040D01*
X16333Y-40950D01*
X16100Y-40950D01*
X15885Y-41039D01*
X15786Y-41138D01*
X15560Y-40912D01*
X15561Y-40707D01*
X15472Y-40492D01*
X15307Y-40327D01*
X15295Y-40322D01*
X15324Y-40309D01*
X15506Y-40128D01*
X15557Y-40005D01*
X15556Y-40198D01*
X15645Y-40413D01*
X15810Y-40578D01*
X16024Y-40667D01*
X16257Y-40667D01*
X16472Y-40578D01*
X16618Y-40432D01*
X16649Y-40432D01*
X16775Y-40559D01*
X16775Y-41240D01*
X16802Y-41374D01*
X16878Y-41487D01*
X18158Y-42767D01*
X18271Y-42843D01*
X18271Y-42843D01*
X18405Y-42869D01*
X19661Y-42869D01*
X19653Y-42887D01*
X19653Y-43056D01*
X19718Y-43212D01*
X19756Y-43251D01*
X19756Y-43294D01*
X19656Y-43194D01*
X19419Y-43096D01*
X19163Y-43096D01*
X18927Y-43194D01*
X18745Y-43375D01*
X18696Y-43493D01*
X18656Y-43395D01*
X18475Y-43214D01*
X18238Y-43116D01*
X17982Y-43116D01*
X17746Y-43213D01*
X17564Y-43394D01*
X17466Y-43631D01*
X17466Y-43887D01*
X17564Y-44123D01*
X17745Y-44305D01*
X17756Y-44309D01*
X17756Y-44376D01*
X17710Y-44406D01*
X17588Y-44588D01*
X17546Y-44802D01*
X17546Y-45110D01*
X17588Y-45324D01*
X17710Y-45506D01*
X17891Y-45627D01*
X18106Y-45670D01*
X18320Y-45627D01*
X18502Y-45506D01*
X18606Y-45350D01*
X18710Y-45506D01*
X18891Y-45627D01*
X19106Y-45670D01*
X19320Y-45627D01*
X19502Y-45506D01*
X19606Y-45350D01*
X19710Y-45506D01*
X19891Y-45627D01*
X20106Y-45670D01*
X20320Y-45627D01*
X20502Y-45506D01*
X20606Y-45350D01*
X20710Y-45506D01*
X20891Y-45627D01*
X21106Y-45670D01*
X21320Y-45627D01*
X21502Y-45506D01*
X21606Y-45350D01*
X21710Y-45506D01*
X21891Y-45627D01*
X22106Y-45670D01*
X22320Y-45627D01*
X22502Y-45506D01*
X22606Y-45350D01*
X22710Y-45506D01*
X22891Y-45627D01*
X23106Y-45670D01*
X23320Y-45627D01*
X23502Y-45506D01*
X23606Y-45350D01*
X23710Y-45506D01*
X23891Y-45627D01*
X24106Y-45670D01*
X24320Y-45627D01*
X24502Y-45506D01*
X24606Y-45350D01*
X24710Y-45506D01*
X24891Y-45627D01*
X25106Y-45670D01*
X25320Y-45627D01*
X25502Y-45506D01*
X25606Y-45350D01*
X25710Y-45506D01*
X25891Y-45627D01*
X26106Y-45670D01*
X26320Y-45627D01*
X26502Y-45506D01*
X26606Y-45350D01*
X26710Y-45506D01*
X26756Y-45537D01*
X26756Y-46397D01*
X26782Y-46531D01*
X26858Y-46645D01*
X26926Y-46712D01*
G54D10*
G36*
X27240Y-38893D02*
X27095Y-39038D01*
X27006Y-39253D01*
X27005Y-39485D01*
X27094Y-39700D01*
X27142Y-39748D01*
X24488Y-39748D01*
X24354Y-39775D01*
X24240Y-39850D01*
X23940Y-40151D01*
X23940Y-39954D01*
X23974Y-39954D01*
X24066Y-39916D01*
X24137Y-39846D01*
X24175Y-39754D01*
X24175Y-39655D01*
X24175Y-38985D01*
X24137Y-38894D01*
X24066Y-38823D01*
X23975Y-38785D01*
X23940Y-38785D01*
X23940Y-38454D01*
X24052Y-38454D01*
X24289Y-38356D01*
X24425Y-38221D01*
X24560Y-38356D01*
X24796Y-38454D01*
X25052Y-38454D01*
X25289Y-38356D01*
X25425Y-38221D01*
X25560Y-38356D01*
X25796Y-38454D01*
X26052Y-38454D01*
X26289Y-38356D01*
X26425Y-38221D01*
X26560Y-38356D01*
X26796Y-38454D01*
X27052Y-38454D01*
X27240Y-38376D01*
X27240Y-38893D01*
X27240Y-38893D01*
G37*
G54D34*
X27240Y-38893D02*
X27095Y-39038D01*
X27006Y-39253D01*
X27005Y-39485D01*
X27094Y-39700D01*
X27142Y-39748D01*
X24488Y-39748D01*
X24354Y-39775D01*
X24240Y-39850D01*
X23940Y-40151D01*
X23940Y-39954D01*
X23974Y-39954D01*
X24066Y-39916D01*
X24137Y-39846D01*
X24175Y-39754D01*
X24175Y-39655D01*
X24175Y-38985D01*
X24137Y-38894D01*
X24066Y-38823D01*
X23975Y-38785D01*
X23940Y-38785D01*
X23940Y-38454D01*
X24052Y-38454D01*
X24289Y-38356D01*
X24425Y-38221D01*
X24560Y-38356D01*
X24796Y-38454D01*
X25052Y-38454D01*
X25289Y-38356D01*
X25425Y-38221D01*
X25560Y-38356D01*
X25796Y-38454D01*
X26052Y-38454D01*
X26289Y-38356D01*
X26425Y-38221D01*
X26560Y-38356D01*
X26796Y-38454D01*
X27052Y-38454D01*
X27240Y-38376D01*
X27240Y-38893D01*
G54D10*
G36*
X27580Y-28263D02*
X27402Y-28441D01*
X27331Y-28547D01*
X27331Y-28547D01*
X27330Y-28548D01*
X27170Y-28707D01*
X27084Y-28914D01*
X27084Y-29139D01*
X27170Y-29347D01*
X27329Y-29506D01*
X27380Y-29527D01*
X27330Y-29548D01*
X27170Y-29707D01*
X27084Y-29914D01*
X27084Y-30139D01*
X27170Y-30347D01*
X27299Y-30476D01*
X27299Y-31614D01*
X26744Y-32169D01*
X24250Y-32169D01*
X24747Y-31672D01*
X24747Y-31672D01*
X24747Y-31672D01*
X24811Y-31577D01*
X24811Y-31580D01*
X24875Y-31736D01*
X24995Y-31856D01*
X25151Y-31920D01*
X25320Y-31921D01*
X25476Y-31856D01*
X25596Y-31737D01*
X25661Y-31580D01*
X25661Y-31566D01*
X25747Y-31479D01*
X25823Y-31366D01*
X25823Y-31366D01*
X25850Y-31232D01*
X25850Y-30476D01*
X25978Y-30348D01*
X26064Y-30140D01*
X26065Y-29915D01*
X25979Y-29707D01*
X25820Y-29548D01*
X25769Y-29527D01*
X25819Y-29506D01*
X25949Y-29377D01*
X26393Y-29377D01*
X26450Y-29401D01*
X26619Y-29401D01*
X26775Y-29336D01*
X26895Y-29217D01*
X26960Y-29061D01*
X26960Y-28892D01*
X26895Y-28735D01*
X26776Y-28616D01*
X26620Y-28551D01*
X26451Y-28551D01*
X26295Y-28615D01*
X26233Y-28677D01*
X25948Y-28677D01*
X25820Y-28548D01*
X25612Y-28462D01*
X25388Y-28462D01*
X25180Y-28548D01*
X25021Y-28707D01*
X25000Y-28758D01*
X24979Y-28707D01*
X24918Y-28647D01*
X25302Y-28263D01*
X27580Y-28263D01*
X27580Y-28263D01*
G37*
G54D34*
X27580Y-28263D02*
X27402Y-28441D01*
X27331Y-28547D01*
X27331Y-28547D01*
X27330Y-28548D01*
X27170Y-28707D01*
X27084Y-28914D01*
X27084Y-29139D01*
X27170Y-29347D01*
X27329Y-29506D01*
X27380Y-29527D01*
X27330Y-29548D01*
X27170Y-29707D01*
X27084Y-29914D01*
X27084Y-30139D01*
X27170Y-30347D01*
X27299Y-30476D01*
X27299Y-31614D01*
X26744Y-32169D01*
X24250Y-32169D01*
X24747Y-31672D01*
X24747Y-31672D01*
X24747Y-31672D01*
X24811Y-31577D01*
X24811Y-31580D01*
X24875Y-31736D01*
X24995Y-31856D01*
X25151Y-31920D01*
X25320Y-31921D01*
X25476Y-31856D01*
X25596Y-31737D01*
X25661Y-31580D01*
X25661Y-31566D01*
X25747Y-31479D01*
X25823Y-31366D01*
X25823Y-31366D01*
X25850Y-31232D01*
X25850Y-30476D01*
X25978Y-30348D01*
X26064Y-30140D01*
X26065Y-29915D01*
X25979Y-29707D01*
X25820Y-29548D01*
X25769Y-29527D01*
X25819Y-29506D01*
X25949Y-29377D01*
X26393Y-29377D01*
X26450Y-29401D01*
X26619Y-29401D01*
X26775Y-29336D01*
X26895Y-29217D01*
X26960Y-29061D01*
X26960Y-28892D01*
X26895Y-28735D01*
X26776Y-28616D01*
X26620Y-28551D01*
X26451Y-28551D01*
X26295Y-28615D01*
X26233Y-28677D01*
X25948Y-28677D01*
X25820Y-28548D01*
X25612Y-28462D01*
X25388Y-28462D01*
X25180Y-28548D01*
X25021Y-28707D01*
X25000Y-28758D01*
X24979Y-28707D01*
X24918Y-28647D01*
X25302Y-28263D01*
X27580Y-28263D01*
G54D10*
G36*
X27706Y-47412D02*
X27606Y-47562D01*
X27506Y-47412D01*
X27706Y-47412D01*
X27706Y-47412D01*
G37*
G54D34*
X27706Y-47412D02*
X27606Y-47562D01*
X27506Y-47412D01*
X27706Y-47412D01*
G54D10*
G36*
X27759Y-45800D02*
X27712Y-45820D01*
X27592Y-45940D01*
X27527Y-46096D01*
X27527Y-46265D01*
X27543Y-46303D01*
X27507Y-46303D01*
X27456Y-46252D01*
X27456Y-45537D01*
X27502Y-45506D01*
X27606Y-45350D01*
X27710Y-45506D01*
X27756Y-45537D01*
X27756Y-45783D01*
X27759Y-45800D01*
X27759Y-45800D01*
G37*
G54D34*
X27759Y-45800D02*
X27712Y-45820D01*
X27592Y-45940D01*
X27527Y-46096D01*
X27527Y-46265D01*
X27543Y-46303D01*
X27507Y-46303D01*
X27456Y-46252D01*
X27456Y-45537D01*
X27502Y-45506D01*
X27606Y-45350D01*
X27710Y-45506D01*
X27756Y-45537D01*
X27756Y-45783D01*
X27759Y-45800D01*
G54D10*
G36*
X28137Y-32869D02*
X28137Y-32918D01*
X20393Y-32918D01*
X20267Y-32943D01*
X20160Y-33014D01*
X20154Y-33020D01*
X20114Y-33012D01*
X18789Y-33012D01*
X18824Y-32977D01*
X18889Y-32821D01*
X18889Y-32652D01*
X18825Y-32495D01*
X18705Y-32376D01*
X18549Y-32311D01*
X18534Y-32311D01*
X17668Y-31445D01*
X17555Y-31369D01*
X17421Y-31342D01*
X15433Y-31342D01*
X15299Y-31369D01*
X15185Y-31445D01*
X14202Y-32428D01*
X14243Y-32329D01*
X14243Y-32314D01*
X14322Y-32235D01*
X14322Y-32235D01*
X14322Y-32235D01*
X14398Y-32122D01*
X14424Y-31988D01*
X14424Y-31988D01*
X14424Y-31988D01*
X14424Y-31425D01*
X14586Y-31264D01*
X14679Y-31041D01*
X14679Y-30801D01*
X14587Y-30579D01*
X14429Y-30421D01*
X14579Y-30271D01*
X14606Y-30271D01*
X14740Y-30244D01*
X14740Y-30244D01*
X14853Y-30168D01*
X15326Y-29696D01*
X15402Y-29582D01*
X15428Y-29448D01*
X15428Y-27782D01*
X15578Y-27633D01*
X15691Y-27633D01*
X15616Y-27812D01*
X15616Y-28021D01*
X15696Y-28214D01*
X15843Y-28362D01*
X16036Y-28442D01*
X16171Y-28442D01*
X17004Y-29275D01*
X17118Y-29350D01*
X17251Y-29377D01*
X17751Y-29377D01*
X17880Y-29506D01*
X17931Y-29527D01*
X17881Y-29548D01*
X17722Y-29707D01*
X17635Y-29914D01*
X17635Y-30139D01*
X17721Y-30347D01*
X17850Y-30476D01*
X17850Y-31271D01*
X17877Y-31405D01*
X17953Y-31519D01*
X19201Y-32767D01*
X19201Y-32767D01*
X19314Y-32843D01*
X19448Y-32869D01*
X19448Y-32869D01*
X20196Y-32869D01*
X20629Y-32869D01*
X23405Y-32869D01*
X26889Y-32869D01*
X28137Y-32869D01*
X28137Y-32869D01*
G37*
G54D34*
X28137Y-32869D02*
X28137Y-32918D01*
X20393Y-32918D01*
X20267Y-32943D01*
X20160Y-33014D01*
X20154Y-33020D01*
X20114Y-33012D01*
X18789Y-33012D01*
X18824Y-32977D01*
X18889Y-32821D01*
X18889Y-32652D01*
X18825Y-32495D01*
X18705Y-32376D01*
X18549Y-32311D01*
X18534Y-32311D01*
X17668Y-31445D01*
X17555Y-31369D01*
X17421Y-31342D01*
X15433Y-31342D01*
X15299Y-31369D01*
X15185Y-31445D01*
X14202Y-32428D01*
X14243Y-32329D01*
X14243Y-32314D01*
X14322Y-32235D01*
X14322Y-32235D01*
X14322Y-32235D01*
X14398Y-32122D01*
X14424Y-31988D01*
X14424Y-31988D01*
X14424Y-31988D01*
X14424Y-31425D01*
X14586Y-31264D01*
X14679Y-31041D01*
X14679Y-30801D01*
X14587Y-30579D01*
X14429Y-30421D01*
X14579Y-30271D01*
X14606Y-30271D01*
X14740Y-30244D01*
X14740Y-30244D01*
X14853Y-30168D01*
X15326Y-29696D01*
X15402Y-29582D01*
X15428Y-29448D01*
X15428Y-27782D01*
X15578Y-27633D01*
X15691Y-27633D01*
X15616Y-27812D01*
X15616Y-28021D01*
X15696Y-28214D01*
X15843Y-28362D01*
X16036Y-28442D01*
X16171Y-28442D01*
X17004Y-29275D01*
X17118Y-29350D01*
X17251Y-29377D01*
X17751Y-29377D01*
X17880Y-29506D01*
X17931Y-29527D01*
X17881Y-29548D01*
X17722Y-29707D01*
X17635Y-29914D01*
X17635Y-30139D01*
X17721Y-30347D01*
X17850Y-30476D01*
X17850Y-31271D01*
X17877Y-31405D01*
X17953Y-31519D01*
X19201Y-32767D01*
X19201Y-32767D01*
X19314Y-32843D01*
X19448Y-32869D01*
X19448Y-32869D01*
X20196Y-32869D01*
X20629Y-32869D01*
X23405Y-32869D01*
X26889Y-32869D01*
X28137Y-32869D01*
G54D10*
G36*
X28170Y-48657D02*
X28066Y-48761D01*
X28066Y-48662D01*
X28106Y-48670D01*
X28170Y-48657D01*
X28170Y-48657D01*
G37*
G54D34*
X28170Y-48657D02*
X28066Y-48761D01*
X28066Y-48662D01*
X28106Y-48670D01*
X28170Y-48657D01*
G54D10*
G36*
X28221Y-28657D02*
X28170Y-28707D01*
X28149Y-28758D01*
X28128Y-28707D01*
X28127Y-28706D01*
X28176Y-28657D01*
X28221Y-28657D01*
X28221Y-28657D01*
G37*
G54D34*
X28221Y-28657D02*
X28170Y-28707D01*
X28149Y-28758D01*
X28128Y-28707D01*
X28127Y-28706D01*
X28176Y-28657D01*
X28221Y-28657D01*
G54D10*
G36*
X28299Y-30890D02*
X28119Y-31071D01*
X28104Y-31070D01*
X27999Y-31114D01*
X27999Y-30476D01*
X28128Y-30348D01*
X28149Y-30296D01*
X28170Y-30347D01*
X28299Y-30476D01*
X28299Y-30890D01*
X28299Y-30890D01*
G37*
G54D34*
X28299Y-30890D02*
X28119Y-31071D01*
X28104Y-31070D01*
X27999Y-31114D01*
X27999Y-30476D01*
X28128Y-30348D01*
X28149Y-30296D01*
X28170Y-30347D01*
X28299Y-30476D01*
X28299Y-30890D01*
G54D10*
G36*
X28380Y-29527D02*
X28330Y-29548D01*
X28170Y-29707D01*
X28149Y-29758D01*
X28128Y-29707D01*
X27970Y-29548D01*
X27918Y-29527D01*
X27969Y-29506D01*
X28128Y-29348D01*
X28149Y-29296D01*
X28170Y-29347D01*
X28329Y-29506D01*
X28380Y-29527D01*
X28380Y-29527D01*
G37*
G54D34*
X28380Y-29527D02*
X28330Y-29548D01*
X28170Y-29707D01*
X28149Y-29758D01*
X28128Y-29707D01*
X27970Y-29548D01*
X27918Y-29527D01*
X27969Y-29506D01*
X28128Y-29348D01*
X28149Y-29296D01*
X28170Y-29347D01*
X28329Y-29506D01*
X28380Y-29527D01*
G54D10*
G36*
X28706Y-47412D02*
X28606Y-47562D01*
X28506Y-47412D01*
X28706Y-47412D01*
X28706Y-47412D01*
G37*
G54D34*
X28706Y-47412D02*
X28606Y-47562D01*
X28506Y-47412D01*
X28706Y-47412D01*
G54D10*
G36*
X29005Y-27234D02*
X24476Y-27234D01*
X24476Y-25791D01*
X24475Y-25587D01*
X24475Y-25382D01*
X24473Y-25378D01*
X24473Y-25373D01*
X24319Y-25002D01*
X24317Y-25001D01*
X24315Y-24996D01*
X24020Y-24700D01*
X24014Y-24698D01*
X24013Y-24695D01*
X23823Y-24619D01*
X23634Y-24540D01*
X23630Y-24540D01*
X23626Y-24539D01*
X23421Y-24540D01*
X23217Y-24540D01*
X23213Y-24542D01*
X23208Y-24542D01*
X22837Y-24695D01*
X22835Y-24697D01*
X22831Y-24699D01*
X22535Y-24994D01*
X22533Y-25000D01*
X22530Y-25002D01*
X22453Y-25191D01*
X22375Y-25380D01*
X22375Y-25385D01*
X22373Y-25389D01*
X22375Y-25593D01*
X22375Y-25798D01*
X22376Y-25802D01*
X22376Y-25807D01*
X22530Y-26178D01*
X22532Y-26179D01*
X22534Y-26184D01*
X22829Y-26480D01*
X22835Y-26482D01*
X22837Y-26485D01*
X23026Y-26561D01*
X23215Y-26640D01*
X23219Y-26640D01*
X23224Y-26642D01*
X23428Y-26640D01*
X23633Y-26640D01*
X23637Y-26638D01*
X23641Y-26638D01*
X24013Y-26485D01*
X24014Y-26483D01*
X24019Y-26481D01*
X24314Y-26186D01*
X24317Y-26180D01*
X24319Y-26178D01*
X24396Y-25989D01*
X24475Y-25800D01*
X24475Y-25795D01*
X24476Y-25791D01*
X24476Y-27234D01*
X20994Y-27234D01*
X20994Y-23947D01*
X29005Y-23947D01*
X29005Y-27234D01*
X29005Y-27234D01*
G37*
G54D34*
X29005Y-27234D02*
X24476Y-27234D01*
X24476Y-25791D01*
X24475Y-25587D01*
X24475Y-25382D01*
X24473Y-25378D01*
X24473Y-25373D01*
X24319Y-25002D01*
X24317Y-25001D01*
X24315Y-24996D01*
X24020Y-24700D01*
X24014Y-24698D01*
X24013Y-24695D01*
X23823Y-24619D01*
X23634Y-24540D01*
X23630Y-24540D01*
X23626Y-24539D01*
X23421Y-24540D01*
X23217Y-24540D01*
X23213Y-24542D01*
X23208Y-24542D01*
X22837Y-24695D01*
X22835Y-24697D01*
X22831Y-24699D01*
X22535Y-24994D01*
X22533Y-25000D01*
X22530Y-25002D01*
X22453Y-25191D01*
X22375Y-25380D01*
X22375Y-25385D01*
X22373Y-25389D01*
X22375Y-25593D01*
X22375Y-25798D01*
X22376Y-25802D01*
X22376Y-25807D01*
X22530Y-26178D01*
X22532Y-26179D01*
X22534Y-26184D01*
X22829Y-26480D01*
X22835Y-26482D01*
X22837Y-26485D01*
X23026Y-26561D01*
X23215Y-26640D01*
X23219Y-26640D01*
X23224Y-26642D01*
X23428Y-26640D01*
X23633Y-26640D01*
X23637Y-26638D01*
X23641Y-26638D01*
X24013Y-26485D01*
X24014Y-26483D01*
X24019Y-26481D01*
X24314Y-26186D01*
X24317Y-26180D01*
X24319Y-26178D01*
X24396Y-25989D01*
X24475Y-25800D01*
X24475Y-25795D01*
X24476Y-25791D01*
X24476Y-27234D01*
X20994Y-27234D01*
X20994Y-23947D01*
X29005Y-23947D01*
X29005Y-27234D01*
G54D10*
G36*
X29137Y-45811D02*
X28937Y-45811D01*
X28629Y-45811D01*
X28456Y-45638D01*
X28456Y-45537D01*
X28502Y-45506D01*
X28606Y-45350D01*
X28710Y-45506D01*
X28891Y-45627D01*
X29015Y-45652D01*
X29122Y-45758D01*
X29122Y-45773D01*
X29137Y-45811D01*
X29137Y-45811D01*
G37*
G54D34*
X29137Y-45811D02*
X28937Y-45811D01*
X28629Y-45811D01*
X28456Y-45638D01*
X28456Y-45537D01*
X28502Y-45506D01*
X28606Y-45350D01*
X28710Y-45506D01*
X28891Y-45627D01*
X29015Y-45652D01*
X29122Y-45758D01*
X29122Y-45773D01*
X29137Y-45811D01*
G54D10*
G36*
X29139Y-36734D02*
X29139Y-36797D01*
X29139Y-36961D01*
X29047Y-36961D01*
X28986Y-36899D01*
X29039Y-36877D01*
X29109Y-36807D01*
X29139Y-36734D01*
X29139Y-36734D01*
G37*
G54D34*
X29139Y-36734D02*
X29139Y-36797D01*
X29139Y-36961D01*
X29047Y-36961D01*
X28986Y-36899D01*
X29039Y-36877D01*
X29109Y-36807D01*
X29139Y-36734D01*
G54D10*
G36*
X29151Y-36197D02*
X29147Y-36206D01*
X29147Y-36201D01*
X29151Y-36197D01*
X29151Y-36197D01*
G37*
G54D34*
X29151Y-36197D02*
X29147Y-36206D01*
X29147Y-36201D01*
X29151Y-36197D01*
G54D10*
G36*
X29176Y-32869D02*
X29156Y-32918D01*
X28987Y-32918D01*
X28987Y-32869D01*
X29176Y-32869D01*
X29176Y-32869D01*
G37*
G54D34*
X29176Y-32869D02*
X29156Y-32918D01*
X28987Y-32918D01*
X28987Y-32869D01*
X29176Y-32869D01*
G54D10*
G36*
X29194Y-36590D02*
X29177Y-36606D01*
X29147Y-36679D01*
X29147Y-36615D01*
X29147Y-36477D01*
X29194Y-36590D01*
X29194Y-36590D01*
G37*
G54D34*
X29194Y-36590D02*
X29177Y-36606D01*
X29147Y-36679D01*
X29147Y-36615D01*
X29147Y-36477D01*
X29194Y-36590D01*
G54D10*
G36*
X29287Y-40472D02*
X26657Y-40472D01*
X26633Y-40448D01*
X27145Y-40448D01*
X27287Y-40448D01*
X29263Y-40448D01*
X29287Y-40472D01*
X29287Y-40472D01*
G37*
G54D34*
X29287Y-40472D02*
X26657Y-40472D01*
X26633Y-40448D01*
X27145Y-40448D01*
X27287Y-40448D01*
X29263Y-40448D01*
X29287Y-40472D01*
G54D10*
G36*
X29706Y-47412D02*
X29606Y-47562D01*
X29506Y-47412D01*
X29706Y-47412D01*
X29706Y-47412D01*
G37*
G54D34*
X29706Y-47412D02*
X29606Y-47562D01*
X29506Y-47412D01*
X29706Y-47412D01*
G54D10*
G36*
X29712Y-52047D02*
X29700Y-52077D01*
X29700Y-50417D01*
X29712Y-50447D01*
X29712Y-50940D01*
X29712Y-51023D01*
X29712Y-52047D01*
X29712Y-52047D01*
G37*
G54D34*
X29712Y-52047D02*
X29700Y-52077D01*
X29700Y-50417D01*
X29712Y-50447D01*
X29712Y-50940D01*
X29712Y-51023D01*
X29712Y-52047D01*
G54D10*
G36*
X29804Y-30378D02*
X29495Y-30378D01*
X29214Y-30097D01*
X29214Y-29915D01*
X29128Y-29707D01*
X28970Y-29548D01*
X28918Y-29527D01*
X28969Y-29506D01*
X29089Y-29387D01*
X29335Y-29633D01*
X29335Y-29763D01*
X29361Y-29897D01*
X29437Y-30011D01*
X29804Y-30378D01*
X29804Y-30378D01*
G37*
G54D34*
X29804Y-30378D02*
X29495Y-30378D01*
X29214Y-30097D01*
X29214Y-29915D01*
X29128Y-29707D01*
X28970Y-29548D01*
X28918Y-29527D01*
X28969Y-29506D01*
X29089Y-29387D01*
X29335Y-29633D01*
X29335Y-29763D01*
X29361Y-29897D01*
X29437Y-30011D01*
X29804Y-30378D01*
G54D10*
G36*
X29868Y-28657D02*
X29771Y-28753D01*
X29691Y-28946D01*
X29691Y-28999D01*
X29471Y-28780D01*
X29358Y-28704D01*
X29224Y-28677D01*
X29098Y-28677D01*
X29078Y-28657D01*
X29868Y-28657D01*
X29868Y-28657D01*
G37*
G54D34*
X29868Y-28657D02*
X29771Y-28753D01*
X29691Y-28946D01*
X29691Y-28999D01*
X29471Y-28780D01*
X29358Y-28704D01*
X29224Y-28677D01*
X29098Y-28677D01*
X29078Y-28657D01*
X29868Y-28657D01*
G54D10*
G36*
X30212Y-53229D02*
X29700Y-53741D01*
X29700Y-52715D01*
X29732Y-52793D01*
X29803Y-52864D01*
X29895Y-52902D01*
X29994Y-52902D01*
X30212Y-52902D01*
X30212Y-53229D01*
X30212Y-53229D01*
G37*
G54D34*
X30212Y-53229D02*
X29700Y-53741D01*
X29700Y-52715D01*
X29732Y-52793D01*
X29803Y-52864D01*
X29895Y-52902D01*
X29994Y-52902D01*
X30212Y-52902D01*
X30212Y-53229D01*
G54D10*
G36*
X30224Y-31526D02*
X30112Y-31526D01*
X29919Y-31605D01*
X29810Y-31714D01*
X29810Y-31714D01*
X29744Y-31727D01*
X29630Y-31803D01*
X29264Y-32169D01*
X27734Y-32169D01*
X27897Y-32007D01*
X27972Y-31893D01*
X27972Y-31893D01*
X27977Y-31868D01*
X28104Y-31920D01*
X28273Y-31921D01*
X28429Y-31856D01*
X28549Y-31737D01*
X28613Y-31580D01*
X28613Y-31566D01*
X28897Y-31282D01*
X28897Y-31282D01*
X28897Y-31282D01*
X28972Y-31169D01*
X28999Y-31035D01*
X28999Y-31035D01*
X28999Y-30872D01*
X29102Y-30975D01*
X29216Y-31051D01*
X29216Y-31051D01*
X29350Y-31078D01*
X29776Y-31078D01*
X30224Y-31526D01*
X30224Y-31526D01*
G37*
G54D34*
X30224Y-31526D02*
X30112Y-31526D01*
X29919Y-31605D01*
X29810Y-31714D01*
X29810Y-31714D01*
X29744Y-31727D01*
X29630Y-31803D01*
X29264Y-32169D01*
X27734Y-32169D01*
X27897Y-32007D01*
X27972Y-31893D01*
X27972Y-31893D01*
X27977Y-31868D01*
X28104Y-31920D01*
X28273Y-31921D01*
X28429Y-31856D01*
X28549Y-31737D01*
X28613Y-31580D01*
X28613Y-31566D01*
X28897Y-31282D01*
X28897Y-31282D01*
X28897Y-31282D01*
X28972Y-31169D01*
X28999Y-31035D01*
X28999Y-31035D01*
X28999Y-30872D01*
X29102Y-30975D01*
X29216Y-31051D01*
X29216Y-31051D01*
X29350Y-31078D01*
X29776Y-31078D01*
X30224Y-31526D01*
G54D10*
G36*
X30272Y-40472D02*
X30161Y-40472D01*
X30201Y-40432D01*
X30231Y-40432D01*
X30272Y-40472D01*
X30272Y-40472D01*
G37*
G54D34*
X30272Y-40472D02*
X30161Y-40472D01*
X30201Y-40432D01*
X30231Y-40432D01*
X30272Y-40472D01*
G54D10*
G36*
X30628Y-32757D02*
X30324Y-32757D01*
X30232Y-32795D01*
X30216Y-32811D01*
X30200Y-32796D01*
X30109Y-32757D01*
X30009Y-32757D01*
X29666Y-32757D01*
X29925Y-32498D01*
X30111Y-32576D01*
X30320Y-32576D01*
X30410Y-32539D01*
X30628Y-32757D01*
X30628Y-32757D01*
G37*
G54D34*
X30628Y-32757D02*
X30324Y-32757D01*
X30232Y-32795D01*
X30216Y-32811D01*
X30200Y-32796D01*
X30109Y-32757D01*
X30009Y-32757D01*
X29666Y-32757D01*
X29925Y-32498D01*
X30111Y-32576D01*
X30320Y-32576D01*
X30410Y-32539D01*
X30628Y-32757D01*
G54D10*
G36*
X30629Y-51890D02*
X30412Y-51890D01*
X30412Y-51117D01*
X30459Y-51117D01*
X30459Y-51152D01*
X30459Y-51702D01*
X30497Y-51794D01*
X30568Y-51864D01*
X30629Y-51890D01*
X30629Y-51890D01*
G37*
G54D34*
X30629Y-51890D02*
X30412Y-51890D01*
X30412Y-51117D01*
X30459Y-51117D01*
X30459Y-51152D01*
X30459Y-51702D01*
X30497Y-51794D01*
X30568Y-51864D01*
X30629Y-51890D01*
G54D10*
G36*
X30674Y-42291D02*
X30585Y-42291D01*
X30428Y-42356D01*
X30309Y-42475D01*
X30244Y-42631D01*
X30244Y-42800D01*
X30271Y-42867D01*
X29086Y-41682D01*
X29086Y-41667D01*
X29021Y-41511D01*
X28902Y-41391D01*
X28746Y-41327D01*
X28577Y-41326D01*
X28420Y-41391D01*
X28301Y-41510D01*
X28236Y-41667D01*
X28236Y-41836D01*
X28300Y-41992D01*
X28420Y-42112D01*
X28576Y-42176D01*
X28591Y-42176D01*
X29756Y-43341D01*
X29756Y-44376D01*
X29710Y-44406D01*
X29606Y-44562D01*
X29502Y-44406D01*
X29320Y-44285D01*
X29106Y-44242D01*
X28891Y-44285D01*
X28710Y-44406D01*
X28606Y-44562D01*
X28502Y-44406D01*
X28320Y-44285D01*
X28106Y-44242D01*
X27891Y-44285D01*
X27710Y-44406D01*
X27606Y-44562D01*
X27502Y-44406D01*
X27456Y-44376D01*
X27456Y-43624D01*
X27569Y-43624D01*
X27661Y-43586D01*
X27731Y-43515D01*
X27769Y-43423D01*
X27769Y-43324D01*
X27769Y-42615D01*
X27731Y-42523D01*
X27661Y-42453D01*
X27608Y-42431D01*
X27677Y-42362D01*
X27769Y-42140D01*
X27769Y-41900D01*
X27677Y-41677D01*
X27508Y-41507D01*
X27286Y-41415D01*
X27268Y-41415D01*
X27026Y-41172D01*
X29713Y-41172D01*
X29712Y-41174D01*
X29712Y-41344D01*
X29777Y-41500D01*
X29896Y-41619D01*
X30052Y-41684D01*
X30067Y-41684D01*
X30674Y-42291D01*
X30674Y-42291D01*
G37*
G54D34*
X30674Y-42291D02*
X30585Y-42291D01*
X30428Y-42356D01*
X30309Y-42475D01*
X30244Y-42631D01*
X30244Y-42800D01*
X30271Y-42867D01*
X29086Y-41682D01*
X29086Y-41667D01*
X29021Y-41511D01*
X28902Y-41391D01*
X28746Y-41327D01*
X28577Y-41326D01*
X28420Y-41391D01*
X28301Y-41510D01*
X28236Y-41667D01*
X28236Y-41836D01*
X28300Y-41992D01*
X28420Y-42112D01*
X28576Y-42176D01*
X28591Y-42176D01*
X29756Y-43341D01*
X29756Y-44376D01*
X29710Y-44406D01*
X29606Y-44562D01*
X29502Y-44406D01*
X29320Y-44285D01*
X29106Y-44242D01*
X28891Y-44285D01*
X28710Y-44406D01*
X28606Y-44562D01*
X28502Y-44406D01*
X28320Y-44285D01*
X28106Y-44242D01*
X27891Y-44285D01*
X27710Y-44406D01*
X27606Y-44562D01*
X27502Y-44406D01*
X27456Y-44376D01*
X27456Y-43624D01*
X27569Y-43624D01*
X27661Y-43586D01*
X27731Y-43515D01*
X27769Y-43423D01*
X27769Y-43324D01*
X27769Y-42615D01*
X27731Y-42523D01*
X27661Y-42453D01*
X27608Y-42431D01*
X27677Y-42362D01*
X27769Y-42140D01*
X27769Y-41900D01*
X27677Y-41677D01*
X27508Y-41507D01*
X27286Y-41415D01*
X27268Y-41415D01*
X27026Y-41172D01*
X29713Y-41172D01*
X29712Y-41174D01*
X29712Y-41344D01*
X29777Y-41500D01*
X29896Y-41619D01*
X30052Y-41684D01*
X30067Y-41684D01*
X30674Y-42291D01*
G54D10*
G36*
X30706Y-47412D02*
X30606Y-47562D01*
X30506Y-47412D01*
X30706Y-47412D01*
X30706Y-47412D01*
G37*
G54D34*
X30706Y-47412D02*
X30606Y-47562D01*
X30506Y-47412D01*
X30706Y-47412D01*
G54D10*
G36*
X30712Y-54060D02*
X30403Y-54060D01*
X30349Y-54082D01*
X30712Y-53718D01*
X30712Y-54060D01*
X30712Y-54060D01*
G37*
G54D34*
X30712Y-54060D02*
X30403Y-54060D01*
X30349Y-54082D01*
X30712Y-53718D01*
X30712Y-54060D01*
G54D10*
G36*
X30756Y-44376D02*
X30710Y-44406D01*
X30606Y-44562D01*
X30502Y-44406D01*
X30456Y-44376D01*
X30456Y-43196D01*
X30456Y-43196D01*
X30456Y-43196D01*
X30432Y-43078D01*
X30584Y-43141D01*
X30599Y-43141D01*
X30756Y-43298D01*
X30756Y-44376D01*
X30756Y-44376D01*
G37*
G54D34*
X30756Y-44376D02*
X30710Y-44406D01*
X30606Y-44562D01*
X30502Y-44406D01*
X30456Y-44376D01*
X30456Y-43196D01*
X30456Y-43196D01*
X30456Y-43196D01*
X30432Y-43078D01*
X30584Y-43141D01*
X30599Y-43141D01*
X30756Y-43298D01*
X30756Y-44376D01*
G54D10*
G36*
X30756Y-48669D02*
X30603Y-48823D01*
X29978Y-48823D01*
X30137Y-48664D01*
X30320Y-48627D01*
X30502Y-48506D01*
X30606Y-48350D01*
X30710Y-48506D01*
X30756Y-48537D01*
X30756Y-48669D01*
X30756Y-48669D01*
G37*
G54D34*
X30756Y-48669D02*
X30603Y-48823D01*
X29978Y-48823D01*
X30137Y-48664D01*
X30320Y-48627D01*
X30502Y-48506D01*
X30606Y-48350D01*
X30710Y-48506D01*
X30756Y-48537D01*
X30756Y-48669D01*
G54D10*
G36*
X31248Y-49167D02*
X31248Y-49181D01*
X31051Y-49378D01*
X30987Y-49475D01*
X30987Y-49475D01*
X30957Y-49487D01*
X30887Y-49557D01*
X30865Y-49504D01*
X30861Y-49500D01*
X30881Y-49496D01*
X30881Y-49496D01*
X30995Y-49420D01*
X31248Y-49167D01*
X31248Y-49167D01*
G37*
G54D34*
X31248Y-49167D02*
X31248Y-49181D01*
X31051Y-49378D01*
X30987Y-49475D01*
X30987Y-49475D01*
X30957Y-49487D01*
X30887Y-49557D01*
X30865Y-49504D01*
X30861Y-49500D01*
X30881Y-49496D01*
X30881Y-49496D01*
X30995Y-49420D01*
X31248Y-49167D01*
G54D10*
G36*
X31342Y-40103D02*
X31332Y-40113D01*
X31267Y-40269D01*
X31267Y-40438D01*
X31282Y-40472D01*
X31145Y-40472D01*
X31204Y-40414D01*
X31293Y-40199D01*
X31293Y-39966D01*
X31204Y-39751D01*
X31040Y-39587D01*
X30825Y-39498D01*
X30592Y-39497D01*
X30377Y-39586D01*
X30231Y-39732D01*
X30201Y-39732D01*
X30056Y-39587D01*
X29841Y-39498D01*
X29608Y-39497D01*
X29393Y-39586D01*
X29231Y-39748D01*
X28039Y-39748D01*
X28085Y-39701D01*
X28175Y-39486D01*
X28175Y-39254D01*
X28086Y-39039D01*
X27940Y-38893D01*
X27940Y-37984D01*
X27940Y-37984D01*
X27913Y-37850D01*
X27838Y-37736D01*
X27838Y-37736D01*
X27664Y-37563D01*
X27551Y-37487D01*
X27482Y-37473D01*
X27471Y-37446D01*
X27303Y-37279D01*
X27939Y-37279D01*
X27938Y-37430D01*
X28030Y-37652D01*
X28200Y-37823D01*
X28422Y-37915D01*
X28662Y-37915D01*
X28885Y-37823D01*
X29048Y-37661D01*
X29324Y-37661D01*
X29339Y-37667D01*
X29439Y-37667D01*
X30108Y-37667D01*
X30200Y-37629D01*
X30216Y-37613D01*
X30232Y-37629D01*
X30324Y-37667D01*
X30423Y-37667D01*
X31092Y-37667D01*
X31184Y-37629D01*
X31255Y-37559D01*
X31293Y-37467D01*
X31293Y-37367D01*
X31293Y-36698D01*
X31255Y-36606D01*
X31238Y-36590D01*
X31293Y-36459D01*
X31293Y-36226D01*
X31204Y-36011D01*
X31040Y-35847D01*
X31034Y-35844D01*
X31034Y-35844D01*
X31032Y-35830D01*
X31032Y-35830D01*
X30956Y-35717D01*
X30660Y-35421D01*
X30547Y-35345D01*
X30413Y-35319D01*
X29185Y-35319D01*
X29051Y-35345D01*
X28937Y-35421D01*
X28652Y-35706D01*
X28139Y-35706D01*
X28047Y-35744D01*
X27977Y-35814D01*
X27939Y-35906D01*
X27938Y-35961D01*
X27070Y-35961D01*
X27062Y-35953D01*
X27068Y-35939D01*
X27068Y-35683D01*
X26971Y-35446D01*
X26790Y-35265D01*
X26553Y-35167D01*
X26297Y-35167D01*
X26061Y-35265D01*
X25925Y-35400D01*
X25790Y-35265D01*
X25553Y-35167D01*
X25297Y-35167D01*
X25281Y-35174D01*
X25361Y-35094D01*
X31075Y-35094D01*
X31342Y-35361D01*
X31342Y-35728D01*
X31342Y-40103D01*
X31342Y-40103D01*
G37*
G54D34*
X31342Y-40103D02*
X31332Y-40113D01*
X31267Y-40269D01*
X31267Y-40438D01*
X31282Y-40472D01*
X31145Y-40472D01*
X31204Y-40414D01*
X31293Y-40199D01*
X31293Y-39966D01*
X31204Y-39751D01*
X31040Y-39587D01*
X30825Y-39498D01*
X30592Y-39497D01*
X30377Y-39586D01*
X30231Y-39732D01*
X30201Y-39732D01*
X30056Y-39587D01*
X29841Y-39498D01*
X29608Y-39497D01*
X29393Y-39586D01*
X29231Y-39748D01*
X28039Y-39748D01*
X28085Y-39701D01*
X28175Y-39486D01*
X28175Y-39254D01*
X28086Y-39039D01*
X27940Y-38893D01*
X27940Y-37984D01*
X27940Y-37984D01*
X27913Y-37850D01*
X27838Y-37736D01*
X27838Y-37736D01*
X27664Y-37563D01*
X27551Y-37487D01*
X27482Y-37473D01*
X27471Y-37446D01*
X27303Y-37279D01*
X27939Y-37279D01*
X27938Y-37430D01*
X28030Y-37652D01*
X28200Y-37823D01*
X28422Y-37915D01*
X28662Y-37915D01*
X28885Y-37823D01*
X29048Y-37661D01*
X29324Y-37661D01*
X29339Y-37667D01*
X29439Y-37667D01*
X30108Y-37667D01*
X30200Y-37629D01*
X30216Y-37613D01*
X30232Y-37629D01*
X30324Y-37667D01*
X30423Y-37667D01*
X31092Y-37667D01*
X31184Y-37629D01*
X31255Y-37559D01*
X31293Y-37467D01*
X31293Y-37367D01*
X31293Y-36698D01*
X31255Y-36606D01*
X31238Y-36590D01*
X31293Y-36459D01*
X31293Y-36226D01*
X31204Y-36011D01*
X31040Y-35847D01*
X31034Y-35844D01*
X31034Y-35844D01*
X31032Y-35830D01*
X31032Y-35830D01*
X30956Y-35717D01*
X30660Y-35421D01*
X30547Y-35345D01*
X30413Y-35319D01*
X29185Y-35319D01*
X29051Y-35345D01*
X28937Y-35421D01*
X28652Y-35706D01*
X28139Y-35706D01*
X28047Y-35744D01*
X27977Y-35814D01*
X27939Y-35906D01*
X27938Y-35961D01*
X27070Y-35961D01*
X27062Y-35953D01*
X27068Y-35939D01*
X27068Y-35683D01*
X26971Y-35446D01*
X26790Y-35265D01*
X26553Y-35167D01*
X26297Y-35167D01*
X26061Y-35265D01*
X25925Y-35400D01*
X25790Y-35265D01*
X25553Y-35167D01*
X25297Y-35167D01*
X25281Y-35174D01*
X25361Y-35094D01*
X31075Y-35094D01*
X31342Y-35361D01*
X31342Y-35728D01*
X31342Y-40103D01*
G54D10*
G36*
X31446Y-29903D02*
X31384Y-29964D01*
X31333Y-29964D01*
X31323Y-29954D01*
X31167Y-29890D01*
X30998Y-29889D01*
X30842Y-29954D01*
X30831Y-29964D01*
X30381Y-29964D01*
X30035Y-29618D01*
X30035Y-29544D01*
X30111Y-29576D01*
X30253Y-29576D01*
X30346Y-29638D01*
X30346Y-29638D01*
X30480Y-29664D01*
X31285Y-29664D01*
X31285Y-29718D01*
X31323Y-29810D01*
X31393Y-29881D01*
X31446Y-29903D01*
X31446Y-29903D01*
G37*
G54D34*
X31446Y-29903D02*
X31384Y-29964D01*
X31333Y-29964D01*
X31323Y-29954D01*
X31167Y-29890D01*
X30998Y-29889D01*
X30842Y-29954D01*
X30831Y-29964D01*
X30381Y-29964D01*
X30035Y-29618D01*
X30035Y-29544D01*
X30111Y-29576D01*
X30253Y-29576D01*
X30346Y-29638D01*
X30346Y-29638D01*
X30480Y-29664D01*
X31285Y-29664D01*
X31285Y-29718D01*
X31323Y-29810D01*
X31393Y-29881D01*
X31446Y-29903D01*
G54D10*
G36*
X31535Y-30815D02*
X31377Y-30972D01*
X31285Y-31194D01*
X31285Y-31434D01*
X31377Y-31656D01*
X31417Y-31697D01*
X31385Y-31697D01*
X30352Y-30664D01*
X30831Y-30664D01*
X30841Y-30675D01*
X30997Y-30739D01*
X31166Y-30740D01*
X31323Y-30675D01*
X31333Y-30664D01*
X31385Y-30664D01*
X31535Y-30815D01*
X31535Y-30815D01*
G37*
G54D34*
X31535Y-30815D02*
X31377Y-30972D01*
X31285Y-31194D01*
X31285Y-31434D01*
X31377Y-31656D01*
X31417Y-31697D01*
X31385Y-31697D01*
X30352Y-30664D01*
X30831Y-30664D01*
X30841Y-30675D01*
X30997Y-30739D01*
X31166Y-30740D01*
X31323Y-30675D01*
X31333Y-30664D01*
X31385Y-30664D01*
X31535Y-30815D01*
G54D10*
G36*
X31862Y-50417D02*
X31736Y-50417D01*
X31799Y-50354D01*
X31862Y-50417D01*
X31862Y-50417D01*
G37*
G54D34*
X31862Y-50417D02*
X31736Y-50417D01*
X31799Y-50354D01*
X31862Y-50417D01*
G54D10*
G36*
X33350Y-27575D02*
X33257Y-27536D01*
X33350Y-27536D01*
X33350Y-27575D01*
X33350Y-27575D01*
G37*
G54D34*
X33350Y-27575D02*
X33257Y-27536D01*
X33350Y-27536D01*
X33350Y-27575D01*
G54D10*
G36*
X33350Y-30575D02*
X33175Y-30502D01*
X32966Y-30502D01*
X32773Y-30582D01*
X32626Y-30729D01*
X32545Y-30922D01*
X32545Y-31131D01*
X32625Y-31324D01*
X32720Y-31420D01*
X32720Y-31606D01*
X32630Y-31697D01*
X32362Y-31697D01*
X32401Y-31657D01*
X32493Y-31435D01*
X32494Y-31195D01*
X32402Y-30973D01*
X32244Y-30814D01*
X32401Y-30657D01*
X32493Y-30435D01*
X32494Y-30195D01*
X32402Y-29973D01*
X32332Y-29903D01*
X32385Y-29881D01*
X32455Y-29811D01*
X32494Y-29719D01*
X32494Y-29619D01*
X32494Y-28911D01*
X32456Y-28819D01*
X32385Y-28748D01*
X32294Y-28710D01*
X32194Y-28710D01*
X31485Y-28710D01*
X31394Y-28748D01*
X31323Y-28818D01*
X31285Y-28910D01*
X31285Y-28964D01*
X30741Y-28964D01*
X30741Y-28947D01*
X30661Y-28754D01*
X30564Y-28657D01*
X32791Y-28657D01*
X32925Y-28630D01*
X32925Y-28630D01*
X33038Y-28554D01*
X33040Y-28552D01*
X33174Y-28552D01*
X33350Y-28479D01*
X33350Y-30575D01*
X33350Y-30575D01*
G37*
G54D34*
X33350Y-30575D02*
X33175Y-30502D01*
X32966Y-30502D01*
X32773Y-30582D01*
X32626Y-30729D01*
X32545Y-30922D01*
X32545Y-31131D01*
X32625Y-31324D01*
X32720Y-31420D01*
X32720Y-31606D01*
X32630Y-31697D01*
X32362Y-31697D01*
X32401Y-31657D01*
X32493Y-31435D01*
X32494Y-31195D01*
X32402Y-30973D01*
X32244Y-30814D01*
X32401Y-30657D01*
X32493Y-30435D01*
X32494Y-30195D01*
X32402Y-29973D01*
X32332Y-29903D01*
X32385Y-29881D01*
X32455Y-29811D01*
X32494Y-29719D01*
X32494Y-29619D01*
X32494Y-28911D01*
X32456Y-28819D01*
X32385Y-28748D01*
X32294Y-28710D01*
X32194Y-28710D01*
X31485Y-28710D01*
X31394Y-28748D01*
X31323Y-28818D01*
X31285Y-28910D01*
X31285Y-28964D01*
X30741Y-28964D01*
X30741Y-28947D01*
X30661Y-28754D01*
X30564Y-28657D01*
X32791Y-28657D01*
X32925Y-28630D01*
X32925Y-28630D01*
X33038Y-28554D01*
X33040Y-28552D01*
X33174Y-28552D01*
X33350Y-28479D01*
X33350Y-30575D01*
G54D10*
G36*
X33408Y-32656D02*
X33372Y-32745D01*
X33371Y-33001D01*
X33402Y-33074D01*
X33318Y-33019D01*
X33185Y-32992D01*
X31293Y-32992D01*
X31293Y-32968D01*
X32952Y-32968D01*
X33086Y-32941D01*
X33086Y-32941D01*
X33200Y-32865D01*
X33408Y-32656D01*
X33408Y-32656D01*
G37*
G54D34*
X33408Y-32656D02*
X33372Y-32745D01*
X33371Y-33001D01*
X33402Y-33074D01*
X33318Y-33019D01*
X33185Y-32992D01*
X31293Y-32992D01*
X31293Y-32968D01*
X32952Y-32968D01*
X33086Y-32941D01*
X33086Y-32941D01*
X33200Y-32865D01*
X33408Y-32656D01*
G54D10*
G36*
X33413Y-45563D02*
X33267Y-45708D01*
X33156Y-45596D01*
X33209Y-45575D01*
X33279Y-45504D01*
X33301Y-45451D01*
X33413Y-45563D01*
X33413Y-45563D01*
G37*
G54D34*
X33413Y-45563D02*
X33267Y-45708D01*
X33156Y-45596D01*
X33209Y-45575D01*
X33279Y-45504D01*
X33301Y-45451D01*
X33413Y-45563D01*
G54D10*
G36*
X33413Y-46563D02*
X33267Y-46708D01*
X33122Y-46562D01*
X33267Y-46417D01*
X33413Y-46563D01*
X33413Y-46563D01*
G37*
G54D34*
X33413Y-46563D02*
X33267Y-46708D01*
X33122Y-46562D01*
X33267Y-46417D01*
X33413Y-46563D01*
G54D10*
G36*
X33417Y-44558D02*
X33301Y-44674D01*
X33279Y-44621D01*
X33209Y-44551D01*
X33117Y-44513D01*
X33018Y-44512D01*
X32418Y-44512D01*
X32326Y-44550D01*
X32255Y-44621D01*
X32217Y-44713D01*
X32217Y-44812D01*
X32217Y-45118D01*
X31524Y-45811D01*
X29956Y-45811D01*
X29972Y-45773D01*
X29972Y-45643D01*
X30106Y-45670D01*
X30320Y-45627D01*
X30502Y-45506D01*
X30606Y-45350D01*
X30710Y-45506D01*
X30891Y-45627D01*
X31106Y-45670D01*
X31320Y-45627D01*
X31502Y-45506D01*
X31623Y-45324D01*
X31666Y-45110D01*
X31666Y-44802D01*
X31623Y-44588D01*
X31502Y-44406D01*
X31456Y-44376D01*
X31456Y-43153D01*
X31436Y-43053D01*
X31756Y-43373D01*
X31853Y-43437D01*
X31708Y-43497D01*
X31588Y-43617D01*
X31523Y-43773D01*
X31523Y-43942D01*
X31588Y-44098D01*
X31707Y-44218D01*
X31863Y-44283D01*
X32032Y-44283D01*
X32189Y-44218D01*
X32209Y-44198D01*
X32854Y-44198D01*
X33112Y-44198D01*
X33417Y-44503D01*
X33417Y-44558D01*
X33417Y-44558D01*
G37*
G54D34*
X33417Y-44558D02*
X33301Y-44674D01*
X33279Y-44621D01*
X33209Y-44551D01*
X33117Y-44513D01*
X33018Y-44512D01*
X32418Y-44512D01*
X32326Y-44550D01*
X32255Y-44621D01*
X32217Y-44713D01*
X32217Y-44812D01*
X32217Y-45118D01*
X31524Y-45811D01*
X29956Y-45811D01*
X29972Y-45773D01*
X29972Y-45643D01*
X30106Y-45670D01*
X30320Y-45627D01*
X30502Y-45506D01*
X30606Y-45350D01*
X30710Y-45506D01*
X30891Y-45627D01*
X31106Y-45670D01*
X31320Y-45627D01*
X31502Y-45506D01*
X31623Y-45324D01*
X31666Y-45110D01*
X31666Y-44802D01*
X31623Y-44588D01*
X31502Y-44406D01*
X31456Y-44376D01*
X31456Y-43153D01*
X31436Y-43053D01*
X31756Y-43373D01*
X31853Y-43437D01*
X31708Y-43497D01*
X31588Y-43617D01*
X31523Y-43773D01*
X31523Y-43942D01*
X31588Y-44098D01*
X31707Y-44218D01*
X31863Y-44283D01*
X32032Y-44283D01*
X32189Y-44218D01*
X32209Y-44198D01*
X32854Y-44198D01*
X33112Y-44198D01*
X33417Y-44503D01*
X33417Y-44558D01*
G54D10*
G36*
X33417Y-48055D02*
X32984Y-48488D01*
X32554Y-48488D01*
X32544Y-48478D01*
X32388Y-48413D01*
X32218Y-48413D01*
X32062Y-48478D01*
X31943Y-48597D01*
X31878Y-48753D01*
X31878Y-48876D01*
X31758Y-48827D01*
X31589Y-48826D01*
X31441Y-48887D01*
X31456Y-48814D01*
X31456Y-48537D01*
X31502Y-48506D01*
X31623Y-48324D01*
X31666Y-48110D01*
X31666Y-47802D01*
X31623Y-47588D01*
X31506Y-47412D01*
X32263Y-47412D01*
X32424Y-47575D01*
X32646Y-47667D01*
X32887Y-47667D01*
X33109Y-47575D01*
X33267Y-47417D01*
X33417Y-47567D01*
X33417Y-48055D01*
X33417Y-48055D01*
G37*
G54D34*
X33417Y-48055D02*
X32984Y-48488D01*
X32554Y-48488D01*
X32544Y-48478D01*
X32388Y-48413D01*
X32218Y-48413D01*
X32062Y-48478D01*
X31943Y-48597D01*
X31878Y-48753D01*
X31878Y-48876D01*
X31758Y-48827D01*
X31589Y-48826D01*
X31441Y-48887D01*
X31456Y-48814D01*
X31456Y-48537D01*
X31502Y-48506D01*
X31623Y-48324D01*
X31666Y-48110D01*
X31666Y-47802D01*
X31623Y-47588D01*
X31506Y-47412D01*
X32263Y-47412D01*
X32424Y-47575D01*
X32646Y-47667D01*
X32887Y-47667D01*
X33109Y-47575D01*
X33267Y-47417D01*
X33417Y-47567D01*
X33417Y-48055D01*
G54D10*
G36*
X33632Y-50300D02*
X33608Y-50359D01*
X33608Y-50458D01*
X33608Y-50650D01*
X33409Y-50650D01*
X33275Y-50676D01*
X33161Y-50752D01*
X33000Y-50913D01*
X32924Y-51027D01*
X32898Y-51161D01*
X32898Y-54196D01*
X31896Y-54196D01*
X31885Y-54169D01*
X31814Y-54098D01*
X31722Y-54060D01*
X31623Y-54060D01*
X31412Y-54060D01*
X31412Y-52902D01*
X31494Y-52902D01*
X31730Y-52902D01*
X31813Y-52868D01*
X31895Y-52902D01*
X31994Y-52902D01*
X32230Y-52902D01*
X32322Y-52864D01*
X32392Y-52794D01*
X32430Y-52702D01*
X32431Y-52602D01*
X32431Y-52090D01*
X32412Y-52047D01*
X32412Y-50842D01*
X32386Y-50708D01*
X32316Y-50604D01*
X32418Y-50604D01*
X32641Y-50512D01*
X32804Y-50350D01*
X33464Y-50350D01*
X33598Y-50323D01*
X33598Y-50323D01*
X33632Y-50300D01*
X33632Y-50300D01*
G37*
G54D34*
X33632Y-50300D02*
X33608Y-50359D01*
X33608Y-50458D01*
X33608Y-50650D01*
X33409Y-50650D01*
X33275Y-50676D01*
X33161Y-50752D01*
X33000Y-50913D01*
X32924Y-51027D01*
X32898Y-51161D01*
X32898Y-54196D01*
X31896Y-54196D01*
X31885Y-54169D01*
X31814Y-54098D01*
X31722Y-54060D01*
X31623Y-54060D01*
X31412Y-54060D01*
X31412Y-52902D01*
X31494Y-52902D01*
X31730Y-52902D01*
X31813Y-52868D01*
X31895Y-52902D01*
X31994Y-52902D01*
X32230Y-52902D01*
X32322Y-52864D01*
X32392Y-52794D01*
X32430Y-52702D01*
X32431Y-52602D01*
X32431Y-52090D01*
X32412Y-52047D01*
X32412Y-50842D01*
X32386Y-50708D01*
X32316Y-50604D01*
X32418Y-50604D01*
X32641Y-50512D01*
X32804Y-50350D01*
X33464Y-50350D01*
X33598Y-50323D01*
X33598Y-50323D01*
X33632Y-50300D01*
G54D10*
G36*
X33665Y-49304D02*
X33319Y-49650D01*
X32803Y-49650D01*
X32641Y-49487D01*
X32419Y-49395D01*
X32179Y-49395D01*
X32051Y-49448D01*
X32098Y-49336D01*
X32098Y-49213D01*
X32218Y-49263D01*
X32387Y-49263D01*
X32543Y-49199D01*
X32554Y-49188D01*
X33129Y-49188D01*
X33263Y-49161D01*
X33263Y-49161D01*
X33377Y-49086D01*
X33608Y-48855D01*
X33608Y-49166D01*
X33665Y-49304D01*
X33665Y-49304D01*
G37*
G54D34*
X33665Y-49304D02*
X33319Y-49650D01*
X32803Y-49650D01*
X32641Y-49487D01*
X32419Y-49395D01*
X32179Y-49395D01*
X32051Y-49448D01*
X32098Y-49336D01*
X32098Y-49213D01*
X32218Y-49263D01*
X32387Y-49263D01*
X32543Y-49199D01*
X32554Y-49188D01*
X33129Y-49188D01*
X33263Y-49161D01*
X33263Y-49161D01*
X33377Y-49086D01*
X33608Y-48855D01*
X33608Y-49166D01*
X33665Y-49304D01*
G54D10*
G36*
X33698Y-43475D02*
X33596Y-43577D01*
X33563Y-43658D01*
X33505Y-43600D01*
X33495Y-43591D01*
X33381Y-43515D01*
X33248Y-43488D01*
X33198Y-43498D01*
X33009Y-43498D01*
X33032Y-43475D01*
X33698Y-43475D01*
X33698Y-43475D01*
G37*
G54D34*
X33698Y-43475D02*
X33596Y-43577D01*
X33563Y-43658D01*
X33505Y-43600D01*
X33495Y-43591D01*
X33381Y-43515D01*
X33248Y-43488D01*
X33198Y-43498D01*
X33009Y-43498D01*
X33032Y-43475D01*
X33698Y-43475D01*
G54D10*
G36*
X34355Y-47412D02*
X34201Y-47567D01*
X34125Y-47681D01*
X34117Y-47719D01*
X34117Y-47567D01*
X34272Y-47412D01*
X34355Y-47412D01*
X34355Y-47412D01*
G37*
G54D34*
X34355Y-47412D02*
X34201Y-47567D01*
X34125Y-47681D01*
X34117Y-47719D01*
X34117Y-47567D01*
X34272Y-47412D01*
X34355Y-47412D01*
G54D10*
G36*
X34413Y-31981D02*
X34158Y-32236D01*
X34144Y-32230D01*
X33888Y-32230D01*
X33798Y-32267D01*
X33948Y-32117D01*
X33948Y-32117D01*
X33948Y-32117D01*
X34024Y-32004D01*
X34050Y-31870D01*
X34050Y-31870D01*
X34050Y-31870D01*
X34050Y-31413D01*
X34088Y-31428D01*
X34103Y-31428D01*
X34413Y-31739D01*
X34413Y-31981D01*
X34413Y-31981D01*
G37*
G54D34*
X34413Y-31981D02*
X34158Y-32236D01*
X34144Y-32230D01*
X33888Y-32230D01*
X33798Y-32267D01*
X33948Y-32117D01*
X33948Y-32117D01*
X33948Y-32117D01*
X34024Y-32004D01*
X34050Y-31870D01*
X34050Y-31870D01*
X34050Y-31870D01*
X34050Y-31413D01*
X34088Y-31428D01*
X34103Y-31428D01*
X34413Y-31739D01*
X34413Y-31981D01*
G54D10*
G36*
X34804Y-46412D02*
X34504Y-46712D01*
X34272Y-46712D01*
X34122Y-46562D01*
X34272Y-46412D01*
X34804Y-46412D01*
X34804Y-46412D01*
G37*
G54D34*
X34804Y-46412D02*
X34504Y-46712D01*
X34272Y-46712D01*
X34122Y-46562D01*
X34272Y-46412D01*
X34804Y-46412D01*
G54D10*
G36*
X35009Y-26596D02*
X34947Y-26657D01*
X34625Y-26657D01*
X34492Y-26684D01*
X34378Y-26760D01*
X33977Y-27161D01*
X33948Y-27118D01*
X33871Y-27041D01*
X33871Y-26907D01*
X33857Y-26873D01*
X34373Y-26357D01*
X34848Y-26357D01*
X34848Y-26411D01*
X34886Y-26503D01*
X34956Y-26574D01*
X35009Y-26596D01*
X35009Y-26596D01*
G37*
G54D34*
X35009Y-26596D02*
X34947Y-26657D01*
X34625Y-26657D01*
X34492Y-26684D01*
X34378Y-26760D01*
X33977Y-27161D01*
X33948Y-27118D01*
X33871Y-27041D01*
X33871Y-26907D01*
X33857Y-26873D01*
X34373Y-26357D01*
X34848Y-26357D01*
X34848Y-26411D01*
X34886Y-26503D01*
X34956Y-26574D01*
X35009Y-26596D01*
G54D10*
G36*
X35083Y-31454D02*
X35011Y-31347D01*
X34598Y-30934D01*
X34598Y-30919D01*
X34533Y-30763D01*
X34414Y-30643D01*
X34258Y-30579D01*
X34089Y-30578D01*
X34050Y-30594D01*
X34050Y-29486D01*
X34232Y-29668D01*
X34346Y-29744D01*
X34480Y-29771D01*
X34928Y-29771D01*
X34990Y-29833D01*
X34937Y-29854D01*
X34866Y-29925D01*
X34828Y-30016D01*
X34828Y-30116D01*
X34828Y-30825D01*
X34866Y-30917D01*
X34936Y-30987D01*
X35028Y-31025D01*
X35083Y-31025D01*
X35083Y-31454D01*
X35083Y-31454D01*
G37*
G54D34*
X35083Y-31454D02*
X35011Y-31347D01*
X34598Y-30934D01*
X34598Y-30919D01*
X34533Y-30763D01*
X34414Y-30643D01*
X34258Y-30579D01*
X34089Y-30578D01*
X34050Y-30594D01*
X34050Y-29486D01*
X34232Y-29668D01*
X34346Y-29744D01*
X34480Y-29771D01*
X34928Y-29771D01*
X34990Y-29833D01*
X34937Y-29854D01*
X34866Y-29925D01*
X34828Y-30016D01*
X34828Y-30116D01*
X34828Y-30825D01*
X34866Y-30917D01*
X34936Y-30987D01*
X35028Y-31025D01*
X35083Y-31025D01*
X35083Y-31454D01*
G54D10*
G36*
X35098Y-27508D02*
X34940Y-27665D01*
X34848Y-27887D01*
X34848Y-28062D01*
X34615Y-28295D01*
X34600Y-28295D01*
X34503Y-28335D01*
X34503Y-27625D01*
X34770Y-27357D01*
X34948Y-27357D01*
X35098Y-27508D01*
X35098Y-27508D01*
G37*
G54D34*
X35098Y-27508D02*
X34940Y-27665D01*
X34848Y-27887D01*
X34848Y-28062D01*
X34615Y-28295D01*
X34600Y-28295D01*
X34503Y-28335D01*
X34503Y-27625D01*
X34770Y-27357D01*
X34948Y-27357D01*
X35098Y-27508D01*
G54D10*
G36*
X35156Y-44634D02*
X35014Y-44633D01*
X34857Y-44698D01*
X34843Y-44712D01*
X34272Y-44712D01*
X34117Y-44558D01*
X34117Y-44358D01*
X34091Y-44224D01*
X34090Y-44223D01*
X34197Y-44179D01*
X34207Y-44168D01*
X34953Y-44168D01*
X35156Y-44372D01*
X35156Y-44634D01*
X35156Y-44634D01*
G37*
G54D34*
X35156Y-44634D02*
X35014Y-44633D01*
X34857Y-44698D01*
X34843Y-44712D01*
X34272Y-44712D01*
X34117Y-44558D01*
X34117Y-44358D01*
X34091Y-44224D01*
X34090Y-44223D01*
X34197Y-44179D01*
X34207Y-44168D01*
X34953Y-44168D01*
X35156Y-44372D01*
X35156Y-44634D01*
G54D10*
G36*
X35156Y-45686D02*
X35130Y-45712D01*
X34272Y-45712D01*
X34122Y-45562D01*
X34272Y-45412D01*
X34851Y-45412D01*
X34857Y-45419D01*
X35013Y-45483D01*
X35156Y-45484D01*
X35156Y-45686D01*
X35156Y-45686D01*
G37*
G54D34*
X35156Y-45686D02*
X35130Y-45712D01*
X34272Y-45712D01*
X34122Y-45562D01*
X34272Y-45412D01*
X34851Y-45412D01*
X34857Y-45419D01*
X35013Y-45483D01*
X35156Y-45484D01*
X35156Y-45686D01*
G54D10*
G36*
X35476Y-47153D02*
X35329Y-47153D01*
X35172Y-47218D01*
X35162Y-47228D01*
X34978Y-47228D01*
X35361Y-46846D01*
X35476Y-46846D01*
X35476Y-47153D01*
X35476Y-47153D01*
G37*
G54D34*
X35476Y-47153D02*
X35329Y-47153D01*
X35172Y-47218D01*
X35162Y-47228D01*
X34978Y-47228D01*
X35361Y-46846D01*
X35476Y-46846D01*
X35476Y-47153D01*
G54D10*
G36*
X35476Y-50563D02*
X35390Y-50650D01*
X35289Y-50650D01*
X35289Y-50359D01*
X35251Y-50268D01*
X35181Y-50197D01*
X35089Y-50159D01*
X34989Y-50159D01*
X33808Y-50159D01*
X33794Y-50165D01*
X34166Y-49792D01*
X34280Y-49840D01*
X34615Y-49840D01*
X34924Y-49713D01*
X35160Y-49476D01*
X35289Y-49167D01*
X35289Y-48833D01*
X35161Y-48524D01*
X34925Y-48287D01*
X34798Y-48235D01*
X34798Y-47959D01*
X34830Y-47928D01*
X35162Y-47928D01*
X35172Y-47938D01*
X35328Y-48003D01*
X35476Y-48003D01*
X35476Y-50563D01*
X35476Y-50563D01*
G37*
G54D34*
X35476Y-50563D02*
X35390Y-50650D01*
X35289Y-50650D01*
X35289Y-50359D01*
X35251Y-50268D01*
X35181Y-50197D01*
X35089Y-50159D01*
X34989Y-50159D01*
X33808Y-50159D01*
X33794Y-50165D01*
X34166Y-49792D01*
X34280Y-49840D01*
X34615Y-49840D01*
X34924Y-49713D01*
X35160Y-49476D01*
X35289Y-49167D01*
X35289Y-48833D01*
X35161Y-48524D01*
X34925Y-48287D01*
X34798Y-48235D01*
X34798Y-47959D01*
X34830Y-47928D01*
X35162Y-47928D01*
X35172Y-47938D01*
X35328Y-48003D01*
X35476Y-48003D01*
X35476Y-50563D01*
G54D10*
G36*
X35895Y-25419D02*
X35857Y-25403D01*
X35757Y-25403D01*
X35048Y-25403D01*
X34956Y-25441D01*
X34886Y-25511D01*
X34848Y-25603D01*
X34848Y-25657D01*
X34228Y-25657D01*
X34094Y-25684D01*
X33980Y-25760D01*
X33254Y-26486D01*
X33242Y-26486D01*
X33049Y-26566D01*
X32901Y-26714D01*
X32821Y-26906D01*
X32821Y-27115D01*
X32901Y-27308D01*
X33048Y-27456D01*
X33159Y-27502D01*
X32966Y-27502D01*
X32773Y-27582D01*
X32626Y-27729D01*
X32545Y-27922D01*
X32545Y-27957D01*
X29939Y-27957D01*
X30011Y-27885D01*
X30087Y-27771D01*
X30113Y-27637D01*
X30113Y-27395D01*
X30214Y-27495D01*
X30406Y-27576D01*
X30615Y-27576D01*
X30808Y-27496D01*
X30956Y-27348D01*
X31036Y-27156D01*
X31036Y-26947D01*
X30957Y-26754D01*
X30809Y-26606D01*
X30616Y-26526D01*
X30407Y-26526D01*
X30214Y-26605D01*
X30113Y-26706D01*
X30113Y-26212D01*
X30151Y-26303D01*
X30270Y-26423D01*
X30426Y-26487D01*
X30595Y-26488D01*
X30752Y-26423D01*
X30871Y-26304D01*
X30936Y-26147D01*
X30936Y-26133D01*
X31089Y-25979D01*
X31188Y-25979D01*
X31338Y-26130D01*
X31180Y-26287D01*
X31088Y-26509D01*
X31088Y-26749D01*
X31180Y-26971D01*
X31350Y-27141D01*
X31572Y-27234D01*
X31812Y-27234D01*
X32034Y-27142D01*
X32204Y-26972D01*
X32297Y-26750D01*
X32297Y-26510D01*
X32205Y-26288D01*
X32047Y-26129D01*
X32204Y-25972D01*
X32297Y-25750D01*
X32297Y-25510D01*
X32205Y-25288D01*
X32135Y-25218D01*
X32188Y-25196D01*
X32259Y-25126D01*
X32297Y-25034D01*
X32297Y-24934D01*
X32297Y-24520D01*
X32455Y-24361D01*
X32954Y-24361D01*
X33048Y-24456D01*
X33241Y-24536D01*
X33450Y-24536D01*
X33643Y-24457D01*
X33791Y-24309D01*
X33871Y-24116D01*
X33871Y-23907D01*
X33791Y-23714D01*
X33644Y-23566D01*
X33451Y-23486D01*
X33242Y-23486D01*
X33049Y-23566D01*
X32953Y-23661D01*
X32311Y-23661D01*
X32177Y-23688D01*
X32063Y-23764D01*
X31802Y-24025D01*
X31289Y-24025D01*
X31197Y-24063D01*
X31126Y-24133D01*
X31088Y-24225D01*
X31088Y-24325D01*
X31088Y-25033D01*
X31126Y-25125D01*
X31196Y-25196D01*
X31249Y-25218D01*
X31188Y-25279D01*
X30944Y-25279D01*
X30810Y-25306D01*
X30697Y-25382D01*
X30697Y-25382D01*
X30697Y-25382D01*
X30441Y-25637D01*
X30427Y-25637D01*
X30271Y-25702D01*
X30151Y-25821D01*
X30113Y-25913D01*
X30113Y-24944D01*
X30481Y-24576D01*
X30615Y-24576D01*
X30808Y-24496D01*
X30956Y-24348D01*
X31036Y-24156D01*
X31036Y-23947D01*
X30957Y-23754D01*
X30809Y-23606D01*
X30616Y-23526D01*
X30407Y-23526D01*
X30214Y-23605D01*
X30066Y-23753D01*
X29986Y-23946D01*
X29986Y-24081D01*
X29655Y-24412D01*
X29655Y-23622D01*
X29630Y-23497D01*
X29560Y-23392D01*
X29455Y-23321D01*
X29330Y-23297D01*
X20669Y-23297D01*
X20544Y-23321D01*
X20439Y-23392D01*
X20369Y-23497D01*
X20344Y-23622D01*
X20344Y-26010D01*
X19873Y-25539D01*
X19759Y-25464D01*
X19625Y-25437D01*
X18543Y-25437D01*
X18409Y-25464D01*
X18295Y-25539D01*
X17890Y-25945D01*
X14579Y-25945D01*
X14429Y-25795D01*
X14579Y-25645D01*
X14793Y-25645D01*
X14796Y-25653D01*
X14916Y-25773D01*
X15072Y-25838D01*
X15241Y-25838D01*
X15397Y-25773D01*
X15517Y-25654D01*
X15582Y-25498D01*
X15582Y-25329D01*
X15517Y-25172D01*
X15398Y-25053D01*
X15242Y-24988D01*
X15198Y-24988D01*
X15198Y-24988D01*
X15173Y-24971D01*
X15039Y-24945D01*
X14579Y-24945D01*
X14517Y-24883D01*
X14570Y-24861D01*
X14640Y-24791D01*
X14679Y-24699D01*
X14679Y-24600D01*
X14679Y-23891D01*
X14641Y-23799D01*
X14570Y-23729D01*
X14479Y-23690D01*
X14379Y-23690D01*
X13670Y-23690D01*
X13579Y-23728D01*
X13508Y-23799D01*
X13474Y-23881D01*
X13418Y-23825D01*
X13418Y-23691D01*
X13339Y-23498D01*
X13191Y-23350D01*
X12998Y-23270D01*
X12789Y-23270D01*
X12596Y-23349D01*
X12448Y-23497D01*
X12368Y-23690D01*
X12368Y-23899D01*
X12448Y-24092D01*
X12595Y-24240D01*
X12788Y-24320D01*
X12923Y-24320D01*
X13146Y-24542D01*
X13259Y-24618D01*
X13259Y-24618D01*
X13393Y-24645D01*
X13470Y-24645D01*
X13470Y-24699D01*
X13508Y-24791D01*
X13578Y-24861D01*
X13631Y-24883D01*
X13562Y-24952D01*
X13470Y-25174D01*
X13470Y-25414D01*
X13562Y-25637D01*
X13720Y-25795D01*
X13562Y-25952D01*
X13470Y-26174D01*
X13470Y-26414D01*
X13562Y-26637D01*
X13732Y-26807D01*
X13954Y-26899D01*
X14194Y-26899D01*
X14416Y-26807D01*
X14579Y-26645D01*
X14788Y-26645D01*
X14421Y-27012D01*
X13372Y-27012D01*
X13418Y-26900D01*
X13418Y-26691D01*
X13339Y-26498D01*
X13191Y-26350D01*
X12998Y-26270D01*
X12789Y-26270D01*
X12596Y-26349D01*
X12448Y-26497D01*
X12368Y-26690D01*
X12368Y-26899D01*
X12448Y-27092D01*
X12543Y-27187D01*
X12543Y-27814D01*
X12543Y-28028D01*
X12501Y-28071D01*
X12307Y-28071D01*
X12173Y-28097D01*
X12059Y-28173D01*
X12059Y-28173D01*
X11661Y-28571D01*
X11586Y-28684D01*
X11559Y-28818D01*
X11559Y-33941D01*
X11549Y-33951D01*
X11484Y-34108D01*
X11484Y-34277D01*
X11548Y-34433D01*
X11668Y-34553D01*
X11824Y-34617D01*
X11993Y-34617D01*
X12026Y-34604D01*
X10954Y-35676D01*
X10954Y-22765D01*
X17544Y-22765D01*
X17525Y-22812D01*
X17525Y-22911D01*
X17525Y-23581D01*
X17563Y-23672D01*
X17633Y-23743D01*
X17725Y-23781D01*
X17825Y-23781D01*
X18494Y-23781D01*
X18586Y-23743D01*
X18620Y-23709D01*
X18688Y-23875D01*
X18783Y-23971D01*
X18783Y-24421D01*
X18638Y-24567D01*
X16534Y-24567D01*
X16439Y-24472D01*
X16246Y-24392D01*
X16037Y-24392D01*
X15844Y-24471D01*
X15696Y-24619D01*
X15616Y-24812D01*
X15616Y-25021D01*
X15696Y-25214D01*
X15843Y-25362D01*
X16036Y-25442D01*
X16245Y-25442D01*
X16438Y-25362D01*
X16534Y-25267D01*
X18783Y-25267D01*
X18917Y-25240D01*
X18917Y-25240D01*
X19030Y-25164D01*
X19381Y-24814D01*
X19457Y-24700D01*
X19457Y-24700D01*
X19483Y-24566D01*
X19483Y-23971D01*
X19578Y-23876D01*
X19658Y-23683D01*
X19658Y-23474D01*
X19604Y-23342D01*
X19886Y-23342D01*
X19896Y-23352D01*
X20052Y-23417D01*
X20221Y-23417D01*
X20378Y-23352D01*
X20497Y-23233D01*
X20562Y-23077D01*
X20562Y-22907D01*
X20504Y-22765D01*
X35895Y-22765D01*
X35895Y-25419D01*
X35895Y-25419D01*
G37*
G54D34*
X35895Y-25419D02*
X35857Y-25403D01*
X35757Y-25403D01*
X35048Y-25403D01*
X34956Y-25441D01*
X34886Y-25511D01*
X34848Y-25603D01*
X34848Y-25657D01*
X34228Y-25657D01*
X34094Y-25684D01*
X33980Y-25760D01*
X33254Y-26486D01*
X33242Y-26486D01*
X33049Y-26566D01*
X32901Y-26714D01*
X32821Y-26906D01*
X32821Y-27115D01*
X32901Y-27308D01*
X33048Y-27456D01*
X33159Y-27502D01*
X32966Y-27502D01*
X32773Y-27582D01*
X32626Y-27729D01*
X32545Y-27922D01*
X32545Y-27957D01*
X29939Y-27957D01*
X30011Y-27885D01*
X30087Y-27771D01*
X30113Y-27637D01*
X30113Y-27395D01*
X30214Y-27495D01*
X30406Y-27576D01*
X30615Y-27576D01*
X30808Y-27496D01*
X30956Y-27348D01*
X31036Y-27156D01*
X31036Y-26947D01*
X30957Y-26754D01*
X30809Y-26606D01*
X30616Y-26526D01*
X30407Y-26526D01*
X30214Y-26605D01*
X30113Y-26706D01*
X30113Y-26212D01*
X30151Y-26303D01*
X30270Y-26423D01*
X30426Y-26487D01*
X30595Y-26488D01*
X30752Y-26423D01*
X30871Y-26304D01*
X30936Y-26147D01*
X30936Y-26133D01*
X31089Y-25979D01*
X31188Y-25979D01*
X31338Y-26130D01*
X31180Y-26287D01*
X31088Y-26509D01*
X31088Y-26749D01*
X31180Y-26971D01*
X31350Y-27141D01*
X31572Y-27234D01*
X31812Y-27234D01*
X32034Y-27142D01*
X32204Y-26972D01*
X32297Y-26750D01*
X32297Y-26510D01*
X32205Y-26288D01*
X32047Y-26129D01*
X32204Y-25972D01*
X32297Y-25750D01*
X32297Y-25510D01*
X32205Y-25288D01*
X32135Y-25218D01*
X32188Y-25196D01*
X32259Y-25126D01*
X32297Y-25034D01*
X32297Y-24934D01*
X32297Y-24520D01*
X32455Y-24361D01*
X32954Y-24361D01*
X33048Y-24456D01*
X33241Y-24536D01*
X33450Y-24536D01*
X33643Y-24457D01*
X33791Y-24309D01*
X33871Y-24116D01*
X33871Y-23907D01*
X33791Y-23714D01*
X33644Y-23566D01*
X33451Y-23486D01*
X33242Y-23486D01*
X33049Y-23566D01*
X32953Y-23661D01*
X32311Y-23661D01*
X32177Y-23688D01*
X32063Y-23764D01*
X31802Y-24025D01*
X31289Y-24025D01*
X31197Y-24063D01*
X31126Y-24133D01*
X31088Y-24225D01*
X31088Y-24325D01*
X31088Y-25033D01*
X31126Y-25125D01*
X31196Y-25196D01*
X31249Y-25218D01*
X31188Y-25279D01*
X30944Y-25279D01*
X30810Y-25306D01*
X30697Y-25382D01*
X30697Y-25382D01*
X30697Y-25382D01*
X30441Y-25637D01*
X30427Y-25637D01*
X30271Y-25702D01*
X30151Y-25821D01*
X30113Y-25913D01*
X30113Y-24944D01*
X30481Y-24576D01*
X30615Y-24576D01*
X30808Y-24496D01*
X30956Y-24348D01*
X31036Y-24156D01*
X31036Y-23947D01*
X30957Y-23754D01*
X30809Y-23606D01*
X30616Y-23526D01*
X30407Y-23526D01*
X30214Y-23605D01*
X30066Y-23753D01*
X29986Y-23946D01*
X29986Y-24081D01*
X29655Y-24412D01*
X29655Y-23622D01*
X29630Y-23497D01*
X29560Y-23392D01*
X29455Y-23321D01*
X29330Y-23297D01*
X20669Y-23297D01*
X20544Y-23321D01*
X20439Y-23392D01*
X20369Y-23497D01*
X20344Y-23622D01*
X20344Y-26010D01*
X19873Y-25539D01*
X19759Y-25464D01*
X19625Y-25437D01*
X18543Y-25437D01*
X18409Y-25464D01*
X18295Y-25539D01*
X17890Y-25945D01*
X14579Y-25945D01*
X14429Y-25795D01*
X14579Y-25645D01*
X14793Y-25645D01*
X14796Y-25653D01*
X14916Y-25773D01*
X15072Y-25838D01*
X15241Y-25838D01*
X15397Y-25773D01*
X15517Y-25654D01*
X15582Y-25498D01*
X15582Y-25329D01*
X15517Y-25172D01*
X15398Y-25053D01*
X15242Y-24988D01*
X15198Y-24988D01*
X15198Y-24988D01*
X15173Y-24971D01*
X15039Y-24945D01*
X14579Y-24945D01*
X14517Y-24883D01*
X14570Y-24861D01*
X14640Y-24791D01*
X14679Y-24699D01*
X14679Y-24600D01*
X14679Y-23891D01*
X14641Y-23799D01*
X14570Y-23729D01*
X14479Y-23690D01*
X14379Y-23690D01*
X13670Y-23690D01*
X13579Y-23728D01*
X13508Y-23799D01*
X13474Y-23881D01*
X13418Y-23825D01*
X13418Y-23691D01*
X13339Y-23498D01*
X13191Y-23350D01*
X12998Y-23270D01*
X12789Y-23270D01*
X12596Y-23349D01*
X12448Y-23497D01*
X12368Y-23690D01*
X12368Y-23899D01*
X12448Y-24092D01*
X12595Y-24240D01*
X12788Y-24320D01*
X12923Y-24320D01*
X13146Y-24542D01*
X13259Y-24618D01*
X13259Y-24618D01*
X13393Y-24645D01*
X13470Y-24645D01*
X13470Y-24699D01*
X13508Y-24791D01*
X13578Y-24861D01*
X13631Y-24883D01*
X13562Y-24952D01*
X13470Y-25174D01*
X13470Y-25414D01*
X13562Y-25637D01*
X13720Y-25795D01*
X13562Y-25952D01*
X13470Y-26174D01*
X13470Y-26414D01*
X13562Y-26637D01*
X13732Y-26807D01*
X13954Y-26899D01*
X14194Y-26899D01*
X14416Y-26807D01*
X14579Y-26645D01*
X14788Y-26645D01*
X14421Y-27012D01*
X13372Y-27012D01*
X13418Y-26900D01*
X13418Y-26691D01*
X13339Y-26498D01*
X13191Y-26350D01*
X12998Y-26270D01*
X12789Y-26270D01*
X12596Y-26349D01*
X12448Y-26497D01*
X12368Y-26690D01*
X12368Y-26899D01*
X12448Y-27092D01*
X12543Y-27187D01*
X12543Y-27814D01*
X12543Y-28028D01*
X12501Y-28071D01*
X12307Y-28071D01*
X12173Y-28097D01*
X12059Y-28173D01*
X12059Y-28173D01*
X11661Y-28571D01*
X11586Y-28684D01*
X11559Y-28818D01*
X11559Y-33941D01*
X11549Y-33951D01*
X11484Y-34108D01*
X11484Y-34277D01*
X11548Y-34433D01*
X11668Y-34553D01*
X11824Y-34617D01*
X11993Y-34617D01*
X12026Y-34604D01*
X10954Y-35676D01*
X10954Y-22765D01*
X17544Y-22765D01*
X17525Y-22812D01*
X17525Y-22911D01*
X17525Y-23581D01*
X17563Y-23672D01*
X17633Y-23743D01*
X17725Y-23781D01*
X17825Y-23781D01*
X18494Y-23781D01*
X18586Y-23743D01*
X18620Y-23709D01*
X18688Y-23875D01*
X18783Y-23971D01*
X18783Y-24421D01*
X18638Y-24567D01*
X16534Y-24567D01*
X16439Y-24472D01*
X16246Y-24392D01*
X16037Y-24392D01*
X15844Y-24471D01*
X15696Y-24619D01*
X15616Y-24812D01*
X15616Y-25021D01*
X15696Y-25214D01*
X15843Y-25362D01*
X16036Y-25442D01*
X16245Y-25442D01*
X16438Y-25362D01*
X16534Y-25267D01*
X18783Y-25267D01*
X18917Y-25240D01*
X18917Y-25240D01*
X19030Y-25164D01*
X19381Y-24814D01*
X19457Y-24700D01*
X19457Y-24700D01*
X19483Y-24566D01*
X19483Y-23971D01*
X19578Y-23876D01*
X19658Y-23683D01*
X19658Y-23474D01*
X19604Y-23342D01*
X19886Y-23342D01*
X19896Y-23352D01*
X20052Y-23417D01*
X20221Y-23417D01*
X20378Y-23352D01*
X20497Y-23233D01*
X20562Y-23077D01*
X20562Y-22907D01*
X20504Y-22765D01*
X35895Y-22765D01*
X35895Y-25419D01*
G54D10*
G36*
X35895Y-27595D02*
X35807Y-27507D01*
X35895Y-27419D01*
X35895Y-27595D01*
X35895Y-27595D01*
G37*
G54D34*
X35895Y-27595D02*
X35807Y-27507D01*
X35895Y-27419D01*
X35895Y-27595D01*
G54D10*
G36*
X35895Y-29029D02*
X35775Y-28909D01*
X35553Y-28817D01*
X35313Y-28816D01*
X35091Y-28908D01*
X35050Y-28949D01*
X35109Y-28805D01*
X35109Y-28790D01*
X35301Y-28599D01*
X35332Y-28612D01*
X35572Y-28612D01*
X35794Y-28520D01*
X35895Y-28419D01*
X35895Y-29029D01*
X35895Y-29029D01*
G37*
G54D34*
X35895Y-29029D02*
X35775Y-28909D01*
X35553Y-28817D01*
X35313Y-28816D01*
X35091Y-28908D01*
X35050Y-28949D01*
X35109Y-28805D01*
X35109Y-28790D01*
X35301Y-28599D01*
X35332Y-28612D01*
X35572Y-28612D01*
X35794Y-28520D01*
X35895Y-28419D01*
X35895Y-29029D01*
G54D10*
G36*
X35895Y-29841D02*
X35875Y-29833D01*
X35895Y-29813D01*
X35895Y-29841D01*
X35895Y-29841D01*
G37*
G54D34*
X35895Y-29841D02*
X35875Y-29833D01*
X35895Y-29813D01*
X35895Y-29841D01*
G54D10*
G36*
X35895Y-40639D02*
X35886Y-40630D01*
X35671Y-40541D01*
X35439Y-40541D01*
X35224Y-40630D01*
X35078Y-40775D01*
X34392Y-40775D01*
X34492Y-40734D01*
X34612Y-40615D01*
X34676Y-40458D01*
X34677Y-40289D01*
X34612Y-40133D01*
X34601Y-40123D01*
X34601Y-39832D01*
X34892Y-39832D01*
X34983Y-39794D01*
X35054Y-39724D01*
X35092Y-39632D01*
X35092Y-39533D01*
X35092Y-38352D01*
X35054Y-38260D01*
X34984Y-38189D01*
X34892Y-38151D01*
X34793Y-38151D01*
X33611Y-38151D01*
X33519Y-38189D01*
X33449Y-38259D01*
X33411Y-38351D01*
X33411Y-38451D01*
X33411Y-39632D01*
X33449Y-39724D01*
X33519Y-39794D01*
X33611Y-39832D01*
X33710Y-39832D01*
X33901Y-39832D01*
X33901Y-40122D01*
X33891Y-40132D01*
X33827Y-40289D01*
X33826Y-40458D01*
X33891Y-40614D01*
X34010Y-40734D01*
X34111Y-40775D01*
X33031Y-40775D01*
X32886Y-40630D01*
X32671Y-40541D01*
X32448Y-40541D01*
X32385Y-40499D01*
X32251Y-40472D01*
X32103Y-40472D01*
X32117Y-40439D01*
X32117Y-40270D01*
X32053Y-40113D01*
X32042Y-40103D01*
X32042Y-35728D01*
X32042Y-35216D01*
X32016Y-35082D01*
X31940Y-34969D01*
X31467Y-34496D01*
X31354Y-34420D01*
X31220Y-34394D01*
X25216Y-34394D01*
X25082Y-34420D01*
X24969Y-34496D01*
X24298Y-35167D01*
X24297Y-35167D01*
X24061Y-35265D01*
X23925Y-35400D01*
X23790Y-35265D01*
X23775Y-35259D01*
X23775Y-34822D01*
X24154Y-34442D01*
X24359Y-34443D01*
X24574Y-34354D01*
X24739Y-34189D01*
X24828Y-33975D01*
X24828Y-33742D01*
X24760Y-33578D01*
X29139Y-33578D01*
X29139Y-33726D01*
X29177Y-33818D01*
X29247Y-33888D01*
X29339Y-33927D01*
X29439Y-33927D01*
X30108Y-33927D01*
X30200Y-33889D01*
X30216Y-33873D01*
X30232Y-33888D01*
X30324Y-33927D01*
X30423Y-33927D01*
X31092Y-33927D01*
X31184Y-33889D01*
X31255Y-33818D01*
X31293Y-33727D01*
X31293Y-33692D01*
X33040Y-33692D01*
X33901Y-34554D01*
X33901Y-36227D01*
X33776Y-36279D01*
X33539Y-36515D01*
X33411Y-36824D01*
X33411Y-37158D01*
X33538Y-37467D01*
X33775Y-37704D01*
X34084Y-37832D01*
X34418Y-37832D01*
X34727Y-37705D01*
X34964Y-37468D01*
X35092Y-37160D01*
X35092Y-36825D01*
X34964Y-36516D01*
X34728Y-36279D01*
X34601Y-36227D01*
X34601Y-34409D01*
X34601Y-34409D01*
X34601Y-34409D01*
X34575Y-34275D01*
X34499Y-34161D01*
X34499Y-34161D01*
X33832Y-33494D01*
X33887Y-33517D01*
X34143Y-33517D01*
X34255Y-33471D01*
X34362Y-33577D01*
X34356Y-33591D01*
X34356Y-33847D01*
X34453Y-34084D01*
X34634Y-34265D01*
X34871Y-34364D01*
X35127Y-34364D01*
X35364Y-34266D01*
X35545Y-34085D01*
X35643Y-33849D01*
X35643Y-33592D01*
X35546Y-33356D01*
X35365Y-33175D01*
X35128Y-33076D01*
X34872Y-33076D01*
X34857Y-33082D01*
X34659Y-32884D01*
X34659Y-32746D01*
X34653Y-32731D01*
X35011Y-32373D01*
X35011Y-32373D01*
X35011Y-32373D01*
X35087Y-32259D01*
X35106Y-32163D01*
X35192Y-32249D01*
X35348Y-32314D01*
X35517Y-32314D01*
X35673Y-32250D01*
X35793Y-32130D01*
X35857Y-31974D01*
X35858Y-31805D01*
X35793Y-31649D01*
X35783Y-31638D01*
X35783Y-31025D01*
X35836Y-31025D01*
X35895Y-31001D01*
X35895Y-40639D01*
X35895Y-40639D01*
G37*
G54D34*
X35895Y-40639D02*
X35886Y-40630D01*
X35671Y-40541D01*
X35439Y-40541D01*
X35224Y-40630D01*
X35078Y-40775D01*
X34392Y-40775D01*
X34492Y-40734D01*
X34612Y-40615D01*
X34676Y-40458D01*
X34677Y-40289D01*
X34612Y-40133D01*
X34601Y-40123D01*
X34601Y-39832D01*
X34892Y-39832D01*
X34983Y-39794D01*
X35054Y-39724D01*
X35092Y-39632D01*
X35092Y-39533D01*
X35092Y-38352D01*
X35054Y-38260D01*
X34984Y-38189D01*
X34892Y-38151D01*
X34793Y-38151D01*
X33611Y-38151D01*
X33519Y-38189D01*
X33449Y-38259D01*
X33411Y-38351D01*
X33411Y-38451D01*
X33411Y-39632D01*
X33449Y-39724D01*
X33519Y-39794D01*
X33611Y-39832D01*
X33710Y-39832D01*
X33901Y-39832D01*
X33901Y-40122D01*
X33891Y-40132D01*
X33827Y-40289D01*
X33826Y-40458D01*
X33891Y-40614D01*
X34010Y-40734D01*
X34111Y-40775D01*
X33031Y-40775D01*
X32886Y-40630D01*
X32671Y-40541D01*
X32448Y-40541D01*
X32385Y-40499D01*
X32251Y-40472D01*
X32103Y-40472D01*
X32117Y-40439D01*
X32117Y-40270D01*
X32053Y-40113D01*
X32042Y-40103D01*
X32042Y-35728D01*
X32042Y-35216D01*
X32016Y-35082D01*
X31940Y-34969D01*
X31467Y-34496D01*
X31354Y-34420D01*
X31220Y-34394D01*
X25216Y-34394D01*
X25082Y-34420D01*
X24969Y-34496D01*
X24298Y-35167D01*
X24297Y-35167D01*
X24061Y-35265D01*
X23925Y-35400D01*
X23790Y-35265D01*
X23775Y-35259D01*
X23775Y-34822D01*
X24154Y-34442D01*
X24359Y-34443D01*
X24574Y-34354D01*
X24739Y-34189D01*
X24828Y-33975D01*
X24828Y-33742D01*
X24760Y-33578D01*
X29139Y-33578D01*
X29139Y-33726D01*
X29177Y-33818D01*
X29247Y-33888D01*
X29339Y-33927D01*
X29439Y-33927D01*
X30108Y-33927D01*
X30200Y-33889D01*
X30216Y-33873D01*
X30232Y-33888D01*
X30324Y-33927D01*
X30423Y-33927D01*
X31092Y-33927D01*
X31184Y-33889D01*
X31255Y-33818D01*
X31293Y-33727D01*
X31293Y-33692D01*
X33040Y-33692D01*
X33901Y-34554D01*
X33901Y-36227D01*
X33776Y-36279D01*
X33539Y-36515D01*
X33411Y-36824D01*
X33411Y-37158D01*
X33538Y-37467D01*
X33775Y-37704D01*
X34084Y-37832D01*
X34418Y-37832D01*
X34727Y-37705D01*
X34964Y-37468D01*
X35092Y-37160D01*
X35092Y-36825D01*
X34964Y-36516D01*
X34728Y-36279D01*
X34601Y-36227D01*
X34601Y-34409D01*
X34601Y-34409D01*
X34601Y-34409D01*
X34575Y-34275D01*
X34499Y-34161D01*
X34499Y-34161D01*
X33832Y-33494D01*
X33887Y-33517D01*
X34143Y-33517D01*
X34255Y-33471D01*
X34362Y-33577D01*
X34356Y-33591D01*
X34356Y-33847D01*
X34453Y-34084D01*
X34634Y-34265D01*
X34871Y-34364D01*
X35127Y-34364D01*
X35364Y-34266D01*
X35545Y-34085D01*
X35643Y-33849D01*
X35643Y-33592D01*
X35546Y-33356D01*
X35365Y-33175D01*
X35128Y-33076D01*
X34872Y-33076D01*
X34857Y-33082D01*
X34659Y-32884D01*
X34659Y-32746D01*
X34653Y-32731D01*
X35011Y-32373D01*
X35011Y-32373D01*
X35011Y-32373D01*
X35087Y-32259D01*
X35106Y-32163D01*
X35192Y-32249D01*
X35348Y-32314D01*
X35517Y-32314D01*
X35673Y-32250D01*
X35793Y-32130D01*
X35857Y-31974D01*
X35858Y-31805D01*
X35793Y-31649D01*
X35783Y-31638D01*
X35783Y-31025D01*
X35836Y-31025D01*
X35895Y-31001D01*
X35895Y-40639D01*
G54D10*
G36*
X35895Y-42639D02*
X35886Y-42630D01*
X35671Y-42541D01*
X35439Y-42541D01*
X35224Y-42630D01*
X35078Y-42775D01*
X33031Y-42775D01*
X32886Y-42630D01*
X32671Y-42541D01*
X32439Y-42541D01*
X32224Y-42630D01*
X32113Y-42740D01*
X30562Y-41189D01*
X30562Y-41175D01*
X30561Y-41172D01*
X31970Y-41172D01*
X31970Y-41241D01*
X32059Y-41456D01*
X32223Y-41621D01*
X32438Y-41710D01*
X32670Y-41710D01*
X32885Y-41621D01*
X33032Y-41475D01*
X35078Y-41475D01*
X35223Y-41621D01*
X35438Y-41710D01*
X35670Y-41710D01*
X35885Y-41621D01*
X35895Y-41612D01*
X35895Y-42639D01*
X35895Y-42639D01*
G37*
G54D34*
X35895Y-42639D02*
X35886Y-42630D01*
X35671Y-42541D01*
X35439Y-42541D01*
X35224Y-42630D01*
X35078Y-42775D01*
X33031Y-42775D01*
X32886Y-42630D01*
X32671Y-42541D01*
X32439Y-42541D01*
X32224Y-42630D01*
X32113Y-42740D01*
X30562Y-41189D01*
X30562Y-41175D01*
X30561Y-41172D01*
X31970Y-41172D01*
X31970Y-41241D01*
X32059Y-41456D01*
X32223Y-41621D01*
X32438Y-41710D01*
X32670Y-41710D01*
X32885Y-41621D01*
X33032Y-41475D01*
X35078Y-41475D01*
X35223Y-41621D01*
X35438Y-41710D01*
X35670Y-41710D01*
X35885Y-41621D01*
X35895Y-41612D01*
X35895Y-42639D01*
G54D10*
G36*
X35895Y-61486D02*
X34899Y-61486D01*
X34899Y-59946D01*
X34899Y-53253D01*
X34895Y-53137D01*
X34895Y-53022D01*
X34890Y-53010D01*
X34890Y-52997D01*
X34810Y-52805D01*
X34805Y-52803D01*
X34797Y-52785D01*
X34617Y-52604D01*
X34598Y-52596D01*
X34596Y-52590D01*
X34487Y-52550D01*
X34380Y-52506D01*
X34367Y-52506D01*
X34356Y-52501D01*
X34240Y-52505D01*
X34124Y-52505D01*
X34112Y-52510D01*
X34100Y-52511D01*
X33907Y-52590D01*
X33905Y-52596D01*
X33887Y-52603D01*
X33706Y-52784D01*
X33698Y-52803D01*
X33693Y-52805D01*
X33652Y-52914D01*
X33608Y-53021D01*
X33608Y-53033D01*
X33603Y-53045D01*
X33608Y-53161D01*
X33608Y-53277D01*
X33612Y-53288D01*
X33613Y-53301D01*
X33693Y-53493D01*
X33698Y-53495D01*
X33705Y-53513D01*
X33886Y-53694D01*
X33905Y-53702D01*
X33907Y-53708D01*
X34016Y-53748D01*
X34123Y-53793D01*
X34135Y-53793D01*
X34147Y-53797D01*
X34263Y-53793D01*
X34379Y-53793D01*
X34391Y-53788D01*
X34403Y-53788D01*
X34596Y-53708D01*
X34598Y-53703D01*
X34616Y-53695D01*
X34797Y-53514D01*
X34805Y-53495D01*
X34810Y-53493D01*
X34851Y-53385D01*
X34895Y-53278D01*
X34895Y-53265D01*
X34899Y-53253D01*
X34899Y-59946D01*
X34895Y-59830D01*
X34895Y-59715D01*
X34890Y-59703D01*
X34890Y-59690D01*
X34810Y-59498D01*
X34805Y-59496D01*
X34797Y-59478D01*
X34617Y-59297D01*
X34598Y-59289D01*
X34596Y-59283D01*
X34487Y-59243D01*
X34380Y-59198D01*
X34367Y-59198D01*
X34356Y-59194D01*
X34240Y-59198D01*
X34124Y-59198D01*
X34112Y-59203D01*
X34100Y-59203D01*
X33907Y-59283D01*
X33905Y-59289D01*
X33887Y-59296D01*
X33706Y-59477D01*
X33698Y-59496D01*
X33693Y-59498D01*
X33652Y-59606D01*
X33608Y-59713D01*
X33608Y-59726D01*
X33603Y-59738D01*
X33608Y-59854D01*
X33608Y-59969D01*
X33612Y-59981D01*
X33613Y-59994D01*
X33693Y-60186D01*
X33698Y-60188D01*
X33705Y-60206D01*
X33886Y-60387D01*
X33905Y-60395D01*
X33907Y-60401D01*
X34016Y-60441D01*
X34123Y-60486D01*
X34135Y-60486D01*
X34147Y-60490D01*
X34263Y-60486D01*
X34379Y-60486D01*
X34391Y-60481D01*
X34403Y-60481D01*
X34596Y-60401D01*
X34598Y-60395D01*
X34616Y-60388D01*
X34797Y-60207D01*
X34805Y-60188D01*
X34810Y-60186D01*
X34851Y-60078D01*
X34895Y-59971D01*
X34895Y-59958D01*
X34899Y-59946D01*
X34899Y-61486D01*
X13246Y-61486D01*
X13246Y-59946D01*
X13242Y-59830D01*
X13242Y-59715D01*
X13237Y-59703D01*
X13236Y-59690D01*
X13157Y-59498D01*
X13151Y-59496D01*
X13144Y-59478D01*
X12963Y-59297D01*
X12944Y-59289D01*
X12942Y-59283D01*
X12834Y-59243D01*
X12727Y-59198D01*
X12714Y-59198D01*
X12702Y-59194D01*
X12586Y-59198D01*
X12470Y-59198D01*
X12459Y-59203D01*
X12446Y-59203D01*
X12254Y-59283D01*
X12252Y-59289D01*
X12234Y-59296D01*
X12053Y-59477D01*
X12045Y-59496D01*
X12039Y-59498D01*
X11999Y-59606D01*
X11954Y-59713D01*
X11954Y-59726D01*
X11950Y-59738D01*
X11954Y-59854D01*
X11954Y-59969D01*
X11959Y-59981D01*
X11959Y-59994D01*
X12039Y-60186D01*
X12044Y-60188D01*
X12052Y-60206D01*
X12233Y-60387D01*
X12252Y-60395D01*
X12254Y-60401D01*
X12362Y-60441D01*
X12469Y-60486D01*
X12482Y-60486D01*
X12494Y-60490D01*
X12610Y-60486D01*
X12725Y-60486D01*
X12737Y-60481D01*
X12750Y-60481D01*
X12942Y-60401D01*
X12944Y-60395D01*
X12962Y-60388D01*
X13143Y-60207D01*
X13151Y-60188D01*
X13157Y-60186D01*
X13197Y-60078D01*
X13242Y-59971D01*
X13242Y-59958D01*
X13246Y-59946D01*
X13246Y-61486D01*
X10954Y-61486D01*
X10954Y-48477D01*
X16812Y-54335D01*
X15433Y-54335D01*
X15433Y-54335D01*
X15414Y-54338D01*
X15414Y-54338D01*
X15270Y-54338D01*
X15113Y-54403D01*
X14994Y-54522D01*
X14929Y-54678D01*
X14929Y-54847D01*
X14961Y-54925D01*
X14645Y-54925D01*
X14534Y-54925D01*
X14499Y-54890D01*
X14499Y-54876D01*
X14435Y-54720D01*
X14315Y-54600D01*
X14159Y-54535D01*
X13990Y-54535D01*
X13834Y-54600D01*
X13714Y-54719D01*
X13649Y-54875D01*
X13649Y-55044D01*
X13714Y-55201D01*
X13833Y-55320D01*
X13989Y-55385D01*
X14004Y-55385D01*
X14142Y-55523D01*
X14142Y-55523D01*
X14229Y-55581D01*
X13246Y-55581D01*
X13246Y-53253D01*
X13242Y-53137D01*
X13242Y-53022D01*
X13237Y-53010D01*
X13236Y-52997D01*
X13157Y-52805D01*
X13151Y-52803D01*
X13144Y-52785D01*
X12963Y-52604D01*
X12944Y-52596D01*
X12942Y-52590D01*
X12834Y-52550D01*
X12727Y-52506D01*
X12714Y-52506D01*
X12702Y-52501D01*
X12586Y-52505D01*
X12470Y-52505D01*
X12459Y-52510D01*
X12446Y-52511D01*
X12254Y-52590D01*
X12252Y-52596D01*
X12234Y-52603D01*
X12053Y-52784D01*
X12045Y-52803D01*
X12039Y-52805D01*
X11999Y-52914D01*
X11954Y-53021D01*
X11954Y-53033D01*
X11950Y-53045D01*
X11954Y-53161D01*
X11954Y-53277D01*
X11959Y-53288D01*
X11959Y-53301D01*
X12039Y-53493D01*
X12044Y-53495D01*
X12052Y-53513D01*
X12233Y-53694D01*
X12252Y-53702D01*
X12254Y-53708D01*
X12362Y-53748D01*
X12469Y-53793D01*
X12482Y-53793D01*
X12494Y-53797D01*
X12610Y-53793D01*
X12725Y-53793D01*
X12737Y-53788D01*
X12750Y-53788D01*
X12942Y-53708D01*
X12944Y-53703D01*
X12962Y-53695D01*
X13143Y-53514D01*
X13151Y-53495D01*
X13157Y-53493D01*
X13197Y-53385D01*
X13242Y-53278D01*
X13242Y-53265D01*
X13246Y-53253D01*
X13246Y-55581D01*
X11508Y-55581D01*
X11508Y-58502D01*
X19790Y-58502D01*
X19790Y-55625D01*
X23532Y-55625D01*
X23492Y-55722D01*
X23492Y-55891D01*
X23556Y-56047D01*
X23567Y-56058D01*
X23567Y-56660D01*
X23531Y-56745D01*
X23531Y-56914D01*
X23596Y-57071D01*
X23715Y-57190D01*
X23871Y-57255D01*
X24040Y-57255D01*
X24197Y-57191D01*
X24316Y-57071D01*
X24381Y-56915D01*
X24381Y-56746D01*
X24317Y-56590D01*
X24267Y-56540D01*
X24267Y-56058D01*
X24277Y-56048D01*
X24342Y-55891D01*
X24342Y-55722D01*
X24302Y-55625D01*
X25984Y-55625D01*
X26118Y-55598D01*
X26118Y-55598D01*
X26231Y-55523D01*
X26349Y-55404D01*
X26989Y-54765D01*
X27240Y-54513D01*
X27296Y-54649D01*
X27416Y-54769D01*
X27572Y-54834D01*
X27741Y-54834D01*
X27897Y-54769D01*
X28017Y-54650D01*
X28082Y-54494D01*
X28082Y-54380D01*
X29000Y-53463D01*
X29000Y-53941D01*
X28990Y-53951D01*
X28925Y-54108D01*
X28925Y-54277D01*
X28989Y-54433D01*
X29109Y-54553D01*
X29265Y-54617D01*
X29434Y-54617D01*
X29571Y-54561D01*
X29571Y-56751D01*
X29571Y-58477D01*
X29244Y-58803D01*
X21247Y-58803D01*
X20858Y-58414D01*
X20858Y-58400D01*
X20793Y-58243D01*
X20674Y-58124D01*
X20517Y-58059D01*
X20348Y-58059D01*
X20192Y-58123D01*
X20072Y-58243D01*
X20008Y-58399D01*
X20007Y-58568D01*
X20072Y-58724D01*
X20192Y-58844D01*
X20348Y-58909D01*
X20363Y-58909D01*
X20854Y-59401D01*
X20968Y-59476D01*
X20968Y-59476D01*
X21102Y-59503D01*
X29389Y-59503D01*
X29523Y-59476D01*
X29523Y-59476D01*
X29637Y-59401D01*
X30168Y-58869D01*
X30244Y-58755D01*
X30271Y-58622D01*
X30271Y-56896D01*
X30518Y-56649D01*
X32111Y-56649D01*
X32121Y-56659D01*
X32277Y-56724D01*
X32446Y-56724D01*
X32602Y-56659D01*
X32722Y-56540D01*
X32787Y-56384D01*
X32787Y-56215D01*
X32722Y-56058D01*
X32603Y-55939D01*
X32447Y-55874D01*
X32278Y-55874D01*
X32121Y-55938D01*
X32111Y-55949D01*
X30374Y-55949D01*
X30271Y-55969D01*
X30271Y-54954D01*
X30311Y-54994D01*
X30403Y-55032D01*
X30502Y-55032D01*
X30732Y-55032D01*
X30732Y-55044D01*
X30722Y-55054D01*
X30657Y-55210D01*
X30657Y-55379D01*
X30722Y-55535D01*
X30841Y-55655D01*
X30997Y-55720D01*
X31166Y-55720D01*
X31323Y-55655D01*
X31442Y-55536D01*
X31507Y-55380D01*
X31507Y-55211D01*
X31443Y-55054D01*
X31432Y-55044D01*
X31432Y-55032D01*
X31722Y-55032D01*
X31814Y-54994D01*
X31884Y-54924D01*
X31896Y-54896D01*
X33051Y-54896D01*
X33185Y-54869D01*
X33185Y-54869D01*
X33299Y-54793D01*
X33495Y-54597D01*
X33571Y-54484D01*
X33598Y-54350D01*
X33598Y-51350D01*
X33608Y-51350D01*
X33608Y-51640D01*
X33646Y-51731D01*
X33716Y-51802D01*
X33808Y-51840D01*
X33907Y-51840D01*
X35088Y-51840D01*
X35180Y-51802D01*
X35251Y-51732D01*
X35289Y-51640D01*
X35289Y-51541D01*
X35289Y-51350D01*
X35535Y-51350D01*
X35669Y-51323D01*
X35669Y-51323D01*
X35782Y-51247D01*
X35895Y-51134D01*
X35895Y-61486D01*
X35895Y-61486D01*
G37*
G54D34*
X35895Y-61486D02*
X34899Y-61486D01*
X34899Y-59946D01*
X34899Y-53253D01*
X34895Y-53137D01*
X34895Y-53022D01*
X34890Y-53010D01*
X34890Y-52997D01*
X34810Y-52805D01*
X34805Y-52803D01*
X34797Y-52785D01*
X34617Y-52604D01*
X34598Y-52596D01*
X34596Y-52590D01*
X34487Y-52550D01*
X34380Y-52506D01*
X34367Y-52506D01*
X34356Y-52501D01*
X34240Y-52505D01*
X34124Y-52505D01*
X34112Y-52510D01*
X34100Y-52511D01*
X33907Y-52590D01*
X33905Y-52596D01*
X33887Y-52603D01*
X33706Y-52784D01*
X33698Y-52803D01*
X33693Y-52805D01*
X33652Y-52914D01*
X33608Y-53021D01*
X33608Y-53033D01*
X33603Y-53045D01*
X33608Y-53161D01*
X33608Y-53277D01*
X33612Y-53288D01*
X33613Y-53301D01*
X33693Y-53493D01*
X33698Y-53495D01*
X33705Y-53513D01*
X33886Y-53694D01*
X33905Y-53702D01*
X33907Y-53708D01*
X34016Y-53748D01*
X34123Y-53793D01*
X34135Y-53793D01*
X34147Y-53797D01*
X34263Y-53793D01*
X34379Y-53793D01*
X34391Y-53788D01*
X34403Y-53788D01*
X34596Y-53708D01*
X34598Y-53703D01*
X34616Y-53695D01*
X34797Y-53514D01*
X34805Y-53495D01*
X34810Y-53493D01*
X34851Y-53385D01*
X34895Y-53278D01*
X34895Y-53265D01*
X34899Y-53253D01*
X34899Y-59946D01*
X34895Y-59830D01*
X34895Y-59715D01*
X34890Y-59703D01*
X34890Y-59690D01*
X34810Y-59498D01*
X34805Y-59496D01*
X34797Y-59478D01*
X34617Y-59297D01*
X34598Y-59289D01*
X34596Y-59283D01*
X34487Y-59243D01*
X34380Y-59198D01*
X34367Y-59198D01*
X34356Y-59194D01*
X34240Y-59198D01*
X34124Y-59198D01*
X34112Y-59203D01*
X34100Y-59203D01*
X33907Y-59283D01*
X33905Y-59289D01*
X33887Y-59296D01*
X33706Y-59477D01*
X33698Y-59496D01*
X33693Y-59498D01*
X33652Y-59606D01*
X33608Y-59713D01*
X33608Y-59726D01*
X33603Y-59738D01*
X33608Y-59854D01*
X33608Y-59969D01*
X33612Y-59981D01*
X33613Y-59994D01*
X33693Y-60186D01*
X33698Y-60188D01*
X33705Y-60206D01*
X33886Y-60387D01*
X33905Y-60395D01*
X33907Y-60401D01*
X34016Y-60441D01*
X34123Y-60486D01*
X34135Y-60486D01*
X34147Y-60490D01*
X34263Y-60486D01*
X34379Y-60486D01*
X34391Y-60481D01*
X34403Y-60481D01*
X34596Y-60401D01*
X34598Y-60395D01*
X34616Y-60388D01*
X34797Y-60207D01*
X34805Y-60188D01*
X34810Y-60186D01*
X34851Y-60078D01*
X34895Y-59971D01*
X34895Y-59958D01*
X34899Y-59946D01*
X34899Y-61486D01*
X13246Y-61486D01*
X13246Y-59946D01*
X13242Y-59830D01*
X13242Y-59715D01*
X13237Y-59703D01*
X13236Y-59690D01*
X13157Y-59498D01*
X13151Y-59496D01*
X13144Y-59478D01*
X12963Y-59297D01*
X12944Y-59289D01*
X12942Y-59283D01*
X12834Y-59243D01*
X12727Y-59198D01*
X12714Y-59198D01*
X12702Y-59194D01*
X12586Y-59198D01*
X12470Y-59198D01*
X12459Y-59203D01*
X12446Y-59203D01*
X12254Y-59283D01*
X12252Y-59289D01*
X12234Y-59296D01*
X12053Y-59477D01*
X12045Y-59496D01*
X12039Y-59498D01*
X11999Y-59606D01*
X11954Y-59713D01*
X11954Y-59726D01*
X11950Y-59738D01*
X11954Y-59854D01*
X11954Y-59969D01*
X11959Y-59981D01*
X11959Y-59994D01*
X12039Y-60186D01*
X12044Y-60188D01*
X12052Y-60206D01*
X12233Y-60387D01*
X12252Y-60395D01*
X12254Y-60401D01*
X12362Y-60441D01*
X12469Y-60486D01*
X12482Y-60486D01*
X12494Y-60490D01*
X12610Y-60486D01*
X12725Y-60486D01*
X12737Y-60481D01*
X12750Y-60481D01*
X12942Y-60401D01*
X12944Y-60395D01*
X12962Y-60388D01*
X13143Y-60207D01*
X13151Y-60188D01*
X13157Y-60186D01*
X13197Y-60078D01*
X13242Y-59971D01*
X13242Y-59958D01*
X13246Y-59946D01*
X13246Y-61486D01*
X10954Y-61486D01*
X10954Y-48477D01*
X16812Y-54335D01*
X15433Y-54335D01*
X15433Y-54335D01*
X15414Y-54338D01*
X15414Y-54338D01*
X15270Y-54338D01*
X15113Y-54403D01*
X14994Y-54522D01*
X14929Y-54678D01*
X14929Y-54847D01*
X14961Y-54925D01*
X14645Y-54925D01*
X14534Y-54925D01*
X14499Y-54890D01*
X14499Y-54876D01*
X14435Y-54720D01*
X14315Y-54600D01*
X14159Y-54535D01*
X13990Y-54535D01*
X13834Y-54600D01*
X13714Y-54719D01*
X13649Y-54875D01*
X13649Y-55044D01*
X13714Y-55201D01*
X13833Y-55320D01*
X13989Y-55385D01*
X14004Y-55385D01*
X14142Y-55523D01*
X14142Y-55523D01*
X14229Y-55581D01*
X13246Y-55581D01*
X13246Y-53253D01*
X13242Y-53137D01*
X13242Y-53022D01*
X13237Y-53010D01*
X13236Y-52997D01*
X13157Y-52805D01*
X13151Y-52803D01*
X13144Y-52785D01*
X12963Y-52604D01*
X12944Y-52596D01*
X12942Y-52590D01*
X12834Y-52550D01*
X12727Y-52506D01*
X12714Y-52506D01*
X12702Y-52501D01*
X12586Y-52505D01*
X12470Y-52505D01*
X12459Y-52510D01*
X12446Y-52511D01*
X12254Y-52590D01*
X12252Y-52596D01*
X12234Y-52603D01*
X12053Y-52784D01*
X12045Y-52803D01*
X12039Y-52805D01*
X11999Y-52914D01*
X11954Y-53021D01*
X11954Y-53033D01*
X11950Y-53045D01*
X11954Y-53161D01*
X11954Y-53277D01*
X11959Y-53288D01*
X11959Y-53301D01*
X12039Y-53493D01*
X12044Y-53495D01*
X12052Y-53513D01*
X12233Y-53694D01*
X12252Y-53702D01*
X12254Y-53708D01*
X12362Y-53748D01*
X12469Y-53793D01*
X12482Y-53793D01*
X12494Y-53797D01*
X12610Y-53793D01*
X12725Y-53793D01*
X12737Y-53788D01*
X12750Y-53788D01*
X12942Y-53708D01*
X12944Y-53703D01*
X12962Y-53695D01*
X13143Y-53514D01*
X13151Y-53495D01*
X13157Y-53493D01*
X13197Y-53385D01*
X13242Y-53278D01*
X13242Y-53265D01*
X13246Y-53253D01*
X13246Y-55581D01*
X11508Y-55581D01*
X11508Y-58502D01*
X19790Y-58502D01*
X19790Y-55625D01*
X23532Y-55625D01*
X23492Y-55722D01*
X23492Y-55891D01*
X23556Y-56047D01*
X23567Y-56058D01*
X23567Y-56660D01*
X23531Y-56745D01*
X23531Y-56914D01*
X23596Y-57071D01*
X23715Y-57190D01*
X23871Y-57255D01*
X24040Y-57255D01*
X24197Y-57191D01*
X24316Y-57071D01*
X24381Y-56915D01*
X24381Y-56746D01*
X24317Y-56590D01*
X24267Y-56540D01*
X24267Y-56058D01*
X24277Y-56048D01*
X24342Y-55891D01*
X24342Y-55722D01*
X24302Y-55625D01*
X25984Y-55625D01*
X26118Y-55598D01*
X26118Y-55598D01*
X26231Y-55523D01*
X26349Y-55404D01*
X26989Y-54765D01*
X27240Y-54513D01*
X27296Y-54649D01*
X27416Y-54769D01*
X27572Y-54834D01*
X27741Y-54834D01*
X27897Y-54769D01*
X28017Y-54650D01*
X28082Y-54494D01*
X28082Y-54380D01*
X29000Y-53463D01*
X29000Y-53941D01*
X28990Y-53951D01*
X28925Y-54108D01*
X28925Y-54277D01*
X28989Y-54433D01*
X29109Y-54553D01*
X29265Y-54617D01*
X29434Y-54617D01*
X29571Y-54561D01*
X29571Y-56751D01*
X29571Y-58477D01*
X29244Y-58803D01*
X21247Y-58803D01*
X20858Y-58414D01*
X20858Y-58400D01*
X20793Y-58243D01*
X20674Y-58124D01*
X20517Y-58059D01*
X20348Y-58059D01*
X20192Y-58123D01*
X20072Y-58243D01*
X20008Y-58399D01*
X20007Y-58568D01*
X20072Y-58724D01*
X20192Y-58844D01*
X20348Y-58909D01*
X20363Y-58909D01*
X20854Y-59401D01*
X20968Y-59476D01*
X20968Y-59476D01*
X21102Y-59503D01*
X29389Y-59503D01*
X29523Y-59476D01*
X29523Y-59476D01*
X29637Y-59401D01*
X30168Y-58869D01*
X30244Y-58755D01*
X30271Y-58622D01*
X30271Y-56896D01*
X30518Y-56649D01*
X32111Y-56649D01*
X32121Y-56659D01*
X32277Y-56724D01*
X32446Y-56724D01*
X32602Y-56659D01*
X32722Y-56540D01*
X32787Y-56384D01*
X32787Y-56215D01*
X32722Y-56058D01*
X32603Y-55939D01*
X32447Y-55874D01*
X32278Y-55874D01*
X32121Y-55938D01*
X32111Y-55949D01*
X30374Y-55949D01*
X30271Y-55969D01*
X30271Y-54954D01*
X30311Y-54994D01*
X30403Y-55032D01*
X30502Y-55032D01*
X30732Y-55032D01*
X30732Y-55044D01*
X30722Y-55054D01*
X30657Y-55210D01*
X30657Y-55379D01*
X30722Y-55535D01*
X30841Y-55655D01*
X30997Y-55720D01*
X31166Y-55720D01*
X31323Y-55655D01*
X31442Y-55536D01*
X31507Y-55380D01*
X31507Y-55211D01*
X31443Y-55054D01*
X31432Y-55044D01*
X31432Y-55032D01*
X31722Y-55032D01*
X31814Y-54994D01*
X31884Y-54924D01*
X31896Y-54896D01*
X33051Y-54896D01*
X33185Y-54869D01*
X33185Y-54869D01*
X33299Y-54793D01*
X33495Y-54597D01*
X33571Y-54484D01*
X33598Y-54350D01*
X33598Y-51350D01*
X33608Y-51350D01*
X33608Y-51640D01*
X33646Y-51731D01*
X33716Y-51802D01*
X33808Y-51840D01*
X33907Y-51840D01*
X35088Y-51840D01*
X35180Y-51802D01*
X35251Y-51732D01*
X35289Y-51640D01*
X35289Y-51541D01*
X35289Y-51350D01*
X35535Y-51350D01*
X35669Y-51323D01*
X35669Y-51323D01*
X35782Y-51247D01*
X35895Y-51134D01*
X35895Y-61486D01*
M02*
