G04 (created by PCBNEW-RS274X (2011-05-25)-stable) date Tue 01 Nov 2011 04:23:44 PM ART*
G01*
G70*
G90*
%MOIN*%
G04 Gerber Fmt 3.4, Leading zero omitted, Abs format*
%FSLAX34Y34*%
G04 APERTURE LIST*
%ADD10C,0.006000*%
%ADD11R,0.078700X0.078700*%
%ADD12C,0.078700*%
%ADD13C,0.070900*%
%ADD14C,0.118100*%
%ADD15C,0.027600*%
G04 APERTURE END LIST*
G54D10*
G54D11*
X34500Y-18500D03*
G54D12*
X33500Y-18500D03*
X32500Y-18500D03*
G54D13*
X34000Y-20000D03*
X33000Y-21000D03*
X34000Y-21000D03*
X33000Y-20000D03*
X35000Y-22500D03*
X32000Y-22500D03*
G54D14*
X33498Y-16388D03*
X33512Y-24536D03*
G54D15*
X33500Y-18500D02*
X33500Y-19100D01*
X33000Y-19600D02*
X33000Y-20000D01*
X33500Y-19100D02*
X33000Y-19600D01*
X34000Y-21000D02*
X34000Y-22900D01*
X34500Y-19200D02*
X34500Y-18500D01*
X35700Y-20400D02*
X34500Y-19200D01*
X35700Y-23000D02*
X35700Y-20400D01*
X35400Y-23300D02*
X35700Y-23000D01*
X34400Y-23300D02*
X35400Y-23300D01*
X34000Y-22900D02*
X34400Y-23300D01*
X33000Y-21000D02*
X32068Y-21000D01*
X32068Y-21000D02*
X32000Y-20932D01*
X33000Y-21000D02*
X32406Y-21000D01*
X32000Y-22500D02*
X32000Y-21406D01*
X32000Y-21406D02*
X32000Y-20932D01*
X32000Y-20932D02*
X32000Y-19000D01*
X32000Y-19000D02*
X32500Y-18500D01*
X35000Y-22500D02*
X35000Y-20900D01*
X34100Y-20000D02*
X34000Y-20000D01*
X35000Y-20900D02*
X34100Y-20000D01*
M02*
