<?xml version="1.0" standalone="no"?>
 <!DOCTYPE svg PUBLIC "-//W3C//DTD SVG 1.1//EN" 
 "http://www.w3.org/Graphics/SVG/1.1/DTD/svg11.dtd"> 
<svg xmlns="http://www.w3.org/2000/svg" version="1.1" 
    width="6.72846cm" height="10.3759cm" viewBox="0 0 26490 40850 ">
<title>SVG Picture created as placa_principal-B_SilkS.svg date 2013/06/06 20:38:32 </title>
  <desc>Picture generated by PCBNEW </desc>
<g style="fill:#000000; fill-opacity:1;stroke:#000000; stroke-opacity:1;
stroke-linecap:round; stroke-linejoin:round; "
 transform="translate(0 0) scale(1 1)">
</g>
<g style="fill:#FFFF00; fill-opacity:0.0; 
stroke:#FFFF00; stroke-width:150; stroke-opacity:1; 
stroke-linecap:round; stroke-linejoin:round;">
<path d="M9838 1177
L19051 1177
" />
<path d="M9838 6531
L9838 1177
" />
<path d="M19051 6531
L9838 6531
" />
<path d="M19051 1177
L19051 6531
" />
<path d="M25665 40783
L75 40783
" />
<path d="M25665 75
L25665 40783
" />
<path d="M75 75
L25665 75
" />
<path d="M75 40783
L75 75
" />
</g>
<g style="fill:#9F009F; fill-opacity:0.0; 
stroke:#9F009F; stroke-width:80; stroke-opacity:1; 
stroke-linecap:round; stroke-linejoin:round;">
<path d="M20812 32380
L20812 32704
L20793 32742
L20774 32761
L20736 32780
L20660 32780
L20622 32761
L20603 32742
L20584 32704
L20584 32380
" />
<path d="M20336 32552
L20374 32533
L20393 32514
L20412 32476
L20412 32457
L20393 32419
L20374 32400
L20336 32380
L20260 32380
L20222 32400
L20203 32419
L20184 32457
L20184 32476
L20203 32514
L20222 32533
L20260 32552
L20336 32552
L20374 32571
L20393 32590
L20412 32628
L20412 32704
L20393 32742
L20374 32761
L20336 32780
L20260 32780
L20222 32761
L20203 32742
L20184 32704
L20184 32628
L20203 32590
L20222 32571
L20260 32552
" />
<path d="M21927 32180
L22060 31990
" />
<path d="M22155 32180
L22155 31780
L22003 31780
L21965 31800
L21946 31819
L21927 31857
L21927 31914
L21946 31952
L21965 31971
L22003 31990
L22155 31990
" />
<path d="M21755 31971
L21622 31971
" />
<path d="M21565 32180
L21755 32180
L21755 31780
L21565 31780
" />
<path d="M21184 31800
L21222 31780
L21279 31780
L21336 31800
L21374 31838
L21393 31876
L21412 31952
L21412 32009
L21393 32085
L21374 32123
L21336 32161
L21279 32180
L21241 32180
L21184 32161
L21165 32142
L21165 32009
L21241 32009
" />
<path d="M21089 32219
L20784 32219
" />
<path d="M20479 32180
L20708 32180
" />
<path d="M20593 32180
L20593 31780
L20631 31838
L20669 31876
L20708 31895
" />
<path d="M20231 31780
L20193 31780
L20155 31800
L20136 31819
L20117 31857
L20098 31933
L20098 32028
L20117 32104
L20136 32142
L20155 32161
L20193 32180
L20231 32180
L20269 32161
L20289 32142
L20308 32104
L20327 32028
L20327 31933
L20308 31857
L20289 31819
L20269 31800
L20231 31780
" />
<path d="M19755 31914
L19755 32180
" />
<path d="M19850 31761
L19946 32047
L19698 32047
" />
<path d="M19546 32028
L19241 32028
" />
<path d="M18860 31780
L19050 31780
L19069 31971
L19050 31952
L19012 31933
L18917 31933
L18879 31952
L18860 31971
L18841 32009
L18841 32104
L18860 32142
L18879 32161
L18917 32180
L19012 32180
L19050 32161
L19069 32142
" />
</g>
<g style="fill:#9F009F; fill-opacity:0.0; 
stroke:#9F009F; stroke-width:35; stroke-opacity:1; 
stroke-linecap:round; stroke-linejoin:round;">
<path d="M14476 9995
L14476 10400
L14452 10447
L14428 10471
L14380 10495
L14285 10495
L14237 10471
L14214 10447
L14190 10400
L14190 9995
" />
<path d="M13737 10162
L13737 10495
" />
<path d="M13856 9971
L13976 10328
L13666 10328
" />
<path d="M15042 6861
L15066 6885
L15137 6909
L15185 6909
L15256 6885
L15304 6838
L15328 6790
L15352 6695
L15352 6623
L15328 6528
L15304 6481
L15256 6433
L15185 6409
L15137 6409
L15066 6433
L15042 6457
" />
<path d="M14828 6909
L14828 6409
L14542 6909
L14542 6409
" />
<path d="M14209 6671
L14209 6909
" />
<path d="M14376 6409
L14209 6671
L14042 6409
" />
<path d="M13923 6409
L13590 6409
L13804 6909
" />
<path d="M13304 6409
L13256 6409
L13209 6433
L13185 6457
L13161 6504
L13137 6600
L13137 6719
L13161 6814
L13185 6861
L13209 6885
L13256 6909
L13304 6909
L13352 6885
L13376 6861
L13399 6814
L13423 6719
L13423 6600
L13399 6504
L13376 6457
L13352 6433
L13304 6409
" />
<path d="M12848 8037
L12608 8037
L12779 8117
L12608 8197
L12848 8197
" />
<path d="M12848 8415
L12722 8415
L12699 8403
L12688 8380
L12688 8335
L12699 8312
" />
<path d="M12836 8415
L12848 8392
L12848 8335
L12836 8312
L12813 8300
L12791 8300
L12768 8312
L12756 8335
L12756 8392
L12745 8415
" />
<path d="M12848 8529
L12688 8529
" />
<path d="M12733 8529
L12711 8540
L12699 8552
L12688 8575
L12688 8597
" />
<path d="M12848 8677
L12608 8677
" />
<path d="M12756 8700
L12848 8769
" />
<path d="M12688 8769
L12779 8677
" />
<path d="M12848 8872
L12688 8872
" />
<path d="M12608 8872
L12619 8860
L12631 8872
L12619 8883
L12608 8872
L12631 8872
" />
<path d="M12688 8986
L12848 8986
" />
<path d="M12711 8986
L12699 8997
L12688 9020
L12688 9055
L12699 9077
L12722 9089
L12848 9089
" />
<path d="M12688 9306
L12882 9306
L12905 9295
L12916 9283
L12928 9260
L12928 9226
L12916 9203
" />
<path d="M12836 9306
L12848 9283
L12848 9237
L12836 9215
L12825 9203
L12802 9192
L12733 9192
L12711 9203
L12699 9215
L12688 9237
L12688 9283
L12699 9306
" />
<path d="M12779 9592
L12779 9706
" />
<path d="M12848 9569
L12608 9649
L12848 9729
" />
<path d="M12848 9809
L12688 9809
" />
<path d="M12733 9809
L12711 9820
L12699 9832
L12688 9855
L12688 9877
" />
<path d="M12836 10049
L12848 10026
L12848 9980
L12836 9957
L12813 9946
L12722 9946
L12699 9957
L12688 9980
L12688 10026
L12699 10049
L12722 10060
L12745 10060
L12768 9946
" />
<path d="M12848 10266
L12722 10266
L12699 10255
L12688 10232
L12688 10186
L12699 10163
" />
<path d="M12836 10266
L12848 10243
L12848 10186
L12836 10163
L12813 10152
L12791 10152
L12768 10163
L12756 10186
L12756 10243
L12745 10266
" />
<path d="M8176 9995
L8176 10400
L8153 10447
L8129 10471
L8081 10495
L7986 10495
L7938 10471
L7914 10447
L7891 10400
L7891 9995
" />
<path d="M7700 9995
L7391 9995
L7557 10186
L7486 10186
L7438 10209
L7414 10233
L7391 10281
L7391 10400
L7414 10447
L7438 10471
L7486 10495
L7629 10495
L7676 10471
L7700 10447
" />
<path d="M8743 6861
L8767 6885
L8838 6909
L8886 6909
L8957 6885
L9005 6838
L9029 6790
L9053 6695
L9053 6623
L9029 6528
L9005 6481
L8957 6433
L8886 6409
L8838 6409
L8767 6433
L8743 6457
" />
<path d="M8529 6909
L8529 6409
L8243 6909
L8243 6409
" />
<path d="M7910 6671
L7910 6909
" />
<path d="M8076 6409
L7910 6671
L7743 6409
" />
<path d="M7624 6409
L7291 6409
L7505 6909
" />
<path d="M7005 6409
L6957 6409
L6910 6433
L6886 6457
L6862 6504
L6838 6600
L6838 6719
L6862 6814
L6886 6861
L6910 6885
L6957 6909
L7005 6909
L7053 6885
L7076 6861
L7100 6814
L7124 6719
L7124 6600
L7100 6504
L7076 6457
L7053 6433
L7005 6409
" />
<path d="M6549 8037
L6309 8037
L6480 8117
L6309 8197
L6549 8197
" />
<path d="M6549 8415
L6423 8415
L6400 8403
L6389 8380
L6389 8335
L6400 8312
" />
<path d="M6537 8415
L6549 8392
L6549 8335
L6537 8312
L6514 8300
L6491 8300
L6469 8312
L6457 8335
L6457 8392
L6446 8415
" />
<path d="M6549 8529
L6389 8529
" />
<path d="M6434 8529
L6411 8540
L6400 8552
L6389 8575
L6389 8597
" />
<path d="M6549 8677
L6309 8677
" />
<path d="M6457 8700
L6549 8769
" />
<path d="M6389 8769
L6480 8677
" />
<path d="M6549 8872
L6389 8872
" />
<path d="M6309 8872
L6320 8860
L6331 8872
L6320 8883
L6309 8872
L6331 8872
" />
<path d="M6389 8986
L6549 8986
" />
<path d="M6411 8986
L6400 8997
L6389 9020
L6389 9055
L6400 9077
L6423 9089
L6549 9089
" />
<path d="M6389 9306
L6583 9306
L6606 9295
L6617 9283
L6629 9260
L6629 9226
L6617 9203
" />
<path d="M6537 9306
L6549 9283
L6549 9237
L6537 9215
L6526 9203
L6503 9192
L6434 9192
L6411 9203
L6400 9215
L6389 9237
L6389 9283
L6400 9306
" />
<path d="M6480 9592
L6480 9706
" />
<path d="M6549 9569
L6309 9649
L6549 9729
" />
<path d="M6549 9809
L6389 9809
" />
<path d="M6434 9809
L6411 9820
L6400 9832
L6389 9855
L6389 9877
" />
<path d="M6537 10049
L6549 10026
L6549 9980
L6537 9957
L6514 9946
L6423 9946
L6400 9957
L6389 9980
L6389 10026
L6400 10049
L6423 10060
L6446 10060
L6469 9946
" />
<path d="M6549 10266
L6423 10266
L6400 10255
L6389 10232
L6389 10186
L6400 10163
" />
<path d="M6537 10266
L6549 10243
L6549 10186
L6537 10163
L6514 10152
L6491 10152
L6469 10163
L6457 10186
L6457 10243
L6446 10266
" />
<path d="M17625 9995
L17625 10400
L17601 10447
L17578 10471
L17530 10495
L17435 10495
L17387 10471
L17363 10447
L17339 10400
L17339 9995
" />
<path d="M17149 9995
L16816 9995
L17030 10495
" />
<path d="M18192 6861
L18216 6885
L18287 6909
L18335 6909
L18406 6885
L18454 6838
L18478 6790
L18501 6695
L18501 6623
L18478 6528
L18454 6481
L18406 6433
L18335 6409
L18287 6409
L18216 6433
L18192 6457
" />
<path d="M17978 6909
L17978 6409
L17692 6909
L17692 6409
" />
<path d="M17358 6671
L17358 6909
" />
<path d="M17525 6409
L17358 6671
L17192 6409
" />
<path d="M17073 6409
L16739 6409
L16954 6909
" />
<path d="M16454 6409
L16406 6409
L16358 6433
L16335 6457
L16311 6504
L16287 6600
L16287 6719
L16311 6814
L16335 6861
L16358 6885
L16406 6909
L16454 6909
L16501 6885
L16525 6861
L16549 6814
L16573 6719
L16573 6600
L16549 6504
L16525 6457
L16501 6433
L16454 6409
" />
<path d="M15997 8037
L15757 8037
L15929 8117
L15757 8197
L15997 8197
" />
<path d="M15997 8415
L15872 8415
L15849 8403
L15837 8380
L15837 8335
L15849 8312
" />
<path d="M15986 8415
L15997 8392
L15997 8335
L15986 8312
L15963 8300
L15940 8300
L15917 8312
L15906 8335
L15906 8392
L15894 8415
" />
<path d="M15997 8529
L15837 8529
" />
<path d="M15883 8529
L15860 8540
L15849 8552
L15837 8575
L15837 8597
" />
<path d="M15997 8677
L15757 8677
" />
<path d="M15906 8700
L15997 8769
" />
<path d="M15837 8769
L15929 8677
" />
<path d="M15997 8872
L15837 8872
" />
<path d="M15757 8872
L15769 8860
L15780 8872
L15769 8883
L15757 8872
L15780 8872
" />
<path d="M15837 8986
L15997 8986
" />
<path d="M15860 8986
L15849 8997
L15837 9020
L15837 9055
L15849 9077
L15872 9089
L15997 9089
" />
<path d="M15837 9306
L16032 9306
L16054 9295
L16066 9283
L16077 9260
L16077 9226
L16066 9203
" />
<path d="M15986 9306
L15997 9283
L15997 9237
L15986 9215
L15974 9203
L15952 9192
L15883 9192
L15860 9203
L15849 9215
L15837 9237
L15837 9283
L15849 9306
" />
<path d="M15929 9592
L15929 9706
" />
<path d="M15997 9569
L15757 9649
L15997 9729
" />
<path d="M15997 9809
L15837 9809
" />
<path d="M15883 9809
L15860 9820
L15849 9832
L15837 9855
L15837 9877
" />
<path d="M15986 10049
L15997 10026
L15997 9980
L15986 9957
L15963 9946
L15872 9946
L15849 9957
L15837 9980
L15837 10026
L15849 10049
L15872 10060
L15894 10060
L15917 9946
" />
<path d="M15997 10266
L15872 10266
L15849 10255
L15837 10232
L15837 10186
L15849 10163
" />
<path d="M15986 10266
L15997 10243
L15997 10186
L15986 10163
L15963 10152
L15940 10152
L15917 10163
L15906 10186
L15906 10243
L15894 10266
" />
<path d="M11326 9995
L11326 10400
L11302 10447
L11278 10471
L11231 10495
L11135 10495
L11088 10471
L11064 10447
L11040 10400
L11040 9995
" />
<path d="M10588 9995
L10683 9995
L10731 10019
L10754 10043
L10802 10114
L10826 10209
L10826 10400
L10802 10447
L10778 10471
L10731 10495
L10635 10495
L10588 10471
L10564 10447
L10540 10400
L10540 10281
L10564 10233
L10588 10209
L10635 10186
L10731 10186
L10778 10209
L10802 10233
L10826 10281
" />
<path d="M11893 6861
L11916 6885
L11988 6909
L12035 6909
L12107 6885
L12154 6838
L12178 6790
L12202 6695
L12202 6623
L12178 6528
L12154 6481
L12107 6433
L12035 6409
L11988 6409
L11916 6433
L11893 6457
" />
<path d="M11678 6909
L11678 6409
L11393 6909
L11393 6409
" />
<path d="M11059 6671
L11059 6909
" />
<path d="M11226 6409
L11059 6671
L10893 6409
" />
<path d="M10774 6409
L10440 6409
L10654 6909
" />
<path d="M10154 6409
L10107 6409
L10059 6433
L10035 6457
L10012 6504
L9988 6600
L9988 6719
L10012 6814
L10035 6861
L10059 6885
L10107 6909
L10154 6909
L10202 6885
L10226 6861
L10250 6814
L10274 6719
L10274 6600
L10250 6504
L10226 6457
L10202 6433
L10154 6409
" />
<path d="M9698 8037
L9458 8037
L9630 8117
L9458 8197
L9698 8197
" />
<path d="M9698 8415
L9572 8415
L9550 8403
L9538 8380
L9538 8335
L9550 8312
" />
<path d="M9687 8415
L9698 8392
L9698 8335
L9687 8312
L9664 8300
L9641 8300
L9618 8312
L9607 8335
L9607 8392
L9595 8415
" />
<path d="M9698 8529
L9538 8529
" />
<path d="M9584 8529
L9561 8540
L9550 8552
L9538 8575
L9538 8597
" />
<path d="M9698 8677
L9458 8677
" />
<path d="M9607 8700
L9698 8769
" />
<path d="M9538 8769
L9630 8677
" />
<path d="M9698 8872
L9538 8872
" />
<path d="M9458 8872
L9470 8860
L9481 8872
L9470 8883
L9458 8872
L9481 8872
" />
<path d="M9538 8986
L9698 8986
" />
<path d="M9561 8986
L9550 8997
L9538 9020
L9538 9055
L9550 9077
L9572 9089
L9698 9089
" />
<path d="M9538 9306
L9732 9306
L9755 9295
L9767 9283
L9778 9260
L9778 9226
L9767 9203
" />
<path d="M9687 9306
L9698 9283
L9698 9237
L9687 9215
L9675 9203
L9652 9192
L9584 9192
L9561 9203
L9550 9215
L9538 9237
L9538 9283
L9550 9306
" />
<path d="M9630 9592
L9630 9706
" />
<path d="M9698 9569
L9458 9649
L9698 9729
" />
<path d="M9698 9809
L9538 9809
" />
<path d="M9584 9809
L9561 9820
L9550 9832
L9538 9855
L9538 9877
" />
<path d="M9687 10049
L9698 10026
L9698 9980
L9687 9957
L9664 9946
L9572 9946
L9550 9957
L9538 9980
L9538 10026
L9550 10049
L9572 10060
L9595 10060
L9618 9946
" />
<path d="M9698 10266
L9572 10266
L9550 10255
L9538 10232
L9538 10186
L9550 10163
" />
<path d="M9687 10266
L9698 10243
L9698 10186
L9687 10163
L9664 10152
L9641 10152
L9618 10163
L9607 10186
L9607 10243
L9595 10266
" />
</g>
<g style="fill:#9F009F; fill-opacity:0.0; 
stroke:#9F009F; stroke-width:43; stroke-opacity:1; 
stroke-linecap:round; stroke-linejoin:round;">
<path d="M20737 30286
L20747 30295
L20775 30305
L20794 30305
L20822 30295
L20840 30277
L20850 30258
L20859 30220
L20859 30192
L20850 30155
L20840 30136
L20822 30117
L20794 30108
L20775 30108
L20747 30117
L20737 30127
" />
<path d="M20559 30108
L20653 30108
L20662 30202
L20653 30192
L20634 30183
L20587 30183
L20568 30192
L20559 30202
L20550 30220
L20550 30267
L20559 30286
L20568 30295
L20587 30305
L20634 30305
L20653 30295
L20662 30286
" />
<path d="M20991 30580
L21103 30580
" />
<path d="M21047 30580
L21047 30383
L21066 30411
L21084 30430
L21103 30439
" />
<path d="M20869 30383
L20850 30383
L20831 30392
L20822 30402
L20812 30420
L20803 30458
L20803 30505
L20812 30542
L20822 30561
L20831 30570
L20850 30580
L20869 30580
L20887 30570
L20897 30561
L20906 30542
L20915 30505
L20915 30458
L20906 30420
L20897 30402
L20887 30392
L20869 30383
" />
<path d="M20568 30448
L20568 30580
" />
<path d="M20568 30467
L20559 30458
L20540 30448
L20512 30448
L20493 30458
L20484 30477
L20484 30580
" />
<path d="M20324 30477
L20390 30477
" />
<path d="M20390 30580
L20390 30383
L20296 30383
" />
</g>
<g style="fill:#9F009F; fill-opacity:0.0; 
stroke:#9F009F; stroke-width:150; stroke-opacity:1; 
stroke-linecap:round; stroke-linejoin:round;">
<path d="M19208 31719
L21808 31719
" />
<path d="M21808 31719
L21808 33169
" />
<path d="M19208 33169
L19208 31719
" />
<path d="M19208 33169
L21808 33169
" />
</g>
<g style="fill:#9F009F; fill-opacity:0.0; 
stroke:#9F009F; stroke-width:60; stroke-opacity:1; 
stroke-linecap:round; stroke-linejoin:round;">
<path d="M13052 6957
L13052 10043
" />
<path d="M15838 10043
L15838 6932
" />
</g>
<g style="fill:#9F009F; fill-opacity:0.0; 
stroke:#9F009F; stroke-width:50; stroke-opacity:1; 
stroke-linecap:round; stroke-linejoin:round;">
<path d="M14641 6926
L14641 7123
" />
<path d="M14641 7123
L14249 7123
" />
<path d="M14249 7123
L14249 6926
" />
<path d="M14641 10074
L14641 9877
" />
<path d="M14641 9877
L14249 9877
" />
<path d="M14249 9877
L14249 10074
" />
<path d="M14641 6926
L15822 6926
" />
<path d="M14249 6926
L13068 6926
" />
<path d="M14641 10074
L15822 10074
" />
<path d="M14249 10074
L13068 10074
" />
</g>
<g style="fill:#9F009F; fill-opacity:0.0; 
stroke:#9F009F; stroke-width:60; stroke-opacity:1; 
stroke-linecap:round; stroke-linejoin:round;">
<path d="M6752 6957
L6752 10043
" />
<path d="M9538 10043
L9538 6932
" />
</g>
<g style="fill:#9F009F; fill-opacity:0.0; 
stroke:#9F009F; stroke-width:50; stroke-opacity:1; 
stroke-linecap:round; stroke-linejoin:round;">
<path d="M8341 6926
L8341 7123
" />
<path d="M8341 7123
L7949 7123
" />
<path d="M7949 7123
L7949 6926
" />
<path d="M8341 10074
L8341 9877
" />
<path d="M8341 9877
L7949 9877
" />
<path d="M7949 9877
L7949 10074
" />
<path d="M8341 6926
L9522 6926
" />
<path d="M7949 6926
L6768 6926
" />
<path d="M8341 10074
L9522 10074
" />
<path d="M7949 10074
L6768 10074
" />
</g>
<g style="fill:#9F009F; fill-opacity:0.0; 
stroke:#9F009F; stroke-width:60; stroke-opacity:1; 
stroke-linecap:round; stroke-linejoin:round;">
<path d="M16201 6957
L16201 10043
" />
<path d="M18987 10043
L18987 6932
" />
</g>
<g style="fill:#9F009F; fill-opacity:0.0; 
stroke:#9F009F; stroke-width:50; stroke-opacity:1; 
stroke-linecap:round; stroke-linejoin:round;">
<path d="M17790 6926
L17790 7123
" />
<path d="M17790 7123
L17398 7123
" />
<path d="M17398 7123
L17398 6926
" />
<path d="M17790 10074
L17790 9877
" />
<path d="M17790 9877
L17398 9877
" />
<path d="M17398 9877
L17398 10074
" />
<path d="M17790 6926
L18971 6926
" />
<path d="M17398 6926
L16217 6926
" />
<path d="M17790 10074
L18971 10074
" />
<path d="M17398 10074
L16217 10074
" />
</g>
<g style="fill:#9F009F; fill-opacity:0.0; 
stroke:#9F009F; stroke-width:60; stroke-opacity:1; 
stroke-linecap:round; stroke-linejoin:round;">
<path d="M9902 6957
L9902 10043
" />
<path d="M12688 10043
L12688 6932
" />
</g>
<g style="fill:#9F009F; fill-opacity:0.0; 
stroke:#9F009F; stroke-width:50; stroke-opacity:1; 
stroke-linecap:round; stroke-linejoin:round;">
<path d="M11491 6926
L11491 7123
" />
<path d="M11491 7123
L11099 7123
" />
<path d="M11099 7123
L11099 6926
" />
<path d="M11491 10074
L11491 9877
" />
<path d="M11491 9877
L11099 9877
" />
<path d="M11099 9877
L11099 10074
" />
<path d="M11491 6926
L12672 6926
" />
<path d="M11099 6926
L9918 6926
" />
<path d="M11491 10074
L12672 10074
" />
<path d="M11099 10074
L9918 10074
" />
</g>
<g style="fill:#9F009F; fill-opacity:0.0; 
stroke:#9F009F; stroke-width:39; stroke-opacity:1; 
stroke-linecap:round; stroke-linejoin:round;">
<circle cx="21354.9" cy="30650.6" r="50" /> 
<path d="M20904 30650
L21304 30650
" />
<path d="M21304 30650
L21304 30050
" />
<path d="M21304 30050
L20904 30050
" />
<path d="M20504 30050
L20104 30050
" />
<path d="M20104 30050
L20104 30650
" />
<path d="M20104 30650
L20504 30650
" />
</g>
<g style="fill:#7F7F00; fill-opacity:0.0; 
stroke:#7F7F00; stroke-width:39.3701; stroke-opacity:1; 
stroke-linecap:round; stroke-linejoin:round;">
</g>
<g style="fill:#7F7F00; fill-opacity:1.0; 
stroke:#7F7F00; stroke-width:39.3701; stroke-opacity:1; 
stroke-linecap:round; stroke-linejoin:round;">
<circle cx="14945.1" cy="8000.2" r="295.276" /> 
<circle cx="13945.1" cy="9000.2" r="295.276" /> 
<circle cx="13945.1" cy="8000.2" r="295.276" /> 
<circle cx="14945.1" cy="9000.2" r="295.276" /> 
<circle cx="8645.87" cy="8000.2" r="295.276" /> 
<circle cx="7645.87" cy="9000.2" r="295.276" /> 
<circle cx="7645.87" cy="8000.2" r="295.276" /> 
<circle cx="8645.87" cy="9000.2" r="295.276" /> 
<circle cx="18094.7" cy="8000.2" r="295.276" /> 
<circle cx="17094.7" cy="9000.2" r="295.276" /> 
<circle cx="17094.7" cy="8000.2" r="295.276" /> 
<circle cx="18094.7" cy="9000.2" r="295.276" /> 
<circle cx="11795.5" cy="8000.2" r="295.276" /> 
<circle cx="10795.5" cy="9000.2" r="295.276" /> 
<circle cx="10795.5" cy="8000.2" r="295.276" /> 
<circle cx="11795.5" cy="9000.2" r="295.276" /> 
</g> 
</svg>
