<?xml version="1.0" standalone="no"?>
 <!DOCTYPE svg PUBLIC "-//W3C//DTD SVG 1.1//EN" 
 "http://www.w3.org/Graphics/SVG/1.1/DTD/svg11.dtd"> 
<svg xmlns="http://www.w3.org/2000/svg" version="1.1" 
    width="6.71576cm" height="10.0381cm" viewBox="0 0 26440 39520 ">
<title>SVG Picture created as placa_principal-B_SilkS.svg date 2013/05/25 04:10:32 </title>
  <desc>Picture generated by PCBNEW </desc>
<g style="fill:#000000; fill-opacity:1;stroke:#000000; stroke-opacity:1;
stroke-linecap:round; stroke-linejoin:round; "
 transform="translate(0 0) scale(1 1)">
</g>
<g style="fill:#FFFF00; fill-opacity:0.0; 
stroke:#FFFF00; stroke-width:150; stroke-opacity:1; 
stroke-linecap:round; stroke-linejoin:round;">
<path d="M10114 1256
L18775 1256
" />
<path d="M10114 5193
L10114 1256
" />
<path d="M18775 5193
L10114 5193
" />
<path d="M18775 1256
L18775 5193
" />
<path d="M25665 39445
L75 39445
" />
<path d="M25665 75
L25665 39445
" />
<path d="M75 75
L25665 75
" />
<path d="M75 39445
L75 75
" />
</g>
<g style="fill:#9F009F; fill-opacity:0.0; 
stroke:#9F009F; stroke-width:80; stroke-opacity:1; 
stroke-linecap:round; stroke-linejoin:round;">
<path d="M20812 31042
L20812 31366
L20793 31404
L20774 31423
L20736 31442
L20660 31442
L20622 31423
L20603 31404
L20584 31366
L20584 31042
" />
<path d="M20336 31213
L20374 31194
L20393 31175
L20412 31137
L20412 31118
L20393 31080
L20374 31061
L20336 31042
L20260 31042
L20222 31061
L20203 31080
L20184 31118
L20184 31137
L20203 31175
L20222 31194
L20260 31213
L20336 31213
L20374 31232
L20393 31251
L20412 31290
L20412 31366
L20393 31404
L20374 31423
L20336 31442
L20260 31442
L20222 31423
L20203 31404
L20184 31366
L20184 31290
L20203 31251
L20222 31232
L20260 31213
" />
<path d="M21927 30842
L22060 30651
" />
<path d="M22155 30842
L22155 30442
L22003 30442
L21965 30461
L21946 30480
L21927 30518
L21927 30575
L21946 30613
L21965 30632
L22003 30651
L22155 30651
" />
<path d="M21755 30632
L21622 30632
" />
<path d="M21565 30842
L21755 30842
L21755 30442
L21565 30442
" />
<path d="M21184 30461
L21222 30442
L21279 30442
L21336 30461
L21374 30499
L21393 30537
L21412 30613
L21412 30670
L21393 30747
L21374 30785
L21336 30823
L21279 30842
L21241 30842
L21184 30823
L21165 30804
L21165 30670
L21241 30670
" />
<path d="M21089 30880
L20784 30880
" />
<path d="M20479 30842
L20708 30842
" />
<path d="M20593 30842
L20593 30442
L20631 30499
L20669 30537
L20708 30556
" />
<path d="M20231 30442
L20193 30442
L20155 30461
L20136 30480
L20117 30518
L20098 30594
L20098 30690
L20117 30766
L20136 30804
L20155 30823
L20193 30842
L20231 30842
L20269 30823
L20289 30804
L20308 30766
L20327 30690
L20327 30594
L20308 30518
L20289 30480
L20269 30461
L20231 30442
" />
<path d="M19755 30575
L19755 30842
" />
<path d="M19850 30423
L19946 30709
L19698 30709
" />
<path d="M19546 30690
L19241 30690
" />
<path d="M18860 30442
L19050 30442
L19069 30632
L19050 30613
L19012 30594
L18917 30594
L18879 30613
L18860 30632
L18841 30670
L18841 30766
L18860 30804
L18879 30823
L18917 30842
L19012 30842
L19050 30823
L19069 30804
" />
</g>
<g style="fill:#9F009F; fill-opacity:0.0; 
stroke:#9F009F; stroke-width:35; stroke-opacity:1; 
stroke-linecap:round; stroke-linejoin:round;">
<path d="M14414 8656
L14414 9061
L14437 9109
L14461 9133
L14509 9156
L14604 9156
L14652 9133
L14676 9109
L14699 9061
L14699 8656
" />
<path d="M15152 8823
L15152 9156
" />
<path d="M15033 8633
L14914 8990
L15223 8990
" />
<path d="M13847 5523
L13823 5547
L13752 5570
L13704 5570
L13633 5547
L13585 5499
L13561 5451
L13537 5356
L13537 5285
L13561 5190
L13585 5142
L13633 5094
L13704 5070
L13752 5070
L13823 5094
L13847 5118
" />
<path d="M14061 5570
L14061 5070
L14347 5570
L14347 5070
" />
<path d="M14680 5332
L14680 5570
" />
<path d="M14514 5070
L14680 5332
L14847 5070
" />
<path d="M14966 5070
L15299 5070
L15085 5570
" />
<path d="M15585 5070
L15633 5070
L15680 5094
L15704 5118
L15728 5166
L15752 5261
L15752 5380
L15728 5475
L15704 5523
L15680 5547
L15633 5570
L15585 5570
L15537 5547
L15514 5523
L15490 5475
L15466 5380
L15466 5261
L15490 5166
L15514 5118
L15537 5094
L15585 5070
" />
<path d="M16236 8927
L15996 8927
L16167 8847
L15996 8767
L16236 8767
" />
<path d="M16236 8550
L16110 8550
L16087 8562
L16076 8585
L16076 8630
L16087 8653
" />
<path d="M16224 8550
L16236 8573
L16236 8630
L16224 8653
L16201 8665
L16179 8665
L16156 8653
L16144 8630
L16144 8573
L16133 8550
" />
<path d="M16236 8436
L16076 8436
" />
<path d="M16121 8436
L16099 8425
L16087 8413
L16076 8390
L16076 8367
" />
<path d="M16236 8287
L15996 8287
" />
<path d="M16144 8265
L16236 8196
" />
<path d="M16076 8196
L16167 8287
" />
<path d="M16236 8093
L16076 8093
" />
<path d="M15996 8093
L16007 8105
L16019 8093
L16007 8082
L15996 8093
L16019 8093
" />
<path d="M16076 7979
L16236 7979
" />
<path d="M16099 7979
L16087 7967
L16076 7945
L16076 7910
L16087 7887
L16110 7876
L16236 7876
" />
<path d="M16076 7659
L16270 7659
L16293 7670
L16304 7682
L16316 7705
L16316 7739
L16304 7762
" />
<path d="M16224 7659
L16236 7682
L16236 7727
L16224 7750
L16213 7762
L16190 7773
L16121 7773
L16099 7762
L16087 7750
L16076 7727
L16076 7682
L16087 7659
" />
<path d="M16167 7373
L16167 7259
" />
<path d="M16236 7396
L15996 7316
L16236 7236
" />
<path d="M16236 7156
L16076 7156
" />
<path d="M16121 7156
L16099 7145
L16087 7133
L16076 7110
L16076 7087
" />
<path d="M16224 6916
L16236 6939
L16236 6985
L16224 7007
L16201 7019
L16110 7019
L16087 7007
L16076 6985
L16076 6939
L16087 6916
L16110 6905
L16133 6905
L16156 7019
" />
<path d="M16236 6699
L16110 6699
L16087 6710
L16076 6733
L16076 6779
L16087 6802
" />
<path d="M16224 6699
L16236 6722
L16236 6779
L16224 6802
L16201 6813
L16179 6813
L16156 6802
L16144 6779
L16144 6722
L16133 6699
" />
<path d="M8114 8656
L8114 9061
L8138 9109
L8162 9133
L8210 9156
L8305 9156
L8353 9133
L8376 9109
L8400 9061
L8400 8656
" />
<path d="M8591 8656
L8900 8656
L8733 8847
L8805 8847
L8853 8871
L8876 8895
L8900 8942
L8900 9061
L8876 9109
L8853 9133
L8805 9156
L8662 9156
L8614 9133
L8591 9109
" />
<path d="M7548 5523
L7524 5547
L7453 5570
L7405 5570
L7333 5547
L7286 5499
L7262 5451
L7238 5356
L7238 5285
L7262 5190
L7286 5142
L7333 5094
L7405 5070
L7453 5070
L7524 5094
L7548 5118
" />
<path d="M7762 5570
L7762 5070
L8048 5570
L8048 5070
" />
<path d="M8381 5332
L8381 5570
" />
<path d="M8214 5070
L8381 5332
L8548 5070
" />
<path d="M8667 5070
L9000 5070
L8786 5570
" />
<path d="M9286 5070
L9333 5070
L9381 5094
L9405 5118
L9429 5166
L9453 5261
L9453 5380
L9429 5475
L9405 5523
L9381 5547
L9333 5570
L9286 5570
L9238 5547
L9214 5523
L9191 5475
L9167 5380
L9167 5261
L9191 5166
L9214 5118
L9238 5094
L9286 5070
" />
<path d="M9937 8927
L9697 8927
L9868 8847
L9697 8767
L9937 8767
" />
<path d="M9937 8550
L9811 8550
L9788 8562
L9777 8585
L9777 8630
L9788 8653
" />
<path d="M9925 8550
L9937 8573
L9937 8630
L9925 8653
L9902 8665
L9879 8665
L9857 8653
L9845 8630
L9845 8573
L9834 8550
" />
<path d="M9937 8436
L9777 8436
" />
<path d="M9822 8436
L9799 8425
L9788 8413
L9777 8390
L9777 8367
" />
<path d="M9937 8287
L9697 8287
" />
<path d="M9845 8265
L9937 8196
" />
<path d="M9777 8196
L9868 8287
" />
<path d="M9937 8093
L9777 8093
" />
<path d="M9697 8093
L9708 8105
L9719 8093
L9708 8082
L9697 8093
L9719 8093
" />
<path d="M9777 7979
L9937 7979
" />
<path d="M9799 7979
L9788 7967
L9777 7945
L9777 7910
L9788 7887
L9811 7876
L9937 7876
" />
<path d="M9777 7659
L9971 7659
L9994 7670
L10005 7682
L10017 7705
L10017 7739
L10005 7762
" />
<path d="M9925 7659
L9937 7682
L9937 7727
L9925 7750
L9914 7762
L9891 7773
L9822 7773
L9799 7762
L9788 7750
L9777 7727
L9777 7682
L9788 7659
" />
<path d="M9868 7373
L9868 7259
" />
<path d="M9937 7396
L9697 7316
L9937 7236
" />
<path d="M9937 7156
L9777 7156
" />
<path d="M9822 7156
L9799 7145
L9788 7133
L9777 7110
L9777 7087
" />
<path d="M9925 6916
L9937 6939
L9937 6985
L9925 7007
L9902 7019
L9811 7019
L9788 7007
L9777 6985
L9777 6939
L9788 6916
L9811 6905
L9834 6905
L9857 7019
" />
<path d="M9937 6699
L9811 6699
L9788 6710
L9777 6733
L9777 6779
L9788 6802
" />
<path d="M9925 6699
L9937 6722
L9937 6779
L9925 6802
L9902 6813
L9879 6813
L9857 6802
L9845 6779
L9845 6722
L9834 6699
" />
<path d="M17563 8656
L17563 9061
L17587 9109
L17611 9133
L17658 9156
L17754 9156
L17801 9133
L17825 9109
L17849 9061
L17849 8656
" />
<path d="M18039 8656
L18373 8656
L18158 9156
" />
<path d="M16997 5523
L16973 5547
L16901 5570
L16854 5570
L16782 5547
L16735 5499
L16711 5451
L16687 5356
L16687 5285
L16711 5190
L16735 5142
L16782 5094
L16854 5070
L16901 5070
L16973 5094
L16997 5118
" />
<path d="M17211 5570
L17211 5070
L17497 5570
L17497 5070
" />
<path d="M17830 5332
L17830 5570
" />
<path d="M17663 5070
L17830 5332
L17997 5070
" />
<path d="M18116 5070
L18449 5070
L18235 5570
" />
<path d="M18735 5070
L18782 5070
L18830 5094
L18854 5118
L18878 5166
L18901 5261
L18901 5380
L18878 5475
L18854 5523
L18830 5547
L18782 5570
L18735 5570
L18687 5547
L18663 5523
L18639 5475
L18616 5380
L18616 5261
L18639 5166
L18663 5118
L18687 5094
L18735 5070
" />
<path d="M19385 8927
L19145 8927
L19317 8847
L19145 8767
L19385 8767
" />
<path d="M19385 8550
L19260 8550
L19237 8562
L19225 8585
L19225 8630
L19237 8653
" />
<path d="M19374 8550
L19385 8573
L19385 8630
L19374 8653
L19351 8665
L19328 8665
L19305 8653
L19294 8630
L19294 8573
L19282 8550
" />
<path d="M19385 8436
L19225 8436
" />
<path d="M19271 8436
L19248 8425
L19237 8413
L19225 8390
L19225 8367
" />
<path d="M19385 8287
L19145 8287
" />
<path d="M19294 8265
L19385 8196
" />
<path d="M19225 8196
L19317 8287
" />
<path d="M19385 8093
L19225 8093
" />
<path d="M19145 8093
L19157 8105
L19168 8093
L19157 8082
L19145 8093
L19168 8093
" />
<path d="M19225 7979
L19385 7979
" />
<path d="M19248 7979
L19237 7967
L19225 7945
L19225 7910
L19237 7887
L19260 7876
L19385 7876
" />
<path d="M19225 7659
L19420 7659
L19442 7670
L19454 7682
L19465 7705
L19465 7739
L19454 7762
" />
<path d="M19374 7659
L19385 7682
L19385 7727
L19374 7750
L19362 7762
L19340 7773
L19271 7773
L19248 7762
L19237 7750
L19225 7727
L19225 7682
L19237 7659
" />
<path d="M19317 7373
L19317 7259
" />
<path d="M19385 7396
L19145 7316
L19385 7236
" />
<path d="M19385 7156
L19225 7156
" />
<path d="M19271 7156
L19248 7145
L19237 7133
L19225 7110
L19225 7087
" />
<path d="M19374 6916
L19385 6939
L19385 6985
L19374 7007
L19351 7019
L19260 7019
L19237 7007
L19225 6985
L19225 6939
L19237 6916
L19260 6905
L19282 6905
L19305 7019
" />
<path d="M19385 6699
L19260 6699
L19237 6710
L19225 6733
L19225 6779
L19237 6802
" />
<path d="M19374 6699
L19385 6722
L19385 6779
L19374 6802
L19351 6813
L19328 6813
L19305 6802
L19294 6779
L19294 6722
L19282 6699
" />
<path d="M11264 8656
L11264 9061
L11288 9109
L11312 9133
L11359 9156
L11454 9156
L11502 9133
L11526 9109
L11550 9061
L11550 8656
" />
<path d="M12002 8656
L11907 8656
L11859 8680
L11835 8704
L11788 8776
L11764 8871
L11764 9061
L11788 9109
L11812 9133
L11859 9156
L11954 9156
L12002 9133
L12026 9109
L12050 9061
L12050 8942
L12026 8895
L12002 8871
L11954 8847
L11859 8847
L11812 8871
L11788 8895
L11764 8942
" />
<path d="M10697 5523
L10674 5547
L10602 5570
L10554 5570
L10483 5547
L10435 5499
L10412 5451
L10388 5356
L10388 5285
L10412 5190
L10435 5142
L10483 5094
L10554 5070
L10602 5070
L10674 5094
L10697 5118
" />
<path d="M10912 5570
L10912 5070
L11197 5570
L11197 5070
" />
<path d="M11531 5332
L11531 5570
" />
<path d="M11364 5070
L11531 5332
L11697 5070
" />
<path d="M11816 5070
L12150 5070
L11935 5570
" />
<path d="M12435 5070
L12483 5070
L12531 5094
L12554 5118
L12578 5166
L12602 5261
L12602 5380
L12578 5475
L12554 5523
L12531 5547
L12483 5570
L12435 5570
L12388 5547
L12364 5523
L12340 5475
L12316 5380
L12316 5261
L12340 5166
L12364 5118
L12388 5094
L12435 5070
" />
<path d="M13086 8927
L12846 8927
L13018 8847
L12846 8767
L13086 8767
" />
<path d="M13086 8550
L12960 8550
L12938 8562
L12926 8585
L12926 8630
L12938 8653
" />
<path d="M13075 8550
L13086 8573
L13086 8630
L13075 8653
L13052 8665
L13029 8665
L13006 8653
L12995 8630
L12995 8573
L12983 8550
" />
<path d="M13086 8436
L12926 8436
" />
<path d="M12972 8436
L12949 8425
L12938 8413
L12926 8390
L12926 8367
" />
<path d="M13086 8287
L12846 8287
" />
<path d="M12995 8265
L13086 8196
" />
<path d="M12926 8196
L13018 8287
" />
<path d="M13086 8093
L12926 8093
" />
<path d="M12846 8093
L12858 8105
L12869 8093
L12858 8082
L12846 8093
L12869 8093
" />
<path d="M12926 7979
L13086 7979
" />
<path d="M12949 7979
L12938 7967
L12926 7945
L12926 7910
L12938 7887
L12960 7876
L13086 7876
" />
<path d="M12926 7659
L13120 7659
L13143 7670
L13155 7682
L13166 7705
L13166 7739
L13155 7762
" />
<path d="M13075 7659
L13086 7682
L13086 7727
L13075 7750
L13063 7762
L13040 7773
L12972 7773
L12949 7762
L12938 7750
L12926 7727
L12926 7682
L12938 7659
" />
<path d="M13018 7373
L13018 7259
" />
<path d="M13086 7396
L12846 7316
L13086 7236
" />
<path d="M13086 7156
L12926 7156
" />
<path d="M12972 7156
L12949 7145
L12938 7133
L12926 7110
L12926 7087
" />
<path d="M13075 6916
L13086 6939
L13086 6985
L13075 7007
L13052 7019
L12960 7019
L12938 7007
L12926 6985
L12926 6939
L12938 6916
L12960 6905
L12983 6905
L13006 7019
" />
<path d="M13086 6699
L12960 6699
L12938 6710
L12926 6733
L12926 6779
L12938 6802
" />
<path d="M13075 6699
L13086 6722
L13086 6779
L13075 6802
L13052 6813
L13029 6813
L13006 6802
L12995 6779
L12995 6722
L12983 6699
" />
</g>
<g style="fill:#9F009F; fill-opacity:0.0; 
stroke:#9F009F; stroke-width:43; stroke-opacity:1; 
stroke-linecap:round; stroke-linejoin:round;">
<path d="M20737 28947
L20747 28957
L20775 28966
L20794 28966
L20822 28957
L20840 28938
L20850 28919
L20859 28882
L20859 28854
L20850 28816
L20840 28797
L20822 28779
L20794 28769
L20775 28769
L20747 28779
L20737 28788
" />
<path d="M20559 28769
L20653 28769
L20662 28863
L20653 28854
L20634 28844
L20587 28844
L20568 28854
L20559 28863
L20550 28882
L20550 28929
L20559 28947
L20568 28957
L20587 28966
L20634 28966
L20653 28957
L20662 28947
" />
<path d="M20991 29241
L21103 29241
" />
<path d="M21047 29241
L21047 29044
L21066 29072
L21084 29091
L21103 29101
" />
<path d="M20869 29044
L20850 29044
L20831 29054
L20822 29063
L20812 29082
L20803 29119
L20803 29166
L20812 29204
L20822 29222
L20831 29232
L20850 29241
L20869 29241
L20887 29232
L20897 29222
L20906 29204
L20915 29166
L20915 29119
L20906 29082
L20897 29063
L20887 29054
L20869 29044
" />
<path d="M20568 29110
L20568 29241
" />
<path d="M20568 29129
L20559 29119
L20540 29110
L20512 29110
L20493 29119
L20484 29138
L20484 29241
" />
<path d="M20324 29138
L20390 29138
" />
<path d="M20390 29241
L20390 29044
L20296 29044
" />
</g>
<g style="fill:#9F009F; fill-opacity:0.0; 
stroke:#9F009F; stroke-width:150; stroke-opacity:1; 
stroke-linecap:round; stroke-linejoin:round;">
<path d="M19208 30380
L21808 30380
" />
<path d="M21808 30380
L21808 31830
" />
<path d="M19208 31830
L19208 30380
" />
<path d="M19208 31830
L21808 31830
" />
</g>
<g style="fill:#9F009F; fill-opacity:0.0; 
stroke:#9F009F; stroke-width:39; stroke-opacity:1; 
stroke-linecap:round; stroke-linejoin:round;">
<circle cx="21354.9" cy="29312" r="50" /> 
<path d="M20904 29312
L21304 29312
" />
<path d="M21304 29312
L21304 28712
" />
<path d="M21304 28712
L20904 28712
" />
<path d="M20504 28712
L20104 28712
" />
<path d="M20104 28712
L20104 29312
" />
<path d="M20104 29312
L20504 29312
" />
</g> 
</svg>
