<?xml version="1.0" standalone="no"?>
 <!DOCTYPE svg PUBLIC "-//W3C//DTD SVG 1.1//EN" 
 "http://www.w3.org/Graphics/SVG/1.1/DTD/svg11.dtd"> 
<svg xmlns="http://www.w3.org/2000/svg" version="1.1" 
    width="6.71576cm" height="10.0381cm" viewBox="0 0 26440 39520 ">
<title>SVG Picture created as placa_principal-Back.svg date 2013/05/26 16:18:32 </title>
  <desc>Picture generated by PCBNEW </desc>
<g style="fill:#000000; fill-opacity:1;stroke:#000000; stroke-opacity:1;
stroke-linecap:round; stroke-linejoin:round; "
 transform="translate(0 0) scale(1 1)">
</g>
<g style="fill:#009F00; fill-opacity:0.0; 
stroke:#009F00; stroke-width:246.063; stroke-opacity:1; 
stroke-linecap:round; stroke-linejoin:round;">
<path d="M8694 33979
L7963 33979
L8356 34504
L8188 34504
L8075 34569
L8019 34635
L7963 34766
L7963 35094
L8019 35225
L8075 35291
L8188 35357
L8525 35357
L8637 35291
L8694 35225
" />
<path d="M7456 35225
L7400 35291
L7456 35357
L7513 35291
L7456 35225
L7456 35357
" />
<path d="M6275 35357
L6950 35357
" />
<path d="M6613 35357
L6613 33979
L6725 34176
L6838 34307
L6950 34372
" />
<path d="M5263 34438
L5263 35357
" />
<path d="M5544 33913
L5825 34897
L5094 34897
" />
<path d="M4813 33979
L4138 33979
" />
<path d="M4476 35357
L4476 33979
" />
<path d="M3744 35357
L3744 33979
" />
<path d="M3351 33979
L2676 33979
" />
<path d="M3013 35357
L3013 33979
" />
<path d="M2057 33979
L1832 33979
L1720 34044
L1607 34176
L1551 34438
L1551 34897
L1607 35160
L1720 35291
L1832 35357
L2057 35357
L2170 35291
L2282 35160
L2338 34897
L2338 34438
L2282 34176
L2170 34044
L2057 33979
" />
</g>
<g style="fill:#FFFF00; fill-opacity:0.0; 
stroke:#FFFF00; stroke-width:150; stroke-opacity:1; 
stroke-linecap:round; stroke-linejoin:round;">
<path d="M10114 1256
L18775 1256
" />
<path d="M10114 5193
L10114 1256
" />
<path d="M18775 5193
L10114 5193
" />
<path d="M18775 1256
L18775 5193
" />
<path d="M25665 39445
L75 39445
" />
<path d="M25665 75
L25665 39445
" />
<path d="M75 75
L25665 75
" />
<path d="M75 39445
L75 75
" />
</g>
<g style="fill:#7F7F00; fill-opacity:0.0; 
stroke:#7F7F00; stroke-width:39.3701; stroke-opacity:1; 
stroke-linecap:round; stroke-linejoin:round;">
</g>
<g style="fill:#7F7F00; fill-opacity:1.0; 
stroke:#7F7F00; stroke-width:39.3701; stroke-opacity:1; 
stroke-linecap:round; stroke-linejoin:round;">
<circle cx="4421.46" cy="25472.6" r="314.961" /> 
<circle cx="2421.46" cy="25472.6" r="314.961" /> 
<circle cx="4421.46" cy="22472.6" r="314.961" /> 
<circle cx="2421.46" cy="22472.6" r="314.961" /> 
<circle cx="4421.46" cy="21456.9" r="314.961" /> 
<circle cx="2421.46" cy="21456.9" r="314.961" /> 
<circle cx="4421.46" cy="18456.9" r="314.961" /> 
<circle cx="2421.46" cy="18456.9" r="314.961" /> 
<circle cx="25000.2" cy="18760" r="314.961" /> 
<circle cx="25000.2" cy="20760" r="314.961" /> 
<circle cx="22000.2" cy="18760" r="314.961" /> 
<circle cx="22000.2" cy="20760" r="314.961" /> 
</g>
<g style="fill:#009F00; fill-opacity:1.0; 
stroke:#009F00; stroke-width:39.3701; stroke-opacity:1; 
stroke-linecap:round; stroke-linejoin:round;">
<polyline style="fill-rule:evenodd;"
points="19909,30266
19909,29794
20106,29794
20106,30266
19909,30266
" /> 
<polyline style="fill-rule:evenodd;"
points="19409,30266
19409,29794
19606,29794
19606,30266
19409,30266
" /> 
<polyline style="fill-rule:evenodd;"
points="21409,30266
21409,29794
21606,29794
21606,30266
21409,30266
" /> 
<polyline style="fill-rule:evenodd;"
points="20909,30266
20909,29794
21106,29794
21106,30266
20909,30266
" /> 
<polyline style="fill-rule:evenodd;"
points="20409,30266
20409,29794
20606,29794
20606,30266
20409,30266
" /> 
<polyline style="fill-rule:evenodd;"
points="19917,32396
19917,31964
21098,31964
21098,32396
19917,32396
" /> 
</g>
<g style="fill:#7F7F00; fill-opacity:1.0; 
stroke:#7F7F00; stroke-width:39.3701; stroke-opacity:1; 
stroke-linecap:round; stroke-linejoin:round;">
<circle cx="11220.7" cy="28618.3" r="314.961" /> 
<circle cx="8220.67" cy="28618.3" r="314.961" /> 
<circle cx="15626.2" cy="21456.9" r="314.961" /> 
<circle cx="15626.2" cy="18456.9" r="314.961" /> 
<circle cx="8661.61" cy="19169.5" r="314.961" /> 
<circle cx="5661.61" cy="19169.5" r="314.961" /> 
<polyline style="fill-rule:evenodd;"
points="21932,22416
22493,22416
22493,22977
21932,22977
21932,22416
" /> 
<circle cx="23212.8" cy="22697" r="334.646" /> 
<circle cx="22212.8" cy="23697" r="334.646" /> 
<circle cx="23212.8" cy="23697" r="334.646" /> 
<circle cx="22212.8" cy="24697" r="334.646" /> 
<circle cx="23212.8" cy="24697" r="334.646" /> 
<polyline style="fill-rule:evenodd;"
points="19409,27968
19409,27299
20078,27299
20078,27968
19409,27968
" /> 
<circle cx="20744.3" cy="27634.1" r="334.646" /> 
<circle cx="21744.3" cy="27634.1" r="334.646" /> 
<polyline style="fill-rule:evenodd;"
points="20803,1929
21472,1929
21472,2598
20803,2598
20803,1929
" /> 
<circle cx="21138" cy="3263.98" r="334.646" /> 
<circle cx="21138" cy="4263.98" r="334.646" /> 
<polyline style="fill-rule:evenodd;"
points="3185,6220
3854,6220
3854,6889
3185,6889
3185,6220
" /> 
<circle cx="3519.88" cy="7555.32" r="334.646" /> 
<circle cx="3519.88" cy="8555.32" r="334.646" /> 
<polyline style="fill-rule:evenodd;"
points="24563,3307
25232,3307
25232,3976
24563,3976
24563,3307
" /> 
<circle cx="24897.8" cy="4641.93" r="334.646" /> 
<circle cx="24897.8" cy="5641.93" r="334.646" /> 
<polyline style="fill-rule:evenodd;"
points="21000,6614
21669,6614
21669,7283
21000,7283
21000,6614
" /> 
<circle cx="21334.8" cy="7949.02" r="334.646" /> 
<circle cx="21334.8" cy="8949.02" r="334.646" /> 
<polyline style="fill-rule:evenodd;"
points="3185,1594
3854,1594
3854,2263
3185,2263
3185,1594
" /> 
<circle cx="3519.88" cy="2929.33" r="334.646" /> 
<circle cx="3519.88" cy="3929.33" r="334.646" /> 
<polyline style="fill-rule:evenodd;"
points="13019,29681
13019,29012
13689,29012
13689,29681
13019,29681
" /> 
<circle cx="14354.5" cy="29346.7" r="334.646" /> 
<polyline style="fill-rule:evenodd;"
points="8086,15279
7417,15279
7417,14610
8086,14610
8086,15279
" /> 
<circle cx="7752.17" cy="13945.1" r="334.646" /> 
<polyline style="fill-rule:evenodd;"
points="25212,8389
24543,8389
24543,7720
25212,7720
25212,8389
" /> 
<circle cx="24878.2" cy="7055.32" r="334.646" /> 
<polyline style="fill-rule:evenodd;"
points="8996,15818
8996,15071
9744,15071
9744,15818
8996,15818
" /> 
<circle cx="9870.28" cy="13445.1" r="373.815" /> 
<circle cx="10370.3" cy="15445.1" r="373.815" /> 
<circle cx="10870.3" cy="13445.1" r="373.815" /> 
<circle cx="11370.3" cy="15445.1" r="373.815" /> 
<circle cx="11870.3" cy="13445.1" r="373.815" /> 
<circle cx="12370.3" cy="15445.1" r="373.815" /> 
<circle cx="12870.3" cy="13445.1" r="373.815" /> 
<circle cx="13370.3" cy="15445.1" r="373.815" /> 
<circle cx="13870.3" cy="13445.1" r="373.815" /> 
<circle cx="14370.3" cy="15445.1" r="373.815" /> 
<circle cx="14870.3" cy="13445.1" r="373.815" /> 
<circle cx="15370.3" cy="15445.1" r="373.815" /> 
<circle cx="15870.3" cy="13445.1" r="373.815" /> 
<circle cx="16370.3" cy="15445.1" r="373.815" /> 
</g>
<g style="fill:#7F7F00; fill-opacity:1.0; 
stroke:#7F7F00; stroke-width:620; stroke-opacity:1; 
stroke-linecap:round; stroke-linejoin:round;">
<path d="M8551 25450
L8551 25730
" />
<path d="M9551 25450
L9551 25730
" />
<path d="M10551 25450
L10551 25730
" />
<path d="M11551 25450
L11551 25730
" />
<path d="M12551 25450
L12551 25730
" />
<path d="M13551 25450
L13551 25730
" />
<path d="M14551 25450
L14551 25730
" />
<path d="M15551 25450
L15551 25730
" />
<path d="M16551 25450
L16551 25730
" />
<path d="M17551 25450
L17551 25730
" />
<path d="M18551 25450
L18551 25730
" />
<path d="M19551 25450
L19551 25730
" />
<path d="M20551 25450
L20551 25730
" />
</g>
<g style="fill:#7F7F00; fill-opacity:1.0; 
stroke:#7F7F00; stroke-width:39.3701; stroke-opacity:1; 
stroke-linecap:round; stroke-linejoin:round;">
<polyline style="fill-rule:evenodd;"
points="7261,26021
7261,25160
7841,25160
7841,26021
7261,26021
" /> 
</g>
<g style="fill:#7F7F00; fill-opacity:1.0; 
stroke:#7F7F00; stroke-width:620; stroke-opacity:1; 
stroke-linecap:round; stroke-linejoin:round;">
<path d="M20551 22450
L20551 22730
" />
<path d="M19551 22450
L19551 22730
" />
<path d="M18551 22450
L18551 22730
" />
<path d="M17551 22450
L17551 22730
" />
<path d="M16551 22450
L16551 22730
" />
<path d="M15551 22450
L15551 22730
" />
<path d="M14551 22450
L14551 22730
" />
<path d="M13551 22450
L13551 22730
" />
<path d="M12551 22450
L12551 22730
" />
<path d="M11551 22450
L11551 22730
" />
<path d="M10551 22450
L10551 22730
" />
<path d="M9551 22450
L9551 22730
" />
<path d="M8551 22450
L8551 22730
" />
<path d="M7551 22450
L7551 22730
" />
</g>
<g style="fill:#7F7F00; fill-opacity:1.0; 
stroke:#7F7F00; stroke-width:39.3701; stroke-opacity:1; 
stroke-linecap:round; stroke-linejoin:round;">
<polyline style="fill-rule:evenodd;"
points="6886,11291
6256,11291
6256,10661
6886,10661
6886,11291
" /> 
<circle cx="6571.06" cy="13976.6" r="314.961" /> 
<polyline style="fill-rule:evenodd;"
points="19484,11291
18854,11291
18854,10661
19484,10661
19484,11291
" /> 
<circle cx="19169.5" cy="13976.6" r="314.961" /> 
<polyline style="fill-rule:evenodd;"
points="19484,15031
18854,15031
18854,14401
19484,14401
19484,15031
" /> 
<circle cx="19169.5" cy="17716.7" r="314.961" /> 
<polyline style="fill-rule:evenodd;"
points="20468,15031
19838,15031
19838,14401
20468,14401
20468,15031
" /> 
<circle cx="20153.7" cy="17716.7" r="314.961" /> 
<polyline style="fill-rule:evenodd;"
points="20468,11291
19838,11291
19838,10661
20468,10661
20468,11291
" /> 
<circle cx="20153.7" cy="13976.6" r="314.961" /> 
<polyline style="fill-rule:evenodd;"
points="6886,15031
6256,15031
6256,14401
6886,14401
6886,15031
" /> 
<circle cx="6571.06" cy="17716.7" r="314.961" /> 
<polyline style="fill-rule:evenodd;"
points="5901,15031
5271,15031
5271,14401
5901,14401
5901,15031
" /> 
<circle cx="5586.81" cy="17716.7" r="314.961" /> 
<polyline style="fill-rule:evenodd;"
points="5901,11291
5271,11291
5271,10661
5901,10661
5901,11291
" /> 
<circle cx="5586.81" cy="13976.6" r="314.961" /> 
<polyline style="fill-rule:evenodd;"
points="7240,515
7870,515
7870,1145
7240,1145
7240,515
" /> 
<circle cx="7555.32" cy="4830.91" r="314.961" /> 
<polyline style="fill-rule:evenodd;"
points="12720,17319
12720,16689
13350,16689
13350,17319
12720,17319
" /> 
<circle cx="17035.6" cy="17004.1" r="314.961" /> 
<polyline style="fill-rule:evenodd;"
points="9374,11807
9374,11177
10004,11177
10004,11807
9374,11807
" /> 
<circle cx="13689.2" cy="11492.3" r="314.961" /> 
<circle cx="13945.1" cy="6661.61" r="295.276" /> 
<circle cx="14945.1" cy="7661.61" r="295.276" /> 
<circle cx="14945.1" cy="6661.61" r="295.276" /> 
<circle cx="13945.1" cy="7661.61" r="295.276" /> 
<circle cx="7645.87" cy="6661.61" r="295.276" /> 
<circle cx="8645.87" cy="7661.61" r="295.276" /> 
<circle cx="8645.87" cy="6661.61" r="295.276" /> 
<circle cx="7645.87" cy="7661.61" r="295.276" /> 
<circle cx="17094.7" cy="6661.61" r="295.276" /> 
<circle cx="18094.7" cy="7661.61" r="295.276" /> 
<circle cx="18094.7" cy="6661.61" r="295.276" /> 
<circle cx="17094.7" cy="7661.61" r="295.276" /> 
<circle cx="10795.5" cy="6661.61" r="295.276" /> 
<circle cx="11795.5" cy="7661.61" r="295.276" /> 
<circle cx="11795.5" cy="6661.61" r="295.276" /> 
<circle cx="10795.5" cy="7661.61" r="295.276" /> 
<circle cx="13551.4" cy="26846.7" r="314.961" /> 
<circle cx="14551.4" cy="26846.7" r="314.961" /> 
<circle cx="14551.4" cy="21334.8" r="314.961" /> 
<circle cx="13551.4" cy="21334.8" r="314.961" /> 
<circle cx="6728.54" cy="28748.2" r="314.961" /> 
<circle cx="6728.54" cy="29748.2" r="314.961" /> 
<circle cx="13551.4" cy="20153.7" r="314.961" /> 
<circle cx="14551.4" cy="20153.7" r="314.961" /> 
<polyline style="fill-rule:evenodd;"
points="24267,17197
23126,17197
23126,16055
24267,16055
24267,17197
" /> 
<circle cx="23697" cy="14626.2" r="570.866" /> 
<polyline style="fill-rule:evenodd;"
points="17653,13610
18323,13610
18323,14279
17653,14279
17653,13610
" /> 
<circle cx="17988.4" cy="14945.1" r="334.646" /> 
<polyline style="fill-rule:evenodd;"
points="24464,29204
23323,29204
23323,28063
24464,28063
24464,29204
" /> 
<circle cx="23893.9" cy="26634.1" r="570.866" /> 
<polyline style="fill-rule:evenodd;"
points="7689,30134
7689,29464
8358,29464
8358,30134
7689,30134
" /> 
<circle cx="9023.82" cy="29799.4" r="334.646" /> 
<circle cx="10023.8" cy="29799.4" r="334.646" /> 
<circle cx="11023.8" cy="29799.4" r="334.646" /> 
<circle cx="12870.3" cy="3224.61" r="780.315" /> 
<circle cx="11689.2" cy="27437.2" r="374.016" /> 
<circle cx="10508.1" cy="27437.2" r="374.016" /> 
<circle cx="4405.71" cy="17397.8" r="374.016" /> 
<circle cx="2043.5" cy="30783.7" r="374.016" /> 
<circle cx="2043.5" cy="37476.6" r="374.016" /> 
<circle cx="23697" cy="37476.6" r="374.016" /> 
<circle cx="23697" cy="30783.7" r="374.016" /> 
<circle cx="12870.3" cy="3224.61" r="374.016" /> 
<polyline style="fill-rule:evenodd;"
points="16945,20988
16275,20988
16275,20319
16945,20319
16945,20988
" /> 
<circle cx="16610.4" cy="19653.7" r="334.646" /> 
</g>
<g style="fill:#009F00; fill-opacity:1.0; 
stroke:#009F00; stroke-width:39.3701; stroke-opacity:1; 
stroke-linecap:round; stroke-linejoin:round;">
<polyline style="fill-rule:evenodd;"
points="21235,28756
21235,29267
20924,29267
20924,28756
21235,28756
" /> 
<polyline style="fill-rule:evenodd;"
points="20485,28756
20485,29267
20174,29267
20174,28756
20485,28756
" /> 
</g>
<g style="fill:#7F7F00; fill-opacity:1.0; 
stroke:#7F7F00; stroke-width:39.3701; stroke-opacity:1; 
stroke-linecap:round; stroke-linejoin:round;">
<circle cx="8578.94" cy="4212.8" r="255.315" /> 
<circle cx="8578.94" cy="1212.8" r="255.315" /> 
<circle cx="22515.9" cy="5661.61" r="255.315" /> 
<circle cx="22515.9" cy="8661.61" r="255.315" /> 
<circle cx="5586.81" cy="5551.38" r="255.315" /> 
<circle cx="5586.81" cy="2551.38" r="255.315" /> 
<circle cx="19956.9" cy="1685.24" r="255.315" /> 
<circle cx="19956.9" cy="4685.24" r="255.315" /> 
<circle cx="19661.6" cy="6685.24" r="255.315" /> 
<circle cx="19661.6" cy="9685.24" r="255.315" /> 
<circle cx="2338.78" cy="9055.32" r="255.315" /> 
<circle cx="2338.78" cy="6055.32" r="255.315" /> 
<circle cx="2338.78" cy="1429.33" r="255.315" /> 
<circle cx="2338.78" cy="4429.33" r="255.315" /> 
<circle cx="22791.5" cy="1645.87" r="255.315" /> 
<circle cx="22791.5" cy="4645.87" r="255.315" /> 
<circle cx="8736.42" cy="21374.2" r="374.016" /> 
<circle cx="7555.32" cy="21393.9" r="374.016" /> 
<circle cx="4071.06" cy="26512" r="374.016" /> 
<circle cx="5665.55" cy="27515.9" r="374.016" /> 
<circle cx="23460.8" cy="10508.1" r="374.016" /> 
<circle cx="24445.1" cy="11354.5" r="374.016" /> 
</g>
<g style="fill:#BFBFBF; fill-opacity:1.0; 
stroke:#BFBFBF; stroke-width:39.3701; stroke-opacity:1; 
stroke-linecap:round; stroke-linejoin:round;">
<circle cx="23618.3" cy="8637.99" r="155.315" /> 
<circle cx="21393.9" cy="21492.3" r="155.315" /> 
<circle cx="24543.5" cy="22693.1" r="155.315" /> 
<circle cx="9838.78" cy="30744.3" r="155.315" /> 
<circle cx="9878.15" cy="36118.3" r="155.315" /> 
<circle cx="7122.24" cy="18382.1" r="155.315" /> 
<circle cx="21807.3" cy="33933.3" r="155.315" /> 
<circle cx="11649.8" cy="9169.49" r="155.315" /> 
<circle cx="14681.3" cy="9130.12" r="155.315" /> 
<circle cx="9326.97" cy="9130.12" r="155.315" /> 
<circle cx="17634.1" cy="9130.12" r="155.315" /> 
<circle cx="9582.87" cy="626.181" r="155.315" /> 
<circle cx="24858.5" cy="25212.8" r="155.315" /> 
<circle cx="24130.1" cy="6354.53" r="155.315" /> 
<circle cx="11866.3" cy="11590.7" r="155.315" /> 
<circle cx="5271.85" cy="9819.09" r="155.315" /> 
<circle cx="12693.1" cy="14464.8" r="155.315" /> 
<circle cx="7909.65" cy="10370.3" r="155.315" /> 
<circle cx="3519.88" cy="32594.7" r="155.315" /> 
<circle cx="10508.1" cy="16905.7" r="155.315" /> 
<circle cx="11138" cy="17890" r="155.315" /> 
<circle cx="4799.41" cy="32397.8" r="155.315" /> 
<circle cx="20114.4" cy="20350.6" r="155.315" /> 
<circle cx="21138" cy="17988.4" r="155.315" /> 
<circle cx="18106.5" cy="19386" r="155.315" /> 
<circle cx="14937.2" cy="14386" r="155.315" /> 
<circle cx="18795.5" cy="31827" r="155.315" /> 
<circle cx="12594.7" cy="28204.9" r="155.315" /> 
<circle cx="17102.6" cy="32043.5" r="155.315" /> 
<circle cx="17397.8" cy="23815.2" r="155.315" /> 
<circle cx="13992.3" cy="27890" r="155.315" /> 
<circle cx="23401.8" cy="21453" r="155.315" /> 
<circle cx="18992.3" cy="23323" r="155.315" /> 
<circle cx="24878.2" cy="9523.82" r="155.315" /> 
<circle cx="9464.76" cy="18441.1" r="155.315" /> 
<circle cx="7594.69" cy="17693.1" r="155.315" /> 
<circle cx="3263.98" cy="9878.15" r="155.315" /> 
<circle cx="9523.82" cy="20606.5" r="155.315" /> 
<circle cx="4602.56" cy="3047.44" r="155.315" /> 
<circle cx="7929.33" cy="17122.2" r="155.315" /> 
<circle cx="10547.4" cy="20626.2" r="155.315" /> 
<circle cx="10567.1" cy="18578.9" r="155.315" /> 
<circle cx="11571.1" cy="20744.3" r="155.315" /> 
<circle cx="15980.5" cy="6610.43" r="155.315" /> 
<circle cx="19956.9" cy="3697.05" r="155.315" /> 
<circle cx="20527.8" cy="7949.02" r="155.315" /> 
<circle cx="12476.6" cy="20704.9" r="155.315" /> 
<circle cx="1354.53" cy="11827" r="155.315" /> 
<circle cx="1472.64" cy="18086.8" r="155.315" /> 
<circle cx="21748.2" cy="26472.6" r="155.315" /> 
<circle cx="18008.1" cy="10468.7" r="155.315" /> 
<circle cx="19582.9" cy="18893.9" r="155.315" /> 
<circle cx="20527.8" cy="32929.3" r="155.315" /> 
<circle cx="13401.8" cy="34464.8" r="155.315" /> 
<circle cx="13362.4" cy="33441.1" r="155.315" /> 
<circle cx="13382.1" cy="30921.5" r="155.315" /> 
<circle cx="23697" cy="18008.1" r="155.315" /> 
<circle cx="21118.3" cy="26886" r="155.315" /> 
</g>
<g style="fill:#009F00; fill-opacity:1.0; 
stroke:#009F00; stroke-width:200; stroke-opacity:1; 
stroke-linecap:round; stroke-linejoin:round;">
<path d="M23460 10508
L23598 10508
" />
<path d="M23598 10508
L24445 11354
" />
<path d="M24208 9760
L23460 10508
" />
<path d="M24208 9228
L24208 9760
" />
<path d="M23618 8637
L24208 9228
" />
<path d="M22702 21482
L22299 21482
" />
<path d="M21403 21482
L21393 21492
" />
<path d="M22299 21482
L21403 21482
" />
<path d="M5586 2551
L8228 2551
" />
<path d="M8228 2551
L8578 2200
" />
<path d="M8578 2200
L8578 1212
" />
<path d="M11795 7661
L11795 9023
" />
<path d="M11795 9023
L11649 9169
" />
<path d="M14945 7661
L14945 8866
" />
<path d="M14945 8866
L14681 9130
" />
<path d="M18094 7661
L18094 8669
" />
<path d="M18094 8669
L17634 9130
" />
<path d="M22515 8661
L22515 9386
" />
<path d="M22220 9681
L20685 9681
" />
<path d="M22515 9386
L22220 9681
" />
<path d="M20685 9681
L19366 8362
" />
<path d="M18795 8362
L18094 7661
" />
<path d="M19366 8362
L18795 8362
" />
<path d="M9326 9130
L9326 8342
" />
<path d="M9326 8342
L8645 7661
" />
<path d="M23212 22697
L23212 21992
" />
<path d="M23212 21992
L22702 21482
" />
<path d="M22702 21482
L22693 21472
" />
<path d="M21807 33933
L19819 33933
" />
<path d="M19819 33933
L19366 34386
" />
<path d="M23212 22697
L24539 22697
" />
<path d="M24539 22697
L24543 22693
" />
<path d="M13551 26846
L13551 25590
" />
<path d="M11220 28618
L13185 28618
" />
<path d="M13185 28618
L13551 28252
" />
<path d="M13551 28252
L13551 26846
" />
<path d="M11023 29799
L11023 28815
" />
<path d="M11023 28815
L11220 28618
" />
<path d="M20008 30030
L20008 31008
" />
<path d="M20008 31008
L19366 31649
" />
<path d="M19366 31649
L19366 34386
" />
<path d="M18834 36787
L10547 36787
" />
<path d="M11023 30445
L11023 29799
" />
<path d="M10685 30783
L11023 30445
" />
<path d="M9878 30783
L10685 30783
" />
<path d="M9838 30744
L9878 30783
" />
<path d="M10547 36787
L9878 36118
" />
<path d="M19366 34386
L19366 36256
" />
<path d="M19366 36256
L18834 36787
" />
<path d="M7122 18382
L7909 19169
" />
<path d="M7909 19169
L8661 19169
" />
<path d="M13035 17004
L13035 18964
" />
<path d="M12830 19169
L8661 19169
" />
<path d="M13035 18964
L12830 19169
" />
<path d="M13035 17004
L13035 15779
" />
<path d="M13035 15779
L13370 15445
" />
<path d="M15626 21456
L15626 20429
" />
<path d="M15350 20153
L14551 20153
" />
<path d="M15626 20429
L15350 20153
" />
<path d="M15551 22590
L15551 21531
" />
<path d="M15551 21531
L15626 21456
" />
</g>
<g style="fill:#009F00; fill-opacity:1.0; 
stroke:#009F00; stroke-width:120; stroke-opacity:1; 
stroke-linecap:round; stroke-linejoin:round;">
<path d="M7909 19169
L8661 19169
" />
<path d="M23212 21992
L22693 21472
" />
<path d="M13035 15779
L13370 15445
" />
<path d="M18815 8382
L18094 7661
" />
<path d="M20685 9681
L19386 8382
" />
<path d="M19386 8382
L18815 8382
" />
<path d="M11649 9169
L11795 9023
" />
<path d="M14681 9130
L14945 8866
" />
<path d="M17634 9130
L18094 8669
" />
<path d="M8578 2200
L8578 1212
" />
<path d="M8228 2551
L8578 2200
" />
<path d="M13185 28618
L13551 28252
" />
<path d="M13551 28252
L13551 26846
" />
</g>
<g style="fill:#009F00; fill-opacity:1.0; 
stroke:#009F00; stroke-width:200; stroke-opacity:1; 
stroke-linecap:round; stroke-linejoin:round;">
<path d="M9582 626
L7760 626
" />
<path d="M7760 626
L7555 830
" />
<path d="M24897 5641
L24842 5641
" />
<path d="M24842 5641
L24130 6354
" />
<path d="M21744 27634
L22909 27634
" />
<path d="M23893 26649
L23893 26634
" />
<path d="M22909 27634
L23893 26649
" />
<path d="M23893 25449
L24130 25212
" />
<path d="M24130 25212
L24858 25212
" />
<path d="M23893 26634
L23893 25449
" />
</g>
<g style="fill:#009F00; fill-opacity:1.0; 
stroke:#009F00; stroke-width:120; stroke-opacity:1; 
stroke-linecap:round; stroke-linejoin:round;">
<path d="M24842 5641
L24130 6354
" />
</g>
<g style="fill:#009F00; fill-opacity:1.0; 
stroke:#009F00; stroke-width:200; stroke-opacity:1; 
stroke-linecap:round; stroke-linejoin:round;">
<path d="M10870 13445
L10870 12673
" />
<path d="M10870 12673
L9689 11492
" />
<path d="M20153 10976
L19169 10976
" />
<path d="M23697 14626
L23697 12043
" />
<path d="M22630 10976
L20153 10976
" />
<path d="M23697 12043
L22630 10976
" />
</g>
<g style="fill:#009F00; fill-opacity:1.0; 
stroke:#009F00; stroke-width:160; stroke-opacity:1; 
stroke-linecap:round; stroke-linejoin:round;">
<path d="M6571 10976
L5586 10976
" />
<path d="M9689 11492
L9689 11106
" />
<path d="M9689 11106
L9559 10976
" />
<path d="M9559 10976
L6571 10976
" />
<path d="M9689 11492
L9689 11031
" />
<path d="M19075 10882
L19169 10976
" />
<path d="M9838 10882
L19075 10882
" />
<path d="M9689 11031
L9838 10882
" />
</g>
<g style="fill:#009F00; fill-opacity:1.0; 
stroke:#009F00; stroke-width:200; stroke-opacity:1; 
stroke-linecap:round; stroke-linejoin:round;">
<path d="M15551 30173
L15551 30287
" />
<path d="M14445 31393
L7004 31393
" />
<path d="M15551 30287
L14445 31393
" />
<path d="M11870 13445
L11870 11594
" />
<path d="M11870 11594
L11866 11590
" />
<path d="M15551 25590
L15551 30173
" />
<path d="M1059 14031
L5271 9819
" />
<path d="M1059 25449
L1059 14031
" />
<path d="M7004 31393
L1059 25449
" />
</g>
<g style="fill:#009F00; fill-opacity:1.0; 
stroke:#009F00; stroke-width:120; stroke-opacity:1; 
stroke-linecap:round; stroke-linejoin:round;">
<path d="M11866 11590
L11870 11594
" />
</g>
<g style="fill:#009F00; fill-opacity:1.0; 
stroke:#009F00; stroke-width:200; stroke-opacity:1; 
stroke-linecap:round; stroke-linejoin:round;">
<path d="M16551 29858
L16551 30134
" />
<path d="M14858 31826
L6610 31826
" />
<path d="M16551 30134
L14858 31826
" />
<path d="M14370 15445
L14370 14744
" />
<path d="M14090 14464
L12693 14464
" />
<path d="M14370 14744
L14090 14464
" />
<path d="M16551 25590
L16551 29858
" />
<path d="M6610 31826
L567 25783
" />
<path d="M567 25783
L567 13637
" />
<path d="M567 13637
L4878 9326
" />
<path d="M4878 9326
L6866 9326
" />
<path d="M6866 9326
L7909 10370
" />
<path d="M10508 16905
L10508 16846
" />
<path d="M11370 15984
L11370 15445
" />
<path d="M10508 16846
L11370 15984
" />
<path d="M4090 32909
L3834 32909
" />
<path d="M3834 32909
L3519 32594
" />
<path d="M16187 32151
L15429 32909
" />
<path d="M3834 32909
L3519 32594
" />
<path d="M15429 32909
L4090 32909
" />
<path d="M18551 25590
L18551 25850
" />
<path d="M18551 25850
L17752 26649
" />
<path d="M17752 26649
L17752 30586
" />
<path d="M17752 30586
L16187 32151
" />
<path d="M16187 32151
L15547 32791
" />
</g>
<g style="fill:#009F00; fill-opacity:1.0; 
stroke:#009F00; stroke-width:120; stroke-opacity:1; 
stroke-linecap:round; stroke-linejoin:round;">
<path d="M17752 30586
L15547 32791
" />
<path d="M17752 26649
L17752 30586
" />
<path d="M18551 25850
L17752 26649
" />
</g>
<g style="fill:#009F00; fill-opacity:1.0; 
stroke:#009F00; stroke-width:200; stroke-opacity:1; 
stroke-linecap:round; stroke-linejoin:round;">
<path d="M12370 15445
L12370 17641
" />
<path d="M12122 17889
L11137 17889
" />
<path d="M12370 17641
L12122 17889
" />
<path d="M4878 32319
L15232 32319
" />
<path d="M4799 32397
L4878 32319
" />
<path d="M15232 32319
L17161 30389
" />
<path d="M17161 30389
L17161 25980
" />
<path d="M17161 25980
L17551 25590
" />
</g>
<g style="fill:#009F00; fill-opacity:1.0; 
stroke:#009F00; stroke-width:120; stroke-opacity:1; 
stroke-linecap:round; stroke-linejoin:round;">
<path d="M17161 30389
L15232 32319
" />
</g>
<g style="fill:#009F00; fill-opacity:1.0; 
stroke:#009F00; stroke-width:200; stroke-opacity:1; 
stroke-linecap:round; stroke-linejoin:round;">
<path d="M21137 13362
L21137 12850
" />
<path d="M13870 13169
L13870 13445
" />
<path d="M14661 12378
L13870 13169
" />
<path d="M20665 12378
L14661 12378
" />
<path d="M21137 12850
L20665 12378
" />
<path d="M21137 17988
L21137 13362
" />
<path d="M20551 22590
L20551 20787
" />
<path d="M20551 20787
L20114 20350
" />
<path d="M14870 13445
L14870 14319
" />
<path d="M14870 14319
L14937 14386
" />
<path d="M19551 22590
L19551 20830
" />
<path d="M19551 20830
L18106 19386
" />
</g>
<g style="fill:#009F00; fill-opacity:1.0; 
stroke:#009F00; stroke-width:120; stroke-opacity:1; 
stroke-linecap:round; stroke-linejoin:round;">
<path d="M14870 14319
L14937 14386
" />
</g>
<g style="fill:#009F00; fill-opacity:1.0; 
stroke:#009F00; stroke-width:200; stroke-opacity:1; 
stroke-linecap:round; stroke-linejoin:round;">
<path d="M20551 26449
L20193 26807
" />
<path d="M20193 26807
L19366 26807
" />
<path d="M19366 26807
L18795 27378
" />
<path d="M18795 27378
L18795 31826
" />
<path d="M20551 26449
L20551 25590
" />
<path d="M12551 25590
L12551 28161
" />
<path d="M12551 28161
L12594 28204
" />
<path d="M17102 32043
L17102 31945
" />
<path d="M19551 25834
L19551 25590
" />
<path d="M18303 27082
L19551 25834
" />
<path d="M18303 30744
L18303 27082
" />
<path d="M17102 31945
L18303 30744
" />
<path d="M17870 23795
L17417 23795
" />
<path d="M18382 23795
L17870 23795
" />
<path d="M17417 23795
L17397 23815
" />
<path d="M14354 28480
L14354 28252
" />
<path d="M14354 28252
L13992 27889
" />
<path d="M17551 22590
L17551 23417
" />
<path d="M21114 23795
L22212 22697
" />
<path d="M17929 23795
L18382 23795
" />
<path d="M18382 23795
L21114 23795
" />
<path d="M17551 23417
L17929 23795
" />
<path d="M14354 29346
L14354 28480
" />
<path d="M18551 22590
L18551 22882
" />
<path d="M18551 22882
L18992 23323
" />
<path d="M24878 9523
L24878 8055
" />
<path d="M23212 23697
L24720 23697
" />
<path d="M24543 21452
L23401 21452
" />
<path d="M24951 21861
L24543 21452
" />
<path d="M24951 23465
L24951 21861
" />
<path d="M24720 23697
L24951 23465
" />
<path d="M6571 13976
L6571 14716
" />
<path d="M7752 13945
L6602 13945
" />
<path d="M6602 13945
L6571 13976
" />
<path d="M9870 13445
L8252 13445
" />
<path d="M8252 13445
L7752 13945
" />
<path d="M5586 14716
L5586 15114
" />
<path d="M6019 15547
L7149 15547
" />
<path d="M5586 15114
L6019 15547
" />
<path d="M7149 15547
L7752 14945
" />
<path d="M7752 14945
L8236 14945
" />
<path d="M8236 14945
L8716 14464
" />
<path d="M10370 14740
L10370 15445
" />
<path d="M10094 14464
L10370 14740
" />
<path d="M8716 14464
L10094 14464
" />
<path d="M7149 15547
L7752 14945
" />
<path d="M5586 13976
L5586 14716
" />
<path d="M19169 14716
L19169 13976
" />
<path d="M17988 14945
L18941 14945
" />
<path d="M18941 14945
L19169 14716
" />
<path d="M15370 15445
L15370 14956
" />
<path d="M17606 14563
L17988 14945
" />
<path d="M15763 14563
L17606 14563
" />
<path d="M15370 14956
L15763 14563
" />
<path d="M17988 13945
L16370 13945
" />
<path d="M16370 13945
L15870 13445
" />
<path d="M20153 13976
L20153 13598
" />
<path d="M18630 13303
L17988 13945
" />
<path d="M19858 13303
L18630 13303
" />
<path d="M20153 13598
L19858 13303
" />
<path d="M20153 14716
L20153 13976
" />
</g>
<g style="fill:#009F00; fill-opacity:1.0; 
stroke:#009F00; stroke-width:120; stroke-opacity:1; 
stroke-linecap:round; stroke-linejoin:round;">
<path d="M16370 13945
L15870 13445
" />
</g>
<g style="fill:#009F00; fill-opacity:1.0; 
stroke:#009F00; stroke-width:200; stroke-opacity:1; 
stroke-linecap:round; stroke-linejoin:round;">
<path d="M4421 25472
L4421 22472
" />
<path d="M7551 25590
L4539 25590
" />
<path d="M4539 25590
L4421 25472
" />
<path d="M7551 25590
L7551 25000
" />
<path d="M7854 24697
L22212 24697
" />
<path d="M7551 25000
L7854 24697
" />
<path d="M6728 28748
L8090 28748
" />
<path d="M8090 28748
L8220 28618
" />
<path d="M8220 28618
L8220 27630
" />
<path d="M7551 26960
L7551 25590
" />
<path d="M8220 27630
L7551 26960
" />
</g>
<g style="fill:#009F00; fill-opacity:1.0; 
stroke:#009F00; stroke-width:120; stroke-opacity:1; 
stroke-linecap:round; stroke-linejoin:round;">
<path d="M8090 28748
L8220 28618
" />
</g>
<g style="fill:#009F00; fill-opacity:1.0; 
stroke:#009F00; stroke-width:200; stroke-opacity:1; 
stroke-linecap:round; stroke-linejoin:round;">
<path d="M8551 25590
L8551 27291
" />
<path d="M8551 27291
L9023 27763
" />
<path d="M9023 27763
L9023 29799
" />
</g>
<g style="fill:#009F00; fill-opacity:1.0; 
stroke:#009F00; stroke-width:120; stroke-opacity:1; 
stroke-linecap:round; stroke-linejoin:round;">
<path d="M9023 27763
L9023 29799
" />
<path d="M8551 27291
L9023 27763
" />
</g>
<g style="fill:#009F00; fill-opacity:1.0; 
stroke:#009F00; stroke-width:200; stroke-opacity:1; 
stroke-linecap:round; stroke-linejoin:round;">
<path d="M22212 23697
L21925 23697
" />
<path d="M21925 23697
L21334 24287
" />
<path d="M21334 24287
L16807 24287
" />
<path d="M16807 24287
L16551 24031
" />
<path d="M16551 24031
L16551 22590
" />
<path d="M16551 22590
L16551 20712
" />
<path d="M16551 20712
L16610 20653
" />
</g>
<g style="fill:#009F00; fill-opacity:1.0; 
stroke:#009F00; stroke-width:120; stroke-opacity:1; 
stroke-linecap:round; stroke-linejoin:round;">
<path d="M16551 24031
L16551 22590
" />
<path d="M16807 24287
L16551 24031
" />
<path d="M21334 24287
L16807 24287
" />
<path d="M21925 23697
L21334 24287
" />
</g>
<g style="fill:#009F00; fill-opacity:1.0; 
stroke:#009F00; stroke-width:200; stroke-opacity:1; 
stroke-linecap:round; stroke-linejoin:round;">
<path d="M8342 18441
L7594 17693
" />
<path d="M9464 18441
L8342 18441
" />
<path d="M3519 7555
L4051 7555
" />
<path d="M4523 5271
L4878 4917
" />
<path d="M4523 7082
L4523 5271
" />
<path d="M4051 7555
L4523 7082
" />
<path d="M8645 6480
L8645 6661
" />
<path d="M4878 4917
L6118 4917
" />
<path d="M6118 4917
L6925 5724
" />
<path d="M6925 5724
L7889 5724
" />
<path d="M7889 5724
L8645 6480
" />
<path d="M3519 8555
L3519 7555
" />
<path d="M3519 8555
L3519 9622
" />
<path d="M3519 9622
L3263 9878
" />
<path d="M9551 22590
L9551 20634
" />
<path d="M9551 20634
L9523 20606
" />
</g>
<g style="fill:#009F00; fill-opacity:1.0; 
stroke:#009F00; stroke-width:120; stroke-opacity:1; 
stroke-linecap:round; stroke-linejoin:round;">
<path d="M3263 9878
L3519 9622
" />
<path d="M9551 20634
L9523 20606
" />
</g>
<g style="fill:#009F00; fill-opacity:1.0; 
stroke:#009F00; stroke-width:200; stroke-opacity:1; 
stroke-linecap:round; stroke-linejoin:round;">
<path d="M3519 3929
L3519 2929
" />
<path d="M3519 2929
L4484 2929
" />
<path d="M4484 2929
L4602 3047
" />
<path d="M11795 6661
L11795 6126
" />
<path d="M11795 6126
L11531 5862
" />
<path d="M11531 5862
L10350 5862
" />
<path d="M10350 5862
L9641 5153
" />
<path d="M9641 5153
L9641 3992
" />
<path d="M9641 3992
L9071 3421
" />
<path d="M9071 3421
L7988 3421
" />
<path d="M7988 3421
L7480 3929
" />
<path d="M7480 3929
L3519 3929
" />
<path d="M10551 22590
L10551 20630
" />
</g>
<g style="fill:#009F00; fill-opacity:1.0; 
stroke:#009F00; stroke-width:120; stroke-opacity:1; 
stroke-linecap:round; stroke-linejoin:round;">
<path d="M4602 3047
L4484 2929
" />
</g>
<g style="fill:#009F00; fill-opacity:1.0; 
stroke:#009F00; stroke-width:200; stroke-opacity:1; 
stroke-linecap:round; stroke-linejoin:round;">
<path d="M10551 20630
L10547 20626
" />
<path d="M10567 18578
L10547 18559
" />
<path d="M10547 18559
L10547 17673
" />
<path d="M10547 17673
L9996 17122
" />
<path d="M9996 17122
L7929 17122
" />
</g>
<g style="fill:#009F00; fill-opacity:1.0; 
stroke:#009F00; stroke-width:120; stroke-opacity:1; 
stroke-linecap:round; stroke-linejoin:round;">
<path d="M11531 5862
L10626 5862
" />
<path d="M11795 6126
L11531 5862
" />
<path d="M3519 3929
L7480 3929
" />
<path d="M7480 3929
L7988 3421
" />
<path d="M9641 5153
L10350 5862
" />
<path d="M10350 5862
L10626 5862
" />
</g>
<g style="fill:#009F00; fill-opacity:1.0; 
stroke:#009F00; stroke-width:200; stroke-opacity:1; 
stroke-linecap:round; stroke-linejoin:round;">
<path d="M21137 3263
L20389 3263
" />
<path d="M20389 3263
L19956 3697
" />
<path d="M21137 4263
L21137 3263
" />
<path d="M14945 6661
L15929 6661
" />
<path d="M15929 6661
L15980 6610
" />
<path d="M11551 22590
L11551 20763
" />
<path d="M11551 20763
L11571 20744
" />
</g>
<g style="fill:#009F00; fill-opacity:1.0; 
stroke:#009F00; stroke-width:120; stroke-opacity:1; 
stroke-linecap:round; stroke-linejoin:round;">
<path d="M15929 6661
L15980 6610
" />
<path d="M19956 3697
L20389 3263
" />
</g>
<g style="fill:#009F00; fill-opacity:1.0; 
stroke:#009F00; stroke-width:200; stroke-opacity:1; 
stroke-linecap:round; stroke-linejoin:round;">
<path d="M19681 7949
L19130 7397
" />
<path d="M20527 7949
L19681 7949
" />
<path d="M19130 7397
L19130 7122
" />
<path d="M19130 7122
L18669 6661
" />
<path d="M18669 6661
L18094 6661
" />
<path d="M21334 7949
L20527 7949
" />
<path d="M21334 8949
L21334 7949
" />
<path d="M12551 22590
L12551 20779
" />
<path d="M12551 20779
L12476 20704
" />
</g>
<g style="fill:#009F00; fill-opacity:1.0; 
stroke:#009F00; stroke-width:120; stroke-opacity:1; 
stroke-linecap:round; stroke-linejoin:round;">
<path d="M12476 20704
L12551 20779
" />
<path d="M19130 7397
L19681 7949
" />
<path d="M20527 7949
L21334 7949
" />
</g>
<g style="fill:#009F00; fill-opacity:1.0; 
stroke:#009F00; stroke-width:200; stroke-opacity:1; 
stroke-linecap:round; stroke-linejoin:round;">
<path d="M8551 22590
L8551 21559
" />
<path d="M8551 21559
L8736 21374
" />
</g>
<g style="fill:#009F00; fill-opacity:1.0; 
stroke:#009F00; stroke-width:120; stroke-opacity:1; 
stroke-linecap:round; stroke-linejoin:round;">
<path d="M8551 21559
L8736 21374
" />
</g>
<g style="fill:#009F00; fill-opacity:1.0; 
stroke:#009F00; stroke-width:200; stroke-opacity:1; 
stroke-linecap:round; stroke-linejoin:round;">
<path d="M7551 22590
L7551 21397
" />
<path d="M7551 21397
L7555 21393
" />
</g>
<g style="fill:#009F00; fill-opacity:1.0; 
stroke:#009F00; stroke-width:120; stroke-opacity:1; 
stroke-linecap:round; stroke-linejoin:round;">
<path d="M7551 21397
L7555 21393
" />
</g>
<g style="fill:#009F00; fill-opacity:1.0; 
stroke:#009F00; stroke-width:200; stroke-opacity:1; 
stroke-linecap:round; stroke-linejoin:round;">
<path d="M24897 4641
L24071 4641
" />
<path d="M23925 7055
L24878 7055
" />
<path d="M23598 6728
L23925 7055
" />
<path d="M23598 5114
L23598 6728
" />
<path d="M24071 4641
L23598 5114
" />
<path d="M9551 25590
L9551 28508
" />
<path d="M10023 28980
L10023 29799
" />
<path d="M9551 28508
L10023 28980
" />
<path d="M4071 26512
L4071 27496
" />
<path d="M5665 27515
L5665 29090
" />
<path d="M7555 4830
L7075 4830
" />
<path d="M4641 4366
L4012 4996
" />
<path d="M6610 4366
L4641 4366
" />
<path d="M7075 4830
L6610 4366
" />
<path d="M2338 4429
L2338 6055
" />
<path d="M4523 4484
L4012 4996
" />
<path d="M4012 4996
L2791 4996
" />
<path d="M2791 4996
L2338 5449
" />
<path d="M10795 7661
L10771 7661
" />
<path d="M7941 4830
L7555 4830
" />
<path d="M10771 7661
L7941 4830
" />
<path d="M13945 7661
L13945 9059
" />
<path d="M13945 9059
L12850 10153
" />
<path d="M17094 7661
L17094 9393
" />
<path d="M17094 9393
L16334 10153
" />
<path d="M22791 4645
L22791 4523
" />
<path d="M23673 3641
L24897 3641
" />
<path d="M22791 4523
L23673 3641
" />
<path d="M19661 9685
L19862 9685
" />
<path d="M23145 5000
L22791 4645
" />
<path d="M23145 9504
L23145 5000
" />
<path d="M22397 10252
L23145 9504
" />
<path d="M20429 10252
L22397 10252
" />
<path d="M19862 9685
L20429 10252
" />
<path d="M19661 9685
L19323 9685
" />
<path d="M18854 10153
L16334 10153
" />
<path d="M19323 9685
L18854 10153
" />
<path d="M16334 10153
L9641 10153
" />
<path d="M7645 7661
L7645 8905
" />
<path d="M7645 8905
L8893 10153
" />
<path d="M8893 10153
L9641 10153
" />
<path d="M9641 10153
L10075 10153
" />
<path d="M10075 10153
L10795 9433
" />
<path d="M10795 9433
L10795 7661
" />
<path d="M2338 6055
L1752 6055
" />
<path d="M1752 6055
L1354 6452
" />
<path d="M1354 6452
L1354 11826
" />
<path d="M12870 13445
L12870 12311
" />
<path d="M12870 12311
L13689 11492
" />
<path d="M22000 20760
L21449 20760
" />
<path d="M21449 20760
L19582 18893
" />
<path d="M22000 20760
L25000 20760
" />
<path d="M5586 17716
L6571 17716
" />
<path d="M2421 18456
L2421 17354
" />
<path d="M3165 16610
L5114 16610
" />
<path d="M2421 17354
L3165 16610
" />
<path d="M5114 16610
L5586 17082
" />
<path d="M5586 17082
L5586 17716
" />
<path d="M2421 18456
L1842 18456
" />
<path d="M1842 18456
L1472 18086
" />
<path d="M2421 25472
L2421 22472
" />
<path d="M2421 22472
L2421 21456
" />
<path d="M2421 21456
L2421 18456
" />
<path d="M6571 17716
L6571 16551
" />
<path d="M6571 16551
L7082 16039
" />
<path d="M7082 16039
L8067 16039
" />
<path d="M8067 16039
L8661 15445
" />
<path d="M8661 15445
L9370 15445
" />
<path d="M13551 20153
L7850 20153
" />
<path d="M7850 20153
L6571 18874
" />
<path d="M6571 18874
L6571 17716
" />
<path d="M13551 21334
L13551 20153
" />
<path d="M13551 22590
L13551 21334
" />
<path d="M23212 24697
L24094 24697
" />
<path d="M24661 24130
L25271 24130
" />
<path d="M24094 24697
L24661 24130
" />
<path d="M8023 29799
L6779 29799
" />
<path d="M6779 29799
L6728 29748
" />
<path d="M6728 29748
L6323 29748
" />
<path d="M6323 29748
L5626 29051
" />
<path d="M5626 29051
L4071 27496
" />
<path d="M4071 27496
L2421 25846
" />
<path d="M2421 25846
L2421 25472
" />
<path d="M23212 24697
L23212 25834
" />
<path d="M22575 26472
L21748 26472
" />
<path d="M23212 25834
L22575 26472
" />
<path d="M20527 32929
L20527 32200
" />
<path d="M20527 32200
L20508 32180
" />
<path d="M25000 20760
L25000 21378
" />
<path d="M25271 21649
L25271 24130
" />
<path d="M25000 21378
L25271 21649
" />
<path d="M24980 28634
L23893 28634
" />
<path d="M25271 24130
L25271 28342
" />
<path d="M25271 28342
L24980 28634
" />
<path d="M14551 25590
L14551 26846
" />
<path d="M17035 17004
L17035 15618
" />
<path d="M16862 15445
L16370 15445
" />
<path d="M17035 15618
L16862 15445
" />
<path d="M19169 17716
L20153 17716
" />
<path d="M16590 17732
L16732 17732
" />
<path d="M16732 17732
L17035 17429
" />
<path d="M17035 17429
L17035 17004
" />
<path d="M13551 20153
L13551 18114
" />
<path d="M13551 18114
L13933 17732
" />
<path d="M13933 17732
L16590 17732
" />
<path d="M19153 17732
L19169 17716
" />
<path d="M16590 17732
L19153 17732
" />
<path d="M20508 32180
L22497 32180
" />
<path d="M22854 28634
L23893 28634
" />
<path d="M22693 28795
L22854 28634
" />
<path d="M22693 31984
L22693 28795
" />
<path d="M22497 32180
L22693 31984
" />
<path d="M20329 29012
L20329 29266
" />
<path d="M20329 29266
L20508 29445
" />
<path d="M20508 29445
L20508 30030
" />
<path d="M20508 32180
L20508 30030
" />
</g>
<g style="fill:#009F00; fill-opacity:1.0; 
stroke:#009F00; stroke-width:120; stroke-opacity:1; 
stroke-linecap:round; stroke-linejoin:round;">
<path d="M1472 18086
L1842 18456
" />
<path d="M18263 10153
L18263 10212
" />
<path d="M18263 10212
L18008 10468
" />
<path d="M9897 10153
L10075 10153
" />
<path d="M10075 10153
L10795 9433
" />
<path d="M10795 9433
L10795 7661
" />
<path d="M12614 10153
L12850 10153
" />
<path d="M12850 10153
L13945 9059
" />
<path d="M15291 10153
L16315 10153
" />
<path d="M17094 9374
L17094 7661
" />
<path d="M16315 10153
L17094 9374
" />
<path d="M8893 10153
L7645 8905
" />
<path d="M18263 10153
L15291 10153
" />
<path d="M15291 10153
L12614 10153
" />
<path d="M12614 10153
L9897 10153
" />
<path d="M9897 10153
L8893 10153
" />
<path d="M8661 15445
L9370 15445
" />
<path d="M8067 16039
L8661 15445
" />
<path d="M7082 16039
L8067 16039
" />
<path d="M6571 16551
L7082 16039
" />
<path d="M7645 7661
L7645 8905
" />
<path d="M10795 9433
L10795 7661
" />
<path d="M2338 6055
L2338 5449
" />
<path d="M2338 5449
L2791 4996
" />
<path d="M2791 4996
L4012 4996
" />
<path d="M4012 4996
L4523 4484
" />
<path d="M17035 17004
L17035 17429
" />
<path d="M6571 17716
L6571 18874
" />
<path d="M6571 18874
L7850 20153
" />
<path d="M5114 16610
L5586 17082
" />
<path d="M5586 17082
L5586 17716
" />
<path d="M2421 18456
L2421 21456
" />
<path d="M2421 22472
L2421 21456
" />
<path d="M20508 30030
L20508 29445
" />
<path d="M20508 29445
L20329 29266
" />
<path d="M6779 29799
L6728 29748
" />
</g>
<g style="fill:#009F00; fill-opacity:1.0; 
stroke:#009F00; stroke-width:200; stroke-opacity:1; 
stroke-linecap:round; stroke-linejoin:round;">
<path d="M14551 22590
L14551 21334
" />
<path d="M11551 25590
L11551 27299
" />
<path d="M11551 27299
L11689 27437
" />
</g>
<g style="fill:#009F00; fill-opacity:1.0; 
stroke:#009F00; stroke-width:120; stroke-opacity:1; 
stroke-linecap:round; stroke-linejoin:round;">
<path d="M11551 27299
L11689 27437
" />
</g>
<g style="fill:#009F00; fill-opacity:1.0; 
stroke:#009F00; stroke-width:200; stroke-opacity:1; 
stroke-linecap:round; stroke-linejoin:round;">
<path d="M10551 25590
L10551 27393
" />
<path d="M10551 27393
L10508 27437
" />
</g>
<g style="fill:#009F00; fill-opacity:1.0; 
stroke:#009F00; stroke-width:120; stroke-opacity:1; 
stroke-linecap:round; stroke-linejoin:round;">
<path d="M10551 27393
L10508 27437
" />
</g>
<g style="fill:#009F00; fill-opacity:1.0; 
stroke:#009F00; stroke-width:200; stroke-opacity:1; 
stroke-linecap:round; stroke-linejoin:round;">
<path d="M5661 19169
L5134 19169
" />
<path d="M5134 19169
L4421 18456
" />
<path d="M4421 21456
L4421 18456
" />
</g>
<g style="fill:#009F00; fill-opacity:1.0; 
stroke:#009F00; stroke-width:120; stroke-opacity:1; 
stroke-linecap:round; stroke-linejoin:round;">
<path d="M4421 18456
L4421 17413
" />
<path d="M4421 17413
L4405 17397
" />
<path d="M4421 18456
L4421 18909
" />
<path d="M4421 18909
L4421 21456
" />
</g>
<g style="fill:#009F00; fill-opacity:1.0; 
stroke:#009F00; stroke-width:200; stroke-opacity:1; 
stroke-linecap:round; stroke-linejoin:round;">
<path d="M13362 34425
L13362 33441
" />
<path d="M13401 34464
L13362 34425
" />
<path d="M13354 29346
L13354 30893
" />
<path d="M13354 30893
L13382 30921
" />
<path d="M21334 6949
L19925 6949
" />
<path d="M19925 6949
L19661 6685
" />
<path d="M3519 1929
L2838 1929
" />
<path d="M2838 1929
L2338 1429
" />
</g>
<g style="fill:#009F00; fill-opacity:1.0; 
stroke:#009F00; stroke-width:120; stroke-opacity:1; 
stroke-linecap:round; stroke-linejoin:round;">
<path d="M2838 1929
L2338 1429
" />
</g>
<g style="fill:#009F00; fill-opacity:1.0; 
stroke:#009F00; stroke-width:200; stroke-opacity:1; 
stroke-linecap:round; stroke-linejoin:round;">
<path d="M21079 29012
L21079 29958
" />
<path d="M21079 29958
L21008 30030
" />
<path d="M25000 18760
L22000 18760
" />
<path d="M15626 18456
L21697 18456
" />
<path d="M21697 18456
L22000 18760
" />
<path d="M16610 19653
L16610 19441
" />
<path d="M16610 19441
L15626 18456
" />
</g>
<g style="fill:#009F00; fill-opacity:1.0; 
stroke:#009F00; stroke-width:120; stroke-opacity:1; 
stroke-linecap:round; stroke-linejoin:round;">
<path d="M21697 18456
L22000 18760
" />
<path d="M16610 19441
L15626 18456
" />
</g>
<g style="fill:#009F00; fill-opacity:1.0; 
stroke:#009F00; stroke-width:200; stroke-opacity:1; 
stroke-linecap:round; stroke-linejoin:round;">
<path d="M2338 9055
L2338 7417
" />
<path d="M3200 6555
L3519 6555
" />
<path d="M2338 7417
L3200 6555
" />
<path d="M22791 1645
L21756 1645
" />
<path d="M21756 1645
L21137 2263
" />
<path d="M17094 6661
L17094 6323
" />
<path d="M17476 5941
L22236 5941
" />
<path d="M17094 6323
L17476 5941
" />
<path d="M22236 5941
L22515 5661
" />
</g>
<g style="fill:#009F00; fill-opacity:1.0; 
stroke:#009F00; stroke-width:120; stroke-opacity:1; 
stroke-linecap:round; stroke-linejoin:round;">
<path d="M22236 5941
L22515 5661
" />
</g>
<g style="fill:#009F00; fill-opacity:1.0; 
stroke:#009F00; stroke-width:200; stroke-opacity:1; 
stroke-linecap:round; stroke-linejoin:round;">
<path d="M10795 6661
L10441 6661
" />
<path d="M8578 4799
L8578 4212
" />
<path d="M10441 6661
L8578 4799
" />
<path d="M23697 16626
L23697 18008
" />
<path d="M20744 27634
L20744 27260
" />
<path d="M20744 27260
L21118 26886
" />
<path d="M19744 27634
L20744 27634
" />
<path d="M19508 28657
L19508 28575
" />
<path d="M21508 28476
L21508 30030
" />
<path d="M21433 28401
L21508 28476
" />
<path d="M19681 28401
L21433 28401
" />
<path d="M19508 28575
L19681 28401
" />
<path d="M19508 30030
L19508 28657
" />
<path d="M19508 28657
L19508 27870
" />
<path d="M19508 27870
L19744 27634
" />
</g>
<g style="fill:#009F00; fill-opacity:1.0; 
stroke:#009F00; stroke-width:120; stroke-opacity:1; 
stroke-linecap:round; stroke-linejoin:round;">
<path d="M19508 29051
L19508 27870
" />
<path d="M19508 27870
L19744 27634
" />
<path d="M19508 29051
L19508 30030
" />
</g>
<g style="fill:#009F00; fill-opacity:1.0; 
stroke:#009F00; stroke-width:200; stroke-opacity:1; 
stroke-linecap:round; stroke-linejoin:round;">
<path d="M13945 6661
L13945 6204
" />
<path d="M13945 6204
L14602 5547
" />
<path d="M14602 5547
L18933 5547
" />
<path d="M18933 5547
L19208 5271
" />
<path d="M19208 5271
L19208 2433
" />
<path d="M19208 2433
L19956 1685
" />
</g>
<g style="fill:#009F00; fill-opacity:1.0; 
stroke:#009F00; stroke-width:120; stroke-opacity:1; 
stroke-linecap:round; stroke-linejoin:round;">
<path d="M19208 2433
L19956 1685
" />
<path d="M19208 5271
L19208 2433
" />
<path d="M18933 5547
L19208 5271
" />
<path d="M14602 5547
L18933 5547
" />
<path d="M13945 6204
L14602 5547
" />
</g>
<g style="fill:#009F00; fill-opacity:1.0; 
stroke:#009F00; stroke-width:200; stroke-opacity:1; 
stroke-linecap:round; stroke-linejoin:round;">
<path d="M7645 6661
L6697 6661
" />
<path d="M6697 6661
L5586 5551
" />
</g>
<g style="fill:#FFFFFF; fill-opacity:1.0; 
stroke:#FFFFFF; stroke-width:39.3701; stroke-opacity:1; 
stroke-linecap:round; stroke-linejoin:round;">
<circle cx="23618.3" cy="8637.99" r="105.315" /> 
<circle cx="21393.9" cy="21492.3" r="105.315" /> 
<circle cx="24543.5" cy="22693.1" r="105.315" /> 
<circle cx="9838.78" cy="30744.3" r="105.315" /> 
<circle cx="9878.15" cy="36118.3" r="105.315" /> 
<circle cx="7122.24" cy="18382.1" r="105.315" /> 
<circle cx="21807.3" cy="33933.3" r="105.315" /> 
<circle cx="11649.8" cy="9169.49" r="105.315" /> 
<circle cx="14681.3" cy="9130.12" r="105.315" /> 
<circle cx="9326.97" cy="9130.12" r="105.315" /> 
<circle cx="17634.1" cy="9130.12" r="105.315" /> 
<circle cx="9582.87" cy="626.181" r="105.315" /> 
<circle cx="24858.5" cy="25212.8" r="105.315" /> 
<circle cx="24130.1" cy="6354.53" r="105.315" /> 
<circle cx="11866.3" cy="11590.7" r="105.315" /> 
<circle cx="5271.85" cy="9819.09" r="105.315" /> 
<circle cx="12693.1" cy="14464.8" r="105.315" /> 
<circle cx="7909.65" cy="10370.3" r="105.315" /> 
<circle cx="3519.88" cy="32594.7" r="105.315" /> 
<circle cx="10508.1" cy="16905.7" r="105.315" /> 
<circle cx="11138" cy="17890" r="105.315" /> 
<circle cx="4799.41" cy="32397.8" r="105.315" /> 
<circle cx="20114.4" cy="20350.6" r="105.315" /> 
<circle cx="21138" cy="17988.4" r="105.315" /> 
<circle cx="18106.5" cy="19386" r="105.315" /> 
<circle cx="14937.2" cy="14386" r="105.315" /> 
<circle cx="18795.5" cy="31827" r="105.315" /> 
<circle cx="12594.7" cy="28204.9" r="105.315" /> 
<circle cx="17102.6" cy="32043.5" r="105.315" /> 
<circle cx="17397.8" cy="23815.2" r="105.315" /> 
<circle cx="13992.3" cy="27890" r="105.315" /> 
<circle cx="23401.8" cy="21453" r="105.315" /> 
<circle cx="18992.3" cy="23323" r="105.315" /> 
<circle cx="24878.2" cy="9523.82" r="105.315" /> 
<circle cx="9464.76" cy="18441.1" r="105.315" /> 
<circle cx="7594.69" cy="17693.1" r="105.315" /> 
<circle cx="3263.98" cy="9878.15" r="105.315" /> 
<circle cx="9523.82" cy="20606.5" r="105.315" /> 
<circle cx="4602.56" cy="3047.44" r="105.315" /> 
<circle cx="7929.33" cy="17122.2" r="105.315" /> 
<circle cx="10547.4" cy="20626.2" r="105.315" /> 
<circle cx="10567.1" cy="18578.9" r="105.315" /> 
<circle cx="11571.1" cy="20744.3" r="105.315" /> 
<circle cx="15980.5" cy="6610.43" r="105.315" /> 
<circle cx="19956.9" cy="3697.05" r="105.315" /> 
<circle cx="20527.8" cy="7949.02" r="105.315" /> 
<circle cx="12476.6" cy="20704.9" r="105.315" /> 
<circle cx="1354.53" cy="11827" r="105.315" /> 
<circle cx="1472.64" cy="18086.8" r="105.315" /> 
<circle cx="21748.2" cy="26472.6" r="105.315" /> 
<circle cx="18008.1" cy="10468.7" r="105.315" /> 
<circle cx="19582.9" cy="18893.9" r="105.315" /> 
<circle cx="20527.8" cy="32929.3" r="105.315" /> 
<circle cx="13401.8" cy="34464.8" r="105.315" /> 
<circle cx="13362.4" cy="33441.1" r="105.315" /> 
<circle cx="13382.1" cy="30921.5" r="105.315" /> 
<circle cx="23697" cy="18008.1" r="105.315" /> 
<circle cx="21118.3" cy="26886" r="105.315" /> 
<circle cx="4421.46" cy="25472.6" r="140.315" /> 
<circle cx="2421.46" cy="25472.6" r="140.315" /> 
<circle cx="4421.46" cy="22472.6" r="140.315" /> 
<circle cx="2421.46" cy="22472.6" r="140.315" /> 
<circle cx="4421.46" cy="21456.9" r="140.315" /> 
<circle cx="2421.46" cy="21456.9" r="140.315" /> 
<circle cx="4421.46" cy="18456.9" r="140.315" /> 
<circle cx="2421.46" cy="18456.9" r="140.315" /> 
<circle cx="25000.2" cy="18760" r="140.315" /> 
<circle cx="25000.2" cy="20760" r="140.315" /> 
<circle cx="22000.2" cy="18760" r="140.315" /> 
<circle cx="22000.2" cy="20760" r="140.315" /> 
<circle cx="11220.7" cy="28618.3" r="140.315" /> 
<circle cx="8220.67" cy="28618.3" r="140.315" /> 
<circle cx="15626.2" cy="21456.9" r="140.315" /> 
<circle cx="15626.2" cy="18456.9" r="140.315" /> 
<circle cx="8661.61" cy="19169.5" r="140.315" /> 
<circle cx="5661.61" cy="19169.5" r="140.315" /> 
<circle cx="22212.8" cy="22697" r="180.315" /> 
<circle cx="23212.8" cy="22697" r="180.315" /> 
<circle cx="22212.8" cy="23697" r="180.315" /> 
<circle cx="23212.8" cy="23697" r="180.315" /> 
<circle cx="22212.8" cy="24697" r="180.315" /> 
<circle cx="23212.8" cy="24697" r="180.315" /> 
<circle cx="19744.3" cy="27634.1" r="180.315" /> 
<circle cx="20744.3" cy="27634.1" r="180.315" /> 
<circle cx="21744.3" cy="27634.1" r="180.315" /> 
<circle cx="21138" cy="2263.98" r="180.315" /> 
<circle cx="21138" cy="3263.98" r="180.315" /> 
<circle cx="21138" cy="4263.98" r="180.315" /> 
<circle cx="3519.88" cy="6555.32" r="180.315" /> 
<circle cx="3519.88" cy="7555.32" r="180.315" /> 
<circle cx="3519.88" cy="8555.32" r="180.315" /> 
<circle cx="24897.8" cy="3641.93" r="180.315" /> 
<circle cx="24897.8" cy="4641.93" r="180.315" /> 
<circle cx="24897.8" cy="5641.93" r="180.315" /> 
<circle cx="21334.8" cy="6949.02" r="180.315" /> 
<circle cx="21334.8" cy="7949.02" r="180.315" /> 
<circle cx="21334.8" cy="8949.02" r="180.315" /> 
<circle cx="3519.88" cy="1929.33" r="180.315" /> 
<circle cx="3519.88" cy="2929.33" r="180.315" /> 
<circle cx="3519.88" cy="3929.33" r="180.315" /> 
<circle cx="13354.5" cy="29346.7" r="180.315" /> 
<circle cx="14354.5" cy="29346.7" r="180.315" /> 
<circle cx="7752.17" cy="14945.1" r="180.315" /> 
<circle cx="7752.17" cy="13945.1" r="180.315" /> 
<circle cx="24878.2" cy="8055.32" r="180.315" /> 
<circle cx="24878.2" cy="7055.32" r="180.315" /> 
<circle cx="9370.28" cy="15445.1" r="180.315" /> 
<circle cx="9870.28" cy="13445.1" r="140.315" /> 
<circle cx="10370.3" cy="15445.1" r="140.315" /> 
<circle cx="10870.3" cy="13445.1" r="140.315" /> 
<circle cx="11370.3" cy="15445.1" r="140.315" /> 
<circle cx="11870.3" cy="13445.1" r="140.315" /> 
<circle cx="12370.3" cy="15445.1" r="140.315" /> 
<circle cx="12870.3" cy="13445.1" r="140.315" /> 
<circle cx="13370.3" cy="15445.1" r="140.315" /> 
<circle cx="13870.3" cy="13445.1" r="140.315" /> 
<circle cx="14370.3" cy="15445.1" r="140.315" /> 
<circle cx="14870.3" cy="13445.1" r="140.315" /> 
<circle cx="15370.3" cy="15445.1" r="140.315" /> 
<circle cx="15870.3" cy="13445.1" r="140.315" /> 
<circle cx="16370.3" cy="15445.1" r="140.315" /> 
<circle cx="8551.38" cy="25590.7" r="140.315" /> 
<circle cx="9551.38" cy="25590.7" r="140.315" /> 
<circle cx="10551.4" cy="25590.7" r="140.315" /> 
<circle cx="11551.4" cy="25590.7" r="140.315" /> 
<circle cx="12551.4" cy="25590.7" r="140.315" /> 
<circle cx="13551.4" cy="25590.7" r="140.315" /> 
<circle cx="14551.4" cy="25590.7" r="140.315" /> 
<circle cx="15551.4" cy="25590.7" r="140.315" /> 
<circle cx="16551.4" cy="25590.7" r="140.315" /> 
<circle cx="17551.4" cy="25590.7" r="140.315" /> 
<circle cx="18551.4" cy="25590.7" r="140.315" /> 
<circle cx="19551.4" cy="25590.7" r="140.315" /> 
<circle cx="20551.4" cy="25590.7" r="140.315" /> 
<circle cx="7551.38" cy="25590.7" r="140.315" /> 
<circle cx="20551.4" cy="22590.7" r="140.315" /> 
<circle cx="19551.4" cy="22590.7" r="140.315" /> 
<circle cx="18551.4" cy="22590.7" r="140.315" /> 
<circle cx="17551.4" cy="22590.7" r="140.315" /> 
<circle cx="16551.4" cy="22590.7" r="140.315" /> 
<circle cx="15551.4" cy="22590.7" r="140.315" /> 
<circle cx="14551.4" cy="22590.7" r="140.315" /> 
<circle cx="13551.4" cy="22590.7" r="140.315" /> 
<circle cx="12551.4" cy="22590.7" r="140.315" /> 
<circle cx="11551.4" cy="22590.7" r="140.315" /> 
<circle cx="10551.4" cy="22590.7" r="140.315" /> 
<circle cx="9551.38" cy="22590.7" r="140.315" /> 
<circle cx="8551.38" cy="22590.7" r="140.315" /> 
<circle cx="7551.38" cy="22590.7" r="140.315" /> 
<circle cx="6571.06" cy="10976.6" r="140.315" /> 
<circle cx="6571.06" cy="13976.6" r="140.315" /> 
<circle cx="19169.5" cy="10976.6" r="140.315" /> 
<circle cx="19169.5" cy="13976.6" r="140.315" /> 
<circle cx="19169.5" cy="14716.7" r="140.315" /> 
<circle cx="19169.5" cy="17716.7" r="140.315" /> 
<circle cx="20153.7" cy="14716.7" r="140.315" /> 
<circle cx="20153.7" cy="17716.7" r="140.315" /> 
<circle cx="20153.7" cy="10976.6" r="140.315" /> 
<circle cx="20153.7" cy="13976.6" r="140.315" /> 
<circle cx="6571.06" cy="14716.7" r="140.315" /> 
<circle cx="6571.06" cy="17716.7" r="140.315" /> 
<circle cx="5586.81" cy="14716.7" r="140.315" /> 
<circle cx="5586.81" cy="17716.7" r="140.315" /> 
<circle cx="5586.81" cy="10976.6" r="140.315" /> 
<circle cx="5586.81" cy="13976.6" r="140.315" /> 
<circle cx="7555.32" cy="830.906" r="140.315" /> 
<circle cx="7555.32" cy="4830.91" r="140.315" /> 
<circle cx="13035.6" cy="17004.1" r="140.315" /> 
<circle cx="17035.6" cy="17004.1" r="140.315" /> 
<circle cx="9689.17" cy="11492.3" r="140.315" /> 
<circle cx="13689.2" cy="11492.3" r="140.315" /> 
<circle cx="13945.1" cy="6661.61" r="100.315" /> 
<circle cx="14945.1" cy="7661.61" r="100.315" /> 
<circle cx="14945.1" cy="6661.61" r="100.315" /> 
<circle cx="13945.1" cy="7661.61" r="100.315" /> 
<circle cx="7645.87" cy="6661.61" r="100.315" /> 
<circle cx="8645.87" cy="7661.61" r="100.315" /> 
<circle cx="8645.87" cy="6661.61" r="100.315" /> 
<circle cx="7645.87" cy="7661.61" r="100.315" /> 
<circle cx="17094.7" cy="6661.61" r="100.315" /> 
<circle cx="18094.7" cy="7661.61" r="100.315" /> 
<circle cx="18094.7" cy="6661.61" r="100.315" /> 
<circle cx="17094.7" cy="7661.61" r="100.315" /> 
<circle cx="10795.5" cy="6661.61" r="100.315" /> 
<circle cx="11795.5" cy="7661.61" r="100.315" /> 
<circle cx="11795.5" cy="6661.61" r="100.315" /> 
<circle cx="10795.5" cy="7661.61" r="100.315" /> 
<circle cx="13551.4" cy="26846.7" r="140.315" /> 
<circle cx="14551.4" cy="26846.7" r="140.315" /> 
<circle cx="14551.4" cy="21334.8" r="140.315" /> 
<circle cx="13551.4" cy="21334.8" r="140.315" /> 
<circle cx="6728.54" cy="28748.2" r="140.315" /> 
<circle cx="6728.54" cy="29748.2" r="140.315" /> 
<circle cx="13551.4" cy="20153.7" r="140.315" /> 
<circle cx="14551.4" cy="20153.7" r="140.315" /> 
<circle cx="23697" cy="16626.2" r="280.315" /> 
<circle cx="23697" cy="14626.2" r="280.315" /> 
<circle cx="17988.4" cy="13945.1" r="180.315" /> 
<circle cx="17988.4" cy="14945.1" r="180.315" /> 
<circle cx="23893.9" cy="28634.1" r="280.315" /> 
<circle cx="23893.9" cy="26634.1" r="280.315" /> 
<circle cx="8023.82" cy="29799.4" r="180.315" /> 
<circle cx="9023.82" cy="29799.4" r="180.315" /> 
<circle cx="10023.8" cy="29799.4" r="180.315" /> 
<circle cx="11023.8" cy="29799.4" r="180.315" /> 
<circle cx="12870.3" cy="3224.61" r="580.315" /> 
<circle cx="11689.2" cy="27437.2" r="374.016" /> 
<circle cx="10508.1" cy="27437.2" r="374.016" /> 
<circle cx="4405.71" cy="17397.8" r="374.016" /> 
<circle cx="2043.5" cy="30783.7" r="374.016" /> 
<circle cx="2043.5" cy="37476.6" r="374.016" /> 
<circle cx="23697" cy="37476.6" r="374.016" /> 
<circle cx="23697" cy="30783.7" r="374.016" /> 
<circle cx="12870.3" cy="3224.61" r="374.016" /> 
<circle cx="16610.4" cy="20653.7" r="180.315" /> 
<circle cx="16610.4" cy="19653.7" r="180.315" /> 
<circle cx="8578.94" cy="4212.8" r="140.315" /> 
<circle cx="8578.94" cy="1212.8" r="140.315" /> 
<circle cx="22515.9" cy="5661.61" r="140.315" /> 
<circle cx="22515.9" cy="8661.61" r="140.315" /> 
<circle cx="5586.81" cy="5551.38" r="140.315" /> 
<circle cx="5586.81" cy="2551.38" r="140.315" /> 
<circle cx="19956.9" cy="1685.24" r="140.315" /> 
<circle cx="19956.9" cy="4685.24" r="140.315" /> 
<circle cx="19661.6" cy="6685.24" r="140.315" /> 
<circle cx="19661.6" cy="9685.24" r="140.315" /> 
<circle cx="2338.78" cy="9055.32" r="140.315" /> 
<circle cx="2338.78" cy="6055.32" r="140.315" /> 
<circle cx="2338.78" cy="1429.33" r="140.315" /> 
<circle cx="2338.78" cy="4429.33" r="140.315" /> 
<circle cx="22791.5" cy="1645.87" r="140.315" /> 
<circle cx="22791.5" cy="4645.87" r="140.315" /> 
<circle cx="8736.42" cy="21374.2" r="374.016" /> 
<circle cx="7555.32" cy="21393.9" r="374.016" /> 
<circle cx="4071.06" cy="26512" r="374.016" /> 
<circle cx="5665.55" cy="27515.9" r="374.016" /> 
<circle cx="23460.8" cy="10508.1" r="374.016" /> 
<circle cx="24445.1" cy="11354.5" r="374.016" /> 
</g> 
</svg>
