<?xml version="1.0" standalone="no"?>
 <!DOCTYPE svg PUBLIC "-//W3C//DTD SVG 1.1//EN" 
 "http://www.w3.org/Graphics/SVG/1.1/DTD/svg11.dtd"> 
<svg xmlns="http://www.w3.org/2000/svg" version="1.1" 
    width="6.72846cm" height="10.3759cm" viewBox="0 0 26490 40850 ">
<title>SVG Picture created as placa_principal-F_SilkS.svg date 2013/06/06 20:38:32 </title>
  <desc>Picture generated by PCBNEW </desc>
<g style="fill:#000000; fill-opacity:1;stroke:#000000; stroke-opacity:1;
stroke-linecap:round; stroke-linejoin:round; "
 transform="translate(0 0) scale(1 1)">
</g>
<g style="fill:#FFFF00; fill-opacity:0.0; 
stroke:#FFFF00; stroke-width:150; stroke-opacity:1; 
stroke-linecap:round; stroke-linejoin:round;">
<path d="M9838 1177
L19051 1177
" />
<path d="M9838 6531
L9838 1177
" />
<path d="M19051 6531
L9838 6531
" />
<path d="M19051 1177
L19051 6531
" />
<path d="M25665 40783
L75 40783
" />
<path d="M25665 75
L25665 40783
" />
<path d="M75 75
L25665 75
" />
<path d="M75 40783
L75 75
" />
</g>
<g style="fill:#009F9F; fill-opacity:0.0; 
stroke:#009F9F; stroke-width:100; stroke-opacity:1; 
stroke-linecap:round; stroke-linejoin:round;">
<path d="M8542 2816
L8314 2816
" />
<path d="M8428 2816
L8428 2416
L8390 2473
L8352 2511
L8314 2530
" />
<path d="M8714 2816
L8714 2416
L8866 2416
L8904 2435
L8923 2454
L8942 2492
L8942 2549
L8923 2587
L8904 2606
L8866 2625
L8714 2625
" />
<path d="M9114 2816
L9114 2416
" />
<path d="M9304 2816
L9304 2416
L9533 2816
L9533 2416
" />
<path d="M19562 2816
L19334 2816
" />
<path d="M19448 2816
L19448 2416
L19410 2473
L19372 2511
L19334 2530
" />
<path d="M19734 2816
L19734 2416
L19886 2416
L19924 2435
L19943 2454
L19962 2492
L19962 2549
L19943 2587
L19924 2606
L19886 2625
L19734 2625
" />
<path d="M20134 2816
L20134 2416
" />
<path d="M20324 2816
L20324 2416
L20553 2816
L20553 2416
" />
</g>
<g style="fill:#009F9F; fill-opacity:0.0; 
stroke:#009F9F; stroke-width:80; stroke-opacity:1; 
stroke-linecap:round; stroke-linejoin:round;">
<path d="M3864 25844
L3883 25787
L3883 25692
L3864 25654
L3845 25635
L3807 25615
L3769 25615
L3730 25635
L3711 25654
L3692 25692
L3673 25768
L3654 25806
L3635 25825
L3597 25844
L3559 25844
L3521 25825
L3502 25806
L3483 25768
L3483 25673
L3502 25615
" />
<path d="M3483 25482
L3883 25387
L3597 25311
L3883 25235
L3483 25139
" />
<path d="M3521 25006
L3502 24987
L3483 24949
L3483 24854
L3502 24815
L3521 24796
L3559 24777
L3597 24777
L3654 24796
L3883 25025
L3883 24777
" />
<path d="M3164 27682
L3183 27625
L3183 27530
L3164 27492
L3145 27473
L3107 27454
L3069 27454
L3030 27473
L3011 27492
L2992 27530
L2973 27606
L2954 27644
L2935 27663
L2897 27682
L2859 27682
L2821 27663
L2802 27644
L2783 27606
L2783 27511
L2802 27454
" />
<path d="M2783 27320
L3183 27225
L2897 27149
L3183 27073
L2783 26977
" />
<path d="M3221 26920
L3221 26615
" />
<path d="M3183 26520
L2783 26520
L2783 26368
L2802 26330
L2821 26311
L2859 26292
L2916 26292
L2954 26311
L2973 26330
L2992 26368
L2992 26520
" />
<path d="M2783 26120
L3107 26120
L3145 26101
L3164 26082
L3183 26044
L3183 25968
L3164 25930
L3145 25911
L3107 25892
L2783 25892
" />
<path d="M3164 25720
L3183 25663
L3183 25568
L3164 25530
L3145 25511
L3107 25492
L3069 25492
L3030 25511
L3011 25530
L2992 25568
L2973 25644
L2954 25682
L2935 25701
L2897 25720
L2859 25720
L2821 25701
L2802 25682
L2783 25644
L2783 25549
L2802 25492
" />
<path d="M3183 25320
L2783 25320
" />
<path d="M2973 25320
L2973 25092
" />
<path d="M3183 25092
L2783 25092
" />
<path d="M3221 24996
L3221 24692
" />
<path d="M3164 24615
L3183 24558
L3183 24463
L3164 24425
L3145 24406
L3107 24387
L3069 24387
L3030 24406
L3011 24425
L2992 24463
L2973 24539
L2954 24577
L2935 24596
L2897 24615
L2859 24615
L2821 24596
L2802 24577
L2783 24539
L2783 24444
L2802 24387
" />
<path d="M3183 24215
L2783 24215
L3069 24082
L2783 23949
L3183 23949
" />
<path d="M3069 23777
L3069 23587
" />
<path d="M3183 23815
L2783 23682
L3183 23549
" />
<path d="M3183 23225
L3183 23415
L2783 23415
" />
<path d="M3183 22901
L3183 23092
L2783 23092
" />
<path d="M3864 21828
L3883 21771
L3883 21676
L3864 21638
L3845 21619
L3807 21600
L3769 21600
L3730 21619
L3711 21638
L3692 21676
L3673 21752
L3654 21790
L3635 21809
L3597 21828
L3559 21828
L3521 21809
L3502 21790
L3483 21752
L3483 21657
L3502 21600
" />
<path d="M3483 21466
L3883 21371
L3597 21295
L3883 21219
L3483 21124
" />
<path d="M3483 21009
L3483 20762
L3635 20895
L3635 20838
L3654 20800
L3673 20781
L3711 20762
L3807 20762
L3845 20781
L3864 20800
L3883 20838
L3883 20952
L3864 20990
L3845 21009
" />
<path d="M2973 24895
L2992 24838
L3011 24819
L3050 24800
L3107 24800
L3145 24819
L3164 24838
L3183 24876
L3183 25028
L2783 25028
L2783 24895
L2802 24857
L2821 24838
L2859 24819
L2897 24819
L2935 24838
L2954 24857
L2973 24895
L2973 25028
" />
<path d="M2783 24552
L2783 24476
L2802 24438
L2840 24400
L2916 24381
L3050 24381
L3126 24400
L3164 24438
L3183 24476
L3183 24552
L3164 24590
L3126 24628
L3050 24647
L2916 24647
L2840 24628
L2802 24590
L2783 24552
" />
<path d="M2783 24266
L2783 24038
" />
<path d="M3183 24152
L2783 24152
" />
<path d="M2783 23828
L2783 23752
L2802 23714
L2840 23676
L2916 23657
L3050 23657
L3126 23676
L3164 23714
L3183 23752
L3183 23828
L3164 23866
L3126 23904
L3050 23924
L2916 23924
L2840 23904
L2802 23866
L2783 23828
" />
<path d="M3183 23485
L2783 23485
L3183 23257
L2783 23257
" />
<path d="M3183 22762
L2783 22762
L2783 22666
L2802 22609
L2840 22571
L2878 22552
L2954 22533
L3011 22533
L3088 22552
L3126 22571
L3164 22609
L3183 22666
L3183 22762
" />
<path d="M2973 22362
L2973 22228
" />
<path d="M3183 22171
L3183 22362
L2783 22362
L2783 22171
" />
<path d="M3183 21695
L2783 21695
" />
<path d="M3183 21504
L2783 21504
L3183 21276
L2783 21276
" />
<path d="M2783 21143
L2783 20914
" />
<path d="M3183 21028
L2783 21028
" />
<path d="M2973 20781
L2973 20647
" />
<path d="M3183 20590
L3183 20781
L2783 20781
L2783 20590
" />
<path d="M3183 20190
L2992 20324
" />
<path d="M3183 20419
L2783 20419
L2783 20266
L2802 20228
L2821 20209
L2859 20190
L2916 20190
L2954 20209
L2973 20228
L2992 20266
L2992 20419
" />
<path d="M3183 19790
L2992 19924
" />
<path d="M3183 20019
L2783 20019
L2783 19866
L2802 19828
L2821 19809
L2859 19790
L2916 19790
L2954 19809
L2973 19828
L2992 19866
L2992 20019
" />
<path d="M2783 19619
L3107 19619
L3145 19600
L3164 19581
L3183 19543
L3183 19466
L3164 19428
L3145 19409
L3107 19390
L2783 19390
" />
<path d="M3183 19200
L2783 19200
L2783 19047
L2802 19009
L2821 18990
L2859 18971
L2916 18971
L2954 18990
L2973 19009
L2992 19047
L2992 19200
" />
<path d="M3145 18571
L3164 18590
L3183 18647
L3183 18685
L3164 18743
L3126 18781
L3088 18800
L3011 18819
L2954 18819
L2878 18800
L2840 18781
L2802 18743
L2783 18685
L2783 18647
L2802 18590
L2821 18571
" />
<path d="M3183 18400
L2783 18400
" />
<path d="M2783 18133
L2783 18057
L2802 18019
L2840 17981
L2916 17962
L3050 17962
L3126 17981
L3164 18019
L3183 18057
L3183 18133
L3164 18171
L3126 18209
L3050 18228
L2916 18228
L2840 18209
L2802 18171
L2783 18133
" />
<path d="M3183 17790
L2783 17790
L3183 17562
L2783 17562
" />
<path d="M22966 20941
L23024 20960
L23119 20960
L23157 20941
L23176 20922
L23195 20884
L23195 20846
L23176 20808
L23157 20789
L23119 20770
L23043 20751
L23004 20731
L22985 20712
L22966 20674
L22966 20636
L22985 20598
L23004 20579
L23043 20560
L23138 20560
L23195 20579
" />
<path d="M23328 20560
L23424 20960
L23500 20674
L23576 20960
L23671 20560
" />
<path d="M24033 20960
L23804 20960
" />
<path d="M23919 20960
L23919 20560
L23881 20617
L23843 20655
L23804 20674
" />
<path d="M21290 21641
L21347 21660
L21443 21660
L21481 21641
L21500 21622
L21519 21584
L21519 21546
L21500 21508
L21481 21489
L21443 21470
L21366 21451
L21328 21431
L21309 21412
L21290 21374
L21290 21336
L21309 21298
L21328 21279
L21366 21260
L21462 21260
L21519 21279
" />
<path d="M21652 21260
L21747 21660
L21824 21374
L21900 21660
L21995 21260
" />
<path d="M22147 21660
L22147 21260
" />
<path d="M22281 21260
L22509 21260
" />
<path d="M22395 21660
L22395 21260
" />
<path d="M22871 21622
L22852 21641
L22795 21660
L22757 21660
L22700 21641
L22662 21603
L22643 21565
L22624 21489
L22624 21431
L22643 21355
L22662 21317
L22700 21279
L22757 21260
L22795 21260
L22852 21279
L22871 21298
" />
<path d="M23043 21660
L23043 21260
" />
<path d="M23043 21451
L23271 21451
" />
<path d="M23271 21660
L23271 21260
" />
<path d="M23995 21622
L23976 21641
L23919 21660
L23881 21660
L23824 21641
L23785 21603
L23766 21565
L23747 21489
L23747 21431
L23766 21355
L23785 21317
L23824 21279
L23881 21260
L23919 21260
L23976 21279
L23995 21298
" />
<path d="M24243 21260
L24319 21260
L24357 21279
L24395 21317
L24414 21393
L24414 21527
L24395 21603
L24357 21641
L24319 21660
L24243 21660
L24204 21641
L24166 21603
L24147 21527
L24147 21393
L24166 21317
L24204 21279
L24243 21260
" />
<path d="M24585 21660
L24585 21260
L24719 21546
L24852 21260
L24852 21660
" />
<path d="M25043 21260
L25043 21584
L25062 21622
L25081 21641
L25119 21660
L25195 21660
L25233 21641
L25252 21622
L25271 21584
L25271 21260
" />
<path d="M25462 21660
L25462 21260
L25690 21660
L25690 21260
" />
<path d="M9184 30129
L8899 30129
" />
<path d="M9042 30129
L9042 29579
L8994 29658
L8946 29710
L8899 29736
" />
<path d="M9494 29579
L9542 29579
L9589 29605
L9613 29631
L9637 29684
L9661 29789
L9661 29919
L9637 30024
L9613 30077
L9589 30103
L9542 30129
L9494 30129
L9446 30103
L9423 30077
L9399 30024
L9375 29919
L9375 29789
L9399 29684
L9423 29631
L9446 29605
L9494 29579
" />
<path d="M10256 30129
L10256 29579
" />
<path d="M10542 30129
L10327 29815
" />
<path d="M10542 29579
L10256 29893
" />
<path d="M15898 22795
L15348 22795
L15348 22604
L15374 22557
L15401 22533
L15453 22509
L15532 22509
L15584 22533
L15610 22557
L15636 22604
L15636 22795
" />
<path d="M15348 22295
L15794 22295
L15846 22271
L15872 22247
L15898 22200
L15898 22104
L15872 22057
L15846 22033
L15794 22009
L15348 22009
" />
<path d="M15898 21533
L15898 21771
L15348 21771
" />
<path d="M15898 21128
L15898 21366
L15348 21366
" />
<path d="M15348 20581
L15794 20581
L15846 20557
L15872 20533
L15898 20485
L15898 20390
L15872 20343
L15846 20319
L15794 20295
L15348 20295
" />
<path d="M15898 20057
L15348 20057
L15348 19866
L15374 19819
L15401 19795
L15453 19771
L15532 19771
L15584 19795
L15610 19819
L15636 19866
L15636 20057
" />
<path d="M5661 20680
L5661 20130
L5852 20130
L5899 20156
L5923 20183
L5947 20235
L5947 20314
L5923 20366
L5899 20392
L5852 20418
L5661 20418
" />
<path d="M6161 20130
L6161 20575
L6185 20628
L6209 20654
L6256 20680
L6352 20680
L6399 20654
L6423 20628
L6447 20575
L6447 20130
" />
<path d="M6923 20680
L6685 20680
L6685 20130
" />
<path d="M7328 20680
L7090 20680
L7090 20130
" />
<path d="M7875 20130
L7875 20575
L7899 20628
L7923 20654
L7971 20680
L8066 20680
L8113 20654
L8137 20628
L8161 20575
L8161 20130
" />
<path d="M8399 20680
L8399 20130
L8590 20130
L8637 20156
L8661 20183
L8685 20235
L8685 20314
L8661 20366
L8637 20392
L8590 20418
L8399 20418
" />
<path d="M24374 25330
L23974 25330
L23974 25178
L23993 25140
L24012 25121
L24050 25102
L24108 25102
L24146 25121
L24165 25140
L24184 25178
L24184 25330
" />
<path d="M23974 24759
L23974 24835
L23993 24873
L24012 24892
L24069 24930
L24146 24949
L24298 24949
L24336 24930
L24355 24911
L24374 24873
L24374 24797
L24355 24759
L24336 24740
L24298 24721
L24203 24721
L24165 24740
L24146 24759
L24127 24797
L24127 24873
L24146 24911
L24165 24930
L24203 24949
" />
</g>
<g style="fill:#009F9F; fill-opacity:0.0; 
stroke:#009F9F; stroke-width:60; stroke-opacity:1; 
stroke-linecap:round; stroke-linejoin:round;">
<path d="M20234 28323
L20234 27923
" />
<path d="M20462 28323
L20291 28095
" />
<path d="M20462 27923
L20234 28152
" />
<path d="M20615 27962
L20634 27942
L20672 27923
L20767 27923
L20805 27942
L20824 27962
L20843 28000
L20843 28038
L20824 28095
L20595 28323
L20843 28323
" />
<path d="M22856 2509
L22723 2319
" />
<path d="M22628 2509
L22628 2109
L22780 2109
L22818 2128
L22837 2147
L22856 2185
L22856 2242
L22837 2280
L22818 2300
L22780 2319
L22628 2319
" />
<path d="M22971 2109
L23104 2509
L23237 2109
" />
<path d="M23333 2109
L23580 2109
L23447 2261
L23504 2261
L23542 2280
L23561 2300
L23580 2338
L23580 2433
L23561 2471
L23542 2490
L23504 2509
L23390 2509
L23352 2490
L23333 2471
" />
<path d="M4531 9231
L4341 9365
" />
<path d="M4531 9460
L4131 9460
L4131 9308
L4150 9270
L4169 9251
L4207 9231
L4265 9231
L4303 9251
L4322 9270
L4341 9308
L4341 9460
" />
<path d="M4131 9117
L4531 8984
L4131 8851
" />
<path d="M4531 8508
L4531 8736
" />
<path d="M4531 8622
L4131 8622
L4188 8660
L4227 8698
L4246 8736
" />
<path d="M25909 6375
L25509 6375
" />
<path d="M25909 6147
L25681 6318
" />
<path d="M25509 6147
L25738 6375
" />
<path d="M25909 5766
L25909 5994
" />
<path d="M25909 5880
L25509 5880
L25566 5918
L25604 5956
L25624 5994
" />
<path d="M22346 9625
L22156 9759
" />
<path d="M22346 9854
L21946 9854
L21946 9701
L21965 9663
L21984 9644
L22022 9625
L22080 9625
L22118 9644
L22137 9663
L22156 9701
L22156 9854
" />
<path d="M21946 9511
L22346 9378
L21946 9244
" />
<path d="M22080 8939
L22346 8939
" />
<path d="M21927 9035
L22213 9130
L22213 8882
" />
<path d="M3506 4685
L3316 4819
" />
<path d="M3506 4914
L3106 4914
L3106 4761
L3126 4723
L3145 4704
L3183 4685
L3240 4685
L3278 4704
L3297 4723
L3316 4761
L3316 4914
" />
<path d="M3106 4571
L3506 4438
L3106 4304
" />
<path d="M3145 4190
L3126 4171
L3106 4133
L3106 4038
L3126 4000
L3145 3980
L3183 3961
L3221 3961
L3278 3980
L3506 4209
L3506 3961
" />
<path d="M13620 29994
L13620 30208
L13605 30251
L13577 30279
L13534 30294
L13505 30294
" />
<path d="M13762 30294
L13762 29994
L13877 29994
L13905 30008
L13920 30022
L13934 30051
L13934 30094
L13920 30122
L13905 30136
L13877 30151
L13762 30151
" />
<path d="M14048 30022
L14062 30008
L14091 29994
L14162 29994
L14191 30008
L14205 30022
L14220 30051
L14220 30079
L14205 30122
L14034 30294
L14220 30294
" />
<path d="M7123 16005
L6823 16005
L6823 15890
L6837 15862
L6852 15847
L6880 15833
L6923 15833
L6952 15847
L6966 15862
L6980 15890
L6980 16005
" />
<path d="M6852 15719
L6837 15705
L6823 15676
L6823 15605
L6837 15576
L6852 15562
L6880 15547
L6909 15547
L6952 15562
L7123 15733
L7123 15547
" />
<path d="M23949 9143
L24163 9143
L24206 9158
L24235 9186
L24249 9229
L24249 9258
" />
<path d="M24249 9001
L23949 9001
L23949 8886
L23963 8858
L23978 8843
L24006 8829
L24049 8829
L24078 8843
L24092 8858
L24106 8886
L24106 9001
" />
<path d="M24249 8543
L24249 8715
" />
<path d="M24249 8629
L23949 8629
L23992 8658
L24021 8686
L24035 8715
" />
</g>
<g style="fill:#009F9F; fill-opacity:0.0; 
stroke:#009F9F; stroke-width:50; stroke-opacity:1; 
stroke-linecap:round; stroke-linejoin:round;">
<path d="M12802 39868
L12502 39868
L12502 39796
L12517 39754
L12545 39725
L12574 39711
L12631 39696
L12674 39696
L12731 39711
L12759 39725
L12788 39754
L12802 39796
L12802 39868
" />
<path d="M12802 39411
L12802 39582
" />
<path d="M12802 39496
L12502 39496
L12545 39525
L12574 39554
L12588 39582
" />
<path d="M12531 39296
L12517 39282
L12502 39254
L12502 39182
L12517 39154
L12531 39139
L12559 39125
L12588 39125
L12631 39139
L12802 39311
L12802 39125
" />
<path d="M11802 39696
L11802 39839
L11502 39839
" />
<path d="M11645 39596
L11645 39496
" />
<path d="M11802 39454
L11802 39596
L11502 39596
L11502 39454
" />
<path d="M11802 39325
L11502 39325
L11502 39254
L11517 39211
L11545 39182
L11574 39168
L11631 39154
L11674 39154
L11731 39168
L11759 39182
L11788 39211
L11802 39254
L11802 39325
" />
<path d="M15164 39725
L14864 39725
L14864 39654
L14879 39611
L14907 39582
L14936 39568
L14993 39554
L15036 39554
L15093 39568
L15122 39582
L15150 39611
L15164 39654
L15164 39725
" />
<path d="M15164 39411
L15164 39354
L15150 39325
L15136 39311
L15093 39282
L15036 39268
L14922 39268
L14893 39282
L14879 39296
L14864 39325
L14864 39382
L14879 39411
L14893 39425
L14922 39439
L14993 39439
L15022 39425
L15036 39411
L15050 39382
L15050 39325
L15036 39296
L15022 39282
L14993 39268
" />
<path d="M14164 39696
L14164 39839
L13864 39839
" />
<path d="M14007 39596
L14007 39496
" />
<path d="M14164 39454
L14164 39596
L13864 39596
L13864 39454
" />
<path d="M14164 39325
L13864 39325
L13864 39254
L13879 39211
L13907 39182
L13936 39168
L13993 39154
L14036 39154
L14093 39168
L14122 39182
L14150 39211
L14164 39254
L14164 39325
" />
<path d="M11621 39868
L11321 39868
L11321 39796
L11335 39754
L11364 39725
L11393 39711
L11450 39696
L11493 39696
L11550 39711
L11578 39725
L11607 39754
L11621 39796
L11621 39868
" />
<path d="M11621 39411
L11621 39582
" />
<path d="M11621 39496
L11321 39496
L11364 39525
L11393 39554
L11407 39582
" />
<path d="M11621 39125
L11621 39296
" />
<path d="M11621 39211
L11321 39211
L11364 39239
L11393 39268
L11407 39296
" />
<path d="M10621 39696
L10621 39839
L10321 39839
" />
<path d="M10464 39596
L10464 39496
" />
<path d="M10621 39454
L10621 39596
L10321 39596
L10321 39454
" />
<path d="M10621 39325
L10321 39325
L10321 39254
L10335 39211
L10364 39182
L10393 39168
L10450 39154
L10493 39154
L10550 39168
L10578 39182
L10607 39211
L10621 39254
L10621 39325
" />
<path d="M13983 39868
L13683 39868
L13683 39796
L13698 39754
L13726 39725
L13755 39711
L13812 39696
L13855 39696
L13912 39711
L13940 39725
L13969 39754
L13983 39796
L13983 39868
" />
<path d="M13983 39411
L13983 39582
" />
<path d="M13983 39496
L13683 39496
L13726 39525
L13755 39554
L13769 39582
" />
<path d="M13683 39225
L13683 39196
L13698 39168
L13712 39154
L13740 39139
L13798 39125
L13869 39125
L13926 39139
L13955 39154
L13969 39168
L13983 39196
L13983 39225
L13969 39254
L13955 39268
L13926 39282
L13869 39296
L13798 39296
L13740 39282
L13712 39268
L13698 39254
L13683 39225
" />
<path d="M12983 39696
L12983 39839
L12683 39839
" />
<path d="M12826 39596
L12826 39496
" />
<path d="M12983 39454
L12983 39596
L12683 39596
L12683 39454
" />
<path d="M12983 39325
L12683 39325
L12683 39254
L12698 39211
L12726 39182
L12755 39168
L12812 39154
L12855 39154
L12912 39168
L12940 39182
L12969 39211
L12983 39254
L12983 39325
" />
</g>
<g style="fill:#009F9F; fill-opacity:0.0; 
stroke:#009F9F; stroke-width:120; stroke-opacity:1; 
stroke-linecap:round; stroke-linejoin:round;">
<path d="M12313 17726
L12313 18212
L12341 18269
L12370 18297
L12427 18326
L12541 18326
L12598 18297
L12627 18269
L12655 18212
L12655 17726
" />
<path d="M13227 17726
L12941 17726
L12913 18012
L12941 17983
L12998 17955
L13141 17955
L13198 17983
L13227 18012
L13255 18069
L13255 18212
L13227 18269
L13198 18297
L13141 18326
L12998 18326
L12941 18297
L12913 18269
" />
<path d="M11698 13226
L11413 13226
L11413 12626
" />
<path d="M11870 12683
L11898 12655
L11955 12626
L12098 12626
L12155 12655
L12184 12683
L12213 12740
L12213 12797
L12184 12883
L11841 13226
L12213 13226
" />
<path d="M12498 13226
L12613 13226
L12670 13197
L12698 13169
L12755 13083
L12784 12969
L12784 12740
L12755 12683
L12727 12655
L12670 12626
L12555 12626
L12498 12655
L12470 12683
L12441 12740
L12441 12883
L12470 12940
L12498 12969
L12555 12997
L12670 12997
L12727 12969
L12755 12940
L12784 12883
" />
<path d="M13127 12883
L13070 12855
L13041 12826
L13013 12769
L13013 12740
L13041 12683
L13070 12655
L13127 12626
L13241 12626
L13298 12655
L13327 12683
L13355 12740
L13355 12769
L13327 12826
L13298 12855
L13241 12883
L13127 12883
L13070 12912
L13041 12940
L13013 12997
L13013 13112
L13041 13169
L13070 13197
L13127 13226
L13241 13226
L13298 13197
L13327 13169
L13355 13112
L13355 12997
L13327 12940
L13298 12912
L13241 12883
" />
<path d="M13613 13226
L13613 12626
L13755 12626
L13841 12655
L13898 12712
L13927 12769
L13955 12883
L13955 12969
L13927 13083
L13898 13140
L13841 13197
L13755 13226
L13613 13226
" />
</g>
<g style="fill:#009F9F; fill-opacity:0.0; 
stroke:#009F9F; stroke-width:112.5; stroke-opacity:1; 
stroke-linecap:round; stroke-linejoin:round;">
<path d="M9112 25672
L9112 25072
" />
<path d="M9583 25615
L9562 25643
L9497 25672
L9454 25672
L9390 25643
L9347 25586
L9326 25529
L9304 25415
L9304 25329
L9326 25215
L9347 25157
L9390 25100
L9454 25072
L9497 25072
L9562 25100
L9583 25129
" />
<path d="M10012 25672
L9754 25672
" />
<path d="M9883 25672
L9883 25072
L9840 25157
L9797 25215
L9754 25243
" />
</g>
<g style="fill:#009F9F; fill-opacity:0.0; 
stroke:#009F9F; stroke-width:120; stroke-opacity:1; 
stroke-linecap:round; stroke-linejoin:round;">
</g>
<g style="fill:#009F9F; fill-opacity:0.0; 
stroke:#009F9F; stroke-width:112.5; stroke-opacity:1; 
stroke-linecap:round; stroke-linejoin:round;">
<path d="M14712 25500
L14926 25500
" />
<path d="M14669 25672
L14819 25072
L14969 25672
" />
<path d="M15054 25072
L15312 25072
" />
<path d="M15183 25672
L15183 25072
" />
<path d="M15462 25672
L15462 25072
L15612 25500
L15762 25072
L15762 25672
" />
<path d="M15976 25357
L16126 25357
" />
<path d="M16190 25672
L15976 25672
L15976 25072
L16190 25072
" />
<path d="M16619 25100
L16576 25072
L16512 25072
L16447 25100
L16404 25157
L16383 25215
L16362 25329
L16362 25415
L16383 25529
L16404 25586
L16447 25643
L16512 25672
L16554 25672
L16619 25643
L16640 25615
L16640 25415
L16554 25415
" />
<path d="M16812 25500
L17026 25500
" />
<path d="M16769 25672
L16919 25072
L17069 25672
" />
<path d="M17283 25329
L17240 25300
L17219 25272
L17197 25215
L17197 25186
L17219 25129
L17240 25100
L17283 25072
L17369 25072
L17412 25100
L17433 25129
L17454 25186
L17454 25215
L17433 25272
L17412 25300
L17369 25329
L17283 25329
L17240 25357
L17219 25386
L17197 25443
L17197 25557
L17219 25615
L17240 25643
L17283 25672
L17369 25672
L17412 25643
L17433 25615
L17454 25557
L17454 25443
L17433 25386
L17412 25357
L17369 25329
" />
<path d="M17712 25329
L17669 25300
L17647 25272
L17626 25215
L17626 25186
L17647 25129
L17669 25100
L17712 25072
L17797 25072
L17840 25100
L17862 25129
L17883 25186
L17883 25215
L17862 25272
L17840 25300
L17797 25329
L17712 25329
L17669 25357
L17647 25386
L17626 25443
L17626 25557
L17647 25615
L17669 25643
L17712 25672
L17797 25672
L17840 25643
L17862 25615
L17883 25557
L17883 25443
L17862 25386
L17840 25357
L17797 25329
" />
<path d="M18076 25443
L18419 25443
" />
<path d="M18633 25672
L18633 25072
L18804 25072
L18847 25100
L18869 25129
L18890 25186
L18890 25272
L18869 25329
L18847 25357
L18804 25386
L18633 25386
" />
</g>
<g style="fill:#009F9F; fill-opacity:0.0; 
stroke:#009F9F; stroke-width:120; stroke-opacity:1; 
stroke-linecap:round; stroke-linejoin:round;">
</g>
<g style="fill:#009F9F; fill-opacity:0.0; 
stroke:#009F9F; stroke-width:80; stroke-opacity:1; 
stroke-linecap:round; stroke-linejoin:round;">
<path d="M6732 14110
L6332 14110
L6332 14015
L6352 13958
L6390 13919
L6428 13900
L6504 13881
L6561 13881
L6637 13900
L6675 13919
L6713 13958
L6732 14015
L6732 14110
" />
<path d="M6332 13519
L6332 13710
L6523 13729
L6504 13710
L6485 13672
L6485 13577
L6504 13538
L6523 13519
L6561 13500
L6656 13500
L6694 13519
L6713 13538
L6732 13577
L6732 13672
L6713 13710
L6694 13729
" />
<path d="M19331 14110
L18931 14110
L18931 14015
L18950 13958
L18988 13919
L19026 13900
L19102 13881
L19159 13881
L19236 13900
L19274 13919
L19312 13958
L19331 14015
L19331 14110
" />
<path d="M18931 13748
L18931 13481
L19331 13653
" />
<path d="M19331 17850
L18931 17850
L18931 17755
L18950 17698
L18988 17660
L19026 17641
L19102 17621
L19159 17621
L19236 17641
L19274 17660
L19312 17698
L19331 17755
L19331 17850
" />
<path d="M18931 17488
L18931 17241
L19083 17374
L19083 17317
L19102 17279
L19121 17260
L19159 17241
L19255 17241
L19293 17260
L19312 17279
L19331 17317
L19331 17431
L19312 17469
L19293 17488
" />
<path d="M20315 17850
L19915 17850
L19915 17755
L19934 17698
L19972 17660
L20010 17641
L20087 17621
L20144 17621
L20220 17641
L20258 17660
L20296 17698
L20315 17755
L20315 17850
" />
<path d="M20048 17279
L20315 17279
" />
<path d="M19896 17374
L20182 17469
L20182 17221
" />
<path d="M20315 14110
L19915 14110
L19915 14015
L19934 13958
L19972 13919
L20010 13900
L20087 13881
L20144 13881
L20220 13900
L20258 13919
L20296 13958
L20315 14015
L20315 14110
" />
<path d="M20087 13653
L20068 13691
L20048 13710
L20010 13729
L19991 13729
L19953 13710
L19934 13691
L19915 13653
L19915 13577
L19934 13538
L19953 13519
L19991 13500
L20010 13500
L20048 13519
L20068 13538
L20087 13577
L20087 13653
L20106 13691
L20125 13710
L20163 13729
L20239 13729
L20277 13710
L20296 13691
L20315 13653
L20315 13577
L20296 13538
L20277 13519
L20239 13500
L20163 13500
L20125 13519
L20106 13538
L20087 13577
" />
<path d="M6732 17850
L6332 17850
L6332 17755
L6352 17698
L6390 17660
L6428 17641
L6504 17621
L6561 17621
L6637 17641
L6675 17660
L6713 17698
L6732 17755
L6732 17850
" />
<path d="M6732 17241
L6732 17469
" />
<path d="M6732 17355
L6332 17355
L6390 17393
L6428 17431
L6447 17469
" />
<path d="M5748 17850
L5348 17850
L5348 17755
L5367 17698
L5405 17660
L5443 17641
L5520 17621
L5577 17621
L5653 17641
L5691 17660
L5729 17698
L5748 17755
L5748 17850
" />
<path d="M5386 17469
L5367 17450
L5348 17412
L5348 17317
L5367 17279
L5386 17260
L5424 17241
L5463 17241
L5520 17260
L5748 17488
L5748 17241
" />
<path d="M5748 14110
L5348 14110
L5348 14015
L5367 13958
L5405 13919
L5443 13900
L5520 13881
L5577 13881
L5653 13900
L5691 13919
L5729 13958
L5748 14015
L5748 14110
" />
<path d="M5348 13538
L5348 13615
L5367 13653
L5386 13672
L5443 13710
L5520 13729
L5672 13729
L5710 13710
L5729 13691
L5748 13653
L5748 13577
L5729 13538
L5710 13519
L5672 13500
L5577 13500
L5539 13519
L5520 13538
L5501 13577
L5501 13653
L5520 13691
L5539 13710
L5577 13729
" />
</g>
<g style="fill:#009F9F; fill-opacity:0.0; 
stroke:#009F9F; stroke-width:100; stroke-opacity:1; 
stroke-linecap:round; stroke-linejoin:round;">
<path d="M6249 3914
L6273 3940
L6297 4019
L6297 4071
L6273 4150
L6226 4202
L6178 4228
L6083 4254
L6011 4254
L5916 4228
L5868 4202
L5821 4150
L5797 4071
L5797 4019
L5821 3940
L5845 3914
" />
<path d="M5797 3730
L5797 3364
L6297 3600
" />
<path d="M15143 18497
L15117 18521
L15039 18545
L14986 18545
L14908 18521
L14855 18473
L14829 18426
L14803 18330
L14803 18259
L14829 18164
L14855 18116
L14908 18068
L14986 18045
L15039 18045
L15117 18068
L15143 18092
" />
<path d="M15615 18211
L15615 18545
" />
<path d="M15484 18021
L15353 18378
L15693 18378
" />
<path d="M11797 12985
L11771 13009
L11692 13033
L11640 13033
L11561 13009
L11509 12961
L11483 12914
L11457 12819
L11457 12747
L11483 12652
L11509 12604
L11561 12557
L11640 12533
L11692 12533
L11771 12557
L11797 12580
" />
<path d="M12007 12580
L12033 12557
L12085 12533
L12216 12533
L12268 12557
L12295 12580
L12321 12628
L12321 12676
L12295 12747
L11980 13033
L12321 13033
" />
</g>
<g style="fill:#009F9F; fill-opacity:0.0; 
stroke:#009F9F; stroke-width:80; stroke-opacity:1; 
stroke-linecap:round; stroke-linejoin:round;">
<path d="M14084 27409
L14065 27428
L14008 27447
L13970 27447
L13913 27428
L13875 27389
L13856 27351
L13837 27275
L13837 27218
L13856 27142
L13875 27104
L13913 27066
L13970 27047
L14008 27047
L14065 27066
L14084 27085
" />
<path d="M14465 27447
L14237 27447
" />
<path d="M14351 27447
L14351 27047
L14313 27104
L14275 27142
L14237 27161
" />
<path d="M13884 23697
L13865 23716
L13808 23735
L13770 23735
L13713 23716
L13675 23678
L13656 23640
L13637 23563
L13637 23506
L13656 23430
L13675 23392
L13713 23354
L13770 23335
L13808 23335
L13865 23354
L13884 23373
" />
<path d="M14113 23506
L14075 23487
L14056 23468
L14037 23430
L14037 23411
L14056 23373
L14075 23354
L14113 23335
L14189 23335
L14227 23354
L14246 23373
L14265 23411
L14265 23430
L14246 23468
L14227 23487
L14189 23506
L14113 23506
L14075 23525
L14056 23544
L14037 23582
L14037 23659
L14056 23697
L14075 23716
L14113 23735
L14189 23735
L14227 23716
L14246 23697
L14265 23659
L14265 23582
L14246 23544
L14227 23525
L14189 23506
" />
<path d="M7752 30753
L7771 30772
L7790 30829
L7790 30867
L7771 30924
L7733 30963
L7695 30982
L7619 31001
L7561 31001
L7485 30982
L7447 30963
L7409 30924
L7390 30867
L7390 30829
L7409 30772
L7428 30753
" />
<path d="M7390 30620
L7390 30372
L7542 30505
L7542 30448
L7561 30410
L7580 30391
L7619 30372
L7714 30372
L7752 30391
L7771 30410
L7790 30448
L7790 30563
L7771 30601
L7752 30620
" />
<path d="M14084 20716
L14065 20735
L14008 20754
L13970 20754
L13913 20735
L13875 20697
L13856 20658
L13837 20582
L13837 20525
L13856 20449
L13875 20411
L13913 20373
L13970 20354
L14008 20354
L14065 20373
L14084 20392
" />
<path d="M14427 20354
L14351 20354
L14313 20373
L14294 20392
L14256 20449
L14237 20525
L14237 20678
L14256 20716
L14275 20735
L14313 20754
L14389 20754
L14427 20735
L14446 20716
L14465 20678
L14465 20582
L14446 20544
L14427 20525
L14389 20506
L14313 20506
L14275 20525
L14256 20544
L14237 20582
" />
</g>
<g style="fill:#009F9F; fill-opacity:0.0; 
stroke:#009F9F; stroke-width:120; stroke-opacity:1; 
stroke-linecap:round; stroke-linejoin:round;">
<path d="M21939 17407
L21339 17407
L21339 17179
L21368 17121
L21397 17093
L21454 17064
L21539 17064
L21597 17093
L21625 17121
L21654 17179
L21654 17407
" />
<path d="M21539 16550
L21939 16550
" />
<path d="M21311 16693
L21739 16836
L21739 16464
" />
<path d="M25625 19421
L25654 19336
L25682 19307
L25739 19279
L25825 19279
L25882 19307
L25911 19336
L25939 19393
L25939 19621
L25339 19621
L25339 19421
L25368 19364
L25397 19336
L25454 19307
L25511 19307
L25568 19336
L25597 19364
L25625 19421
L25625 19621
" />
<path d="M25939 18764
L25625 18764
L25568 18793
L25539 18850
L25539 18964
L25568 19021
" />
<path d="M25911 18764
L25939 18821
L25939 18964
L25911 19021
L25854 19050
L25797 19050
L25739 19021
L25711 18964
L25711 18821
L25682 18764
" />
<path d="M25539 18564
L25539 18336
" />
<path d="M25339 18479
L25854 18479
L25911 18450
L25939 18393
L25939 18336
" />
<path d="M25911 17907
L25939 17964
L25939 18079
L25911 18136
L25854 18164
L25625 18164
L25568 18136
L25539 18079
L25539 17964
L25568 17907
L25625 17879
L25682 17879
L25739 18164
" />
<path d="M25939 17621
L25539 17621
" />
<path d="M25654 17621
L25597 17593
L25568 17564
L25539 17507
L25539 17450
" />
<path d="M25939 17250
L25539 17250
" />
<path d="M25339 17250
L25368 17279
L25397 17250
L25368 17221
L25339 17250
L25397 17250
" />
<path d="M25939 16707
L25625 16707
L25568 16736
L25539 16793
L25539 16907
L25568 16964
" />
<path d="M25911 16707
L25939 16764
L25939 16907
L25911 16964
L25854 16993
L25797 16993
L25739 16964
L25711 16907
L25711 16764
L25682 16707
" />
<path d="M25339 16021
L25339 15650
L25568 15850
L25568 15764
L25597 15707
L25625 15679
L25682 15650
L25825 15650
L25882 15679
L25911 15707
L25939 15764
L25939 15936
L25911 15993
L25882 16021
" />
<path d="M25911 15364
L25939 15364
L25997 15393
L26025 15421
" />
<path d="M25339 14850
L25339 14964
L25368 15021
L25397 15050
L25482 15107
L25597 15136
L25825 15136
L25882 15107
L25911 15079
L25939 15021
L25939 14907
L25911 14850
L25882 14821
L25825 14793
L25682 14793
L25625 14821
L25597 14850
L25568 14907
L25568 15021
L25597 15079
L25625 15107
L25682 15136
" />
<path d="M25339 14621
L25939 14421
L25339 14221
" />
</g>
<g style="fill:#009F9F; fill-opacity:0.0; 
stroke:#009F9F; stroke-width:60; stroke-opacity:1; 
stroke-linecap:round; stroke-linejoin:round;">
<path d="M18859 16005
L18559 16005
L18559 15890
L18574 15862
L18588 15847
L18616 15833
L18659 15833
L18688 15847
L18702 15862
L18716 15890
L18716 16005
" />
<path d="M18559 15733
L18559 15547
L18674 15647
L18674 15605
L18688 15576
L18702 15562
L18731 15547
L18802 15547
L18831 15562
L18845 15576
L18859 15605
L18859 15690
L18845 15719
L18831 15733
" />
</g>
<g style="fill:#009F9F; fill-opacity:0.0; 
stroke:#009F9F; stroke-width:120; stroke-opacity:1; 
stroke-linecap:round; stroke-linejoin:round;">
<path d="M22254 29494
L21654 29494
L21654 29265
L21683 29208
L21712 29179
L21769 29151
L21854 29151
L21912 29179
L21940 29208
L21969 29265
L21969 29494
" />
<path d="M21654 28608
L21654 28894
L21940 28922
L21912 28894
L21883 28837
L21883 28694
L21912 28637
L21940 28608
L21997 28579
L22140 28579
L22197 28608
L22226 28637
L22254 28694
L22254 28837
L22226 28894
L22197 28922
" />
<path d="M25940 31508
L25969 31422
L25997 31394
L26054 31365
L26140 31365
L26197 31394
L26226 31422
L26254 31479
L26254 31708
L25654 31708
L25654 31508
L25683 31451
L25712 31422
L25769 31394
L25826 31394
L25883 31422
L25912 31451
L25940 31508
L25940 31708
" />
<path d="M26254 30851
L25940 30851
L25883 30879
L25854 30937
L25854 31051
L25883 31108
" />
<path d="M26226 30851
L26254 30908
L26254 31051
L26226 31108
L26169 31137
L26112 31137
L26054 31108
L26026 31051
L26026 30908
L25997 30851
" />
<path d="M25854 30651
L25854 30422
" />
<path d="M25654 30565
L26169 30565
L26226 30537
L26254 30479
L26254 30422
" />
<path d="M26226 29994
L26254 30051
L26254 30165
L26226 30222
L26169 30251
L25940 30251
L25883 30222
L25854 30165
L25854 30051
L25883 29994
L25940 29965
L25997 29965
L26054 30251
" />
<path d="M26254 29708
L25854 29708
" />
<path d="M25969 29708
L25912 29679
L25883 29651
L25854 29594
L25854 29537
" />
<path d="M26254 29337
L25854 29337
" />
<path d="M25654 29337
L25683 29365
L25712 29337
L25683 29308
L25654 29337
L25712 29337
" />
<path d="M26254 28794
L25940 28794
L25883 28822
L25854 28879
L25854 28994
L25883 29051
" />
<path d="M26226 28794
L26254 28851
L26254 28994
L26226 29051
L26169 29079
L26112 29079
L26054 29051
L26026 28994
L26026 28851
L25997 28794
" />
<path d="M25654 28108
L25654 27708
L26254 27965
" />
<path d="M26226 27451
L26254 27451
L26312 27479
L26340 27508
" />
<path d="M25712 27222
L25683 27194
L25654 27137
L25654 26994
L25683 26937
L25712 26908
L25769 26879
L25826 26879
L25912 26908
L26254 27251
L26254 26879
" />
<path d="M25654 26708
L26254 26508
L25654 26308
" />
</g>
<g style="fill:#009F9F; fill-opacity:0.0; 
stroke:#009F9F; stroke-width:80; stroke-opacity:1; 
stroke-linecap:round; stroke-linejoin:round;">
<path d="M9228 30299
L9228 29899
L9380 29899
L9419 29918
L9438 29937
L9457 29976
L9457 30033
L9438 30071
L9419 30090
L9380 30109
L9228 30109
" />
<path d="M9838 30299
L9609 30299
" />
<path d="M9723 30299
L9723 29899
L9685 29957
L9647 29995
L9609 30014
" />
</g>
<g style="fill:#009F9F; fill-opacity:0.0; 
stroke:#009F9F; stroke-width:100; stroke-opacity:1; 
stroke-linecap:round; stroke-linejoin:round;">
<path d="M12479 2816
L12251 2816
" />
<path d="M12365 2816
L12365 2416
L12327 2473
L12289 2511
L12251 2530
" />
<path d="M12651 2816
L12651 2416
L12803 2416
L12841 2435
L12860 2454
L12879 2492
L12879 2549
L12860 2587
L12841 2606
L12803 2625
L12651 2625
" />
<path d="M13051 2816
L13051 2416
" />
<path d="M13241 2816
L13241 2416
L13470 2816
L13470 2416
" />
<path d="M11393 28087
L11393 27687
L11546 27687
L11584 27706
L11603 27725
L11622 27763
L11622 27821
L11603 27859
L11584 27878
L11546 27897
L11393 27897
" />
<path d="M11851 27859
L11812 27840
L11793 27821
L11774 27782
L11774 27763
L11793 27725
L11812 27706
L11851 27687
L11927 27687
L11965 27706
L11984 27725
L12003 27763
L12003 27782
L11984 27821
L11965 27840
L11927 27859
L11851 27859
L11812 27878
L11793 27897
L11774 27935
L11774 28011
L11793 28049
L11812 28068
L11851 28087
L11927 28087
L11965 28068
L11984 28049
L12003 28011
L12003 27935
L11984 27897
L11965 27878
L11927 27859
" />
<path d="M10212 28087
L10212 27687
L10365 27687
L10403 27706
L10422 27725
L10441 27763
L10441 27821
L10422 27859
L10403 27878
L10365 27897
L10212 27897
" />
<path d="M10574 27687
L10841 27687
L10669 28087
" />
<path d="M4110 18048
L4110 17648
L4262 17648
L4300 17667
L4319 17686
L4339 17724
L4339 17781
L4319 17819
L4300 17838
L4262 17857
L4110 17857
" />
<path d="M4529 18048
L4605 18048
L4643 18029
L4662 18010
L4700 17953
L4719 17876
L4719 17724
L4700 17686
L4681 17667
L4643 17648
L4567 17648
L4529 17667
L4510 17686
L4491 17724
L4491 17819
L4510 17857
L4529 17876
L4567 17895
L4643 17895
L4681 17876
L4700 17857
L4719 17819
" />
<path d="M929 31434
L700 31434
" />
<path d="M814 31434
L814 31034
L776 31091
L738 31129
L700 31148
" />
<path d="M1100 31434
L1100 31034
L1253 31034
L1291 31053
L1310 31072
L1329 31110
L1329 31167
L1310 31205
L1291 31224
L1253 31243
L1100 31243
" />
<path d="M1500 31434
L1500 31034
" />
<path d="M1691 31434
L1691 31034
L1919 31434
L1919 31034
" />
<path d="M2091 31072
L2110 31053
L2148 31034
L2243 31034
L2281 31053
L2300 31072
L2319 31110
L2319 31148
L2300 31205
L2072 31434
L2319 31434
" />
<path d="M2491 31434
L2491 31167
" />
<path d="M2491 31205
L2510 31186
L2548 31167
L2605 31167
L2643 31186
L2662 31224
L2662 31434
" />
<path d="M2662 31224
L2681 31186
L2719 31167
L2776 31167
L2814 31186
L2833 31224
L2833 31434
" />
<path d="M3024 31434
L3024 31167
" />
<path d="M3024 31205
L3043 31186
L3081 31167
L3138 31167
L3176 31186
L3195 31224
L3195 31434
" />
<path d="M3195 31224
L3214 31186
L3253 31167
L3310 31167
L3348 31186
L3367 31224
L3367 31434
" />
<path d="M929 38127
L700 38127
" />
<path d="M814 38127
L814 37727
L776 37784
L738 37822
L700 37841
" />
<path d="M1100 38127
L1100 37727
L1253 37727
L1291 37746
L1310 37765
L1329 37803
L1329 37860
L1310 37898
L1291 37917
L1253 37936
L1100 37936
" />
<path d="M1500 38127
L1500 37727
" />
<path d="M1691 38127
L1691 37727
L1919 38127
L1919 37727
" />
<path d="M2091 37765
L2110 37746
L2148 37727
L2243 37727
L2281 37746
L2300 37765
L2319 37803
L2319 37841
L2300 37898
L2072 38127
L2319 38127
" />
<path d="M2491 38127
L2491 37860
" />
<path d="M2491 37898
L2510 37879
L2548 37860
L2605 37860
L2643 37879
L2662 37917
L2662 38127
" />
<path d="M2662 37917
L2681 37879
L2719 37860
L2776 37860
L2814 37879
L2833 37917
L2833 38127
" />
<path d="M3024 38127
L3024 37860
" />
<path d="M3024 37898
L3043 37879
L3081 37860
L3138 37860
L3176 37879
L3195 37917
L3195 38127
" />
<path d="M3195 37917
L3214 37879
L3253 37860
L3310 37860
L3348 37879
L3367 37917
L3367 38127
" />
<path d="M22582 38127
L22354 38127
" />
<path d="M22468 38127
L22468 37727
L22430 37784
L22392 37822
L22354 37841
" />
<path d="M22754 38127
L22754 37727
L22906 37727
L22944 37746
L22963 37765
L22982 37803
L22982 37860
L22963 37898
L22944 37917
L22906 37936
L22754 37936
" />
<path d="M23154 38127
L23154 37727
" />
<path d="M23344 38127
L23344 37727
L23573 38127
L23573 37727
" />
<path d="M23744 37765
L23763 37746
L23801 37727
L23897 37727
L23935 37746
L23954 37765
L23973 37803
L23973 37841
L23954 37898
L23725 38127
L23973 38127
" />
<path d="M24144 38127
L24144 37860
" />
<path d="M24144 37898
L24163 37879
L24201 37860
L24258 37860
L24297 37879
L24316 37917
L24316 38127
" />
<path d="M24316 37917
L24335 37879
L24373 37860
L24430 37860
L24468 37879
L24487 37917
L24487 38127
" />
<path d="M24678 38127
L24678 37860
" />
<path d="M24678 37898
L24697 37879
L24735 37860
L24792 37860
L24830 37879
L24849 37917
L24849 38127
" />
<path d="M24849 37917
L24868 37879
L24906 37860
L24963 37860
L25001 37879
L25020 37917
L25020 38127
" />
<path d="M22582 31434
L22354 31434
" />
<path d="M22468 31434
L22468 31034
L22430 31091
L22392 31129
L22354 31148
" />
<path d="M22754 31434
L22754 31034
L22906 31034
L22944 31053
L22963 31072
L22982 31110
L22982 31167
L22963 31205
L22944 31224
L22906 31243
L22754 31243
" />
<path d="M23154 31434
L23154 31034
" />
<path d="M23344 31434
L23344 31034
L23573 31434
L23573 31034
" />
<path d="M23744 31072
L23763 31053
L23801 31034
L23897 31034
L23935 31053
L23954 31072
L23973 31110
L23973 31148
L23954 31205
L23725 31434
L23973 31434
" />
<path d="M24144 31434
L24144 31167
" />
<path d="M24144 31205
L24163 31186
L24201 31167
L24258 31167
L24297 31186
L24316 31224
L24316 31434
" />
<path d="M24316 31224
L24335 31186
L24373 31167
L24430 31167
L24468 31186
L24487 31224
L24487 31434
" />
<path d="M24678 31434
L24678 31167
" />
<path d="M24678 31205
L24697 31186
L24735 31167
L24792 31167
L24830 31186
L24849 31224
L24849 31434
" />
<path d="M24849 31224
L24868 31186
L24906 31167
L24963 31167
L25001 31186
L25020 31224
L25020 31434
" />
</g>
<g style="fill:#009F9F; fill-opacity:0.0; 
stroke:#009F9F; stroke-width:60; stroke-opacity:1; 
stroke-linecap:round; stroke-linejoin:round;">
<path d="M15681 21742
L15896 21742
L15939 21756
L15967 21785
L15981 21828
L15981 21856
" />
<path d="M15981 21599
L15681 21599
L15681 21485
L15696 21456
L15710 21442
L15739 21428
L15781 21428
L15810 21442
L15824 21456
L15839 21485
L15839 21599
" />
<path d="M15681 21328
L15681 21142
L15796 21242
L15796 21199
L15810 21170
L15824 21156
L15853 21142
L15924 21142
L15953 21156
L15967 21170
L15981 21199
L15981 21285
L15967 21313
L15953 21328
" />
</g>
<g style="fill:#009F9F; fill-opacity:0.0; 
stroke:#009F9F; stroke-width:80; stroke-opacity:1; 
stroke-linecap:round; stroke-linejoin:round;">
<path d="M7442 5359
L7180 5526
" />
<path d="M7442 5645
L6892 5645
L6892 5454
L6918 5407
L6945 5383
L6997 5359
L7076 5359
L7128 5383
L7154 5407
L7180 5454
L7180 5645
" />
<path d="M7416 4788
L7442 4740
L7442 4645
L7416 4597
L7364 4573
L7337 4573
L7285 4597
L7259 4645
L7259 4716
L7233 4764
L7180 4788
L7154 4788
L7102 4764
L7076 4716
L7076 4645
L7102 4597
" />
<path d="M7416 4169
L7442 4216
L7442 4311
L7416 4359
L7364 4383
L7154 4383
L7102 4359
L7076 4311
L7076 4216
L7102 4169
L7154 4145
L7206 4145
L7259 4383
" />
<path d="M7076 3930
L7442 3930
" />
<path d="M7128 3930
L7102 3907
L7076 3859
L7076 3788
L7102 3740
L7154 3716
L7442 3716
" />
<path d="M7416 3502
L7442 3454
L7442 3359
L7416 3311
L7364 3288
L7337 3288
L7285 3311
L7259 3359
L7259 3430
L7233 3478
L7180 3502
L7154 3502
L7102 3478
L7076 3430
L7076 3359
L7102 3311
" />
<path d="M7442 3002
L7416 3050
L7390 3073
L7337 3097
L7180 3097
L7128 3073
L7102 3050
L7076 3002
L7076 2930
L7102 2883
L7128 2859
L7180 2835
L7337 2835
L7390 2859
L7416 2883
L7442 2930
L7442 3002
" />
<path d="M7442 2621
L7076 2621
" />
<path d="M7180 2621
L7128 2597
L7102 2573
L7076 2526
L7076 2478
" />
<path d="M22688 9762
L22426 9928
" />
<path d="M22688 10047
L22138 10047
L22138 9857
L22164 9809
L22190 9785
L22243 9762
L22321 9762
L22374 9785
L22400 9809
L22426 9857
L22426 10047
" />
<path d="M22662 9190
L22688 9143
L22688 9047
L22662 9000
L22609 8976
L22583 8976
L22531 9000
L22505 9047
L22505 9119
L22479 9166
L22426 9190
L22400 9190
L22348 9166
L22321 9119
L22321 9047
L22348 9000
" />
<path d="M22662 8571
L22688 8619
L22688 8714
L22662 8762
L22609 8785
L22400 8785
L22348 8762
L22321 8714
L22321 8619
L22348 8571
L22400 8547
L22452 8547
L22505 8785
" />
<path d="M22321 8333
L22688 8333
" />
<path d="M22374 8333
L22348 8309
L22321 8262
L22321 8190
L22348 8143
L22400 8119
L22688 8119
" />
<path d="M22662 7904
L22688 7857
L22688 7762
L22662 7714
L22609 7690
L22583 7690
L22531 7714
L22505 7762
L22505 7833
L22479 7881
L22426 7904
L22400 7904
L22348 7881
L22321 7833
L22321 7762
L22348 7714
" />
<path d="M22688 7404
L22662 7452
L22636 7476
L22583 7500
L22426 7500
L22374 7476
L22348 7452
L22321 7404
L22321 7333
L22348 7285
L22374 7262
L22426 7238
L22583 7238
L22636 7262
L22662 7285
L22688 7333
L22688 7404
" />
<path d="M22688 7024
L22321 7024
" />
<path d="M22426 7024
L22374 7000
L22348 6976
L22321 6928
L22321 6881
" />
<path d="M5367 6584
L5105 6751
" />
<path d="M5367 6870
L4817 6870
L4817 6679
L4843 6632
L4870 6608
L4922 6584
L5001 6584
L5053 6608
L5079 6632
L5105 6679
L5105 6870
" />
<path d="M5341 6013
L5367 5965
L5367 5870
L5341 5822
L5289 5798
L5262 5798
L5210 5822
L5184 5870
L5184 5941
L5158 5989
L5105 6013
L5079 6013
L5027 5989
L5001 5941
L5001 5870
L5027 5822
" />
<path d="M5341 5394
L5367 5441
L5367 5536
L5341 5584
L5289 5608
L5079 5608
L5027 5584
L5001 5536
L5001 5441
L5027 5394
L5079 5370
L5131 5370
L5184 5608
" />
<path d="M5001 5155
L5367 5155
" />
<path d="M5053 5155
L5027 5132
L5001 5084
L5001 5013
L5027 4965
L5079 4941
L5367 4941
" />
<path d="M5341 4727
L5367 4679
L5367 4584
L5341 4536
L5289 4513
L5262 4513
L5210 4536
L5184 4584
L5184 4655
L5158 4703
L5105 4727
L5079 4727
L5027 4703
L5001 4655
L5001 4584
L5027 4536
" />
<path d="M5367 4227
L5341 4275
L5315 4298
L5262 4322
L5105 4322
L5053 4298
L5027 4275
L5001 4227
L5001 4155
L5027 4108
L5053 4084
L5105 4060
L5262 4060
L5315 4084
L5341 4108
L5367 4155
L5367 4227
" />
<path d="M5367 3846
L5001 3846
" />
<path d="M5105 3846
L5053 3822
L5027 3798
L5001 3751
L5001 3703
" />
<path d="M22092 5384
L21830 5551
" />
<path d="M22092 5670
L21542 5670
L21542 5479
L21568 5432
L21595 5408
L21647 5384
L21726 5384
L21778 5408
L21804 5432
L21830 5479
L21830 5670
" />
<path d="M22066 4813
L22092 4765
L22092 4670
L22066 4622
L22014 4598
L21987 4598
L21935 4622
L21909 4670
L21909 4741
L21883 4789
L21830 4813
L21804 4813
L21752 4789
L21726 4741
L21726 4670
L21752 4622
" />
<path d="M22066 4194
L22092 4241
L22092 4336
L22066 4384
L22014 4408
L21804 4408
L21752 4384
L21726 4336
L21726 4241
L21752 4194
L21804 4170
L21856 4170
L21909 4408
" />
<path d="M21726 3955
L22092 3955
" />
<path d="M21778 3955
L21752 3932
L21726 3884
L21726 3813
L21752 3765
L21804 3741
L22092 3741
" />
<path d="M22066 3527
L22092 3479
L22092 3384
L22066 3336
L22014 3313
L21987 3313
L21935 3336
L21909 3384
L21909 3455
L21883 3503
L21830 3527
L21804 3527
L21752 3503
L21726 3455
L21726 3384
L21752 3336
" />
<path d="M22092 3027
L22066 3075
L22040 3098
L21987 3122
L21830 3122
L21778 3098
L21752 3075
L21726 3027
L21726 2955
L21752 2908
L21778 2884
L21830 2860
L21987 2860
L22040 2884
L22066 2908
L22092 2955
L22092 3027
" />
<path d="M22092 2646
L21726 2646
" />
<path d="M21830 2646
L21778 2622
L21752 2598
L21726 2551
L21726 2503
" />
<path d="M20417 10130
L20417 10416
" />
<path d="M20417 10273
L19867 10273
L19946 10321
L19998 10369
L20024 10416
" />
<path d="M19867 9821
L19867 9773
L19893 9726
L19920 9702
L19972 9678
L20077 9654
L20208 9654
L20312 9678
L20365 9702
L20391 9726
L20417 9773
L20417 9821
L20391 9869
L20365 9892
L20312 9916
L20208 9940
L20077 9940
L19972 9916
L19920 9892
L19893 9869
L19867 9821
" />
<path d="M19867 9345
L19867 9297
L19893 9250
L19920 9226
L19972 9202
L20077 9178
L20208 9178
L20312 9202
L20365 9226
L20391 9250
L20417 9297
L20417 9345
L20391 9392
L20365 9416
L20312 9440
L20208 9464
L20077 9464
L19972 9440
L19920 9416
L19893 9392
L19867 9345
" />
<path d="M2611 9227
L2611 9512
" />
<path d="M2611 9370
L2061 9370
L2139 9417
L2192 9465
L2218 9512
" />
<path d="M2061 8917
L2061 8870
L2087 8822
L2113 8798
L2166 8774
L2270 8751
L2401 8751
L2506 8774
L2559 8798
L2585 8822
L2611 8870
L2611 8917
L2585 8965
L2559 8989
L2506 9012
L2401 9036
L2270 9036
L2166 9012
L2113 8989
L2087 8965
L2061 8917
" />
<path d="M2061 8441
L2061 8393
L2087 8346
L2113 8322
L2166 8298
L2270 8274
L2401 8274
L2506 8298
L2559 8322
L2585 8346
L2611 8393
L2611 8441
L2585 8489
L2559 8512
L2506 8536
L2401 8560
L2270 8560
L2166 8536
L2113 8512
L2087 8489
L2061 8441
" />
<path d="M1542 5330
L1542 5616
" />
<path d="M1542 5473
L992 5473
L1071 5521
L1123 5569
L1149 5616
" />
<path d="M992 5021
L992 4973
L1018 4926
L1045 4902
L1097 4878
L1202 4854
L1333 4854
L1437 4878
L1490 4902
L1516 4926
L1542 4973
L1542 5021
L1516 5069
L1490 5092
L1437 5116
L1333 5140
L1202 5140
L1097 5116
L1045 5092
L1018 5069
L992 5021
" />
<path d="M992 4545
L992 4497
L1018 4450
L1045 4426
L1097 4402
L1202 4378
L1333 4378
L1437 4402
L1490 4426
L1516 4450
L1542 4497
L1542 4545
L1516 4592
L1490 4616
L1437 4640
L1333 4664
L1202 4664
L1097 4640
L1045 4616
L1018 4592
L992 4545
" />
<path d="M23642 4505
L23642 4791
" />
<path d="M23642 4648
L23092 4648
L23171 4696
L23223 4744
L23249 4791
" />
<path d="M23092 4196
L23092 4148
L23118 4101
L23145 4077
L23197 4053
L23302 4029
L23433 4029
L23537 4053
L23590 4077
L23616 4101
L23642 4148
L23642 4196
L23616 4244
L23590 4267
L23537 4291
L23433 4315
L23302 4315
L23197 4291
L23145 4267
L23118 4244
L23092 4196
" />
<path d="M23092 3720
L23092 3672
L23118 3625
L23145 3601
L23197 3577
L23302 3553
L23433 3553
L23537 3577
L23590 3601
L23616 3625
L23642 3672
L23642 3720
L23616 3767
L23590 3791
L23537 3815
L23433 3839
L23302 3839
L23197 3815
L23145 3791
L23118 3767
L23092 3720
" />
</g>
<g style="fill:#009F9F; fill-opacity:0.0; 
stroke:#009F9F; stroke-width:43; stroke-opacity:1; 
stroke-linecap:round; stroke-linejoin:round;">
<path d="M14748 36874
L14654 36940
" />
<path d="M14748 36987
L14551 36987
L14551 36912
L14560 36893
L14570 36884
L14588 36874
L14616 36874
L14635 36884
L14645 36893
L14654 36912
L14654 36987
" />
<path d="M14748 36687
L14748 36799
" />
<path d="M14748 36743
L14551 36743
L14579 36762
L14598 36781
L14607 36799
" />
<path d="M14551 36509
L14551 36602
L14645 36612
L14635 36602
L14626 36584
L14626 36537
L14635 36518
L14645 36509
L14663 36499
L14710 36499
L14729 36509
L14738 36518
L14748 36537
L14748 36584
L14738 36602
L14729 36612
" />
<path d="M14473 36987
L14379 37053
" />
<path d="M14473 37100
L14276 37100
L14276 37024
L14285 37006
L14295 36996
L14313 36987
L14341 36987
L14360 36996
L14370 37006
L14379 37024
L14379 37100
" />
<path d="M14473 36724
L14463 36743
L14445 36752
L14276 36752
" />
<path d="M14463 36574
L14473 36593
L14473 36630
L14463 36649
L14445 36659
L14370 36659
L14351 36649
L14341 36630
L14341 36593
L14351 36574
L14370 36565
L14388 36565
L14407 36659
" />
<path d="M14473 36396
L14276 36396
" />
<path d="M14463 36396
L14473 36415
L14473 36452
L14463 36471
L14454 36480
L14435 36490
L14379 36490
L14360 36480
L14351 36471
L14341 36452
L14341 36415
L14351 36396
" />
<path d="M13567 36874
L13473 36940
" />
<path d="M13567 36987
L13370 36987
L13370 36912
L13379 36893
L13388 36884
L13407 36874
L13435 36874
L13454 36884
L13463 36893
L13473 36912
L13473 36987
" />
<path d="M13567 36687
L13567 36799
" />
<path d="M13567 36743
L13370 36743
L13398 36762
L13417 36781
L13426 36799
" />
<path d="M13370 36518
L13370 36555
L13379 36574
L13388 36584
L13417 36602
L13454 36612
L13529 36612
L13548 36602
L13557 36593
L13567 36574
L13567 36537
L13557 36518
L13548 36509
L13529 36499
L13482 36499
L13463 36509
L13454 36518
L13445 36537
L13445 36574
L13454 36593
L13463 36602
L13482 36612
" />
<path d="M13292 36987
L13198 37053
" />
<path d="M13292 37100
L13095 37100
L13095 37024
L13104 37006
L13113 36996
L13132 36987
L13160 36987
L13179 36996
L13188 37006
L13198 37024
L13198 37100
" />
<path d="M13292 36724
L13282 36743
L13263 36752
L13095 36752
" />
<path d="M13282 36574
L13292 36593
L13292 36630
L13282 36649
L13263 36659
L13188 36659
L13170 36649
L13160 36630
L13160 36593
L13170 36574
L13188 36565
L13207 36565
L13226 36659
" />
<path d="M13292 36396
L13095 36396
" />
<path d="M13282 36396
L13292 36415
L13292 36452
L13282 36471
L13273 36480
L13254 36490
L13198 36490
L13179 36480
L13170 36471
L13160 36452
L13160 36415
L13170 36396
" />
<path d="M11204 36874
L11111 36940
" />
<path d="M11204 36987
L11007 36987
L11007 36912
L11017 36893
L11026 36884
L11045 36874
L11073 36874
L11092 36884
L11101 36893
L11111 36912
L11111 36987
" />
<path d="M11204 36687
L11204 36799
" />
<path d="M11204 36743
L11007 36743
L11036 36762
L11054 36781
L11064 36799
" />
<path d="M11007 36621
L11007 36490
L11204 36574
" />
<path d="M10929 36987
L10836 37053
" />
<path d="M10929 37100
L10732 37100
L10732 37024
L10742 37006
L10751 36996
L10770 36987
L10798 36987
L10817 36996
L10826 37006
L10836 37024
L10836 37100
" />
<path d="M10929 36724
L10920 36743
L10901 36752
L10732 36752
" />
<path d="M10920 36574
L10929 36593
L10929 36630
L10920 36649
L10901 36659
L10826 36659
L10807 36649
L10798 36630
L10798 36593
L10807 36574
L10826 36565
L10845 36565
L10864 36659
" />
<path d="M10929 36396
L10732 36396
" />
<path d="M10920 36396
L10929 36415
L10929 36452
L10920 36471
L10911 36480
L10892 36490
L10836 36490
L10817 36480
L10807 36471
L10798 36452
L10798 36415
L10807 36396
" />
<path d="M12386 36874
L12292 36940
" />
<path d="M12386 36987
L12189 36987
L12189 36912
L12198 36893
L12207 36884
L12226 36874
L12254 36874
L12273 36884
L12282 36893
L12292 36912
L12292 36987
" />
<path d="M12386 36687
L12386 36799
" />
<path d="M12386 36743
L12189 36743
L12217 36762
L12235 36781
L12245 36799
" />
<path d="M12273 36574
L12264 36593
L12254 36602
L12235 36612
L12226 36612
L12207 36602
L12198 36593
L12189 36574
L12189 36537
L12198 36518
L12207 36509
L12226 36499
L12235 36499
L12254 36509
L12264 36518
L12273 36537
L12273 36574
L12282 36593
L12292 36602
L12310 36612
L12348 36612
L12367 36602
L12376 36593
L12386 36574
L12386 36537
L12376 36518
L12367 36509
L12348 36499
L12310 36499
L12292 36509
L12282 36518
L12273 36537
" />
<path d="M12111 36987
L12017 37053
" />
<path d="M12111 37100
L11914 37100
L11914 37024
L11923 37006
L11932 36996
L11951 36987
L11979 36987
L11998 36996
L12007 37006
L12017 37024
L12017 37100
" />
<path d="M12111 36724
L12101 36743
L12082 36752
L11914 36752
" />
<path d="M12101 36574
L12111 36593
L12111 36630
L12101 36649
L12082 36659
L12007 36659
L11989 36649
L11979 36630
L11979 36593
L11989 36574
L12007 36565
L12026 36565
L12045 36659
" />
<path d="M12111 36396
L11914 36396
" />
<path d="M12101 36396
L12111 36415
L12111 36452
L12101 36471
L12092 36480
L12073 36490
L12017 36490
L11998 36480
L11989 36471
L11979 36452
L11979 36415
L11989 36396
" />
</g>
<g style="fill:#009F9F; fill-opacity:0.0; 
stroke:#009F9F; stroke-width:100; stroke-opacity:1; 
stroke-linecap:round; stroke-linejoin:round;">
<path d="M8250 22024
L8250 21624
L8403 21624
L8441 21643
L8460 21662
L8479 21700
L8479 21758
L8460 21796
L8441 21815
L8403 21834
L8250 21834
" />
<path d="M8860 22024
L8631 22024
" />
<path d="M8745 22024
L8745 21624
L8707 21681
L8669 21719
L8631 21738
" />
<path d="M9107 21624
L9145 21624
L9184 21643
L9203 21662
L9222 21700
L9241 21777
L9241 21872
L9222 21948
L9203 21986
L9184 22005
L9145 22024
L9107 22024
L9069 22005
L9050 21986
L9031 21948
L9012 21872
L9012 21777
L9031 21700
L9050 21662
L9069 21643
L9107 21624
" />
<path d="M7069 22044
L7069 21644
L7221 21644
L7260 21663
L7279 21682
L7298 21720
L7298 21777
L7279 21815
L7260 21834
L7221 21853
L7069 21853
" />
<path d="M7679 22044
L7450 22044
" />
<path d="M7564 22044
L7564 21644
L7526 21701
L7488 21739
L7450 21758
" />
<path d="M8060 22044
L7831 22044
" />
<path d="M7945 22044
L7945 21644
L7907 21701
L7869 21739
L7831 21758
" />
<path d="M3585 27162
L3585 26762
L3737 26762
L3775 26781
L3794 26800
L3813 26838
L3813 26895
L3794 26933
L3775 26952
L3737 26972
L3585 26972
" />
<path d="M4194 27162
L3966 27162
" />
<path d="M4080 27162
L4080 26762
L4042 26819
L4004 26857
L3966 26876
" />
<path d="M4556 26762
L4366 26762
L4347 26952
L4366 26933
L4404 26914
L4499 26914
L4537 26933
L4556 26952
L4575 26991
L4575 27086
L4556 27124
L4537 27143
L4499 27162
L4404 27162
L4366 27143
L4347 27124
" />
<path d="M5179 28166
L5179 27766
L5332 27766
L5370 27785
L5389 27804
L5408 27842
L5408 27899
L5389 27937
L5370 27956
L5332 27975
L5179 27975
" />
<path d="M5789 28166
L5560 28166
" />
<path d="M5675 28166
L5675 27766
L5636 27823
L5598 27861
L5560 27880
" />
<path d="M5922 27766
L6170 27766
L6036 27918
L6094 27918
L6132 27937
L6151 27956
L6170 27995
L6170 28090
L6151 28128
L6132 28147
L6094 28166
L5979 28166
L5941 28147
L5922 28128
" />
<path d="M22975 11158
L22975 10758
L23127 10758
L23165 10777
L23184 10796
L23203 10834
L23203 10891
L23184 10929
L23165 10949
L23127 10968
L22975 10968
" />
<path d="M23584 11158
L23356 11158
" />
<path d="M23470 11158
L23470 10758
L23432 10815
L23394 10853
L23356 10872
" />
<path d="M23927 10891
L23927 11158
" />
<path d="M23832 10739
L23737 11025
L23984 11025
" />
<path d="M23959 12005
L23959 11605
L24111 11605
L24149 11624
L24168 11643
L24187 11681
L24187 11738
L24168 11776
L24149 11795
L24111 11814
L23959 11814
" />
<path d="M24568 12005
L24340 12005
" />
<path d="M24454 12005
L24454 11605
L24416 11662
L24378 11700
L24340 11719
" />
<path d="M24721 11643
L24740 11624
L24778 11605
L24873 11605
L24911 11624
L24930 11643
L24949 11681
L24949 11719
L24930 11776
L24702 12005
L24949 12005
" />
</g>
<g style="fill:#009F9F; fill-opacity:0.0; 
stroke:#009F9F; stroke-width:150; stroke-opacity:1; 
stroke-linecap:round; stroke-linejoin:round;">
<circle cx="8933.27" cy="3854.53" r="900" /> 
<circle cx="19953.1" cy="3854.53" r="900" /> 
</g>
<g style="fill:#009F9F; fill-opacity:0.0; 
stroke:#009F9F; stroke-width:50; stroke-opacity:1; 
stroke-linecap:round; stroke-linejoin:round;">
<circle cx="3421.46" cy="25311.2" r="1000" /> 
<path d="M4921 23811
L4921 26811
" />
<path d="M4921 26811
L1921 26811
" />
<path d="M1921 26811
L1921 23811
" />
<path d="M4921 23811
L1921 23811
" />
<circle cx="3421.46" cy="21295.5" r="1000" /> 
<path d="M4921 19795
L4921 22795
" />
<path d="M4921 22795
L1921 22795
" />
<path d="M1921 22795
L1921 19795
" />
<path d="M4921 19795
L1921 19795
" />
<circle cx="23500.2" cy="21098.6" r="1000" /> 
<path d="M22000 19598
L25000 19598
" />
<path d="M25000 19598
L25000 22598
" />
<path d="M25000 22598
L22000 22598
" />
<path d="M22000 19598
L22000 22598
" />
</g>
<g style="fill:#009F9F; fill-opacity:0.0; 
stroke:#009F9F; stroke-width:80; stroke-opacity:1; 
stroke-linecap:round; stroke-linejoin:round;">
<path d="M11220 29956
L11020 29956
" />
<path d="M8220 29956
L8420 29956
" />
<path d="M8420 29956
L8420 30356
" />
<path d="M8420 30356
L11020 30356
" />
<path d="M11020 30356
L11020 29556
" />
<path d="M11020 29556
L8420 29556
" />
<path d="M8420 29556
L8420 29956
" />
<path d="M11020 30156
L10820 30356
" />
<path d="M15626 22795
L15626 22595
" />
<path d="M15626 19795
L15626 19995
" />
<path d="M15626 19995
L15226 19995
" />
<path d="M15226 19995
L15226 22595
" />
<path d="M15226 22595
L16026 22595
" />
<path d="M16026 22595
L16026 19995
" />
<path d="M16026 19995
L15626 19995
" />
<path d="M15426 22595
L15226 22395
" />
<path d="M8661 20508
L8461 20508
" />
<path d="M5661 20508
L5861 20508
" />
<path d="M5861 20508
L5861 20908
" />
<path d="M5861 20908
L8461 20908
" />
<path d="M8461 20908
L8461 20108
" />
<path d="M8461 20108
L5861 20108
" />
<path d="M5861 20108
L5861 20508
" />
<path d="M8461 20708
L8261 20908
" />
<path d="M21712 26535
L21712 23535
" />
<path d="M23712 23535
L23712 26535
" />
<path d="M23712 26535
L21712 26535
" />
<path d="M21712 23535
L23712 23535
" />
</g>
<g style="fill:#009F9F; fill-opacity:0.0; 
stroke:#009F9F; stroke-width:60; stroke-opacity:1; 
stroke-linecap:round; stroke-linejoin:round;">
<path d="M18929 29512
L18929 28512
" />
<path d="M18929 28512
L21929 28512
" />
<path d="M21929 28512
L21929 29512
" />
<path d="M21929 29512
L18929 29512
" />
<path d="M19929 28512
L19929 29512
" />
<path d="M24695 997
L24695 1997
" />
<path d="M24695 1997
L21695 1997
" />
<path d="M21695 1997
L21695 997
" />
<path d="M21695 997
L24695 997
" />
<path d="M23695 1997
L23695 997
" />
<path d="M3019 7393
L4019 7393
" />
<path d="M4019 7393
L4019 10393
" />
<path d="M4019 10393
L3019 10393
" />
<path d="M3019 10393
L3019 7393
" />
<path d="M4019 8393
L3019 8393
" />
<path d="M24397 4480
L25397 4480
" />
<path d="M25397 4480
L25397 7480
" />
<path d="M25397 7480
L24397 7480
" />
<path d="M24397 7480
L24397 4480
" />
<path d="M25397 5480
L24397 5480
" />
<path d="M20834 7787
L21834 7787
" />
<path d="M21834 7787
L21834 10787
" />
<path d="M21834 10787
L20834 10787
" />
<path d="M20834 10787
L20834 7787
" />
<path d="M21834 8787
L20834 8787
" />
<path d="M1995 2847
L2995 2847
" />
<path d="M2995 2847
L2995 5847
" />
<path d="M2995 5847
L1995 5847
" />
<path d="M1995 5847
L1995 2847
" />
<path d="M2995 3847
L1995 3847
" />
<path d="M12870 31422
L12870 30422
" />
<path d="M12870 30422
L14870 30422
" />
<path d="M14870 30422
L14870 31422
" />
<path d="M14870 31422
L12870 31422
" />
<path d="M8252 16783
L7252 16783
" />
<path d="M7252 16783
L7252 14783
" />
<path d="M7252 14783
L8252 14783
" />
<path d="M8252 14783
L8252 16783
" />
<path d="M25378 9893
L24378 9893
" />
<path d="M24378 9893
L24378 7893
" />
<path d="M24378 7893
L25378 7893
" />
<path d="M25378 7893
L25378 9893
" />
</g>
<g style="fill:#009F9F; fill-opacity:0.0; 
stroke:#009F9F; stroke-width:26; stroke-opacity:1; 
stroke-linecap:round; stroke-linejoin:round;">
<path d="M12063 39700
L11935 39700
" />
<path d="M11935 39700
L11935 39897
" />
<path d="M12063 39897
L11935 39897
" />
<path d="M12063 39700
L12063 39897
" />
<path d="M12308 39700
L12249 39700
" />
<path d="M12249 39700
L12249 39799
" />
<path d="M12308 39799
L12249 39799
" />
<path d="M12308 39700
L12308 39799
" />
<path d="M12113 39700
L12054 39700
" />
<path d="M12054 39700
L12054 39799
" />
<path d="M12113 39799
L12054 39799
" />
<path d="M12113 39700
L12113 39799
" />
<path d="M12259 39700
L12103 39700
" />
<path d="M12103 39700
L12103 39769
" />
<path d="M12259 39769
L12103 39769
" />
<path d="M12259 39700
L12259 39769
" />
<path d="M12063 39111
L11935 39111
" />
<path d="M11935 39111
L11935 39308
" />
<path d="M12063 39308
L11935 39308
" />
<path d="M12063 39111
L12063 39308
" />
<path d="M12427 39111
L12299 39111
" />
<path d="M12299 39111
L12299 39308
" />
<path d="M12427 39308
L12299 39308
" />
<path d="M12427 39111
L12427 39308
" />
<path d="M12113 39209
L12054 39209
" />
<path d="M12054 39209
L12054 39308
" />
<path d="M12113 39308
L12054 39308
" />
<path d="M12113 39209
L12113 39308
" />
<path d="M12308 39209
L12249 39209
" />
<path d="M12249 39209
L12249 39308
" />
<path d="M12308 39308
L12249 39308
" />
<path d="M12308 39209
L12308 39308
" />
<path d="M12259 39239
L12103 39239
" />
<path d="M12103 39239
L12103 39308
" />
<path d="M12259 39308
L12103 39308
" />
<path d="M12259 39239
L12259 39308
" />
<path d="M12220 39504
L12142 39504
" />
<path d="M12142 39504
L12142 39582
" />
<path d="M12220 39582
L12142 39582
" />
<path d="M12220 39504
L12220 39582
" />
<path d="M12417 39700
L12299 39700
" />
<path d="M12299 39700
L12299 39818
" />
<path d="M12417 39818
L12299 39818
" />
<path d="M12417 39700
L12417 39818
" />
<path d="M12427 39868
L12338 39868
" />
<path d="M12338 39868
L12338 39897
" />
<path d="M12427 39897
L12338 39897
" />
<path d="M12427 39868
L12427 39897
" />
</g>
<g style="fill:#009F9F; fill-opacity:0.0; 
stroke:#009F9F; stroke-width:40; stroke-opacity:1; 
stroke-linecap:round; stroke-linejoin:round;">
<path d="M11955 39710
L11955 39298
" />
<path d="M12407 39308
L12407 39868
" />
</g>
<g style="fill:#009F9F; fill-opacity:0.0; 
stroke:#009F9F; stroke-width:20; stroke-opacity:1; 
stroke-linecap:round; stroke-linejoin:round;">
<circle cx="12358.3" cy="39838.1" r="28.2843" /> 
</g>
<g style="fill:#009F9F; fill-opacity:0.0; 
stroke:#009F9F; stroke-width:40; stroke-opacity:1; 
stroke-linecap:round; stroke-linejoin:round;">
<path d="M12318.3 39897.1 A137 137 0.0 0 0 12044.3 39897.1 " />
<path d="M12044.3 39111.1 A137 137 0.0 0 0 12318.3 39111.1 " />
</g>
<g style="fill:#009F9F; fill-opacity:0.0; 
stroke:#009F9F; stroke-width:26; stroke-opacity:1; 
stroke-linecap:round; stroke-linejoin:round;">
<path d="M14425 39700
L14297 39700
" />
<path d="M14297 39700
L14297 39897
" />
<path d="M14425 39897
L14297 39897
" />
<path d="M14425 39700
L14425 39897
" />
<path d="M14670 39700
L14611 39700
" />
<path d="M14611 39700
L14611 39799
" />
<path d="M14670 39799
L14611 39799
" />
<path d="M14670 39700
L14670 39799
" />
<path d="M14475 39700
L14416 39700
" />
<path d="M14416 39700
L14416 39799
" />
<path d="M14475 39799
L14416 39799
" />
<path d="M14475 39700
L14475 39799
" />
<path d="M14621 39700
L14465 39700
" />
<path d="M14465 39700
L14465 39769
" />
<path d="M14621 39769
L14465 39769
" />
<path d="M14621 39700
L14621 39769
" />
<path d="M14425 39111
L14297 39111
" />
<path d="M14297 39111
L14297 39308
" />
<path d="M14425 39308
L14297 39308
" />
<path d="M14425 39111
L14425 39308
" />
<path d="M14789 39111
L14661 39111
" />
<path d="M14661 39111
L14661 39308
" />
<path d="M14789 39308
L14661 39308
" />
<path d="M14789 39111
L14789 39308
" />
<path d="M14475 39209
L14416 39209
" />
<path d="M14416 39209
L14416 39308
" />
<path d="M14475 39308
L14416 39308
" />
<path d="M14475 39209
L14475 39308
" />
<path d="M14670 39209
L14611 39209
" />
<path d="M14611 39209
L14611 39308
" />
<path d="M14670 39308
L14611 39308
" />
<path d="M14670 39209
L14670 39308
" />
<path d="M14621 39239
L14465 39239
" />
<path d="M14465 39239
L14465 39308
" />
<path d="M14621 39308
L14465 39308
" />
<path d="M14621 39239
L14621 39308
" />
<path d="M14582 39504
L14504 39504
" />
<path d="M14504 39504
L14504 39582
" />
<path d="M14582 39582
L14504 39582
" />
<path d="M14582 39504
L14582 39582
" />
<path d="M14779 39700
L14661 39700
" />
<path d="M14661 39700
L14661 39818
" />
<path d="M14779 39818
L14661 39818
" />
<path d="M14779 39700
L14779 39818
" />
<path d="M14789 39868
L14700 39868
" />
<path d="M14700 39868
L14700 39897
" />
<path d="M14789 39897
L14700 39897
" />
<path d="M14789 39868
L14789 39897
" />
</g>
<g style="fill:#009F9F; fill-opacity:0.0; 
stroke:#009F9F; stroke-width:40; stroke-opacity:1; 
stroke-linecap:round; stroke-linejoin:round;">
<path d="M14317 39710
L14317 39298
" />
<path d="M14769 39308
L14769 39868
" />
</g>
<g style="fill:#009F9F; fill-opacity:0.0; 
stroke:#009F9F; stroke-width:20; stroke-opacity:1; 
stroke-linecap:round; stroke-linejoin:round;">
<circle cx="14720.5" cy="39838.1" r="28.2843" /> 
</g>
<g style="fill:#009F9F; fill-opacity:0.0; 
stroke:#009F9F; stroke-width:40; stroke-opacity:1; 
stroke-linecap:round; stroke-linejoin:round;">
<path d="M14680.5 39897.1 A137 137 0.0 0 0 14406.5 39897.1 " />
<path d="M14406.5 39111.1 A137 137 0.0 0 0 14680.5 39111.1 " />
</g>
<g style="fill:#009F9F; fill-opacity:0.0; 
stroke:#009F9F; stroke-width:26; stroke-opacity:1; 
stroke-linecap:round; stroke-linejoin:round;">
<path d="M10882 39700
L10754 39700
" />
<path d="M10754 39700
L10754 39897
" />
<path d="M10882 39897
L10754 39897
" />
<path d="M10882 39700
L10882 39897
" />
<path d="M11127 39700
L11068 39700
" />
<path d="M11068 39700
L11068 39799
" />
<path d="M11127 39799
L11068 39799
" />
<path d="M11127 39700
L11127 39799
" />
<path d="M10932 39700
L10873 39700
" />
<path d="M10873 39700
L10873 39799
" />
<path d="M10932 39799
L10873 39799
" />
<path d="M10932 39700
L10932 39799
" />
<path d="M11078 39700
L10922 39700
" />
<path d="M10922 39700
L10922 39769
" />
<path d="M11078 39769
L10922 39769
" />
<path d="M11078 39700
L11078 39769
" />
<path d="M10882 39111
L10754 39111
" />
<path d="M10754 39111
L10754 39308
" />
<path d="M10882 39308
L10754 39308
" />
<path d="M10882 39111
L10882 39308
" />
<path d="M11246 39111
L11118 39111
" />
<path d="M11118 39111
L11118 39308
" />
<path d="M11246 39308
L11118 39308
" />
<path d="M11246 39111
L11246 39308
" />
<path d="M10932 39209
L10873 39209
" />
<path d="M10873 39209
L10873 39308
" />
<path d="M10932 39308
L10873 39308
" />
<path d="M10932 39209
L10932 39308
" />
<path d="M11127 39209
L11068 39209
" />
<path d="M11068 39209
L11068 39308
" />
<path d="M11127 39308
L11068 39308
" />
<path d="M11127 39209
L11127 39308
" />
<path d="M11078 39239
L10922 39239
" />
<path d="M10922 39239
L10922 39308
" />
<path d="M11078 39308
L10922 39308
" />
<path d="M11078 39239
L11078 39308
" />
<path d="M11039 39504
L10961 39504
" />
<path d="M10961 39504
L10961 39582
" />
<path d="M11039 39582
L10961 39582
" />
<path d="M11039 39504
L11039 39582
" />
<path d="M11236 39700
L11118 39700
" />
<path d="M11118 39700
L11118 39818
" />
<path d="M11236 39818
L11118 39818
" />
<path d="M11236 39700
L11236 39818
" />
<path d="M11246 39868
L11157 39868
" />
<path d="M11157 39868
L11157 39897
" />
<path d="M11246 39897
L11157 39897
" />
<path d="M11246 39868
L11246 39897
" />
</g>
<g style="fill:#009F9F; fill-opacity:0.0; 
stroke:#009F9F; stroke-width:40; stroke-opacity:1; 
stroke-linecap:round; stroke-linejoin:round;">
<path d="M10774 39710
L10774 39298
" />
<path d="M11226 39308
L11226 39868
" />
</g>
<g style="fill:#009F9F; fill-opacity:0.0; 
stroke:#009F9F; stroke-width:20; stroke-opacity:1; 
stroke-linecap:round; stroke-linejoin:round;">
<circle cx="11177.2" cy="39838.1" r="28.2843" /> 
</g>
<g style="fill:#009F9F; fill-opacity:0.0; 
stroke:#009F9F; stroke-width:40; stroke-opacity:1; 
stroke-linecap:round; stroke-linejoin:round;">
<path d="M11137.2 39897.1 A137 137 0.0 0 0 10863.2 39897.1 " />
<path d="M10863.2 39111.1 A137 137 0.0 0 0 11137.2 39111.1 " />
</g>
<g style="fill:#009F9F; fill-opacity:0.0; 
stroke:#009F9F; stroke-width:26; stroke-opacity:1; 
stroke-linecap:round; stroke-linejoin:round;">
<path d="M13244 39700
L13116 39700
" />
<path d="M13116 39700
L13116 39897
" />
<path d="M13244 39897
L13116 39897
" />
<path d="M13244 39700
L13244 39897
" />
<path d="M13489 39700
L13430 39700
" />
<path d="M13430 39700
L13430 39799
" />
<path d="M13489 39799
L13430 39799
" />
<path d="M13489 39700
L13489 39799
" />
<path d="M13294 39700
L13235 39700
" />
<path d="M13235 39700
L13235 39799
" />
<path d="M13294 39799
L13235 39799
" />
<path d="M13294 39700
L13294 39799
" />
<path d="M13440 39700
L13284 39700
" />
<path d="M13284 39700
L13284 39769
" />
<path d="M13440 39769
L13284 39769
" />
<path d="M13440 39700
L13440 39769
" />
<path d="M13244 39111
L13116 39111
" />
<path d="M13116 39111
L13116 39308
" />
<path d="M13244 39308
L13116 39308
" />
<path d="M13244 39111
L13244 39308
" />
<path d="M13608 39111
L13480 39111
" />
<path d="M13480 39111
L13480 39308
" />
<path d="M13608 39308
L13480 39308
" />
<path d="M13608 39111
L13608 39308
" />
<path d="M13294 39209
L13235 39209
" />
<path d="M13235 39209
L13235 39308
" />
<path d="M13294 39308
L13235 39308
" />
<path d="M13294 39209
L13294 39308
" />
<path d="M13489 39209
L13430 39209
" />
<path d="M13430 39209
L13430 39308
" />
<path d="M13489 39308
L13430 39308
" />
<path d="M13489 39209
L13489 39308
" />
<path d="M13440 39239
L13284 39239
" />
<path d="M13284 39239
L13284 39308
" />
<path d="M13440 39308
L13284 39308
" />
<path d="M13440 39239
L13440 39308
" />
<path d="M13401 39504
L13323 39504
" />
<path d="M13323 39504
L13323 39582
" />
<path d="M13401 39582
L13323 39582
" />
<path d="M13401 39504
L13401 39582
" />
<path d="M13598 39700
L13480 39700
" />
<path d="M13480 39700
L13480 39818
" />
<path d="M13598 39818
L13480 39818
" />
<path d="M13598 39700
L13598 39818
" />
<path d="M13608 39868
L13519 39868
" />
<path d="M13519 39868
L13519 39897
" />
<path d="M13608 39897
L13519 39897
" />
<path d="M13608 39868
L13608 39897
" />
</g>
<g style="fill:#009F9F; fill-opacity:0.0; 
stroke:#009F9F; stroke-width:40; stroke-opacity:1; 
stroke-linecap:round; stroke-linejoin:round;">
<path d="M13136 39710
L13136 39298
" />
<path d="M13588 39308
L13588 39868
" />
</g>
<g style="fill:#009F9F; fill-opacity:0.0; 
stroke:#009F9F; stroke-width:20; stroke-opacity:1; 
stroke-linecap:round; stroke-linejoin:round;">
<circle cx="13539.4" cy="39838.1" r="28.2843" /> 
</g>
<g style="fill:#009F9F; fill-opacity:0.0; 
stroke:#009F9F; stroke-width:40; stroke-opacity:1; 
stroke-linecap:round; stroke-linejoin:round;">
<path d="M13499.4 39897.1 A137 137 0.0 0 0 13225.4 39897.1 " />
<path d="M13225.4 39111.1 A137 137 0.0 0 0 13499.4 39111.1 " />
</g>
<g style="fill:#009F9F; fill-opacity:0.0; 
stroke:#009F9F; stroke-width:150; stroke-opacity:1; 
stroke-linecap:round; stroke-linejoin:round;">
<path d="M8620 14033
L17120 14033
" />
<path d="M8620 17533
L8620 13533
" />
<path d="M8620 13533
L17120 13533
" />
<path d="M17120 13533
L17120 17533
" />
<path d="M17120 17533
L8620 17533
" />
<path d="M6551 24429
L21551 24429
" />
<path d="M21551 24429
L21551 26429
" />
<path d="M21551 26429
L6551 26429
" />
<path d="M6551 26429
L6551 24429
" />
<path d="M6551 24929
L7051 24929
" />
<path d="M7051 24929
L7051 25929
" />
<path d="M7051 25929
L6551 25929
" />
</g>
<g style="fill:#009F9F; fill-opacity:0.0; 
stroke:#009F9F; stroke-width:120; stroke-opacity:1; 
stroke-linecap:round; stroke-linejoin:round;">
<path d="M6571 12315
L6571 12615
" />
<path d="M6571 12615
L6171 12615
" />
<path d="M6171 12615
L6171 15015
" />
<path d="M6171 15015
L6571 15015
" />
<path d="M6571 15015
L6571 15315
" />
<path d="M6571 15015
L6971 15015
" />
<path d="M6971 15015
L6971 12615
" />
<path d="M6971 12615
L6571 12615
" />
<path d="M6171 12815
L6971 12815
" />
<path d="M6971 12915
L6171 12915
" />
<path d="M19169 12315
L19169 12615
" />
<path d="M19169 12615
L18769 12615
" />
<path d="M18769 12615
L18769 15015
" />
<path d="M18769 15015
L19169 15015
" />
<path d="M19169 15015
L19169 15315
" />
<path d="M19169 15015
L19569 15015
" />
<path d="M19569 15015
L19569 12615
" />
<path d="M19569 12615
L19169 12615
" />
<path d="M18769 12815
L19569 12815
" />
<path d="M19569 12915
L18769 12915
" />
<path d="M19169 16055
L19169 16355
" />
<path d="M19169 16355
L18769 16355
" />
<path d="M18769 16355
L18769 18755
" />
<path d="M18769 18755
L19169 18755
" />
<path d="M19169 18755
L19169 19055
" />
<path d="M19169 18755
L19569 18755
" />
<path d="M19569 18755
L19569 16355
" />
<path d="M19569 16355
L19169 16355
" />
<path d="M18769 16555
L19569 16555
" />
<path d="M19569 16655
L18769 16655
" />
<path d="M20153 16055
L20153 16355
" />
<path d="M20153 16355
L19753 16355
" />
<path d="M19753 16355
L19753 18755
" />
<path d="M19753 18755
L20153 18755
" />
<path d="M20153 18755
L20153 19055
" />
<path d="M20153 18755
L20553 18755
" />
<path d="M20553 18755
L20553 16355
" />
<path d="M20553 16355
L20153 16355
" />
<path d="M19753 16555
L20553 16555
" />
<path d="M20553 16655
L19753 16655
" />
<path d="M20153 12315
L20153 12615
" />
<path d="M20153 12615
L19753 12615
" />
<path d="M19753 12615
L19753 15015
" />
<path d="M19753 15015
L20153 15015
" />
<path d="M20153 15015
L20153 15315
" />
<path d="M20153 15015
L20553 15015
" />
<path d="M20553 15015
L20553 12615
" />
<path d="M20553 12615
L20153 12615
" />
<path d="M19753 12815
L20553 12815
" />
<path d="M20553 12915
L19753 12915
" />
<path d="M6571 16055
L6571 16355
" />
<path d="M6571 16355
L6171 16355
" />
<path d="M6171 16355
L6171 18755
" />
<path d="M6171 18755
L6571 18755
" />
<path d="M6571 18755
L6571 19055
" />
<path d="M6571 18755
L6971 18755
" />
<path d="M6971 18755
L6971 16355
" />
<path d="M6971 16355
L6571 16355
" />
<path d="M6171 16555
L6971 16555
" />
<path d="M6971 16655
L6171 16655
" />
<path d="M5586 16055
L5586 16355
" />
<path d="M5586 16355
L5186 16355
" />
<path d="M5186 16355
L5186 18755
" />
<path d="M5186 18755
L5586 18755
" />
<path d="M5586 18755
L5586 19055
" />
<path d="M5586 18755
L5986 18755
" />
<path d="M5986 18755
L5986 16355
" />
<path d="M5986 16355
L5586 16355
" />
<path d="M5186 16555
L5986 16555
" />
<path d="M5986 16655
L5186 16655
" />
<path d="M5586 12315
L5586 12615
" />
<path d="M5586 12615
L5186 12615
" />
<path d="M5186 12615
L5186 15015
" />
<path d="M5186 15015
L5586 15015
" />
<path d="M5586 15015
L5586 15315
" />
<path d="M5586 15015
L5986 15015
" />
<path d="M5986 15015
L5986 12615
" />
<path d="M5986 12615
L5586 12615
" />
<path d="M5186 12815
L5986 12815
" />
<path d="M5986 12915
L5186 12915
" />
<path d="M6095 5622
L6095 5222
" />
<path d="M6095 5222
L5695 5222
" />
<path d="M5695 5222
L5695 2222
" />
<path d="M5695 2222
L6495 2222
" />
<path d="M6495 2222
L6495 5222
" />
<path d="M6495 5222
L6095 5222
" />
<path d="M6095 1622
L6095 2022
" />
<path d="M5895 2222
L5895 2022
" />
<path d="M5895 2022
L6295 2022
" />
<path d="M6295 2022
L6295 2222
" />
<path d="M17035 18342
L16635 18342
" />
<path d="M16635 18342
L16635 18742
" />
<path d="M16635 18742
L13635 18742
" />
<path d="M13635 18742
L13635 17942
" />
<path d="M13635 17942
L16635 17942
" />
<path d="M16635 17942
L16635 18342
" />
<path d="M13035 18342
L13435 18342
" />
<path d="M13635 18542
L13435 18542
" />
<path d="M13435 18542
L13435 18142
" />
<path d="M13435 18142
L13635 18142
" />
<path d="M13689 12830
L13289 12830
" />
<path d="M13289 12830
L13289 13230
" />
<path d="M13289 13230
L10289 13230
" />
<path d="M10289 13230
L10289 12430
" />
<path d="M10289 12430
L13289 12430
" />
<path d="M13289 12430
L13289 12830
" />
<path d="M9689 12830
L10089 12830
" />
<path d="M10289 13030
L10089 13030
" />
<path d="M10089 13030
L10089 12630
" />
<path d="M10089 12630
L10289 12630
" />
<path d="M13071 27685
L15051 27685
" />
<path d="M15051 27685
L15051 28685
" />
<path d="M15051 28685
L13051 28685
" />
<path d="M13051 28685
L13051 27685
" />
<path d="M13051 27935
L13301 27685
" />
<path d="M15031 23173
L13051 23173
" />
<path d="M13051 23173
L13051 22173
" />
<path d="M13051 22173
L15051 22173
" />
<path d="M15051 22173
L15051 23173
" />
<path d="M15051 22923
L14801 23173
" />
<path d="M7228 29606
L7228 31586
" />
<path d="M7228 31586
L6228 31586
" />
<path d="M6228 31586
L6228 29586
" />
<path d="M6228 29586
L7228 29586
" />
<path d="M6978 29586
L7228 29836
" />
<path d="M13071 20992
L15051 20992
" />
<path d="M15051 20992
L15051 21992
" />
<path d="M15051 21992
L13051 21992
" />
<path d="M13051 21992
L13051 20992
" />
<path d="M13051 21242
L13301 20992
" />
<path d="M24697 14964
L24697 18964
" />
<path d="M25197 14964
L22197 14964
" />
<path d="M22197 14964
L22197 18964
" />
<path d="M22197 18964
L25197 18964
" />
<path d="M25197 18964
L25197 14964
" />
</g>
<g style="fill:#009F9F; fill-opacity:0.0; 
stroke:#009F9F; stroke-width:60; stroke-opacity:1; 
stroke-linecap:round; stroke-linejoin:round;">
<path d="M17488 14783
L18488 14783
" />
<path d="M18488 14783
L18488 16783
" />
<path d="M18488 16783
L17488 16783
" />
<path d="M17488 16783
L17488 14783
" />
</g>
<g style="fill:#009F9F; fill-opacity:0.0; 
stroke:#009F9F; stroke-width:120; stroke-opacity:1; 
stroke-linecap:round; stroke-linejoin:round;">
<path d="M25012 27051
L25012 31051
" />
<path d="M25512 27051
L22512 27051
" />
<path d="M22512 27051
L22512 31051
" />
<path d="M22512 31051
L25512 31051
" />
<path d="M25512 31051
L25512 27051
" />
</g>
<g style="fill:#009F9F; fill-opacity:0.0; 
stroke:#009F9F; stroke-width:100; stroke-opacity:1; 
stroke-linecap:round; stroke-linejoin:round;">
<path d="M11523 31637
L7523 31637
" />
<path d="M11523 30637
L7523 30637
" />
<path d="M7523 30637
L7523 31637
" />
<path d="M11523 31637
L11523 30637
" />
</g>
<g style="fill:#009F9F; fill-opacity:0.0; 
stroke:#009F9F; stroke-width:150; stroke-opacity:1; 
stroke-linecap:round; stroke-linejoin:round;">
<circle cx="12870.3" cy="3854.53" r="900" /> 
<circle cx="11689.2" cy="28775.8" r="471.699" /> 
<circle cx="10508.1" cy="28775.8" r="471.699" /> 
<circle cx="4405.71" cy="18736.4" r="471.699" /> 
<circle cx="2043.5" cy="32122.2" r="471.699" /> 
<circle cx="2043.5" cy="38815.2" r="471.699" /> 
<circle cx="23697" cy="38815.2" r="471.699" /> 
<circle cx="23697" cy="32122.2" r="471.699" /> 
</g>
<g style="fill:#009F9F; fill-opacity:0.0; 
stroke:#009F9F; stroke-width:60; stroke-opacity:1; 
stroke-linecap:round; stroke-linejoin:round;">
<path d="M17110 22492
L16110 22492
" />
<path d="M16110 22492
L16110 20492
" />
<path d="M16110 20492
L17110 20492
" />
<path d="M17110 20492
L17110 22492
" />
</g>
<g style="fill:#009F9F; fill-opacity:0.0; 
stroke:#009F9F; stroke-width:80; stroke-opacity:1; 
stroke-linecap:round; stroke-linejoin:round;">
<path d="M7170 5597
L7170 5397
" />
<path d="M7170 2597
L7170 2797
" />
<path d="M7170 2797
L6770 2797
" />
<path d="M6770 2797
L6770 5397
" />
<path d="M6770 5397
L7570 5397
" />
<path d="M7570 5397
L7570 2797
" />
<path d="M7570 2797
L7170 2797
" />
<path d="M6970 5397
L6770 5197
" />
<path d="M22515 7000
L22515 7200
" />
<path d="M22515 10000
L22515 9800
" />
<path d="M22515 9800
L22915 9800
" />
<path d="M22915 9800
L22915 7200
" />
<path d="M22915 7200
L22115 7200
" />
<path d="M22115 7200
L22115 9800
" />
<path d="M22115 9800
L22515 9800
" />
<path d="M22715 7200
L22915 7400
" />
<path d="M5095 6822
L5095 6622
" />
<path d="M5095 3822
L5095 4022
" />
<path d="M5095 4022
L4695 4022
" />
<path d="M4695 4022
L4695 6622
" />
<path d="M4695 6622
L5495 6622
" />
<path d="M5495 6622
L5495 4022
" />
<path d="M5495 4022
L5095 4022
" />
<path d="M4895 6622
L4695 6422
" />
<path d="M21920 2622
L21920 2822
" />
<path d="M21920 5622
L21920 5422
" />
<path d="M21920 5422
L22320 5422
" />
<path d="M22320 5422
L22320 2822
" />
<path d="M22320 2822
L21520 2822
" />
<path d="M21520 2822
L21520 5422
" />
<path d="M21520 5422
L21920 5422
" />
<path d="M22120 2822
L22320 3022
" />
<path d="M20245 8297
L20245 8497
" />
<path d="M20245 11297
L20245 11097
" />
<path d="M20245 11097
L20645 11097
" />
<path d="M20645 11097
L20645 8497
" />
<path d="M20645 8497
L19845 8497
" />
<path d="M19845 8497
L19845 11097
" />
<path d="M19845 11097
L20245 11097
" />
<path d="M20445 8497
L20645 8697
" />
<path d="M2338 10393
L2338 10193
" />
<path d="M2338 7393
L2338 7593
" />
<path d="M2338 7593
L1938 7593
" />
<path d="M1938 7593
L1938 10193
" />
<path d="M1938 10193
L2738 10193
" />
<path d="M2738 10193
L2738 7593
" />
<path d="M2738 7593
L2338 7593
" />
<path d="M2138 10193
L1938 9993
" />
<path d="M1370 3497
L1370 3697
" />
<path d="M1370 6497
L1370 6297
" />
<path d="M1370 6297
L1770 6297
" />
<path d="M1770 6297
L1770 3697
" />
<path d="M1770 3697
L970 3697
" />
<path d="M970 3697
L970 6297
" />
<path d="M970 6297
L1370 6297
" />
<path d="M1570 3697
L1770 3897
" />
<path d="M23470 2672
L23470 2872
" />
<path d="M23470 5672
L23470 5472
" />
<path d="M23470 5472
L23870 5472
" />
<path d="M23870 5472
L23870 2872
" />
<path d="M23870 2872
L23070 2872
" />
<path d="M23070 2872
L23070 5472
" />
<path d="M23070 5472
L23470 5472
" />
<path d="M23670 2872
L23870 3072
" />
</g>
<g style="fill:#009F9F; fill-opacity:0.0; 
stroke:#009F9F; stroke-width:39; stroke-opacity:1; 
stroke-linecap:round; stroke-linejoin:round;">
<circle cx="14243.5" cy="36098.2" r="50" /> 
<path d="M14243 36548
L14243 36148
" />
<path d="M14243 36148
L14843 36148
" />
<path d="M14843 36148
L14843 36548
" />
<path d="M14843 36948
L14843 37348
" />
<path d="M14843 37348
L14243 37348
" />
<path d="M14243 37348
L14243 36948
" />
<circle cx="13062.4" cy="36098.2" r="50" /> 
<path d="M13062 36548
L13062 36148
" />
<path d="M13062 36148
L13662 36148
" />
<path d="M13662 36148
L13662 36548
" />
<path d="M13662 36948
L13662 37348
" />
<path d="M13662 37348
L13062 37348
" />
<path d="M13062 37348
L13062 36948
" />
<circle cx="10700.2" cy="36098.2" r="50" /> 
<path d="M10700 36548
L10700 36148
" />
<path d="M10700 36148
L11300 36148
" />
<path d="M11300 36148
L11300 36548
" />
<path d="M11300 36948
L11300 37348
" />
<path d="M11300 37348
L10700 37348
" />
<path d="M10700 37348
L10700 36948
" />
<circle cx="11881.3" cy="36098.2" r="50" /> 
<path d="M11881 36548
L11881 36148
" />
<path d="M11881 36148
L12481 36148
" />
<path d="M12481 36148
L12481 36548
" />
<path d="M12481 36948
L12481 37348
" />
<path d="M12481 37348
L11881 37348
" />
<path d="M11881 37348
L11881 36948
" />
</g>
<g style="fill:#009F9F; fill-opacity:0.0; 
stroke:#009F9F; stroke-width:150; stroke-opacity:1; 
stroke-linecap:round; stroke-linejoin:round;">
<circle cx="8736.42" cy="22712.8" r="471.699" /> 
<circle cx="7555.32" cy="22732.5" r="471.699" /> 
<circle cx="4071.06" cy="27850.6" r="471.699" /> 
<circle cx="5665.55" cy="28854.5" r="471.699" /> 
<circle cx="23460.8" cy="11846.7" r="471.699" /> 
<circle cx="24445.1" cy="12693.1" r="471.699" /> 
</g>
<g style="fill:#7F7F00; fill-opacity:0.0; 
stroke:#7F7F00; stroke-width:39.3701; stroke-opacity:1; 
stroke-linecap:round; stroke-linejoin:round;">
</g>
<g style="fill:#7F7F00; fill-opacity:1.0; 
stroke:#7F7F00; stroke-width:39.3701; stroke-opacity:1; 
stroke-linecap:round; stroke-linejoin:round;">
<circle cx="8933.27" cy="3854.53" r="580.315" /> 
<circle cx="19953.1" cy="3854.53" r="580.315" /> 
<circle cx="4421.46" cy="26811.2" r="334.646" /> 
<circle cx="2421.46" cy="26811.2" r="334.646" /> 
<circle cx="4421.46" cy="23811.2" r="334.646" /> 
<circle cx="2421.46" cy="23811.2" r="334.646" /> 
<circle cx="4421.46" cy="22795.5" r="334.646" /> 
<circle cx="2421.46" cy="22795.5" r="334.646" /> 
<circle cx="4421.46" cy="19795.5" r="334.646" /> 
<circle cx="2421.46" cy="19795.5" r="334.646" /> 
<circle cx="25000.2" cy="20098.6" r="334.646" /> 
<circle cx="25000.2" cy="22098.6" r="334.646" /> 
<circle cx="22000.2" cy="20098.6" r="334.646" /> 
<circle cx="22000.2" cy="22098.6" r="334.646" /> 
<circle cx="11220.7" cy="29956.9" r="334.646" /> 
<circle cx="8220.67" cy="29956.9" r="334.646" /> 
<circle cx="15626.2" cy="22795.5" r="334.646" /> 
<circle cx="15626.2" cy="19795.5" r="334.646" /> 
<circle cx="8661.61" cy="20508.1" r="334.646" /> 
<circle cx="5661.61" cy="20508.1" r="334.646" /> 
<polyline style="fill-rule:evenodd;"
points="21932,23755
22493,23755
22493,24315
21932,24315
21932,23755
" /> 
<circle cx="23212.8" cy="24035.6" r="334.646" /> 
<circle cx="22212.8" cy="25035.6" r="334.646" /> 
<circle cx="23212.8" cy="25035.6" r="334.646" /> 
<circle cx="22212.8" cy="26035.6" r="334.646" /> 
<circle cx="23212.8" cy="26035.6" r="334.646" /> 
<polyline style="fill-rule:evenodd;"
points="19094,29346
19094,28677
19763,28677
19763,29346
19094,29346
" /> 
<circle cx="20429.3" cy="29012" r="334.646" /> 
<circle cx="21429.3" cy="29012" r="334.646" /> 
<polyline style="fill-rule:evenodd;"
points="24529,1162
24529,1832
23860,1832
23860,1162
24529,1162
" /> 
<circle cx="23195.1" cy="1497.64" r="334.646" /> 
<circle cx="22195.1" cy="1497.64" r="334.646" /> 
<polyline style="fill-rule:evenodd;"
points="3185,7559
3854,7559
3854,8228
3185,8228
3185,7559
" /> 
<circle cx="3519.88" cy="8893.9" r="334.646" /> 
<circle cx="3519.88" cy="9893.9" r="334.646" /> 
<polyline style="fill-rule:evenodd;"
points="24563,4645
25232,4645
25232,5315
24563,5315
24563,4645
" /> 
<circle cx="24897.8" cy="5980.51" r="334.646" /> 
<circle cx="24897.8" cy="6980.51" r="334.646" /> 
<polyline style="fill-rule:evenodd;"
points="21000,7952
21669,7952
21669,8622
21000,8622
21000,7952
" /> 
<circle cx="21334.8" cy="9287.6" r="334.646" /> 
<circle cx="21334.8" cy="10287.6" r="334.646" /> 
<polyline style="fill-rule:evenodd;"
points="2160,3012
2829,3012
2829,3682
2160,3682
2160,3012
" /> 
<circle cx="2495.08" cy="4347.64" r="334.646" /> 
<circle cx="2495.08" cy="5347.64" r="334.646" /> 
<polyline style="fill-rule:evenodd;"
points="13035,31257
13035,30587
13704,30587
13704,31257
13035,31257
" /> 
<circle cx="14370.1" cy="30922.6" r="334.646" /> 
<polyline style="fill-rule:evenodd;"
points="8086,16618
7417,16618
7417,15949
8086,15949
8086,16618
" /> 
<circle cx="7752.17" cy="15283.7" r="334.646" /> 
<polyline style="fill-rule:evenodd;"
points="25212,9728
24543,9728
24543,9059
25212,9059
25212,9728
" /> 
<circle cx="24878.2" cy="8393.9" r="334.646" /> 
<polyline style="fill-rule:evenodd;"
points="8996,17157
8996,16409
9744,16409
9744,17157
8996,17157
" /> 
<circle cx="9870.28" cy="14783.7" r="373.815" /> 
<circle cx="10370.3" cy="16783.7" r="373.815" /> 
<circle cx="10870.3" cy="14783.7" r="373.815" /> 
<circle cx="11370.3" cy="16783.7" r="373.815" /> 
<circle cx="11870.3" cy="14783.7" r="373.815" /> 
<circle cx="12370.3" cy="16783.7" r="373.815" /> 
<circle cx="12870.3" cy="14783.7" r="373.815" /> 
<circle cx="13370.3" cy="16783.7" r="373.815" /> 
<circle cx="13870.3" cy="14783.7" r="373.815" /> 
<circle cx="14370.3" cy="16783.7" r="373.815" /> 
<circle cx="14870.3" cy="14783.7" r="373.815" /> 
<circle cx="15370.3" cy="16783.7" r="373.815" /> 
<circle cx="15870.3" cy="14783.7" r="373.815" /> 
<circle cx="16370.3" cy="16783.7" r="373.815" /> 
</g>
<g style="fill:#7F7F00; fill-opacity:1.0; 
stroke:#7F7F00; stroke-width:620; stroke-opacity:1; 
stroke-linecap:round; stroke-linejoin:round;">
<path d="M8551 26789
L8551 27069
" />
<path d="M9551 26789
L9551 27069
" />
<path d="M10551 26789
L10551 27069
" />
<path d="M11551 26789
L11551 27069
" />
<path d="M12551 26789
L12551 27069
" />
<path d="M13551 26789
L13551 27069
" />
<path d="M14551 26789
L14551 27069
" />
<path d="M15551 26789
L15551 27069
" />
<path d="M16551 26789
L16551 27069
" />
<path d="M17551 26789
L17551 27069
" />
<path d="M18551 26789
L18551 27069
" />
<path d="M19551 26789
L19551 27069
" />
<path d="M20551 26789
L20551 27069
" />
</g>
<g style="fill:#7F7F00; fill-opacity:1.0; 
stroke:#7F7F00; stroke-width:39.3701; stroke-opacity:1; 
stroke-linecap:round; stroke-linejoin:round;">
<polyline style="fill-rule:evenodd;"
points="7261,27359
7261,26499
7841,26499
7841,27359
7261,27359
" /> 
</g>
<g style="fill:#7F7F00; fill-opacity:1.0; 
stroke:#7F7F00; stroke-width:620; stroke-opacity:1; 
stroke-linecap:round; stroke-linejoin:round;">
<path d="M20551 23789
L20551 24069
" />
<path d="M19551 23789
L19551 24069
" />
<path d="M18551 23789
L18551 24069
" />
<path d="M17551 23789
L17551 24069
" />
<path d="M16551 23789
L16551 24069
" />
<path d="M15551 23789
L15551 24069
" />
<path d="M14551 23789
L14551 24069
" />
<path d="M13551 23789
L13551 24069
" />
<path d="M12551 23789
L12551 24069
" />
<path d="M11551 23789
L11551 24069
" />
<path d="M10551 23789
L10551 24069
" />
<path d="M9551 23789
L9551 24069
" />
<path d="M8551 23789
L8551 24069
" />
<path d="M7551 23789
L7551 24069
" />
</g>
<g style="fill:#7F7F00; fill-opacity:1.0; 
stroke:#7F7F00; stroke-width:39.3701; stroke-opacity:1; 
stroke-linecap:round; stroke-linejoin:round;">
<polyline style="fill-rule:evenodd;"
points="6886,12649
6256,12649
6256,11980
6886,11980
6886,12649
" /> 
<circle cx="6571.06" cy="15315.2" r="334.646" /> 
<polyline style="fill-rule:evenodd;"
points="19484,12649
18854,12649
18854,11980
19484,11980
19484,12649
" /> 
<circle cx="19169.5" cy="15315.2" r="334.646" /> 
<polyline style="fill-rule:evenodd;"
points="19484,16389
18854,16389
18854,15720
19484,15720
19484,16389
" /> 
<circle cx="19169.5" cy="19055.3" r="334.646" /> 
<polyline style="fill-rule:evenodd;"
points="20468,16389
19838,16389
19838,15720
20468,15720
20468,16389
" /> 
<circle cx="20153.7" cy="19055.3" r="334.646" /> 
<polyline style="fill-rule:evenodd;"
points="20468,12649
19838,12649
19838,11980
20468,11980
20468,12649
" /> 
<circle cx="20153.7" cy="15315.2" r="334.646" /> 
<polyline style="fill-rule:evenodd;"
points="6886,16389
6256,16389
6256,15720
6886,15720
6886,16389
" /> 
<circle cx="6571.06" cy="19055.3" r="334.646" /> 
<polyline style="fill-rule:evenodd;"
points="5901,16389
5271,16389
5271,15720
5901,15720
5901,16389
" /> 
<circle cx="5586.81" cy="19055.3" r="334.646" /> 
<polyline style="fill-rule:evenodd;"
points="5901,12649
5271,12649
5271,11980
5901,11980
5901,12649
" /> 
<circle cx="5586.81" cy="15315.2" r="334.646" /> 
<polyline style="fill-rule:evenodd;"
points="5780,1307
6410,1307
6410,1937
5780,1937
5780,1307
" /> 
<circle cx="6095.08" cy="5622.64" r="314.961" /> 
<polyline style="fill-rule:evenodd;"
points="12720,18657
12720,18027
13350,18027
13350,18657
12720,18657
" /> 
<circle cx="17035.6" cy="18342.7" r="314.961" /> 
<polyline style="fill-rule:evenodd;"
points="9354,13165
9354,12496
10023,12496
10023,13165
9354,13165
" /> 
<circle cx="13689.2" cy="12830.9" r="334.646" /> 
<circle cx="13551.4" cy="28185.2" r="314.961" /> 
<circle cx="14551.4" cy="28185.2" r="314.961" /> 
<circle cx="14551.4" cy="22673.4" r="314.961" /> 
<circle cx="13551.4" cy="22673.4" r="314.961" /> 
<circle cx="6728.54" cy="30086.8" r="314.961" /> 
<circle cx="6728.54" cy="31086.8" r="314.961" /> 
<circle cx="13551.4" cy="21492.3" r="314.961" /> 
<circle cx="14551.4" cy="21492.3" r="314.961" /> 
<polyline style="fill-rule:evenodd;"
points="24267,18535
23126,18535
23126,17393
24267,17393
24267,18535
" /> 
<circle cx="23697" cy="15964.8" r="570.866" /> 
<polyline style="fill-rule:evenodd;"
points="17653,14949
18323,14949
18323,15618
17653,15618
17653,14949
" /> 
<circle cx="17988.4" cy="16283.7" r="334.646" /> 
<polyline style="fill-rule:evenodd;"
points="24582,30622
23441,30622
23441,29480
24582,29480
24582,30622
" /> 
<circle cx="24012" cy="28051.4" r="570.866" /> 
<polyline style="fill-rule:evenodd;"
points="7689,31472
7689,30803
8358,30803
8358,31472
7689,31472
" /> 
<circle cx="9023.82" cy="31138" r="334.646" /> 
<circle cx="10023.8" cy="31138" r="334.646" /> 
<circle cx="11023.8" cy="31138" r="334.646" /> 
<circle cx="12870.3" cy="3854.53" r="780.315" /> 
<circle cx="11689.2" cy="28775.8" r="374.016" /> 
<circle cx="10508.1" cy="28775.8" r="374.016" /> 
<circle cx="4405.71" cy="18736.4" r="374.016" /> 
<circle cx="2043.5" cy="32122.2" r="374.016" /> 
<circle cx="2043.5" cy="38815.2" r="374.016" /> 
<circle cx="23697" cy="38815.2" r="374.016" /> 
<circle cx="23697" cy="32122.2" r="374.016" /> 
<polyline style="fill-rule:evenodd;"
points="16945,22326
16275,22326
16275,21657
16945,21657
16945,22326
" /> 
<circle cx="16610.4" cy="20992.3" r="334.646" /> 
<circle cx="7170.08" cy="5597.64" r="334.646" /> 
<circle cx="7170.08" cy="2597.64" r="334.646" /> 
<circle cx="22515.9" cy="7000.2" r="334.646" /> 
<circle cx="22515.9" cy="10000.2" r="334.646" /> 
<circle cx="5095.08" cy="6822.64" r="334.646" /> 
<circle cx="5095.08" cy="3822.64" r="334.646" /> 
<circle cx="21920.1" cy="2622.64" r="334.646" /> 
<circle cx="21920.1" cy="5622.64" r="334.646" /> 
<circle cx="20245.1" cy="8297.64" r="334.646" /> 
<circle cx="20245.1" cy="11297.6" r="334.646" /> 
<circle cx="2338.78" cy="10393.9" r="334.646" /> 
<circle cx="2338.78" cy="7393.9" r="334.646" /> 
<circle cx="1370.08" cy="3497.64" r="334.646" /> 
<circle cx="1370.08" cy="6497.64" r="334.646" /> 
<circle cx="23470.1" cy="2672.64" r="334.646" /> 
<circle cx="23470.1" cy="5672.64" r="334.646" /> 
<circle cx="8736.42" cy="22712.8" r="374.016" /> 
<circle cx="7555.32" cy="22732.5" r="374.016" /> 
<circle cx="4071.06" cy="27850.6" r="374.016" /> 
<circle cx="5665.55" cy="28854.5" r="374.016" /> 
<circle cx="23460.8" cy="11846.7" r="374.016" /> 
<circle cx="24445.1" cy="12693.1" r="374.016" /> 
</g> 
</svg>
