<?xml version="1.0" standalone="no"?>
 <!DOCTYPE svg PUBLIC "-//W3C//DTD SVG 1.1//EN" 
 "http://www.w3.org/Graphics/SVG/1.1/DTD/svg11.dtd"> 
<svg xmlns="http://www.w3.org/2000/svg" version="1.1" 
    width="6.71576cm" height="10.0381cm" viewBox="0 0 26440 39520 ">
<title>SVG Picture created as placa_principal-Front.svg date 2013/05/26 16:18:32 </title>
  <desc>Picture generated by PCBNEW </desc>
<g style="fill:#000000; fill-opacity:1;stroke:#000000; stroke-opacity:1;
stroke-linecap:round; stroke-linejoin:round; "
 transform="translate(0 0) scale(1 1)">
</g>
<g style="fill:#9F0000; fill-opacity:0.0; 
stroke:#9F0000; stroke-width:120; stroke-opacity:1; 
stroke-linecap:round; stroke-linejoin:round;">
<path d="M23381 12854
L23381 12397
" />
<path d="M23686 12625
L23076 12625
" />
<path d="M22886 11825
L22886 12111
L23267 12140
L23229 12111
L23190 12054
L23190 11911
L23229 11854
L23267 11825
L23343 11797
L23533 11797
L23610 11825
L23648 11854
L23686 11911
L23686 12054
L23648 12111
L23610 12140
" />
<path d="M22886 11625
L23686 11425
L22886 11225
" />
<path d="M1743 26644
L1686 26606
L1600 26606
L1515 26644
L1458 26720
L1429 26797
L1400 26949
L1400 27063
L1429 27216
L1458 27292
L1515 27368
L1600 27406
L1658 27406
L1743 27368
L1772 27330
L1772 27063
L1658 27063
" />
<path d="M2029 27406
L2029 26606
L2372 27406
L2372 26606
" />
<path d="M2658 27406
L2658 26606
L2800 26606
L2886 26644
L2943 26720
L2972 26797
L3000 26949
L3000 27063
L2972 27216
L2943 27292
L2886 27368
L2800 27406
L2658 27406
" />
<path d="M14218 19297
L14275 19335
L14390 19335
L14447 19297
L14475 19221
L14475 19183
L14447 19107
L14390 19069
L14304 19069
L14247 19031
L14218 18954
L14218 18916
L14247 18840
L14304 18802
L14390 18802
L14447 18840
" />
<path d="M14675 18802
L14790 19335
L14904 18954
L15018 19335
L15133 18802
" />
</g>
<g style="fill:#9F0000; fill-opacity:0.0; 
stroke:#9F0000; stroke-width:246.063; stroke-opacity:1; 
stroke-linecap:round; stroke-linejoin:round;">
<path d="M1613 33959
L2344 33959
L1950 34484
L2119 34484
L2231 34550
L2288 34615
L2344 34746
L2344 35075
L2288 35206
L2231 35271
L2119 35337
L1781 35337
L1669 35271
L1613 35206
" />
<path d="M2850 35206
L2906 35271
L2850 35337
L2794 35271
L2850 35206
L2850 35337
" />
<path d="M4031 35337
L3356 35337
" />
<path d="M3694 35337
L3694 33959
L3581 34156
L3469 34287
L3356 34353
" />
<path d="M5044 34418
L5044 35337
" />
<path d="M4762 33893
L4481 34878
L5212 34878
" />
<path d="M5494 33959
L6168 33959
" />
<path d="M5831 35337
L5831 33959
" />
<path d="M6562 35337
L6562 33959
" />
<path d="M6956 33959
L7631 33959
" />
<path d="M7293 35337
L7293 33959
" />
<path d="M8249 33959
L8474 33959
L8587 34025
L8699 34156
L8756 34418
L8756 34878
L8699 35140
L8587 35271
L8474 35337
L8249 35337
L8137 35271
L8024 35140
L7968 34878
L7968 34418
L8024 34156
L8137 34025
L8249 33959
" />
</g>
<g style="fill:#9F0000; fill-opacity:0.0; 
stroke:#9F0000; stroke-width:120; stroke-opacity:1; 
stroke-linecap:round; stroke-linejoin:round;">
<path d="M25220 2685
L25252 2616
L25252 2502
L25220 2456
L25187 2433
L25122 2410
L25057 2410
L24992 2433
L24960 2456
L24927 2502
L24895 2593
L24862 2639
L24830 2662
L24765 2685
L24700 2685
L24635 2662
L24603 2639
L24570 2593
L24570 2479
L24603 2410
" />
<path d="M24895 2203
L24895 2043
" />
<path d="M25252 1974
L25252 2203
L24570 2203
L24570 1974
" />
<path d="M25252 1492
L24927 1653
" />
<path d="M25252 1767
L24570 1767
L24570 1584
L24603 1538
L24635 1515
L24700 1492
L24797 1492
L24862 1515
L24895 1538
L24927 1584
L24927 1767
" />
<path d="M24570 1354
L25252 1194
L24570 1033
" />
<path d="M24570 781
L24570 689
L24603 643
L24668 597
L24797 574
L25025 574
L25155 597
L25220 643
L25252 689
L25252 781
L25220 826
L25155 872
L25025 895
L24797 895
L24668 872
L24603 826
L24570 781
" />
<path d="M15415 29709
L15129 29709
L15129 28909
" />
<path d="M15615 29290
L15815 29290
" />
<path d="M15900 29709
L15615 29709
L15615 28909
L15900 28909
" />
<path d="M16158 29709
L16158 28909
L16300 28909
L16386 28947
L16443 29024
L16472 29100
L16500 29252
L16500 29366
L16472 29519
L16443 29595
L16386 29671
L16300 29709
L16158 29709
" />
<path d="M17472 29176
L17472 29709
" />
<path d="M17329 28871
L17186 29443
L17558 29443
" />
</g>
<g style="fill:#FFFF00; fill-opacity:0.0; 
stroke:#FFFF00; stroke-width:150; stroke-opacity:1; 
stroke-linecap:round; stroke-linejoin:round;">
<path d="M10114 1256
L18775 1256
" />
<path d="M10114 5193
L10114 1256
" />
<path d="M18775 5193
L10114 5193
" />
<path d="M18775 1256
L18775 5193
" />
<path d="M25665 39445
L75 39445
" />
<path d="M25665 75
L25665 39445
" />
<path d="M75 75
L25665 75
" />
<path d="M75 39445
L75 75
" />
</g>
<g style="fill:#7F7F00; fill-opacity:0.0; 
stroke:#7F7F00; stroke-width:39.3701; stroke-opacity:1; 
stroke-linecap:round; stroke-linejoin:round;">
</g>
<g style="fill:#7F7F00; fill-opacity:1.0; 
stroke:#7F7F00; stroke-width:39.3701; stroke-opacity:1; 
stroke-linecap:round; stroke-linejoin:round;">
<circle cx="4421.46" cy="25472.6" r="314.961" /> 
<circle cx="2421.46" cy="25472.6" r="314.961" /> 
<circle cx="4421.46" cy="22472.6" r="314.961" /> 
<circle cx="2421.46" cy="22472.6" r="314.961" /> 
<circle cx="4421.46" cy="21456.9" r="314.961" /> 
<circle cx="2421.46" cy="21456.9" r="314.961" /> 
<circle cx="4421.46" cy="18456.9" r="314.961" /> 
<circle cx="2421.46" cy="18456.9" r="314.961" /> 
<circle cx="25000.2" cy="18760" r="314.961" /> 
<circle cx="25000.2" cy="20760" r="314.961" /> 
<circle cx="22000.2" cy="18760" r="314.961" /> 
<circle cx="22000.2" cy="20760" r="314.961" /> 
<circle cx="11220.7" cy="28618.3" r="314.961" /> 
<circle cx="8220.67" cy="28618.3" r="314.961" /> 
<circle cx="15626.2" cy="21456.9" r="314.961" /> 
<circle cx="15626.2" cy="18456.9" r="314.961" /> 
<circle cx="8661.61" cy="19169.5" r="314.961" /> 
<circle cx="5661.61" cy="19169.5" r="314.961" /> 
<polyline style="fill-rule:evenodd;"
points="21932,22416
22493,22416
22493,22977
21932,22977
21932,22416
" /> 
<circle cx="23212.8" cy="22697" r="334.646" /> 
<circle cx="22212.8" cy="23697" r="334.646" /> 
<circle cx="23212.8" cy="23697" r="334.646" /> 
<circle cx="22212.8" cy="24697" r="334.646" /> 
<circle cx="23212.8" cy="24697" r="334.646" /> 
<polyline style="fill-rule:evenodd;"
points="19409,27968
19409,27299
20078,27299
20078,27968
19409,27968
" /> 
<circle cx="20744.3" cy="27634.1" r="334.646" /> 
<circle cx="21744.3" cy="27634.1" r="334.646" /> 
<polyline style="fill-rule:evenodd;"
points="20803,1929
21472,1929
21472,2598
20803,2598
20803,1929
" /> 
<circle cx="21138" cy="3263.98" r="334.646" /> 
<circle cx="21138" cy="4263.98" r="334.646" /> 
<polyline style="fill-rule:evenodd;"
points="3185,6220
3854,6220
3854,6889
3185,6889
3185,6220
" /> 
<circle cx="3519.88" cy="7555.32" r="334.646" /> 
<circle cx="3519.88" cy="8555.32" r="334.646" /> 
<polyline style="fill-rule:evenodd;"
points="24563,3307
25232,3307
25232,3976
24563,3976
24563,3307
" /> 
<circle cx="24897.8" cy="4641.93" r="334.646" /> 
<circle cx="24897.8" cy="5641.93" r="334.646" /> 
<polyline style="fill-rule:evenodd;"
points="21000,6614
21669,6614
21669,7283
21000,7283
21000,6614
" /> 
<circle cx="21334.8" cy="7949.02" r="334.646" /> 
<circle cx="21334.8" cy="8949.02" r="334.646" /> 
<polyline style="fill-rule:evenodd;"
points="3185,1594
3854,1594
3854,2263
3185,2263
3185,1594
" /> 
<circle cx="3519.88" cy="2929.33" r="334.646" /> 
<circle cx="3519.88" cy="3929.33" r="334.646" /> 
<polyline style="fill-rule:evenodd;"
points="13019,29681
13019,29012
13689,29012
13689,29681
13019,29681
" /> 
<circle cx="14354.5" cy="29346.7" r="334.646" /> 
<polyline style="fill-rule:evenodd;"
points="8086,15279
7417,15279
7417,14610
8086,14610
8086,15279
" /> 
<circle cx="7752.17" cy="13945.1" r="334.646" /> 
<polyline style="fill-rule:evenodd;"
points="25212,8389
24543,8389
24543,7720
25212,7720
25212,8389
" /> 
<circle cx="24878.2" cy="7055.32" r="334.646" /> 
</g>
<g style="fill:#9F0000; fill-opacity:1.0; 
stroke:#9F0000; stroke-width:39.3701; stroke-opacity:1; 
stroke-linecap:round; stroke-linejoin:round;">
<polyline style="fill-rule:evenodd;"
points="11964,37536
12397,37536
12397,37968
11964,37968
11964,37536
" /> 
<polyline style="fill-rule:evenodd;"
points="11964,38362
12397,38362
12397,38794
11964,38794
11964,38362
" /> 
<polyline style="fill-rule:evenodd;"
points="14327,37536
14759,37536
14759,37968
14327,37968
14327,37536
" /> 
<polyline style="fill-rule:evenodd;"
points="14327,38362
14759,38362
14759,38794
14327,38794
14327,38362
" /> 
<polyline style="fill-rule:evenodd;"
points="10783,37536
11216,37536
11216,37968
10783,37968
10783,37536
" /> 
<polyline style="fill-rule:evenodd;"
points="10783,38362
11216,38362
11216,38794
10783,38794
10783,38362
" /> 
<polyline style="fill-rule:evenodd;"
points="13146,37536
13578,37536
13578,37968
13146,37968
13146,37536
" /> 
<polyline style="fill-rule:evenodd;"
points="13146,38362
13578,38362
13578,38794
13146,38794
13146,38362
" /> 
</g>
<g style="fill:#7F7F00; fill-opacity:1.0; 
stroke:#7F7F00; stroke-width:39.3701; stroke-opacity:1; 
stroke-linecap:round; stroke-linejoin:round;">
<polyline style="fill-rule:evenodd;"
points="8996,15818
8996,15071
9744,15071
9744,15818
8996,15818
" /> 
<circle cx="9870.28" cy="13445.1" r="373.815" /> 
<circle cx="10370.3" cy="15445.1" r="373.815" /> 
<circle cx="10870.3" cy="13445.1" r="373.815" /> 
<circle cx="11370.3" cy="15445.1" r="373.815" /> 
<circle cx="11870.3" cy="13445.1" r="373.815" /> 
<circle cx="12370.3" cy="15445.1" r="373.815" /> 
<circle cx="12870.3" cy="13445.1" r="373.815" /> 
<circle cx="13370.3" cy="15445.1" r="373.815" /> 
<circle cx="13870.3" cy="13445.1" r="373.815" /> 
<circle cx="14370.3" cy="15445.1" r="373.815" /> 
<circle cx="14870.3" cy="13445.1" r="373.815" /> 
<circle cx="15370.3" cy="15445.1" r="373.815" /> 
<circle cx="15870.3" cy="13445.1" r="373.815" /> 
<circle cx="16370.3" cy="15445.1" r="373.815" /> 
</g>
<g style="fill:#7F7F00; fill-opacity:1.0; 
stroke:#7F7F00; stroke-width:620; stroke-opacity:1; 
stroke-linecap:round; stroke-linejoin:round;">
<path d="M8551 25450
L8551 25730
" />
<path d="M9551 25450
L9551 25730
" />
<path d="M10551 25450
L10551 25730
" />
<path d="M11551 25450
L11551 25730
" />
<path d="M12551 25450
L12551 25730
" />
<path d="M13551 25450
L13551 25730
" />
<path d="M14551 25450
L14551 25730
" />
<path d="M15551 25450
L15551 25730
" />
<path d="M16551 25450
L16551 25730
" />
<path d="M17551 25450
L17551 25730
" />
<path d="M18551 25450
L18551 25730
" />
<path d="M19551 25450
L19551 25730
" />
<path d="M20551 25450
L20551 25730
" />
</g>
<g style="fill:#7F7F00; fill-opacity:1.0; 
stroke:#7F7F00; stroke-width:39.3701; stroke-opacity:1; 
stroke-linecap:round; stroke-linejoin:round;">
<polyline style="fill-rule:evenodd;"
points="7261,26021
7261,25160
7841,25160
7841,26021
7261,26021
" /> 
</g>
<g style="fill:#7F7F00; fill-opacity:1.0; 
stroke:#7F7F00; stroke-width:620; stroke-opacity:1; 
stroke-linecap:round; stroke-linejoin:round;">
<path d="M20551 22450
L20551 22730
" />
<path d="M19551 22450
L19551 22730
" />
<path d="M18551 22450
L18551 22730
" />
<path d="M17551 22450
L17551 22730
" />
<path d="M16551 22450
L16551 22730
" />
<path d="M15551 22450
L15551 22730
" />
<path d="M14551 22450
L14551 22730
" />
<path d="M13551 22450
L13551 22730
" />
<path d="M12551 22450
L12551 22730
" />
<path d="M11551 22450
L11551 22730
" />
<path d="M10551 22450
L10551 22730
" />
<path d="M9551 22450
L9551 22730
" />
<path d="M8551 22450
L8551 22730
" />
<path d="M7551 22450
L7551 22730
" />
</g>
<g style="fill:#7F7F00; fill-opacity:1.0; 
stroke:#7F7F00; stroke-width:39.3701; stroke-opacity:1; 
stroke-linecap:round; stroke-linejoin:round;">
<polyline style="fill-rule:evenodd;"
points="6886,11291
6256,11291
6256,10661
6886,10661
6886,11291
" /> 
<circle cx="6571.06" cy="13976.6" r="314.961" /> 
<polyline style="fill-rule:evenodd;"
points="19484,11291
18854,11291
18854,10661
19484,10661
19484,11291
" /> 
<circle cx="19169.5" cy="13976.6" r="314.961" /> 
<polyline style="fill-rule:evenodd;"
points="19484,15031
18854,15031
18854,14401
19484,14401
19484,15031
" /> 
<circle cx="19169.5" cy="17716.7" r="314.961" /> 
<polyline style="fill-rule:evenodd;"
points="20468,15031
19838,15031
19838,14401
20468,14401
20468,15031
" /> 
<circle cx="20153.7" cy="17716.7" r="314.961" /> 
<polyline style="fill-rule:evenodd;"
points="20468,11291
19838,11291
19838,10661
20468,10661
20468,11291
" /> 
<circle cx="20153.7" cy="13976.6" r="314.961" /> 
<polyline style="fill-rule:evenodd;"
points="6886,15031
6256,15031
6256,14401
6886,14401
6886,15031
" /> 
<circle cx="6571.06" cy="17716.7" r="314.961" /> 
<polyline style="fill-rule:evenodd;"
points="5901,15031
5271,15031
5271,14401
5901,14401
5901,15031
" /> 
<circle cx="5586.81" cy="17716.7" r="314.961" /> 
<polyline style="fill-rule:evenodd;"
points="5901,11291
5271,11291
5271,10661
5901,10661
5901,11291
" /> 
<circle cx="5586.81" cy="13976.6" r="314.961" /> 
<polyline style="fill-rule:evenodd;"
points="7240,515
7870,515
7870,1145
7240,1145
7240,515
" /> 
<circle cx="7555.32" cy="4830.91" r="314.961" /> 
<polyline style="fill-rule:evenodd;"
points="12720,17319
12720,16689
13350,16689
13350,17319
12720,17319
" /> 
<circle cx="17035.6" cy="17004.1" r="314.961" /> 
<polyline style="fill-rule:evenodd;"
points="9374,11807
9374,11177
10004,11177
10004,11807
9374,11807
" /> 
<circle cx="13689.2" cy="11492.3" r="314.961" /> 
<circle cx="13945.1" cy="6661.61" r="295.276" /> 
<circle cx="14945.1" cy="7661.61" r="295.276" /> 
<circle cx="14945.1" cy="6661.61" r="295.276" /> 
<circle cx="13945.1" cy="7661.61" r="295.276" /> 
<circle cx="7645.87" cy="6661.61" r="295.276" /> 
<circle cx="8645.87" cy="7661.61" r="295.276" /> 
<circle cx="8645.87" cy="6661.61" r="295.276" /> 
<circle cx="7645.87" cy="7661.61" r="295.276" /> 
<circle cx="17094.7" cy="6661.61" r="295.276" /> 
<circle cx="18094.7" cy="7661.61" r="295.276" /> 
<circle cx="18094.7" cy="6661.61" r="295.276" /> 
<circle cx="17094.7" cy="7661.61" r="295.276" /> 
<circle cx="10795.5" cy="6661.61" r="295.276" /> 
<circle cx="11795.5" cy="7661.61" r="295.276" /> 
<circle cx="11795.5" cy="6661.61" r="295.276" /> 
<circle cx="10795.5" cy="7661.61" r="295.276" /> 
<circle cx="13551.4" cy="26846.7" r="314.961" /> 
<circle cx="14551.4" cy="26846.7" r="314.961" /> 
<circle cx="14551.4" cy="21334.8" r="314.961" /> 
<circle cx="13551.4" cy="21334.8" r="314.961" /> 
<circle cx="6728.54" cy="28748.2" r="314.961" /> 
<circle cx="6728.54" cy="29748.2" r="314.961" /> 
<circle cx="13551.4" cy="20153.7" r="314.961" /> 
<circle cx="14551.4" cy="20153.7" r="314.961" /> 
<polyline style="fill-rule:evenodd;"
points="24267,17197
23126,17197
23126,16055
24267,16055
24267,17197
" /> 
<circle cx="23697" cy="14626.2" r="570.866" /> 
<polyline style="fill-rule:evenodd;"
points="17653,13610
18323,13610
18323,14279
17653,14279
17653,13610
" /> 
<circle cx="17988.4" cy="14945.1" r="334.646" /> 
<polyline style="fill-rule:evenodd;"
points="24464,29204
23323,29204
23323,28063
24464,28063
24464,29204
" /> 
<circle cx="23893.9" cy="26634.1" r="570.866" /> 
<polyline style="fill-rule:evenodd;"
points="7689,30134
7689,29464
8358,29464
8358,30134
7689,30134
" /> 
<circle cx="9023.82" cy="29799.4" r="334.646" /> 
<circle cx="10023.8" cy="29799.4" r="334.646" /> 
<circle cx="11023.8" cy="29799.4" r="334.646" /> 
<circle cx="12870.3" cy="3224.61" r="780.315" /> 
<circle cx="11689.2" cy="27437.2" r="374.016" /> 
<circle cx="10508.1" cy="27437.2" r="374.016" /> 
<circle cx="4405.71" cy="17397.8" r="374.016" /> 
<circle cx="2043.5" cy="30783.7" r="374.016" /> 
<circle cx="2043.5" cy="37476.6" r="374.016" /> 
<circle cx="23697" cy="37476.6" r="374.016" /> 
<circle cx="23697" cy="30783.7" r="374.016" /> 
<circle cx="12870.3" cy="3224.61" r="374.016" /> 
<polyline style="fill-rule:evenodd;"
points="16945,20988
16275,20988
16275,20319
16945,20319
16945,20988
" /> 
<circle cx="16610.4" cy="19653.7" r="334.646" /> 
<circle cx="8578.94" cy="4212.8" r="255.315" /> 
<circle cx="8578.94" cy="1212.8" r="255.315" /> 
<circle cx="22515.9" cy="5661.61" r="255.315" /> 
<circle cx="22515.9" cy="8661.61" r="255.315" /> 
<circle cx="5586.81" cy="5551.38" r="255.315" /> 
<circle cx="5586.81" cy="2551.38" r="255.315" /> 
<circle cx="19956.9" cy="1685.24" r="255.315" /> 
<circle cx="19956.9" cy="4685.24" r="255.315" /> 
<circle cx="19661.6" cy="6685.24" r="255.315" /> 
<circle cx="19661.6" cy="9685.24" r="255.315" /> 
<circle cx="2338.78" cy="9055.32" r="255.315" /> 
<circle cx="2338.78" cy="6055.32" r="255.315" /> 
<circle cx="2338.78" cy="1429.33" r="255.315" /> 
<circle cx="2338.78" cy="4429.33" r="255.315" /> 
<circle cx="22791.5" cy="1645.87" r="255.315" /> 
<circle cx="22791.5" cy="4645.87" r="255.315" /> 
</g>
<g style="fill:#9F0000; fill-opacity:1.0; 
stroke:#9F0000; stroke-width:39.3701; stroke-opacity:1; 
stroke-linecap:round; stroke-linejoin:round;">
<polyline style="fill-rule:evenodd;"
points="14288,34879
14798,34879
14798,35189
14288,35189
14288,34879
" /> 
<polyline style="fill-rule:evenodd;"
points="14288,35629
14798,35629
14798,35939
14288,35939
14288,35629
" /> 
<polyline style="fill-rule:evenodd;"
points="13107,34879
13617,34879
13617,35189
13107,35189
13107,34879
" /> 
<polyline style="fill-rule:evenodd;"
points="13107,35629
13617,35629
13617,35939
13107,35939
13107,35629
" /> 
<polyline style="fill-rule:evenodd;"
points="10744,34879
11255,34879
11255,35189
10744,35189
10744,34879
" /> 
<polyline style="fill-rule:evenodd;"
points="10744,35629
11255,35629
11255,35939
10744,35939
10744,35629
" /> 
<polyline style="fill-rule:evenodd;"
points="11925,34879
12436,34879
12436,35189
11925,35189
11925,34879
" /> 
<polyline style="fill-rule:evenodd;"
points="11925,35629
12436,35629
12436,35939
11925,35939
11925,35629
" /> 
</g>
<g style="fill:#7F7F00; fill-opacity:1.0; 
stroke:#7F7F00; stroke-width:39.3701; stroke-opacity:1; 
stroke-linecap:round; stroke-linejoin:round;">
<circle cx="8736.42" cy="21374.2" r="374.016" /> 
<circle cx="7555.32" cy="21393.9" r="374.016" /> 
<circle cx="4071.06" cy="26512" r="374.016" /> 
<circle cx="5665.55" cy="27515.9" r="374.016" /> 
<circle cx="23460.8" cy="10508.1" r="374.016" /> 
<circle cx="24445.1" cy="11354.5" r="374.016" /> 
</g>
<g style="fill:#BFBFBF; fill-opacity:1.0; 
stroke:#BFBFBF; stroke-width:39.3701; stroke-opacity:1; 
stroke-linecap:round; stroke-linejoin:round;">
<circle cx="23618.3" cy="8637.99" r="155.315" /> 
<circle cx="21393.9" cy="21492.3" r="155.315" /> 
<circle cx="24543.5" cy="22693.1" r="155.315" /> 
<circle cx="9838.78" cy="30744.3" r="155.315" /> 
<circle cx="9878.15" cy="36118.3" r="155.315" /> 
<circle cx="7122.24" cy="18382.1" r="155.315" /> 
<circle cx="21807.3" cy="33933.3" r="155.315" /> 
<circle cx="11649.8" cy="9169.49" r="155.315" /> 
<circle cx="14681.3" cy="9130.12" r="155.315" /> 
<circle cx="9326.97" cy="9130.12" r="155.315" /> 
<circle cx="17634.1" cy="9130.12" r="155.315" /> 
<circle cx="9582.87" cy="626.181" r="155.315" /> 
<circle cx="24858.5" cy="25212.8" r="155.315" /> 
<circle cx="24130.1" cy="6354.53" r="155.315" /> 
<circle cx="11866.3" cy="11590.7" r="155.315" /> 
<circle cx="5271.85" cy="9819.09" r="155.315" /> 
<circle cx="12693.1" cy="14464.8" r="155.315" /> 
<circle cx="7909.65" cy="10370.3" r="155.315" /> 
<circle cx="3519.88" cy="32594.7" r="155.315" /> 
<circle cx="10508.1" cy="16905.7" r="155.315" /> 
<circle cx="11138" cy="17890" r="155.315" /> 
<circle cx="4799.41" cy="32397.8" r="155.315" /> 
<circle cx="20114.4" cy="20350.6" r="155.315" /> 
<circle cx="21138" cy="17988.4" r="155.315" /> 
<circle cx="18106.5" cy="19386" r="155.315" /> 
<circle cx="14937.2" cy="14386" r="155.315" /> 
<circle cx="18795.5" cy="31827" r="155.315" /> 
<circle cx="12594.7" cy="28204.9" r="155.315" /> 
<circle cx="17102.6" cy="32043.5" r="155.315" /> 
<circle cx="17397.8" cy="23815.2" r="155.315" /> 
<circle cx="13992.3" cy="27890" r="155.315" /> 
<circle cx="23401.8" cy="21453" r="155.315" /> 
<circle cx="18992.3" cy="23323" r="155.315" /> 
<circle cx="24878.2" cy="9523.82" r="155.315" /> 
<circle cx="9464.76" cy="18441.1" r="155.315" /> 
<circle cx="7594.69" cy="17693.1" r="155.315" /> 
<circle cx="3263.98" cy="9878.15" r="155.315" /> 
<circle cx="9523.82" cy="20606.5" r="155.315" /> 
<circle cx="4602.56" cy="3047.44" r="155.315" /> 
<circle cx="7929.33" cy="17122.2" r="155.315" /> 
<circle cx="10547.4" cy="20626.2" r="155.315" /> 
<circle cx="10567.1" cy="18578.9" r="155.315" /> 
<circle cx="11571.1" cy="20744.3" r="155.315" /> 
<circle cx="15980.5" cy="6610.43" r="155.315" /> 
<circle cx="19956.9" cy="3697.05" r="155.315" /> 
<circle cx="20527.8" cy="7949.02" r="155.315" /> 
<circle cx="12476.6" cy="20704.9" r="155.315" /> 
<circle cx="1354.53" cy="11827" r="155.315" /> 
<circle cx="1472.64" cy="18086.8" r="155.315" /> 
<circle cx="21748.2" cy="26472.6" r="155.315" /> 
<circle cx="18008.1" cy="10468.7" r="155.315" /> 
<circle cx="19582.9" cy="18893.9" r="155.315" /> 
<circle cx="20527.8" cy="32929.3" r="155.315" /> 
<circle cx="13401.8" cy="34464.8" r="155.315" /> 
<circle cx="13362.4" cy="33441.1" r="155.315" /> 
<circle cx="13382.1" cy="30921.5" r="155.315" /> 
<circle cx="23697" cy="18008.1" r="155.315" /> 
<circle cx="21118.3" cy="26886" r="155.315" /> 
</g>
<g style="fill:#9F0000; fill-opacity:1.0; 
stroke:#9F0000; stroke-width:200; stroke-opacity:1; 
stroke-linecap:round; stroke-linejoin:round;">
<path d="M22515 8661
L23594 8661
" />
<path d="M23594 8661
L23618 8637
" />
<path d="M15626 21456
L18031 21456
" />
<path d="M18031 21456
L18382 21807
" />
<path d="M20921 21807
L18382 21807
" />
<path d="M21393 21492
L21078 21807
" />
<path d="M21078 21807
L20921 21807
" />
<path d="M19956 4685
L20197 4685
" />
<path d="M21925 6078
L22515 6669
" />
<path d="M21590 6078
L21925 6078
" />
<path d="M20197 4685
L21590 6078
" />
<path d="M22515 6669
L22515 8661
" />
<path d="M14681 9130
L17634 9130
" />
<path d="M11649 9169
L14563 9169
" />
<path d="M14563 9169
L14602 9130
" />
<path d="M9326 9130
L11610 9130
" />
<path d="M11610 9130
L11649 9169
" />
<path d="M9326 9130
L9110 9130
" />
<path d="M6216 3181
L5586 2551
" />
<path d="M6216 7279
L6216 3181
" />
<path d="M7397 8460
L6216 7279
" />
<path d="M8441 8460
L7397 8460
" />
<path d="M9110 9130
L8441 8460
" />
<path d="M4110 19622
L1393 19622
" />
<path d="M685 18913
L685 1905
" />
<path d="M1393 19622
L685 18913
" />
<path d="M685 1905
L1905 685
" />
<path d="M1905 685
L4267 685
" />
<path d="M5586 2004
L5586 2551
" />
<path d="M4267 685
L5586 2004
" />
<path d="M7122 18382
L5468 18382
" />
<path d="M4228 19622
L4110 19622
" />
<path d="M5468 18382
L4228 19622
" />
<path d="M11220 28618
L9917 28618
" />
<path d="M9917 28618
L8795 27496
" />
<path d="M8795 27496
L6807 27496
" />
<path d="M6807 27496
L5724 26413
" />
<path d="M5724 26413
L5724 21925
" />
<path d="M5724 21925
L8480 19169
" />
<path d="M8480 19169
L8661 19169
" />
<path d="M24622 33933
L21807 33933
" />
<path d="M24897 33657
L24622 33933
" />
<path d="M24897 26039
L24897 33657
" />
<path d="M24425 25567
L24897 26039
" />
<path d="M24425 24897
L24425 25567
" />
<path d="M24563 24760
L24425 24897
" />
<path d="M24563 22712
L24563 24760
" />
<path d="M24543 22693
L24563 22712
" />
<path d="M9838 36078
L9838 30744
" />
<path d="M9878 36118
L9838 36078
" />
</g>
<g style="fill:#9F0000; fill-opacity:1.0; 
stroke:#9F0000; stroke-width:120; stroke-opacity:1; 
stroke-linecap:round; stroke-linejoin:round;">
<path d="M5586 2551
L5586 1945
" />
<path d="M4326 685
L1905 685
" />
<path d="M5586 1945
L4326 685
" />
<path d="M1905 685
L685 1905
" />
<path d="M22515 6669
L22515 8661
" />
<path d="M9917 28618
L8795 27496
" />
<path d="M11492 9130
L11610 9130
" />
<path d="M11610 9130
L11649 9169
" />
<path d="M14602 9130
L14681 9130
" />
<path d="M14602 9130
L17634 9130
" />
<path d="M9326 9130
L11492 9130
" />
<path d="M11492 9130
L14602 9130
" />
</g>
<g style="fill:#9F0000; fill-opacity:1.0; 
stroke:#9F0000; stroke-width:200; stroke-opacity:1; 
stroke-linecap:round; stroke-linejoin:round;">
<path d="M24130 6354
L24130 5685
" />
<path d="M23067 626
L9582 626
" />
<path d="M23992 1551
L23067 626
" />
<path d="M23992 5547
L23992 1551
" />
<path d="M24130 5685
L23992 5547
" />
<path d="M24858 25212
L24858 25094
" />
<path d="M25153 8913
L24366 8913
" />
<path d="M24366 8913
L24130 8677
" />
<path d="M24130 8677
L24130 6354
" />
<path d="M25311 9071
L25153 8913
" />
<path d="M24858 25094
L25291 24661
" />
<path d="M25291 24661
L25291 21807
" />
<path d="M25291 21807
L24937 21452
" />
<path d="M24937 21452
L24582 21452
" />
<path d="M24582 21452
L24386 21256
" />
<path d="M24386 21256
L24386 18027
" />
<path d="M24386 18027
L24681 17732
" />
<path d="M24681 17732
L25055 17732
" />
<path d="M25055 17732
L25311 17476
" />
<path d="M25311 17476
L25311 9071
" />
<path d="M5271 9819
L6472 9819
" />
<path d="M10212 9937
L11866 11590
" />
<path d="M6590 9937
L10212 9937
" />
<path d="M6472 9819
L6590 9937
" />
<path d="M12693 14464
L9307 14464
" />
<path d="M9307 14464
L8500 13657
" />
<path d="M7909 11748
L7909 10370
" />
<path d="M8500 12338
L7909 11748
" />
<path d="M8500 13657
L8500 12338
" />
<path d="M3519 32594
L3382 32456
" />
<path d="M3382 32456
L3382 20429
" />
<path d="M3382 20429
L3598 20212
" />
<path d="M3598 20212
L6000 20212
" />
<path d="M6000 20212
L9307 16905
" />
<path d="M9307 16905
L10508 16905
" />
</g>
<g style="fill:#9F0000; fill-opacity:1.0; 
stroke:#9F0000; stroke-width:120; stroke-opacity:1; 
stroke-linecap:round; stroke-linejoin:round;">
<path d="M6000 20212
L9307 16905
" />
<path d="M9307 16905
L10508 16905
" />
</g>
<g style="fill:#9F0000; fill-opacity:1.0; 
stroke:#9F0000; stroke-width:200; stroke-opacity:1; 
stroke-linecap:round; stroke-linejoin:round;">
<path d="M8854 17929
L7929 18854
" />
<path d="M11098 17929
L8854 17929
" />
<path d="M11137 17889
L11098 17929
" />
<path d="M7929 18854
L7929 19051
" />
<path d="M4799 26630
L4799 32397
" />
<path d="M5232 26197
L4799 26630
" />
<path d="M5232 21748
L5232 26197
" />
<path d="M7929 19051
L5232 21748
" />
<path d="M21137 17988
L21137 18008
" />
<path d="M20114 19031
L20114 20350
" />
<path d="M21137 18008
L20114 19031
" />
<path d="M18106 19386
L18106 16354
" />
<path d="M16433 14386
L14937 14386
" />
<path d="M17141 15094
L16433 14386
" />
<path d="M17141 15389
L17141 15094
" />
<path d="M18106 16354
L17141 15389
" />
<path d="M14543 35034
L18146 35034
" />
<path d="M18795 31826
L18756 31866
" />
<path d="M18756 31866
L18756 34425
" />
<path d="M18146 35034
L18756 34425
" />
<path d="M11000 33815
L11000 35034
" />
<path d="M11512 33303
L11000 33815
" />
<path d="M12200 33303
L11512 33303
" />
<path d="M12634 32870
L12200 33303
" />
<path d="M12634 28244
L12634 32870
" />
<path d="M12594 28204
L12634 28244
" />
<path d="M12181 35034
L12181 34208
" />
<path d="M17102 33401
L17102 32043
" />
<path d="M16610 33893
L17102 33401
" />
<path d="M12496 33893
L16610 33893
" />
<path d="M12181 34208
L12496 33893
" />
<path d="M12909 23775
L14445 23775
" />
<path d="M17397 23815
L17358 23775
" />
<path d="M17358 23775
L14445 23775
" />
<path d="M13027 27870
L12968 27870
" />
<path d="M12968 27870
L12555 27456
" />
<path d="M12555 26964
L12220 26630
" />
<path d="M12555 27456
L12555 26964
" />
<path d="M12220 26630
L6610 26630
" />
<path d="M6610 26630
L6216 26236
" />
<path d="M6216 26236
L6216 24661
" />
<path d="M6216 24661
L7102 23775
" />
<path d="M7102 23775
L12909 23775
" />
<path d="M13972 27870
L13027 27870
" />
<path d="M13992 27889
L13972 27870
" />
</g>
<g style="fill:#9F0000; fill-opacity:1.0; 
stroke:#9F0000; stroke-width:120; stroke-opacity:1; 
stroke-linecap:round; stroke-linejoin:round;">
<path d="M12575 27476
L12968 27870
" />
<path d="M12575 26984
L12575 27476
" />
<path d="M12220 26630
L12575 26984
" />
</g>
<g style="fill:#9F0000; fill-opacity:1.0; 
stroke:#9F0000; stroke-width:200; stroke-opacity:1; 
stroke-linecap:round; stroke-linejoin:round;">
<path d="M23047 20921
L23047 18598
" />
<path d="M23047 18598
L22004 17555
" />
<path d="M22004 17555
L22004 10508
" />
<path d="M22988 9523
L24878 9523
" />
<path d="M22004 10508
L22988 9523
" />
<path d="M23401 21452
L22220 21452
" />
<path d="M22220 21452
L22181 21413
" />
<path d="M18992 23323
L21216 23323
" />
<path d="M21216 23323
L21374 23165
" />
<path d="M21374 23165
L21374 22220
" />
<path d="M21374 22220
L22181 21413
" />
<path d="M22555 21413
L23047 20921
" />
<path d="M22181 21413
L22555 21413
" />
</g>
<g style="fill:#9F0000; fill-opacity:1.0; 
stroke:#9F0000; stroke-width:120; stroke-opacity:1; 
stroke-linecap:round; stroke-linejoin:round;">
<path d="M21374 23165
L21216 23323
" />
<path d="M21374 22220
L21374 23165
" />
</g>
<g style="fill:#9F0000; fill-opacity:1.0; 
stroke:#9F0000; stroke-width:200; stroke-opacity:1; 
stroke-linecap:round; stroke-linejoin:round;">
<path d="M9523 20606
L9523 18500
" />
<path d="M9523 18500
L9464 18441
" />
<path d="M7594 17693
L6393 16492
" />
<path d="M6393 16492
L3972 16492
" />
<path d="M3972 16492
L3303 15823
" />
<path d="M3303 15823
L3303 9917
" />
<path d="M3303 9917
L3263 9878
" />
</g>
<g style="fill:#9F0000; fill-opacity:1.0; 
stroke:#9F0000; stroke-width:120; stroke-opacity:1; 
stroke-linecap:round; stroke-linejoin:round;">
<path d="M3303 15823
L3303 9917
" />
<path d="M6393 16492
L3972 16492
" />
<path d="M3972 16492
L3303 15823
" />
<path d="M3303 9917
L3263 9878
" />
</g>
<g style="fill:#9F0000; fill-opacity:1.0; 
stroke:#9F0000; stroke-width:200; stroke-opacity:1; 
stroke-linecap:round; stroke-linejoin:round;">
<path d="M4602 3047
L4602 3480
" />
<path d="M6925 16118
L7929 17122
" />
<path d="M4937 16118
L6925 16118
" />
<path d="M4307 15488
L4937 16118
" />
<path d="M4307 3775
L4307 15488
" />
<path d="M4602 3480
L4307 3775
" />
<path d="M10547 20626
L10567 20606
" />
<path d="M10567 20606
L10567 18578
" />
<path d="M7122 8972
L7161 8972
" />
<path d="M7161 8972
L7728 9539
" />
<path d="M7870 9539
L7728 9539
" />
<path d="M18854 8677
L17850 9681
" />
<path d="M10877 9539
L7870 9539
" />
<path d="M11019 9681
L10877 9539
" />
<path d="M17850 9681
L11019 9681
" />
<path d="M12043 18283
L12043 17693
" />
<path d="M10704 16354
L12043 17693
" />
<path d="M8244 16354
L10704 16354
" />
<path d="M7122 8972
L5114 8972
" />
<path d="M5114 8972
L4740 9346
" />
<path d="M4740 9346
L4740 15193
" />
<path d="M4740 15193
L5252 15704
" />
<path d="M5252 15704
L7594 15704
" />
<path d="M7594 15704
L8244 16354
" />
<path d="M18854 5547
L18854 8677
" />
<path d="M15980 6610
L15980 6216
" />
<path d="M16649 5547
L18854 5547
" />
<path d="M15980 6216
L16649 5547
" />
<path d="M18854 5547
L19208 5193
" />
<path d="M19208 5193
L19208 4445
" />
<path d="M19208 4445
L19956 3697
" />
<path d="M12043 20271
L12043 18283
" />
<path d="M11571 20744
L12043 20271
" />
</g>
<g style="fill:#9F0000; fill-opacity:1.0; 
stroke:#9F0000; stroke-width:120; stroke-opacity:1; 
stroke-linecap:round; stroke-linejoin:round;">
<path d="M18952 5429
L18952 5449
" />
<path d="M18854 8677
L18854 5527
" />
<path d="M18854 5527
L18952 5429
" />
<path d="M18854 5547
L18952 5449
" />
<path d="M19208 4445
L19956 3697
" />
<path d="M19208 5193
L19208 4445
" />
<path d="M18952 5449
L19208 5193
" />
</g>
<g style="fill:#9F0000; fill-opacity:1.0; 
stroke:#9F0000; stroke-width:200; stroke-opacity:1; 
stroke-linecap:round; stroke-linejoin:round;">
<path d="M20823 18972
L20823 18952
" />
<path d="M20527 9267
L20527 7949
" />
<path d="M21571 10311
L20527 9267
" />
<path d="M21571 18204
L21571 10311
" />
<path d="M20823 18952
L21571 18204
" />
<path d="M12476 20704
L12476 19681
" />
<path d="M20823 20586
L20823 18972
" />
<path d="M20134 21275
L20823 20586
" />
<path d="M18815 21275
L20134 21275
" />
<path d="M17594 20055
L18815 21275
" />
<path d="M17594 18441
L17594 20055
" />
<path d="M17023 17870
L17594 18441
" />
<path d="M14287 17870
L17023 17870
" />
<path d="M12476 19681
L14287 17870
" />
<path d="M19582 18893
L19582 18287
" />
<path d="M19582 18287
L20153 17716
" />
<path d="M1472 18086
L1472 11945
" />
<path d="M1472 11945
L1354 11826
" />
<path d="M18008 10468
L16984 11492
" />
<path d="M16984 11492
L13689 11492
" />
<path d="M11000 38578
L12181 38578
" />
</g>
<g style="fill:#9F0000; fill-opacity:1.0; 
stroke:#9F0000; stroke-width:120; stroke-opacity:1; 
stroke-linecap:round; stroke-linejoin:round;">
<path d="M1354 11826
L1472 11945
" />
</g>
<g style="fill:#9F0000; fill-opacity:1.0; 
stroke:#9F0000; stroke-width:200; stroke-opacity:1; 
stroke-linecap:round; stroke-linejoin:round;">
<path d="M15004 26393
L14551 26846
" />
<path d="M21669 26393
L15004 26393
" />
<path d="M21748 26472
L21669 26393
" />
<path d="M14543 38578
L20016 38578
" />
<path d="M20016 38578
L20527 38067
" />
<path d="M20527 38067
L20527 32929
" />
<path d="M13362 38578
L14543 38578
" />
<path d="M12181 38578
L13362 38578
" />
</g>
<g style="fill:#9F0000; fill-opacity:1.0; 
stroke:#9F0000; stroke-width:120; stroke-opacity:1; 
stroke-linecap:round; stroke-linejoin:round;">
<path d="M16984 11492
L13689 11492
" />
<path d="M20016 38578
L20527 38067
" />
<path d="M20527 38067
L20527 32929
" />
</g>
<g style="fill:#9F0000; fill-opacity:1.0; 
stroke:#9F0000; stroke-width:200; stroke-opacity:1; 
stroke-linecap:round; stroke-linejoin:round;">
<path d="M12181 35784
L12181 37752
" />
<path d="M11000 37752
L11000 35784
" />
<path d="M13362 35784
L13362 37752
" />
<path d="M14543 37752
L14543 35784
" />
<path d="M13362 35034
L13362 34504
" />
<path d="M13362 34504
L13401 34464
" />
<path d="M13362 30941
L13362 33441
" />
<path d="M13382 30921
L13362 30941
" />
<path d="M22456 26531
L22102 26886
" />
<path d="M22456 26000
L22456 26531
" />
<path d="M22732 25724
L22456 26000
" />
<path d="M23539 25724
L22732 25724
" />
<path d="M23952 25311
L23539 25724
" />
<path d="M23952 18263
L23952 25311
" />
<path d="M23697 18008
L23952 18263
" />
<path d="M22102 26886
L21118 26886
" />
</g>
<g style="fill:#9F0000; fill-opacity:1.0; 
stroke:#9F0000; stroke-width:120; stroke-opacity:1; 
stroke-linecap:round; stroke-linejoin:round;">
<path d="M22102 26886
L21118 26886
" />
</g>
<g style="fill:#FFFFFF; fill-opacity:1.0; 
stroke:#FFFFFF; stroke-width:39.3701; stroke-opacity:1; 
stroke-linecap:round; stroke-linejoin:round;">
<circle cx="23618.3" cy="8637.99" r="105.315" /> 
<circle cx="21393.9" cy="21492.3" r="105.315" /> 
<circle cx="24543.5" cy="22693.1" r="105.315" /> 
<circle cx="9838.78" cy="30744.3" r="105.315" /> 
<circle cx="9878.15" cy="36118.3" r="105.315" /> 
<circle cx="7122.24" cy="18382.1" r="105.315" /> 
<circle cx="21807.3" cy="33933.3" r="105.315" /> 
<circle cx="11649.8" cy="9169.49" r="105.315" /> 
<circle cx="14681.3" cy="9130.12" r="105.315" /> 
<circle cx="9326.97" cy="9130.12" r="105.315" /> 
<circle cx="17634.1" cy="9130.12" r="105.315" /> 
<circle cx="9582.87" cy="626.181" r="105.315" /> 
<circle cx="24858.5" cy="25212.8" r="105.315" /> 
<circle cx="24130.1" cy="6354.53" r="105.315" /> 
<circle cx="11866.3" cy="11590.7" r="105.315" /> 
<circle cx="5271.85" cy="9819.09" r="105.315" /> 
<circle cx="12693.1" cy="14464.8" r="105.315" /> 
<circle cx="7909.65" cy="10370.3" r="105.315" /> 
<circle cx="3519.88" cy="32594.7" r="105.315" /> 
<circle cx="10508.1" cy="16905.7" r="105.315" /> 
<circle cx="11138" cy="17890" r="105.315" /> 
<circle cx="4799.41" cy="32397.8" r="105.315" /> 
<circle cx="20114.4" cy="20350.6" r="105.315" /> 
<circle cx="21138" cy="17988.4" r="105.315" /> 
<circle cx="18106.5" cy="19386" r="105.315" /> 
<circle cx="14937.2" cy="14386" r="105.315" /> 
<circle cx="18795.5" cy="31827" r="105.315" /> 
<circle cx="12594.7" cy="28204.9" r="105.315" /> 
<circle cx="17102.6" cy="32043.5" r="105.315" /> 
<circle cx="17397.8" cy="23815.2" r="105.315" /> 
<circle cx="13992.3" cy="27890" r="105.315" /> 
<circle cx="23401.8" cy="21453" r="105.315" /> 
<circle cx="18992.3" cy="23323" r="105.315" /> 
<circle cx="24878.2" cy="9523.82" r="105.315" /> 
<circle cx="9464.76" cy="18441.1" r="105.315" /> 
<circle cx="7594.69" cy="17693.1" r="105.315" /> 
<circle cx="3263.98" cy="9878.15" r="105.315" /> 
<circle cx="9523.82" cy="20606.5" r="105.315" /> 
<circle cx="4602.56" cy="3047.44" r="105.315" /> 
<circle cx="7929.33" cy="17122.2" r="105.315" /> 
<circle cx="10547.4" cy="20626.2" r="105.315" /> 
<circle cx="10567.1" cy="18578.9" r="105.315" /> 
<circle cx="11571.1" cy="20744.3" r="105.315" /> 
<circle cx="15980.5" cy="6610.43" r="105.315" /> 
<circle cx="19956.9" cy="3697.05" r="105.315" /> 
<circle cx="20527.8" cy="7949.02" r="105.315" /> 
<circle cx="12476.6" cy="20704.9" r="105.315" /> 
<circle cx="1354.53" cy="11827" r="105.315" /> 
<circle cx="1472.64" cy="18086.8" r="105.315" /> 
<circle cx="21748.2" cy="26472.6" r="105.315" /> 
<circle cx="18008.1" cy="10468.7" r="105.315" /> 
<circle cx="19582.9" cy="18893.9" r="105.315" /> 
<circle cx="20527.8" cy="32929.3" r="105.315" /> 
<circle cx="13401.8" cy="34464.8" r="105.315" /> 
<circle cx="13362.4" cy="33441.1" r="105.315" /> 
<circle cx="13382.1" cy="30921.5" r="105.315" /> 
<circle cx="23697" cy="18008.1" r="105.315" /> 
<circle cx="21118.3" cy="26886" r="105.315" /> 
<circle cx="4421.46" cy="25472.6" r="140.315" /> 
<circle cx="2421.46" cy="25472.6" r="140.315" /> 
<circle cx="4421.46" cy="22472.6" r="140.315" /> 
<circle cx="2421.46" cy="22472.6" r="140.315" /> 
<circle cx="4421.46" cy="21456.9" r="140.315" /> 
<circle cx="2421.46" cy="21456.9" r="140.315" /> 
<circle cx="4421.46" cy="18456.9" r="140.315" /> 
<circle cx="2421.46" cy="18456.9" r="140.315" /> 
<circle cx="25000.2" cy="18760" r="140.315" /> 
<circle cx="25000.2" cy="20760" r="140.315" /> 
<circle cx="22000.2" cy="18760" r="140.315" /> 
<circle cx="22000.2" cy="20760" r="140.315" /> 
<circle cx="11220.7" cy="28618.3" r="140.315" /> 
<circle cx="8220.67" cy="28618.3" r="140.315" /> 
<circle cx="15626.2" cy="21456.9" r="140.315" /> 
<circle cx="15626.2" cy="18456.9" r="140.315" /> 
<circle cx="8661.61" cy="19169.5" r="140.315" /> 
<circle cx="5661.61" cy="19169.5" r="140.315" /> 
<circle cx="22212.8" cy="22697" r="180.315" /> 
<circle cx="23212.8" cy="22697" r="180.315" /> 
<circle cx="22212.8" cy="23697" r="180.315" /> 
<circle cx="23212.8" cy="23697" r="180.315" /> 
<circle cx="22212.8" cy="24697" r="180.315" /> 
<circle cx="23212.8" cy="24697" r="180.315" /> 
<circle cx="19744.3" cy="27634.1" r="180.315" /> 
<circle cx="20744.3" cy="27634.1" r="180.315" /> 
<circle cx="21744.3" cy="27634.1" r="180.315" /> 
<circle cx="21138" cy="2263.98" r="180.315" /> 
<circle cx="21138" cy="3263.98" r="180.315" /> 
<circle cx="21138" cy="4263.98" r="180.315" /> 
<circle cx="3519.88" cy="6555.32" r="180.315" /> 
<circle cx="3519.88" cy="7555.32" r="180.315" /> 
<circle cx="3519.88" cy="8555.32" r="180.315" /> 
<circle cx="24897.8" cy="3641.93" r="180.315" /> 
<circle cx="24897.8" cy="4641.93" r="180.315" /> 
<circle cx="24897.8" cy="5641.93" r="180.315" /> 
<circle cx="21334.8" cy="6949.02" r="180.315" /> 
<circle cx="21334.8" cy="7949.02" r="180.315" /> 
<circle cx="21334.8" cy="8949.02" r="180.315" /> 
<circle cx="3519.88" cy="1929.33" r="180.315" /> 
<circle cx="3519.88" cy="2929.33" r="180.315" /> 
<circle cx="3519.88" cy="3929.33" r="180.315" /> 
<circle cx="13354.5" cy="29346.7" r="180.315" /> 
<circle cx="14354.5" cy="29346.7" r="180.315" /> 
<circle cx="7752.17" cy="14945.1" r="180.315" /> 
<circle cx="7752.17" cy="13945.1" r="180.315" /> 
<circle cx="24878.2" cy="8055.32" r="180.315" /> 
<circle cx="24878.2" cy="7055.32" r="180.315" /> 
<circle cx="9370.28" cy="15445.1" r="180.315" /> 
<circle cx="9870.28" cy="13445.1" r="140.315" /> 
<circle cx="10370.3" cy="15445.1" r="140.315" /> 
<circle cx="10870.3" cy="13445.1" r="140.315" /> 
<circle cx="11370.3" cy="15445.1" r="140.315" /> 
<circle cx="11870.3" cy="13445.1" r="140.315" /> 
<circle cx="12370.3" cy="15445.1" r="140.315" /> 
<circle cx="12870.3" cy="13445.1" r="140.315" /> 
<circle cx="13370.3" cy="15445.1" r="140.315" /> 
<circle cx="13870.3" cy="13445.1" r="140.315" /> 
<circle cx="14370.3" cy="15445.1" r="140.315" /> 
<circle cx="14870.3" cy="13445.1" r="140.315" /> 
<circle cx="15370.3" cy="15445.1" r="140.315" /> 
<circle cx="15870.3" cy="13445.1" r="140.315" /> 
<circle cx="16370.3" cy="15445.1" r="140.315" /> 
<circle cx="8551.38" cy="25590.7" r="140.315" /> 
<circle cx="9551.38" cy="25590.7" r="140.315" /> 
<circle cx="10551.4" cy="25590.7" r="140.315" /> 
<circle cx="11551.4" cy="25590.7" r="140.315" /> 
<circle cx="12551.4" cy="25590.7" r="140.315" /> 
<circle cx="13551.4" cy="25590.7" r="140.315" /> 
<circle cx="14551.4" cy="25590.7" r="140.315" /> 
<circle cx="15551.4" cy="25590.7" r="140.315" /> 
<circle cx="16551.4" cy="25590.7" r="140.315" /> 
<circle cx="17551.4" cy="25590.7" r="140.315" /> 
<circle cx="18551.4" cy="25590.7" r="140.315" /> 
<circle cx="19551.4" cy="25590.7" r="140.315" /> 
<circle cx="20551.4" cy="25590.7" r="140.315" /> 
<circle cx="7551.38" cy="25590.7" r="140.315" /> 
<circle cx="20551.4" cy="22590.7" r="140.315" /> 
<circle cx="19551.4" cy="22590.7" r="140.315" /> 
<circle cx="18551.4" cy="22590.7" r="140.315" /> 
<circle cx="17551.4" cy="22590.7" r="140.315" /> 
<circle cx="16551.4" cy="22590.7" r="140.315" /> 
<circle cx="15551.4" cy="22590.7" r="140.315" /> 
<circle cx="14551.4" cy="22590.7" r="140.315" /> 
<circle cx="13551.4" cy="22590.7" r="140.315" /> 
<circle cx="12551.4" cy="22590.7" r="140.315" /> 
<circle cx="11551.4" cy="22590.7" r="140.315" /> 
<circle cx="10551.4" cy="22590.7" r="140.315" /> 
<circle cx="9551.38" cy="22590.7" r="140.315" /> 
<circle cx="8551.38" cy="22590.7" r="140.315" /> 
<circle cx="7551.38" cy="22590.7" r="140.315" /> 
<circle cx="6571.06" cy="10976.6" r="140.315" /> 
<circle cx="6571.06" cy="13976.6" r="140.315" /> 
<circle cx="19169.5" cy="10976.6" r="140.315" /> 
<circle cx="19169.5" cy="13976.6" r="140.315" /> 
<circle cx="19169.5" cy="14716.7" r="140.315" /> 
<circle cx="19169.5" cy="17716.7" r="140.315" /> 
<circle cx="20153.7" cy="14716.7" r="140.315" /> 
<circle cx="20153.7" cy="17716.7" r="140.315" /> 
<circle cx="20153.7" cy="10976.6" r="140.315" /> 
<circle cx="20153.7" cy="13976.6" r="140.315" /> 
<circle cx="6571.06" cy="14716.7" r="140.315" /> 
<circle cx="6571.06" cy="17716.7" r="140.315" /> 
<circle cx="5586.81" cy="14716.7" r="140.315" /> 
<circle cx="5586.81" cy="17716.7" r="140.315" /> 
<circle cx="5586.81" cy="10976.6" r="140.315" /> 
<circle cx="5586.81" cy="13976.6" r="140.315" /> 
<circle cx="7555.32" cy="830.906" r="140.315" /> 
<circle cx="7555.32" cy="4830.91" r="140.315" /> 
<circle cx="13035.6" cy="17004.1" r="140.315" /> 
<circle cx="17035.6" cy="17004.1" r="140.315" /> 
<circle cx="9689.17" cy="11492.3" r="140.315" /> 
<circle cx="13689.2" cy="11492.3" r="140.315" /> 
<circle cx="13945.1" cy="6661.61" r="100.315" /> 
<circle cx="14945.1" cy="7661.61" r="100.315" /> 
<circle cx="14945.1" cy="6661.61" r="100.315" /> 
<circle cx="13945.1" cy="7661.61" r="100.315" /> 
<circle cx="7645.87" cy="6661.61" r="100.315" /> 
<circle cx="8645.87" cy="7661.61" r="100.315" /> 
<circle cx="8645.87" cy="6661.61" r="100.315" /> 
<circle cx="7645.87" cy="7661.61" r="100.315" /> 
<circle cx="17094.7" cy="6661.61" r="100.315" /> 
<circle cx="18094.7" cy="7661.61" r="100.315" /> 
<circle cx="18094.7" cy="6661.61" r="100.315" /> 
<circle cx="17094.7" cy="7661.61" r="100.315" /> 
<circle cx="10795.5" cy="6661.61" r="100.315" /> 
<circle cx="11795.5" cy="7661.61" r="100.315" /> 
<circle cx="11795.5" cy="6661.61" r="100.315" /> 
<circle cx="10795.5" cy="7661.61" r="100.315" /> 
<circle cx="13551.4" cy="26846.7" r="140.315" /> 
<circle cx="14551.4" cy="26846.7" r="140.315" /> 
<circle cx="14551.4" cy="21334.8" r="140.315" /> 
<circle cx="13551.4" cy="21334.8" r="140.315" /> 
<circle cx="6728.54" cy="28748.2" r="140.315" /> 
<circle cx="6728.54" cy="29748.2" r="140.315" /> 
<circle cx="13551.4" cy="20153.7" r="140.315" /> 
<circle cx="14551.4" cy="20153.7" r="140.315" /> 
<circle cx="23697" cy="16626.2" r="280.315" /> 
<circle cx="23697" cy="14626.2" r="280.315" /> 
<circle cx="17988.4" cy="13945.1" r="180.315" /> 
<circle cx="17988.4" cy="14945.1" r="180.315" /> 
<circle cx="23893.9" cy="28634.1" r="280.315" /> 
<circle cx="23893.9" cy="26634.1" r="280.315" /> 
<circle cx="8023.82" cy="29799.4" r="180.315" /> 
<circle cx="9023.82" cy="29799.4" r="180.315" /> 
<circle cx="10023.8" cy="29799.4" r="180.315" /> 
<circle cx="11023.8" cy="29799.4" r="180.315" /> 
<circle cx="12870.3" cy="3224.61" r="580.315" /> 
<circle cx="11689.2" cy="27437.2" r="374.016" /> 
<circle cx="10508.1" cy="27437.2" r="374.016" /> 
<circle cx="4405.71" cy="17397.8" r="374.016" /> 
<circle cx="2043.5" cy="30783.7" r="374.016" /> 
<circle cx="2043.5" cy="37476.6" r="374.016" /> 
<circle cx="23697" cy="37476.6" r="374.016" /> 
<circle cx="23697" cy="30783.7" r="374.016" /> 
<circle cx="12870.3" cy="3224.61" r="374.016" /> 
<circle cx="16610.4" cy="20653.7" r="180.315" /> 
<circle cx="16610.4" cy="19653.7" r="180.315" /> 
<circle cx="8578.94" cy="4212.8" r="140.315" /> 
<circle cx="8578.94" cy="1212.8" r="140.315" /> 
<circle cx="22515.9" cy="5661.61" r="140.315" /> 
<circle cx="22515.9" cy="8661.61" r="140.315" /> 
<circle cx="5586.81" cy="5551.38" r="140.315" /> 
<circle cx="5586.81" cy="2551.38" r="140.315" /> 
<circle cx="19956.9" cy="1685.24" r="140.315" /> 
<circle cx="19956.9" cy="4685.24" r="140.315" /> 
<circle cx="19661.6" cy="6685.24" r="140.315" /> 
<circle cx="19661.6" cy="9685.24" r="140.315" /> 
<circle cx="2338.78" cy="9055.32" r="140.315" /> 
<circle cx="2338.78" cy="6055.32" r="140.315" /> 
<circle cx="2338.78" cy="1429.33" r="140.315" /> 
<circle cx="2338.78" cy="4429.33" r="140.315" /> 
<circle cx="22791.5" cy="1645.87" r="140.315" /> 
<circle cx="22791.5" cy="4645.87" r="140.315" /> 
<circle cx="8736.42" cy="21374.2" r="374.016" /> 
<circle cx="7555.32" cy="21393.9" r="374.016" /> 
<circle cx="4071.06" cy="26512" r="374.016" /> 
<circle cx="5665.55" cy="27515.9" r="374.016" /> 
<circle cx="23460.8" cy="10508.1" r="374.016" /> 
<circle cx="24445.1" cy="11354.5" r="374.016" /> 
</g> 
</svg>
