G04 (created by PCBNEW-RS274X (2011-05-25)-stable) date Wed 02 Nov 2011 07:07:17 PM ART*
G01*
G70*
G90*
%MOIN*%
G04 Gerber Fmt 3.4, Leading zero omitted, Abs format*
%FSLAX34Y34*%
G04 APERTURE LIST*
%ADD10C,0.006000*%
%ADD11C,0.082700*%
%ADD12C,0.070900*%
%ADD13C,0.118100*%
%ADD14C,0.055000*%
%ADD15C,0.059100*%
%ADD16C,0.039400*%
G04 APERTURE END LIST*
G54D10*
G54D11*
X34500Y-18500D03*
X33500Y-18500D03*
X32500Y-18500D03*
G54D12*
X34000Y-20000D03*
X33000Y-21000D03*
X34000Y-21000D03*
X33000Y-20000D03*
G54D13*
X33498Y-16388D03*
X33512Y-24536D03*
G54D14*
X34500Y-22500D03*
X32500Y-22500D03*
G54D15*
X33500Y-18500D02*
X33500Y-19124D01*
G54D16*
X33114Y-19886D02*
X33000Y-20000D01*
X33114Y-19510D02*
X33114Y-19886D01*
X33500Y-19124D02*
X33114Y-19510D01*
G54D15*
X34500Y-18500D02*
X35036Y-18500D01*
G54D16*
X34000Y-21000D02*
X34000Y-21440D01*
X35248Y-18712D02*
X35036Y-18500D01*
X35248Y-22672D02*
X35248Y-18712D01*
X34798Y-23122D02*
X35248Y-22672D01*
X34168Y-23122D02*
X34798Y-23122D01*
X33758Y-22712D02*
X34168Y-23122D01*
X33758Y-21682D02*
X33758Y-22712D01*
X34000Y-21440D02*
X33758Y-21682D01*
G54D15*
X32500Y-18500D02*
X32320Y-18500D01*
X32320Y-18500D02*
X32258Y-18562D01*
X32258Y-18562D02*
X32500Y-18500D01*
G54D16*
X33000Y-21000D02*
X32258Y-21000D01*
X32258Y-21000D02*
X32326Y-21000D01*
X32320Y-18500D02*
X32258Y-18562D01*
X32258Y-22258D02*
X32500Y-22500D01*
X32258Y-18562D02*
X32258Y-22258D01*
X34000Y-20000D02*
X34006Y-20000D01*
X34500Y-21870D02*
X34500Y-22500D01*
X34708Y-21662D02*
X34500Y-21870D01*
X34708Y-20702D02*
X34708Y-21662D01*
X34006Y-20000D02*
X34708Y-20702D01*
M02*
